G04 #@! TF.FileFunction,Copper,L2,Bot,Signal*
%FSLAX46Y46*%
G04 Gerber Fmt 4.6, Leading zero omitted, Abs format (unit mm)*
G04 Created by KiCad (PCBNEW 4.0.0-rc1-stable) date 23.12.2015 15:42:49*
%MOMM*%
G01*
G04 APERTURE LIST*
%ADD10C,0.150000*%
%ADD11C,2.500000*%
%ADD12R,2.500000X2.500000*%
%ADD13C,1.500000*%
%ADD14C,3.000000*%
%ADD15C,1.600000*%
%ADD16C,1.506220*%
%ADD17R,2.500000X1.727200*%
%ADD18O,2.500000X1.727200*%
%ADD19R,1.727200X2.032000*%
%ADD20O,1.727200X2.032000*%
%ADD21R,1.727200X1.727200*%
%ADD22O,1.727200X1.727200*%
%ADD23R,2.032000X1.727200*%
%ADD24O,2.032000X1.727200*%
%ADD25C,1.700000*%
%ADD26R,1.700000X1.700000*%
%ADD27C,1.000000*%
%ADD28C,3.000000*%
%ADD29C,0.500000*%
%ADD30C,1.500000*%
%ADD31C,2.000000*%
%ADD32C,1.000000*%
%ADD33C,0.750000*%
G04 APERTURE END LIST*
D10*
D11*
X7137400Y54084400D03*
D12*
X7137400Y59334400D03*
D13*
X3022600Y107594400D03*
D14*
X79933800Y5292400D03*
D15*
X81203800Y9042400D03*
X83743800Y9042400D03*
X86283800Y9042400D03*
D14*
X87553800Y5292400D03*
X65532000Y5317800D03*
D15*
X66802000Y9067800D03*
X69342000Y9067800D03*
X71882000Y9067800D03*
D14*
X73152000Y5317800D03*
X51079400Y5343200D03*
D15*
X52349400Y9093200D03*
X54889400Y9093200D03*
X57429400Y9093200D03*
D14*
X58699400Y5343200D03*
X36525200Y5343200D03*
D15*
X37795200Y9093200D03*
X40335200Y9093200D03*
X42875200Y9093200D03*
D14*
X44145200Y5343200D03*
X21971000Y5292400D03*
D15*
X23241000Y9042400D03*
X25781000Y9042400D03*
X28321000Y9042400D03*
D14*
X29591000Y5292400D03*
X7670800Y5292400D03*
D15*
X8940800Y9042400D03*
X11480800Y9042400D03*
X14020800Y9042400D03*
D14*
X15290800Y5292400D03*
D16*
X7086600Y98475800D03*
X7086600Y101015800D03*
X9626600Y98475800D03*
X9626600Y101015800D03*
X12166600Y98475800D03*
X12166600Y101015800D03*
X14706600Y98475800D03*
X14706600Y101015800D03*
X17246600Y98475800D03*
X17246600Y101015800D03*
X86741000Y73863200D03*
X89281000Y73863200D03*
X86741000Y71323200D03*
X89281000Y71323200D03*
X86741000Y68783200D03*
X89281000Y68783200D03*
X86741000Y66243200D03*
X89281000Y66243200D03*
X86741000Y63703200D03*
X89281000Y63703200D03*
X86741000Y52832000D03*
X89281000Y52832000D03*
X86741000Y50292000D03*
X89281000Y50292000D03*
X86741000Y47752000D03*
X89281000Y47752000D03*
X86741000Y45212000D03*
X89281000Y45212000D03*
X86741000Y42672000D03*
X89281000Y42672000D03*
X86791800Y31673800D03*
X89331800Y31673800D03*
X86791800Y29133800D03*
X89331800Y29133800D03*
X86791800Y26593800D03*
X89331800Y26593800D03*
X86791800Y24053800D03*
X89331800Y24053800D03*
X86791800Y21513800D03*
X89331800Y21513800D03*
D17*
X73138000Y22352000D03*
D18*
X73138000Y24892000D03*
X73138000Y27432000D03*
X73138000Y29972000D03*
X73138000Y32512000D03*
X73138000Y35052000D03*
X73138000Y37592000D03*
X73138000Y40132000D03*
D17*
X73138000Y44696000D03*
D18*
X73138000Y47236000D03*
X73138000Y49776000D03*
X73138000Y52316000D03*
X73138000Y54856000D03*
X73138000Y57396000D03*
X73138000Y59936000D03*
X73138000Y62476000D03*
X73138000Y65016000D03*
X73138000Y67556000D03*
D17*
X24638000Y22352000D03*
D18*
X24638000Y24892000D03*
X24638000Y27432000D03*
X24638000Y29972000D03*
X24638000Y32512000D03*
X24638000Y35052000D03*
D17*
X24638000Y40152000D03*
D18*
X24638000Y42692000D03*
X24638000Y45232000D03*
X24638000Y47772000D03*
X24638000Y50312000D03*
X24638000Y52852000D03*
X24638000Y55392000D03*
X24638000Y57932000D03*
D19*
X50825400Y20751800D03*
D20*
X53365400Y20751800D03*
X55905400Y20751800D03*
X58445400Y20751800D03*
X60985400Y20751800D03*
X63525400Y20751800D03*
D11*
X7112000Y38247500D03*
D12*
X7112000Y43497500D03*
D21*
X42291000Y95605600D03*
D22*
X39751000Y95605600D03*
X42291000Y93065600D03*
X39751000Y93065600D03*
X42291000Y90525600D03*
X39751000Y90525600D03*
D21*
X39751000Y81127600D03*
D22*
X42291000Y81127600D03*
X39751000Y83667600D03*
X42291000Y83667600D03*
X39751000Y86207600D03*
X42291000Y86207600D03*
D23*
X2260600Y78155800D03*
D24*
X2260600Y80695800D03*
X2260600Y83235800D03*
X2260600Y85775800D03*
D21*
X13436600Y88315800D03*
D22*
X10896600Y88315800D03*
X13436600Y85775800D03*
X10896600Y85775800D03*
X13436600Y83235800D03*
X10896600Y83235800D03*
D21*
X80200500Y105283000D03*
D22*
X77660500Y105283000D03*
X80200500Y102743000D03*
X77660500Y102743000D03*
X80200500Y100203000D03*
X77660500Y100203000D03*
D23*
X69215000Y95123000D03*
D24*
X69215000Y97663000D03*
X69215000Y100203000D03*
X69215000Y102743000D03*
D23*
X28829000Y58699400D03*
D24*
X28829000Y61239400D03*
X28829000Y63779400D03*
X28829000Y66319400D03*
D21*
X39941500Y68859400D03*
D22*
X37401500Y68859400D03*
X39941500Y66319400D03*
X37401500Y66319400D03*
X39941500Y63779400D03*
X37401500Y63779400D03*
D23*
X49149000Y58762900D03*
D24*
X49149000Y61302900D03*
X49149000Y63842900D03*
X49149000Y66382900D03*
D21*
X60388500Y68922900D03*
D22*
X57848500Y68922900D03*
X60388500Y66382900D03*
X57848500Y66382900D03*
X60388500Y63842900D03*
X57848500Y63842900D03*
D21*
X42291000Y105130600D03*
D22*
X39751000Y105130600D03*
X42291000Y102590600D03*
X39751000Y102590600D03*
X42291000Y100050600D03*
X39751000Y100050600D03*
D25*
X5920600Y88315800D03*
X5920600Y90855800D03*
X5920600Y85775800D03*
X5920600Y83235800D03*
X5920600Y80695800D03*
X5920600Y78155800D03*
X5920600Y75615800D03*
X5920600Y73075800D03*
D26*
X18770600Y73075800D03*
D25*
X18770600Y75615800D03*
X18770600Y78155800D03*
X18770600Y80695800D03*
X18770600Y83235800D03*
X18770600Y85775800D03*
X18770600Y90855800D03*
X18770600Y88315800D03*
X52682000Y68922900D03*
X52682000Y71462900D03*
X52682000Y66382900D03*
X52682000Y63842900D03*
X52682000Y61302900D03*
X52682000Y58762900D03*
X52682000Y56222900D03*
X52682000Y53682900D03*
D26*
X65532000Y53682900D03*
D25*
X65532000Y56222900D03*
X65532000Y58762900D03*
X65532000Y61302900D03*
X65532000Y63842900D03*
X65532000Y66382900D03*
X65532000Y71462900D03*
X65532000Y68922900D03*
X32489000Y68859400D03*
X32489000Y71399400D03*
X32489000Y66319400D03*
X32489000Y63779400D03*
X32489000Y61239400D03*
X32489000Y58699400D03*
X32489000Y56159400D03*
X32489000Y53619400D03*
D26*
X45339000Y53619400D03*
D25*
X45339000Y56159400D03*
X45339000Y58699400D03*
X45339000Y61239400D03*
X45339000Y63779400D03*
X45339000Y66319400D03*
X45339000Y71399400D03*
X45339000Y68859400D03*
X72875000Y105283000D03*
X72875000Y107823000D03*
X72875000Y102743000D03*
X72875000Y100203000D03*
X72875000Y97663000D03*
X72875000Y95123000D03*
X72875000Y92583000D03*
X72875000Y90043000D03*
D26*
X85725000Y90043000D03*
D25*
X85725000Y92583000D03*
X85725000Y95123000D03*
X85725000Y97663000D03*
X85725000Y100203000D03*
X85725000Y102743000D03*
X85725000Y107823000D03*
X85725000Y105283000D03*
D13*
X3022600Y3022600D03*
X92481400Y3022600D03*
X92481400Y107594400D03*
D27*
X71577200Y73837800D03*
X70408800Y74803000D03*
X63119000Y46202600D03*
X61137800Y48056800D03*
X68834000Y74803000D03*
X63119000Y48031400D03*
X58750200Y52959000D03*
X8356600Y79451200D03*
X75209400Y96164400D03*
X75209400Y92633800D03*
X76352400Y91033600D03*
X55245000Y59944000D03*
X55245000Y57429400D03*
X56515000Y56337200D03*
X35128200Y59969400D03*
X34925000Y56946800D03*
X35458400Y54559200D03*
X8382000Y76682600D03*
X8509000Y73863200D03*
X6985000Y32537400D03*
X23647400Y61417200D03*
X22961600Y65735200D03*
X21094700Y60109100D03*
X79044800Y39217600D03*
X76123800Y42138600D03*
X22555200Y82804000D03*
X31597600Y88265000D03*
X31597600Y94869000D03*
X31597600Y82804000D03*
X22555200Y79400400D03*
X32410400Y45491400D03*
X68275200Y25831800D03*
X76377800Y31242000D03*
X77952600Y23876000D03*
X77952600Y28346400D03*
X76377800Y33629600D03*
X65786000Y89077800D03*
X76225400Y69519800D03*
X55143400Y41960800D03*
X56921400Y52984400D03*
X51943000Y32969200D03*
X64922400Y31115000D03*
X44246800Y20955000D03*
X34213800Y38404800D03*
X19583400Y37642800D03*
X40233600Y24053800D03*
X19583400Y20320000D03*
X2921000Y51104800D03*
X2921000Y48768000D03*
X15392400Y46228000D03*
X39751000Y39928800D03*
X42240200Y45085000D03*
X57785000Y71374000D03*
X59588400Y105283000D03*
X57912000Y31115000D03*
X57912000Y24130000D03*
X43053000Y16433800D03*
X51950620Y16416020D03*
X30708600Y36677600D03*
X28727400Y20167600D03*
X47498000Y75387200D03*
X62230000Y57124600D03*
X62230000Y73456800D03*
X91338400Y76327000D03*
X84963000Y46431200D03*
X42468800Y57556400D03*
X48844200Y76809600D03*
X66370200Y76225400D03*
X83058000Y73075800D03*
X73837800Y76073000D03*
X43586400Y43611800D03*
X48006000Y36957000D03*
X45135800Y41910000D03*
X81457800Y78663800D03*
X57835800Y88925400D03*
X46659800Y100050600D03*
X61493400Y88950800D03*
X75082400Y81559400D03*
X81991200Y74193400D03*
X75184000Y75387200D03*
X66319400Y78181200D03*
X50292000Y78181200D03*
X80645000Y50292000D03*
X72161400Y81102200D03*
X85115400Y74904600D03*
X56184800Y81178400D03*
X66294000Y81102200D03*
X83743800Y47726600D03*
X76682600Y79933800D03*
X78943200Y79933800D03*
X57759600Y90601800D03*
X61442600Y90601800D03*
X46659800Y102590600D03*
X66319400Y79629000D03*
X51663600Y79629000D03*
X76758800Y75514200D03*
X80949800Y74930000D03*
X82981800Y81788000D03*
X88925400Y81788000D03*
X85344000Y81788000D03*
X80949800Y67335400D03*
X57861200Y87553800D03*
X61442600Y87579200D03*
X73609200Y81534000D03*
X84099400Y77571600D03*
X88087200Y84023200D03*
X84099400Y68783200D03*
X61341000Y92202000D03*
X46736000Y105130600D03*
X57759600Y92202000D03*
X53365400Y23901400D03*
X50368200Y23901400D03*
X55016400Y23850600D03*
X50825400Y36093400D03*
X55168800Y43713400D03*
X46456600Y41554400D03*
X48463200Y42164000D03*
X55118000Y40233600D03*
X20116800Y11684000D03*
X39497000Y19278600D03*
X33147000Y11811000D03*
X41935400Y19329400D03*
X59817000Y11049000D03*
X50215800Y11049000D03*
X50139600Y13385800D03*
X59232800Y13030200D03*
X74396600Y11353800D03*
X64922400Y11353800D03*
X22707600Y86207600D03*
X61620400Y25425400D03*
X46024800Y28981400D03*
X85039200Y35839400D03*
X54737000Y26162000D03*
X45745400Y30480000D03*
X82956400Y24638000D03*
X44246800Y35382200D03*
X62839600Y51231800D03*
X30454600Y74777600D03*
X26847800Y92151200D03*
D28*
X71577200Y73837800D02*
X71374000Y73837800D01*
X71374000Y73837800D02*
X70408800Y74803000D01*
X70408800Y74803000D02*
X70408800Y74805598D01*
X63119000Y46202600D02*
X63119000Y48031400D01*
X63119000Y48031400D02*
X61163200Y48031400D01*
X61163200Y48031400D02*
X61137800Y48056800D01*
X68834000Y74803000D02*
X68834000Y50927000D01*
X65938400Y48031400D02*
X63119000Y48031400D01*
X68834000Y50927000D02*
X65938400Y48031400D01*
D29*
X56921400Y52984400D02*
X58724800Y52984400D01*
X58724800Y52984400D02*
X58750200Y52959000D01*
X8382000Y76682600D02*
X8382000Y79425800D01*
X8382000Y79425800D02*
X8356600Y79451200D01*
X75209400Y92633800D02*
X75209400Y96164400D01*
X72875000Y92583000D02*
X75158600Y92583000D01*
X75158600Y92583000D02*
X75209400Y92633800D01*
X72875000Y92583000D02*
X74803000Y92583000D01*
X74803000Y92583000D02*
X76352400Y91033600D01*
X55245000Y57429400D02*
X55245000Y59944000D01*
X52682000Y56222900D02*
X54038500Y56222900D01*
X54038500Y56222900D02*
X55245000Y57429400D01*
X52682000Y56222900D02*
X56400700Y56222900D01*
X56400700Y56222900D02*
X56515000Y56337200D01*
X32489000Y56159400D02*
X34137600Y56159400D01*
X34137600Y56159400D02*
X35128200Y57150000D01*
X35128200Y57150000D02*
X35128200Y59969400D01*
X34137600Y56159400D02*
X34925000Y56946800D01*
X32489000Y56159400D02*
X33858200Y56159400D01*
X33858200Y56159400D02*
X35458400Y54559200D01*
X5920600Y75615800D02*
X7315200Y75615800D01*
X7315200Y75615800D02*
X8382000Y76682600D01*
X5920600Y75615800D02*
X6756400Y75615800D01*
X6756400Y75615800D02*
X8509000Y73863200D01*
X21094700Y60109100D02*
X21082000Y60096400D01*
X31597600Y82804000D02*
X31597600Y88265000D01*
X36779200Y100050600D02*
X39751000Y100050600D01*
X36779200Y100050600D02*
X31597600Y94869000D01*
X31597600Y88265000D02*
X31597600Y94869000D01*
X29133800Y46913800D02*
X30988000Y46913800D01*
X30988000Y46913800D02*
X32410400Y45491400D01*
X64922400Y25831800D02*
X68275200Y25831800D01*
X77952600Y28346400D02*
X77952600Y23876000D01*
X87020400Y18821400D02*
X83007200Y18821400D01*
X83007200Y18821400D02*
X77952600Y23876000D01*
X87020400Y18821400D02*
X89331800Y21132800D01*
X89331800Y21513800D02*
X89331800Y21132800D01*
X73138000Y59936000D02*
X74947400Y59936000D01*
X76225400Y61214000D02*
X76225400Y69519800D01*
X74947400Y59936000D02*
X76225400Y61214000D01*
D30*
X55143400Y41960800D02*
X59105800Y41960800D01*
X59588400Y41935400D02*
X59867800Y41935400D01*
X59842400Y41935400D02*
X59588400Y41935400D01*
X59867800Y41960800D02*
X59842400Y41935400D01*
X59105800Y41960800D02*
X59867800Y41960800D01*
X56921400Y52984400D02*
X56921400Y46405800D01*
X56921400Y46405800D02*
X59867800Y43459400D01*
X59867800Y43459400D02*
X59867800Y41935400D01*
X59867800Y41935400D02*
X59867800Y32969200D01*
D31*
X91503500Y80784700D02*
X91503500Y84416900D01*
X91503500Y84416900D02*
X91440000Y84480400D01*
X88315800Y87376000D02*
X88544400Y87376000D01*
X88315800Y87376000D02*
X87045800Y87376000D01*
X75209400Y92633800D02*
X80467200Y87376000D01*
X87045800Y87376000D02*
X80467200Y87376000D01*
X88544400Y87376000D02*
X91440000Y84480400D01*
X89281000Y78562200D02*
X90322400Y79603600D01*
X90322400Y79603600D02*
X91503500Y80784700D01*
X89281000Y78562200D02*
X89281000Y73863200D01*
D32*
X51943000Y32969200D02*
X59867800Y32969200D01*
X59867800Y32969200D02*
X63068200Y32969200D01*
X63068200Y32969200D02*
X64922400Y31115000D01*
D30*
X75209400Y106934000D02*
X75209400Y92633800D01*
X74320400Y107823000D02*
X75209400Y106934000D01*
X72875000Y107823000D02*
X74320400Y107823000D01*
X75209400Y92633800D02*
X75260200Y92583000D01*
D31*
X75260200Y92583000D02*
X72875000Y92583000D01*
X2921000Y51104800D02*
X2921000Y47294800D01*
D30*
X64922400Y31115000D02*
X64922400Y25831800D01*
X60985400Y21894800D02*
X60985400Y20751800D01*
X64922400Y25831800D02*
X60985400Y21894800D01*
D31*
X52682000Y71462900D02*
X54292500Y71462900D01*
X54419500Y56222900D02*
X52682000Y56222900D01*
X55245000Y57048400D02*
X54419500Y56222900D01*
X55245000Y70510400D02*
X55245000Y57048400D01*
X54292500Y71462900D02*
X55245000Y70510400D01*
X32489000Y71399400D02*
X33934400Y71399400D01*
X34925000Y56946800D02*
X34137600Y56159400D01*
X34925000Y70408800D02*
X34925000Y56946800D01*
X33934400Y71399400D02*
X34925000Y70408800D01*
X24638000Y45232000D02*
X27452000Y45232000D01*
X27452000Y45232000D02*
X29133800Y46913800D01*
X29133800Y46913800D02*
X29133800Y54279800D01*
X29133800Y54279800D02*
X31013400Y56159400D01*
X31013400Y56159400D02*
X32489000Y56159400D01*
D30*
X62357000Y12420600D02*
X62357000Y16713200D01*
X62357000Y12420600D02*
X62357000Y8492800D01*
X62357000Y8492800D02*
X63322200Y7527600D01*
X65532000Y5317800D02*
X63322200Y7527600D01*
X60985400Y18084800D02*
X60985400Y20751800D01*
X62357000Y16713200D02*
X60985400Y18084800D01*
D31*
X40233600Y24053800D02*
X41148000Y24053800D01*
X41148000Y24053800D02*
X44246800Y20955000D01*
X28600400Y39192200D02*
X33426400Y39192200D01*
X19583400Y37642800D02*
X27051000Y37642800D01*
X27051000Y37642800D02*
X28600400Y39192200D01*
X34213800Y38404800D02*
X34213800Y24028400D01*
X33426400Y39192200D02*
X34213800Y38404800D01*
X40233600Y24053800D02*
X35331400Y24053800D01*
X35331400Y24053800D02*
X34213800Y24053800D01*
X34213800Y24053800D02*
X34239200Y24028400D01*
X34239200Y24028400D02*
X34493200Y24028400D01*
X34493200Y24028400D02*
X34213800Y24028400D01*
X34213800Y24028400D02*
X34213800Y19939000D01*
X19583400Y20320000D02*
X23723600Y16179800D01*
X23723600Y16179800D02*
X30454600Y16179800D01*
X30454600Y16179800D02*
X34213800Y19939000D01*
X15290800Y5292400D02*
X15290800Y5892800D01*
X15290800Y5892800D02*
X16789400Y7391400D01*
X16789400Y7391400D02*
X16789400Y17526000D01*
X16789400Y17526000D02*
X19583400Y20320000D01*
X19583400Y20320000D02*
X19583400Y20294600D01*
X2921000Y48768000D02*
X2921000Y47294800D01*
X2921000Y38247500D02*
X7112000Y38247500D01*
X2921000Y38247500D02*
X2890700Y38277800D01*
X2921000Y39624000D02*
X2921000Y38277800D01*
X2921000Y10042200D02*
X7670800Y5292400D01*
X2921000Y38277800D02*
X2921000Y10042200D01*
X2921000Y39624000D02*
X2921000Y42438500D01*
X2921000Y47294800D02*
X2921000Y42438500D01*
X7112000Y38247500D02*
X14092100Y38247500D01*
X21076600Y45232000D02*
X24638000Y45232000D01*
X14092100Y38247500D02*
X21076600Y45232000D01*
X5920600Y90855800D02*
X7264400Y90855800D01*
X8382000Y76682600D02*
X7315200Y75615800D01*
X8382000Y89738200D02*
X8382000Y76682600D01*
X7264400Y90855800D02*
X8382000Y89738200D01*
D29*
X32489000Y71399400D02*
X32489000Y71419400D01*
X5920600Y90855800D02*
X5986600Y90855800D01*
D31*
X4267200Y59334400D02*
X2921000Y57988200D01*
X4267200Y59334400D02*
X7137400Y59334400D01*
X2921000Y57988200D02*
X2921000Y51104800D01*
D30*
X15392400Y46228000D02*
X15392400Y68859400D01*
X15392400Y68859400D02*
X15138400Y68859400D01*
D32*
X42240200Y45085000D02*
X40843200Y45085000D01*
X39751000Y43992800D02*
X39751000Y39928800D01*
X40843200Y45085000D02*
X39751000Y43992800D01*
D30*
X59588400Y75768200D02*
X59588400Y73177400D01*
X59588400Y75768200D02*
X59588400Y105283000D01*
X59588400Y73177400D02*
X57785000Y71374000D01*
X57912000Y25476200D02*
X57912000Y24130000D01*
X57912000Y31115000D02*
X57912000Y25476200D01*
D31*
X43053000Y16433800D02*
X51932840Y16433800D01*
X51932840Y16433800D02*
X51950620Y16416020D01*
X51950620Y16416020D02*
X51943000Y16408400D01*
X28727400Y20167600D02*
X28727400Y34696400D01*
X28727400Y34696400D02*
X30708600Y36677600D01*
D30*
X32489000Y68859400D02*
X15138400Y68859400D01*
X10896600Y73101200D02*
X10896600Y83235800D01*
X15138400Y68859400D02*
X10896600Y73101200D01*
D32*
X47498000Y75387200D02*
X44399200Y75387200D01*
X44399200Y75387200D02*
X42468800Y73456800D01*
X62230000Y73456800D02*
X62230000Y57124600D01*
D33*
X86741000Y57150000D02*
X91338400Y61747400D01*
X86741000Y52832000D02*
X86741000Y57150000D01*
X91338400Y61747400D02*
X91338400Y76327000D01*
X86741000Y52832000D02*
X86309200Y52832000D01*
X86309200Y52832000D02*
X84963000Y51485800D01*
X86791800Y39446200D02*
X86791800Y40259000D01*
X86791800Y40259000D02*
X84963000Y42087800D01*
X84963000Y42087800D02*
X84963000Y46431200D01*
X86791800Y31673800D02*
X86791800Y39446200D01*
X84963000Y46431200D02*
X84963000Y51485800D01*
D32*
X42468800Y73456800D02*
X42468800Y57556400D01*
X29413200Y73456800D02*
X42468800Y73456800D01*
X24993600Y77876400D02*
X29413200Y73456800D01*
X19735800Y93091000D02*
X21691600Y93091000D01*
X7086600Y98475800D02*
X7086600Y95580200D01*
X9575800Y93091000D02*
X7086600Y95580200D01*
X19735800Y93091000D02*
X9575800Y93091000D01*
X21691600Y93091000D02*
X24993600Y89789000D01*
X21437600Y74320400D02*
X24993600Y77876400D01*
X20193000Y73075800D02*
X21437600Y74320400D01*
X20193000Y73075800D02*
X18770600Y73075800D01*
X24993600Y77876400D02*
X24993600Y89789000D01*
D29*
X73812400Y76073000D02*
X72771000Y77114400D01*
X72771000Y77114400D02*
X67259200Y77114400D01*
X67259200Y77114400D02*
X66370200Y76225400D01*
X83058000Y73075800D02*
X83058000Y72212200D01*
X81661000Y35991800D02*
X81661000Y53111400D01*
X80721200Y35052000D02*
X81661000Y35991800D01*
X80721200Y35052000D02*
X73138000Y35052000D01*
X83058000Y54508400D02*
X83058000Y69951600D01*
X81661000Y53111400D02*
X83058000Y54508400D01*
X83058000Y69951600D02*
X83058000Y72212200D01*
X73837800Y76073000D02*
X73812400Y76073000D01*
D33*
X42291000Y81127600D02*
X44526200Y81127600D01*
X44526200Y81127600D02*
X48844200Y76809600D01*
D32*
X47523400Y71399400D02*
X45339000Y71399400D01*
X48844200Y72720200D02*
X47523400Y71399400D01*
X48844200Y76809600D02*
X48844200Y72720200D01*
D33*
X43586400Y43611800D02*
X43586400Y47802800D01*
X47091600Y68859400D02*
X47091600Y51308000D01*
D29*
X45339000Y40944800D02*
X45339000Y41706800D01*
X48006000Y37211000D02*
X45339000Y39878000D01*
X45339000Y39878000D02*
X45339000Y40944800D01*
X48006000Y36957000D02*
X48006000Y37211000D01*
X45339000Y41706800D02*
X45135800Y41910000D01*
D33*
X43586400Y47802800D02*
X47091600Y51308000D01*
X50368200Y70256400D02*
X50368200Y75793600D01*
D32*
X45339000Y68859400D02*
X47091600Y68859400D01*
X47091600Y68859400D02*
X48971200Y68859400D01*
X48971200Y68859400D02*
X50368200Y70256400D01*
D33*
X53619400Y79044800D02*
X53619400Y81280000D01*
X50368200Y75793600D02*
X53619400Y79044800D01*
X42291000Y90525600D02*
X44373800Y90525600D01*
X44373800Y90525600D02*
X53619400Y81280000D01*
D32*
X45309000Y68889400D02*
X45339000Y68859400D01*
D29*
X69951600Y83464400D02*
X73177400Y83464400D01*
X79933800Y69342000D02*
X79933800Y77139800D01*
X77538200Y47236000D02*
X77716000Y47236000D01*
X73138000Y47236000D02*
X77538200Y47236000D01*
X79933800Y55778400D02*
X79933800Y58394600D01*
X78638400Y54483000D02*
X79933800Y55778400D01*
X78638400Y48158400D02*
X78638400Y54483000D01*
X77716000Y47236000D02*
X78638400Y48158400D01*
X79933800Y69342000D02*
X79933800Y58394600D01*
X79933800Y77139800D02*
X81457800Y78663800D01*
X68935600Y83464400D02*
X69951600Y83464400D01*
D33*
X61823600Y88950800D02*
X67310000Y83464400D01*
X67310000Y83464400D02*
X68935600Y83464400D01*
X46659800Y94767400D02*
X52501800Y88925400D01*
X52501800Y88925400D02*
X57835800Y88925400D01*
X46659800Y94767400D02*
X46659800Y100050600D01*
X61493400Y88950800D02*
X61823600Y88950800D01*
D29*
X73177400Y83464400D02*
X75082400Y81559400D01*
X69418200Y78181200D02*
X74168000Y78181200D01*
X81991200Y72110600D02*
X81991200Y58521600D01*
X80645000Y53619400D02*
X80645000Y50292000D01*
X80645000Y53619400D02*
X81991200Y54965600D01*
X81991200Y54965600D02*
X81991200Y58521600D01*
X81991200Y74193400D02*
X81991200Y72110600D01*
X75184000Y77165200D02*
X75184000Y75387200D01*
X74168000Y78181200D02*
X75184000Y77165200D01*
D33*
X65532000Y71462900D02*
X65532000Y74980800D01*
X65201800Y78181200D02*
X66319400Y78181200D01*
X64871600Y77851000D02*
X65201800Y78181200D01*
X64871600Y75641200D02*
X64871600Y77851000D01*
X65532000Y74980800D02*
X64871600Y75641200D01*
D29*
X66319400Y78181200D02*
X69418200Y78181200D01*
X69418200Y78181200D02*
X69443600Y78181200D01*
D33*
X44805600Y83667600D02*
X42291000Y83667600D01*
X44805600Y83667600D02*
X50292000Y78181200D01*
D29*
X73138000Y37592000D02*
X79273400Y37592000D01*
X79273400Y37592000D02*
X80645000Y38963600D01*
X80645000Y38963600D02*
X80645000Y50292000D01*
X68986400Y81102200D02*
X72161400Y81102200D01*
X83743800Y52197000D02*
X85115400Y53568600D01*
X85115400Y53568600D02*
X85115400Y59588400D01*
X85115400Y59588400D02*
X85115400Y74904600D01*
X83743800Y52197000D02*
X83743800Y47726600D01*
D33*
X65532000Y68922900D02*
X64757300Y68922900D01*
X64757300Y68922900D02*
X63627000Y70053200D01*
X64897000Y81102200D02*
X66294000Y81102200D01*
X63627000Y79832200D02*
X64897000Y81102200D01*
X63627000Y70053200D02*
X63627000Y79832200D01*
D29*
X68986400Y81102200D02*
X69164200Y81102200D01*
D33*
X44297600Y93065600D02*
X56184800Y81178400D01*
X42291000Y93065600D02*
X44297600Y93065600D01*
D29*
X66294000Y81102200D02*
X68986400Y81102200D01*
X81813400Y29972000D02*
X83743800Y31902400D01*
X81813400Y29972000D02*
X73138000Y29972000D01*
X83743800Y31902400D02*
X83743800Y47726600D01*
X65532000Y68922900D02*
X65552500Y68922900D01*
X65532000Y68922900D02*
X65532000Y68859400D01*
X76682600Y79933800D02*
X76682600Y82727800D01*
X74650600Y84759800D02*
X70180200Y84759800D01*
X76682600Y82727800D02*
X74650600Y84759800D01*
X78943200Y79933800D02*
X78943200Y69367400D01*
X73138000Y49776000D02*
X76674600Y49776000D01*
X78943200Y56184800D02*
X78943200Y58445400D01*
X77647800Y54889400D02*
X78943200Y56184800D01*
X77647800Y50749200D02*
X77647800Y54889400D01*
X76674600Y49776000D02*
X77647800Y50749200D01*
X78943200Y69367400D02*
X78943200Y58445400D01*
X69113400Y84759800D02*
X70180200Y84759800D01*
D33*
X61442600Y90601800D02*
X61899800Y90601800D01*
X47802800Y102590600D02*
X49098200Y101295200D01*
X49098200Y101295200D02*
X49098200Y94792800D01*
X49098200Y94792800D02*
X53289200Y90601800D01*
X53289200Y90601800D02*
X57759600Y90601800D01*
X47802800Y102590600D02*
X46659800Y102590600D01*
X67741800Y84759800D02*
X69113400Y84759800D01*
X61899800Y90601800D02*
X67741800Y84759800D01*
D29*
X76758800Y75514200D02*
X76758800Y77520800D01*
X66319400Y79629000D02*
X69189600Y79629000D01*
D33*
X51663600Y79629000D02*
X45085000Y86207600D01*
X42291000Y86207600D02*
X45085000Y86207600D01*
D29*
X74650600Y79629000D02*
X69189600Y79629000D01*
X76758800Y77520800D02*
X74650600Y79629000D01*
D33*
X80949800Y74930000D02*
X80949800Y74980800D01*
D32*
X85344000Y81788000D02*
X88925400Y81788000D01*
D33*
X82702400Y81508600D02*
X82981800Y81788000D01*
X82702400Y76733400D02*
X82702400Y81508600D01*
X80949800Y74980800D02*
X82702400Y76733400D01*
D29*
X80949800Y74930000D02*
X80949800Y71323200D01*
X80949800Y71323200D02*
X80949800Y67335400D01*
X80949800Y67335400D02*
X80949800Y58369200D01*
X80949800Y58369200D02*
X80949800Y55397400D01*
X79629000Y54076600D02*
X80949800Y55397400D01*
X78054200Y40132000D02*
X73138000Y40132000D01*
X79629000Y41706800D02*
X79629000Y50393600D01*
X78054200Y40132000D02*
X79629000Y41706800D01*
X79629000Y50393600D02*
X79629000Y54076600D01*
X69545200Y82245200D02*
X72898000Y82245200D01*
X69113400Y82245200D02*
X69545200Y82245200D01*
D33*
X66776600Y82245200D02*
X69113400Y82245200D01*
X44094400Y95605600D02*
X52146200Y87553800D01*
X52146200Y87553800D02*
X57861200Y87553800D01*
X42291000Y95605600D02*
X44094400Y95605600D01*
X61442600Y87579200D02*
X66776600Y82245200D01*
D29*
X72898000Y82245200D02*
X73609200Y81534000D01*
X84099400Y72339200D02*
X84099400Y77571600D01*
X84099400Y77571600D02*
X84099400Y82981800D01*
X84099400Y68783200D02*
X84099400Y72339200D01*
X85140800Y84023200D02*
X88087200Y84023200D01*
X84099400Y82981800D02*
X85140800Y84023200D01*
X82702400Y34340800D02*
X82702400Y52679600D01*
X73138000Y32512000D02*
X80873600Y32512000D01*
X80873600Y32512000D02*
X82702400Y34340800D01*
X84099400Y54076600D02*
X84099400Y68783200D01*
X82702400Y52679600D02*
X84099400Y54076600D01*
X77901800Y76682600D02*
X77901800Y83591400D01*
X77901800Y69342000D02*
X77901800Y58445400D01*
X75709400Y52316000D02*
X76657200Y53263800D01*
X76657200Y53263800D02*
X76657200Y55372000D01*
X76657200Y55372000D02*
X77901800Y56616600D01*
X77901800Y56616600D02*
X77901800Y58445400D01*
X73138000Y52316000D02*
X75709400Y52316000D01*
X77901800Y69342000D02*
X77901800Y76682600D01*
X73228200Y88265000D02*
X68961000Y88265000D01*
X77901800Y83591400D02*
X73228200Y88265000D01*
D33*
X65024000Y92202000D02*
X68961000Y88265000D01*
X48844200Y105130600D02*
X46736000Y105130600D01*
X53975000Y92202000D02*
X57759600Y92202000D01*
X51054000Y95123000D02*
X53975000Y92202000D01*
X51054000Y102920800D02*
X51054000Y95123000D01*
X48844200Y105130600D02*
X51054000Y102920800D01*
X61341000Y92202000D02*
X65024000Y92202000D01*
D29*
X50368200Y23901400D02*
X53365400Y23901400D01*
X55956200Y24790400D02*
X55956200Y26695400D01*
X55016400Y23850600D02*
X55956200Y24790400D01*
X50825400Y28524200D02*
X50825400Y32588200D01*
X51892200Y27457400D02*
X50825400Y28524200D01*
X55194200Y27457400D02*
X51892200Y27457400D01*
X55956200Y26695400D02*
X55194200Y27457400D01*
X50825400Y32588200D02*
X50825400Y36093400D01*
X46456600Y42468800D02*
X47701200Y43713400D01*
X47701200Y43713400D02*
X55168800Y43713400D01*
X46456600Y41554400D02*
X46456600Y42468800D01*
X50393600Y40233600D02*
X48463200Y42164000D01*
X55118000Y40233600D02*
X50393600Y40233600D01*
D32*
X39497000Y19278600D02*
X37211000Y19278600D01*
X20116800Y11684000D02*
X28600400Y11684000D01*
X29616400Y11684000D02*
X28600400Y11684000D01*
X37211000Y19278600D02*
X29616400Y11684000D01*
X41935400Y19329400D02*
X41935400Y18745200D01*
X33147000Y11811000D02*
X35001200Y11811000D01*
X41935400Y18745200D02*
X35001200Y11811000D01*
X52882800Y11049000D02*
X50215800Y11049000D01*
X59817000Y11049000D02*
X52882800Y11049000D01*
X50139600Y13385800D02*
X50165000Y13385800D01*
X50520600Y13030200D02*
X59232800Y13030200D01*
X50165000Y13385800D02*
X50520600Y13030200D01*
X64922400Y11353800D02*
X74396600Y11353800D01*
X18770600Y90855800D02*
X20345400Y90855800D01*
X22707600Y88493600D02*
X22707600Y86207600D01*
X20345400Y90855800D02*
X22707600Y88493600D01*
X45339000Y56159400D02*
X43510200Y56159400D01*
X39941500Y59753500D02*
X39941500Y63779400D01*
X39941500Y57162700D02*
X39941500Y59753500D01*
X41300400Y55803800D02*
X39941500Y57162700D01*
X43154600Y55803800D02*
X41300400Y55803800D01*
X43510200Y56159400D02*
X43154600Y55803800D01*
X65532000Y56222900D02*
X64147700Y56222900D01*
X60388500Y58991500D02*
X60388500Y63842900D01*
X60388500Y56273700D02*
X60388500Y58991500D01*
X61391800Y55270400D02*
X60388500Y56273700D01*
X63195200Y55270400D02*
X61391800Y55270400D01*
X64147700Y56222900D02*
X63195200Y55270400D01*
X80200500Y100203000D02*
X80200500Y96151700D01*
X83769200Y92583000D02*
X85725000Y92583000D01*
X80200500Y96151700D02*
X83769200Y92583000D01*
X13436600Y83235800D02*
X13436600Y79019400D01*
X16840200Y75615800D02*
X18770600Y75615800D01*
X13436600Y79019400D02*
X16840200Y75615800D01*
D29*
X49352200Y22733000D02*
X49352200Y22758400D01*
X54559200Y22733000D02*
X58928000Y22733000D01*
X51816000Y22733000D02*
X54559200Y22733000D01*
X58928000Y22733000D02*
X61620400Y25425400D01*
X51816000Y22733000D02*
X49352200Y22733000D01*
X46024800Y26085800D02*
X46024800Y28981400D01*
X49352200Y22758400D02*
X46024800Y26085800D01*
D32*
X82956400Y24638000D02*
X82956400Y24663400D01*
X85039200Y26746200D02*
X85039200Y35839400D01*
X82956400Y24663400D02*
X85039200Y26746200D01*
D29*
X46710600Y30480000D02*
X45745400Y30480000D01*
X47294800Y29895800D02*
X46710600Y30480000D01*
X47294800Y28092400D02*
X47294800Y29895800D01*
X49225200Y26162000D02*
X47294800Y28092400D01*
X54737000Y26162000D02*
X49225200Y26162000D01*
D33*
X82981800Y24663400D02*
X82956400Y24638000D01*
D29*
X52908200Y51231800D02*
X56210200Y54533800D01*
X44246800Y40741600D02*
X43688000Y41300400D01*
X43688000Y41300400D02*
X43688000Y42011600D01*
X43688000Y42011600D02*
X52908200Y51231800D01*
X44246800Y35382200D02*
X44246800Y40741600D01*
X59537600Y54533800D02*
X62839600Y51231800D01*
X56210200Y54533800D02*
X59537600Y54533800D01*
D32*
X26847800Y78384400D02*
X30454600Y74777600D01*
X26847800Y92151200D02*
X26847800Y78384400D01*
D29*
G36*
X94679000Y825000D02*
X825000Y825000D01*
X825000Y2725541D01*
X1522340Y2725541D01*
X1750220Y2174028D01*
X2171809Y1751703D01*
X2722923Y1522861D01*
X3319659Y1522340D01*
X3871172Y1750220D01*
X4293497Y2171809D01*
X4522339Y2722923D01*
X4522341Y2725541D01*
X90981140Y2725541D01*
X91209020Y2174028D01*
X91630609Y1751703D01*
X92181723Y1522861D01*
X92778459Y1522340D01*
X93329972Y1750220D01*
X93752297Y2171809D01*
X93981139Y2722923D01*
X93981660Y3319659D01*
X93753780Y3871172D01*
X93332191Y4293497D01*
X92781077Y4522339D01*
X92184341Y4522860D01*
X91632828Y4294980D01*
X91210503Y3873391D01*
X90981661Y3322277D01*
X90981140Y2725541D01*
X4522341Y2725541D01*
X4522860Y3319659D01*
X4294980Y3871172D01*
X3873391Y4293497D01*
X3322277Y4522339D01*
X2725541Y4522860D01*
X2174028Y4294980D01*
X1751703Y3873391D01*
X1522861Y3322277D01*
X1522340Y2725541D01*
X825000Y2725541D01*
X825000Y8735439D01*
X7390532Y8735439D01*
X7626008Y8165543D01*
X8061649Y7729140D01*
X8631133Y7492670D01*
X9247761Y7492132D01*
X9817657Y7727608D01*
X10254060Y8163249D01*
X10490530Y8732733D01*
X10490532Y8735439D01*
X12470532Y8735439D01*
X12706008Y8165543D01*
X13141649Y7729140D01*
X13711133Y7492670D01*
X14327761Y7492132D01*
X14897657Y7727608D01*
X15334060Y8163249D01*
X15570530Y8732733D01*
X15571068Y9349361D01*
X15335592Y9919257D01*
X14899951Y10355660D01*
X14330467Y10592130D01*
X13713839Y10592668D01*
X13143943Y10357192D01*
X12707540Y9921551D01*
X12471070Y9352067D01*
X12470532Y8735439D01*
X10490532Y8735439D01*
X10491068Y9349361D01*
X10255592Y9919257D01*
X9819951Y10355660D01*
X9250467Y10592130D01*
X8633839Y10592668D01*
X8063943Y10357192D01*
X7627540Y9921551D01*
X7391070Y9352067D01*
X7390532Y8735439D01*
X825000Y8735439D01*
X825000Y11436450D01*
X18866583Y11436450D01*
X19056484Y10976857D01*
X19407807Y10624919D01*
X19867069Y10434217D01*
X20364350Y10433783D01*
X20364875Y10434000D01*
X22550033Y10434000D01*
X22364143Y10357192D01*
X21927740Y9921551D01*
X21691270Y9352067D01*
X21690732Y8735439D01*
X21926208Y8165543D01*
X22361849Y7729140D01*
X22931333Y7492670D01*
X23547961Y7492132D01*
X24117857Y7727608D01*
X24554260Y8163249D01*
X24790730Y8732733D01*
X24791268Y9349361D01*
X24555792Y9919257D01*
X24120151Y10355660D01*
X23931487Y10434000D01*
X27630033Y10434000D01*
X27444143Y10357192D01*
X27007740Y9921551D01*
X26771270Y9352067D01*
X26770732Y8735439D01*
X27006208Y8165543D01*
X27441849Y7729140D01*
X28011333Y7492670D01*
X28627961Y7492132D01*
X29197857Y7727608D01*
X29634260Y8163249D01*
X29870730Y8732733D01*
X29870776Y8786239D01*
X36244932Y8786239D01*
X36480408Y8216343D01*
X36916049Y7779940D01*
X37485533Y7543470D01*
X38102161Y7542932D01*
X38672057Y7778408D01*
X39108460Y8214049D01*
X39344930Y8783533D01*
X39344932Y8786239D01*
X41324932Y8786239D01*
X41560408Y8216343D01*
X41996049Y7779940D01*
X42565533Y7543470D01*
X43182161Y7542932D01*
X43752057Y7778408D01*
X44188460Y8214049D01*
X44424930Y8783533D01*
X44425468Y9400161D01*
X44189992Y9970057D01*
X43754351Y10406460D01*
X43184867Y10642930D01*
X42568239Y10643468D01*
X41998343Y10407992D01*
X41561940Y9972351D01*
X41325470Y9402867D01*
X41324932Y8786239D01*
X39344932Y8786239D01*
X39345468Y9400161D01*
X39109992Y9970057D01*
X38674351Y10406460D01*
X38104867Y10642930D01*
X37488239Y10643468D01*
X36918343Y10407992D01*
X36481940Y9972351D01*
X36245470Y9402867D01*
X36244932Y8786239D01*
X29870776Y8786239D01*
X29871268Y9349361D01*
X29635792Y9919257D01*
X29200151Y10355660D01*
X29011487Y10434000D01*
X29616400Y10434000D01*
X30094754Y10529151D01*
X30500283Y10800117D01*
X31994016Y12293850D01*
X31897217Y12060731D01*
X31896783Y11563450D01*
X32086684Y11103857D01*
X32438007Y10751919D01*
X32897269Y10561217D01*
X33394550Y10560783D01*
X33395075Y10561000D01*
X35001200Y10561000D01*
X35479554Y10656151D01*
X35885083Y10927117D01*
X38096216Y13138250D01*
X48889383Y13138250D01*
X49079284Y12678657D01*
X49430607Y12326719D01*
X49474569Y12308464D01*
X49625456Y12157577D01*
X49508657Y12109316D01*
X49156719Y11757993D01*
X48966017Y11298731D01*
X48965583Y10801450D01*
X49155484Y10341857D01*
X49506807Y9989919D01*
X49966069Y9799217D01*
X50463350Y9798783D01*
X50463875Y9799000D01*
X50964159Y9799000D01*
X50799670Y9402867D01*
X50799132Y8786239D01*
X51034608Y8216343D01*
X51470249Y7779940D01*
X52039733Y7543470D01*
X52656361Y7542932D01*
X53226257Y7778408D01*
X53619704Y8171168D01*
X54010249Y7779940D01*
X54579733Y7543470D01*
X55196361Y7542932D01*
X55766257Y7778408D01*
X56202660Y8214049D01*
X56439130Y8783533D01*
X56439668Y9400161D01*
X56274871Y9799000D01*
X59815909Y9799000D01*
X60064550Y9798783D01*
X60524143Y9988684D01*
X60876081Y10340007D01*
X61066783Y10799269D01*
X61067050Y11106250D01*
X63672183Y11106250D01*
X63862084Y10646657D01*
X64213407Y10294719D01*
X64672669Y10104017D01*
X65169950Y10103583D01*
X65170475Y10103800D01*
X65645863Y10103800D01*
X65488740Y9946951D01*
X65252270Y9377467D01*
X65251732Y8760839D01*
X65487208Y8190943D01*
X65922849Y7754540D01*
X66492333Y7518070D01*
X67108961Y7517532D01*
X67678857Y7753008D01*
X68072304Y8145768D01*
X68462849Y7754540D01*
X69032333Y7518070D01*
X69648961Y7517532D01*
X70218857Y7753008D01*
X70655260Y8188649D01*
X70882306Y8735439D01*
X79653532Y8735439D01*
X79889008Y8165543D01*
X80324649Y7729140D01*
X80894133Y7492670D01*
X81510761Y7492132D01*
X82080657Y7727608D01*
X82474104Y8120368D01*
X82864649Y7729140D01*
X83434133Y7492670D01*
X84050761Y7492132D01*
X84620657Y7727608D01*
X85057060Y8163249D01*
X85293530Y8732733D01*
X85294068Y9349361D01*
X85058592Y9919257D01*
X84622951Y10355660D01*
X84053467Y10592130D01*
X83436839Y10592668D01*
X82866943Y10357192D01*
X82473496Y9964432D01*
X82082951Y10355660D01*
X81513467Y10592130D01*
X80896839Y10592668D01*
X80326943Y10357192D01*
X79890540Y9921551D01*
X79654070Y9352067D01*
X79653532Y8735439D01*
X70882306Y8735439D01*
X70891730Y8758133D01*
X70892268Y9374761D01*
X70656792Y9944657D01*
X70497927Y10103800D01*
X74395509Y10103800D01*
X74644150Y10103583D01*
X75103743Y10293484D01*
X75455681Y10644807D01*
X75646383Y11104069D01*
X75646817Y11601350D01*
X75456916Y12060943D01*
X75105593Y12412881D01*
X74646331Y12603583D01*
X74149050Y12604017D01*
X74148525Y12603800D01*
X64923490Y12603800D01*
X64674850Y12604017D01*
X64215257Y12414116D01*
X63863319Y12062793D01*
X63672617Y11603531D01*
X63672183Y11106250D01*
X61067050Y11106250D01*
X61067217Y11296550D01*
X60877316Y11756143D01*
X60525993Y12108081D01*
X60209875Y12239344D01*
X60291881Y12321207D01*
X60482583Y12780469D01*
X60483017Y13277750D01*
X60293116Y13737343D01*
X59941793Y14089281D01*
X59482531Y14279983D01*
X58985250Y14280417D01*
X58984725Y14280200D01*
X51033143Y14280200D01*
X50972610Y14320647D01*
X50848593Y14444881D01*
X50685045Y14512792D01*
X50643354Y14540649D01*
X50594605Y14550346D01*
X50389331Y14635583D01*
X50165107Y14635779D01*
X50165000Y14635800D01*
X50140690Y14635800D01*
X49892050Y14636017D01*
X49432457Y14446116D01*
X49080519Y14094793D01*
X48889817Y13635531D01*
X48889383Y13138250D01*
X38096216Y13138250D01*
X41317727Y16359761D01*
X41436211Y15764104D01*
X41815563Y15196363D01*
X42383304Y14817011D01*
X43053000Y14683800D01*
X51815306Y14683800D01*
X51943000Y14658400D01*
X52612696Y14791611D01*
X53180437Y15170963D01*
X53188057Y15178583D01*
X53567409Y15746324D01*
X53700620Y16416020D01*
X53567409Y17085716D01*
X53188057Y17653457D01*
X53170277Y17671237D01*
X52602536Y18050589D01*
X51932840Y18183800D01*
X43053000Y18183800D01*
X43031964Y18179616D01*
X43090249Y18266846D01*
X43185400Y18745200D01*
X43185400Y19328309D01*
X43185617Y19576950D01*
X42995716Y20036543D01*
X42644393Y20388481D01*
X42185131Y20579183D01*
X41687850Y20579617D01*
X41228257Y20389716D01*
X40876319Y20038393D01*
X40705520Y19627063D01*
X40557316Y19985743D01*
X40205993Y20337681D01*
X39746731Y20528383D01*
X39249450Y20528817D01*
X39248925Y20528600D01*
X37211000Y20528600D01*
X36801782Y20447201D01*
X36732646Y20433449D01*
X36327116Y20162483D01*
X29098634Y12934000D01*
X20117890Y12934000D01*
X19869250Y12934217D01*
X19409657Y12744316D01*
X19057719Y12392993D01*
X18867017Y11933731D01*
X18866583Y11436450D01*
X825000Y11436450D01*
X825000Y35052000D01*
X22598818Y35052000D01*
X22721646Y34434502D01*
X23071430Y33911012D01*
X23264511Y33782000D01*
X23071430Y33652988D01*
X22721646Y33129498D01*
X22598818Y32512000D01*
X22721646Y31894502D01*
X23071430Y31371012D01*
X23264511Y31242000D01*
X23071430Y31112988D01*
X22721646Y30589498D01*
X22598818Y29972000D01*
X22721646Y29354502D01*
X23071430Y28831012D01*
X23264511Y28702000D01*
X23071430Y28572988D01*
X22721646Y28049498D01*
X22598818Y27432000D01*
X22721646Y26814502D01*
X23071430Y26291012D01*
X23264511Y26162000D01*
X23071430Y26032988D01*
X22721646Y25509498D01*
X22598818Y24892000D01*
X22721646Y24274502D01*
X23000348Y23857394D01*
X22854802Y23763738D01*
X22683554Y23513108D01*
X22623307Y23215600D01*
X22623307Y21488400D01*
X22675604Y21210467D01*
X22839862Y20955202D01*
X23090492Y20783954D01*
X23388000Y20723707D01*
X25888000Y20723707D01*
X26165933Y20776004D01*
X26421198Y20940262D01*
X26592446Y21190892D01*
X26652693Y21488400D01*
X26652693Y23215600D01*
X26600396Y23493533D01*
X26436138Y23748798D01*
X26276138Y23858121D01*
X26554354Y24274502D01*
X26677182Y24892000D01*
X26554354Y25509498D01*
X26204570Y26032988D01*
X26011489Y26162000D01*
X26204570Y26291012D01*
X26554354Y26814502D01*
X26677182Y27432000D01*
X26554354Y28049498D01*
X26204570Y28572988D01*
X26011489Y28702000D01*
X26204570Y28831012D01*
X26554354Y29354502D01*
X26677182Y29972000D01*
X26554354Y30589498D01*
X26204570Y31112988D01*
X26011489Y31242000D01*
X26204570Y31371012D01*
X26554354Y31894502D01*
X26677182Y32512000D01*
X26554354Y33129498D01*
X26204570Y33652988D01*
X26011489Y33782000D01*
X26204570Y33911012D01*
X26554354Y34434502D01*
X26606448Y34696400D01*
X26977400Y34696400D01*
X26977400Y20167600D01*
X27110611Y19497904D01*
X27489963Y18930163D01*
X28057704Y18550811D01*
X28727400Y18417600D01*
X29397096Y18550811D01*
X29964837Y18930163D01*
X30344189Y19497904D01*
X30477400Y20167600D01*
X30477400Y30232450D01*
X44495183Y30232450D01*
X44685084Y29772857D01*
X44907461Y29550091D01*
X44775017Y29231131D01*
X44774583Y28733850D01*
X44964484Y28274257D01*
X45024800Y28213835D01*
X45024800Y26085800D01*
X45100920Y25703116D01*
X45317693Y25378693D01*
X48593946Y22102440D01*
X48645093Y22025893D01*
X48969517Y21809120D01*
X49197107Y21763850D01*
X49197107Y19735800D01*
X49249404Y19457867D01*
X49413662Y19202602D01*
X49664292Y19031354D01*
X49961800Y18971107D01*
X51689000Y18971107D01*
X51966933Y19023404D01*
X52222198Y19187662D01*
X52333672Y19350809D01*
X52747902Y19074030D01*
X53365400Y18951202D01*
X53982898Y19074030D01*
X54506388Y19423814D01*
X54635400Y19616895D01*
X54764412Y19423814D01*
X55287902Y19074030D01*
X55905400Y18951202D01*
X56522898Y19074030D01*
X57046388Y19423814D01*
X57175400Y19616895D01*
X57304412Y19423814D01*
X57827902Y19074030D01*
X58445400Y18951202D01*
X59062898Y19074030D01*
X59586388Y19423814D01*
X59936172Y19947304D01*
X60059000Y20564802D01*
X60059000Y20938798D01*
X61911800Y20938798D01*
X61911800Y20564802D01*
X62034628Y19947304D01*
X62384412Y19423814D01*
X62907902Y19074030D01*
X63525400Y18951202D01*
X64142898Y19074030D01*
X64666388Y19423814D01*
X65016172Y19947304D01*
X65139000Y20564802D01*
X65139000Y20938798D01*
X65016172Y21556296D01*
X64666388Y22079786D01*
X64142898Y22429570D01*
X63525400Y22552398D01*
X62907902Y22429570D01*
X62384412Y22079786D01*
X62034628Y21556296D01*
X61911800Y20938798D01*
X60059000Y20938798D01*
X59936172Y21556296D01*
X59626321Y22020022D01*
X59635107Y22025893D01*
X61784469Y24175256D01*
X61867950Y24175183D01*
X62327543Y24365084D01*
X62679481Y24716407D01*
X62870183Y25175669D01*
X62870617Y25672950D01*
X62680716Y26132543D01*
X62329393Y26484481D01*
X61870131Y26675183D01*
X61372850Y26675617D01*
X60913257Y26485716D01*
X60561319Y26134393D01*
X60370617Y25675131D01*
X60370542Y25589756D01*
X59412000Y24631214D01*
X59412000Y31115000D01*
X59297819Y31689025D01*
X58972660Y32175660D01*
X58486025Y32500819D01*
X57912000Y32615000D01*
X57337975Y32500819D01*
X56851340Y32175660D01*
X56526181Y31689025D01*
X56412000Y31115000D01*
X56412000Y27653814D01*
X55901307Y28164507D01*
X55576884Y28381280D01*
X55194200Y28457400D01*
X52306414Y28457400D01*
X51825400Y28938414D01*
X51825400Y35325429D01*
X51884481Y35384407D01*
X52075183Y35843669D01*
X52075617Y36340950D01*
X51885716Y36800543D01*
X51534393Y37152481D01*
X51075131Y37343183D01*
X50577850Y37343617D01*
X50118257Y37153716D01*
X49766319Y36802393D01*
X49575617Y36343131D01*
X49575183Y35845850D01*
X49765084Y35386257D01*
X49825400Y35325835D01*
X49825400Y28524200D01*
X49901520Y28141516D01*
X50118293Y27817093D01*
X50773386Y27162000D01*
X49639414Y27162000D01*
X48294800Y28506614D01*
X48294800Y29895795D01*
X48294801Y29895800D01*
X48218680Y30278484D01*
X48038060Y30548800D01*
X48001907Y30602907D01*
X48001904Y30602909D01*
X47417707Y31187107D01*
X47093284Y31403880D01*
X46710600Y31480000D01*
X46513371Y31480000D01*
X46454393Y31539081D01*
X45995131Y31729783D01*
X45497850Y31730217D01*
X45038257Y31540316D01*
X44686319Y31188993D01*
X44495617Y30729731D01*
X44495183Y30232450D01*
X30477400Y30232450D01*
X30477400Y33971526D01*
X31946037Y35440163D01*
X32325389Y36007904D01*
X32458600Y36677600D01*
X32325389Y37347296D01*
X31946037Y37915037D01*
X31378296Y38294389D01*
X30708600Y38427600D01*
X30038904Y38294389D01*
X29471163Y37915037D01*
X27489963Y35933837D01*
X27110611Y35366096D01*
X26977400Y34696400D01*
X26606448Y34696400D01*
X26677182Y35052000D01*
X26554354Y35669498D01*
X26204570Y36192988D01*
X25681080Y36542772D01*
X25063582Y36665600D01*
X24212418Y36665600D01*
X23594920Y36542772D01*
X23071430Y36192988D01*
X22721646Y35669498D01*
X22598818Y35052000D01*
X825000Y35052000D01*
X825000Y41015600D01*
X22623307Y41015600D01*
X22623307Y39288400D01*
X22675604Y39010467D01*
X22839862Y38755202D01*
X23090492Y38583954D01*
X23388000Y38523707D01*
X25888000Y38523707D01*
X26165933Y38576004D01*
X26421198Y38740262D01*
X26592446Y38990892D01*
X26652693Y39288400D01*
X26652693Y41015600D01*
X26600396Y41293533D01*
X26436138Y41548798D01*
X26185508Y41720046D01*
X25888000Y41780293D01*
X23388000Y41780293D01*
X23110067Y41727996D01*
X22854802Y41563738D01*
X22683554Y41313108D01*
X22623307Y41015600D01*
X825000Y41015600D01*
X825000Y44747500D01*
X5097307Y44747500D01*
X5097307Y42247500D01*
X5149604Y41969567D01*
X5313862Y41714302D01*
X5564492Y41543054D01*
X5862000Y41482807D01*
X8362000Y41482807D01*
X8639933Y41535104D01*
X8895198Y41699362D01*
X9066446Y41949992D01*
X9126693Y42247500D01*
X9126693Y44747500D01*
X9074396Y45025433D01*
X8910138Y45280698D01*
X8659508Y45451946D01*
X8362000Y45512193D01*
X5862000Y45512193D01*
X5584067Y45459896D01*
X5328802Y45295638D01*
X5157554Y45045008D01*
X5097307Y44747500D01*
X825000Y44747500D01*
X825000Y53688321D01*
X5137054Y53688321D01*
X5440894Y52952971D01*
X6003012Y52389871D01*
X6737830Y52084748D01*
X7533479Y52084054D01*
X8268829Y52387894D01*
X8831929Y52950012D01*
X9137052Y53684830D01*
X9137746Y54480479D01*
X8833906Y55215829D01*
X8271788Y55778929D01*
X7536970Y56084052D01*
X6741321Y56084746D01*
X6005971Y55780906D01*
X5442871Y55218788D01*
X5137748Y54483970D01*
X5137054Y53688321D01*
X825000Y53688321D01*
X825000Y72758937D01*
X4320323Y72758937D01*
X4563395Y72170657D01*
X5013089Y71720177D01*
X5600944Y71476078D01*
X6237463Y71475523D01*
X6825743Y71718595D01*
X7276223Y72168289D01*
X7520322Y72756144D01*
X7520877Y73392663D01*
X7277805Y73980943D01*
X6828111Y74431423D01*
X6240256Y74675522D01*
X5603737Y74676077D01*
X5015457Y74433005D01*
X4564977Y73983311D01*
X4320878Y73395456D01*
X4320323Y72758937D01*
X825000Y72758937D01*
X825000Y76671176D01*
X947092Y76587754D01*
X1244600Y76527507D01*
X3276600Y76527507D01*
X3554533Y76579804D01*
X3809798Y76744062D01*
X3981046Y76994692D01*
X4041293Y77292200D01*
X4041293Y79019400D01*
X3988996Y79297333D01*
X3824738Y79552598D01*
X3661591Y79664072D01*
X3938370Y80078302D01*
X4061198Y80695800D01*
X3938370Y81313298D01*
X3588586Y81836788D01*
X3395505Y81965800D01*
X3588586Y82094812D01*
X3938370Y82618302D01*
X4061198Y83235800D01*
X3938370Y83853298D01*
X3588586Y84376788D01*
X3395505Y84505800D01*
X3588586Y84634812D01*
X3938370Y85158302D01*
X4061198Y85775800D01*
X3938370Y86393298D01*
X3588586Y86916788D01*
X3065096Y87266572D01*
X2447598Y87389400D01*
X2073602Y87389400D01*
X1456104Y87266572D01*
X932614Y86916788D01*
X825000Y86755732D01*
X825000Y87998937D01*
X4320323Y87998937D01*
X4563395Y87410657D01*
X4927857Y87045558D01*
X4564977Y86683311D01*
X4320878Y86095456D01*
X4320323Y85458937D01*
X4563395Y84870657D01*
X4927857Y84505558D01*
X4564977Y84143311D01*
X4320878Y83555456D01*
X4320323Y82918937D01*
X4563395Y82330657D01*
X4927857Y81965558D01*
X4564977Y81603311D01*
X4320878Y81015456D01*
X4320323Y80378937D01*
X4563395Y79790657D01*
X4927857Y79425558D01*
X4564977Y79063311D01*
X4320878Y78475456D01*
X4320323Y77838937D01*
X4563395Y77250657D01*
X5013089Y76800177D01*
X5600944Y76556078D01*
X6237463Y76555523D01*
X6825743Y76798595D01*
X7276223Y77248289D01*
X7520322Y77836144D01*
X7520877Y78472663D01*
X7277805Y79060943D01*
X6913343Y79426042D01*
X7276223Y79788289D01*
X7520322Y80376144D01*
X7520877Y81012663D01*
X7277805Y81600943D01*
X6913343Y81966042D01*
X7276223Y82328289D01*
X7520322Y82916144D01*
X7520877Y83552663D01*
X7277805Y84140943D01*
X6913343Y84506042D01*
X7276223Y84868289D01*
X7520322Y85456144D01*
X7520877Y86092663D01*
X7277805Y86680943D01*
X6913343Y87046042D01*
X7276223Y87408289D01*
X7520322Y87996144D01*
X7520877Y88632663D01*
X7277805Y89220943D01*
X6828111Y89671423D01*
X6240256Y89915522D01*
X5603737Y89916077D01*
X5015457Y89673005D01*
X4564977Y89223311D01*
X4320878Y88635456D01*
X4320323Y87998937D01*
X825000Y87998937D01*
X825000Y98178125D01*
X5583229Y98178125D01*
X5811582Y97625469D01*
X5836600Y97600407D01*
X5836600Y95580200D01*
X5917184Y95175081D01*
X5931751Y95101846D01*
X6202717Y94696317D01*
X8691916Y92207117D01*
X8930076Y92047984D01*
X9097446Y91936151D01*
X9575800Y91841000D01*
X17492802Y91841000D01*
X17414977Y91763311D01*
X17170878Y91175456D01*
X17170323Y90538937D01*
X17413395Y89950657D01*
X17777857Y89585558D01*
X17414977Y89223311D01*
X17170878Y88635456D01*
X17170323Y87998937D01*
X17413395Y87410657D01*
X17777857Y87045558D01*
X17414977Y86683311D01*
X17170878Y86095456D01*
X17170323Y85458937D01*
X17413395Y84870657D01*
X17777857Y84505558D01*
X17414977Y84143311D01*
X17170878Y83555456D01*
X17170323Y82918937D01*
X17413395Y82330657D01*
X17777857Y81965558D01*
X17414977Y81603311D01*
X17170878Y81015456D01*
X17170323Y80378937D01*
X17413395Y79790657D01*
X17777857Y79425558D01*
X17414977Y79063311D01*
X17170878Y78475456D01*
X17170323Y77838937D01*
X17413395Y77250657D01*
X17777857Y76885558D01*
X17758065Y76865800D01*
X17357967Y76865800D01*
X14686600Y79537166D01*
X14686600Y82226348D01*
X14927372Y82586690D01*
X15050200Y83204188D01*
X15050200Y83267412D01*
X14927372Y83884910D01*
X14577588Y84408400D01*
X14431818Y84505800D01*
X14577588Y84603200D01*
X14927372Y85126690D01*
X15050200Y85744188D01*
X15050200Y85807412D01*
X14927372Y86424910D01*
X14675223Y86802279D01*
X14833398Y86904062D01*
X15004646Y87154692D01*
X15064893Y87452200D01*
X15064893Y89179400D01*
X15012596Y89457333D01*
X14848338Y89712598D01*
X14597708Y89883846D01*
X14300200Y89944093D01*
X12573000Y89944093D01*
X12295067Y89891796D01*
X12039802Y89727538D01*
X11926928Y89562341D01*
X11514098Y89838184D01*
X10896600Y89961012D01*
X10279102Y89838184D01*
X9755612Y89488400D01*
X9405828Y88964910D01*
X9283000Y88347412D01*
X9283000Y88284188D01*
X9405828Y87666690D01*
X9755612Y87143200D01*
X9901382Y87045800D01*
X9755612Y86948400D01*
X9405828Y86424910D01*
X9283000Y85807412D01*
X9283000Y85744188D01*
X9405828Y85126690D01*
X9755612Y84603200D01*
X9901382Y84505800D01*
X9755612Y84408400D01*
X9405828Y83884910D01*
X9283000Y83267412D01*
X9283000Y83204188D01*
X9396600Y82633082D01*
X9396600Y73101200D01*
X9510781Y72527175D01*
X9835940Y72040540D01*
X13892400Y67984080D01*
X13892400Y46228000D01*
X14006581Y45653975D01*
X14331740Y45167340D01*
X14818375Y44842181D01*
X15392400Y44728000D01*
X15966425Y44842181D01*
X16453060Y45167340D01*
X16778219Y45653975D01*
X16892400Y46228000D01*
X16892400Y57932000D01*
X22598818Y57932000D01*
X22721646Y57314502D01*
X23071430Y56791012D01*
X23264511Y56662000D01*
X23071430Y56532988D01*
X22721646Y56009498D01*
X22598818Y55392000D01*
X22721646Y54774502D01*
X23071430Y54251012D01*
X23264511Y54122000D01*
X23071430Y53992988D01*
X22721646Y53469498D01*
X22598818Y52852000D01*
X22721646Y52234502D01*
X23071430Y51711012D01*
X23264511Y51582000D01*
X23071430Y51452988D01*
X22721646Y50929498D01*
X22598818Y50312000D01*
X22721646Y49694502D01*
X23071430Y49171012D01*
X23264511Y49042000D01*
X23071430Y48912988D01*
X22721646Y48389498D01*
X22598818Y47772000D01*
X22721646Y47154502D01*
X23071430Y46631012D01*
X23594920Y46281228D01*
X24212418Y46158400D01*
X25063582Y46158400D01*
X25681080Y46281228D01*
X26204570Y46631012D01*
X26554354Y47154502D01*
X26677182Y47772000D01*
X26554354Y48389498D01*
X26204570Y48912988D01*
X26011489Y49042000D01*
X26204570Y49171012D01*
X26554354Y49694502D01*
X26677182Y50312000D01*
X26554354Y50929498D01*
X26204570Y51452988D01*
X26011489Y51582000D01*
X26204570Y51711012D01*
X26554354Y52234502D01*
X26677182Y52852000D01*
X26587565Y53302537D01*
X30888723Y53302537D01*
X31131795Y52714257D01*
X31581489Y52263777D01*
X32169344Y52019678D01*
X32805863Y52019123D01*
X33394143Y52262195D01*
X33844623Y52711889D01*
X34088722Y53299744D01*
X34089277Y53936263D01*
X33846205Y54524543D01*
X33396511Y54975023D01*
X32808656Y55219122D01*
X32172137Y55219677D01*
X31583857Y54976605D01*
X31133377Y54526911D01*
X30889278Y53939056D01*
X30888723Y53302537D01*
X26587565Y53302537D01*
X26554354Y53469498D01*
X26204570Y53992988D01*
X26011489Y54122000D01*
X26204570Y54251012D01*
X26554354Y54774502D01*
X26677182Y55392000D01*
X26554354Y56009498D01*
X26204570Y56532988D01*
X26011489Y56662000D01*
X26204570Y56791012D01*
X26554354Y57314502D01*
X26677182Y57932000D01*
X26554354Y58549498D01*
X26204570Y59072988D01*
X25681080Y59422772D01*
X25063582Y59545600D01*
X24212418Y59545600D01*
X23594920Y59422772D01*
X23071430Y59072988D01*
X22721646Y58549498D01*
X22598818Y57932000D01*
X16892400Y57932000D01*
X16892400Y67359400D01*
X27433536Y67359400D01*
X27151230Y66936898D01*
X27028402Y66319400D01*
X27151230Y65701902D01*
X27501014Y65178412D01*
X27694095Y65049400D01*
X27501014Y64920388D01*
X27151230Y64396898D01*
X27028402Y63779400D01*
X27151230Y63161902D01*
X27501014Y62638412D01*
X27694095Y62509400D01*
X27501014Y62380388D01*
X27151230Y61856898D01*
X27028402Y61239400D01*
X27151230Y60621902D01*
X27428554Y60206857D01*
X27279802Y60111138D01*
X27108554Y59860508D01*
X27048307Y59563000D01*
X27048307Y57835800D01*
X27100604Y57557867D01*
X27264862Y57302602D01*
X27515492Y57131354D01*
X27813000Y57071107D01*
X29845000Y57071107D01*
X30122933Y57123404D01*
X30378198Y57287662D01*
X30549446Y57538292D01*
X30609693Y57835800D01*
X30609693Y59563000D01*
X30557396Y59840933D01*
X30393138Y60096198D01*
X30229991Y60207672D01*
X30506770Y60621902D01*
X30629598Y61239400D01*
X30506770Y61856898D01*
X30156986Y62380388D01*
X29963905Y62509400D01*
X30156986Y62638412D01*
X30506770Y63161902D01*
X30629598Y63779400D01*
X30506770Y64396898D01*
X30156986Y64920388D01*
X29963905Y65049400D01*
X30156986Y65178412D01*
X30506770Y65701902D01*
X30629598Y66319400D01*
X30506770Y66936898D01*
X30224464Y67359400D01*
X31266098Y67359400D01*
X31133377Y67226911D01*
X30889278Y66639056D01*
X30888723Y66002537D01*
X31131795Y65414257D01*
X31496257Y65049158D01*
X31133377Y64686911D01*
X30889278Y64099056D01*
X30888723Y63462537D01*
X31131795Y62874257D01*
X31496257Y62509158D01*
X31133377Y62146911D01*
X30889278Y61559056D01*
X30888723Y60922537D01*
X31131795Y60334257D01*
X31496257Y59969158D01*
X31133377Y59606911D01*
X30889278Y59019056D01*
X30888723Y58382537D01*
X31131795Y57794257D01*
X31581489Y57343777D01*
X32169344Y57099678D01*
X32805863Y57099123D01*
X33394143Y57342195D01*
X33844623Y57791889D01*
X34088722Y58379744D01*
X34089277Y59016263D01*
X33846205Y59604543D01*
X33481743Y59969642D01*
X33844623Y60331889D01*
X34088722Y60919744D01*
X34089277Y61556263D01*
X33846205Y62144543D01*
X33481743Y62509642D01*
X33844623Y62871889D01*
X34088722Y63459744D01*
X34089277Y64096263D01*
X33846205Y64684543D01*
X33481743Y65049642D01*
X33844623Y65411889D01*
X34088722Y65999744D01*
X34089277Y66636263D01*
X33846205Y67224543D01*
X33481743Y67589642D01*
X33844623Y67951889D01*
X34088722Y68539744D01*
X34089277Y69176263D01*
X33846205Y69764543D01*
X33396511Y70215023D01*
X32808656Y70459122D01*
X32172137Y70459677D01*
X31929448Y70359400D01*
X15759720Y70359400D01*
X12396600Y73722520D01*
X12396600Y78369162D01*
X12552717Y78135517D01*
X15956316Y74731917D01*
X16342410Y74473938D01*
X16361846Y74460951D01*
X16840200Y74365800D01*
X17313515Y74365800D01*
X17216154Y74223308D01*
X17155907Y73925800D01*
X17155907Y72225800D01*
X17208204Y71947867D01*
X17372462Y71692602D01*
X17623092Y71521354D01*
X17920600Y71461107D01*
X19620600Y71461107D01*
X19898533Y71513404D01*
X20153798Y71677662D01*
X20264771Y71840076D01*
X20671354Y71920951D01*
X21076883Y72191917D01*
X22321483Y73436516D01*
X22321485Y73436519D01*
X24993600Y76108634D01*
X28529316Y72572917D01*
X28879099Y72339200D01*
X28934846Y72301951D01*
X29413200Y72206800D01*
X41218800Y72206800D01*
X41218800Y70348055D01*
X41102608Y70427446D01*
X40805100Y70487693D01*
X39077900Y70487693D01*
X38799967Y70435396D01*
X38544702Y70271138D01*
X38431828Y70105941D01*
X38018998Y70381784D01*
X37401500Y70504612D01*
X36784002Y70381784D01*
X36260512Y70032000D01*
X35910728Y69508510D01*
X35787900Y68891012D01*
X35787900Y68827788D01*
X35910728Y68210290D01*
X36260512Y67686800D01*
X36406282Y67589400D01*
X36260512Y67492000D01*
X35910728Y66968510D01*
X35787900Y66351012D01*
X35787900Y66287788D01*
X35910728Y65670290D01*
X36260512Y65146800D01*
X36406282Y65049400D01*
X36260512Y64952000D01*
X35910728Y64428510D01*
X35787900Y63811012D01*
X35787900Y63747788D01*
X35910728Y63130290D01*
X36260512Y62606800D01*
X36784002Y62257016D01*
X37401500Y62134188D01*
X38018998Y62257016D01*
X38542488Y62606800D01*
X38671500Y62799881D01*
X38691500Y62769948D01*
X38691500Y57162700D01*
X38773183Y56752054D01*
X38786651Y56684346D01*
X39057617Y56278817D01*
X40416517Y54919916D01*
X40798187Y54664893D01*
X40822046Y54648951D01*
X41300400Y54553800D01*
X43154600Y54553800D01*
X43632954Y54648951D01*
X43780652Y54747640D01*
X43724307Y54469400D01*
X43724307Y52769400D01*
X43776604Y52491467D01*
X43940862Y52236202D01*
X44191492Y52064954D01*
X44489000Y52004707D01*
X45966600Y52004707D01*
X45966600Y51773990D01*
X42790905Y48598295D01*
X42547036Y48233319D01*
X42461400Y47802800D01*
X42461400Y46334808D01*
X41992650Y46335217D01*
X41992125Y46335000D01*
X40843200Y46335000D01*
X40408986Y46248629D01*
X40364846Y46239849D01*
X39959316Y45968883D01*
X38867117Y44876683D01*
X38596151Y44471154D01*
X38501000Y43992800D01*
X38501000Y39929890D01*
X38500783Y39681250D01*
X38690684Y39221657D01*
X39042007Y38869719D01*
X39501269Y38679017D01*
X39998550Y38678583D01*
X40458143Y38868484D01*
X40810081Y39219807D01*
X41000783Y39679069D01*
X41001217Y40176350D01*
X41001000Y40176875D01*
X41001000Y43475034D01*
X41360967Y43835000D01*
X42239109Y43835000D01*
X42336594Y43834915D01*
X42336183Y43364250D01*
X42526084Y42904657D01*
X42872960Y42557174D01*
X42764120Y42394284D01*
X42734923Y42247500D01*
X42688000Y42011600D01*
X42688000Y41300400D01*
X42764120Y40917716D01*
X42980893Y40593293D01*
X43246800Y40327386D01*
X43246800Y36150171D01*
X43187719Y36091193D01*
X42997017Y35631931D01*
X42996583Y35134650D01*
X43186484Y34675057D01*
X43537807Y34323119D01*
X43997069Y34132417D01*
X44494350Y34131983D01*
X44953943Y34321884D01*
X45305881Y34673207D01*
X45496583Y35132469D01*
X45497017Y35629750D01*
X45307116Y36089343D01*
X45246800Y36149765D01*
X45246800Y38555986D01*
X46756077Y37046709D01*
X46755783Y36709450D01*
X46945684Y36249857D01*
X47297007Y35897919D01*
X47756269Y35707217D01*
X48253550Y35706783D01*
X48713143Y35896684D01*
X49065081Y36248007D01*
X49255783Y36707269D01*
X49256217Y37204550D01*
X49066316Y37664143D01*
X48714993Y38016081D01*
X48544222Y38086991D01*
X46339000Y40292214D01*
X46339000Y40304502D01*
X46704150Y40304183D01*
X47163743Y40494084D01*
X47515681Y40845407D01*
X47661855Y41197433D01*
X47754207Y41104919D01*
X48213469Y40914217D01*
X48298844Y40914142D01*
X49686493Y39526493D01*
X50010916Y39309720D01*
X50393600Y39233600D01*
X54350029Y39233600D01*
X54409007Y39174519D01*
X54868269Y38983817D01*
X55365550Y38983383D01*
X55825143Y39173284D01*
X56177081Y39524607D01*
X56367783Y39983869D01*
X56368217Y40481150D01*
X56178316Y40940743D01*
X55826993Y41292681D01*
X55367731Y41483383D01*
X54870450Y41483817D01*
X54410857Y41293916D01*
X54350435Y41233600D01*
X50807814Y41233600D01*
X49713344Y42328070D01*
X49713417Y42411550D01*
X49588694Y42713400D01*
X54400829Y42713400D01*
X54459807Y42654319D01*
X54919069Y42463617D01*
X55416350Y42463183D01*
X55875943Y42653084D01*
X56227881Y43004407D01*
X56418583Y43463669D01*
X56419017Y43960950D01*
X56229116Y44420543D01*
X55877793Y44772481D01*
X55418531Y44963183D01*
X54921250Y44963617D01*
X54461657Y44773716D01*
X54401235Y44713400D01*
X47804014Y44713400D01*
X56624414Y53533800D01*
X59123386Y53533800D01*
X61589456Y51067730D01*
X61589383Y50984250D01*
X61779284Y50524657D01*
X62022116Y50281400D01*
X61265495Y50281400D01*
X61137800Y50306800D01*
X60276762Y50135529D01*
X59546810Y49647790D01*
X59059071Y48917838D01*
X58887800Y48056800D01*
X59059071Y47195762D01*
X59546810Y46465810D01*
X59572210Y46440410D01*
X60302162Y45952671D01*
X60944113Y45824979D01*
X61040271Y45341562D01*
X61528010Y44611610D01*
X62257962Y44123871D01*
X63119000Y43952600D01*
X63980038Y44123871D01*
X64709990Y44611610D01*
X65197729Y45341562D01*
X65285218Y45781400D01*
X65938400Y45781400D01*
X66799438Y45952671D01*
X67529390Y46440410D01*
X70424990Y49336010D01*
X70591264Y49584857D01*
X70912729Y50065962D01*
X71084000Y50927000D01*
X71084000Y67556000D01*
X71098818Y67556000D01*
X71221646Y66938502D01*
X71571430Y66415012D01*
X71764511Y66286000D01*
X71571430Y66156988D01*
X71221646Y65633498D01*
X71098818Y65016000D01*
X71221646Y64398502D01*
X71571430Y63875012D01*
X71764511Y63746000D01*
X71571430Y63616988D01*
X71221646Y63093498D01*
X71098818Y62476000D01*
X71221646Y61858502D01*
X71571430Y61335012D01*
X72094920Y60985228D01*
X72712418Y60862400D01*
X73563582Y60862400D01*
X74181080Y60985228D01*
X74704570Y61335012D01*
X75054354Y61858502D01*
X75177182Y62476000D01*
X75054354Y63093498D01*
X74704570Y63616988D01*
X74511489Y63746000D01*
X74704570Y63875012D01*
X75054354Y64398502D01*
X75177182Y65016000D01*
X75054354Y65633498D01*
X74704570Y66156988D01*
X74511489Y66286000D01*
X74704570Y66415012D01*
X75054354Y66938502D01*
X75177182Y67556000D01*
X75054354Y68173498D01*
X74704570Y68696988D01*
X74181080Y69046772D01*
X73563582Y69169600D01*
X72712418Y69169600D01*
X72094920Y69046772D01*
X71571430Y68696988D01*
X71221646Y68173498D01*
X71098818Y67556000D01*
X71084000Y67556000D01*
X71084000Y71645485D01*
X71374000Y71587800D01*
X71577200Y71587800D01*
X72438238Y71759071D01*
X73168190Y72246810D01*
X73655929Y72976762D01*
X73827200Y73837800D01*
X73655929Y74698838D01*
X73566967Y74831979D01*
X73588069Y74823217D01*
X74064703Y74822801D01*
X74123684Y74680057D01*
X74475007Y74328119D01*
X74934269Y74137417D01*
X75431550Y74136983D01*
X75891143Y74326884D01*
X76034731Y74470221D01*
X76049807Y74455119D01*
X76509069Y74264417D01*
X76901800Y74264074D01*
X76901800Y57030814D01*
X75950093Y56079107D01*
X75733320Y55754684D01*
X75669190Y55432279D01*
X75657200Y55372000D01*
X75657200Y53678014D01*
X75295186Y53316000D01*
X74798775Y53316000D01*
X74704570Y53456988D01*
X74511489Y53586000D01*
X74704570Y53715012D01*
X75054354Y54238502D01*
X75177182Y54856000D01*
X75054354Y55473498D01*
X74704570Y55996988D01*
X74511489Y56126000D01*
X74704570Y56255012D01*
X75054354Y56778502D01*
X75177182Y57396000D01*
X75054354Y58013498D01*
X74704570Y58536988D01*
X74181080Y58886772D01*
X73563582Y59009600D01*
X72712418Y59009600D01*
X72094920Y58886772D01*
X71571430Y58536988D01*
X71221646Y58013498D01*
X71098818Y57396000D01*
X71221646Y56778502D01*
X71571430Y56255012D01*
X71764511Y56126000D01*
X71571430Y55996988D01*
X71221646Y55473498D01*
X71098818Y54856000D01*
X71221646Y54238502D01*
X71571430Y53715012D01*
X71764511Y53586000D01*
X71571430Y53456988D01*
X71221646Y52933498D01*
X71098818Y52316000D01*
X71221646Y51698502D01*
X71571430Y51175012D01*
X71764511Y51046000D01*
X71571430Y50916988D01*
X71221646Y50393498D01*
X71098818Y49776000D01*
X71221646Y49158502D01*
X71571430Y48635012D01*
X71764511Y48506000D01*
X71571430Y48376988D01*
X71221646Y47853498D01*
X71098818Y47236000D01*
X71221646Y46618502D01*
X71500348Y46201394D01*
X71354802Y46107738D01*
X71183554Y45857108D01*
X71123307Y45559600D01*
X71123307Y43832400D01*
X71175604Y43554467D01*
X71339862Y43299202D01*
X71590492Y43127954D01*
X71888000Y43067707D01*
X74388000Y43067707D01*
X74665933Y43120004D01*
X74921198Y43284262D01*
X75092446Y43534892D01*
X75152693Y43832400D01*
X75152693Y45559600D01*
X75100396Y45837533D01*
X74936138Y46092798D01*
X74776138Y46202121D01*
X74798775Y46236000D01*
X77716000Y46236000D01*
X78098684Y46312120D01*
X78423107Y46528893D01*
X78629000Y46734786D01*
X78629000Y42121013D01*
X77639986Y41132000D01*
X74798775Y41132000D01*
X74704570Y41272988D01*
X74181080Y41622772D01*
X73563582Y41745600D01*
X72712418Y41745600D01*
X72094920Y41622772D01*
X71571430Y41272988D01*
X71221646Y40749498D01*
X71098818Y40132000D01*
X71221646Y39514502D01*
X71571430Y38991012D01*
X71764511Y38862000D01*
X71571430Y38732988D01*
X71221646Y38209498D01*
X71098818Y37592000D01*
X71221646Y36974502D01*
X71571430Y36451012D01*
X71764511Y36322000D01*
X71571430Y36192988D01*
X71221646Y35669498D01*
X71098818Y35052000D01*
X71221646Y34434502D01*
X71571430Y33911012D01*
X71764511Y33782000D01*
X71571430Y33652988D01*
X71221646Y33129498D01*
X71098818Y32512000D01*
X71221646Y31894502D01*
X71571430Y31371012D01*
X71764511Y31242000D01*
X71571430Y31112988D01*
X71221646Y30589498D01*
X71098818Y29972000D01*
X71221646Y29354502D01*
X71571430Y28831012D01*
X71764511Y28702000D01*
X71571430Y28572988D01*
X71221646Y28049498D01*
X71098818Y27432000D01*
X71221646Y26814502D01*
X71571430Y26291012D01*
X71764511Y26162000D01*
X71571430Y26032988D01*
X71221646Y25509498D01*
X71098818Y24892000D01*
X71221646Y24274502D01*
X71500348Y23857394D01*
X71354802Y23763738D01*
X71183554Y23513108D01*
X71123307Y23215600D01*
X71123307Y21488400D01*
X71175604Y21210467D01*
X71339862Y20955202D01*
X71590492Y20783954D01*
X71888000Y20723707D01*
X74388000Y20723707D01*
X74665933Y20776004D01*
X74921198Y20940262D01*
X75092446Y21190892D01*
X75152693Y21488400D01*
X75152693Y23215600D01*
X75100396Y23493533D01*
X74936138Y23748798D01*
X74776138Y23858121D01*
X75054354Y24274502D01*
X75177182Y24892000D01*
X75054354Y25509498D01*
X74704570Y26032988D01*
X74511489Y26162000D01*
X74704570Y26291012D01*
X75054354Y26814502D01*
X75177182Y27432000D01*
X75054354Y28049498D01*
X74704570Y28572988D01*
X74511489Y28702000D01*
X74704570Y28831012D01*
X74798775Y28972000D01*
X81813400Y28972000D01*
X82196084Y29048120D01*
X82520507Y29264893D01*
X83789200Y30533586D01*
X83789200Y27263966D01*
X82072517Y25547283D01*
X82021553Y25471010D01*
X81897319Y25346993D01*
X81829408Y25183445D01*
X81801551Y25141754D01*
X81791854Y25093005D01*
X81706617Y24887731D01*
X81706421Y24663507D01*
X81706400Y24663400D01*
X81706400Y24639090D01*
X81706183Y24390450D01*
X81896084Y23930857D01*
X82247407Y23578919D01*
X82706669Y23388217D01*
X83203950Y23387783D01*
X83663543Y23577684D01*
X84015481Y23929007D01*
X84033736Y23972970D01*
X85660383Y25599617D01*
X85936080Y25323438D01*
X85518268Y24906355D01*
X85288951Y24354099D01*
X85288429Y23756125D01*
X85516782Y23203469D01*
X85936080Y22783438D01*
X85518268Y22366355D01*
X85288951Y21814099D01*
X85288429Y21216125D01*
X85516782Y20663469D01*
X85939245Y20240268D01*
X86491501Y20010951D01*
X87089475Y20010429D01*
X87642131Y20238782D01*
X88065332Y20661245D01*
X88294649Y21213501D01*
X88295171Y21811475D01*
X88066818Y22364131D01*
X87647520Y22784162D01*
X88065332Y23201245D01*
X88294649Y23753501D01*
X88295171Y24351475D01*
X88066818Y24904131D01*
X87647520Y25324162D01*
X88065332Y25741245D01*
X88294649Y26293501D01*
X88295171Y26891475D01*
X88066818Y27444131D01*
X87647520Y27864162D01*
X88065332Y28281245D01*
X88294649Y28833501D01*
X88295171Y29431475D01*
X88066818Y29984131D01*
X87647520Y30404162D01*
X88065332Y30821245D01*
X88294649Y31373501D01*
X88295171Y31971475D01*
X88066818Y32524131D01*
X87916800Y32674411D01*
X87916800Y40259000D01*
X87831164Y40689519D01*
X87587295Y41054495D01*
X87346125Y41295665D01*
X87591331Y41396982D01*
X88014532Y41819445D01*
X88243849Y42371701D01*
X88244371Y42969675D01*
X88016018Y43522331D01*
X87596720Y43942362D01*
X88014532Y44359445D01*
X88243849Y44911701D01*
X88244371Y45509675D01*
X88016018Y46062331D01*
X87596720Y46482362D01*
X88014532Y46899445D01*
X88243849Y47451701D01*
X88244371Y48049675D01*
X88016018Y48602331D01*
X87596720Y49022362D01*
X88014532Y49439445D01*
X88243849Y49991701D01*
X88244371Y50589675D01*
X88016018Y51142331D01*
X87596720Y51562362D01*
X88014532Y51979445D01*
X88243849Y52531701D01*
X88244371Y53129675D01*
X88016018Y53682331D01*
X87866000Y53832611D01*
X87866000Y56684010D01*
X92133895Y60951905D01*
X92377764Y61316881D01*
X92463400Y61747400D01*
X92463400Y75776758D01*
X92588183Y76077269D01*
X92588617Y76574550D01*
X92398716Y77034143D01*
X92047393Y77386081D01*
X91588131Y77576783D01*
X91090850Y77577217D01*
X90631257Y77387316D01*
X90279319Y77035993D01*
X90088617Y76576731D01*
X90088183Y76079450D01*
X90213400Y75776403D01*
X90213400Y62213390D01*
X86115400Y58115390D01*
X86115400Y62335428D01*
X86440701Y62200351D01*
X87038675Y62199829D01*
X87591331Y62428182D01*
X88014532Y62850645D01*
X88243849Y63402901D01*
X88244371Y64000875D01*
X88016018Y64553531D01*
X87596720Y64973562D01*
X88014532Y65390645D01*
X88243849Y65942901D01*
X88244371Y66540875D01*
X88016018Y67093531D01*
X87596720Y67513562D01*
X88014532Y67930645D01*
X88243849Y68482901D01*
X88244371Y69080875D01*
X88016018Y69633531D01*
X87596720Y70053562D01*
X88014532Y70470645D01*
X88243849Y71022901D01*
X88244371Y71620875D01*
X88016018Y72173531D01*
X87596720Y72593562D01*
X88014532Y73010645D01*
X88243849Y73562901D01*
X88244371Y74160875D01*
X88016018Y74713531D01*
X87593555Y75136732D01*
X87041299Y75366049D01*
X86443325Y75366571D01*
X86301272Y75307876D01*
X86175716Y75611743D01*
X85824393Y75963681D01*
X85365131Y76154383D01*
X85099400Y76154615D01*
X85099400Y76803629D01*
X85158481Y76862607D01*
X85349183Y77321869D01*
X85349617Y77819150D01*
X85159716Y78278743D01*
X85099400Y78339165D01*
X85099400Y80538213D01*
X85591550Y80537783D01*
X85592075Y80538000D01*
X88924309Y80538000D01*
X89172950Y80537783D01*
X89632543Y80727684D01*
X89984481Y81079007D01*
X90175183Y81538269D01*
X90175617Y82035550D01*
X89985716Y82495143D01*
X89634393Y82847081D01*
X89175131Y83037783D01*
X88869640Y83038050D01*
X89146281Y83314207D01*
X89336983Y83773469D01*
X89337417Y84270750D01*
X89147516Y84730343D01*
X88796193Y85082281D01*
X88336931Y85272983D01*
X87839650Y85273417D01*
X87380057Y85083516D01*
X87319635Y85023200D01*
X85140800Y85023200D01*
X84758116Y84947080D01*
X84433693Y84730307D01*
X83392293Y83688907D01*
X83175520Y83364484D01*
X83110557Y83037889D01*
X82734250Y83038217D01*
X82274657Y82848316D01*
X81922719Y82496993D01*
X81737091Y82049950D01*
X81663036Y81939119D01*
X81577400Y81508600D01*
X81577400Y79913697D01*
X81210250Y79914017D01*
X80750657Y79724116D01*
X80398719Y79372793D01*
X80208017Y78913531D01*
X80207942Y78828156D01*
X79943200Y78563414D01*
X79943200Y79165829D01*
X80002281Y79224807D01*
X80192983Y79684069D01*
X80193417Y80181350D01*
X80003516Y80640943D01*
X79652193Y80992881D01*
X79192931Y81183583D01*
X78901800Y81183837D01*
X78901800Y83591395D01*
X78901801Y83591400D01*
X78825680Y83974084D01*
X78699984Y84162200D01*
X78608907Y84298507D01*
X78608904Y84298509D01*
X74001074Y88906340D01*
X74230623Y89135489D01*
X74474722Y89723344D01*
X74475277Y90359863D01*
X74232205Y90948143D01*
X73782511Y91398623D01*
X73194656Y91642722D01*
X72558137Y91643277D01*
X71969857Y91400205D01*
X71519377Y90950511D01*
X71275278Y90362656D01*
X71274723Y89726137D01*
X71465261Y89265000D01*
X69551990Y89265000D01*
X65819495Y92997495D01*
X65764879Y93033988D01*
X65454519Y93241364D01*
X65024000Y93327000D01*
X61891242Y93327000D01*
X61590731Y93451783D01*
X61093450Y93452217D01*
X61088400Y93450130D01*
X61088400Y102743000D01*
X67414402Y102743000D01*
X67537230Y102125502D01*
X67887014Y101602012D01*
X68080095Y101473000D01*
X67887014Y101343988D01*
X67537230Y100820498D01*
X67414402Y100203000D01*
X67537230Y99585502D01*
X67887014Y99062012D01*
X68080095Y98933000D01*
X67887014Y98803988D01*
X67537230Y98280498D01*
X67414402Y97663000D01*
X67537230Y97045502D01*
X67814554Y96630457D01*
X67665802Y96534738D01*
X67494554Y96284108D01*
X67434307Y95986600D01*
X67434307Y94259400D01*
X67486604Y93981467D01*
X67650862Y93726202D01*
X67901492Y93554954D01*
X68199000Y93494707D01*
X70231000Y93494707D01*
X70508933Y93547004D01*
X70764198Y93711262D01*
X70935446Y93961892D01*
X70995693Y94259400D01*
X70995693Y95986600D01*
X70943396Y96264533D01*
X70779138Y96519798D01*
X70615991Y96631272D01*
X70892770Y97045502D01*
X71015598Y97663000D01*
X70892770Y98280498D01*
X70542986Y98803988D01*
X70349905Y98933000D01*
X70542986Y99062012D01*
X70892770Y99585502D01*
X71015598Y100203000D01*
X70892770Y100820498D01*
X70542986Y101343988D01*
X70349905Y101473000D01*
X70542986Y101602012D01*
X70892770Y102125502D01*
X71015598Y102743000D01*
X70892770Y103360498D01*
X70542986Y103883988D01*
X70019496Y104233772D01*
X69401998Y104356600D01*
X69028002Y104356600D01*
X68410504Y104233772D01*
X67887014Y103883988D01*
X67537230Y103360498D01*
X67414402Y102743000D01*
X61088400Y102743000D01*
X61088400Y104966137D01*
X71274723Y104966137D01*
X71517795Y104377857D01*
X71882257Y104012758D01*
X71519377Y103650511D01*
X71275278Y103062656D01*
X71274723Y102426137D01*
X71517795Y101837857D01*
X71882257Y101472758D01*
X71519377Y101110511D01*
X71275278Y100522656D01*
X71274723Y99886137D01*
X71517795Y99297857D01*
X71882257Y98932758D01*
X71519377Y98570511D01*
X71275278Y97982656D01*
X71274723Y97346137D01*
X71517795Y96757857D01*
X71882257Y96392758D01*
X71519377Y96030511D01*
X71275278Y95442656D01*
X71274723Y94806137D01*
X71517795Y94217857D01*
X71967489Y93767377D01*
X72555344Y93523278D01*
X73191863Y93522723D01*
X73780143Y93765795D01*
X74230623Y94215489D01*
X74474722Y94803344D01*
X74475277Y95439863D01*
X74232205Y96028143D01*
X73867743Y96393242D01*
X74230623Y96755489D01*
X74474722Y97343344D01*
X74475277Y97979863D01*
X74232205Y98568143D01*
X73867743Y98933242D01*
X74230623Y99295489D01*
X74474722Y99883344D01*
X74475277Y100519863D01*
X74232205Y101108143D01*
X73867743Y101473242D01*
X74230623Y101835489D01*
X74474722Y102423344D01*
X74475277Y103059863D01*
X74232205Y103648143D01*
X73867743Y104013242D01*
X74230623Y104375489D01*
X74474722Y104963344D01*
X74475028Y105314612D01*
X76046900Y105314612D01*
X76046900Y105251388D01*
X76169728Y104633890D01*
X76519512Y104110400D01*
X76665282Y104013000D01*
X76519512Y103915600D01*
X76169728Y103392110D01*
X76046900Y102774612D01*
X76046900Y102711388D01*
X76169728Y102093890D01*
X76519512Y101570400D01*
X76665282Y101473000D01*
X76519512Y101375600D01*
X76169728Y100852110D01*
X76046900Y100234612D01*
X76046900Y100171388D01*
X76169728Y99553890D01*
X76519512Y99030400D01*
X77043002Y98680616D01*
X77660500Y98557788D01*
X78277998Y98680616D01*
X78801488Y99030400D01*
X78930500Y99223481D01*
X78950500Y99193548D01*
X78950500Y96151700D01*
X79045651Y95673346D01*
X79316617Y95267817D01*
X82885317Y91699116D01*
X83118639Y91543216D01*
X83290846Y91428151D01*
X83769200Y91333000D01*
X84267915Y91333000D01*
X84170554Y91190508D01*
X84110307Y90893000D01*
X84110307Y89193000D01*
X84162604Y88915067D01*
X84326862Y88659802D01*
X84577492Y88488554D01*
X84875000Y88428307D01*
X86575000Y88428307D01*
X86852933Y88480604D01*
X87108198Y88644862D01*
X87279446Y88895492D01*
X87339693Y89193000D01*
X87339693Y90893000D01*
X87287396Y91170933D01*
X87123138Y91426198D01*
X86949646Y91544740D01*
X87080623Y91675489D01*
X87324722Y92263344D01*
X87325277Y92899863D01*
X87082205Y93488143D01*
X86717743Y93853242D01*
X87080623Y94215489D01*
X87324722Y94803344D01*
X87325277Y95439863D01*
X87082205Y96028143D01*
X86717743Y96393242D01*
X87080623Y96755489D01*
X87324722Y97343344D01*
X87325277Y97979863D01*
X87082205Y98568143D01*
X86717743Y98933242D01*
X87080623Y99295489D01*
X87324722Y99883344D01*
X87325277Y100519863D01*
X87082205Y101108143D01*
X86717743Y101473242D01*
X87080623Y101835489D01*
X87324722Y102423344D01*
X87325277Y103059863D01*
X87082205Y103648143D01*
X86717743Y104013242D01*
X87080623Y104375489D01*
X87324722Y104963344D01*
X87325277Y105599863D01*
X87082205Y106188143D01*
X86717743Y106553242D01*
X87080623Y106915489D01*
X87239181Y107297341D01*
X90981140Y107297341D01*
X91209020Y106745828D01*
X91630609Y106323503D01*
X92181723Y106094661D01*
X92778459Y106094140D01*
X93329972Y106322020D01*
X93752297Y106743609D01*
X93981139Y107294723D01*
X93981660Y107891459D01*
X93753780Y108442972D01*
X93332191Y108865297D01*
X92781077Y109094139D01*
X92184341Y109094660D01*
X91632828Y108866780D01*
X91210503Y108445191D01*
X90981661Y107894077D01*
X90981140Y107297341D01*
X87239181Y107297341D01*
X87324722Y107503344D01*
X87325277Y108139863D01*
X87082205Y108728143D01*
X86632511Y109178623D01*
X86044656Y109422722D01*
X85408137Y109423277D01*
X84819857Y109180205D01*
X84369377Y108730511D01*
X84125278Y108142656D01*
X84124723Y107506137D01*
X84367795Y106917857D01*
X84732257Y106552758D01*
X84369377Y106190511D01*
X84125278Y105602656D01*
X84124723Y104966137D01*
X84367795Y104377857D01*
X84732257Y104012758D01*
X84369377Y103650511D01*
X84125278Y103062656D01*
X84124723Y102426137D01*
X84367795Y101837857D01*
X84732257Y101472758D01*
X84369377Y101110511D01*
X84125278Y100522656D01*
X84124723Y99886137D01*
X84367795Y99297857D01*
X84732257Y98932758D01*
X84369377Y98570511D01*
X84125278Y97982656D01*
X84124723Y97346137D01*
X84367795Y96757857D01*
X84732257Y96392758D01*
X84369377Y96030511D01*
X84125278Y95442656D01*
X84124723Y94806137D01*
X84367795Y94217857D01*
X84732257Y93852758D01*
X84712465Y93833000D01*
X84286967Y93833000D01*
X81450500Y96669466D01*
X81450500Y99193548D01*
X81691272Y99553890D01*
X81814100Y100171388D01*
X81814100Y100234612D01*
X81691272Y100852110D01*
X81341488Y101375600D01*
X81195718Y101473000D01*
X81341488Y101570400D01*
X81691272Y102093890D01*
X81814100Y102711388D01*
X81814100Y102774612D01*
X81691272Y103392110D01*
X81439123Y103769479D01*
X81597298Y103871262D01*
X81768546Y104121892D01*
X81828793Y104419400D01*
X81828793Y106146600D01*
X81776496Y106424533D01*
X81612238Y106679798D01*
X81361608Y106851046D01*
X81064100Y106911293D01*
X79336900Y106911293D01*
X79058967Y106858996D01*
X78803702Y106694738D01*
X78690828Y106529541D01*
X78277998Y106805384D01*
X77660500Y106928212D01*
X77043002Y106805384D01*
X76519512Y106455600D01*
X76169728Y105932110D01*
X76046900Y105314612D01*
X74475028Y105314612D01*
X74475277Y105599863D01*
X74232205Y106188143D01*
X73782511Y106638623D01*
X73194656Y106882722D01*
X72558137Y106883277D01*
X71969857Y106640205D01*
X71519377Y106190511D01*
X71275278Y105602656D01*
X71274723Y104966137D01*
X61088400Y104966137D01*
X61088400Y105283000D01*
X60974219Y105857025D01*
X60649060Y106343660D01*
X60162425Y106668819D01*
X59588400Y106783000D01*
X59014375Y106668819D01*
X58527740Y106343660D01*
X58202581Y105857025D01*
X58088400Y105283000D01*
X58088400Y93418951D01*
X58009331Y93451783D01*
X57512050Y93452217D01*
X57209003Y93327000D01*
X54440990Y93327000D01*
X52179000Y95588990D01*
X52179000Y102920800D01*
X52093364Y103351319D01*
X51849495Y103716295D01*
X49639695Y105926095D01*
X49543840Y105990143D01*
X49274719Y106169964D01*
X48844200Y106255600D01*
X47286242Y106255600D01*
X46985731Y106380383D01*
X46488450Y106380817D01*
X46028857Y106190916D01*
X45676919Y105839593D01*
X45486217Y105380331D01*
X45485783Y104883050D01*
X45675684Y104423457D01*
X46027007Y104071519D01*
X46486269Y103880817D01*
X46983550Y103880383D01*
X47286597Y104005600D01*
X48378210Y104005600D01*
X49929000Y102454810D01*
X49929000Y102037857D01*
X49893695Y102090695D01*
X48598295Y103386095D01*
X48334205Y103562554D01*
X48233319Y103629964D01*
X47802800Y103715600D01*
X47210042Y103715600D01*
X46909531Y103840383D01*
X46412250Y103840817D01*
X45952657Y103650916D01*
X45600719Y103299593D01*
X45410017Y102840331D01*
X45409583Y102343050D01*
X45599484Y101883457D01*
X45950807Y101531519D01*
X46410069Y101340817D01*
X46907350Y101340383D01*
X47210397Y101465600D01*
X47336810Y101465600D01*
X47973200Y100829210D01*
X47973200Y95044990D01*
X47784800Y95233390D01*
X47784800Y99500358D01*
X47909583Y99800869D01*
X47910017Y100298150D01*
X47720116Y100757743D01*
X47368793Y101109681D01*
X46909531Y101300383D01*
X46412250Y101300817D01*
X45952657Y101110916D01*
X45600719Y100759593D01*
X45410017Y100300331D01*
X45409583Y99803050D01*
X45534800Y99500003D01*
X45534800Y95756190D01*
X44889895Y96401095D01*
X44824730Y96444637D01*
X44524919Y96644964D01*
X44094400Y96730600D01*
X43870107Y96730600D01*
X43866996Y96747133D01*
X43702738Y97002398D01*
X43452108Y97173646D01*
X43154600Y97233893D01*
X41427400Y97233893D01*
X41149467Y97181596D01*
X40894202Y97017338D01*
X40781328Y96852141D01*
X40368498Y97127984D01*
X39751000Y97250812D01*
X39133502Y97127984D01*
X38610012Y96778200D01*
X38260228Y96254710D01*
X38137400Y95637212D01*
X38137400Y95573988D01*
X38260228Y94956490D01*
X38610012Y94433000D01*
X38755782Y94335600D01*
X38610012Y94238200D01*
X38260228Y93714710D01*
X38137400Y93097212D01*
X38137400Y93033988D01*
X38260228Y92416490D01*
X38610012Y91893000D01*
X38755782Y91795600D01*
X38610012Y91698200D01*
X38260228Y91174710D01*
X38137400Y90557212D01*
X38137400Y90493988D01*
X38260228Y89876490D01*
X38610012Y89353000D01*
X39133502Y89003216D01*
X39751000Y88880388D01*
X40368498Y89003216D01*
X40891988Y89353000D01*
X41021000Y89546081D01*
X41150012Y89353000D01*
X41673502Y89003216D01*
X42291000Y88880388D01*
X42908498Y89003216D01*
X43431988Y89353000D01*
X43463793Y89400600D01*
X43907810Y89400600D01*
X52494400Y80814010D01*
X52494400Y80566061D01*
X52372593Y80688081D01*
X52069763Y80813827D01*
X45880495Y87003095D01*
X45815330Y87046637D01*
X45515519Y87246964D01*
X45085000Y87332600D01*
X43463793Y87332600D01*
X43431988Y87380200D01*
X42908498Y87729984D01*
X42291000Y87852812D01*
X41673502Y87729984D01*
X41150012Y87380200D01*
X41021000Y87187119D01*
X40891988Y87380200D01*
X40368498Y87729984D01*
X39751000Y87852812D01*
X39133502Y87729984D01*
X38610012Y87380200D01*
X38260228Y86856710D01*
X38137400Y86239212D01*
X38137400Y86175988D01*
X38260228Y85558490D01*
X38610012Y85035000D01*
X38755782Y84937600D01*
X38610012Y84840200D01*
X38260228Y84316710D01*
X38137400Y83699212D01*
X38137400Y83635988D01*
X38260228Y83018490D01*
X38512377Y82641121D01*
X38354202Y82539338D01*
X38182954Y82288708D01*
X38122707Y81991200D01*
X38122707Y80264000D01*
X38175004Y79986067D01*
X38339262Y79730802D01*
X38589892Y79559554D01*
X38887400Y79499307D01*
X40614600Y79499307D01*
X40892533Y79551604D01*
X41147798Y79715862D01*
X41260672Y79881059D01*
X41673502Y79605216D01*
X42291000Y79482388D01*
X42908498Y79605216D01*
X43431988Y79955000D01*
X43463793Y80002600D01*
X44060210Y80002600D01*
X47425546Y76637264D01*
X47250450Y76637417D01*
X47249925Y76637200D01*
X44399200Y76637200D01*
X43920846Y76542049D01*
X43515317Y76271084D01*
X41951034Y74706800D01*
X31704539Y74706800D01*
X31704817Y75025150D01*
X31514916Y75484743D01*
X31163593Y75836681D01*
X31163068Y75836899D01*
X28097800Y78902166D01*
X28097800Y92150109D01*
X28098017Y92398750D01*
X27908116Y92858343D01*
X27556793Y93210281D01*
X27097531Y93400983D01*
X26600250Y93401417D01*
X26140657Y93211516D01*
X25788719Y92860193D01*
X25598017Y92400931D01*
X25597583Y91903650D01*
X25597800Y91903125D01*
X25597800Y90952567D01*
X22575483Y93974883D01*
X22169954Y94245849D01*
X21691600Y94341000D01*
X10093567Y94341000D01*
X8336600Y96097966D01*
X8336600Y97599754D01*
X8356962Y97620080D01*
X8774045Y97202268D01*
X9326301Y96972951D01*
X9924275Y96972429D01*
X10476931Y97200782D01*
X10896962Y97620080D01*
X11314045Y97202268D01*
X11866301Y96972951D01*
X12464275Y96972429D01*
X13016931Y97200782D01*
X13436962Y97620080D01*
X13854045Y97202268D01*
X14406301Y96972951D01*
X15004275Y96972429D01*
X15556931Y97200782D01*
X15976962Y97620080D01*
X16394045Y97202268D01*
X16946301Y96972951D01*
X17544275Y96972429D01*
X18096931Y97200782D01*
X18520132Y97623245D01*
X18749449Y98175501D01*
X18749971Y98773475D01*
X18521618Y99326131D01*
X18099155Y99749332D01*
X17546899Y99978649D01*
X16948925Y99979171D01*
X16396269Y99750818D01*
X15976238Y99331520D01*
X15559155Y99749332D01*
X15006899Y99978649D01*
X14408925Y99979171D01*
X13856269Y99750818D01*
X13436238Y99331520D01*
X13019155Y99749332D01*
X12466899Y99978649D01*
X11868925Y99979171D01*
X11316269Y99750818D01*
X10896238Y99331520D01*
X10479155Y99749332D01*
X9926899Y99978649D01*
X9328925Y99979171D01*
X8776269Y99750818D01*
X8356238Y99331520D01*
X7939155Y99749332D01*
X7386899Y99978649D01*
X6788925Y99979171D01*
X6236269Y99750818D01*
X5813068Y99328355D01*
X5583751Y98776099D01*
X5583229Y98178125D01*
X825000Y98178125D01*
X825000Y105994200D01*
X40662707Y105994200D01*
X40662707Y104267000D01*
X40715004Y103989067D01*
X40879262Y103733802D01*
X41051661Y103616007D01*
X40800228Y103239710D01*
X40677400Y102622212D01*
X40677400Y102558988D01*
X40800228Y101941490D01*
X41150012Y101418000D01*
X41295782Y101320600D01*
X41150012Y101223200D01*
X40800228Y100699710D01*
X40677400Y100082212D01*
X40677400Y100018988D01*
X40800228Y99401490D01*
X41150012Y98878000D01*
X41673502Y98528216D01*
X42291000Y98405388D01*
X42908498Y98528216D01*
X43431988Y98878000D01*
X43781772Y99401490D01*
X43904600Y100018988D01*
X43904600Y100082212D01*
X43781772Y100699710D01*
X43431988Y101223200D01*
X43286218Y101320600D01*
X43431988Y101418000D01*
X43781772Y101941490D01*
X43904600Y102558988D01*
X43904600Y102622212D01*
X43781772Y103239710D01*
X43529623Y103617079D01*
X43687798Y103718862D01*
X43859046Y103969492D01*
X43919293Y104267000D01*
X43919293Y105994200D01*
X43866996Y106272133D01*
X43702738Y106527398D01*
X43452108Y106698646D01*
X43154600Y106758893D01*
X41427400Y106758893D01*
X41149467Y106706596D01*
X40894202Y106542338D01*
X40722954Y106291708D01*
X40662707Y105994200D01*
X825000Y105994200D01*
X825000Y107297341D01*
X1522340Y107297341D01*
X1750220Y106745828D01*
X2171809Y106323503D01*
X2722923Y106094661D01*
X3319659Y106094140D01*
X3871172Y106322020D01*
X4293497Y106743609D01*
X4522339Y107294723D01*
X4522860Y107891459D01*
X4294980Y108442972D01*
X3873391Y108865297D01*
X3322277Y109094139D01*
X2725541Y109094660D01*
X2174028Y108866780D01*
X1751703Y108445191D01*
X1522861Y107894077D01*
X1522340Y107297341D01*
X825000Y107297341D01*
X825000Y109792000D01*
X94679000Y109792000D01*
X94679000Y825000D01*
X94679000Y825000D01*
G37*
X94679000Y825000D02*
X825000Y825000D01*
X825000Y2725541D01*
X1522340Y2725541D01*
X1750220Y2174028D01*
X2171809Y1751703D01*
X2722923Y1522861D01*
X3319659Y1522340D01*
X3871172Y1750220D01*
X4293497Y2171809D01*
X4522339Y2722923D01*
X4522341Y2725541D01*
X90981140Y2725541D01*
X91209020Y2174028D01*
X91630609Y1751703D01*
X92181723Y1522861D01*
X92778459Y1522340D01*
X93329972Y1750220D01*
X93752297Y2171809D01*
X93981139Y2722923D01*
X93981660Y3319659D01*
X93753780Y3871172D01*
X93332191Y4293497D01*
X92781077Y4522339D01*
X92184341Y4522860D01*
X91632828Y4294980D01*
X91210503Y3873391D01*
X90981661Y3322277D01*
X90981140Y2725541D01*
X4522341Y2725541D01*
X4522860Y3319659D01*
X4294980Y3871172D01*
X3873391Y4293497D01*
X3322277Y4522339D01*
X2725541Y4522860D01*
X2174028Y4294980D01*
X1751703Y3873391D01*
X1522861Y3322277D01*
X1522340Y2725541D01*
X825000Y2725541D01*
X825000Y8735439D01*
X7390532Y8735439D01*
X7626008Y8165543D01*
X8061649Y7729140D01*
X8631133Y7492670D01*
X9247761Y7492132D01*
X9817657Y7727608D01*
X10254060Y8163249D01*
X10490530Y8732733D01*
X10490532Y8735439D01*
X12470532Y8735439D01*
X12706008Y8165543D01*
X13141649Y7729140D01*
X13711133Y7492670D01*
X14327761Y7492132D01*
X14897657Y7727608D01*
X15334060Y8163249D01*
X15570530Y8732733D01*
X15571068Y9349361D01*
X15335592Y9919257D01*
X14899951Y10355660D01*
X14330467Y10592130D01*
X13713839Y10592668D01*
X13143943Y10357192D01*
X12707540Y9921551D01*
X12471070Y9352067D01*
X12470532Y8735439D01*
X10490532Y8735439D01*
X10491068Y9349361D01*
X10255592Y9919257D01*
X9819951Y10355660D01*
X9250467Y10592130D01*
X8633839Y10592668D01*
X8063943Y10357192D01*
X7627540Y9921551D01*
X7391070Y9352067D01*
X7390532Y8735439D01*
X825000Y8735439D01*
X825000Y11436450D01*
X18866583Y11436450D01*
X19056484Y10976857D01*
X19407807Y10624919D01*
X19867069Y10434217D01*
X20364350Y10433783D01*
X20364875Y10434000D01*
X22550033Y10434000D01*
X22364143Y10357192D01*
X21927740Y9921551D01*
X21691270Y9352067D01*
X21690732Y8735439D01*
X21926208Y8165543D01*
X22361849Y7729140D01*
X22931333Y7492670D01*
X23547961Y7492132D01*
X24117857Y7727608D01*
X24554260Y8163249D01*
X24790730Y8732733D01*
X24791268Y9349361D01*
X24555792Y9919257D01*
X24120151Y10355660D01*
X23931487Y10434000D01*
X27630033Y10434000D01*
X27444143Y10357192D01*
X27007740Y9921551D01*
X26771270Y9352067D01*
X26770732Y8735439D01*
X27006208Y8165543D01*
X27441849Y7729140D01*
X28011333Y7492670D01*
X28627961Y7492132D01*
X29197857Y7727608D01*
X29634260Y8163249D01*
X29870730Y8732733D01*
X29870776Y8786239D01*
X36244932Y8786239D01*
X36480408Y8216343D01*
X36916049Y7779940D01*
X37485533Y7543470D01*
X38102161Y7542932D01*
X38672057Y7778408D01*
X39108460Y8214049D01*
X39344930Y8783533D01*
X39344932Y8786239D01*
X41324932Y8786239D01*
X41560408Y8216343D01*
X41996049Y7779940D01*
X42565533Y7543470D01*
X43182161Y7542932D01*
X43752057Y7778408D01*
X44188460Y8214049D01*
X44424930Y8783533D01*
X44425468Y9400161D01*
X44189992Y9970057D01*
X43754351Y10406460D01*
X43184867Y10642930D01*
X42568239Y10643468D01*
X41998343Y10407992D01*
X41561940Y9972351D01*
X41325470Y9402867D01*
X41324932Y8786239D01*
X39344932Y8786239D01*
X39345468Y9400161D01*
X39109992Y9970057D01*
X38674351Y10406460D01*
X38104867Y10642930D01*
X37488239Y10643468D01*
X36918343Y10407992D01*
X36481940Y9972351D01*
X36245470Y9402867D01*
X36244932Y8786239D01*
X29870776Y8786239D01*
X29871268Y9349361D01*
X29635792Y9919257D01*
X29200151Y10355660D01*
X29011487Y10434000D01*
X29616400Y10434000D01*
X30094754Y10529151D01*
X30500283Y10800117D01*
X31994016Y12293850D01*
X31897217Y12060731D01*
X31896783Y11563450D01*
X32086684Y11103857D01*
X32438007Y10751919D01*
X32897269Y10561217D01*
X33394550Y10560783D01*
X33395075Y10561000D01*
X35001200Y10561000D01*
X35479554Y10656151D01*
X35885083Y10927117D01*
X38096216Y13138250D01*
X48889383Y13138250D01*
X49079284Y12678657D01*
X49430607Y12326719D01*
X49474569Y12308464D01*
X49625456Y12157577D01*
X49508657Y12109316D01*
X49156719Y11757993D01*
X48966017Y11298731D01*
X48965583Y10801450D01*
X49155484Y10341857D01*
X49506807Y9989919D01*
X49966069Y9799217D01*
X50463350Y9798783D01*
X50463875Y9799000D01*
X50964159Y9799000D01*
X50799670Y9402867D01*
X50799132Y8786239D01*
X51034608Y8216343D01*
X51470249Y7779940D01*
X52039733Y7543470D01*
X52656361Y7542932D01*
X53226257Y7778408D01*
X53619704Y8171168D01*
X54010249Y7779940D01*
X54579733Y7543470D01*
X55196361Y7542932D01*
X55766257Y7778408D01*
X56202660Y8214049D01*
X56439130Y8783533D01*
X56439668Y9400161D01*
X56274871Y9799000D01*
X59815909Y9799000D01*
X60064550Y9798783D01*
X60524143Y9988684D01*
X60876081Y10340007D01*
X61066783Y10799269D01*
X61067050Y11106250D01*
X63672183Y11106250D01*
X63862084Y10646657D01*
X64213407Y10294719D01*
X64672669Y10104017D01*
X65169950Y10103583D01*
X65170475Y10103800D01*
X65645863Y10103800D01*
X65488740Y9946951D01*
X65252270Y9377467D01*
X65251732Y8760839D01*
X65487208Y8190943D01*
X65922849Y7754540D01*
X66492333Y7518070D01*
X67108961Y7517532D01*
X67678857Y7753008D01*
X68072304Y8145768D01*
X68462849Y7754540D01*
X69032333Y7518070D01*
X69648961Y7517532D01*
X70218857Y7753008D01*
X70655260Y8188649D01*
X70882306Y8735439D01*
X79653532Y8735439D01*
X79889008Y8165543D01*
X80324649Y7729140D01*
X80894133Y7492670D01*
X81510761Y7492132D01*
X82080657Y7727608D01*
X82474104Y8120368D01*
X82864649Y7729140D01*
X83434133Y7492670D01*
X84050761Y7492132D01*
X84620657Y7727608D01*
X85057060Y8163249D01*
X85293530Y8732733D01*
X85294068Y9349361D01*
X85058592Y9919257D01*
X84622951Y10355660D01*
X84053467Y10592130D01*
X83436839Y10592668D01*
X82866943Y10357192D01*
X82473496Y9964432D01*
X82082951Y10355660D01*
X81513467Y10592130D01*
X80896839Y10592668D01*
X80326943Y10357192D01*
X79890540Y9921551D01*
X79654070Y9352067D01*
X79653532Y8735439D01*
X70882306Y8735439D01*
X70891730Y8758133D01*
X70892268Y9374761D01*
X70656792Y9944657D01*
X70497927Y10103800D01*
X74395509Y10103800D01*
X74644150Y10103583D01*
X75103743Y10293484D01*
X75455681Y10644807D01*
X75646383Y11104069D01*
X75646817Y11601350D01*
X75456916Y12060943D01*
X75105593Y12412881D01*
X74646331Y12603583D01*
X74149050Y12604017D01*
X74148525Y12603800D01*
X64923490Y12603800D01*
X64674850Y12604017D01*
X64215257Y12414116D01*
X63863319Y12062793D01*
X63672617Y11603531D01*
X63672183Y11106250D01*
X61067050Y11106250D01*
X61067217Y11296550D01*
X60877316Y11756143D01*
X60525993Y12108081D01*
X60209875Y12239344D01*
X60291881Y12321207D01*
X60482583Y12780469D01*
X60483017Y13277750D01*
X60293116Y13737343D01*
X59941793Y14089281D01*
X59482531Y14279983D01*
X58985250Y14280417D01*
X58984725Y14280200D01*
X51033143Y14280200D01*
X50972610Y14320647D01*
X50848593Y14444881D01*
X50685045Y14512792D01*
X50643354Y14540649D01*
X50594605Y14550346D01*
X50389331Y14635583D01*
X50165107Y14635779D01*
X50165000Y14635800D01*
X50140690Y14635800D01*
X49892050Y14636017D01*
X49432457Y14446116D01*
X49080519Y14094793D01*
X48889817Y13635531D01*
X48889383Y13138250D01*
X38096216Y13138250D01*
X41317727Y16359761D01*
X41436211Y15764104D01*
X41815563Y15196363D01*
X42383304Y14817011D01*
X43053000Y14683800D01*
X51815306Y14683800D01*
X51943000Y14658400D01*
X52612696Y14791611D01*
X53180437Y15170963D01*
X53188057Y15178583D01*
X53567409Y15746324D01*
X53700620Y16416020D01*
X53567409Y17085716D01*
X53188057Y17653457D01*
X53170277Y17671237D01*
X52602536Y18050589D01*
X51932840Y18183800D01*
X43053000Y18183800D01*
X43031964Y18179616D01*
X43090249Y18266846D01*
X43185400Y18745200D01*
X43185400Y19328309D01*
X43185617Y19576950D01*
X42995716Y20036543D01*
X42644393Y20388481D01*
X42185131Y20579183D01*
X41687850Y20579617D01*
X41228257Y20389716D01*
X40876319Y20038393D01*
X40705520Y19627063D01*
X40557316Y19985743D01*
X40205993Y20337681D01*
X39746731Y20528383D01*
X39249450Y20528817D01*
X39248925Y20528600D01*
X37211000Y20528600D01*
X36801782Y20447201D01*
X36732646Y20433449D01*
X36327116Y20162483D01*
X29098634Y12934000D01*
X20117890Y12934000D01*
X19869250Y12934217D01*
X19409657Y12744316D01*
X19057719Y12392993D01*
X18867017Y11933731D01*
X18866583Y11436450D01*
X825000Y11436450D01*
X825000Y35052000D01*
X22598818Y35052000D01*
X22721646Y34434502D01*
X23071430Y33911012D01*
X23264511Y33782000D01*
X23071430Y33652988D01*
X22721646Y33129498D01*
X22598818Y32512000D01*
X22721646Y31894502D01*
X23071430Y31371012D01*
X23264511Y31242000D01*
X23071430Y31112988D01*
X22721646Y30589498D01*
X22598818Y29972000D01*
X22721646Y29354502D01*
X23071430Y28831012D01*
X23264511Y28702000D01*
X23071430Y28572988D01*
X22721646Y28049498D01*
X22598818Y27432000D01*
X22721646Y26814502D01*
X23071430Y26291012D01*
X23264511Y26162000D01*
X23071430Y26032988D01*
X22721646Y25509498D01*
X22598818Y24892000D01*
X22721646Y24274502D01*
X23000348Y23857394D01*
X22854802Y23763738D01*
X22683554Y23513108D01*
X22623307Y23215600D01*
X22623307Y21488400D01*
X22675604Y21210467D01*
X22839862Y20955202D01*
X23090492Y20783954D01*
X23388000Y20723707D01*
X25888000Y20723707D01*
X26165933Y20776004D01*
X26421198Y20940262D01*
X26592446Y21190892D01*
X26652693Y21488400D01*
X26652693Y23215600D01*
X26600396Y23493533D01*
X26436138Y23748798D01*
X26276138Y23858121D01*
X26554354Y24274502D01*
X26677182Y24892000D01*
X26554354Y25509498D01*
X26204570Y26032988D01*
X26011489Y26162000D01*
X26204570Y26291012D01*
X26554354Y26814502D01*
X26677182Y27432000D01*
X26554354Y28049498D01*
X26204570Y28572988D01*
X26011489Y28702000D01*
X26204570Y28831012D01*
X26554354Y29354502D01*
X26677182Y29972000D01*
X26554354Y30589498D01*
X26204570Y31112988D01*
X26011489Y31242000D01*
X26204570Y31371012D01*
X26554354Y31894502D01*
X26677182Y32512000D01*
X26554354Y33129498D01*
X26204570Y33652988D01*
X26011489Y33782000D01*
X26204570Y33911012D01*
X26554354Y34434502D01*
X26606448Y34696400D01*
X26977400Y34696400D01*
X26977400Y20167600D01*
X27110611Y19497904D01*
X27489963Y18930163D01*
X28057704Y18550811D01*
X28727400Y18417600D01*
X29397096Y18550811D01*
X29964837Y18930163D01*
X30344189Y19497904D01*
X30477400Y20167600D01*
X30477400Y30232450D01*
X44495183Y30232450D01*
X44685084Y29772857D01*
X44907461Y29550091D01*
X44775017Y29231131D01*
X44774583Y28733850D01*
X44964484Y28274257D01*
X45024800Y28213835D01*
X45024800Y26085800D01*
X45100920Y25703116D01*
X45317693Y25378693D01*
X48593946Y22102440D01*
X48645093Y22025893D01*
X48969517Y21809120D01*
X49197107Y21763850D01*
X49197107Y19735800D01*
X49249404Y19457867D01*
X49413662Y19202602D01*
X49664292Y19031354D01*
X49961800Y18971107D01*
X51689000Y18971107D01*
X51966933Y19023404D01*
X52222198Y19187662D01*
X52333672Y19350809D01*
X52747902Y19074030D01*
X53365400Y18951202D01*
X53982898Y19074030D01*
X54506388Y19423814D01*
X54635400Y19616895D01*
X54764412Y19423814D01*
X55287902Y19074030D01*
X55905400Y18951202D01*
X56522898Y19074030D01*
X57046388Y19423814D01*
X57175400Y19616895D01*
X57304412Y19423814D01*
X57827902Y19074030D01*
X58445400Y18951202D01*
X59062898Y19074030D01*
X59586388Y19423814D01*
X59936172Y19947304D01*
X60059000Y20564802D01*
X60059000Y20938798D01*
X61911800Y20938798D01*
X61911800Y20564802D01*
X62034628Y19947304D01*
X62384412Y19423814D01*
X62907902Y19074030D01*
X63525400Y18951202D01*
X64142898Y19074030D01*
X64666388Y19423814D01*
X65016172Y19947304D01*
X65139000Y20564802D01*
X65139000Y20938798D01*
X65016172Y21556296D01*
X64666388Y22079786D01*
X64142898Y22429570D01*
X63525400Y22552398D01*
X62907902Y22429570D01*
X62384412Y22079786D01*
X62034628Y21556296D01*
X61911800Y20938798D01*
X60059000Y20938798D01*
X59936172Y21556296D01*
X59626321Y22020022D01*
X59635107Y22025893D01*
X61784469Y24175256D01*
X61867950Y24175183D01*
X62327543Y24365084D01*
X62679481Y24716407D01*
X62870183Y25175669D01*
X62870617Y25672950D01*
X62680716Y26132543D01*
X62329393Y26484481D01*
X61870131Y26675183D01*
X61372850Y26675617D01*
X60913257Y26485716D01*
X60561319Y26134393D01*
X60370617Y25675131D01*
X60370542Y25589756D01*
X59412000Y24631214D01*
X59412000Y31115000D01*
X59297819Y31689025D01*
X58972660Y32175660D01*
X58486025Y32500819D01*
X57912000Y32615000D01*
X57337975Y32500819D01*
X56851340Y32175660D01*
X56526181Y31689025D01*
X56412000Y31115000D01*
X56412000Y27653814D01*
X55901307Y28164507D01*
X55576884Y28381280D01*
X55194200Y28457400D01*
X52306414Y28457400D01*
X51825400Y28938414D01*
X51825400Y35325429D01*
X51884481Y35384407D01*
X52075183Y35843669D01*
X52075617Y36340950D01*
X51885716Y36800543D01*
X51534393Y37152481D01*
X51075131Y37343183D01*
X50577850Y37343617D01*
X50118257Y37153716D01*
X49766319Y36802393D01*
X49575617Y36343131D01*
X49575183Y35845850D01*
X49765084Y35386257D01*
X49825400Y35325835D01*
X49825400Y28524200D01*
X49901520Y28141516D01*
X50118293Y27817093D01*
X50773386Y27162000D01*
X49639414Y27162000D01*
X48294800Y28506614D01*
X48294800Y29895795D01*
X48294801Y29895800D01*
X48218680Y30278484D01*
X48038060Y30548800D01*
X48001907Y30602907D01*
X48001904Y30602909D01*
X47417707Y31187107D01*
X47093284Y31403880D01*
X46710600Y31480000D01*
X46513371Y31480000D01*
X46454393Y31539081D01*
X45995131Y31729783D01*
X45497850Y31730217D01*
X45038257Y31540316D01*
X44686319Y31188993D01*
X44495617Y30729731D01*
X44495183Y30232450D01*
X30477400Y30232450D01*
X30477400Y33971526D01*
X31946037Y35440163D01*
X32325389Y36007904D01*
X32458600Y36677600D01*
X32325389Y37347296D01*
X31946037Y37915037D01*
X31378296Y38294389D01*
X30708600Y38427600D01*
X30038904Y38294389D01*
X29471163Y37915037D01*
X27489963Y35933837D01*
X27110611Y35366096D01*
X26977400Y34696400D01*
X26606448Y34696400D01*
X26677182Y35052000D01*
X26554354Y35669498D01*
X26204570Y36192988D01*
X25681080Y36542772D01*
X25063582Y36665600D01*
X24212418Y36665600D01*
X23594920Y36542772D01*
X23071430Y36192988D01*
X22721646Y35669498D01*
X22598818Y35052000D01*
X825000Y35052000D01*
X825000Y41015600D01*
X22623307Y41015600D01*
X22623307Y39288400D01*
X22675604Y39010467D01*
X22839862Y38755202D01*
X23090492Y38583954D01*
X23388000Y38523707D01*
X25888000Y38523707D01*
X26165933Y38576004D01*
X26421198Y38740262D01*
X26592446Y38990892D01*
X26652693Y39288400D01*
X26652693Y41015600D01*
X26600396Y41293533D01*
X26436138Y41548798D01*
X26185508Y41720046D01*
X25888000Y41780293D01*
X23388000Y41780293D01*
X23110067Y41727996D01*
X22854802Y41563738D01*
X22683554Y41313108D01*
X22623307Y41015600D01*
X825000Y41015600D01*
X825000Y44747500D01*
X5097307Y44747500D01*
X5097307Y42247500D01*
X5149604Y41969567D01*
X5313862Y41714302D01*
X5564492Y41543054D01*
X5862000Y41482807D01*
X8362000Y41482807D01*
X8639933Y41535104D01*
X8895198Y41699362D01*
X9066446Y41949992D01*
X9126693Y42247500D01*
X9126693Y44747500D01*
X9074396Y45025433D01*
X8910138Y45280698D01*
X8659508Y45451946D01*
X8362000Y45512193D01*
X5862000Y45512193D01*
X5584067Y45459896D01*
X5328802Y45295638D01*
X5157554Y45045008D01*
X5097307Y44747500D01*
X825000Y44747500D01*
X825000Y53688321D01*
X5137054Y53688321D01*
X5440894Y52952971D01*
X6003012Y52389871D01*
X6737830Y52084748D01*
X7533479Y52084054D01*
X8268829Y52387894D01*
X8831929Y52950012D01*
X9137052Y53684830D01*
X9137746Y54480479D01*
X8833906Y55215829D01*
X8271788Y55778929D01*
X7536970Y56084052D01*
X6741321Y56084746D01*
X6005971Y55780906D01*
X5442871Y55218788D01*
X5137748Y54483970D01*
X5137054Y53688321D01*
X825000Y53688321D01*
X825000Y72758937D01*
X4320323Y72758937D01*
X4563395Y72170657D01*
X5013089Y71720177D01*
X5600944Y71476078D01*
X6237463Y71475523D01*
X6825743Y71718595D01*
X7276223Y72168289D01*
X7520322Y72756144D01*
X7520877Y73392663D01*
X7277805Y73980943D01*
X6828111Y74431423D01*
X6240256Y74675522D01*
X5603737Y74676077D01*
X5015457Y74433005D01*
X4564977Y73983311D01*
X4320878Y73395456D01*
X4320323Y72758937D01*
X825000Y72758937D01*
X825000Y76671176D01*
X947092Y76587754D01*
X1244600Y76527507D01*
X3276600Y76527507D01*
X3554533Y76579804D01*
X3809798Y76744062D01*
X3981046Y76994692D01*
X4041293Y77292200D01*
X4041293Y79019400D01*
X3988996Y79297333D01*
X3824738Y79552598D01*
X3661591Y79664072D01*
X3938370Y80078302D01*
X4061198Y80695800D01*
X3938370Y81313298D01*
X3588586Y81836788D01*
X3395505Y81965800D01*
X3588586Y82094812D01*
X3938370Y82618302D01*
X4061198Y83235800D01*
X3938370Y83853298D01*
X3588586Y84376788D01*
X3395505Y84505800D01*
X3588586Y84634812D01*
X3938370Y85158302D01*
X4061198Y85775800D01*
X3938370Y86393298D01*
X3588586Y86916788D01*
X3065096Y87266572D01*
X2447598Y87389400D01*
X2073602Y87389400D01*
X1456104Y87266572D01*
X932614Y86916788D01*
X825000Y86755732D01*
X825000Y87998937D01*
X4320323Y87998937D01*
X4563395Y87410657D01*
X4927857Y87045558D01*
X4564977Y86683311D01*
X4320878Y86095456D01*
X4320323Y85458937D01*
X4563395Y84870657D01*
X4927857Y84505558D01*
X4564977Y84143311D01*
X4320878Y83555456D01*
X4320323Y82918937D01*
X4563395Y82330657D01*
X4927857Y81965558D01*
X4564977Y81603311D01*
X4320878Y81015456D01*
X4320323Y80378937D01*
X4563395Y79790657D01*
X4927857Y79425558D01*
X4564977Y79063311D01*
X4320878Y78475456D01*
X4320323Y77838937D01*
X4563395Y77250657D01*
X5013089Y76800177D01*
X5600944Y76556078D01*
X6237463Y76555523D01*
X6825743Y76798595D01*
X7276223Y77248289D01*
X7520322Y77836144D01*
X7520877Y78472663D01*
X7277805Y79060943D01*
X6913343Y79426042D01*
X7276223Y79788289D01*
X7520322Y80376144D01*
X7520877Y81012663D01*
X7277805Y81600943D01*
X6913343Y81966042D01*
X7276223Y82328289D01*
X7520322Y82916144D01*
X7520877Y83552663D01*
X7277805Y84140943D01*
X6913343Y84506042D01*
X7276223Y84868289D01*
X7520322Y85456144D01*
X7520877Y86092663D01*
X7277805Y86680943D01*
X6913343Y87046042D01*
X7276223Y87408289D01*
X7520322Y87996144D01*
X7520877Y88632663D01*
X7277805Y89220943D01*
X6828111Y89671423D01*
X6240256Y89915522D01*
X5603737Y89916077D01*
X5015457Y89673005D01*
X4564977Y89223311D01*
X4320878Y88635456D01*
X4320323Y87998937D01*
X825000Y87998937D01*
X825000Y98178125D01*
X5583229Y98178125D01*
X5811582Y97625469D01*
X5836600Y97600407D01*
X5836600Y95580200D01*
X5917184Y95175081D01*
X5931751Y95101846D01*
X6202717Y94696317D01*
X8691916Y92207117D01*
X8930076Y92047984D01*
X9097446Y91936151D01*
X9575800Y91841000D01*
X17492802Y91841000D01*
X17414977Y91763311D01*
X17170878Y91175456D01*
X17170323Y90538937D01*
X17413395Y89950657D01*
X17777857Y89585558D01*
X17414977Y89223311D01*
X17170878Y88635456D01*
X17170323Y87998937D01*
X17413395Y87410657D01*
X17777857Y87045558D01*
X17414977Y86683311D01*
X17170878Y86095456D01*
X17170323Y85458937D01*
X17413395Y84870657D01*
X17777857Y84505558D01*
X17414977Y84143311D01*
X17170878Y83555456D01*
X17170323Y82918937D01*
X17413395Y82330657D01*
X17777857Y81965558D01*
X17414977Y81603311D01*
X17170878Y81015456D01*
X17170323Y80378937D01*
X17413395Y79790657D01*
X17777857Y79425558D01*
X17414977Y79063311D01*
X17170878Y78475456D01*
X17170323Y77838937D01*
X17413395Y77250657D01*
X17777857Y76885558D01*
X17758065Y76865800D01*
X17357967Y76865800D01*
X14686600Y79537166D01*
X14686600Y82226348D01*
X14927372Y82586690D01*
X15050200Y83204188D01*
X15050200Y83267412D01*
X14927372Y83884910D01*
X14577588Y84408400D01*
X14431818Y84505800D01*
X14577588Y84603200D01*
X14927372Y85126690D01*
X15050200Y85744188D01*
X15050200Y85807412D01*
X14927372Y86424910D01*
X14675223Y86802279D01*
X14833398Y86904062D01*
X15004646Y87154692D01*
X15064893Y87452200D01*
X15064893Y89179400D01*
X15012596Y89457333D01*
X14848338Y89712598D01*
X14597708Y89883846D01*
X14300200Y89944093D01*
X12573000Y89944093D01*
X12295067Y89891796D01*
X12039802Y89727538D01*
X11926928Y89562341D01*
X11514098Y89838184D01*
X10896600Y89961012D01*
X10279102Y89838184D01*
X9755612Y89488400D01*
X9405828Y88964910D01*
X9283000Y88347412D01*
X9283000Y88284188D01*
X9405828Y87666690D01*
X9755612Y87143200D01*
X9901382Y87045800D01*
X9755612Y86948400D01*
X9405828Y86424910D01*
X9283000Y85807412D01*
X9283000Y85744188D01*
X9405828Y85126690D01*
X9755612Y84603200D01*
X9901382Y84505800D01*
X9755612Y84408400D01*
X9405828Y83884910D01*
X9283000Y83267412D01*
X9283000Y83204188D01*
X9396600Y82633082D01*
X9396600Y73101200D01*
X9510781Y72527175D01*
X9835940Y72040540D01*
X13892400Y67984080D01*
X13892400Y46228000D01*
X14006581Y45653975D01*
X14331740Y45167340D01*
X14818375Y44842181D01*
X15392400Y44728000D01*
X15966425Y44842181D01*
X16453060Y45167340D01*
X16778219Y45653975D01*
X16892400Y46228000D01*
X16892400Y57932000D01*
X22598818Y57932000D01*
X22721646Y57314502D01*
X23071430Y56791012D01*
X23264511Y56662000D01*
X23071430Y56532988D01*
X22721646Y56009498D01*
X22598818Y55392000D01*
X22721646Y54774502D01*
X23071430Y54251012D01*
X23264511Y54122000D01*
X23071430Y53992988D01*
X22721646Y53469498D01*
X22598818Y52852000D01*
X22721646Y52234502D01*
X23071430Y51711012D01*
X23264511Y51582000D01*
X23071430Y51452988D01*
X22721646Y50929498D01*
X22598818Y50312000D01*
X22721646Y49694502D01*
X23071430Y49171012D01*
X23264511Y49042000D01*
X23071430Y48912988D01*
X22721646Y48389498D01*
X22598818Y47772000D01*
X22721646Y47154502D01*
X23071430Y46631012D01*
X23594920Y46281228D01*
X24212418Y46158400D01*
X25063582Y46158400D01*
X25681080Y46281228D01*
X26204570Y46631012D01*
X26554354Y47154502D01*
X26677182Y47772000D01*
X26554354Y48389498D01*
X26204570Y48912988D01*
X26011489Y49042000D01*
X26204570Y49171012D01*
X26554354Y49694502D01*
X26677182Y50312000D01*
X26554354Y50929498D01*
X26204570Y51452988D01*
X26011489Y51582000D01*
X26204570Y51711012D01*
X26554354Y52234502D01*
X26677182Y52852000D01*
X26587565Y53302537D01*
X30888723Y53302537D01*
X31131795Y52714257D01*
X31581489Y52263777D01*
X32169344Y52019678D01*
X32805863Y52019123D01*
X33394143Y52262195D01*
X33844623Y52711889D01*
X34088722Y53299744D01*
X34089277Y53936263D01*
X33846205Y54524543D01*
X33396511Y54975023D01*
X32808656Y55219122D01*
X32172137Y55219677D01*
X31583857Y54976605D01*
X31133377Y54526911D01*
X30889278Y53939056D01*
X30888723Y53302537D01*
X26587565Y53302537D01*
X26554354Y53469498D01*
X26204570Y53992988D01*
X26011489Y54122000D01*
X26204570Y54251012D01*
X26554354Y54774502D01*
X26677182Y55392000D01*
X26554354Y56009498D01*
X26204570Y56532988D01*
X26011489Y56662000D01*
X26204570Y56791012D01*
X26554354Y57314502D01*
X26677182Y57932000D01*
X26554354Y58549498D01*
X26204570Y59072988D01*
X25681080Y59422772D01*
X25063582Y59545600D01*
X24212418Y59545600D01*
X23594920Y59422772D01*
X23071430Y59072988D01*
X22721646Y58549498D01*
X22598818Y57932000D01*
X16892400Y57932000D01*
X16892400Y67359400D01*
X27433536Y67359400D01*
X27151230Y66936898D01*
X27028402Y66319400D01*
X27151230Y65701902D01*
X27501014Y65178412D01*
X27694095Y65049400D01*
X27501014Y64920388D01*
X27151230Y64396898D01*
X27028402Y63779400D01*
X27151230Y63161902D01*
X27501014Y62638412D01*
X27694095Y62509400D01*
X27501014Y62380388D01*
X27151230Y61856898D01*
X27028402Y61239400D01*
X27151230Y60621902D01*
X27428554Y60206857D01*
X27279802Y60111138D01*
X27108554Y59860508D01*
X27048307Y59563000D01*
X27048307Y57835800D01*
X27100604Y57557867D01*
X27264862Y57302602D01*
X27515492Y57131354D01*
X27813000Y57071107D01*
X29845000Y57071107D01*
X30122933Y57123404D01*
X30378198Y57287662D01*
X30549446Y57538292D01*
X30609693Y57835800D01*
X30609693Y59563000D01*
X30557396Y59840933D01*
X30393138Y60096198D01*
X30229991Y60207672D01*
X30506770Y60621902D01*
X30629598Y61239400D01*
X30506770Y61856898D01*
X30156986Y62380388D01*
X29963905Y62509400D01*
X30156986Y62638412D01*
X30506770Y63161902D01*
X30629598Y63779400D01*
X30506770Y64396898D01*
X30156986Y64920388D01*
X29963905Y65049400D01*
X30156986Y65178412D01*
X30506770Y65701902D01*
X30629598Y66319400D01*
X30506770Y66936898D01*
X30224464Y67359400D01*
X31266098Y67359400D01*
X31133377Y67226911D01*
X30889278Y66639056D01*
X30888723Y66002537D01*
X31131795Y65414257D01*
X31496257Y65049158D01*
X31133377Y64686911D01*
X30889278Y64099056D01*
X30888723Y63462537D01*
X31131795Y62874257D01*
X31496257Y62509158D01*
X31133377Y62146911D01*
X30889278Y61559056D01*
X30888723Y60922537D01*
X31131795Y60334257D01*
X31496257Y59969158D01*
X31133377Y59606911D01*
X30889278Y59019056D01*
X30888723Y58382537D01*
X31131795Y57794257D01*
X31581489Y57343777D01*
X32169344Y57099678D01*
X32805863Y57099123D01*
X33394143Y57342195D01*
X33844623Y57791889D01*
X34088722Y58379744D01*
X34089277Y59016263D01*
X33846205Y59604543D01*
X33481743Y59969642D01*
X33844623Y60331889D01*
X34088722Y60919744D01*
X34089277Y61556263D01*
X33846205Y62144543D01*
X33481743Y62509642D01*
X33844623Y62871889D01*
X34088722Y63459744D01*
X34089277Y64096263D01*
X33846205Y64684543D01*
X33481743Y65049642D01*
X33844623Y65411889D01*
X34088722Y65999744D01*
X34089277Y66636263D01*
X33846205Y67224543D01*
X33481743Y67589642D01*
X33844623Y67951889D01*
X34088722Y68539744D01*
X34089277Y69176263D01*
X33846205Y69764543D01*
X33396511Y70215023D01*
X32808656Y70459122D01*
X32172137Y70459677D01*
X31929448Y70359400D01*
X15759720Y70359400D01*
X12396600Y73722520D01*
X12396600Y78369162D01*
X12552717Y78135517D01*
X15956316Y74731917D01*
X16342410Y74473938D01*
X16361846Y74460951D01*
X16840200Y74365800D01*
X17313515Y74365800D01*
X17216154Y74223308D01*
X17155907Y73925800D01*
X17155907Y72225800D01*
X17208204Y71947867D01*
X17372462Y71692602D01*
X17623092Y71521354D01*
X17920600Y71461107D01*
X19620600Y71461107D01*
X19898533Y71513404D01*
X20153798Y71677662D01*
X20264771Y71840076D01*
X20671354Y71920951D01*
X21076883Y72191917D01*
X22321483Y73436516D01*
X22321485Y73436519D01*
X24993600Y76108634D01*
X28529316Y72572917D01*
X28879099Y72339200D01*
X28934846Y72301951D01*
X29413200Y72206800D01*
X41218800Y72206800D01*
X41218800Y70348055D01*
X41102608Y70427446D01*
X40805100Y70487693D01*
X39077900Y70487693D01*
X38799967Y70435396D01*
X38544702Y70271138D01*
X38431828Y70105941D01*
X38018998Y70381784D01*
X37401500Y70504612D01*
X36784002Y70381784D01*
X36260512Y70032000D01*
X35910728Y69508510D01*
X35787900Y68891012D01*
X35787900Y68827788D01*
X35910728Y68210290D01*
X36260512Y67686800D01*
X36406282Y67589400D01*
X36260512Y67492000D01*
X35910728Y66968510D01*
X35787900Y66351012D01*
X35787900Y66287788D01*
X35910728Y65670290D01*
X36260512Y65146800D01*
X36406282Y65049400D01*
X36260512Y64952000D01*
X35910728Y64428510D01*
X35787900Y63811012D01*
X35787900Y63747788D01*
X35910728Y63130290D01*
X36260512Y62606800D01*
X36784002Y62257016D01*
X37401500Y62134188D01*
X38018998Y62257016D01*
X38542488Y62606800D01*
X38671500Y62799881D01*
X38691500Y62769948D01*
X38691500Y57162700D01*
X38773183Y56752054D01*
X38786651Y56684346D01*
X39057617Y56278817D01*
X40416517Y54919916D01*
X40798187Y54664893D01*
X40822046Y54648951D01*
X41300400Y54553800D01*
X43154600Y54553800D01*
X43632954Y54648951D01*
X43780652Y54747640D01*
X43724307Y54469400D01*
X43724307Y52769400D01*
X43776604Y52491467D01*
X43940862Y52236202D01*
X44191492Y52064954D01*
X44489000Y52004707D01*
X45966600Y52004707D01*
X45966600Y51773990D01*
X42790905Y48598295D01*
X42547036Y48233319D01*
X42461400Y47802800D01*
X42461400Y46334808D01*
X41992650Y46335217D01*
X41992125Y46335000D01*
X40843200Y46335000D01*
X40408986Y46248629D01*
X40364846Y46239849D01*
X39959316Y45968883D01*
X38867117Y44876683D01*
X38596151Y44471154D01*
X38501000Y43992800D01*
X38501000Y39929890D01*
X38500783Y39681250D01*
X38690684Y39221657D01*
X39042007Y38869719D01*
X39501269Y38679017D01*
X39998550Y38678583D01*
X40458143Y38868484D01*
X40810081Y39219807D01*
X41000783Y39679069D01*
X41001217Y40176350D01*
X41001000Y40176875D01*
X41001000Y43475034D01*
X41360967Y43835000D01*
X42239109Y43835000D01*
X42336594Y43834915D01*
X42336183Y43364250D01*
X42526084Y42904657D01*
X42872960Y42557174D01*
X42764120Y42394284D01*
X42734923Y42247500D01*
X42688000Y42011600D01*
X42688000Y41300400D01*
X42764120Y40917716D01*
X42980893Y40593293D01*
X43246800Y40327386D01*
X43246800Y36150171D01*
X43187719Y36091193D01*
X42997017Y35631931D01*
X42996583Y35134650D01*
X43186484Y34675057D01*
X43537807Y34323119D01*
X43997069Y34132417D01*
X44494350Y34131983D01*
X44953943Y34321884D01*
X45305881Y34673207D01*
X45496583Y35132469D01*
X45497017Y35629750D01*
X45307116Y36089343D01*
X45246800Y36149765D01*
X45246800Y38555986D01*
X46756077Y37046709D01*
X46755783Y36709450D01*
X46945684Y36249857D01*
X47297007Y35897919D01*
X47756269Y35707217D01*
X48253550Y35706783D01*
X48713143Y35896684D01*
X49065081Y36248007D01*
X49255783Y36707269D01*
X49256217Y37204550D01*
X49066316Y37664143D01*
X48714993Y38016081D01*
X48544222Y38086991D01*
X46339000Y40292214D01*
X46339000Y40304502D01*
X46704150Y40304183D01*
X47163743Y40494084D01*
X47515681Y40845407D01*
X47661855Y41197433D01*
X47754207Y41104919D01*
X48213469Y40914217D01*
X48298844Y40914142D01*
X49686493Y39526493D01*
X50010916Y39309720D01*
X50393600Y39233600D01*
X54350029Y39233600D01*
X54409007Y39174519D01*
X54868269Y38983817D01*
X55365550Y38983383D01*
X55825143Y39173284D01*
X56177081Y39524607D01*
X56367783Y39983869D01*
X56368217Y40481150D01*
X56178316Y40940743D01*
X55826993Y41292681D01*
X55367731Y41483383D01*
X54870450Y41483817D01*
X54410857Y41293916D01*
X54350435Y41233600D01*
X50807814Y41233600D01*
X49713344Y42328070D01*
X49713417Y42411550D01*
X49588694Y42713400D01*
X54400829Y42713400D01*
X54459807Y42654319D01*
X54919069Y42463617D01*
X55416350Y42463183D01*
X55875943Y42653084D01*
X56227881Y43004407D01*
X56418583Y43463669D01*
X56419017Y43960950D01*
X56229116Y44420543D01*
X55877793Y44772481D01*
X55418531Y44963183D01*
X54921250Y44963617D01*
X54461657Y44773716D01*
X54401235Y44713400D01*
X47804014Y44713400D01*
X56624414Y53533800D01*
X59123386Y53533800D01*
X61589456Y51067730D01*
X61589383Y50984250D01*
X61779284Y50524657D01*
X62022116Y50281400D01*
X61265495Y50281400D01*
X61137800Y50306800D01*
X60276762Y50135529D01*
X59546810Y49647790D01*
X59059071Y48917838D01*
X58887800Y48056800D01*
X59059071Y47195762D01*
X59546810Y46465810D01*
X59572210Y46440410D01*
X60302162Y45952671D01*
X60944113Y45824979D01*
X61040271Y45341562D01*
X61528010Y44611610D01*
X62257962Y44123871D01*
X63119000Y43952600D01*
X63980038Y44123871D01*
X64709990Y44611610D01*
X65197729Y45341562D01*
X65285218Y45781400D01*
X65938400Y45781400D01*
X66799438Y45952671D01*
X67529390Y46440410D01*
X70424990Y49336010D01*
X70591264Y49584857D01*
X70912729Y50065962D01*
X71084000Y50927000D01*
X71084000Y67556000D01*
X71098818Y67556000D01*
X71221646Y66938502D01*
X71571430Y66415012D01*
X71764511Y66286000D01*
X71571430Y66156988D01*
X71221646Y65633498D01*
X71098818Y65016000D01*
X71221646Y64398502D01*
X71571430Y63875012D01*
X71764511Y63746000D01*
X71571430Y63616988D01*
X71221646Y63093498D01*
X71098818Y62476000D01*
X71221646Y61858502D01*
X71571430Y61335012D01*
X72094920Y60985228D01*
X72712418Y60862400D01*
X73563582Y60862400D01*
X74181080Y60985228D01*
X74704570Y61335012D01*
X75054354Y61858502D01*
X75177182Y62476000D01*
X75054354Y63093498D01*
X74704570Y63616988D01*
X74511489Y63746000D01*
X74704570Y63875012D01*
X75054354Y64398502D01*
X75177182Y65016000D01*
X75054354Y65633498D01*
X74704570Y66156988D01*
X74511489Y66286000D01*
X74704570Y66415012D01*
X75054354Y66938502D01*
X75177182Y67556000D01*
X75054354Y68173498D01*
X74704570Y68696988D01*
X74181080Y69046772D01*
X73563582Y69169600D01*
X72712418Y69169600D01*
X72094920Y69046772D01*
X71571430Y68696988D01*
X71221646Y68173498D01*
X71098818Y67556000D01*
X71084000Y67556000D01*
X71084000Y71645485D01*
X71374000Y71587800D01*
X71577200Y71587800D01*
X72438238Y71759071D01*
X73168190Y72246810D01*
X73655929Y72976762D01*
X73827200Y73837800D01*
X73655929Y74698838D01*
X73566967Y74831979D01*
X73588069Y74823217D01*
X74064703Y74822801D01*
X74123684Y74680057D01*
X74475007Y74328119D01*
X74934269Y74137417D01*
X75431550Y74136983D01*
X75891143Y74326884D01*
X76034731Y74470221D01*
X76049807Y74455119D01*
X76509069Y74264417D01*
X76901800Y74264074D01*
X76901800Y57030814D01*
X75950093Y56079107D01*
X75733320Y55754684D01*
X75669190Y55432279D01*
X75657200Y55372000D01*
X75657200Y53678014D01*
X75295186Y53316000D01*
X74798775Y53316000D01*
X74704570Y53456988D01*
X74511489Y53586000D01*
X74704570Y53715012D01*
X75054354Y54238502D01*
X75177182Y54856000D01*
X75054354Y55473498D01*
X74704570Y55996988D01*
X74511489Y56126000D01*
X74704570Y56255012D01*
X75054354Y56778502D01*
X75177182Y57396000D01*
X75054354Y58013498D01*
X74704570Y58536988D01*
X74181080Y58886772D01*
X73563582Y59009600D01*
X72712418Y59009600D01*
X72094920Y58886772D01*
X71571430Y58536988D01*
X71221646Y58013498D01*
X71098818Y57396000D01*
X71221646Y56778502D01*
X71571430Y56255012D01*
X71764511Y56126000D01*
X71571430Y55996988D01*
X71221646Y55473498D01*
X71098818Y54856000D01*
X71221646Y54238502D01*
X71571430Y53715012D01*
X71764511Y53586000D01*
X71571430Y53456988D01*
X71221646Y52933498D01*
X71098818Y52316000D01*
X71221646Y51698502D01*
X71571430Y51175012D01*
X71764511Y51046000D01*
X71571430Y50916988D01*
X71221646Y50393498D01*
X71098818Y49776000D01*
X71221646Y49158502D01*
X71571430Y48635012D01*
X71764511Y48506000D01*
X71571430Y48376988D01*
X71221646Y47853498D01*
X71098818Y47236000D01*
X71221646Y46618502D01*
X71500348Y46201394D01*
X71354802Y46107738D01*
X71183554Y45857108D01*
X71123307Y45559600D01*
X71123307Y43832400D01*
X71175604Y43554467D01*
X71339862Y43299202D01*
X71590492Y43127954D01*
X71888000Y43067707D01*
X74388000Y43067707D01*
X74665933Y43120004D01*
X74921198Y43284262D01*
X75092446Y43534892D01*
X75152693Y43832400D01*
X75152693Y45559600D01*
X75100396Y45837533D01*
X74936138Y46092798D01*
X74776138Y46202121D01*
X74798775Y46236000D01*
X77716000Y46236000D01*
X78098684Y46312120D01*
X78423107Y46528893D01*
X78629000Y46734786D01*
X78629000Y42121013D01*
X77639986Y41132000D01*
X74798775Y41132000D01*
X74704570Y41272988D01*
X74181080Y41622772D01*
X73563582Y41745600D01*
X72712418Y41745600D01*
X72094920Y41622772D01*
X71571430Y41272988D01*
X71221646Y40749498D01*
X71098818Y40132000D01*
X71221646Y39514502D01*
X71571430Y38991012D01*
X71764511Y38862000D01*
X71571430Y38732988D01*
X71221646Y38209498D01*
X71098818Y37592000D01*
X71221646Y36974502D01*
X71571430Y36451012D01*
X71764511Y36322000D01*
X71571430Y36192988D01*
X71221646Y35669498D01*
X71098818Y35052000D01*
X71221646Y34434502D01*
X71571430Y33911012D01*
X71764511Y33782000D01*
X71571430Y33652988D01*
X71221646Y33129498D01*
X71098818Y32512000D01*
X71221646Y31894502D01*
X71571430Y31371012D01*
X71764511Y31242000D01*
X71571430Y31112988D01*
X71221646Y30589498D01*
X71098818Y29972000D01*
X71221646Y29354502D01*
X71571430Y28831012D01*
X71764511Y28702000D01*
X71571430Y28572988D01*
X71221646Y28049498D01*
X71098818Y27432000D01*
X71221646Y26814502D01*
X71571430Y26291012D01*
X71764511Y26162000D01*
X71571430Y26032988D01*
X71221646Y25509498D01*
X71098818Y24892000D01*
X71221646Y24274502D01*
X71500348Y23857394D01*
X71354802Y23763738D01*
X71183554Y23513108D01*
X71123307Y23215600D01*
X71123307Y21488400D01*
X71175604Y21210467D01*
X71339862Y20955202D01*
X71590492Y20783954D01*
X71888000Y20723707D01*
X74388000Y20723707D01*
X74665933Y20776004D01*
X74921198Y20940262D01*
X75092446Y21190892D01*
X75152693Y21488400D01*
X75152693Y23215600D01*
X75100396Y23493533D01*
X74936138Y23748798D01*
X74776138Y23858121D01*
X75054354Y24274502D01*
X75177182Y24892000D01*
X75054354Y25509498D01*
X74704570Y26032988D01*
X74511489Y26162000D01*
X74704570Y26291012D01*
X75054354Y26814502D01*
X75177182Y27432000D01*
X75054354Y28049498D01*
X74704570Y28572988D01*
X74511489Y28702000D01*
X74704570Y28831012D01*
X74798775Y28972000D01*
X81813400Y28972000D01*
X82196084Y29048120D01*
X82520507Y29264893D01*
X83789200Y30533586D01*
X83789200Y27263966D01*
X82072517Y25547283D01*
X82021553Y25471010D01*
X81897319Y25346993D01*
X81829408Y25183445D01*
X81801551Y25141754D01*
X81791854Y25093005D01*
X81706617Y24887731D01*
X81706421Y24663507D01*
X81706400Y24663400D01*
X81706400Y24639090D01*
X81706183Y24390450D01*
X81896084Y23930857D01*
X82247407Y23578919D01*
X82706669Y23388217D01*
X83203950Y23387783D01*
X83663543Y23577684D01*
X84015481Y23929007D01*
X84033736Y23972970D01*
X85660383Y25599617D01*
X85936080Y25323438D01*
X85518268Y24906355D01*
X85288951Y24354099D01*
X85288429Y23756125D01*
X85516782Y23203469D01*
X85936080Y22783438D01*
X85518268Y22366355D01*
X85288951Y21814099D01*
X85288429Y21216125D01*
X85516782Y20663469D01*
X85939245Y20240268D01*
X86491501Y20010951D01*
X87089475Y20010429D01*
X87642131Y20238782D01*
X88065332Y20661245D01*
X88294649Y21213501D01*
X88295171Y21811475D01*
X88066818Y22364131D01*
X87647520Y22784162D01*
X88065332Y23201245D01*
X88294649Y23753501D01*
X88295171Y24351475D01*
X88066818Y24904131D01*
X87647520Y25324162D01*
X88065332Y25741245D01*
X88294649Y26293501D01*
X88295171Y26891475D01*
X88066818Y27444131D01*
X87647520Y27864162D01*
X88065332Y28281245D01*
X88294649Y28833501D01*
X88295171Y29431475D01*
X88066818Y29984131D01*
X87647520Y30404162D01*
X88065332Y30821245D01*
X88294649Y31373501D01*
X88295171Y31971475D01*
X88066818Y32524131D01*
X87916800Y32674411D01*
X87916800Y40259000D01*
X87831164Y40689519D01*
X87587295Y41054495D01*
X87346125Y41295665D01*
X87591331Y41396982D01*
X88014532Y41819445D01*
X88243849Y42371701D01*
X88244371Y42969675D01*
X88016018Y43522331D01*
X87596720Y43942362D01*
X88014532Y44359445D01*
X88243849Y44911701D01*
X88244371Y45509675D01*
X88016018Y46062331D01*
X87596720Y46482362D01*
X88014532Y46899445D01*
X88243849Y47451701D01*
X88244371Y48049675D01*
X88016018Y48602331D01*
X87596720Y49022362D01*
X88014532Y49439445D01*
X88243849Y49991701D01*
X88244371Y50589675D01*
X88016018Y51142331D01*
X87596720Y51562362D01*
X88014532Y51979445D01*
X88243849Y52531701D01*
X88244371Y53129675D01*
X88016018Y53682331D01*
X87866000Y53832611D01*
X87866000Y56684010D01*
X92133895Y60951905D01*
X92377764Y61316881D01*
X92463400Y61747400D01*
X92463400Y75776758D01*
X92588183Y76077269D01*
X92588617Y76574550D01*
X92398716Y77034143D01*
X92047393Y77386081D01*
X91588131Y77576783D01*
X91090850Y77577217D01*
X90631257Y77387316D01*
X90279319Y77035993D01*
X90088617Y76576731D01*
X90088183Y76079450D01*
X90213400Y75776403D01*
X90213400Y62213390D01*
X86115400Y58115390D01*
X86115400Y62335428D01*
X86440701Y62200351D01*
X87038675Y62199829D01*
X87591331Y62428182D01*
X88014532Y62850645D01*
X88243849Y63402901D01*
X88244371Y64000875D01*
X88016018Y64553531D01*
X87596720Y64973562D01*
X88014532Y65390645D01*
X88243849Y65942901D01*
X88244371Y66540875D01*
X88016018Y67093531D01*
X87596720Y67513562D01*
X88014532Y67930645D01*
X88243849Y68482901D01*
X88244371Y69080875D01*
X88016018Y69633531D01*
X87596720Y70053562D01*
X88014532Y70470645D01*
X88243849Y71022901D01*
X88244371Y71620875D01*
X88016018Y72173531D01*
X87596720Y72593562D01*
X88014532Y73010645D01*
X88243849Y73562901D01*
X88244371Y74160875D01*
X88016018Y74713531D01*
X87593555Y75136732D01*
X87041299Y75366049D01*
X86443325Y75366571D01*
X86301272Y75307876D01*
X86175716Y75611743D01*
X85824393Y75963681D01*
X85365131Y76154383D01*
X85099400Y76154615D01*
X85099400Y76803629D01*
X85158481Y76862607D01*
X85349183Y77321869D01*
X85349617Y77819150D01*
X85159716Y78278743D01*
X85099400Y78339165D01*
X85099400Y80538213D01*
X85591550Y80537783D01*
X85592075Y80538000D01*
X88924309Y80538000D01*
X89172950Y80537783D01*
X89632543Y80727684D01*
X89984481Y81079007D01*
X90175183Y81538269D01*
X90175617Y82035550D01*
X89985716Y82495143D01*
X89634393Y82847081D01*
X89175131Y83037783D01*
X88869640Y83038050D01*
X89146281Y83314207D01*
X89336983Y83773469D01*
X89337417Y84270750D01*
X89147516Y84730343D01*
X88796193Y85082281D01*
X88336931Y85272983D01*
X87839650Y85273417D01*
X87380057Y85083516D01*
X87319635Y85023200D01*
X85140800Y85023200D01*
X84758116Y84947080D01*
X84433693Y84730307D01*
X83392293Y83688907D01*
X83175520Y83364484D01*
X83110557Y83037889D01*
X82734250Y83038217D01*
X82274657Y82848316D01*
X81922719Y82496993D01*
X81737091Y82049950D01*
X81663036Y81939119D01*
X81577400Y81508600D01*
X81577400Y79913697D01*
X81210250Y79914017D01*
X80750657Y79724116D01*
X80398719Y79372793D01*
X80208017Y78913531D01*
X80207942Y78828156D01*
X79943200Y78563414D01*
X79943200Y79165829D01*
X80002281Y79224807D01*
X80192983Y79684069D01*
X80193417Y80181350D01*
X80003516Y80640943D01*
X79652193Y80992881D01*
X79192931Y81183583D01*
X78901800Y81183837D01*
X78901800Y83591395D01*
X78901801Y83591400D01*
X78825680Y83974084D01*
X78699984Y84162200D01*
X78608907Y84298507D01*
X78608904Y84298509D01*
X74001074Y88906340D01*
X74230623Y89135489D01*
X74474722Y89723344D01*
X74475277Y90359863D01*
X74232205Y90948143D01*
X73782511Y91398623D01*
X73194656Y91642722D01*
X72558137Y91643277D01*
X71969857Y91400205D01*
X71519377Y90950511D01*
X71275278Y90362656D01*
X71274723Y89726137D01*
X71465261Y89265000D01*
X69551990Y89265000D01*
X65819495Y92997495D01*
X65764879Y93033988D01*
X65454519Y93241364D01*
X65024000Y93327000D01*
X61891242Y93327000D01*
X61590731Y93451783D01*
X61093450Y93452217D01*
X61088400Y93450130D01*
X61088400Y102743000D01*
X67414402Y102743000D01*
X67537230Y102125502D01*
X67887014Y101602012D01*
X68080095Y101473000D01*
X67887014Y101343988D01*
X67537230Y100820498D01*
X67414402Y100203000D01*
X67537230Y99585502D01*
X67887014Y99062012D01*
X68080095Y98933000D01*
X67887014Y98803988D01*
X67537230Y98280498D01*
X67414402Y97663000D01*
X67537230Y97045502D01*
X67814554Y96630457D01*
X67665802Y96534738D01*
X67494554Y96284108D01*
X67434307Y95986600D01*
X67434307Y94259400D01*
X67486604Y93981467D01*
X67650862Y93726202D01*
X67901492Y93554954D01*
X68199000Y93494707D01*
X70231000Y93494707D01*
X70508933Y93547004D01*
X70764198Y93711262D01*
X70935446Y93961892D01*
X70995693Y94259400D01*
X70995693Y95986600D01*
X70943396Y96264533D01*
X70779138Y96519798D01*
X70615991Y96631272D01*
X70892770Y97045502D01*
X71015598Y97663000D01*
X70892770Y98280498D01*
X70542986Y98803988D01*
X70349905Y98933000D01*
X70542986Y99062012D01*
X70892770Y99585502D01*
X71015598Y100203000D01*
X70892770Y100820498D01*
X70542986Y101343988D01*
X70349905Y101473000D01*
X70542986Y101602012D01*
X70892770Y102125502D01*
X71015598Y102743000D01*
X70892770Y103360498D01*
X70542986Y103883988D01*
X70019496Y104233772D01*
X69401998Y104356600D01*
X69028002Y104356600D01*
X68410504Y104233772D01*
X67887014Y103883988D01*
X67537230Y103360498D01*
X67414402Y102743000D01*
X61088400Y102743000D01*
X61088400Y104966137D01*
X71274723Y104966137D01*
X71517795Y104377857D01*
X71882257Y104012758D01*
X71519377Y103650511D01*
X71275278Y103062656D01*
X71274723Y102426137D01*
X71517795Y101837857D01*
X71882257Y101472758D01*
X71519377Y101110511D01*
X71275278Y100522656D01*
X71274723Y99886137D01*
X71517795Y99297857D01*
X71882257Y98932758D01*
X71519377Y98570511D01*
X71275278Y97982656D01*
X71274723Y97346137D01*
X71517795Y96757857D01*
X71882257Y96392758D01*
X71519377Y96030511D01*
X71275278Y95442656D01*
X71274723Y94806137D01*
X71517795Y94217857D01*
X71967489Y93767377D01*
X72555344Y93523278D01*
X73191863Y93522723D01*
X73780143Y93765795D01*
X74230623Y94215489D01*
X74474722Y94803344D01*
X74475277Y95439863D01*
X74232205Y96028143D01*
X73867743Y96393242D01*
X74230623Y96755489D01*
X74474722Y97343344D01*
X74475277Y97979863D01*
X74232205Y98568143D01*
X73867743Y98933242D01*
X74230623Y99295489D01*
X74474722Y99883344D01*
X74475277Y100519863D01*
X74232205Y101108143D01*
X73867743Y101473242D01*
X74230623Y101835489D01*
X74474722Y102423344D01*
X74475277Y103059863D01*
X74232205Y103648143D01*
X73867743Y104013242D01*
X74230623Y104375489D01*
X74474722Y104963344D01*
X74475028Y105314612D01*
X76046900Y105314612D01*
X76046900Y105251388D01*
X76169728Y104633890D01*
X76519512Y104110400D01*
X76665282Y104013000D01*
X76519512Y103915600D01*
X76169728Y103392110D01*
X76046900Y102774612D01*
X76046900Y102711388D01*
X76169728Y102093890D01*
X76519512Y101570400D01*
X76665282Y101473000D01*
X76519512Y101375600D01*
X76169728Y100852110D01*
X76046900Y100234612D01*
X76046900Y100171388D01*
X76169728Y99553890D01*
X76519512Y99030400D01*
X77043002Y98680616D01*
X77660500Y98557788D01*
X78277998Y98680616D01*
X78801488Y99030400D01*
X78930500Y99223481D01*
X78950500Y99193548D01*
X78950500Y96151700D01*
X79045651Y95673346D01*
X79316617Y95267817D01*
X82885317Y91699116D01*
X83118639Y91543216D01*
X83290846Y91428151D01*
X83769200Y91333000D01*
X84267915Y91333000D01*
X84170554Y91190508D01*
X84110307Y90893000D01*
X84110307Y89193000D01*
X84162604Y88915067D01*
X84326862Y88659802D01*
X84577492Y88488554D01*
X84875000Y88428307D01*
X86575000Y88428307D01*
X86852933Y88480604D01*
X87108198Y88644862D01*
X87279446Y88895492D01*
X87339693Y89193000D01*
X87339693Y90893000D01*
X87287396Y91170933D01*
X87123138Y91426198D01*
X86949646Y91544740D01*
X87080623Y91675489D01*
X87324722Y92263344D01*
X87325277Y92899863D01*
X87082205Y93488143D01*
X86717743Y93853242D01*
X87080623Y94215489D01*
X87324722Y94803344D01*
X87325277Y95439863D01*
X87082205Y96028143D01*
X86717743Y96393242D01*
X87080623Y96755489D01*
X87324722Y97343344D01*
X87325277Y97979863D01*
X87082205Y98568143D01*
X86717743Y98933242D01*
X87080623Y99295489D01*
X87324722Y99883344D01*
X87325277Y100519863D01*
X87082205Y101108143D01*
X86717743Y101473242D01*
X87080623Y101835489D01*
X87324722Y102423344D01*
X87325277Y103059863D01*
X87082205Y103648143D01*
X86717743Y104013242D01*
X87080623Y104375489D01*
X87324722Y104963344D01*
X87325277Y105599863D01*
X87082205Y106188143D01*
X86717743Y106553242D01*
X87080623Y106915489D01*
X87239181Y107297341D01*
X90981140Y107297341D01*
X91209020Y106745828D01*
X91630609Y106323503D01*
X92181723Y106094661D01*
X92778459Y106094140D01*
X93329972Y106322020D01*
X93752297Y106743609D01*
X93981139Y107294723D01*
X93981660Y107891459D01*
X93753780Y108442972D01*
X93332191Y108865297D01*
X92781077Y109094139D01*
X92184341Y109094660D01*
X91632828Y108866780D01*
X91210503Y108445191D01*
X90981661Y107894077D01*
X90981140Y107297341D01*
X87239181Y107297341D01*
X87324722Y107503344D01*
X87325277Y108139863D01*
X87082205Y108728143D01*
X86632511Y109178623D01*
X86044656Y109422722D01*
X85408137Y109423277D01*
X84819857Y109180205D01*
X84369377Y108730511D01*
X84125278Y108142656D01*
X84124723Y107506137D01*
X84367795Y106917857D01*
X84732257Y106552758D01*
X84369377Y106190511D01*
X84125278Y105602656D01*
X84124723Y104966137D01*
X84367795Y104377857D01*
X84732257Y104012758D01*
X84369377Y103650511D01*
X84125278Y103062656D01*
X84124723Y102426137D01*
X84367795Y101837857D01*
X84732257Y101472758D01*
X84369377Y101110511D01*
X84125278Y100522656D01*
X84124723Y99886137D01*
X84367795Y99297857D01*
X84732257Y98932758D01*
X84369377Y98570511D01*
X84125278Y97982656D01*
X84124723Y97346137D01*
X84367795Y96757857D01*
X84732257Y96392758D01*
X84369377Y96030511D01*
X84125278Y95442656D01*
X84124723Y94806137D01*
X84367795Y94217857D01*
X84732257Y93852758D01*
X84712465Y93833000D01*
X84286967Y93833000D01*
X81450500Y96669466D01*
X81450500Y99193548D01*
X81691272Y99553890D01*
X81814100Y100171388D01*
X81814100Y100234612D01*
X81691272Y100852110D01*
X81341488Y101375600D01*
X81195718Y101473000D01*
X81341488Y101570400D01*
X81691272Y102093890D01*
X81814100Y102711388D01*
X81814100Y102774612D01*
X81691272Y103392110D01*
X81439123Y103769479D01*
X81597298Y103871262D01*
X81768546Y104121892D01*
X81828793Y104419400D01*
X81828793Y106146600D01*
X81776496Y106424533D01*
X81612238Y106679798D01*
X81361608Y106851046D01*
X81064100Y106911293D01*
X79336900Y106911293D01*
X79058967Y106858996D01*
X78803702Y106694738D01*
X78690828Y106529541D01*
X78277998Y106805384D01*
X77660500Y106928212D01*
X77043002Y106805384D01*
X76519512Y106455600D01*
X76169728Y105932110D01*
X76046900Y105314612D01*
X74475028Y105314612D01*
X74475277Y105599863D01*
X74232205Y106188143D01*
X73782511Y106638623D01*
X73194656Y106882722D01*
X72558137Y106883277D01*
X71969857Y106640205D01*
X71519377Y106190511D01*
X71275278Y105602656D01*
X71274723Y104966137D01*
X61088400Y104966137D01*
X61088400Y105283000D01*
X60974219Y105857025D01*
X60649060Y106343660D01*
X60162425Y106668819D01*
X59588400Y106783000D01*
X59014375Y106668819D01*
X58527740Y106343660D01*
X58202581Y105857025D01*
X58088400Y105283000D01*
X58088400Y93418951D01*
X58009331Y93451783D01*
X57512050Y93452217D01*
X57209003Y93327000D01*
X54440990Y93327000D01*
X52179000Y95588990D01*
X52179000Y102920800D01*
X52093364Y103351319D01*
X51849495Y103716295D01*
X49639695Y105926095D01*
X49543840Y105990143D01*
X49274719Y106169964D01*
X48844200Y106255600D01*
X47286242Y106255600D01*
X46985731Y106380383D01*
X46488450Y106380817D01*
X46028857Y106190916D01*
X45676919Y105839593D01*
X45486217Y105380331D01*
X45485783Y104883050D01*
X45675684Y104423457D01*
X46027007Y104071519D01*
X46486269Y103880817D01*
X46983550Y103880383D01*
X47286597Y104005600D01*
X48378210Y104005600D01*
X49929000Y102454810D01*
X49929000Y102037857D01*
X49893695Y102090695D01*
X48598295Y103386095D01*
X48334205Y103562554D01*
X48233319Y103629964D01*
X47802800Y103715600D01*
X47210042Y103715600D01*
X46909531Y103840383D01*
X46412250Y103840817D01*
X45952657Y103650916D01*
X45600719Y103299593D01*
X45410017Y102840331D01*
X45409583Y102343050D01*
X45599484Y101883457D01*
X45950807Y101531519D01*
X46410069Y101340817D01*
X46907350Y101340383D01*
X47210397Y101465600D01*
X47336810Y101465600D01*
X47973200Y100829210D01*
X47973200Y95044990D01*
X47784800Y95233390D01*
X47784800Y99500358D01*
X47909583Y99800869D01*
X47910017Y100298150D01*
X47720116Y100757743D01*
X47368793Y101109681D01*
X46909531Y101300383D01*
X46412250Y101300817D01*
X45952657Y101110916D01*
X45600719Y100759593D01*
X45410017Y100300331D01*
X45409583Y99803050D01*
X45534800Y99500003D01*
X45534800Y95756190D01*
X44889895Y96401095D01*
X44824730Y96444637D01*
X44524919Y96644964D01*
X44094400Y96730600D01*
X43870107Y96730600D01*
X43866996Y96747133D01*
X43702738Y97002398D01*
X43452108Y97173646D01*
X43154600Y97233893D01*
X41427400Y97233893D01*
X41149467Y97181596D01*
X40894202Y97017338D01*
X40781328Y96852141D01*
X40368498Y97127984D01*
X39751000Y97250812D01*
X39133502Y97127984D01*
X38610012Y96778200D01*
X38260228Y96254710D01*
X38137400Y95637212D01*
X38137400Y95573988D01*
X38260228Y94956490D01*
X38610012Y94433000D01*
X38755782Y94335600D01*
X38610012Y94238200D01*
X38260228Y93714710D01*
X38137400Y93097212D01*
X38137400Y93033988D01*
X38260228Y92416490D01*
X38610012Y91893000D01*
X38755782Y91795600D01*
X38610012Y91698200D01*
X38260228Y91174710D01*
X38137400Y90557212D01*
X38137400Y90493988D01*
X38260228Y89876490D01*
X38610012Y89353000D01*
X39133502Y89003216D01*
X39751000Y88880388D01*
X40368498Y89003216D01*
X40891988Y89353000D01*
X41021000Y89546081D01*
X41150012Y89353000D01*
X41673502Y89003216D01*
X42291000Y88880388D01*
X42908498Y89003216D01*
X43431988Y89353000D01*
X43463793Y89400600D01*
X43907810Y89400600D01*
X52494400Y80814010D01*
X52494400Y80566061D01*
X52372593Y80688081D01*
X52069763Y80813827D01*
X45880495Y87003095D01*
X45815330Y87046637D01*
X45515519Y87246964D01*
X45085000Y87332600D01*
X43463793Y87332600D01*
X43431988Y87380200D01*
X42908498Y87729984D01*
X42291000Y87852812D01*
X41673502Y87729984D01*
X41150012Y87380200D01*
X41021000Y87187119D01*
X40891988Y87380200D01*
X40368498Y87729984D01*
X39751000Y87852812D01*
X39133502Y87729984D01*
X38610012Y87380200D01*
X38260228Y86856710D01*
X38137400Y86239212D01*
X38137400Y86175988D01*
X38260228Y85558490D01*
X38610012Y85035000D01*
X38755782Y84937600D01*
X38610012Y84840200D01*
X38260228Y84316710D01*
X38137400Y83699212D01*
X38137400Y83635988D01*
X38260228Y83018490D01*
X38512377Y82641121D01*
X38354202Y82539338D01*
X38182954Y82288708D01*
X38122707Y81991200D01*
X38122707Y80264000D01*
X38175004Y79986067D01*
X38339262Y79730802D01*
X38589892Y79559554D01*
X38887400Y79499307D01*
X40614600Y79499307D01*
X40892533Y79551604D01*
X41147798Y79715862D01*
X41260672Y79881059D01*
X41673502Y79605216D01*
X42291000Y79482388D01*
X42908498Y79605216D01*
X43431988Y79955000D01*
X43463793Y80002600D01*
X44060210Y80002600D01*
X47425546Y76637264D01*
X47250450Y76637417D01*
X47249925Y76637200D01*
X44399200Y76637200D01*
X43920846Y76542049D01*
X43515317Y76271084D01*
X41951034Y74706800D01*
X31704539Y74706800D01*
X31704817Y75025150D01*
X31514916Y75484743D01*
X31163593Y75836681D01*
X31163068Y75836899D01*
X28097800Y78902166D01*
X28097800Y92150109D01*
X28098017Y92398750D01*
X27908116Y92858343D01*
X27556793Y93210281D01*
X27097531Y93400983D01*
X26600250Y93401417D01*
X26140657Y93211516D01*
X25788719Y92860193D01*
X25598017Y92400931D01*
X25597583Y91903650D01*
X25597800Y91903125D01*
X25597800Y90952567D01*
X22575483Y93974883D01*
X22169954Y94245849D01*
X21691600Y94341000D01*
X10093567Y94341000D01*
X8336600Y96097966D01*
X8336600Y97599754D01*
X8356962Y97620080D01*
X8774045Y97202268D01*
X9326301Y96972951D01*
X9924275Y96972429D01*
X10476931Y97200782D01*
X10896962Y97620080D01*
X11314045Y97202268D01*
X11866301Y96972951D01*
X12464275Y96972429D01*
X13016931Y97200782D01*
X13436962Y97620080D01*
X13854045Y97202268D01*
X14406301Y96972951D01*
X15004275Y96972429D01*
X15556931Y97200782D01*
X15976962Y97620080D01*
X16394045Y97202268D01*
X16946301Y96972951D01*
X17544275Y96972429D01*
X18096931Y97200782D01*
X18520132Y97623245D01*
X18749449Y98175501D01*
X18749971Y98773475D01*
X18521618Y99326131D01*
X18099155Y99749332D01*
X17546899Y99978649D01*
X16948925Y99979171D01*
X16396269Y99750818D01*
X15976238Y99331520D01*
X15559155Y99749332D01*
X15006899Y99978649D01*
X14408925Y99979171D01*
X13856269Y99750818D01*
X13436238Y99331520D01*
X13019155Y99749332D01*
X12466899Y99978649D01*
X11868925Y99979171D01*
X11316269Y99750818D01*
X10896238Y99331520D01*
X10479155Y99749332D01*
X9926899Y99978649D01*
X9328925Y99979171D01*
X8776269Y99750818D01*
X8356238Y99331520D01*
X7939155Y99749332D01*
X7386899Y99978649D01*
X6788925Y99979171D01*
X6236269Y99750818D01*
X5813068Y99328355D01*
X5583751Y98776099D01*
X5583229Y98178125D01*
X825000Y98178125D01*
X825000Y105994200D01*
X40662707Y105994200D01*
X40662707Y104267000D01*
X40715004Y103989067D01*
X40879262Y103733802D01*
X41051661Y103616007D01*
X40800228Y103239710D01*
X40677400Y102622212D01*
X40677400Y102558988D01*
X40800228Y101941490D01*
X41150012Y101418000D01*
X41295782Y101320600D01*
X41150012Y101223200D01*
X40800228Y100699710D01*
X40677400Y100082212D01*
X40677400Y100018988D01*
X40800228Y99401490D01*
X41150012Y98878000D01*
X41673502Y98528216D01*
X42291000Y98405388D01*
X42908498Y98528216D01*
X43431988Y98878000D01*
X43781772Y99401490D01*
X43904600Y100018988D01*
X43904600Y100082212D01*
X43781772Y100699710D01*
X43431988Y101223200D01*
X43286218Y101320600D01*
X43431988Y101418000D01*
X43781772Y101941490D01*
X43904600Y102558988D01*
X43904600Y102622212D01*
X43781772Y103239710D01*
X43529623Y103617079D01*
X43687798Y103718862D01*
X43859046Y103969492D01*
X43919293Y104267000D01*
X43919293Y105994200D01*
X43866996Y106272133D01*
X43702738Y106527398D01*
X43452108Y106698646D01*
X43154600Y106758893D01*
X41427400Y106758893D01*
X41149467Y106706596D01*
X40894202Y106542338D01*
X40722954Y106291708D01*
X40662707Y105994200D01*
X825000Y105994200D01*
X825000Y107297341D01*
X1522340Y107297341D01*
X1750220Y106745828D01*
X2171809Y106323503D01*
X2722923Y106094661D01*
X3319659Y106094140D01*
X3871172Y106322020D01*
X4293497Y106743609D01*
X4522339Y107294723D01*
X4522860Y107891459D01*
X4294980Y108442972D01*
X3873391Y108865297D01*
X3322277Y109094139D01*
X2725541Y109094660D01*
X2174028Y108866780D01*
X1751703Y108445191D01*
X1522861Y107894077D01*
X1522340Y107297341D01*
X825000Y107297341D01*
X825000Y109792000D01*
X94679000Y109792000D01*
X94679000Y825000D01*
G36*
X82743800Y32316614D02*
X81399186Y30972000D01*
X74798775Y30972000D01*
X74704570Y31112988D01*
X74511489Y31242000D01*
X74704570Y31371012D01*
X74798775Y31512000D01*
X80873600Y31512000D01*
X81256284Y31588120D01*
X81580707Y31804893D01*
X82743800Y32967986D01*
X82743800Y32316614D01*
X82743800Y32316614D01*
G37*
X82743800Y32316614D02*
X81399186Y30972000D01*
X74798775Y30972000D01*
X74704570Y31112988D01*
X74511489Y31242000D01*
X74704570Y31371012D01*
X74798775Y31512000D01*
X80873600Y31512000D01*
X81256284Y31588120D01*
X81580707Y31804893D01*
X82743800Y32967986D01*
X82743800Y32316614D01*
G36*
X80459386Y33512000D02*
X74798775Y33512000D01*
X74704570Y33652988D01*
X74511489Y33782000D01*
X74704570Y33911012D01*
X74798775Y34052000D01*
X80721200Y34052000D01*
X81068460Y34121074D01*
X80459386Y33512000D01*
X80459386Y33512000D01*
G37*
X80459386Y33512000D02*
X74798775Y33512000D01*
X74704570Y33652988D01*
X74511489Y33782000D01*
X74704570Y33911012D01*
X74798775Y34052000D01*
X80721200Y34052000D01*
X81068460Y34121074D01*
X80459386Y33512000D01*
G36*
X79645000Y39377814D02*
X78859186Y38592000D01*
X74798775Y38592000D01*
X74704570Y38732988D01*
X74511489Y38862000D01*
X74704570Y38991012D01*
X74798775Y39132000D01*
X78054200Y39132000D01*
X78436884Y39208120D01*
X78761307Y39424893D01*
X79645000Y40308587D01*
X79645000Y39377814D01*
X79645000Y39377814D01*
G37*
X79645000Y39377814D02*
X78859186Y38592000D01*
X74798775Y38592000D01*
X74704570Y38732988D01*
X74511489Y38862000D01*
X74704570Y38991012D01*
X74798775Y39132000D01*
X78054200Y39132000D01*
X78436884Y39208120D01*
X78761307Y39424893D01*
X79645000Y40308587D01*
X79645000Y39377814D01*
G36*
X57611469Y86304017D02*
X58088400Y86303601D01*
X58088400Y73798720D01*
X56724340Y72434660D01*
X56399181Y71948025D01*
X56285000Y71374000D01*
X56399181Y70799975D01*
X56724340Y70313340D01*
X56878937Y70210042D01*
X56707512Y70095500D01*
X56357728Y69572010D01*
X56234900Y68954512D01*
X56234900Y68891288D01*
X56357728Y68273790D01*
X56707512Y67750300D01*
X56853282Y67652900D01*
X56707512Y67555500D01*
X56357728Y67032010D01*
X56234900Y66414512D01*
X56234900Y66351288D01*
X56357728Y65733790D01*
X56707512Y65210300D01*
X56853282Y65112900D01*
X56707512Y65015500D01*
X56357728Y64492010D01*
X56234900Y63874512D01*
X56234900Y63811288D01*
X56357728Y63193790D01*
X56707512Y62670300D01*
X57231002Y62320516D01*
X57848500Y62197688D01*
X58465998Y62320516D01*
X58989488Y62670300D01*
X59118500Y62863381D01*
X59138500Y62833448D01*
X59138500Y56273700D01*
X59224264Y55842537D01*
X59233651Y55795346D01*
X59408411Y55533800D01*
X56210200Y55533800D01*
X55827517Y55457680D01*
X55729220Y55392000D01*
X55503093Y55240907D01*
X54276333Y54014147D01*
X54039205Y54588043D01*
X53589511Y55038523D01*
X53001656Y55282622D01*
X52365137Y55283177D01*
X51776857Y55040105D01*
X51326377Y54590411D01*
X51082278Y54002556D01*
X51081723Y53366037D01*
X51324795Y52777757D01*
X51774489Y52327277D01*
X52350346Y52088160D01*
X44711400Y44449214D01*
X44711400Y47336810D01*
X47887095Y50512505D01*
X48130964Y50877481D01*
X48216600Y51308000D01*
X48216600Y57134607D01*
X50165000Y57134607D01*
X50442933Y57186904D01*
X50698198Y57351162D01*
X50869446Y57601792D01*
X50929693Y57899300D01*
X50929693Y59626500D01*
X50877396Y59904433D01*
X50713138Y60159698D01*
X50549991Y60271172D01*
X50826770Y60685402D01*
X50949598Y61302900D01*
X50826770Y61920398D01*
X50476986Y62443888D01*
X50283905Y62572900D01*
X50476986Y62701912D01*
X50826770Y63225402D01*
X50949598Y63842900D01*
X50826770Y64460398D01*
X50476986Y64983888D01*
X50283905Y65112900D01*
X50476986Y65241912D01*
X50826770Y65765402D01*
X50949598Y66382900D01*
X50826770Y67000398D01*
X50476986Y67523888D01*
X49953496Y67873672D01*
X49760203Y67912120D01*
X49855083Y67975517D01*
X51082243Y69202676D01*
X51081723Y68606037D01*
X51324795Y68017757D01*
X51689257Y67652658D01*
X51326377Y67290411D01*
X51082278Y66702556D01*
X51081723Y66066037D01*
X51324795Y65477757D01*
X51689257Y65112658D01*
X51326377Y64750411D01*
X51082278Y64162556D01*
X51081723Y63526037D01*
X51324795Y62937757D01*
X51689257Y62572658D01*
X51326377Y62210411D01*
X51082278Y61622556D01*
X51081723Y60986037D01*
X51324795Y60397757D01*
X51689257Y60032658D01*
X51326377Y59670411D01*
X51082278Y59082556D01*
X51081723Y58446037D01*
X51324795Y57857757D01*
X51774489Y57407277D01*
X52362344Y57163178D01*
X52998863Y57162623D01*
X53587143Y57405695D01*
X54037623Y57855389D01*
X54281722Y58443244D01*
X54282277Y59079763D01*
X54039205Y59668043D01*
X53674743Y60033142D01*
X54037623Y60395389D01*
X54281722Y60983244D01*
X54282277Y61619763D01*
X54039205Y62208043D01*
X53674743Y62573142D01*
X54037623Y62935389D01*
X54281722Y63523244D01*
X54282277Y64159763D01*
X54039205Y64748043D01*
X53674743Y65113142D01*
X54037623Y65475389D01*
X54281722Y66063244D01*
X54282277Y66699763D01*
X54039205Y67288043D01*
X53674743Y67653142D01*
X54037623Y68015389D01*
X54281722Y68603244D01*
X54282277Y69239763D01*
X54039205Y69828043D01*
X53589511Y70278523D01*
X53001656Y70522622D01*
X52365137Y70523177D01*
X51776857Y70280105D01*
X51584773Y70088356D01*
X51618199Y70256400D01*
X51523049Y70734754D01*
X51493200Y70779426D01*
X51493200Y75327610D01*
X54414895Y78249305D01*
X54658764Y78614281D01*
X54744400Y79044800D01*
X54744400Y81027810D01*
X55000225Y80771985D01*
X55124484Y80471257D01*
X55475807Y80119319D01*
X55935069Y79928617D01*
X56432350Y79928183D01*
X56891943Y80118084D01*
X57243881Y80469407D01*
X57434583Y80928669D01*
X57435017Y81425950D01*
X57245116Y81885543D01*
X56893793Y82237481D01*
X56590963Y82363227D01*
X52525390Y86428800D01*
X57310958Y86428800D01*
X57611469Y86304017D01*
X57611469Y86304017D01*
G37*
X57611469Y86304017D02*
X58088400Y86303601D01*
X58088400Y73798720D01*
X56724340Y72434660D01*
X56399181Y71948025D01*
X56285000Y71374000D01*
X56399181Y70799975D01*
X56724340Y70313340D01*
X56878937Y70210042D01*
X56707512Y70095500D01*
X56357728Y69572010D01*
X56234900Y68954512D01*
X56234900Y68891288D01*
X56357728Y68273790D01*
X56707512Y67750300D01*
X56853282Y67652900D01*
X56707512Y67555500D01*
X56357728Y67032010D01*
X56234900Y66414512D01*
X56234900Y66351288D01*
X56357728Y65733790D01*
X56707512Y65210300D01*
X56853282Y65112900D01*
X56707512Y65015500D01*
X56357728Y64492010D01*
X56234900Y63874512D01*
X56234900Y63811288D01*
X56357728Y63193790D01*
X56707512Y62670300D01*
X57231002Y62320516D01*
X57848500Y62197688D01*
X58465998Y62320516D01*
X58989488Y62670300D01*
X59118500Y62863381D01*
X59138500Y62833448D01*
X59138500Y56273700D01*
X59224264Y55842537D01*
X59233651Y55795346D01*
X59408411Y55533800D01*
X56210200Y55533800D01*
X55827517Y55457680D01*
X55729220Y55392000D01*
X55503093Y55240907D01*
X54276333Y54014147D01*
X54039205Y54588043D01*
X53589511Y55038523D01*
X53001656Y55282622D01*
X52365137Y55283177D01*
X51776857Y55040105D01*
X51326377Y54590411D01*
X51082278Y54002556D01*
X51081723Y53366037D01*
X51324795Y52777757D01*
X51774489Y52327277D01*
X52350346Y52088160D01*
X44711400Y44449214D01*
X44711400Y47336810D01*
X47887095Y50512505D01*
X48130964Y50877481D01*
X48216600Y51308000D01*
X48216600Y57134607D01*
X50165000Y57134607D01*
X50442933Y57186904D01*
X50698198Y57351162D01*
X50869446Y57601792D01*
X50929693Y57899300D01*
X50929693Y59626500D01*
X50877396Y59904433D01*
X50713138Y60159698D01*
X50549991Y60271172D01*
X50826770Y60685402D01*
X50949598Y61302900D01*
X50826770Y61920398D01*
X50476986Y62443888D01*
X50283905Y62572900D01*
X50476986Y62701912D01*
X50826770Y63225402D01*
X50949598Y63842900D01*
X50826770Y64460398D01*
X50476986Y64983888D01*
X50283905Y65112900D01*
X50476986Y65241912D01*
X50826770Y65765402D01*
X50949598Y66382900D01*
X50826770Y67000398D01*
X50476986Y67523888D01*
X49953496Y67873672D01*
X49760203Y67912120D01*
X49855083Y67975517D01*
X51082243Y69202676D01*
X51081723Y68606037D01*
X51324795Y68017757D01*
X51689257Y67652658D01*
X51326377Y67290411D01*
X51082278Y66702556D01*
X51081723Y66066037D01*
X51324795Y65477757D01*
X51689257Y65112658D01*
X51326377Y64750411D01*
X51082278Y64162556D01*
X51081723Y63526037D01*
X51324795Y62937757D01*
X51689257Y62572658D01*
X51326377Y62210411D01*
X51082278Y61622556D01*
X51081723Y60986037D01*
X51324795Y60397757D01*
X51689257Y60032658D01*
X51326377Y59670411D01*
X51082278Y59082556D01*
X51081723Y58446037D01*
X51324795Y57857757D01*
X51774489Y57407277D01*
X52362344Y57163178D01*
X52998863Y57162623D01*
X53587143Y57405695D01*
X54037623Y57855389D01*
X54281722Y58443244D01*
X54282277Y59079763D01*
X54039205Y59668043D01*
X53674743Y60033142D01*
X54037623Y60395389D01*
X54281722Y60983244D01*
X54282277Y61619763D01*
X54039205Y62208043D01*
X53674743Y62573142D01*
X54037623Y62935389D01*
X54281722Y63523244D01*
X54282277Y64159763D01*
X54039205Y64748043D01*
X53674743Y65113142D01*
X54037623Y65475389D01*
X54281722Y66063244D01*
X54282277Y66699763D01*
X54039205Y67288043D01*
X53674743Y67653142D01*
X54037623Y68015389D01*
X54281722Y68603244D01*
X54282277Y69239763D01*
X54039205Y69828043D01*
X53589511Y70278523D01*
X53001656Y70522622D01*
X52365137Y70523177D01*
X51776857Y70280105D01*
X51584773Y70088356D01*
X51618199Y70256400D01*
X51523049Y70734754D01*
X51493200Y70779426D01*
X51493200Y75327610D01*
X54414895Y78249305D01*
X54658764Y78614281D01*
X54744400Y79044800D01*
X54744400Y81027810D01*
X55000225Y80771985D01*
X55124484Y80471257D01*
X55475807Y80119319D01*
X55935069Y79928617D01*
X56432350Y79928183D01*
X56891943Y80118084D01*
X57243881Y80469407D01*
X57434583Y80928669D01*
X57435017Y81425950D01*
X57245116Y81885543D01*
X56893793Y82237481D01*
X56590963Y82363227D01*
X52525390Y86428800D01*
X57310958Y86428800D01*
X57611469Y86304017D01*
G36*
X21457600Y87975833D02*
X21457600Y86208690D01*
X21457383Y85960050D01*
X21647284Y85500457D01*
X21998607Y85148519D01*
X22457869Y84957817D01*
X22955150Y84957383D01*
X23414743Y85147284D01*
X23743600Y85475566D01*
X23743600Y78394167D01*
X20553719Y75204285D01*
X20553716Y75204283D01*
X20174865Y74825432D01*
X20370322Y75296144D01*
X20370877Y75932663D01*
X20127805Y76520943D01*
X19763343Y76886042D01*
X20126223Y77248289D01*
X20370322Y77836144D01*
X20370877Y78472663D01*
X20127805Y79060943D01*
X19763343Y79426042D01*
X20126223Y79788289D01*
X20370322Y80376144D01*
X20370877Y81012663D01*
X20127805Y81600943D01*
X19763343Y81966042D01*
X20126223Y82328289D01*
X20370322Y82916144D01*
X20370877Y83552663D01*
X20127805Y84140943D01*
X19763343Y84506042D01*
X20126223Y84868289D01*
X20370322Y85456144D01*
X20370877Y86092663D01*
X20127805Y86680943D01*
X19763343Y87046042D01*
X20126223Y87408289D01*
X20370322Y87996144D01*
X20370877Y88632663D01*
X20127805Y89220943D01*
X19763343Y89586042D01*
X19783135Y89605800D01*
X19827634Y89605800D01*
X21457600Y87975833D01*
X21457600Y87975833D01*
G37*
X21457600Y87975833D02*
X21457600Y86208690D01*
X21457383Y85960050D01*
X21647284Y85500457D01*
X21998607Y85148519D01*
X22457869Y84957817D01*
X22955150Y84957383D01*
X23414743Y85147284D01*
X23743600Y85475566D01*
X23743600Y78394167D01*
X20553719Y75204285D01*
X20553716Y75204283D01*
X20174865Y74825432D01*
X20370322Y75296144D01*
X20370877Y75932663D01*
X20127805Y76520943D01*
X19763343Y76886042D01*
X20126223Y77248289D01*
X20370322Y77836144D01*
X20370877Y78472663D01*
X20127805Y79060943D01*
X19763343Y79426042D01*
X20126223Y79788289D01*
X20370322Y80376144D01*
X20370877Y81012663D01*
X20127805Y81600943D01*
X19763343Y81966042D01*
X20126223Y82328289D01*
X20370322Y82916144D01*
X20370877Y83552663D01*
X20127805Y84140943D01*
X19763343Y84506042D01*
X20126223Y84868289D01*
X20370322Y85456144D01*
X20370877Y86092663D01*
X20127805Y86680943D01*
X19763343Y87046042D01*
X20126223Y87408289D01*
X20370322Y87996144D01*
X20370877Y88632663D01*
X20127805Y89220943D01*
X19763343Y89586042D01*
X19783135Y89605800D01*
X19827634Y89605800D01*
X21457600Y87975833D01*
G36*
X68165505Y87469505D02*
X68530482Y87225636D01*
X68961000Y87140000D01*
X69391519Y87225636D01*
X69450431Y87265000D01*
X72813986Y87265000D01*
X74319186Y85759800D01*
X69602831Y85759800D01*
X69543919Y85799164D01*
X69113400Y85884800D01*
X68207790Y85884800D01*
X63015590Y91077000D01*
X64558010Y91077000D01*
X68165505Y87469505D01*
X68165505Y87469505D01*
G37*
X68165505Y87469505D02*
X68530482Y87225636D01*
X68961000Y87140000D01*
X69391519Y87225636D01*
X69450431Y87265000D01*
X72813986Y87265000D01*
X74319186Y85759800D01*
X69602831Y85759800D01*
X69543919Y85799164D01*
X69113400Y85884800D01*
X68207790Y85884800D01*
X63015590Y91077000D01*
X64558010Y91077000D01*
X68165505Y87469505D01*
M02*
