G04 #@! TF.FileFunction,Soldermask,Bot*
%FSLAX46Y46*%
G04 Gerber Fmt 4.6, Leading zero omitted, Abs format (unit mm)*
G04 Created by KiCad (PCBNEW 4.0.0-rc1-stable) date 12.5.2016 9:41:06*
%MOMM*%
G01*
G04 APERTURE LIST*
%ADD10C,0.100000*%
%ADD11R,2.600000X1.600000*%
%ADD12O,2.600000X1.600000*%
%ADD13C,2.500000*%
%ADD14C,3.400000*%
%ADD15C,2.400000*%
%ADD16R,1.150000X1.600000*%
%ADD17R,1.650000X1.200100*%
%ADD18R,1.600000X1.300000*%
%ADD19O,2.900000X1.900000*%
%ADD20R,1.400000X1.900000*%
G04 APERTURE END LIST*
D10*
D11*
X20150000Y16100000D03*
D12*
X22690000Y16100000D03*
X20150000Y13560000D03*
X22690000Y13560000D03*
X20150000Y11020000D03*
X22690000Y11020000D03*
X20150000Y8480000D03*
X22690000Y8480000D03*
X20150000Y5940000D03*
X22690000Y5940000D03*
X20150000Y3400000D03*
X22690000Y3400000D03*
X20150000Y860000D03*
X22690000Y860000D03*
X20150000Y-1680000D03*
X22690000Y-1680000D03*
X20150000Y-4220000D03*
X22690000Y-4220000D03*
X20150000Y-6760000D03*
X22690000Y-6760000D03*
X20150000Y-9300000D03*
X22690000Y-9300000D03*
X20150000Y-11840000D03*
X22690000Y-11840000D03*
X20150000Y-14380000D03*
X22690000Y-14380000D03*
D13*
X5080000Y-19630000D03*
X5080000Y-22170000D03*
X2540000Y-19630000D03*
X2540000Y-22170000D03*
X0Y-19630000D03*
X0Y-22170000D03*
X-2540000Y-19630000D03*
X-2540000Y-22170000D03*
X-5080000Y-19630000D03*
X-5080000Y-22170000D03*
X7620000Y-19630000D03*
D14*
X-8290000Y20950000D03*
D15*
X-9560000Y17200000D03*
X-12100000Y17200000D03*
X-14640000Y17200000D03*
D14*
X-15910000Y20950000D03*
X3810000Y20950000D03*
D15*
X2540000Y17200000D03*
X0Y17200000D03*
X-2540000Y17200000D03*
D14*
X-3810000Y20950000D03*
X15910000Y20950000D03*
D15*
X14640000Y17200000D03*
X12100000Y17200000D03*
X9560000Y17200000D03*
D14*
X8290000Y20950000D03*
D16*
X12100000Y19500000D03*
X12100000Y21400000D03*
X-12100000Y19500000D03*
X-12100000Y21400000D03*
X0Y21900000D03*
X0Y20000000D03*
D15*
X-20600000Y-4050000D03*
X-20600000Y-1550000D03*
X-20600000Y3450000D03*
X-20600000Y950000D03*
D17*
X-15700000Y1900000D03*
X-15700000Y0D03*
X-18200000Y950000D03*
D18*
X-18350000Y-4050000D03*
X-16150000Y-4050000D03*
X-13500000Y4000000D03*
X-15700000Y4000000D03*
X-8550000Y12350000D03*
X-10750000Y12350000D03*
D19*
X-20600000Y11740000D03*
X-20600000Y9200000D03*
D20*
X-8038000Y-19500000D03*
X-9400000Y-19500000D03*
X-8088000Y-22150000D03*
X-9450000Y-22150000D03*
X-18012000Y-11200000D03*
X-16650000Y-11200000D03*
X-18012000Y-8500000D03*
X-16650000Y-8500000D03*
M02*
