M48
;DRILL file {KiCad 4.0.0-rc1-stable} date 12.5.2016 9:41:11
;FORMAT={2:4/ absolute / inch / suppress leading zeros}
FMAT,2
INCH,TZ
T1C0.020
T2C0.031
T3C0.039
T4C0.040
T5C0.098
T6C0.102
%
G90
G05
M72
T1
X-7264Y-6122
X-6870Y1575
X-6358Y-2087
X-5846Y-2736
X-5807Y-4902
X-5709Y2283
X-5472Y4862
X-5157Y2913
X-4872Y-1004
X-4469Y-6063
X-4035Y-8720
X-3622Y1949
X-3602Y3406
X-3524Y-1929
X-3366Y5551
X-2441Y4390
X-2264Y-2283
X-1063Y3445
X-1063Y2874
X-1043Y4173
X-1004Y5492
X-984Y1378
X-295Y2717
X-20Y-4961
X866Y4941
X984Y-827
X1004Y-276
X1024Y-1339
X1575Y276
X1634Y5079
X1673Y-1752
X1831Y1850
X1890Y768
X2087Y5472
X2106Y3307
X2343Y1181
X2382Y-4862
X2500Y0
X2677Y2972
X2736Y-1181
X2953Y2461
X2972Y6028
X3346Y-2913
X3346Y-4193
X3799Y-1791
X4055Y-8130
X4055Y-9567
X4252Y-1417
X4350Y1280
X4547Y374
X4626Y2323
X4685Y2894
X4744Y3484
X5276Y-3661
X5492Y5354
X5827Y-1398
X5866Y-5965
X6161Y-1811
X6299Y-3661
X6713Y-571
X6752Y3327
X6850Y4823
T2
X-5764Y6772
X-4764Y6772
X-3764Y6772
X-1000Y6772
X0Y6772
X1000Y6772
X3764Y6772
X4764Y6772
X5764Y6772
T3
X-8110Y4622
X-8110Y3622
X-8110Y1358
X-8110Y374
X-8110Y-610
X-8110Y-1594
X-2000Y-7728
X-2000Y-8728
X-1000Y-7728
X-1000Y-8728
X0Y-7728
X0Y-8728
X1000Y-7728
X1000Y-8728
X2000Y-7728
X2000Y-8728
X3000Y-7728
T4
X7933Y6339
X7933Y5339
X7933Y4339
X7933Y3339
X7933Y2339
X7933Y1339
X7933Y339
X7933Y-661
X7933Y-1661
X7933Y-2661
X7933Y-3661
X7933Y-4661
X7933Y-5661
X8933Y6339
X8933Y5339
X8933Y4339
X8933Y3339
X8933Y2339
X8933Y1339
X8933Y339
X8933Y-661
X8933Y-1661
X8933Y-2661
X8933Y-3661
X8933Y-4661
X8933Y-5661
T5
X-7835Y-7480
X-7831Y8264
X7835Y8228
X7835Y-7480
T6
X-6264Y8248
X-3264Y8248
X-1500Y8248
X1500Y8248
X3264Y8248
X6264Y8248
T0
M30
