M48
;DRILL file {KiCad 4.0.0-rc1-stable} date 15.2.2016 17:04:53
;FORMAT={2:4/ absolute / inch / suppress leading zeros}
FMAT,2
INCH,TZ
T1C0.031
T2C0.039
T3C0.040
T4C0.098
T5C0.102
%
G90
G05
M72
T1
X-7913Y5866
X-6575Y-4035
X-6043Y-7638
X-5764Y6772
X-5394Y-1831
X-5394Y-5370
X-5344Y1762
X-4764Y6772
X-4394Y-1831
X-4394Y-5370
X-3764Y6772
X-3394Y-1831
X-3394Y-5370
X-3189Y4961
X-2520Y-4016
X-2008Y1772
X-1594Y-2520
X-1000Y6772
X-197Y3386
X-79Y-1339
X0Y6772
X236Y2437
X323Y878
X748Y-1339
X1000Y6772
X1063Y1567
X1362Y3331
X1614Y-1339
X1874Y925
X2740Y3189
X2764Y394
X3764Y6772
X3898Y-6693
X4232Y4370
X4409Y-4803
X4469Y-8642
X4764Y6772
X5764Y6772
X5906Y-1437
X7087Y6791
X7087Y669
T2
X-8559Y-5354
X-7559Y-5354
X-3000Y-8728
X-2000Y-7728
X-2000Y-8728
X-1000Y-7728
X-1000Y-8728
X0Y-7728
X0Y-8728
X1000Y-7728
X1000Y-8728
X2000Y-7728
X2000Y-8728
T3
X3898Y-3307
X4898Y-3307
X5898Y-3307
X6898Y-3307
X7898Y-3307
X8898Y-3307
T4
X-7835Y-7480
X-7831Y8264
X7835Y8228
X7835Y-7480
T5
X-6264Y8248
X-3264Y8248
X-1500Y8248
X1500Y8248
X3264Y8248
X6264Y8248
T0
M30
