G04 #@! TF.FileFunction,Soldermask,Top*
%FSLAX46Y46*%
G04 Gerber Fmt 4.6, Leading zero omitted, Abs format (unit mm)*
G04 Created by KiCad (PCBNEW 4.0.0-rc1-stable) date 15.2.2016 17:04:43*
%MOMM*%
G01*
G04 APERTURE LIST*
%ADD10C,0.100000*%
%ADD11C,2.500000*%
%ADD12R,2.432000X2.432000*%
%ADD13O,2.432000X2.432000*%
%ADD14C,3.400000*%
%ADD15C,2.400000*%
%ADD16R,2.127200X2.432000*%
%ADD17O,2.127200X2.432000*%
%ADD18R,2.180000X2.900000*%
%ADD19R,0.849580X1.400000*%
%ADD20R,1.400000X0.849580*%
%ADD21R,2.550000X1.350000*%
%ADD22R,2.550000X3.650000*%
%ADD23R,1.600000X1.300000*%
%ADD24R,1.600000X1.150000*%
%ADD25R,1.150000X1.600000*%
%ADD26R,3.549600X2.200860*%
%ADD27R,2.400000X3.300000*%
%ADD28R,1.300000X1.600000*%
%ADD29R,1.600000X2.400000*%
%ADD30R,1.500000X2.400000*%
G04 APERTURE END LIST*
D10*
D11*
X-5080000Y-22170000D03*
X-5080000Y-19630000D03*
X-2540000Y-22170000D03*
X-2540000Y-19630000D03*
X0Y-22170000D03*
X0Y-19630000D03*
X2540000Y-22170000D03*
X2540000Y-19630000D03*
X5080000Y-22170000D03*
X5080000Y-19630000D03*
X-7620000Y-22170000D03*
D12*
X-19200000Y-13600000D03*
D13*
X-21740000Y-13600000D03*
D14*
X-8290000Y20950000D03*
D15*
X-9560000Y17200000D03*
X-12100000Y17200000D03*
X-14640000Y17200000D03*
D14*
X-15910000Y20950000D03*
X3810000Y20950000D03*
D15*
X2540000Y17200000D03*
X0Y17200000D03*
X-2540000Y17200000D03*
D14*
X-3810000Y20950000D03*
X15910000Y20950000D03*
D15*
X14640000Y17200000D03*
X12100000Y17200000D03*
X9560000Y17200000D03*
D14*
X8290000Y20950000D03*
D16*
X22600000Y-8400000D03*
D17*
X20060000Y-8400000D03*
X17520000Y-8400000D03*
X14980000Y-8400000D03*
X12440000Y-8400000D03*
X9900000Y-8400000D03*
D18*
X-8620000Y-14140000D03*
X-11160000Y-14140000D03*
X-13700000Y-14140000D03*
X-8620000Y-4150000D03*
X-11160000Y-4150000D03*
X-13700000Y-4150000D03*
D19*
X-600000Y-1250000D03*
X197560Y-1250000D03*
X997660Y-1250000D03*
X1797760Y-1250000D03*
X2597860Y-1250000D03*
X3397960Y-1250000D03*
X4198060Y-1250000D03*
X4998160Y-1250000D03*
X5798260Y-1250000D03*
X6598360Y-1250000D03*
X7398460Y-1250000D03*
D20*
X9399980Y748980D03*
X9399980Y1549080D03*
X9399980Y2349180D03*
X9399980Y3149280D03*
X9399980Y3949380D03*
X9399980Y4749480D03*
X9399980Y5549580D03*
X9399980Y6349680D03*
X9399980Y7149780D03*
X9399980Y7949880D03*
X9399980Y8749980D03*
D19*
X7398460Y10748960D03*
X6598360Y10748960D03*
X5798260Y10748960D03*
X4998160Y10748960D03*
X4198060Y10748960D03*
X3397960Y10748960D03*
X2597860Y10748960D03*
X1797760Y10748960D03*
X997660Y10748960D03*
X197560Y10748960D03*
X-600000Y10748960D03*
D20*
X-2598980Y8749980D03*
X-2598980Y7949880D03*
X-2598980Y7149780D03*
X-2598980Y6349680D03*
X-2598980Y5549580D03*
X-2598980Y4749480D03*
X-2598980Y3949380D03*
X-2598980Y3149280D03*
X-2598980Y2349180D03*
X-2598980Y1549080D03*
X-2598980Y748980D03*
D21*
X-17100000Y4400000D03*
X-17100000Y-200000D03*
X-17100000Y2100000D03*
D22*
X-22900000Y2100000D03*
D23*
X-8300000Y-800000D03*
X-6100000Y-800000D03*
X-18700000Y-10250000D03*
X-20900000Y-10250000D03*
D24*
X-11350000Y-800000D03*
X-13250000Y-800000D03*
D25*
X20000000Y17250000D03*
X20000000Y15350000D03*
D24*
X6450000Y12900000D03*
X8350000Y12900000D03*
X-12650000Y12900000D03*
X-14550000Y12900000D03*
D25*
X-14100000Y6150000D03*
X-14100000Y8050000D03*
D26*
X-17674020Y-4400000D03*
X-21925980Y-4400000D03*
D25*
X-5100000Y10250000D03*
X-5100000Y8350000D03*
D24*
X-950000Y12900000D03*
X950000Y12900000D03*
D25*
X11850000Y5050000D03*
X11850000Y3150000D03*
D26*
X-22325980Y8700000D03*
X-18074020Y8700000D03*
D27*
X-8410000Y7940000D03*
X-8400000Y4120000D03*
X-11180000Y4120000D03*
X-11170000Y7950000D03*
D23*
X19200000Y4400000D03*
X21400000Y4400000D03*
X19200000Y8400000D03*
X21400000Y8400000D03*
X19200000Y12500000D03*
X21400000Y12500000D03*
X16700000Y4400000D03*
X14500000Y4400000D03*
X16700000Y8400000D03*
X14500000Y8400000D03*
X16700000Y12500000D03*
X14500000Y12500000D03*
X19200000Y-1200000D03*
X21400000Y-1200000D03*
X16700000Y-1200000D03*
X14500000Y-1200000D03*
X14750000Y-24300000D03*
X12550000Y-24300000D03*
D28*
X14900000Y-19200000D03*
X14900000Y-17000000D03*
X12500000Y-19200000D03*
X12500000Y-17000000D03*
D29*
X3680000Y-14800000D03*
X3680000Y-5900000D03*
X1140000Y-5900000D03*
X-1400000Y-5900000D03*
X1140000Y-14800000D03*
D30*
X-1400000Y-14800000D03*
M02*
