G04 #@! TF.FileFunction,Legend,Top*
%FSLAX46Y46*%
G04 Gerber Fmt 4.6, Leading zero omitted, Abs format (unit mm)*
G04 Created by KiCad (PCBNEW 4.0.0-rc1-stable) date 15.2.2016 17:04:43*
%MOMM*%
G01*
G04 APERTURE LIST*
%ADD10C,0.100000*%
%ADD11C,0.300000*%
%ADD12C,0.150000*%
%ADD13C,0.304800*%
%ADD14C,0.250000*%
G04 APERTURE END LIST*
D10*
D11*
X22778571Y10942858D02*
X22778571Y11800001D01*
X24278571Y11371430D02*
X22778571Y11371430D01*
X22778571Y12157144D02*
X24278571Y13157144D01*
X22778571Y13157144D02*
X24278571Y12157144D01*
X22921429Y13657143D02*
X22850000Y13728572D01*
X22778571Y13871429D01*
X22778571Y14228572D01*
X22850000Y14371429D01*
X22921429Y14442858D01*
X23064286Y14514286D01*
X23207143Y14514286D01*
X23421429Y14442858D01*
X24278571Y13585715D01*
X24278571Y14514286D01*
X22778571Y6442858D02*
X22778571Y7300001D01*
X24278571Y6871430D02*
X22778571Y6871430D01*
X22778571Y7657144D02*
X24278571Y8657144D01*
X22778571Y8657144D02*
X24278571Y7657144D01*
X24278571Y10014286D02*
X24278571Y9157143D01*
X24278571Y9585715D02*
X22778571Y9585715D01*
X22992857Y9442858D01*
X23135714Y9300000D01*
X23207143Y9157143D01*
X24278571Y3650001D02*
X23564286Y3150001D01*
X24278571Y2792858D02*
X22778571Y2792858D01*
X22778571Y3364286D01*
X22850000Y3507144D01*
X22921429Y3578572D01*
X23064286Y3650001D01*
X23278571Y3650001D01*
X23421429Y3578572D01*
X23492857Y3507144D01*
X23564286Y3364286D01*
X23564286Y2792858D01*
X22778571Y4150001D02*
X24278571Y5150001D01*
X22778571Y5150001D02*
X24278571Y4150001D01*
X-5628570Y-3850000D02*
X-4914284Y-3850000D01*
X-5771427Y-4278571D02*
X-5271427Y-2778571D01*
X-4771427Y-4278571D01*
X-4414284Y-2778571D02*
X-3414284Y-4278571D01*
X-3414284Y-2778571D02*
X-4414284Y-4278571D01*
X-2842856Y-4278571D02*
X-2842856Y-2778571D01*
X-2199999Y-4207143D02*
X-1985713Y-4278571D01*
X-1628570Y-4278571D01*
X-1485713Y-4207143D01*
X-1414284Y-4135714D01*
X-1342856Y-3992857D01*
X-1342856Y-3850000D01*
X-1414284Y-3707143D01*
X-1485713Y-3635714D01*
X-1628570Y-3564286D01*
X-1914284Y-3492857D01*
X-2057142Y-3421429D01*
X-2128570Y-3350000D01*
X-2199999Y-3207143D01*
X-2199999Y-3064286D01*
X-2128570Y-2921429D01*
X-2057142Y-2850000D01*
X-1914284Y-2778571D01*
X-1557142Y-2778571D01*
X-1342856Y-2850000D01*
X371429Y-4207143D02*
X585715Y-4278571D01*
X942858Y-4278571D01*
X1085715Y-4207143D01*
X1157144Y-4135714D01*
X1228572Y-3992857D01*
X1228572Y-3850000D01*
X1157144Y-3707143D01*
X1085715Y-3635714D01*
X942858Y-3564286D01*
X657144Y-3492857D01*
X514286Y-3421429D01*
X442858Y-3350000D01*
X371429Y-3207143D01*
X371429Y-3064286D01*
X442858Y-2921429D01*
X514286Y-2850000D01*
X657144Y-2778571D01*
X1014286Y-2778571D01*
X1228572Y-2850000D01*
X1871429Y-3492857D02*
X2371429Y-3492857D01*
X2585715Y-4278571D02*
X1871429Y-4278571D01*
X1871429Y-2778571D01*
X2585715Y-2778571D01*
X3942858Y-4278571D02*
X3228572Y-4278571D01*
X3228572Y-2778571D01*
X6371429Y-4278571D02*
X5514286Y-4278571D01*
X5942858Y-4278571D02*
X5942858Y-2778571D01*
X5800001Y-2992857D01*
X5657143Y-3135714D01*
X5514286Y-3207143D01*
X6942857Y-2921429D02*
X7014286Y-2850000D01*
X7157143Y-2778571D01*
X7514286Y-2778571D01*
X7657143Y-2850000D01*
X7728572Y-2921429D01*
X7800000Y-3064286D01*
X7800000Y-3207143D01*
X7728572Y-3421429D01*
X6871429Y-4278571D01*
X7800000Y-4278571D01*
X8300000Y-2778571D02*
X9228571Y-2778571D01*
X8728571Y-3350000D01*
X8942857Y-3350000D01*
X9085714Y-3421429D01*
X9157143Y-3492857D01*
X9228571Y-3635714D01*
X9228571Y-3992857D01*
X9157143Y-4135714D01*
X9085714Y-4207143D01*
X8942857Y-4278571D01*
X8514285Y-4278571D01*
X8371428Y-4207143D01*
X8300000Y-4135714D01*
X-17721429Y-22678571D02*
X-17721429Y-21178571D01*
X-17221429Y-22250000D01*
X-16721429Y-21178571D01*
X-16721429Y-22678571D01*
X-15721429Y-21178571D02*
X-15435715Y-21178571D01*
X-15292857Y-21250000D01*
X-15150000Y-21392857D01*
X-15078572Y-21678571D01*
X-15078572Y-22178571D01*
X-15150000Y-22464286D01*
X-15292857Y-22607143D01*
X-15435715Y-22678571D01*
X-15721429Y-22678571D01*
X-15864286Y-22607143D01*
X-16007143Y-22464286D01*
X-16078572Y-22178571D01*
X-16078572Y-21678571D01*
X-16007143Y-21392857D01*
X-15864286Y-21250000D01*
X-15721429Y-21178571D01*
X-14650000Y-21178571D02*
X-13792857Y-21178571D01*
X-14221428Y-22678571D02*
X-14221428Y-21178571D01*
X-13007143Y-21178571D02*
X-12721429Y-21178571D01*
X-12578571Y-21250000D01*
X-12435714Y-21392857D01*
X-12364286Y-21678571D01*
X-12364286Y-22178571D01*
X-12435714Y-22464286D01*
X-12578571Y-22607143D01*
X-12721429Y-22678571D01*
X-13007143Y-22678571D01*
X-13150000Y-22607143D01*
X-13292857Y-22464286D01*
X-13364286Y-22178571D01*
X-13364286Y-21678571D01*
X-13292857Y-21392857D01*
X-13150000Y-21250000D01*
X-13007143Y-21178571D01*
X-10864285Y-22678571D02*
X-11364285Y-21964286D01*
X-11721428Y-22678571D02*
X-11721428Y-21178571D01*
X-11150000Y-21178571D01*
X-11007142Y-21250000D01*
X-10935714Y-21321429D01*
X-10864285Y-21464286D01*
X-10864285Y-21678571D01*
X-10935714Y-21821429D01*
X-11007142Y-21892857D01*
X-11150000Y-21964286D01*
X-11721428Y-21964286D01*
X-18471428Y-25078571D02*
X-18471428Y-23578571D01*
X-18114285Y-23578571D01*
X-17900000Y-23650000D01*
X-17757142Y-23792857D01*
X-17685714Y-23935714D01*
X-17614285Y-24221429D01*
X-17614285Y-24435714D01*
X-17685714Y-24721429D01*
X-17757142Y-24864286D01*
X-17900000Y-25007143D01*
X-18114285Y-25078571D01*
X-18471428Y-25078571D01*
X-16114285Y-25078571D02*
X-16614285Y-24364286D01*
X-16971428Y-25078571D02*
X-16971428Y-23578571D01*
X-16400000Y-23578571D01*
X-16257142Y-23650000D01*
X-16185714Y-23721429D01*
X-16114285Y-23864286D01*
X-16114285Y-24078571D01*
X-16185714Y-24221429D01*
X-16257142Y-24292857D01*
X-16400000Y-24364286D01*
X-16971428Y-24364286D01*
X-15471428Y-25078571D02*
X-15471428Y-23578571D01*
X-14971428Y-23578571D02*
X-14471428Y-25078571D01*
X-13971428Y-23578571D01*
X-13471428Y-24292857D02*
X-12971428Y-24292857D01*
X-12757142Y-25078571D02*
X-13471428Y-25078571D01*
X-13471428Y-23578571D01*
X-12757142Y-23578571D01*
X-11257142Y-25078571D02*
X-11757142Y-24364286D01*
X-12114285Y-25078571D02*
X-12114285Y-23578571D01*
X-11542857Y-23578571D01*
X-11399999Y-23650000D01*
X-11328571Y-23721429D01*
X-11257142Y-23864286D01*
X-11257142Y-24078571D01*
X-11328571Y-24221429D01*
X-11399999Y-24292857D01*
X-11542857Y-24364286D01*
X-12114285Y-24364286D01*
X-22321429Y-24221428D02*
X-22321429Y-24935714D01*
X-23821429Y-24935714D01*
X-22321429Y-23721428D02*
X-23821429Y-23721428D01*
X-22321429Y-23007142D02*
X-23821429Y-23007142D01*
X-22750000Y-22507142D01*
X-23821429Y-22007142D01*
X-22321429Y-22007142D01*
X-22321429Y-21292856D02*
X-23821429Y-21292856D01*
X-23821429Y-20792856D02*
X-23821429Y-19935713D01*
X-22321429Y-20364284D02*
X-23821429Y-20364284D01*
X-22392857Y-18364285D02*
X-22321429Y-18149999D01*
X-22321429Y-17792856D01*
X-22392857Y-17649999D01*
X-22464286Y-17578570D01*
X-22607143Y-17507142D01*
X-22750000Y-17507142D01*
X-22892857Y-17578570D01*
X-22964286Y-17649999D01*
X-23035714Y-17792856D01*
X-23107143Y-18078570D01*
X-23178571Y-18221428D01*
X-23250000Y-18292856D01*
X-23392857Y-18364285D01*
X-23535714Y-18364285D01*
X-23678571Y-18292856D01*
X-23750000Y-18221428D01*
X-23821429Y-18078570D01*
X-23821429Y-17721428D01*
X-23750000Y-17507142D01*
X-23821429Y-17007142D02*
X-22321429Y-16649999D01*
X-23392857Y-16364285D01*
X-22321429Y-16078571D01*
X-23821429Y-15721428D01*
X14214286Y-3635714D02*
X14142857Y-3707143D01*
X13928571Y-3778571D01*
X13785714Y-3778571D01*
X13571429Y-3707143D01*
X13428571Y-3564286D01*
X13357143Y-3421429D01*
X13285714Y-3135714D01*
X13285714Y-2921429D01*
X13357143Y-2635714D01*
X13428571Y-2492857D01*
X13571429Y-2350000D01*
X13785714Y-2278571D01*
X13928571Y-2278571D01*
X14142857Y-2350000D01*
X14214286Y-2421429D01*
X15714286Y-3778571D02*
X15214286Y-3064286D01*
X14857143Y-3778571D02*
X14857143Y-2278571D01*
X15428571Y-2278571D01*
X15571429Y-2350000D01*
X15642857Y-2421429D01*
X15714286Y-2564286D01*
X15714286Y-2778571D01*
X15642857Y-2921429D01*
X15571429Y-2992857D01*
X15428571Y-3064286D01*
X14857143Y-3064286D01*
X17214286Y-3635714D02*
X17142857Y-3707143D01*
X16928571Y-3778571D01*
X16785714Y-3778571D01*
X16571429Y-3707143D01*
X16428571Y-3564286D01*
X16357143Y-3421429D01*
X16285714Y-3135714D01*
X16285714Y-2921429D01*
X16357143Y-2635714D01*
X16428571Y-2492857D01*
X16571429Y-2350000D01*
X16785714Y-2278571D01*
X16928571Y-2278571D01*
X17142857Y-2350000D01*
X17214286Y-2421429D01*
X19000000Y-2992857D02*
X19500000Y-2992857D01*
X19714286Y-3778571D02*
X19000000Y-3778571D01*
X19000000Y-2278571D01*
X19714286Y-2278571D01*
X21214286Y-3778571D02*
X20714286Y-3064286D01*
X20357143Y-3778571D02*
X20357143Y-2278571D01*
X20928571Y-2278571D01*
X21071429Y-2350000D01*
X21142857Y-2421429D01*
X21214286Y-2564286D01*
X21214286Y-2778571D01*
X21142857Y-2921429D01*
X21071429Y-2992857D01*
X20928571Y-3064286D01*
X20357143Y-3064286D01*
X22714286Y-3778571D02*
X22214286Y-3064286D01*
X21857143Y-3778571D02*
X21857143Y-2278571D01*
X22428571Y-2278571D01*
X22571429Y-2350000D01*
X22642857Y-2421429D01*
X22714286Y-2564286D01*
X22714286Y-2778571D01*
X22642857Y-2921429D01*
X22571429Y-2992857D01*
X22428571Y-3064286D01*
X21857143Y-3064286D01*
X18342858Y25121429D02*
X19200001Y25121429D01*
X18771430Y23621429D02*
X18771430Y25121429D01*
X19557144Y25121429D02*
X20557144Y23621429D01*
X20557144Y25121429D02*
X19557144Y23621429D01*
X21914286Y23621429D02*
X21057143Y23621429D01*
X21485715Y23621429D02*
X21485715Y25121429D01*
X21342858Y24907143D01*
X21200000Y24764286D01*
X21057143Y24692857D01*
X-21957142Y25021429D02*
X-21099999Y25021429D01*
X-21528570Y23521429D02*
X-21528570Y25021429D01*
X-20742856Y25021429D02*
X-19742856Y23521429D01*
X-19742856Y25021429D02*
X-20742856Y23521429D01*
X-19242857Y24878571D02*
X-19171428Y24950000D01*
X-19028571Y25021429D01*
X-18671428Y25021429D01*
X-18528571Y24950000D01*
X-18457142Y24878571D01*
X-18385714Y24735714D01*
X-18385714Y24592857D01*
X-18457142Y24378571D01*
X-19314285Y23521429D01*
X-18385714Y23521429D01*
X-4849999Y12421429D02*
X-5349999Y13135714D01*
X-5707142Y12421429D02*
X-5707142Y13921429D01*
X-5135714Y13921429D01*
X-4992856Y13850000D01*
X-4921428Y13778571D01*
X-4849999Y13635714D01*
X-4849999Y13421429D01*
X-4921428Y13278571D01*
X-4992856Y13207143D01*
X-5135714Y13135714D01*
X-5707142Y13135714D01*
X-4349999Y13921429D02*
X-3349999Y12421429D01*
X-3349999Y13921429D02*
X-4349999Y12421429D01*
D12*
X-9525000Y-17090000D02*
X-10160000Y-16455000D01*
X-9525000Y-24710000D02*
X-10160000Y-25345000D01*
X9525000Y-24710000D02*
X10160000Y-25345000D01*
X9525000Y-17090000D02*
X10160000Y-16455000D01*
X1905000Y-25345000D02*
X1905000Y-24710000D01*
X1905000Y-24710000D02*
X9525000Y-24710000D01*
X9525000Y-24710000D02*
X9525000Y-17090000D01*
X9525000Y-17090000D02*
X-9525000Y-17090000D01*
X-9525000Y-17090000D02*
X-9525000Y-24710000D01*
X-9525000Y-24710000D02*
X-1905000Y-24710000D01*
X-1905000Y-24710000D02*
X-1905000Y-25345000D01*
X-10160000Y-25345000D02*
X10160000Y-25345000D01*
X10160000Y-16455000D02*
X-10160000Y-16455000D01*
X-10160000Y-16455000D02*
X-10160000Y-25345000D01*
X10160000Y-16455000D02*
X10160000Y-25345000D01*
X-7498080Y-22868500D02*
X-6799580Y-23937840D01*
X-6799580Y-23937840D02*
X-6098540Y-22868500D01*
X-6098540Y-22868500D02*
X-7498080Y-22868500D01*
X-17650000Y-12050000D02*
X-19200000Y-12050000D01*
X-23010000Y-12330000D02*
X-20470000Y-12330000D01*
X-20470000Y-12330000D02*
X-20470000Y-14870000D01*
X-19200000Y-15150000D02*
X-17650000Y-15150000D01*
X-17650000Y-15150000D02*
X-17650000Y-12050000D01*
X-20470000Y-14870000D02*
X-23010000Y-14870000D01*
X-23010000Y-14870000D02*
X-23010000Y-12330000D01*
D11*
X-12100000Y22250000D02*
X-11050000Y20800000D01*
X-12100000Y19650000D02*
X-12100000Y22250000D01*
X-12100000Y22250000D02*
X-13100000Y20750000D01*
X-17850000Y25550000D02*
X-6350000Y25550000D01*
X-17850000Y14400000D02*
X-17850000Y25550000D01*
X-6350000Y14400000D02*
X-6350000Y25550000D01*
X-17850000Y14400000D02*
X-6350000Y14400000D01*
X0Y22250000D02*
X1050000Y20800000D01*
X0Y19650000D02*
X0Y22250000D01*
X0Y22250000D02*
X-1000000Y20750000D01*
X-5750000Y25550000D02*
X5750000Y25550000D01*
X-5750000Y14400000D02*
X-5750000Y25550000D01*
X5750000Y14400000D02*
X5750000Y25550000D01*
X-5750000Y14400000D02*
X5750000Y14400000D01*
X12100000Y22250000D02*
X13150000Y20800000D01*
X12100000Y19650000D02*
X12100000Y22250000D01*
X12100000Y22250000D02*
X11100000Y20750000D01*
X6350000Y25550000D02*
X17850000Y25550000D01*
X6350000Y14400000D02*
X6350000Y25550000D01*
X17850000Y14400000D02*
X17850000Y25550000D01*
X6350000Y14400000D02*
X17850000Y14400000D01*
D12*
X21330000Y-7130000D02*
X8630000Y-7130000D01*
X8630000Y-7130000D02*
X8630000Y-9670000D01*
X8630000Y-9670000D02*
X21330000Y-9670000D01*
X24150000Y-6850000D02*
X22600000Y-6850000D01*
X21330000Y-7130000D02*
X21330000Y-9670000D01*
X22600000Y-9950000D02*
X24150000Y-9950000D01*
X24150000Y-9950000D02*
X24150000Y-6850000D01*
D11*
X-12959688Y-10600000D02*
G75*
G03X-12959688Y-10600000I-640312J0D01*
G01*
X-14700000Y-7650000D02*
X-14700000Y-10650000D01*
X-14700000Y-10650000D02*
X-15700000Y-10650000D01*
X-15700000Y-7650000D02*
X-14700000Y-7650000D01*
X-15700000Y-6650000D02*
X-15700000Y-7650000D01*
X-15700000Y-6650000D02*
X-6700000Y-6650000D01*
X-6700000Y-6650000D02*
X-6700000Y-11650000D01*
X-6700000Y-11650000D02*
X-15700000Y-11650000D01*
X-15700000Y-11650000D02*
X-15700000Y-10650000D01*
D12*
X-1113910Y-1060000D02*
G75*
G03X-1113910Y-1060000I-356090J0D01*
G01*
D13*
X-3233980Y-1885000D02*
X10034980Y-1885000D01*
X10034980Y-1885000D02*
X10034980Y11383960D01*
X10034980Y11383960D02*
X-3233980Y11383960D01*
X-3233980Y11383960D02*
X-3233980Y-1885000D01*
D14*
X-21130000Y-1400000D02*
X-19030000Y-1400000D01*
X-21130000Y-1400000D02*
X-21130000Y5600000D01*
X-21130000Y5600000D02*
X-19030000Y5600000D01*
X-19030000Y5600000D02*
X-19030000Y-1400000D01*
D12*
X-6700000Y-1475000D02*
X-7700000Y-1475000D01*
X-7700000Y-125000D02*
X-6700000Y-125000D01*
X-20300000Y-9575000D02*
X-19300000Y-9575000D01*
X-19300000Y-10925000D02*
X-20300000Y-10925000D01*
X-11950000Y-1400000D02*
X-12650000Y-1400000D01*
X-12650000Y-200000D02*
X-11950000Y-200000D01*
X20600000Y16650000D02*
X20600000Y15950000D01*
X19400000Y15950000D02*
X19400000Y16650000D01*
X7050000Y13500000D02*
X7750000Y13500000D01*
X7750000Y12300000D02*
X7050000Y12300000D01*
X-13250000Y12300000D02*
X-13950000Y12300000D01*
X-13950000Y13500000D02*
X-13250000Y13500000D01*
X-14700000Y6750000D02*
X-14700000Y7450000D01*
X-13500000Y7450000D02*
X-13500000Y6750000D01*
D11*
X-24001160Y-2500080D02*
X-24001160Y-6299920D01*
X-17300640Y-2500080D02*
X-22299360Y-2500080D01*
X-17303180Y-6299920D02*
X-22301900Y-6299920D01*
D12*
X-4500000Y9650000D02*
X-4500000Y8950000D01*
X-5700000Y8950000D02*
X-5700000Y9650000D01*
X-350000Y13500000D02*
X350000Y13500000D01*
X350000Y12300000D02*
X-350000Y12300000D01*
X12450000Y4450000D02*
X12450000Y3750000D01*
X11250000Y3750000D02*
X11250000Y4450000D01*
D11*
X-15998840Y6800080D02*
X-15998840Y10599920D01*
X-22699360Y6800080D02*
X-17700640Y6800080D01*
X-22696820Y10599920D02*
X-17698100Y10599920D01*
X-9750000Y9200000D02*
X-9750000Y2900000D01*
X-7450000Y6050000D02*
X-12050000Y6050000D01*
X-10700000Y10100000D02*
G75*
G03X-10700000Y10100000I-500000J0D01*
G01*
X22350000Y5150000D02*
X22350000Y3700000D01*
D12*
X20800000Y3725000D02*
X19800000Y3725000D01*
X19800000Y5075000D02*
X20800000Y5075000D01*
D11*
X22350000Y9150000D02*
X22350000Y7700000D01*
D12*
X20800000Y7725000D02*
X19800000Y7725000D01*
X19800000Y9075000D02*
X20800000Y9075000D01*
D11*
X22350000Y13250000D02*
X22350000Y11800000D01*
D12*
X20800000Y11825000D02*
X19800000Y11825000D01*
X19800000Y13175000D02*
X20800000Y13175000D01*
X15100000Y5075000D02*
X16100000Y5075000D01*
X16100000Y3725000D02*
X15100000Y3725000D01*
X15100000Y9075000D02*
X16100000Y9075000D01*
X16100000Y7725000D02*
X15100000Y7725000D01*
X15100000Y13175000D02*
X16100000Y13175000D01*
X16100000Y11825000D02*
X15100000Y11825000D01*
D11*
X22350000Y-450000D02*
X22350000Y-1900000D01*
D12*
X20800000Y-1875000D02*
X19800000Y-1875000D01*
X19800000Y-525000D02*
X20800000Y-525000D01*
X15100000Y-525000D02*
X16100000Y-525000D01*
X16100000Y-1875000D02*
X15100000Y-1875000D01*
X13150000Y-23625000D02*
X14150000Y-23625000D01*
X14150000Y-24975000D02*
X13150000Y-24975000D01*
X15575000Y-17600000D02*
X15575000Y-18600000D01*
X14225000Y-18600000D02*
X14225000Y-17600000D01*
X13175000Y-17600000D02*
X13175000Y-18600000D01*
X11825000Y-18600000D02*
X11825000Y-17600000D01*
D11*
X3700000Y-10900000D02*
X3700000Y-13050000D01*
X3700000Y-9650000D02*
X2450000Y-10900000D01*
X3700000Y-7700000D02*
X3700000Y-9600000D01*
X1100000Y-7750000D02*
X1100000Y-9650000D01*
X1100000Y-9650000D02*
X-150000Y-10900000D01*
X1100000Y-10900000D02*
X1100000Y-13050000D01*
X-1400000Y-7750000D02*
X-1400000Y-9700000D01*
X-1400000Y-9700000D02*
X-2600000Y-10900000D01*
X-1400000Y-10900000D02*
X-1400000Y-13150000D01*
X4600000Y-5850000D02*
X7350000Y-5850000D01*
X7350000Y-5850000D02*
X7350000Y-14800000D01*
X7350000Y-14800000D02*
X4600000Y-14800000D01*
X-2400000Y-5900000D02*
X-5050000Y-5900000D01*
X-5050000Y-5900000D02*
X-5050000Y-14800000D01*
X-5050000Y-14800000D02*
X-2200000Y-14800000D01*
X-13307142Y-20478571D02*
X-13307142Y-18978571D01*
X-12735714Y-18978571D01*
X-12592856Y-19050000D01*
X-12521428Y-19121429D01*
X-12449999Y-19264286D01*
X-12449999Y-19478571D01*
X-12521428Y-19621429D01*
X-12592856Y-19692857D01*
X-12735714Y-19764286D01*
X-13307142Y-19764286D01*
X-11164285Y-19478571D02*
X-11164285Y-20478571D01*
X-11521428Y-18907143D02*
X-11878571Y-19978571D01*
X-10949999Y-19978571D01*
X-18507142Y-17278571D02*
X-18507142Y-15778571D01*
X-17935714Y-15778571D01*
X-17792856Y-15850000D01*
X-17721428Y-15921429D01*
X-17649999Y-16064286D01*
X-17649999Y-16278571D01*
X-17721428Y-16421429D01*
X-17792856Y-16492857D01*
X-17935714Y-16564286D01*
X-18507142Y-16564286D01*
X-17149999Y-15778571D02*
X-16221428Y-15778571D01*
X-16721428Y-16350000D01*
X-16507142Y-16350000D01*
X-16364285Y-16421429D01*
X-16292856Y-16492857D01*
X-16221428Y-16635714D01*
X-16221428Y-16992857D01*
X-16292856Y-17135714D01*
X-16364285Y-17207143D01*
X-16507142Y-17278571D01*
X-16935714Y-17278571D01*
X-17078571Y-17207143D01*
X-17149999Y-17135714D01*
X-13242857Y24721429D02*
X-13242857Y23507143D01*
X-13171429Y23364286D01*
X-13100000Y23292857D01*
X-12957143Y23221429D01*
X-12671429Y23221429D01*
X-12528571Y23292857D01*
X-12457143Y23364286D01*
X-12385714Y23507143D01*
X-12385714Y24721429D01*
X-11028571Y24221429D02*
X-11028571Y23221429D01*
X-11385714Y24792857D02*
X-11742857Y23721429D01*
X-10814285Y23721429D01*
X-1142857Y24821429D02*
X-1142857Y23607143D01*
X-1071429Y23464286D01*
X-1000000Y23392857D01*
X-857143Y23321429D01*
X-571429Y23321429D01*
X-428571Y23392857D01*
X-357143Y23464286D01*
X-285714Y23607143D01*
X-285714Y24821429D01*
X1142858Y24821429D02*
X428572Y24821429D01*
X357143Y24107143D01*
X428572Y24178571D01*
X571429Y24250000D01*
X928572Y24250000D01*
X1071429Y24178571D01*
X1142858Y24107143D01*
X1214286Y23964286D01*
X1214286Y23607143D01*
X1142858Y23464286D01*
X1071429Y23392857D01*
X928572Y23321429D01*
X571429Y23321429D01*
X428572Y23392857D01*
X357143Y23464286D01*
X10957143Y24721429D02*
X10957143Y23507143D01*
X11028571Y23364286D01*
X11100000Y23292857D01*
X11242857Y23221429D01*
X11528571Y23221429D01*
X11671429Y23292857D01*
X11742857Y23364286D01*
X11814286Y23507143D01*
X11814286Y24721429D01*
X13171429Y24721429D02*
X12885715Y24721429D01*
X12742858Y24650000D01*
X12671429Y24578571D01*
X12528572Y24364286D01*
X12457143Y24078571D01*
X12457143Y23507143D01*
X12528572Y23364286D01*
X12600000Y23292857D01*
X12742858Y23221429D01*
X13028572Y23221429D01*
X13171429Y23292857D01*
X13242858Y23364286D01*
X13314286Y23507143D01*
X13314286Y23864286D01*
X13242858Y24007143D01*
X13171429Y24078571D01*
X13028572Y24150000D01*
X12742858Y24150000D01*
X12600000Y24078571D01*
X12528572Y24007143D01*
X12457143Y23864286D01*
X21492858Y-6378571D02*
X21492858Y-4878571D01*
X22064286Y-4878571D01*
X22207144Y-4950000D01*
X22278572Y-5021429D01*
X22350001Y-5164286D01*
X22350001Y-5378571D01*
X22278572Y-5521429D01*
X22207144Y-5592857D01*
X22064286Y-5664286D01*
X21492858Y-5664286D01*
X23707144Y-4878571D02*
X22992858Y-4878571D01*
X22921429Y-5592857D01*
X22992858Y-5521429D01*
X23135715Y-5450000D01*
X23492858Y-5450000D01*
X23635715Y-5521429D01*
X23707144Y-5592857D01*
X23778572Y-5735714D01*
X23778572Y-6092857D01*
X23707144Y-6235714D01*
X23635715Y-6307143D01*
X23492858Y-6378571D01*
X23135715Y-6378571D01*
X22992858Y-6307143D01*
X22921429Y-6235714D01*
X14550000Y-4878571D02*
X14550000Y-5950000D01*
X14478572Y-6164286D01*
X14335715Y-6307143D01*
X14121429Y-6378571D01*
X13978572Y-6378571D01*
X15050000Y-4878571D02*
X15907143Y-4878571D01*
X15478572Y-6378571D02*
X15478572Y-4878571D01*
X16335714Y-5950000D02*
X17050000Y-5950000D01*
X16192857Y-6378571D02*
X16692857Y-4878571D01*
X17192857Y-6378571D01*
X18478571Y-4950000D02*
X18335714Y-4878571D01*
X18121428Y-4878571D01*
X17907143Y-4950000D01*
X17764285Y-5092857D01*
X17692857Y-5235714D01*
X17621428Y-5521429D01*
X17621428Y-5735714D01*
X17692857Y-6021429D01*
X17764285Y-6164286D01*
X17907143Y-6307143D01*
X18121428Y-6378571D01*
X18264285Y-6378571D01*
X18478571Y-6307143D01*
X18550000Y-6235714D01*
X18550000Y-5735714D01*
X18264285Y-5735714D01*
X10007143Y-16199999D02*
X10007143Y-15057142D01*
X10578571Y-15628571D02*
X9435714Y-15628571D01*
X9078571Y-14485713D02*
X9078571Y-13557142D01*
X9650000Y-14057142D01*
X9650000Y-13842856D01*
X9721429Y-13699999D01*
X9792857Y-13628570D01*
X9935714Y-13557142D01*
X10292857Y-13557142D01*
X10435714Y-13628570D01*
X10507143Y-13699999D01*
X10578571Y-13842856D01*
X10578571Y-14271428D01*
X10507143Y-14414285D01*
X10435714Y-14485713D01*
X10435714Y-12914285D02*
X10507143Y-12842857D01*
X10578571Y-12914285D01*
X10507143Y-12985714D01*
X10435714Y-12914285D01*
X10578571Y-12914285D01*
X9078571Y-12342856D02*
X9078571Y-11414285D01*
X9650000Y-11914285D01*
X9650000Y-11699999D01*
X9721429Y-11557142D01*
X9792857Y-11485713D01*
X9935714Y-11414285D01*
X10292857Y-11414285D01*
X10435714Y-11485713D01*
X10507143Y-11557142D01*
X10578571Y-11699999D01*
X10578571Y-12128571D01*
X10507143Y-12271428D01*
X10435714Y-12342856D01*
X9078571Y-10985714D02*
X10578571Y-10485714D01*
X9078571Y-9985714D01*
X11700000Y-13742857D02*
X11628571Y-13885714D01*
X11628571Y-14100000D01*
X11700000Y-14314285D01*
X11842857Y-14457143D01*
X11985714Y-14528571D01*
X12271429Y-14600000D01*
X12485714Y-14600000D01*
X12771429Y-14528571D01*
X12914286Y-14457143D01*
X13057143Y-14314285D01*
X13128571Y-14100000D01*
X13128571Y-13957143D01*
X13057143Y-13742857D01*
X12985714Y-13671428D01*
X12485714Y-13671428D01*
X12485714Y-13957143D01*
X13128571Y-13028571D02*
X11628571Y-13028571D01*
X13128571Y-12171428D01*
X11628571Y-12171428D01*
X13128571Y-11457142D02*
X11628571Y-11457142D01*
X11628571Y-11099999D01*
X11700000Y-10885714D01*
X11842857Y-10742856D01*
X11985714Y-10671428D01*
X12271429Y-10599999D01*
X12485714Y-10599999D01*
X12771429Y-10671428D01*
X12914286Y-10742856D01*
X13057143Y-10885714D01*
X13128571Y-11099999D01*
X13128571Y-11457142D01*
X14228571Y-14478571D02*
X14228571Y-13621428D01*
X15728571Y-14049999D02*
X14228571Y-14049999D01*
X15585714Y-12264285D02*
X15657143Y-12335714D01*
X15728571Y-12550000D01*
X15728571Y-12692857D01*
X15657143Y-12907142D01*
X15514286Y-13050000D01*
X15371429Y-13121428D01*
X15085714Y-13192857D01*
X14871429Y-13192857D01*
X14585714Y-13121428D01*
X14442857Y-13050000D01*
X14300000Y-12907142D01*
X14228571Y-12692857D01*
X14228571Y-12550000D01*
X14300000Y-12335714D01*
X14371429Y-12264285D01*
X15728571Y-11621428D02*
X14228571Y-11621428D01*
X15728571Y-10764285D02*
X14871429Y-11407142D01*
X14228571Y-10764285D02*
X15085714Y-11621428D01*
X16778571Y-14514286D02*
X16778571Y-13657143D01*
X18278571Y-14085714D02*
X16778571Y-14085714D01*
X18278571Y-13157143D02*
X16778571Y-13157143D01*
X16778571Y-12800000D01*
X16850000Y-12585715D01*
X16992857Y-12442857D01*
X17135714Y-12371429D01*
X17421429Y-12300000D01*
X17635714Y-12300000D01*
X17921429Y-12371429D01*
X18064286Y-12442857D01*
X18207143Y-12585715D01*
X18278571Y-12800000D01*
X18278571Y-13157143D01*
X16778571Y-11371429D02*
X16778571Y-11085715D01*
X16850000Y-10942857D01*
X16992857Y-10800000D01*
X17278571Y-10728572D01*
X17778571Y-10728572D01*
X18064286Y-10800000D01*
X18207143Y-10942857D01*
X18278571Y-11085715D01*
X18278571Y-11371429D01*
X18207143Y-11514286D01*
X18064286Y-11657143D01*
X17778571Y-11728572D01*
X17278571Y-11728572D01*
X16992857Y-11657143D01*
X16850000Y-11514286D01*
X16778571Y-11371429D01*
X19328571Y-14085714D02*
X19328571Y-13228571D01*
X20828571Y-13657142D02*
X19328571Y-13657142D01*
X20828571Y-12728571D02*
X19328571Y-12728571D01*
X19328571Y-12371428D01*
X19400000Y-12157143D01*
X19542857Y-12014285D01*
X19685714Y-11942857D01*
X19971429Y-11871428D01*
X20185714Y-11871428D01*
X20471429Y-11942857D01*
X20614286Y-12014285D01*
X20757143Y-12157143D01*
X20828571Y-12371428D01*
X20828571Y-12728571D01*
X20828571Y-11228571D02*
X19328571Y-11228571D01*
X21778571Y-14450000D02*
X21778571Y-13592857D01*
X23278571Y-14021428D02*
X21778571Y-14021428D01*
X23278571Y-13092857D02*
X21778571Y-13092857D01*
X22850000Y-12592857D01*
X21778571Y-12092857D01*
X23278571Y-12092857D01*
X23207143Y-11450000D02*
X23278571Y-11235714D01*
X23278571Y-10878571D01*
X23207143Y-10735714D01*
X23135714Y-10664285D01*
X22992857Y-10592857D01*
X22850000Y-10592857D01*
X22707143Y-10664285D01*
X22635714Y-10735714D01*
X22564286Y-10878571D01*
X22492857Y-11164285D01*
X22421429Y-11307143D01*
X22350000Y-11378571D01*
X22207143Y-11450000D01*
X22064286Y-11450000D01*
X21921429Y-11378571D01*
X21850000Y-11307143D01*
X21778571Y-11164285D01*
X21778571Y-10807143D01*
X21850000Y-10592857D01*
X-14692857Y-16078571D02*
X-14692857Y-17292857D01*
X-14621429Y-17435714D01*
X-14550000Y-17507143D01*
X-14407143Y-17578571D01*
X-14121429Y-17578571D01*
X-13978571Y-17507143D01*
X-13907143Y-17435714D01*
X-13835714Y-17292857D01*
X-13835714Y-16078571D01*
X-13264285Y-16078571D02*
X-12264285Y-16078571D01*
X-12907142Y-17578571D01*
X-6192857Y3971429D02*
X-6192857Y2757143D01*
X-6121429Y2614286D01*
X-6050000Y2542857D01*
X-5907143Y2471429D01*
X-5621429Y2471429D01*
X-5478571Y2542857D01*
X-5407143Y2614286D01*
X-5335714Y2757143D01*
X-5335714Y3971429D01*
X-4764285Y3971429D02*
X-3835714Y3971429D01*
X-4335714Y3400000D01*
X-4121428Y3400000D01*
X-3978571Y3328571D01*
X-3907142Y3257143D01*
X-3835714Y3114286D01*
X-3835714Y2757143D01*
X-3907142Y2614286D01*
X-3978571Y2542857D01*
X-4121428Y2471429D01*
X-4550000Y2471429D01*
X-4692857Y2542857D01*
X-4764285Y2614286D01*
X-24042857Y5921429D02*
X-24042857Y4707143D01*
X-23971429Y4564286D01*
X-23900000Y4492857D01*
X-23757143Y4421429D01*
X-23471429Y4421429D01*
X-23328571Y4492857D01*
X-23257143Y4564286D01*
X-23185714Y4707143D01*
X-23185714Y5921429D01*
X-21685714Y4421429D02*
X-22542857Y4421429D01*
X-22114285Y4421429D02*
X-22114285Y5921429D01*
X-22257142Y5707143D01*
X-22400000Y5564286D01*
X-22542857Y5492857D01*
X-7449999Y271429D02*
X-7949999Y985714D01*
X-8307142Y271429D02*
X-8307142Y1771429D01*
X-7735714Y1771429D01*
X-7592856Y1700000D01*
X-7521428Y1628571D01*
X-7449999Y1485714D01*
X-7449999Y1271429D01*
X-7521428Y1128571D01*
X-7592856Y1057143D01*
X-7735714Y985714D01*
X-8307142Y985714D01*
X-6092856Y1771429D02*
X-6807142Y1771429D01*
X-6878571Y1057143D01*
X-6807142Y1128571D01*
X-6664285Y1200000D01*
X-6307142Y1200000D01*
X-6164285Y1128571D01*
X-6092856Y1057143D01*
X-6021428Y914286D01*
X-6021428Y557143D01*
X-6092856Y414286D01*
X-6164285Y342857D01*
X-6307142Y271429D01*
X-6664285Y271429D01*
X-6807142Y342857D01*
X-6878571Y414286D01*
X-23549999Y-10928571D02*
X-24049999Y-10214286D01*
X-24407142Y-10928571D02*
X-24407142Y-9428571D01*
X-23835714Y-9428571D01*
X-23692856Y-9500000D01*
X-23621428Y-9571429D01*
X-23549999Y-9714286D01*
X-23549999Y-9928571D01*
X-23621428Y-10071429D01*
X-23692856Y-10142857D01*
X-23835714Y-10214286D01*
X-24407142Y-10214286D01*
X-22121428Y-10928571D02*
X-22978571Y-10928571D01*
X-22549999Y-10928571D02*
X-22549999Y-9428571D01*
X-22692856Y-9642857D01*
X-22835714Y-9785714D01*
X-22978571Y-9857143D01*
X-13264285Y364286D02*
X-13335714Y292857D01*
X-13550000Y221429D01*
X-13692857Y221429D01*
X-13907142Y292857D01*
X-14050000Y435714D01*
X-14121428Y578571D01*
X-14192857Y864286D01*
X-14192857Y1078571D01*
X-14121428Y1364286D01*
X-14050000Y1507143D01*
X-13907142Y1650000D01*
X-13692857Y1721429D01*
X-13550000Y1721429D01*
X-13335714Y1650000D01*
X-13264285Y1578571D01*
X-11835714Y221429D02*
X-12692857Y221429D01*
X-12264285Y221429D02*
X-12264285Y1721429D01*
X-12407142Y1507143D01*
X-12550000Y1364286D01*
X-12692857Y1292857D01*
X-10907143Y1721429D02*
X-10764286Y1721429D01*
X-10621429Y1650000D01*
X-10550000Y1578571D01*
X-10478571Y1435714D01*
X-10407143Y1150000D01*
X-10407143Y792857D01*
X-10478571Y507143D01*
X-10550000Y364286D01*
X-10621429Y292857D01*
X-10764286Y221429D01*
X-10907143Y221429D01*
X-11050000Y292857D01*
X-11121429Y364286D01*
X-11192857Y507143D01*
X-11264286Y792857D01*
X-11264286Y1150000D01*
X-11192857Y1435714D01*
X-11121429Y1578571D01*
X-11050000Y1650000D01*
X-10907143Y1721429D01*
X22050001Y16764286D02*
X21978572Y16692857D01*
X21764286Y16621429D01*
X21621429Y16621429D01*
X21407144Y16692857D01*
X21264286Y16835714D01*
X21192858Y16978571D01*
X21121429Y17264286D01*
X21121429Y17478571D01*
X21192858Y17764286D01*
X21264286Y17907143D01*
X21407144Y18050000D01*
X21621429Y18121429D01*
X21764286Y18121429D01*
X21978572Y18050000D01*
X22050001Y17978571D01*
X22764286Y16621429D02*
X23050001Y16621429D01*
X23192858Y16692857D01*
X23264286Y16764286D01*
X23407144Y16978571D01*
X23478572Y17264286D01*
X23478572Y17835714D01*
X23407144Y17978571D01*
X23335715Y18050000D01*
X23192858Y18121429D01*
X22907144Y18121429D01*
X22764286Y18050000D01*
X22692858Y17978571D01*
X22621429Y17835714D01*
X22621429Y17478571D01*
X22692858Y17335714D01*
X22764286Y17264286D01*
X22907144Y17192857D01*
X23192858Y17192857D01*
X23335715Y17264286D01*
X23407144Y17335714D01*
X23478572Y17478571D01*
X10450001Y12364286D02*
X10378572Y12292857D01*
X10164286Y12221429D01*
X10021429Y12221429D01*
X9807144Y12292857D01*
X9664286Y12435714D01*
X9592858Y12578571D01*
X9521429Y12864286D01*
X9521429Y13078571D01*
X9592858Y13364286D01*
X9664286Y13507143D01*
X9807144Y13650000D01*
X10021429Y13721429D01*
X10164286Y13721429D01*
X10378572Y13650000D01*
X10450001Y13578571D01*
X11307144Y13078571D02*
X11164286Y13150000D01*
X11092858Y13221429D01*
X11021429Y13364286D01*
X11021429Y13435714D01*
X11092858Y13578571D01*
X11164286Y13650000D01*
X11307144Y13721429D01*
X11592858Y13721429D01*
X11735715Y13650000D01*
X11807144Y13578571D01*
X11878572Y13435714D01*
X11878572Y13364286D01*
X11807144Y13221429D01*
X11735715Y13150000D01*
X11592858Y13078571D01*
X11307144Y13078571D01*
X11164286Y13007143D01*
X11092858Y12935714D01*
X11021429Y12792857D01*
X11021429Y12507143D01*
X11092858Y12364286D01*
X11164286Y12292857D01*
X11307144Y12221429D01*
X11592858Y12221429D01*
X11735715Y12292857D01*
X11807144Y12364286D01*
X11878572Y12507143D01*
X11878572Y12792857D01*
X11807144Y12935714D01*
X11735715Y13007143D01*
X11592858Y13078571D01*
X-10449999Y12464286D02*
X-10521428Y12392857D01*
X-10735714Y12321429D01*
X-10878571Y12321429D01*
X-11092856Y12392857D01*
X-11235714Y12535714D01*
X-11307142Y12678571D01*
X-11378571Y12964286D01*
X-11378571Y13178571D01*
X-11307142Y13464286D01*
X-11235714Y13607143D01*
X-11092856Y13750000D01*
X-10878571Y13821429D01*
X-10735714Y13821429D01*
X-10521428Y13750000D01*
X-10449999Y13678571D01*
X-9949999Y13821429D02*
X-8949999Y13821429D01*
X-9592856Y12321429D01*
X-13564286Y3450001D02*
X-13492857Y3378572D01*
X-13421429Y3164286D01*
X-13421429Y3021429D01*
X-13492857Y2807144D01*
X-13635714Y2664286D01*
X-13778571Y2592858D01*
X-14064286Y2521429D01*
X-14278571Y2521429D01*
X-14564286Y2592858D01*
X-14707143Y2664286D01*
X-14850000Y2807144D01*
X-14921429Y3021429D01*
X-14921429Y3164286D01*
X-14850000Y3378572D01*
X-14778571Y3450001D01*
X-14921429Y4735715D02*
X-14921429Y4450001D01*
X-14850000Y4307144D01*
X-14778571Y4235715D01*
X-14564286Y4092858D01*
X-14278571Y4021429D01*
X-13707143Y4021429D01*
X-13564286Y4092858D01*
X-13492857Y4164286D01*
X-13421429Y4307144D01*
X-13421429Y4592858D01*
X-13492857Y4735715D01*
X-13564286Y4807144D01*
X-13707143Y4878572D01*
X-14064286Y4878572D01*
X-14207143Y4807144D01*
X-14278571Y4735715D01*
X-14350000Y4592858D01*
X-14350000Y4307144D01*
X-14278571Y4164286D01*
X-14207143Y4092858D01*
X-14064286Y4021429D01*
X-20049999Y-8135714D02*
X-20121428Y-8207143D01*
X-20335714Y-8278571D01*
X-20478571Y-8278571D01*
X-20692856Y-8207143D01*
X-20835714Y-8064286D01*
X-20907142Y-7921429D01*
X-20978571Y-7635714D01*
X-20978571Y-7421429D01*
X-20907142Y-7135714D01*
X-20835714Y-6992857D01*
X-20692856Y-6850000D01*
X-20478571Y-6778571D01*
X-20335714Y-6778571D01*
X-20121428Y-6850000D01*
X-20049999Y-6921429D01*
X-18692856Y-6778571D02*
X-19407142Y-6778571D01*
X-19478571Y-7492857D01*
X-19407142Y-7421429D01*
X-19264285Y-7350000D01*
X-18907142Y-7350000D01*
X-18764285Y-7421429D01*
X-18692856Y-7492857D01*
X-18621428Y-7635714D01*
X-18621428Y-7992857D01*
X-18692856Y-8135714D01*
X-18764285Y-8207143D01*
X-18907142Y-8278571D01*
X-19264285Y-8278571D01*
X-19407142Y-8207143D01*
X-19478571Y-8135714D01*
X-23771428Y-6707143D02*
X-22628571Y-6707143D01*
X-23200000Y-7278571D02*
X-23200000Y-6135714D01*
X-4564286Y5650001D02*
X-4492857Y5578572D01*
X-4421429Y5364286D01*
X-4421429Y5221429D01*
X-4492857Y5007144D01*
X-4635714Y4864286D01*
X-4778571Y4792858D01*
X-5064286Y4721429D01*
X-5278571Y4721429D01*
X-5564286Y4792858D01*
X-5707143Y4864286D01*
X-5850000Y5007144D01*
X-5921429Y5221429D01*
X-5921429Y5364286D01*
X-5850000Y5578572D01*
X-5778571Y5650001D01*
X-5421429Y6935715D02*
X-4421429Y6935715D01*
X-5992857Y6578572D02*
X-4921429Y6221429D01*
X-4921429Y7150001D01*
X3050001Y12364286D02*
X2978572Y12292857D01*
X2764286Y12221429D01*
X2621429Y12221429D01*
X2407144Y12292857D01*
X2264286Y12435714D01*
X2192858Y12578571D01*
X2121429Y12864286D01*
X2121429Y13078571D01*
X2192858Y13364286D01*
X2264286Y13507143D01*
X2407144Y13650000D01*
X2621429Y13721429D01*
X2764286Y13721429D01*
X2978572Y13650000D01*
X3050001Y13578571D01*
X3550001Y13721429D02*
X4478572Y13721429D01*
X3978572Y13150000D01*
X4192858Y13150000D01*
X4335715Y13078571D01*
X4407144Y13007143D01*
X4478572Y12864286D01*
X4478572Y12507143D01*
X4407144Y12364286D01*
X4335715Y12292857D01*
X4192858Y12221429D01*
X3764286Y12221429D01*
X3621429Y12292857D01*
X3550001Y12364286D01*
X12385714Y550001D02*
X12457143Y478572D01*
X12528571Y264286D01*
X12528571Y121429D01*
X12457143Y-92856D01*
X12314286Y-235714D01*
X12171429Y-307142D01*
X11885714Y-378571D01*
X11671429Y-378571D01*
X11385714Y-307142D01*
X11242857Y-235714D01*
X11100000Y-92856D01*
X11028571Y121429D01*
X11028571Y264286D01*
X11100000Y478572D01*
X11171429Y550001D01*
X11171429Y1121429D02*
X11100000Y1192858D01*
X11028571Y1335715D01*
X11028571Y1692858D01*
X11100000Y1835715D01*
X11171429Y1907144D01*
X11314286Y1978572D01*
X11457143Y1978572D01*
X11671429Y1907144D01*
X12528571Y1050001D01*
X12528571Y1978572D01*
X-20449999Y11164286D02*
X-20521428Y11092857D01*
X-20735714Y11021429D01*
X-20878571Y11021429D01*
X-21092856Y11092857D01*
X-21235714Y11235714D01*
X-21307142Y11378571D01*
X-21378571Y11664286D01*
X-21378571Y11878571D01*
X-21307142Y12164286D01*
X-21235714Y12307143D01*
X-21092856Y12450000D01*
X-20878571Y12521429D01*
X-20735714Y12521429D01*
X-20521428Y12450000D01*
X-20449999Y12378571D01*
X-19021428Y11021429D02*
X-19878571Y11021429D01*
X-19449999Y11021429D02*
X-19449999Y12521429D01*
X-19592856Y12307143D01*
X-19735714Y12164286D01*
X-19878571Y12092857D01*
X-17471428Y11092857D02*
X-16328571Y11092857D01*
X-16900000Y10521429D02*
X-16900000Y11664286D01*
X-10042857Y11621429D02*
X-10042857Y10407143D01*
X-9971429Y10264286D01*
X-9900000Y10192857D01*
X-9757143Y10121429D01*
X-9471429Y10121429D01*
X-9328571Y10192857D01*
X-9257143Y10264286D01*
X-9185714Y10407143D01*
X-9185714Y11621429D01*
X-8542857Y11478571D02*
X-8471428Y11550000D01*
X-8328571Y11621429D01*
X-7971428Y11621429D01*
X-7828571Y11550000D01*
X-7757142Y11478571D01*
X-7685714Y11335714D01*
X-7685714Y11192857D01*
X-7757142Y10978571D01*
X-8614285Y10121429D01*
X-7685714Y10121429D01*
X19192858Y1821429D02*
X19192858Y3321429D01*
X19550001Y3321429D01*
X19764286Y3250000D01*
X19907144Y3107143D01*
X19978572Y2964286D01*
X20050001Y2678571D01*
X20050001Y2464286D01*
X19978572Y2178571D01*
X19907144Y2035714D01*
X19764286Y1892857D01*
X19550001Y1821429D01*
X19192858Y1821429D01*
X21478572Y1821429D02*
X20621429Y1821429D01*
X21050001Y1821429D02*
X21050001Y3321429D01*
X20907144Y3107143D01*
X20764286Y2964286D01*
X20621429Y2892857D01*
X19192858Y5821429D02*
X19192858Y7321429D01*
X19550001Y7321429D01*
X19764286Y7250000D01*
X19907144Y7107143D01*
X19978572Y6964286D01*
X20050001Y6678571D01*
X20050001Y6464286D01*
X19978572Y6178571D01*
X19907144Y6035714D01*
X19764286Y5892857D01*
X19550001Y5821429D01*
X19192858Y5821429D01*
X20621429Y7178571D02*
X20692858Y7250000D01*
X20835715Y7321429D01*
X21192858Y7321429D01*
X21335715Y7250000D01*
X21407144Y7178571D01*
X21478572Y7035714D01*
X21478572Y6892857D01*
X21407144Y6678571D01*
X20550001Y5821429D01*
X21478572Y5821429D01*
X19192858Y9821429D02*
X19192858Y11321429D01*
X19550001Y11321429D01*
X19764286Y11250000D01*
X19907144Y11107143D01*
X19978572Y10964286D01*
X20050001Y10678571D01*
X20050001Y10464286D01*
X19978572Y10178571D01*
X19907144Y10035714D01*
X19764286Y9892857D01*
X19550001Y9821429D01*
X19192858Y9821429D01*
X20550001Y11321429D02*
X21478572Y11321429D01*
X20978572Y10750000D01*
X21192858Y10750000D01*
X21335715Y10678571D01*
X21407144Y10607143D01*
X21478572Y10464286D01*
X21478572Y10107143D01*
X21407144Y9964286D01*
X21335715Y9892857D01*
X21192858Y9821429D01*
X20764286Y9821429D01*
X20621429Y9892857D01*
X20550001Y9964286D01*
X15350001Y1821429D02*
X14850001Y2535714D01*
X14492858Y1821429D02*
X14492858Y3321429D01*
X15064286Y3321429D01*
X15207144Y3250000D01*
X15278572Y3178571D01*
X15350001Y3035714D01*
X15350001Y2821429D01*
X15278572Y2678571D01*
X15207144Y2607143D01*
X15064286Y2535714D01*
X14492858Y2535714D01*
X15921429Y3178571D02*
X15992858Y3250000D01*
X16135715Y3321429D01*
X16492858Y3321429D01*
X16635715Y3250000D01*
X16707144Y3178571D01*
X16778572Y3035714D01*
X16778572Y2892857D01*
X16707144Y2678571D01*
X15850001Y1821429D01*
X16778572Y1821429D01*
X15350001Y5821429D02*
X14850001Y6535714D01*
X14492858Y5821429D02*
X14492858Y7321429D01*
X15064286Y7321429D01*
X15207144Y7250000D01*
X15278572Y7178571D01*
X15350001Y7035714D01*
X15350001Y6821429D01*
X15278572Y6678571D01*
X15207144Y6607143D01*
X15064286Y6535714D01*
X14492858Y6535714D01*
X15850001Y7321429D02*
X16778572Y7321429D01*
X16278572Y6750000D01*
X16492858Y6750000D01*
X16635715Y6678571D01*
X16707144Y6607143D01*
X16778572Y6464286D01*
X16778572Y6107143D01*
X16707144Y5964286D01*
X16635715Y5892857D01*
X16492858Y5821429D01*
X16064286Y5821429D01*
X15921429Y5892857D01*
X15850001Y5964286D01*
X15350001Y9821429D02*
X14850001Y10535714D01*
X14492858Y9821429D02*
X14492858Y11321429D01*
X15064286Y11321429D01*
X15207144Y11250000D01*
X15278572Y11178571D01*
X15350001Y11035714D01*
X15350001Y10821429D01*
X15278572Y10678571D01*
X15207144Y10607143D01*
X15064286Y10535714D01*
X14492858Y10535714D01*
X16635715Y10821429D02*
X16635715Y9821429D01*
X16278572Y11392857D02*
X15921429Y10321429D01*
X16850001Y10321429D01*
X19192858Y-128571D02*
X19192858Y1371429D01*
X19550001Y1371429D01*
X19764286Y1300000D01*
X19907144Y1157143D01*
X19978572Y1014286D01*
X20050001Y728571D01*
X20050001Y514286D01*
X19978572Y228571D01*
X19907144Y85714D01*
X19764286Y-57143D01*
X19550001Y-128571D01*
X19192858Y-128571D01*
X21335715Y871429D02*
X21335715Y-128571D01*
X20978572Y1442857D02*
X20621429Y371429D01*
X21550001Y371429D01*
X15400001Y-128571D02*
X14900001Y585714D01*
X14542858Y-128571D02*
X14542858Y1371429D01*
X15114286Y1371429D01*
X15257144Y1300000D01*
X15328572Y1228571D01*
X15400001Y1085714D01*
X15400001Y871429D01*
X15328572Y728571D01*
X15257144Y657143D01*
X15114286Y585714D01*
X14542858Y585714D01*
X16685715Y1371429D02*
X16400001Y1371429D01*
X16257144Y1300000D01*
X16185715Y1228571D01*
X16042858Y1014286D01*
X15971429Y728571D01*
X15971429Y157143D01*
X16042858Y14286D01*
X16114286Y-57143D01*
X16257144Y-128571D01*
X16542858Y-128571D01*
X16685715Y-57143D01*
X16757144Y14286D01*
X16828572Y157143D01*
X16828572Y514286D01*
X16757144Y657143D01*
X16685715Y728571D01*
X16542858Y800000D01*
X16257144Y800000D01*
X16114286Y728571D01*
X16042858Y657143D01*
X15971429Y514286D01*
X16900001Y-25028571D02*
X16400001Y-24314286D01*
X16042858Y-25028571D02*
X16042858Y-23528571D01*
X16614286Y-23528571D01*
X16757144Y-23600000D01*
X16828572Y-23671429D01*
X16900001Y-23814286D01*
X16900001Y-24028571D01*
X16828572Y-24171429D01*
X16757144Y-24242857D01*
X16614286Y-24314286D01*
X16042858Y-24314286D01*
X17400001Y-23528571D02*
X18400001Y-23528571D01*
X17757144Y-25028571D01*
X15628571Y-21799999D02*
X14914286Y-22299999D01*
X15628571Y-22657142D02*
X14128571Y-22657142D01*
X14128571Y-22085714D01*
X14200000Y-21942856D01*
X14271429Y-21871428D01*
X14414286Y-21799999D01*
X14628571Y-21799999D01*
X14771429Y-21871428D01*
X14842857Y-21942856D01*
X14914286Y-22085714D01*
X14914286Y-22657142D01*
X14771429Y-20942856D02*
X14700000Y-21085714D01*
X14628571Y-21157142D01*
X14485714Y-21228571D01*
X14414286Y-21228571D01*
X14271429Y-21157142D01*
X14200000Y-21085714D01*
X14128571Y-20942856D01*
X14128571Y-20657142D01*
X14200000Y-20514285D01*
X14271429Y-20442856D01*
X14414286Y-20371428D01*
X14485714Y-20371428D01*
X14628571Y-20442856D01*
X14700000Y-20514285D01*
X14771429Y-20657142D01*
X14771429Y-20942856D01*
X14842857Y-21085714D01*
X14914286Y-21157142D01*
X15057143Y-21228571D01*
X15342857Y-21228571D01*
X15485714Y-21157142D01*
X15557143Y-21085714D01*
X15628571Y-20942856D01*
X15628571Y-20657142D01*
X15557143Y-20514285D01*
X15485714Y-20442856D01*
X15342857Y-20371428D01*
X15057143Y-20371428D01*
X14914286Y-20442856D01*
X14842857Y-20514285D01*
X14771429Y-20657142D01*
X13278571Y-21799999D02*
X12564286Y-22299999D01*
X13278571Y-22657142D02*
X11778571Y-22657142D01*
X11778571Y-22085714D01*
X11850000Y-21942856D01*
X11921429Y-21871428D01*
X12064286Y-21799999D01*
X12278571Y-21799999D01*
X12421429Y-21871428D01*
X12492857Y-21942856D01*
X12564286Y-22085714D01*
X12564286Y-22657142D01*
X13278571Y-21085714D02*
X13278571Y-20799999D01*
X13207143Y-20657142D01*
X13135714Y-20585714D01*
X12921429Y-20442856D01*
X12635714Y-20371428D01*
X12064286Y-20371428D01*
X11921429Y-20442856D01*
X11850000Y-20514285D01*
X11778571Y-20657142D01*
X11778571Y-20942856D01*
X11850000Y-21085714D01*
X11921429Y-21157142D01*
X12064286Y-21228571D01*
X12421429Y-21228571D01*
X12564286Y-21157142D01*
X12635714Y-21085714D01*
X12707143Y-20942856D01*
X12707143Y-20657142D01*
X12635714Y-20514285D01*
X12564286Y-20442856D01*
X12421429Y-20371428D01*
X-5642857Y-15900000D02*
X-5571429Y-15685714D01*
X-5571429Y-15328571D01*
X-5642857Y-15185714D01*
X-5714286Y-15114285D01*
X-5857143Y-15042857D01*
X-6000000Y-15042857D01*
X-6142857Y-15114285D01*
X-6214286Y-15185714D01*
X-6285714Y-15328571D01*
X-6357143Y-15614285D01*
X-6428571Y-15757143D01*
X-6500000Y-15828571D01*
X-6642857Y-15900000D01*
X-6785714Y-15900000D01*
X-6928571Y-15828571D01*
X-7000000Y-15757143D01*
X-7071429Y-15614285D01*
X-7071429Y-15257143D01*
X-7000000Y-15042857D01*
X-7071429Y-14542857D02*
X-5571429Y-14185714D01*
X-6642857Y-13900000D01*
X-5571429Y-13614286D01*
X-7071429Y-13257143D01*
X-5571429Y-11900000D02*
X-5571429Y-12757143D01*
X-5571429Y-12328571D02*
X-7071429Y-12328571D01*
X-6857143Y-12471428D01*
X-6714286Y-12614286D01*
X-6642857Y-12757143D01*
M02*
