G04 #@! TF.FileFunction,Copper,L1,Top,Signal*
%FSLAX46Y46*%
G04 Gerber Fmt 4.6, Leading zero omitted, Abs format (unit mm)*
G04 Created by KiCad (PCBNEW 4.0.0-rc1-stable) date 12.5.2016 9:41:02*
%MOMM*%
G01*
G04 APERTURE LIST*
%ADD10C,0.100000*%
%ADD11R,2.200000X1.200000*%
%ADD12O,2.200000X1.200000*%
%ADD13C,2.100000*%
%ADD14C,3.000000*%
%ADD15C,2.000000*%
%ADD16C,2.500000*%
%ADD17R,0.449580X1.000000*%
%ADD18R,1.000000X0.449580*%
%ADD19R,0.950000X2.150000*%
%ADD20R,3.250000X2.150000*%
%ADD21R,1.200000X0.750000*%
%ADD22R,0.750000X1.200000*%
%ADD23R,3.149600X1.800860*%
%ADD24R,2.000000X2.900000*%
%ADD25R,1.200000X0.900000*%
%ADD26R,0.900000X1.200000*%
%ADD27R,0.800000X1.300000*%
%ADD28O,2.500000X1.500000*%
%ADD29R,1.200000X2.000000*%
%ADD30R,1.100000X2.000000*%
%ADD31C,1.000000*%
%ADD32C,0.400000*%
%ADD33C,1.000000*%
%ADD34C,1.500000*%
%ADD35C,0.750000*%
%ADD36C,0.500000*%
%ADD37C,2.000000*%
G04 APERTURE END LIST*
D10*
D11*
X20150000Y16100000D03*
D12*
X22690000Y16100000D03*
X20150000Y13560000D03*
X22690000Y13560000D03*
X20150000Y11020000D03*
X22690000Y11020000D03*
X20150000Y8480000D03*
X22690000Y8480000D03*
X20150000Y5940000D03*
X22690000Y5940000D03*
X20150000Y3400000D03*
X22690000Y3400000D03*
X20150000Y860000D03*
X22690000Y860000D03*
X20150000Y-1680000D03*
X22690000Y-1680000D03*
X20150000Y-4220000D03*
X22690000Y-4220000D03*
X20150000Y-6760000D03*
X22690000Y-6760000D03*
X20150000Y-9300000D03*
X22690000Y-9300000D03*
X20150000Y-11840000D03*
X22690000Y-11840000D03*
X20150000Y-14380000D03*
X22690000Y-14380000D03*
D13*
X5080000Y-19630000D03*
X5080000Y-22170000D03*
X2540000Y-19630000D03*
X2540000Y-22170000D03*
X0Y-19630000D03*
X0Y-22170000D03*
X-2540000Y-19630000D03*
X-2540000Y-22170000D03*
X-5080000Y-19630000D03*
X-5080000Y-22170000D03*
X7620000Y-19630000D03*
D14*
X-8290000Y20950000D03*
D15*
X-9560000Y17200000D03*
X-12100000Y17200000D03*
X-14640000Y17200000D03*
D14*
X-15910000Y20950000D03*
X3810000Y20950000D03*
D15*
X2540000Y17200000D03*
X0Y17200000D03*
X-2540000Y17200000D03*
D14*
X-3810000Y20950000D03*
X15910000Y20950000D03*
D15*
X14640000Y17200000D03*
X12100000Y17200000D03*
X9560000Y17200000D03*
D14*
X8290000Y20950000D03*
D16*
X-19890000Y20990000D03*
X19900000Y20900000D03*
X-19900000Y-19000000D03*
D17*
X4150000Y-1400000D03*
X4947560Y-1400000D03*
X5747660Y-1400000D03*
X6547760Y-1400000D03*
X7347860Y-1400000D03*
X8147960Y-1400000D03*
X8948060Y-1400000D03*
X9748160Y-1400000D03*
X10548260Y-1400000D03*
X11348360Y-1400000D03*
X12148460Y-1400000D03*
D18*
X14149980Y598980D03*
X14149980Y1399080D03*
X14149980Y2199180D03*
X14149980Y2999280D03*
X14149980Y3799380D03*
X14149980Y4599480D03*
X14149980Y5399580D03*
X14149980Y6199680D03*
X14149980Y6999780D03*
X14149980Y7799880D03*
X14149980Y8599980D03*
D17*
X12148460Y10598960D03*
X11348360Y10598960D03*
X10548260Y10598960D03*
X9748160Y10598960D03*
X8948060Y10598960D03*
X8147960Y10598960D03*
X7347860Y10598960D03*
X6547760Y10598960D03*
X5747660Y10598960D03*
X4947560Y10598960D03*
X4150000Y10598960D03*
D18*
X2151020Y8599980D03*
X2151020Y7799880D03*
X2151020Y6999780D03*
X2151020Y6199680D03*
X2151020Y5399580D03*
X2151020Y4599480D03*
X2151020Y3799380D03*
X2151020Y2999280D03*
X2151020Y2199180D03*
X2151020Y1399080D03*
X2151020Y598980D03*
D19*
X-13450000Y-6950000D03*
X-8850000Y-6950000D03*
X-11150000Y-6950000D03*
D20*
X-11150000Y-12750000D03*
D21*
X9700000Y12700000D03*
X11600000Y12700000D03*
D22*
X-4600000Y10650000D03*
X-4600000Y8750000D03*
D23*
X-22025980Y-12200000D03*
X-17774020Y-12200000D03*
D22*
X-750000Y10700000D03*
X-750000Y8800000D03*
X16600000Y4900000D03*
X16600000Y3000000D03*
D23*
X-8124020Y-2550000D03*
X-12375980Y-2550000D03*
D24*
X-1110000Y3490000D03*
X-1100000Y-330000D03*
X-3880000Y-330000D03*
X-3870000Y3500000D03*
D16*
X19900000Y-19000000D03*
D25*
X13150000Y-6300000D03*
X15350000Y-6300000D03*
X10700000Y-6350000D03*
X8500000Y-6350000D03*
X13200000Y-11950000D03*
X15400000Y-11950000D03*
X10700000Y-11950000D03*
X8500000Y-11950000D03*
X14750000Y-24300000D03*
X12550000Y-24300000D03*
D26*
X14900000Y-19200000D03*
X14900000Y-17000000D03*
X12500000Y-19200000D03*
X12500000Y-17000000D03*
D22*
X-12400000Y12350000D03*
X-12400000Y10450000D03*
D15*
X-20600000Y-4050000D03*
X-20600000Y-1550000D03*
X-20600000Y3450000D03*
X-20600000Y950000D03*
D25*
X-14850000Y-17350000D03*
X-12650000Y-17350000D03*
D27*
X-7210000Y2850000D03*
X-8480000Y2850000D03*
X-9750000Y2850000D03*
X-7210000Y12350000D03*
X-8480000Y12350000D03*
X-9750000Y12350000D03*
D28*
X-20600000Y11740000D03*
X-20600000Y9200000D03*
D29*
X2480000Y-14650000D03*
X2480000Y-5750000D03*
X-60000Y-5750000D03*
X-2600000Y-5750000D03*
X-60000Y-14650000D03*
D30*
X-2600000Y-14650000D03*
D31*
X11550000Y950000D03*
X11050000Y3250000D03*
X4650000Y4700000D03*
X-18450000Y-15550000D03*
X-11350000Y-15400000D03*
X-9150000Y8650000D03*
X-6200000Y11150000D03*
X17400000Y12250000D03*
X13950000Y13600000D03*
X2550000Y-700000D03*
X6350000Y0D03*
X16000000Y-9300000D03*
X13400000Y-9300000D03*
X2200000Y12550000D03*
X-2650000Y10600000D03*
X-14500000Y5800000D03*
X-8950000Y-4900000D03*
X-12375980Y-2550000D03*
X-14850000Y-6950000D03*
X-13900000Y12350000D03*
X-10250000Y-22150000D03*
X-14750000Y-12450000D03*
X7550000Y15310000D03*
X-5750000Y-5800000D03*
X-2500000Y3500000D03*
X-2700000Y8750000D03*
X17150000Y8450000D03*
X5350000Y8400000D03*
X6950000Y-3000000D03*
X10800000Y-3600000D03*
X15650000Y-4600000D03*
X4250000Y-4450000D03*
X7500000Y6250000D03*
X2600000Y-3400000D03*
X2500000Y-2100000D03*
X14800000Y-3550000D03*
X12050000Y8850000D03*
X4150000Y12900000D03*
X-2550000Y13950000D03*
X-2700000Y7300000D03*
X-8550000Y14100000D03*
X5300000Y13900000D03*
X4800000Y1950000D03*
X8500000Y-10650000D03*
X-13100000Y7400000D03*
X6800000Y7550000D03*
X-9200000Y4950000D03*
X-17450000Y4000000D03*
X-750000Y6900000D03*
X-16150000Y-5300000D03*
X8500000Y-7400000D03*
X4000000Y700000D03*
X10300000Y-24300000D03*
X10300000Y-20650000D03*
X-50000Y-12600000D03*
X14900000Y-15150000D03*
X9650000Y-4550000D03*
X6050000Y-12350000D03*
X11900000Y7350000D03*
X11750000Y5900000D03*
X17050000Y-1450000D03*
X5950000Y3000000D03*
D32*
X11050000Y3250000D02*
X11050000Y3600000D01*
X11050000Y3600000D02*
X12049480Y4599480D01*
D33*
X-9600000Y10450000D02*
X-9150000Y10000000D01*
X-9150000Y10000000D02*
X-9150000Y8650000D01*
X-6300000Y10450000D02*
X-6200000Y10550000D01*
X-6200000Y10550000D02*
X-6200000Y11150000D01*
D32*
X10548260Y10598960D02*
X10548260Y5501740D01*
X10548260Y5501740D02*
X11450520Y4599480D01*
X11450520Y4599480D02*
X12049480Y4599480D01*
X12049480Y4599480D02*
X14149980Y4599480D01*
X22690000Y12060000D02*
X22500000Y12250000D01*
X22690000Y12060000D02*
X22690000Y11020000D01*
X22500000Y12250000D02*
X17400000Y12250000D01*
X11600000Y12700000D02*
X13050000Y12700000D01*
X13050000Y12700000D02*
X13950000Y13600000D01*
X16600000Y4900000D02*
X16600000Y5600000D01*
X16940000Y5940000D02*
X20150000Y5940000D01*
X16600000Y5600000D02*
X16940000Y5940000D01*
X14149980Y4599480D02*
X16299480Y4599480D01*
X16299480Y4599480D02*
X16600000Y4900000D01*
D33*
X1000000Y-2550000D02*
X1000000Y-1500000D01*
D34*
X-3880000Y-2470000D02*
X-3200000Y-3150000D01*
X-3880000Y-330000D02*
X-3880000Y-2470000D01*
X400000Y-3150000D02*
X-3200000Y-3150000D01*
D33*
X400000Y-3150000D02*
X1000000Y-2550000D01*
X1800000Y-700000D02*
X2550000Y-700000D01*
X1000000Y-1500000D02*
X1800000Y-700000D01*
D32*
X6547760Y-197760D02*
X6350000Y0D01*
X6547760Y-197760D02*
X6547760Y-1400000D01*
X17250000Y-8050000D02*
X16000000Y-9300000D01*
X22690000Y-7560000D02*
X22200000Y-8050000D01*
X22690000Y-7560000D02*
X22690000Y-6760000D01*
X22200000Y-8050000D02*
X17250000Y-8050000D01*
D35*
X15400000Y-11950000D02*
X13400000Y-9950000D01*
X13400000Y-8250000D02*
X15350000Y-6300000D01*
X13400000Y-9950000D02*
X13400000Y-9300000D01*
X13400000Y-9300000D02*
X13400000Y-8250000D01*
D33*
X9560000Y17200000D02*
X9560000Y16190000D01*
X11600000Y14150000D02*
X11600000Y12700000D01*
X9560000Y16190000D02*
X11600000Y14150000D01*
D32*
X11600000Y12700000D02*
X11600000Y12500000D01*
X11600000Y12500000D02*
X10548260Y11448260D01*
X10548260Y11448260D02*
X10548260Y10598960D01*
D34*
X-22025980Y-12200000D02*
X-22025980Y-14224020D01*
X-7360000Y-24450000D02*
X-5080000Y-22170000D01*
X-13900000Y-24450000D02*
X-7360000Y-24450000D01*
X-17050000Y-21300000D02*
X-13900000Y-24450000D01*
X-17050000Y-16950000D02*
X-17050000Y-21300000D01*
X-18450000Y-15550000D02*
X-17050000Y-16950000D01*
X-20700000Y-15550000D02*
X-18450000Y-15550000D01*
X-22025980Y-14224020D02*
X-20700000Y-15550000D01*
D33*
X5080000Y-22170000D02*
X14750000Y-22170000D01*
X14650000Y-22200000D02*
X14750000Y-22200000D01*
X14720000Y-22200000D02*
X14650000Y-22200000D01*
X14750000Y-22170000D02*
X14720000Y-22200000D01*
X14900000Y-19200000D02*
X16100000Y-19200000D01*
X20150000Y-15150000D02*
X20150000Y-14380000D01*
X16100000Y-19200000D02*
X20150000Y-15150000D01*
X20150000Y-14380000D02*
X20150000Y-15400000D01*
X20150000Y-15400000D02*
X22700000Y-17950000D01*
X22700000Y-17950000D02*
X22700000Y-20400000D01*
X22700000Y-20400000D02*
X18800000Y-24300000D01*
X18800000Y-24300000D02*
X14750000Y-24300000D01*
X15400000Y-11950000D02*
X17830000Y-14380000D01*
X17830000Y-14380000D02*
X20150000Y-14380000D01*
X14750000Y-24300000D02*
X14750000Y-22200000D01*
X14750000Y-22200000D02*
X14750000Y-19350000D01*
X14750000Y-19350000D02*
X14900000Y-19200000D01*
X12500000Y-19200000D02*
X14900000Y-19200000D01*
X15350000Y-11900000D02*
X15400000Y-11950000D01*
D35*
X0Y14750000D02*
X2200000Y12550000D01*
X0Y17200000D02*
X0Y14750000D01*
X-2650000Y10600000D02*
X-2650000Y10650000D01*
X-2650000Y10650000D02*
X-2650000Y10600000D01*
X-2650000Y10600000D02*
X-2650000Y10650000D01*
D33*
X-4600000Y10650000D02*
X-2650000Y10650000D01*
X-2650000Y10650000D02*
X-800000Y10650000D01*
X-800000Y10650000D02*
X-750000Y10700000D01*
D35*
X-16050000Y7000000D02*
X-16050000Y9200000D01*
X-14850000Y5800000D02*
X-16050000Y7000000D01*
X-14500000Y5800000D02*
X-14850000Y5800000D01*
D33*
X-8950000Y-4900000D02*
X-8850000Y-4900000D01*
X-8850000Y-4900000D02*
X-8950000Y-4900000D01*
X-8950000Y-4900000D02*
X-8850000Y-4900000D01*
D34*
X-3880000Y-330000D02*
X-7280000Y-330000D01*
X-8124020Y-1174020D02*
X-8124020Y-2550000D01*
X-7280000Y-330000D02*
X-8124020Y-1174020D01*
X-8850000Y-6950000D02*
X-8850000Y-4900000D01*
X-8850000Y-4900000D02*
X-8850000Y-3275980D01*
X-8850000Y-3275980D02*
X-8124020Y-2550000D01*
D33*
X-20600000Y3450000D02*
X-22100000Y3450000D01*
X-23100000Y-11125980D02*
X-22025980Y-12200000D01*
X-23100000Y2450000D02*
X-23100000Y-11125980D01*
X-22100000Y3450000D02*
X-23100000Y2450000D01*
X-20600000Y9200000D02*
X-20600000Y3450000D01*
D35*
X-7210000Y11090000D02*
X-7210000Y10450000D01*
X-7210000Y12350000D02*
X-7210000Y11090000D01*
X-7200000Y10500000D02*
X-7200000Y10450000D01*
X-7200000Y10460000D02*
X-7200000Y10500000D01*
X-7210000Y10450000D02*
X-7200000Y10460000D01*
X-4800000Y10450000D02*
X-6300000Y10450000D01*
X-6300000Y10450000D02*
X-7200000Y10450000D01*
X-7200000Y10450000D02*
X-7850000Y10450000D01*
X-7850000Y10450000D02*
X-9600000Y10450000D01*
X-9600000Y10450000D02*
X-12400000Y10450000D01*
X-4800000Y10450000D02*
X-4600000Y10650000D01*
D33*
X-12400000Y10450000D02*
X-14800000Y10450000D01*
X-14800000Y10450000D02*
X-16050000Y9200000D01*
X-16050000Y9200000D02*
X-16250000Y9200000D01*
X-16250000Y9200000D02*
X-20600000Y9200000D01*
D34*
X-13450000Y-3624020D02*
X-12375980Y-2550000D01*
X-13450000Y-6950000D02*
X-13450000Y-3624020D01*
X-20600000Y11740000D02*
X-20600000Y15600000D01*
X22690000Y22560000D02*
X22690000Y16100000D01*
X21100000Y24150000D02*
X22690000Y22560000D01*
X-21450000Y24150000D02*
X21100000Y24150000D01*
X-23050000Y22550000D02*
X-21450000Y24150000D01*
X-23050000Y18050000D02*
X-23050000Y22550000D01*
X-20600000Y15600000D02*
X-23050000Y18050000D01*
D33*
X-13450000Y-6950000D02*
X-14850000Y-6950000D01*
D32*
X-9750000Y12350000D02*
X-10300000Y12350000D01*
X-10350000Y12300000D02*
X-10350000Y12350000D01*
X-10300000Y12350000D02*
X-10350000Y12300000D01*
D33*
X-12400000Y12350000D02*
X-10350000Y12350000D01*
X-10350000Y12350000D02*
X-10150000Y12350000D01*
D34*
X-20600000Y11740000D02*
X-16510000Y11740000D01*
X-15900000Y12350000D02*
X-13900000Y12350000D01*
X-16510000Y11740000D02*
X-15900000Y12350000D01*
D33*
X-13900000Y12350000D02*
X-12400000Y12350000D01*
D32*
X11900000Y2150000D02*
X11750000Y2000000D01*
X9748160Y4950000D02*
X9748160Y10598960D01*
X9748160Y4950000D02*
X9748160Y3451840D01*
X9748160Y3451840D02*
X9748160Y2750000D01*
X9748160Y2651840D02*
X10400000Y2000000D01*
X9748160Y2750000D02*
X9748160Y2651840D01*
X10400000Y2000000D02*
X11750000Y2000000D01*
X11850000Y2100000D02*
X11900000Y2150000D01*
X11900000Y2150000D02*
X12749280Y2999280D01*
X12749280Y2999280D02*
X13100720Y2999280D01*
D34*
X-14850000Y-20000000D02*
X-14850000Y-17350000D01*
X-12700000Y-22150000D02*
X-10250000Y-22150000D01*
X-14850000Y-20000000D02*
X-12700000Y-22150000D01*
D33*
X-14750000Y-12450000D02*
X-14850000Y-12450000D01*
X-14850000Y-12450000D02*
X-14850000Y-12250000D01*
D32*
X14149980Y2999280D02*
X13100720Y2999280D01*
X14149980Y2999280D02*
X14150700Y3000000D01*
X14150700Y3000000D02*
X16600000Y3000000D01*
D33*
X7550000Y15310000D02*
X7550000Y13550000D01*
X8400000Y12700000D02*
X9700000Y12700000D01*
X7550000Y13550000D02*
X8400000Y12700000D01*
X7550000Y15310000D02*
X7550000Y15300000D01*
D32*
X9748160Y10598960D02*
X9748160Y12651840D01*
X9748160Y12651840D02*
X9700000Y12700000D01*
D34*
X-5750000Y-5800000D02*
X-5750000Y-7850000D01*
X-7700000Y-9800000D02*
X-11150000Y-9800000D01*
X-5750000Y-7850000D02*
X-7700000Y-9800000D01*
X-2650000Y-5800000D02*
X-5750000Y-5800000D01*
X-2650000Y-5800000D02*
X-2600000Y-5750000D01*
X-2500000Y-5650000D02*
X-2600000Y-5750000D01*
D36*
X-2600000Y-5750000D02*
X-60000Y-5750000D01*
D32*
X2151020Y7799880D02*
X250120Y7799880D01*
X250120Y7799880D02*
X-750000Y8800000D01*
D33*
X-4600000Y8750000D02*
X-4600000Y4230000D01*
X-4600000Y4230000D02*
X-3870000Y3500000D01*
X-4600000Y8750000D02*
X-2700000Y8750000D01*
X-2700000Y8750000D02*
X-800000Y8750000D01*
X-800000Y8750000D02*
X-750000Y8800000D01*
D34*
X2480000Y-5750000D02*
X-2600000Y-5750000D01*
D37*
X-3870000Y3500000D02*
X-2500000Y3500000D01*
X-2500000Y3500000D02*
X-1120000Y3500000D01*
X-1120000Y3500000D02*
X-1110000Y3490000D01*
D34*
X-14850000Y-17350000D02*
X-14850000Y-12250000D01*
D33*
X-14850000Y-12250000D02*
X-14800000Y-12200000D01*
D34*
X-11150000Y-6950000D02*
X-11150000Y-9800000D01*
X-11150000Y-9800000D02*
X-11150000Y-12750000D01*
X-17774020Y-12200000D02*
X-14800000Y-12200000D01*
X-14250000Y-12750000D02*
X-11150000Y-12750000D01*
X-14800000Y-12200000D02*
X-14250000Y-12750000D01*
D32*
X16599280Y2999280D02*
X16600000Y3000000D01*
X17180000Y8480000D02*
X17150000Y8450000D01*
X20150000Y8480000D02*
X17180000Y8480000D01*
X8500000Y700000D02*
X8900000Y1100000D01*
X7347860Y-452140D02*
X7347860Y-1400000D01*
X7347860Y-452140D02*
X8100000Y300000D01*
X8100000Y300000D02*
X8500000Y700000D01*
X8900000Y1100000D02*
X8900000Y7150000D01*
X7350000Y8700000D02*
X8900000Y7150000D01*
X5350000Y8400000D02*
X5650000Y8700000D01*
X5650000Y8700000D02*
X7350000Y8700000D01*
X7347860Y-2602140D02*
X6950000Y-3000000D01*
X7347860Y-2602140D02*
X7347860Y-1400000D01*
X14800000Y-4950000D02*
X15300000Y-4950000D01*
X12150000Y-4950000D02*
X14800000Y-4950000D01*
X10800000Y-3600000D02*
X12150000Y-4950000D01*
X15300000Y-4950000D02*
X15650000Y-4600000D01*
X5747660Y-2952340D02*
X4250000Y-4450000D01*
X5747660Y-1400000D02*
X5747660Y-2952340D01*
X7150000Y5900000D02*
X7500000Y6250000D01*
X7150000Y4300000D02*
X7150000Y2500000D01*
X4947560Y297560D02*
X7150000Y2500000D01*
X4947560Y-202440D02*
X4947560Y-1400000D01*
X4947560Y-202440D02*
X4947560Y297560D01*
X7150000Y4300000D02*
X7150000Y5900000D01*
X4947560Y-2402440D02*
X3950000Y-3400000D01*
X3950000Y-3400000D02*
X2600000Y-3400000D01*
X4947560Y-2402440D02*
X4947560Y-1400000D01*
X3450000Y-2100000D02*
X2500000Y-2100000D01*
X4150000Y-1400000D02*
X3550000Y-2000000D01*
X3550000Y-2000000D02*
X3450000Y-2100000D01*
D33*
X-12650000Y-17350000D02*
X-3950000Y-17350000D01*
X-3950000Y-17350000D02*
X-2540000Y-18760000D01*
D32*
X12000000Y-2900000D02*
X12650000Y-3550000D01*
X11348360Y-1400000D02*
X11348360Y-2248360D01*
X11348360Y-2248360D02*
X12000000Y-2900000D01*
X12650000Y-3550000D02*
X14800000Y-3550000D01*
X22690000Y-11840000D02*
X22690000Y-11790000D01*
X22690000Y-11840000D02*
X22590000Y-11840000D01*
X12800000Y-150000D02*
X12950000Y-150000D01*
X10548260Y-501740D02*
X10900000Y-150000D01*
X10900000Y-150000D02*
X12800000Y-150000D01*
X10548260Y-1400000D02*
X10548260Y-501740D01*
X18610000Y-6760000D02*
X20150000Y-6760000D01*
X17800000Y-5950000D02*
X18610000Y-6760000D01*
X17800000Y-3700000D02*
X17800000Y-5950000D01*
X15350000Y-1250000D02*
X17800000Y-3700000D01*
X14050000Y-1250000D02*
X15350000Y-1250000D01*
X12950000Y-150000D02*
X14050000Y-1250000D01*
X19410000Y-6760000D02*
X20150000Y-6760000D01*
X11348360Y10598960D02*
X11348360Y9551640D01*
X12050000Y8850000D02*
X11348360Y9551640D01*
X14800000Y-2250000D02*
X15050000Y-2250000D01*
X16350000Y-7700000D02*
X16750000Y-7300000D01*
X20150000Y-11840000D02*
X17340000Y-11840000D01*
X14550000Y-8900000D02*
X15750000Y-7700000D01*
X14550000Y-9600000D02*
X14550000Y-8900000D01*
X15550000Y-10600000D02*
X14550000Y-9600000D01*
X16100000Y-10600000D02*
X15550000Y-10600000D01*
X17340000Y-11840000D02*
X16100000Y-10600000D01*
X15750000Y-7700000D02*
X16350000Y-7700000D01*
X12650000Y-1400000D02*
X12148460Y-1400000D01*
X12650000Y-1400000D02*
X13500000Y-2250000D01*
X13500000Y-2250000D02*
X14800000Y-2250000D01*
X16750000Y-3950000D02*
X16750000Y-7300000D01*
X15050000Y-2250000D02*
X16750000Y-3950000D01*
D36*
X2151020Y598980D02*
X-171020Y598980D01*
X-171020Y598980D02*
X-1100000Y-330000D01*
D32*
X4150000Y10598960D02*
X4150000Y12900000D01*
D35*
X-2540000Y13960000D02*
X-2540000Y17200000D01*
X-2540000Y13960000D02*
X-2550000Y13950000D01*
D32*
X-2700000Y7300000D02*
X-2700000Y6600000D01*
X750420Y5399580D02*
X2151020Y5399580D01*
X400000Y5750000D02*
X750420Y5399580D01*
X-1850000Y5750000D02*
X400000Y5750000D01*
X-2700000Y6600000D02*
X-1850000Y5750000D01*
D35*
X-8550000Y12420000D02*
X-8550000Y14100000D01*
X-8550000Y12420000D02*
X-8480000Y12350000D01*
D32*
X4947560Y11947560D02*
X4947560Y12247560D01*
X4947560Y10598960D02*
X4947560Y11947560D01*
X5300000Y12600000D02*
X5300000Y13900000D01*
X4947560Y12247560D02*
X5300000Y12600000D01*
X2151020Y8599980D02*
X2151020Y9048980D01*
D35*
X-4960000Y12600000D02*
X-9560000Y17200000D01*
X2150000Y10500000D02*
X2150000Y9550000D01*
X50000Y12600000D02*
X2150000Y10500000D01*
X-4960000Y12600000D02*
X50000Y12600000D01*
X2150000Y9050000D02*
X2150000Y9550000D01*
D32*
X2151020Y9048980D02*
X2150000Y9050000D01*
D33*
X10700000Y-6350000D02*
X13100000Y-6350000D01*
X13100000Y-6350000D02*
X13150000Y-6300000D01*
X10700000Y-11950000D02*
X13200000Y-11950000D01*
D32*
X2151020Y2199180D02*
X4550820Y2199180D01*
X4550820Y2199180D02*
X4800000Y1950000D01*
D33*
X8500000Y-10650000D02*
X8500000Y-11950000D01*
D35*
X-13100000Y7400000D02*
X-9200000Y7400000D01*
X-8900000Y7100000D02*
X-7210000Y5410000D01*
X-7210000Y2850000D02*
X-7210000Y5410000D01*
X-9200000Y7400000D02*
X-8900000Y7100000D01*
X-7200000Y2860000D02*
X-7210000Y2850000D01*
D32*
X5449680Y6199680D02*
X6800000Y7550000D01*
X5449680Y6199680D02*
X2151020Y6199680D01*
D35*
X-14050000Y4000000D02*
X-13100000Y4950000D01*
X-13100000Y4950000D02*
X-9200000Y4950000D01*
X-17450000Y4000000D02*
X-14050000Y4000000D01*
D32*
X1150320Y6199680D02*
X450000Y6900000D01*
X450000Y6900000D02*
X-750000Y6900000D01*
X1150320Y6199680D02*
X2151020Y6199680D01*
D35*
X-13100000Y2850000D02*
X-16150000Y-200000D01*
X-16150000Y-200000D02*
X-16150000Y-5300000D01*
X-13100000Y2850000D02*
X-9750000Y2850000D01*
D33*
X8500000Y-6350000D02*
X8500000Y-7400000D01*
D32*
X3300920Y1399080D02*
X4000000Y700000D01*
X3300920Y1399080D02*
X2151020Y1399080D01*
D33*
X-2600000Y-14650000D02*
X-2600000Y-11550000D01*
D36*
X4650000Y-6750000D02*
X4650000Y-7250000D01*
D32*
X8147960Y-3252040D02*
X8147960Y-1400000D01*
X8147960Y-3252040D02*
X7200000Y-4200000D01*
D36*
X7200000Y-4200000D02*
X4650000Y-6750000D01*
D33*
X4650000Y-7800000D02*
X4650000Y-7250000D01*
X3650000Y-8800000D02*
X4650000Y-7800000D01*
X150000Y-8800000D02*
X3650000Y-8800000D01*
X-2600000Y-11550000D02*
X150000Y-8800000D01*
X12550000Y-24300000D02*
X10300000Y-24300000D01*
X-2600000Y-16100000D02*
X-2600000Y-14650000D01*
X10300000Y-19400000D02*
X10300000Y-20650000D01*
X7950000Y-17050000D02*
X10300000Y-19400000D01*
X-1650000Y-17050000D02*
X7950000Y-17050000D01*
X-2600000Y-16100000D02*
X-1650000Y-17050000D01*
X14900000Y-15150000D02*
X14900000Y-17000000D01*
X6200000Y-7200000D02*
X6200000Y-8900000D01*
D36*
X6200000Y-6450000D02*
X6200000Y-7200000D01*
D32*
X8948060Y-1400000D02*
X8948060Y-3701940D01*
X8948060Y-3701940D02*
X7550000Y-5100000D01*
D36*
X7550000Y-5100000D02*
X6200000Y-6450000D01*
D33*
X1950000Y-10600000D02*
X-50000Y-12600000D01*
X4500000Y-10600000D02*
X1950000Y-10600000D01*
X6200000Y-8900000D02*
X4500000Y-10600000D01*
X-60000Y-12610000D02*
X-60000Y-14650000D01*
X-60000Y-12610000D02*
X-50000Y-12600000D01*
D32*
X9748160Y-4451840D02*
X9650000Y-4550000D01*
X9748160Y-1400000D02*
X9748160Y-4451840D01*
D33*
X6050000Y-12350000D02*
X6050000Y-14650000D01*
X2480000Y-14650000D02*
X6050000Y-14650000D01*
X6050000Y-14650000D02*
X7600000Y-14650000D01*
X9950000Y-17000000D02*
X12500000Y-17000000D01*
X7600000Y-14650000D02*
X9950000Y-17000000D01*
D32*
X12148460Y10598960D02*
X12548960Y10598960D01*
D33*
X16360000Y13560000D02*
X13400000Y10600000D01*
X16360000Y13560000D02*
X20150000Y13560000D01*
X12550000Y10600000D02*
X13400000Y10600000D01*
D32*
X12548960Y10598960D02*
X12550000Y10600000D01*
X14149980Y8599980D02*
X14149980Y9199980D01*
D36*
X15970000Y11020000D02*
X14200000Y9250000D01*
X15970000Y11020000D02*
X20150000Y11020000D01*
D32*
X14149980Y9199980D02*
X14200000Y9250000D01*
X14149980Y7799880D02*
X15349880Y7799880D01*
X22690000Y9360000D02*
X22300000Y9750000D01*
X22300000Y9750000D02*
X19200000Y9750000D01*
X22690000Y9360000D02*
X22690000Y8480000D01*
X16500000Y9750000D02*
X19200000Y9750000D01*
X15850000Y9100000D02*
X16500000Y9750000D01*
X15850000Y8300000D02*
X15850000Y9100000D01*
X15349880Y7799880D02*
X15850000Y8300000D01*
X14149980Y6999780D02*
X18599780Y6999780D01*
X22690000Y6710000D02*
X22690000Y5940000D01*
X22250000Y7150000D02*
X22690000Y6710000D01*
X18750000Y7150000D02*
X22250000Y7150000D01*
X18599780Y6999780D02*
X18750000Y7150000D01*
X13050320Y6199680D02*
X11900000Y7350000D01*
X13050320Y6199680D02*
X14149980Y6199680D01*
X12250420Y5399580D02*
X11750000Y5900000D01*
X14149980Y5399580D02*
X12250420Y5399580D01*
X15001020Y598980D02*
X17050000Y-1450000D01*
X14149980Y598980D02*
X15001020Y598980D01*
X22690000Y-9300000D02*
X23300000Y-9300000D01*
X5949280Y2999280D02*
X5950000Y3000000D01*
X2151020Y2999280D02*
X5949280Y2999280D01*
X14149980Y2199180D02*
X15500820Y2199180D01*
X16840000Y860000D02*
X20150000Y860000D01*
X15500820Y2199180D02*
X16840000Y860000D01*
X14149980Y1399080D02*
X15250920Y1399080D01*
X18730000Y-1680000D02*
X17700000Y-650000D01*
X18780000Y-1680000D02*
X20150000Y-1680000D01*
X18780000Y-1680000D02*
X18730000Y-1680000D01*
X17500000Y-450000D02*
X17700000Y-650000D01*
X17100000Y-450000D02*
X17500000Y-450000D01*
X15250920Y1399080D02*
X17100000Y-450000D01*
D10*
G36*
X-21947488Y25351043D02*
X-22369239Y25069239D01*
X-23969239Y23469239D01*
X-24251043Y23047489D01*
X-24251043Y23047488D01*
X-24350000Y22550000D01*
X-24350000Y18050000D01*
X-24251043Y17552511D01*
X-23969239Y17130761D01*
X-21900000Y15061522D01*
X-21900000Y12762474D01*
X-22054503Y12659239D01*
X-22336307Y12237488D01*
X-22435264Y11740000D01*
X-22336307Y11242512D01*
X-22054503Y10820761D01*
X-21632752Y10538957D01*
X-21135264Y10440000D01*
X-16510000Y10440000D01*
X-16012511Y10538957D01*
X-15590761Y10820761D01*
X-15361522Y11050000D01*
X-13900000Y11050000D01*
X-13402512Y11148957D01*
X-13176459Y11300000D01*
X-13090636Y11300000D01*
X-12993173Y11233406D01*
X-12775000Y11189225D01*
X-12025000Y11189225D01*
X-11821182Y11227576D01*
X-11708632Y11300000D01*
X-10538814Y11300000D01*
X-10368173Y11183406D01*
X-10150000Y11139225D01*
X-9350000Y11139225D01*
X-9146182Y11177576D01*
X-9117063Y11196313D01*
X-9098173Y11183406D01*
X-8880000Y11139225D01*
X-8080000Y11139225D01*
X-7876182Y11177576D01*
X-7688988Y11298032D01*
X-7563406Y11481827D01*
X-7519225Y11700000D01*
X-7519225Y13000000D01*
X-7557576Y13203818D01*
X-7625000Y13308598D01*
X-7625000Y13589631D01*
X-7517256Y13849108D01*
X-5614076Y11945929D01*
X-5614074Y11945926D01*
X-5313982Y11745411D01*
X-4960000Y11675000D01*
X-333148Y11675000D01*
X1225000Y10116853D01*
X1225000Y9175502D01*
X1134426Y9042943D01*
X1090245Y8824770D01*
X1090245Y8549880D01*
X560780Y8549880D01*
X297353Y8813307D01*
X220074Y9201818D01*
X185775Y9253150D01*
X185775Y9400000D01*
X147424Y9603818D01*
X26968Y9791012D01*
X-156827Y9916594D01*
X-375000Y9960775D01*
X-1125000Y9960775D01*
X-1328818Y9922424D01*
X-1516012Y9801968D01*
X-1517357Y9800000D01*
X-2699084Y9800000D01*
X-2907942Y9800182D01*
X-2908382Y9800000D01*
X-3909364Y9800000D01*
X-4006827Y9866594D01*
X-4225000Y9910775D01*
X-4975000Y9910775D01*
X-5178818Y9872424D01*
X-5366012Y9751968D01*
X-5491594Y9568173D01*
X-5535775Y9350000D01*
X-5535775Y9203150D01*
X-5570074Y9151818D01*
X-5650000Y8750000D01*
X-5650000Y4230000D01*
X-5570074Y3828182D01*
X-5430775Y3619707D01*
X-5430775Y2050000D01*
X-5392424Y1846182D01*
X-5271968Y1658988D01*
X-5088173Y1533406D01*
X-4870000Y1489225D01*
X-2870000Y1489225D01*
X-2666182Y1527576D01*
X-2495252Y1637566D01*
X-2406067Y1576629D01*
X-2491012Y1521968D01*
X-2616594Y1338173D01*
X-2660775Y1120000D01*
X-2660775Y-1780000D01*
X-2622424Y-1983818D01*
X-2501968Y-2171012D01*
X-2318173Y-2296594D01*
X-2100000Y-2340775D01*
X-100000Y-2340775D01*
X103818Y-2302424D01*
X291012Y-2181968D01*
X416594Y-1998173D01*
X460775Y-1780000D01*
X460775Y-201020D01*
X2151020Y-201020D01*
X2223590Y-186585D01*
X2651020Y-186585D01*
X2854838Y-148234D01*
X3042032Y-27778D01*
X3123644Y91665D01*
X3404446Y-189628D01*
X3790226Y-349818D01*
X3868550Y-349886D01*
X3721392Y-377576D01*
X3534198Y-498032D01*
X3408616Y-681827D01*
X3364435Y-900000D01*
X3364435Y-1124905D01*
X3187181Y-1302159D01*
X3095554Y-1210372D01*
X2709774Y-1050182D01*
X2292058Y-1049818D01*
X1906000Y-1209334D01*
X1610372Y-1504446D01*
X1450182Y-1890226D01*
X1449818Y-2307942D01*
X1609334Y-2694000D01*
X1714988Y-2799838D01*
X1710372Y-2804446D01*
X1550182Y-3190226D01*
X1549818Y-3607942D01*
X1709334Y-3994000D01*
X1904218Y-4189225D01*
X1880000Y-4189225D01*
X1676182Y-4227576D01*
X1488988Y-4348032D01*
X1419316Y-4450000D01*
X1000533Y-4450000D01*
X941968Y-4358988D01*
X758173Y-4233406D01*
X540000Y-4189225D01*
X-660000Y-4189225D01*
X-863818Y-4227576D01*
X-1051012Y-4348032D01*
X-1120684Y-4450000D01*
X-1539467Y-4450000D01*
X-1598032Y-4358988D01*
X-1781827Y-4233406D01*
X-2000000Y-4189225D01*
X-3200000Y-4189225D01*
X-3403818Y-4227576D01*
X-3591012Y-4348032D01*
X-3694847Y-4500000D01*
X-5750000Y-4500000D01*
X-6247488Y-4598957D01*
X-6669239Y-4880761D01*
X-6951043Y-5302512D01*
X-7050000Y-5800000D01*
X-7050000Y-7311523D01*
X-8238478Y-8500000D01*
X-9850000Y-8500000D01*
X-9850000Y-6950000D01*
X-9948957Y-6452512D01*
X-10114225Y-6205170D01*
X-10114225Y-5875000D01*
X-10152576Y-5671182D01*
X-10273032Y-5483988D01*
X-10456827Y-5358406D01*
X-10675000Y-5314225D01*
X-11625000Y-5314225D01*
X-11828818Y-5352576D01*
X-12016012Y-5473032D01*
X-12141594Y-5656827D01*
X-12150000Y-5698337D01*
X-12150000Y-4162498D01*
X-11998707Y-4011205D01*
X-10801180Y-4011205D01*
X-10597362Y-3972854D01*
X-10410168Y-3852398D01*
X-10284586Y-3668603D01*
X-10240405Y-3450430D01*
X-10240405Y-1649570D01*
X-10278756Y-1445752D01*
X-10399212Y-1258558D01*
X-10583007Y-1132976D01*
X-10801180Y-1088795D01*
X-13950780Y-1088795D01*
X-14154598Y-1127146D01*
X-14341792Y-1247602D01*
X-14467374Y-1431397D01*
X-14511555Y-1649570D01*
X-14511555Y-2917772D01*
X-14651043Y-3126531D01*
X-14719212Y-3469239D01*
X-14750000Y-3624020D01*
X-14750000Y-5900000D01*
X-14849084Y-5900000D01*
X-15057942Y-5899818D01*
X-15410623Y-6045543D01*
X-15260372Y-5895554D01*
X-15100182Y-5509774D01*
X-15099818Y-5092058D01*
X-15225000Y-4789095D01*
X-15225000Y-583148D01*
X-12716852Y1925000D01*
X-10626620Y1925000D01*
X-10551968Y1808988D01*
X-10368173Y1683406D01*
X-10150000Y1639225D01*
X-9350000Y1639225D01*
X-9146182Y1677576D01*
X-9117063Y1696313D01*
X-9098173Y1683406D01*
X-8880000Y1639225D01*
X-8080000Y1639225D01*
X-7876182Y1677576D01*
X-7847063Y1696313D01*
X-7828173Y1683406D01*
X-7610000Y1639225D01*
X-6810000Y1639225D01*
X-6606182Y1677576D01*
X-6418988Y1798032D01*
X-6293406Y1981827D01*
X-6249225Y2200000D01*
X-6249225Y3500000D01*
X-6285000Y3690128D01*
X-6285000Y5410000D01*
X-6319586Y5583878D01*
X-6355411Y5763983D01*
X-6555926Y6064074D01*
X-8545926Y8054074D01*
X-8846017Y8254589D01*
X-9200000Y8325000D01*
X-12589631Y8325000D01*
X-12890226Y8449818D01*
X-13307942Y8450182D01*
X-13694000Y8290666D01*
X-13989628Y7995554D01*
X-14149818Y7609774D01*
X-14150182Y7192058D01*
X-13990666Y6806000D01*
X-13695554Y6510372D01*
X-13309774Y6350182D01*
X-12892058Y6349818D01*
X-12589095Y6475000D01*
X-9583148Y6475000D01*
X-9108069Y5999921D01*
X-9407942Y6000182D01*
X-9710905Y5875000D01*
X-13100000Y5875000D01*
X-13453983Y5804589D01*
X-13754074Y5604074D01*
X-14433148Y4925000D01*
X-16939631Y4925000D01*
X-17240226Y5049818D01*
X-17657942Y5050182D01*
X-18044000Y4890666D01*
X-18339628Y4595554D01*
X-18499818Y4209774D01*
X-18500182Y3792058D01*
X-18340666Y3406000D01*
X-18045554Y3110372D01*
X-17659774Y2950182D01*
X-17242058Y2949818D01*
X-16939095Y3075000D01*
X-14183148Y3075000D01*
X-16804074Y454074D01*
X-17004589Y153983D01*
X-17063090Y-140124D01*
X-17075000Y-200000D01*
X-17075000Y-4789631D01*
X-17199818Y-5090226D01*
X-17200182Y-5507942D01*
X-17040666Y-5894000D01*
X-16745554Y-6189628D01*
X-16359774Y-6349818D01*
X-15942058Y-6350182D01*
X-15589377Y-6204457D01*
X-15739628Y-6354446D01*
X-15899818Y-6740226D01*
X-15900182Y-7157942D01*
X-15740666Y-7544000D01*
X-15445554Y-7839628D01*
X-15059774Y-7999818D01*
X-14642058Y-8000182D01*
X-14641618Y-8000000D01*
X-14485775Y-8000000D01*
X-14485775Y-8025000D01*
X-14447424Y-8228818D01*
X-14326968Y-8416012D01*
X-14143173Y-8541594D01*
X-13925000Y-8585775D01*
X-12975000Y-8585775D01*
X-12771182Y-8547424D01*
X-12583988Y-8426968D01*
X-12458406Y-8243173D01*
X-12450000Y-8201663D01*
X-12450000Y-11114225D01*
X-12775000Y-11114225D01*
X-12978818Y-11152576D01*
X-13166012Y-11273032D01*
X-13286929Y-11450000D01*
X-13711522Y-11450000D01*
X-13880761Y-11280761D01*
X-14302511Y-10998957D01*
X-14800000Y-10900000D01*
X-15809777Y-10900000D01*
X-15981047Y-10782976D01*
X-16199220Y-10738795D01*
X-19348820Y-10738795D01*
X-19552638Y-10777146D01*
X-19739832Y-10897602D01*
X-19865414Y-11081397D01*
X-19909595Y-11299570D01*
X-19909595Y-13100430D01*
X-19871244Y-13304248D01*
X-19750788Y-13491442D01*
X-19566993Y-13617024D01*
X-19348820Y-13661205D01*
X-16199220Y-13661205D01*
X-16150000Y-13651944D01*
X-16150000Y-20000000D01*
X-16051043Y-20497489D01*
X-15769239Y-20919239D01*
X-13619239Y-23069239D01*
X-13197489Y-23351043D01*
X-12700000Y-23450000D01*
X-10250000Y-23450000D01*
X-9752512Y-23351043D01*
X-9330761Y-23069239D01*
X-9048957Y-22647488D01*
X-8950000Y-22150000D01*
X-9048957Y-21652512D01*
X-9330761Y-21230761D01*
X-9752512Y-20948957D01*
X-10250000Y-20850000D01*
X-12161522Y-20850000D01*
X-13550000Y-19461522D01*
X-13550000Y-18260684D01*
X-13468173Y-18316594D01*
X-13250000Y-18360775D01*
X-12847199Y-18360775D01*
X-12650000Y-18400000D01*
X-6112570Y-18400000D01*
X-6435623Y-18722489D01*
X-6679722Y-19310344D01*
X-6680277Y-19946863D01*
X-6437205Y-20535143D01*
X-5987511Y-20985623D01*
X-5399656Y-21229722D01*
X-4763137Y-21230277D01*
X-4174857Y-20987205D01*
X-3809758Y-20622743D01*
X-3447511Y-20985623D01*
X-2859656Y-21229722D01*
X-2223137Y-21230277D01*
X-1634857Y-20987205D01*
X-1269758Y-20622743D01*
X-907511Y-20985623D01*
X-319656Y-21229722D01*
X316863Y-21230277D01*
X905143Y-20987205D01*
X1270242Y-20622743D01*
X1632489Y-20985623D01*
X2220344Y-21229722D01*
X2856863Y-21230277D01*
X3445143Y-20987205D01*
X3810242Y-20622743D01*
X4172489Y-20985623D01*
X4760344Y-21229722D01*
X5396863Y-21230277D01*
X5985143Y-20987205D01*
X6435623Y-20537511D01*
X6679722Y-19949656D01*
X6680277Y-19313137D01*
X6437205Y-18724857D01*
X5987511Y-18274377D01*
X5567565Y-18100000D01*
X7515076Y-18100000D01*
X9250000Y-19834924D01*
X9250000Y-20649084D01*
X9249818Y-20857942D01*
X9409334Y-21244000D01*
X9704446Y-21539628D01*
X10090226Y-21699818D01*
X10507942Y-21700182D01*
X10894000Y-21540666D01*
X11189628Y-21245554D01*
X11349818Y-20859774D01*
X11350182Y-20442058D01*
X11350000Y-20441618D01*
X11350000Y-19400000D01*
X11341342Y-19356471D01*
X18099688Y-19356471D01*
X18373145Y-20018286D01*
X18879051Y-20525076D01*
X19540387Y-20799687D01*
X20256471Y-20800312D01*
X20918286Y-20526855D01*
X21425076Y-20020949D01*
X21699687Y-19359613D01*
X21700312Y-18643529D01*
X21426855Y-17981714D01*
X20920949Y-17474924D01*
X20259613Y-17200313D01*
X19543529Y-17199688D01*
X18881714Y-17473145D01*
X18374924Y-17979051D01*
X18100313Y-18640387D01*
X18099688Y-19356471D01*
X11341342Y-19356471D01*
X11270074Y-18998182D01*
X11042462Y-18657538D01*
X10434924Y-18050000D01*
X11734364Y-18050000D01*
X11831827Y-18116594D01*
X12050000Y-18160775D01*
X12950000Y-18160775D01*
X13153818Y-18122424D01*
X13341012Y-18001968D01*
X13466594Y-17818173D01*
X13510775Y-17600000D01*
X13510775Y-17197199D01*
X13550000Y-17000000D01*
X13510775Y-16802801D01*
X13510775Y-16400000D01*
X13472424Y-16196182D01*
X13351968Y-16008988D01*
X13168173Y-15883406D01*
X12950000Y-15839225D01*
X12050000Y-15839225D01*
X11846182Y-15877576D01*
X11733632Y-15950000D01*
X10384924Y-15950000D01*
X9792866Y-15357942D01*
X13849818Y-15357942D01*
X13850000Y-15358382D01*
X13850000Y-17000000D01*
X13889225Y-17197199D01*
X13889225Y-17600000D01*
X13927576Y-17803818D01*
X14048032Y-17991012D01*
X14231827Y-18116594D01*
X14450000Y-18160775D01*
X15350000Y-18160775D01*
X15553818Y-18122424D01*
X15741012Y-18001968D01*
X15866594Y-17818173D01*
X15910775Y-17600000D01*
X15910775Y-17197199D01*
X15950000Y-17000000D01*
X15950000Y-15150916D01*
X15950182Y-14942058D01*
X15790666Y-14556000D01*
X15614974Y-14380000D01*
X21007675Y-14380000D01*
X21095214Y-14820086D01*
X21344502Y-15193173D01*
X21717589Y-15442461D01*
X22157675Y-15530000D01*
X23222325Y-15530000D01*
X23662411Y-15442461D01*
X24035498Y-15193173D01*
X24284786Y-14820086D01*
X24372325Y-14380000D01*
X24284786Y-13939914D01*
X24035498Y-13566827D01*
X23662411Y-13317539D01*
X23222325Y-13230000D01*
X22157675Y-13230000D01*
X21717589Y-13317539D01*
X21344502Y-13566827D01*
X21095214Y-13939914D01*
X21007675Y-14380000D01*
X15614974Y-14380000D01*
X15495554Y-14260372D01*
X15109774Y-14100182D01*
X14692058Y-14099818D01*
X14306000Y-14259334D01*
X14010372Y-14554446D01*
X13850182Y-14940226D01*
X13849818Y-15357942D01*
X9792866Y-15357942D01*
X8342462Y-13907538D01*
X8001818Y-13679926D01*
X7600000Y-13600000D01*
X7100000Y-13600000D01*
X7100000Y-12350916D01*
X7100182Y-12142058D01*
X6940666Y-11756000D01*
X6685113Y-11500000D01*
X7339225Y-11500000D01*
X7339225Y-12400000D01*
X7377576Y-12603818D01*
X7498032Y-12791012D01*
X7681827Y-12916594D01*
X7900000Y-12960775D01*
X8302801Y-12960775D01*
X8500000Y-13000000D01*
X8697199Y-12960775D01*
X9100000Y-12960775D01*
X9303818Y-12922424D01*
X9491012Y-12801968D01*
X9601257Y-12640619D01*
X9698032Y-12791012D01*
X9881827Y-12916594D01*
X10100000Y-12960775D01*
X10502801Y-12960775D01*
X10700000Y-13000000D01*
X13200000Y-13000000D01*
X13397199Y-12960775D01*
X13800000Y-12960775D01*
X14003818Y-12922424D01*
X14191012Y-12801968D01*
X14316594Y-12618173D01*
X14360775Y-12400000D01*
X14360775Y-11500000D01*
X14322424Y-11296182D01*
X14201968Y-11108988D01*
X14018173Y-10983406D01*
X13800000Y-10939225D01*
X13397199Y-10939225D01*
X13200000Y-10900000D01*
X10700000Y-10900000D01*
X10502801Y-10939225D01*
X10100000Y-10939225D01*
X9896182Y-10977576D01*
X9708988Y-11098032D01*
X9598743Y-11259381D01*
X9550000Y-11183632D01*
X9550000Y-10650916D01*
X9550182Y-10442058D01*
X9390666Y-10056000D01*
X9095554Y-9760372D01*
X8709774Y-9600182D01*
X8292058Y-9599818D01*
X7906000Y-9759334D01*
X7610372Y-10054446D01*
X7450182Y-10440226D01*
X7449818Y-10857942D01*
X7450000Y-10858382D01*
X7450000Y-11184364D01*
X7383406Y-11281827D01*
X7339225Y-11500000D01*
X6685113Y-11500000D01*
X6645554Y-11460372D01*
X6259774Y-11300182D01*
X5842058Y-11299818D01*
X5456000Y-11459334D01*
X5160372Y-11754446D01*
X5000182Y-12140226D01*
X4999818Y-12557942D01*
X5000000Y-12558382D01*
X5000000Y-13600000D01*
X3631367Y-13600000D01*
X3602424Y-13446182D01*
X3481968Y-13258988D01*
X3298173Y-13133406D01*
X3080000Y-13089225D01*
X1880000Y-13089225D01*
X1676182Y-13127576D01*
X1488988Y-13248032D01*
X1363406Y-13431827D01*
X1319225Y-13650000D01*
X1319225Y-15650000D01*
X1357576Y-15853818D01*
X1451642Y-16000000D01*
X966520Y-16000000D01*
X1056594Y-15868173D01*
X1100775Y-15650000D01*
X1100775Y-13650000D01*
X1062424Y-13446182D01*
X990000Y-13333632D01*
X990000Y-13044924D01*
X2384924Y-11650000D01*
X4500000Y-11650000D01*
X4901818Y-11570074D01*
X5242462Y-11342462D01*
X6942462Y-9642462D01*
X7170074Y-9301818D01*
X7250000Y-8900000D01*
X7250000Y-7200000D01*
X7170074Y-6798182D01*
X7095218Y-6686152D01*
X7339225Y-6442145D01*
X7339225Y-6800000D01*
X7377576Y-7003818D01*
X7450000Y-7116368D01*
X7450000Y-7399084D01*
X7449818Y-7607942D01*
X7609334Y-7994000D01*
X7904446Y-8289628D01*
X8290226Y-8449818D01*
X8707942Y-8450182D01*
X9094000Y-8290666D01*
X9389628Y-7995554D01*
X9549818Y-7609774D01*
X9550182Y-7192058D01*
X9550000Y-7191618D01*
X9550000Y-7115636D01*
X9601257Y-7040619D01*
X9698032Y-7191012D01*
X9881827Y-7316594D01*
X10100000Y-7360775D01*
X10502801Y-7360775D01*
X10700000Y-7400000D01*
X13100000Y-7400000D01*
X13501818Y-7320074D01*
X13515735Y-7310775D01*
X13750000Y-7310775D01*
X13953818Y-7272424D01*
X14141012Y-7151968D01*
X14266594Y-6968173D01*
X14310775Y-6750000D01*
X14310775Y-5850000D01*
X14282551Y-5700000D01*
X15300000Y-5700000D01*
X15551795Y-5649915D01*
X15857942Y-5650182D01*
X16000000Y-5591485D01*
X16000000Y-6950000D01*
X15750000Y-6950000D01*
X15462987Y-7007090D01*
X15219670Y-7169670D01*
X14019670Y-8369670D01*
X13857090Y-8612987D01*
X13800000Y-8900000D01*
X13800000Y-9600000D01*
X13857090Y-9887013D01*
X14019670Y-10130330D01*
X15019670Y-11130330D01*
X15262988Y-11292911D01*
X15550000Y-11350000D01*
X15789340Y-11350000D01*
X16809670Y-12370330D01*
X17052987Y-12532910D01*
X17340000Y-12590000D01*
X18762291Y-12590000D01*
X18804502Y-12653173D01*
X19177589Y-12902461D01*
X19617675Y-12990000D01*
X20682325Y-12990000D01*
X21122411Y-12902461D01*
X21420000Y-12703619D01*
X21717589Y-12902461D01*
X22157675Y-12990000D01*
X23222325Y-12990000D01*
X23662411Y-12902461D01*
X24035498Y-12653173D01*
X24284786Y-12280086D01*
X24372325Y-11840000D01*
X24284786Y-11399914D01*
X24035498Y-11026827D01*
X23662411Y-10777539D01*
X23222325Y-10690000D01*
X22157675Y-10690000D01*
X21717589Y-10777539D01*
X21420000Y-10976381D01*
X21122411Y-10777539D01*
X20682325Y-10690000D01*
X19617675Y-10690000D01*
X19177589Y-10777539D01*
X18804502Y-11026827D01*
X18762291Y-11090000D01*
X17650660Y-11090000D01*
X16630330Y-10069670D01*
X16387013Y-9907090D01*
X16100000Y-9850000D01*
X15860660Y-9850000D01*
X15310660Y-9300000D01*
X18467675Y-9300000D01*
X18555214Y-9740086D01*
X18804502Y-10113173D01*
X19177589Y-10362461D01*
X19617675Y-10450000D01*
X20682325Y-10450000D01*
X21122411Y-10362461D01*
X21420000Y-10163619D01*
X21717589Y-10362461D01*
X22157675Y-10450000D01*
X23222325Y-10450000D01*
X23662411Y-10362461D01*
X24035498Y-10113173D01*
X24284786Y-9740086D01*
X24372325Y-9300000D01*
X24284786Y-8859914D01*
X24035498Y-8486827D01*
X23662411Y-8237539D01*
X23222325Y-8150000D01*
X22157675Y-8150000D01*
X21717589Y-8237539D01*
X21420000Y-8436381D01*
X21122411Y-8237539D01*
X20682325Y-8150000D01*
X19617675Y-8150000D01*
X19177589Y-8237539D01*
X18804502Y-8486827D01*
X18555214Y-8859914D01*
X18467675Y-9300000D01*
X15310660Y-9300000D01*
X15300000Y-9289340D01*
X15300000Y-9210660D01*
X16060660Y-8450000D01*
X16350000Y-8450000D01*
X16637013Y-8392910D01*
X16880330Y-8230330D01*
X17280330Y-7830330D01*
X17442910Y-7587013D01*
X17500000Y-7300000D01*
X17500000Y-6710660D01*
X18079670Y-7290330D01*
X18322987Y-7452910D01*
X18610000Y-7510000D01*
X18762291Y-7510000D01*
X18804502Y-7573173D01*
X19177589Y-7822461D01*
X19617675Y-7910000D01*
X20682325Y-7910000D01*
X21122411Y-7822461D01*
X21495498Y-7573173D01*
X21744786Y-7200086D01*
X21832325Y-6760000D01*
X21744786Y-6319914D01*
X21495498Y-5946827D01*
X21122411Y-5697539D01*
X20682325Y-5610000D01*
X19617675Y-5610000D01*
X19177589Y-5697539D01*
X18836264Y-5925604D01*
X18550000Y-5639340D01*
X18550000Y-4633874D01*
X18555214Y-4660086D01*
X18804502Y-5033173D01*
X19177589Y-5282461D01*
X19617675Y-5370000D01*
X20682325Y-5370000D01*
X21122411Y-5282461D01*
X21420000Y-5083619D01*
X21717589Y-5282461D01*
X22157675Y-5370000D01*
X23222325Y-5370000D01*
X23662411Y-5282461D01*
X24035498Y-5033173D01*
X24284786Y-4660086D01*
X24372325Y-4220000D01*
X24284786Y-3779914D01*
X24035498Y-3406827D01*
X23662411Y-3157539D01*
X23222325Y-3070000D01*
X22157675Y-3070000D01*
X21717589Y-3157539D01*
X21420000Y-3356381D01*
X21122411Y-3157539D01*
X20682325Y-3070000D01*
X19617675Y-3070000D01*
X19177589Y-3157539D01*
X18804502Y-3406827D01*
X18555214Y-3779914D01*
X18550000Y-3806126D01*
X18550000Y-3700000D01*
X18492910Y-3412987D01*
X18330330Y-3169670D01*
X17543041Y-2382381D01*
X17644000Y-2340666D01*
X17939628Y-2045554D01*
X17967579Y-1978239D01*
X18199670Y-2210330D01*
X18442987Y-2372910D01*
X18730000Y-2430000D01*
X18762291Y-2430000D01*
X18804502Y-2493173D01*
X19177589Y-2742461D01*
X19617675Y-2830000D01*
X20682325Y-2830000D01*
X21122411Y-2742461D01*
X21420000Y-2543619D01*
X21717589Y-2742461D01*
X22157675Y-2830000D01*
X23222325Y-2830000D01*
X23662411Y-2742461D01*
X24035498Y-2493173D01*
X24284786Y-2120086D01*
X24372325Y-1680000D01*
X24284786Y-1239914D01*
X24035498Y-866827D01*
X23662411Y-617539D01*
X23222325Y-530000D01*
X22157675Y-530000D01*
X21717589Y-617539D01*
X21420000Y-816381D01*
X21122411Y-617539D01*
X20682325Y-530000D01*
X19617675Y-530000D01*
X19177589Y-617539D01*
X18908199Y-797539D01*
X18030330Y80330D01*
X17985926Y110000D01*
X18762291Y110000D01*
X18804502Y46827D01*
X19177589Y-202461D01*
X19617675Y-290000D01*
X20682325Y-290000D01*
X21122411Y-202461D01*
X21495498Y46827D01*
X21744786Y419914D01*
X21832325Y860000D01*
X21744786Y1300086D01*
X21495498Y1673173D01*
X21122411Y1922461D01*
X20682325Y2010000D01*
X19617675Y2010000D01*
X19177589Y1922461D01*
X18804502Y1673173D01*
X18762291Y1610000D01*
X17150660Y1610000D01*
X16921435Y1839225D01*
X16975000Y1839225D01*
X17178818Y1877576D01*
X17366012Y1998032D01*
X17491594Y2181827D01*
X17535775Y2400000D01*
X17535775Y3400000D01*
X18467675Y3400000D01*
X18555214Y2959914D01*
X18804502Y2586827D01*
X19177589Y2337539D01*
X19617675Y2250000D01*
X20682325Y2250000D01*
X21122411Y2337539D01*
X21420000Y2536381D01*
X21717589Y2337539D01*
X22157675Y2250000D01*
X23222325Y2250000D01*
X23662411Y2337539D01*
X24035498Y2586827D01*
X24284786Y2959914D01*
X24372325Y3400000D01*
X24284786Y3840086D01*
X24035498Y4213173D01*
X23662411Y4462461D01*
X23222325Y4550000D01*
X22157675Y4550000D01*
X21717589Y4462461D01*
X21420000Y4263619D01*
X21122411Y4462461D01*
X20682325Y4550000D01*
X19617675Y4550000D01*
X19177589Y4462461D01*
X18804502Y4213173D01*
X18555214Y3840086D01*
X18467675Y3400000D01*
X17535775Y3400000D01*
X17535775Y3600000D01*
X17497424Y3803818D01*
X17376968Y3991012D01*
X17193173Y4116594D01*
X16975000Y4160775D01*
X16225000Y4160775D01*
X16021182Y4122424D01*
X15833988Y4001968D01*
X15708406Y3818173D01*
X15694601Y3750000D01*
X15210755Y3750000D01*
X15210755Y4024170D01*
X15172404Y4227988D01*
X15051948Y4415182D01*
X14868153Y4540764D01*
X14649980Y4584945D01*
X13649980Y4584945D01*
X13446162Y4546594D01*
X13258968Y4426138D01*
X13133386Y4242343D01*
X13089205Y4024170D01*
X13089205Y3749280D01*
X12749280Y3749280D01*
X12462267Y3692190D01*
X12218950Y3529610D01*
X11439340Y2750000D01*
X10710660Y2750000D01*
X10498160Y2962500D01*
X10498160Y9923334D01*
X10533725Y10098960D01*
X10533725Y11098960D01*
X10562795Y11098960D01*
X10562795Y10098960D01*
X10598360Y9909948D01*
X10598360Y9551640D01*
X10655450Y9264627D01*
X10818030Y9021310D01*
X10999990Y8839350D01*
X10999818Y8642058D01*
X11159334Y8256000D01*
X11240206Y8174987D01*
X11010372Y7945554D01*
X10850182Y7559774D01*
X10849818Y7142058D01*
X11009334Y6756000D01*
X11065206Y6700030D01*
X10860372Y6495554D01*
X10700182Y6109774D01*
X10699818Y5692058D01*
X10859334Y5306000D01*
X11154446Y5010372D01*
X11540226Y4850182D01*
X11748899Y4850000D01*
X11963407Y4706670D01*
X12250420Y4649580D01*
X13474354Y4649580D01*
X13649980Y4614015D01*
X14649980Y4614015D01*
X14853798Y4652366D01*
X15040992Y4772822D01*
X15166574Y4956617D01*
X15210755Y5174790D01*
X15210755Y5624370D01*
X15176567Y5806064D01*
X15210755Y5974890D01*
X15210755Y6249780D01*
X18599780Y6249780D01*
X18886793Y6306870D01*
X19026171Y6400000D01*
X21108520Y6400000D01*
X21095214Y6380086D01*
X21007675Y5940000D01*
X21095214Y5499914D01*
X21344502Y5126827D01*
X21717589Y4877539D01*
X22157675Y4790000D01*
X23222325Y4790000D01*
X23662411Y4877539D01*
X24035498Y5126827D01*
X24284786Y5499914D01*
X24372325Y5940000D01*
X24284786Y6380086D01*
X24035498Y6753173D01*
X23662411Y7002461D01*
X23335869Y7067415D01*
X23220330Y7240330D01*
X23130660Y7330000D01*
X23222325Y7330000D01*
X23662411Y7417539D01*
X24035498Y7666827D01*
X24284786Y8039914D01*
X24372325Y8480000D01*
X24284786Y8920086D01*
X24035498Y9293173D01*
X23662411Y9542461D01*
X23393049Y9596041D01*
X23382910Y9647013D01*
X23220330Y9890330D01*
X22830330Y10280330D01*
X22587013Y10442910D01*
X22300000Y10500000D01*
X21691389Y10500000D01*
X21744786Y10579914D01*
X21832325Y11020000D01*
X21744786Y11460086D01*
X21495498Y11833173D01*
X21122411Y12082461D01*
X20682325Y12170000D01*
X19617675Y12170000D01*
X19177589Y12082461D01*
X18804502Y11833173D01*
X18795700Y11820000D01*
X16104924Y11820000D01*
X16794924Y12510000D01*
X19158940Y12510000D01*
X19177589Y12497539D01*
X19617675Y12410000D01*
X20682325Y12410000D01*
X21122411Y12497539D01*
X21420000Y12696381D01*
X21717589Y12497539D01*
X22157675Y12410000D01*
X23222325Y12410000D01*
X23662411Y12497539D01*
X24035498Y12746827D01*
X24284786Y13119914D01*
X24372325Y13560000D01*
X24284786Y14000086D01*
X24035498Y14373173D01*
X23662411Y14622461D01*
X23222325Y14710000D01*
X22157675Y14710000D01*
X21717589Y14622461D01*
X21420000Y14423619D01*
X21122411Y14622461D01*
X20682325Y14710000D01*
X19617675Y14710000D01*
X19177589Y14622461D01*
X19158940Y14610000D01*
X16360000Y14610000D01*
X15958182Y14530074D01*
X15617538Y14302462D01*
X12965076Y11650000D01*
X12550000Y11650000D01*
X12485086Y11637088D01*
X12373250Y11659735D01*
X11923670Y11659735D01*
X11741976Y11625547D01*
X11573150Y11659735D01*
X11123570Y11659735D01*
X10919752Y11621384D01*
X10732558Y11500928D01*
X10606976Y11317133D01*
X10562795Y11098960D01*
X10533725Y11098960D01*
X10498160Y11287972D01*
X10498160Y11801511D01*
X10503818Y11802576D01*
X10691012Y11923032D01*
X10816594Y12106827D01*
X10860775Y12325000D01*
X10860775Y13075000D01*
X10822424Y13278818D01*
X10701968Y13466012D01*
X10518173Y13591594D01*
X10300000Y13635775D01*
X10153150Y13635775D01*
X10101818Y13670074D01*
X9700000Y13750000D01*
X8834924Y13750000D01*
X8600000Y13984924D01*
X8600000Y15309084D01*
X8600182Y15517942D01*
X8440666Y15904000D01*
X8145554Y16199628D01*
X7759774Y16359818D01*
X7342058Y16360182D01*
X6956000Y16200666D01*
X6660372Y15905554D01*
X6500182Y15519774D01*
X6499818Y15102058D01*
X6500000Y15101618D01*
X6500000Y13550000D01*
X6579926Y13148182D01*
X6807538Y12807538D01*
X7657538Y11957538D01*
X7998182Y11729926D01*
X8351059Y11659735D01*
X7923170Y11659735D01*
X7741476Y11625547D01*
X7572650Y11659735D01*
X7123070Y11659735D01*
X6941376Y11625547D01*
X6772550Y11659735D01*
X6322970Y11659735D01*
X6141276Y11625547D01*
X5972450Y11659735D01*
X5697560Y11659735D01*
X5697560Y11936900D01*
X5830330Y12069670D01*
X5992910Y12312987D01*
X6050000Y12600000D01*
X6050000Y13165062D01*
X6189628Y13304446D01*
X6349818Y13690226D01*
X6350182Y14107942D01*
X6190666Y14494000D01*
X5895554Y14789628D01*
X5509774Y14949818D01*
X5092058Y14950182D01*
X4706000Y14790666D01*
X4410372Y14495554D01*
X4250182Y14109774D01*
X4250043Y13949914D01*
X3942058Y13950182D01*
X3556000Y13790666D01*
X3260372Y13495554D01*
X3100182Y13109774D01*
X3099818Y12692058D01*
X3259334Y12306000D01*
X3400000Y12165088D01*
X3400000Y11274586D01*
X3364435Y11098960D01*
X3364435Y10098960D01*
X3402786Y9895142D01*
X3523242Y9707948D01*
X3707037Y9582366D01*
X3925210Y9538185D01*
X4374790Y9538185D01*
X4555167Y9572125D01*
X4722770Y9538185D01*
X5172350Y9538185D01*
X5354044Y9572373D01*
X5522870Y9538185D01*
X5972450Y9538185D01*
X6154144Y9572373D01*
X6322970Y9538185D01*
X6772550Y9538185D01*
X6954244Y9572373D01*
X7123070Y9538185D01*
X7572650Y9538185D01*
X7754344Y9572373D01*
X7923170Y9538185D01*
X8372750Y9538185D01*
X8554444Y9572373D01*
X8723270Y9538185D01*
X8998160Y9538185D01*
X8998160Y8112500D01*
X7880330Y9230330D01*
X7637013Y9392910D01*
X7350000Y9450000D01*
X5650000Y9450000D01*
X5588700Y9437807D01*
X5559774Y9449818D01*
X5142058Y9450182D01*
X4756000Y9290666D01*
X4460372Y8995554D01*
X4300182Y8609774D01*
X4299818Y8192058D01*
X4459334Y7806000D01*
X4754446Y7510372D01*
X5140226Y7350182D01*
X5539174Y7349834D01*
X5139020Y6949680D01*
X3211795Y6949680D01*
X3211795Y7224570D01*
X3177607Y7406264D01*
X3211795Y7575090D01*
X3211795Y8024670D01*
X3177607Y8206364D01*
X3211795Y8375190D01*
X3211795Y8824770D01*
X3173444Y9028588D01*
X3075000Y9181574D01*
X3075000Y10500000D01*
X3004589Y10853982D01*
X2804074Y11154074D01*
X2804071Y11154076D01*
X704074Y13254074D01*
X403983Y13454589D01*
X50000Y13525000D01*
X-1589552Y13525000D01*
X-1500182Y13740226D01*
X-1499818Y14157942D01*
X-1615000Y14436704D01*
X-1615000Y15933267D01*
X-1226740Y16320849D01*
X-990270Y16890333D01*
X-990268Y16893039D01*
X989732Y16893039D01*
X1225208Y16323143D01*
X1660849Y15886740D01*
X2230333Y15650270D01*
X2846961Y15649732D01*
X3416857Y15885208D01*
X3853260Y16320849D01*
X4089730Y16890333D01*
X4089732Y16893039D01*
X10549732Y16893039D01*
X10785208Y16323143D01*
X11220849Y15886740D01*
X11790333Y15650270D01*
X12406961Y15649732D01*
X12976857Y15885208D01*
X13370304Y16277968D01*
X13760849Y15886740D01*
X14330333Y15650270D01*
X14946961Y15649732D01*
X15516857Y15885208D01*
X15953260Y16320849D01*
X16189730Y16890333D01*
X16190268Y17506961D01*
X15954792Y18076857D01*
X15519151Y18513260D01*
X14949667Y18749730D01*
X14333039Y18750268D01*
X13763143Y18514792D01*
X13369696Y18122032D01*
X12979151Y18513260D01*
X12409667Y18749730D01*
X11793039Y18750268D01*
X11223143Y18514792D01*
X10786740Y18079151D01*
X10550270Y17509667D01*
X10549732Y16893039D01*
X4089732Y16893039D01*
X4090268Y17506961D01*
X3854792Y18076857D01*
X3419151Y18513260D01*
X2849667Y18749730D01*
X2233039Y18750268D01*
X1663143Y18514792D01*
X1226740Y18079151D01*
X990270Y17509667D01*
X989732Y16893039D01*
X-990268Y16893039D01*
X-989732Y17506961D01*
X-1225208Y18076857D01*
X-1660849Y18513260D01*
X-2230333Y18749730D01*
X-2846961Y18750268D01*
X-3416857Y18514792D01*
X-3853260Y18079151D01*
X-4089730Y17509667D01*
X-4090268Y16893039D01*
X-3854792Y16323143D01*
X-3465000Y15932669D01*
X-3465000Y14484451D01*
X-3599818Y14159774D01*
X-3600182Y13742058D01*
X-3510495Y13525000D01*
X-4576853Y13525000D01*
X-8010211Y16958358D01*
X-8009732Y17506961D01*
X-8245208Y18076857D01*
X-8680849Y18513260D01*
X-9250333Y18749730D01*
X-9866961Y18750268D01*
X-10436857Y18514792D01*
X-10830304Y18122032D01*
X-11220849Y18513260D01*
X-11790333Y18749730D01*
X-12406961Y18750268D01*
X-12976857Y18514792D01*
X-13413260Y18079151D01*
X-13649730Y17509667D01*
X-13650268Y16893039D01*
X-13414792Y16323143D01*
X-12979151Y15886740D01*
X-12409667Y15650270D01*
X-11793039Y15649732D01*
X-11223143Y15885208D01*
X-10829696Y16277968D01*
X-10439151Y15886740D01*
X-9869667Y15650270D01*
X-9317936Y15649789D01*
X-8800673Y15132526D01*
X-9144000Y14990666D01*
X-9439628Y14695554D01*
X-9599818Y14309774D01*
X-9600182Y13892058D01*
X-9475000Y13589095D01*
X-9475000Y13560775D01*
X-10150000Y13560775D01*
X-10353818Y13522424D01*
X-10541012Y13401968D01*
X-10542357Y13400000D01*
X-11709364Y13400000D01*
X-11806827Y13466594D01*
X-12025000Y13510775D01*
X-12775000Y13510775D01*
X-12978818Y13472424D01*
X-13091368Y13400000D01*
X-13176459Y13400000D01*
X-13402512Y13551043D01*
X-13900000Y13650000D01*
X-15900000Y13650000D01*
X-16397489Y13551043D01*
X-16819239Y13269239D01*
X-17048478Y13040000D01*
X-19300000Y13040000D01*
X-19300000Y15600000D01*
X-19398957Y16097488D01*
X-19398957Y16097489D01*
X-19680761Y16519239D01*
X-21750000Y18588478D01*
X-21750000Y20633529D01*
X-21690312Y20633529D01*
X-21416855Y19971714D01*
X-20910949Y19464924D01*
X-20249613Y19190313D01*
X-19533529Y19189688D01*
X-18871714Y19463145D01*
X-18364924Y19969051D01*
X-18090313Y20630387D01*
X-18089688Y21346471D01*
X-18363145Y22008286D01*
X-18869051Y22515076D01*
X-19530387Y22789687D01*
X-20246471Y22790312D01*
X-20908286Y22516855D01*
X-21415076Y22010949D01*
X-21689687Y21349613D01*
X-21690312Y20633529D01*
X-21750000Y20633529D01*
X-21750000Y22011522D01*
X-20911522Y22850000D01*
X20561522Y22850000D01*
X21390000Y22021522D01*
X21390000Y21955205D01*
X20920949Y22425076D01*
X20259613Y22699687D01*
X19543529Y22700312D01*
X18881714Y22426855D01*
X18374924Y21920949D01*
X18100313Y21259613D01*
X18099688Y20543529D01*
X18373145Y19881714D01*
X18879051Y19374924D01*
X19540387Y19100313D01*
X20256471Y19099688D01*
X20918286Y19373145D01*
X21390000Y19844036D01*
X21390000Y17232424D01*
X21250000Y17260775D01*
X19050000Y17260775D01*
X18846182Y17222424D01*
X18658988Y17101968D01*
X18533406Y16918173D01*
X18489225Y16700000D01*
X18489225Y15500000D01*
X18527576Y15296182D01*
X18648032Y15108988D01*
X18831827Y14983406D01*
X19050000Y14939225D01*
X21250000Y14939225D01*
X21453818Y14977576D01*
X21633902Y15093457D01*
X21717589Y15037539D01*
X22098506Y14961769D01*
X22192512Y14898957D01*
X22690000Y14800000D01*
X23187488Y14898957D01*
X23281494Y14961769D01*
X23662411Y15037539D01*
X24035498Y15286827D01*
X24284786Y15659914D01*
X24372325Y16100000D01*
X24284786Y16540086D01*
X24035498Y16913173D01*
X23990000Y16943574D01*
X23990000Y22559995D01*
X23990001Y22560000D01*
X23891043Y23057488D01*
X23609239Y23479239D01*
X22019239Y25069239D01*
X21597489Y25351043D01*
X21477049Y25375000D01*
X24375000Y25375000D01*
X24375000Y-25375000D01*
X-24375000Y-25375000D01*
X-24375000Y-24507942D01*
X9249818Y-24507942D01*
X9409334Y-24894000D01*
X9704446Y-25189628D01*
X10090226Y-25349818D01*
X10507942Y-25350182D01*
X10508382Y-25350000D01*
X12550000Y-25350000D01*
X12747199Y-25310775D01*
X13150000Y-25310775D01*
X13353818Y-25272424D01*
X13541012Y-25151968D01*
X13666594Y-24968173D01*
X13710775Y-24750000D01*
X13710775Y-23850000D01*
X13672424Y-23646182D01*
X13551968Y-23458988D01*
X13368173Y-23333406D01*
X13150000Y-23289225D01*
X12747199Y-23289225D01*
X12550000Y-23250000D01*
X10300916Y-23250000D01*
X10092058Y-23249818D01*
X9706000Y-23409334D01*
X9410372Y-23704446D01*
X9250182Y-24090226D01*
X9249818Y-24507942D01*
X-24375000Y-24507942D01*
X-24375000Y-19356471D01*
X-21700312Y-19356471D01*
X-21426855Y-20018286D01*
X-20920949Y-20525076D01*
X-20259613Y-20799687D01*
X-19543529Y-20800312D01*
X-18881714Y-20526855D01*
X-18374924Y-20020949D01*
X-18100313Y-19359613D01*
X-18099688Y-18643529D01*
X-18373145Y-17981714D01*
X-18879051Y-17474924D01*
X-19540387Y-17200313D01*
X-20256471Y-17199688D01*
X-20918286Y-17473145D01*
X-21425076Y-17979051D01*
X-21699687Y-18640387D01*
X-21700312Y-19356471D01*
X-24375000Y-19356471D01*
X-24375000Y643039D01*
X-22150268Y643039D01*
X-21914792Y73143D01*
X-21542032Y-300269D01*
X-21913260Y-670849D01*
X-22149730Y-1240333D01*
X-22150268Y-1856961D01*
X-21914792Y-2426857D01*
X-21542032Y-2800269D01*
X-21913260Y-3170849D01*
X-22149730Y-3740333D01*
X-22150268Y-4356961D01*
X-21914792Y-4926857D01*
X-21479151Y-5363260D01*
X-20909667Y-5599730D01*
X-20293039Y-5600268D01*
X-19723143Y-5364792D01*
X-19286740Y-4929151D01*
X-19050270Y-4359667D01*
X-19049732Y-3743039D01*
X-19285208Y-3173143D01*
X-19657968Y-2799731D01*
X-19286740Y-2429151D01*
X-19050270Y-1859667D01*
X-19049732Y-1243039D01*
X-19285208Y-673143D01*
X-19657968Y-299731D01*
X-19286740Y70849D01*
X-19050270Y640333D01*
X-19049732Y1256961D01*
X-19285208Y1826857D01*
X-19720849Y2263260D01*
X-20290333Y2499730D01*
X-20906961Y2500268D01*
X-21476857Y2264792D01*
X-21913260Y1829151D01*
X-22149730Y1259667D01*
X-22150268Y643039D01*
X-24375000Y643039D01*
X-24375000Y25375000D01*
X-21827049Y25375000D01*
X-21947488Y25351043D01*
X-21947488Y25351043D01*
G37*
X-21947488Y25351043D02*
X-22369239Y25069239D01*
X-23969239Y23469239D01*
X-24251043Y23047489D01*
X-24251043Y23047488D01*
X-24350000Y22550000D01*
X-24350000Y18050000D01*
X-24251043Y17552511D01*
X-23969239Y17130761D01*
X-21900000Y15061522D01*
X-21900000Y12762474D01*
X-22054503Y12659239D01*
X-22336307Y12237488D01*
X-22435264Y11740000D01*
X-22336307Y11242512D01*
X-22054503Y10820761D01*
X-21632752Y10538957D01*
X-21135264Y10440000D01*
X-16510000Y10440000D01*
X-16012511Y10538957D01*
X-15590761Y10820761D01*
X-15361522Y11050000D01*
X-13900000Y11050000D01*
X-13402512Y11148957D01*
X-13176459Y11300000D01*
X-13090636Y11300000D01*
X-12993173Y11233406D01*
X-12775000Y11189225D01*
X-12025000Y11189225D01*
X-11821182Y11227576D01*
X-11708632Y11300000D01*
X-10538814Y11300000D01*
X-10368173Y11183406D01*
X-10150000Y11139225D01*
X-9350000Y11139225D01*
X-9146182Y11177576D01*
X-9117063Y11196313D01*
X-9098173Y11183406D01*
X-8880000Y11139225D01*
X-8080000Y11139225D01*
X-7876182Y11177576D01*
X-7688988Y11298032D01*
X-7563406Y11481827D01*
X-7519225Y11700000D01*
X-7519225Y13000000D01*
X-7557576Y13203818D01*
X-7625000Y13308598D01*
X-7625000Y13589631D01*
X-7517256Y13849108D01*
X-5614076Y11945929D01*
X-5614074Y11945926D01*
X-5313982Y11745411D01*
X-4960000Y11675000D01*
X-333148Y11675000D01*
X1225000Y10116853D01*
X1225000Y9175502D01*
X1134426Y9042943D01*
X1090245Y8824770D01*
X1090245Y8549880D01*
X560780Y8549880D01*
X297353Y8813307D01*
X220074Y9201818D01*
X185775Y9253150D01*
X185775Y9400000D01*
X147424Y9603818D01*
X26968Y9791012D01*
X-156827Y9916594D01*
X-375000Y9960775D01*
X-1125000Y9960775D01*
X-1328818Y9922424D01*
X-1516012Y9801968D01*
X-1517357Y9800000D01*
X-2699084Y9800000D01*
X-2907942Y9800182D01*
X-2908382Y9800000D01*
X-3909364Y9800000D01*
X-4006827Y9866594D01*
X-4225000Y9910775D01*
X-4975000Y9910775D01*
X-5178818Y9872424D01*
X-5366012Y9751968D01*
X-5491594Y9568173D01*
X-5535775Y9350000D01*
X-5535775Y9203150D01*
X-5570074Y9151818D01*
X-5650000Y8750000D01*
X-5650000Y4230000D01*
X-5570074Y3828182D01*
X-5430775Y3619707D01*
X-5430775Y2050000D01*
X-5392424Y1846182D01*
X-5271968Y1658988D01*
X-5088173Y1533406D01*
X-4870000Y1489225D01*
X-2870000Y1489225D01*
X-2666182Y1527576D01*
X-2495252Y1637566D01*
X-2406067Y1576629D01*
X-2491012Y1521968D01*
X-2616594Y1338173D01*
X-2660775Y1120000D01*
X-2660775Y-1780000D01*
X-2622424Y-1983818D01*
X-2501968Y-2171012D01*
X-2318173Y-2296594D01*
X-2100000Y-2340775D01*
X-100000Y-2340775D01*
X103818Y-2302424D01*
X291012Y-2181968D01*
X416594Y-1998173D01*
X460775Y-1780000D01*
X460775Y-201020D01*
X2151020Y-201020D01*
X2223590Y-186585D01*
X2651020Y-186585D01*
X2854838Y-148234D01*
X3042032Y-27778D01*
X3123644Y91665D01*
X3404446Y-189628D01*
X3790226Y-349818D01*
X3868550Y-349886D01*
X3721392Y-377576D01*
X3534198Y-498032D01*
X3408616Y-681827D01*
X3364435Y-900000D01*
X3364435Y-1124905D01*
X3187181Y-1302159D01*
X3095554Y-1210372D01*
X2709774Y-1050182D01*
X2292058Y-1049818D01*
X1906000Y-1209334D01*
X1610372Y-1504446D01*
X1450182Y-1890226D01*
X1449818Y-2307942D01*
X1609334Y-2694000D01*
X1714988Y-2799838D01*
X1710372Y-2804446D01*
X1550182Y-3190226D01*
X1549818Y-3607942D01*
X1709334Y-3994000D01*
X1904218Y-4189225D01*
X1880000Y-4189225D01*
X1676182Y-4227576D01*
X1488988Y-4348032D01*
X1419316Y-4450000D01*
X1000533Y-4450000D01*
X941968Y-4358988D01*
X758173Y-4233406D01*
X540000Y-4189225D01*
X-660000Y-4189225D01*
X-863818Y-4227576D01*
X-1051012Y-4348032D01*
X-1120684Y-4450000D01*
X-1539467Y-4450000D01*
X-1598032Y-4358988D01*
X-1781827Y-4233406D01*
X-2000000Y-4189225D01*
X-3200000Y-4189225D01*
X-3403818Y-4227576D01*
X-3591012Y-4348032D01*
X-3694847Y-4500000D01*
X-5750000Y-4500000D01*
X-6247488Y-4598957D01*
X-6669239Y-4880761D01*
X-6951043Y-5302512D01*
X-7050000Y-5800000D01*
X-7050000Y-7311523D01*
X-8238478Y-8500000D01*
X-9850000Y-8500000D01*
X-9850000Y-6950000D01*
X-9948957Y-6452512D01*
X-10114225Y-6205170D01*
X-10114225Y-5875000D01*
X-10152576Y-5671182D01*
X-10273032Y-5483988D01*
X-10456827Y-5358406D01*
X-10675000Y-5314225D01*
X-11625000Y-5314225D01*
X-11828818Y-5352576D01*
X-12016012Y-5473032D01*
X-12141594Y-5656827D01*
X-12150000Y-5698337D01*
X-12150000Y-4162498D01*
X-11998707Y-4011205D01*
X-10801180Y-4011205D01*
X-10597362Y-3972854D01*
X-10410168Y-3852398D01*
X-10284586Y-3668603D01*
X-10240405Y-3450430D01*
X-10240405Y-1649570D01*
X-10278756Y-1445752D01*
X-10399212Y-1258558D01*
X-10583007Y-1132976D01*
X-10801180Y-1088795D01*
X-13950780Y-1088795D01*
X-14154598Y-1127146D01*
X-14341792Y-1247602D01*
X-14467374Y-1431397D01*
X-14511555Y-1649570D01*
X-14511555Y-2917772D01*
X-14651043Y-3126531D01*
X-14719212Y-3469239D01*
X-14750000Y-3624020D01*
X-14750000Y-5900000D01*
X-14849084Y-5900000D01*
X-15057942Y-5899818D01*
X-15410623Y-6045543D01*
X-15260372Y-5895554D01*
X-15100182Y-5509774D01*
X-15099818Y-5092058D01*
X-15225000Y-4789095D01*
X-15225000Y-583148D01*
X-12716852Y1925000D01*
X-10626620Y1925000D01*
X-10551968Y1808988D01*
X-10368173Y1683406D01*
X-10150000Y1639225D01*
X-9350000Y1639225D01*
X-9146182Y1677576D01*
X-9117063Y1696313D01*
X-9098173Y1683406D01*
X-8880000Y1639225D01*
X-8080000Y1639225D01*
X-7876182Y1677576D01*
X-7847063Y1696313D01*
X-7828173Y1683406D01*
X-7610000Y1639225D01*
X-6810000Y1639225D01*
X-6606182Y1677576D01*
X-6418988Y1798032D01*
X-6293406Y1981827D01*
X-6249225Y2200000D01*
X-6249225Y3500000D01*
X-6285000Y3690128D01*
X-6285000Y5410000D01*
X-6319586Y5583878D01*
X-6355411Y5763983D01*
X-6555926Y6064074D01*
X-8545926Y8054074D01*
X-8846017Y8254589D01*
X-9200000Y8325000D01*
X-12589631Y8325000D01*
X-12890226Y8449818D01*
X-13307942Y8450182D01*
X-13694000Y8290666D01*
X-13989628Y7995554D01*
X-14149818Y7609774D01*
X-14150182Y7192058D01*
X-13990666Y6806000D01*
X-13695554Y6510372D01*
X-13309774Y6350182D01*
X-12892058Y6349818D01*
X-12589095Y6475000D01*
X-9583148Y6475000D01*
X-9108069Y5999921D01*
X-9407942Y6000182D01*
X-9710905Y5875000D01*
X-13100000Y5875000D01*
X-13453983Y5804589D01*
X-13754074Y5604074D01*
X-14433148Y4925000D01*
X-16939631Y4925000D01*
X-17240226Y5049818D01*
X-17657942Y5050182D01*
X-18044000Y4890666D01*
X-18339628Y4595554D01*
X-18499818Y4209774D01*
X-18500182Y3792058D01*
X-18340666Y3406000D01*
X-18045554Y3110372D01*
X-17659774Y2950182D01*
X-17242058Y2949818D01*
X-16939095Y3075000D01*
X-14183148Y3075000D01*
X-16804074Y454074D01*
X-17004589Y153983D01*
X-17063090Y-140124D01*
X-17075000Y-200000D01*
X-17075000Y-4789631D01*
X-17199818Y-5090226D01*
X-17200182Y-5507942D01*
X-17040666Y-5894000D01*
X-16745554Y-6189628D01*
X-16359774Y-6349818D01*
X-15942058Y-6350182D01*
X-15589377Y-6204457D01*
X-15739628Y-6354446D01*
X-15899818Y-6740226D01*
X-15900182Y-7157942D01*
X-15740666Y-7544000D01*
X-15445554Y-7839628D01*
X-15059774Y-7999818D01*
X-14642058Y-8000182D01*
X-14641618Y-8000000D01*
X-14485775Y-8000000D01*
X-14485775Y-8025000D01*
X-14447424Y-8228818D01*
X-14326968Y-8416012D01*
X-14143173Y-8541594D01*
X-13925000Y-8585775D01*
X-12975000Y-8585775D01*
X-12771182Y-8547424D01*
X-12583988Y-8426968D01*
X-12458406Y-8243173D01*
X-12450000Y-8201663D01*
X-12450000Y-11114225D01*
X-12775000Y-11114225D01*
X-12978818Y-11152576D01*
X-13166012Y-11273032D01*
X-13286929Y-11450000D01*
X-13711522Y-11450000D01*
X-13880761Y-11280761D01*
X-14302511Y-10998957D01*
X-14800000Y-10900000D01*
X-15809777Y-10900000D01*
X-15981047Y-10782976D01*
X-16199220Y-10738795D01*
X-19348820Y-10738795D01*
X-19552638Y-10777146D01*
X-19739832Y-10897602D01*
X-19865414Y-11081397D01*
X-19909595Y-11299570D01*
X-19909595Y-13100430D01*
X-19871244Y-13304248D01*
X-19750788Y-13491442D01*
X-19566993Y-13617024D01*
X-19348820Y-13661205D01*
X-16199220Y-13661205D01*
X-16150000Y-13651944D01*
X-16150000Y-20000000D01*
X-16051043Y-20497489D01*
X-15769239Y-20919239D01*
X-13619239Y-23069239D01*
X-13197489Y-23351043D01*
X-12700000Y-23450000D01*
X-10250000Y-23450000D01*
X-9752512Y-23351043D01*
X-9330761Y-23069239D01*
X-9048957Y-22647488D01*
X-8950000Y-22150000D01*
X-9048957Y-21652512D01*
X-9330761Y-21230761D01*
X-9752512Y-20948957D01*
X-10250000Y-20850000D01*
X-12161522Y-20850000D01*
X-13550000Y-19461522D01*
X-13550000Y-18260684D01*
X-13468173Y-18316594D01*
X-13250000Y-18360775D01*
X-12847199Y-18360775D01*
X-12650000Y-18400000D01*
X-6112570Y-18400000D01*
X-6435623Y-18722489D01*
X-6679722Y-19310344D01*
X-6680277Y-19946863D01*
X-6437205Y-20535143D01*
X-5987511Y-20985623D01*
X-5399656Y-21229722D01*
X-4763137Y-21230277D01*
X-4174857Y-20987205D01*
X-3809758Y-20622743D01*
X-3447511Y-20985623D01*
X-2859656Y-21229722D01*
X-2223137Y-21230277D01*
X-1634857Y-20987205D01*
X-1269758Y-20622743D01*
X-907511Y-20985623D01*
X-319656Y-21229722D01*
X316863Y-21230277D01*
X905143Y-20987205D01*
X1270242Y-20622743D01*
X1632489Y-20985623D01*
X2220344Y-21229722D01*
X2856863Y-21230277D01*
X3445143Y-20987205D01*
X3810242Y-20622743D01*
X4172489Y-20985623D01*
X4760344Y-21229722D01*
X5396863Y-21230277D01*
X5985143Y-20987205D01*
X6435623Y-20537511D01*
X6679722Y-19949656D01*
X6680277Y-19313137D01*
X6437205Y-18724857D01*
X5987511Y-18274377D01*
X5567565Y-18100000D01*
X7515076Y-18100000D01*
X9250000Y-19834924D01*
X9250000Y-20649084D01*
X9249818Y-20857942D01*
X9409334Y-21244000D01*
X9704446Y-21539628D01*
X10090226Y-21699818D01*
X10507942Y-21700182D01*
X10894000Y-21540666D01*
X11189628Y-21245554D01*
X11349818Y-20859774D01*
X11350182Y-20442058D01*
X11350000Y-20441618D01*
X11350000Y-19400000D01*
X11341342Y-19356471D01*
X18099688Y-19356471D01*
X18373145Y-20018286D01*
X18879051Y-20525076D01*
X19540387Y-20799687D01*
X20256471Y-20800312D01*
X20918286Y-20526855D01*
X21425076Y-20020949D01*
X21699687Y-19359613D01*
X21700312Y-18643529D01*
X21426855Y-17981714D01*
X20920949Y-17474924D01*
X20259613Y-17200313D01*
X19543529Y-17199688D01*
X18881714Y-17473145D01*
X18374924Y-17979051D01*
X18100313Y-18640387D01*
X18099688Y-19356471D01*
X11341342Y-19356471D01*
X11270074Y-18998182D01*
X11042462Y-18657538D01*
X10434924Y-18050000D01*
X11734364Y-18050000D01*
X11831827Y-18116594D01*
X12050000Y-18160775D01*
X12950000Y-18160775D01*
X13153818Y-18122424D01*
X13341012Y-18001968D01*
X13466594Y-17818173D01*
X13510775Y-17600000D01*
X13510775Y-17197199D01*
X13550000Y-17000000D01*
X13510775Y-16802801D01*
X13510775Y-16400000D01*
X13472424Y-16196182D01*
X13351968Y-16008988D01*
X13168173Y-15883406D01*
X12950000Y-15839225D01*
X12050000Y-15839225D01*
X11846182Y-15877576D01*
X11733632Y-15950000D01*
X10384924Y-15950000D01*
X9792866Y-15357942D01*
X13849818Y-15357942D01*
X13850000Y-15358382D01*
X13850000Y-17000000D01*
X13889225Y-17197199D01*
X13889225Y-17600000D01*
X13927576Y-17803818D01*
X14048032Y-17991012D01*
X14231827Y-18116594D01*
X14450000Y-18160775D01*
X15350000Y-18160775D01*
X15553818Y-18122424D01*
X15741012Y-18001968D01*
X15866594Y-17818173D01*
X15910775Y-17600000D01*
X15910775Y-17197199D01*
X15950000Y-17000000D01*
X15950000Y-15150916D01*
X15950182Y-14942058D01*
X15790666Y-14556000D01*
X15614974Y-14380000D01*
X21007675Y-14380000D01*
X21095214Y-14820086D01*
X21344502Y-15193173D01*
X21717589Y-15442461D01*
X22157675Y-15530000D01*
X23222325Y-15530000D01*
X23662411Y-15442461D01*
X24035498Y-15193173D01*
X24284786Y-14820086D01*
X24372325Y-14380000D01*
X24284786Y-13939914D01*
X24035498Y-13566827D01*
X23662411Y-13317539D01*
X23222325Y-13230000D01*
X22157675Y-13230000D01*
X21717589Y-13317539D01*
X21344502Y-13566827D01*
X21095214Y-13939914D01*
X21007675Y-14380000D01*
X15614974Y-14380000D01*
X15495554Y-14260372D01*
X15109774Y-14100182D01*
X14692058Y-14099818D01*
X14306000Y-14259334D01*
X14010372Y-14554446D01*
X13850182Y-14940226D01*
X13849818Y-15357942D01*
X9792866Y-15357942D01*
X8342462Y-13907538D01*
X8001818Y-13679926D01*
X7600000Y-13600000D01*
X7100000Y-13600000D01*
X7100000Y-12350916D01*
X7100182Y-12142058D01*
X6940666Y-11756000D01*
X6685113Y-11500000D01*
X7339225Y-11500000D01*
X7339225Y-12400000D01*
X7377576Y-12603818D01*
X7498032Y-12791012D01*
X7681827Y-12916594D01*
X7900000Y-12960775D01*
X8302801Y-12960775D01*
X8500000Y-13000000D01*
X8697199Y-12960775D01*
X9100000Y-12960775D01*
X9303818Y-12922424D01*
X9491012Y-12801968D01*
X9601257Y-12640619D01*
X9698032Y-12791012D01*
X9881827Y-12916594D01*
X10100000Y-12960775D01*
X10502801Y-12960775D01*
X10700000Y-13000000D01*
X13200000Y-13000000D01*
X13397199Y-12960775D01*
X13800000Y-12960775D01*
X14003818Y-12922424D01*
X14191012Y-12801968D01*
X14316594Y-12618173D01*
X14360775Y-12400000D01*
X14360775Y-11500000D01*
X14322424Y-11296182D01*
X14201968Y-11108988D01*
X14018173Y-10983406D01*
X13800000Y-10939225D01*
X13397199Y-10939225D01*
X13200000Y-10900000D01*
X10700000Y-10900000D01*
X10502801Y-10939225D01*
X10100000Y-10939225D01*
X9896182Y-10977576D01*
X9708988Y-11098032D01*
X9598743Y-11259381D01*
X9550000Y-11183632D01*
X9550000Y-10650916D01*
X9550182Y-10442058D01*
X9390666Y-10056000D01*
X9095554Y-9760372D01*
X8709774Y-9600182D01*
X8292058Y-9599818D01*
X7906000Y-9759334D01*
X7610372Y-10054446D01*
X7450182Y-10440226D01*
X7449818Y-10857942D01*
X7450000Y-10858382D01*
X7450000Y-11184364D01*
X7383406Y-11281827D01*
X7339225Y-11500000D01*
X6685113Y-11500000D01*
X6645554Y-11460372D01*
X6259774Y-11300182D01*
X5842058Y-11299818D01*
X5456000Y-11459334D01*
X5160372Y-11754446D01*
X5000182Y-12140226D01*
X4999818Y-12557942D01*
X5000000Y-12558382D01*
X5000000Y-13600000D01*
X3631367Y-13600000D01*
X3602424Y-13446182D01*
X3481968Y-13258988D01*
X3298173Y-13133406D01*
X3080000Y-13089225D01*
X1880000Y-13089225D01*
X1676182Y-13127576D01*
X1488988Y-13248032D01*
X1363406Y-13431827D01*
X1319225Y-13650000D01*
X1319225Y-15650000D01*
X1357576Y-15853818D01*
X1451642Y-16000000D01*
X966520Y-16000000D01*
X1056594Y-15868173D01*
X1100775Y-15650000D01*
X1100775Y-13650000D01*
X1062424Y-13446182D01*
X990000Y-13333632D01*
X990000Y-13044924D01*
X2384924Y-11650000D01*
X4500000Y-11650000D01*
X4901818Y-11570074D01*
X5242462Y-11342462D01*
X6942462Y-9642462D01*
X7170074Y-9301818D01*
X7250000Y-8900000D01*
X7250000Y-7200000D01*
X7170074Y-6798182D01*
X7095218Y-6686152D01*
X7339225Y-6442145D01*
X7339225Y-6800000D01*
X7377576Y-7003818D01*
X7450000Y-7116368D01*
X7450000Y-7399084D01*
X7449818Y-7607942D01*
X7609334Y-7994000D01*
X7904446Y-8289628D01*
X8290226Y-8449818D01*
X8707942Y-8450182D01*
X9094000Y-8290666D01*
X9389628Y-7995554D01*
X9549818Y-7609774D01*
X9550182Y-7192058D01*
X9550000Y-7191618D01*
X9550000Y-7115636D01*
X9601257Y-7040619D01*
X9698032Y-7191012D01*
X9881827Y-7316594D01*
X10100000Y-7360775D01*
X10502801Y-7360775D01*
X10700000Y-7400000D01*
X13100000Y-7400000D01*
X13501818Y-7320074D01*
X13515735Y-7310775D01*
X13750000Y-7310775D01*
X13953818Y-7272424D01*
X14141012Y-7151968D01*
X14266594Y-6968173D01*
X14310775Y-6750000D01*
X14310775Y-5850000D01*
X14282551Y-5700000D01*
X15300000Y-5700000D01*
X15551795Y-5649915D01*
X15857942Y-5650182D01*
X16000000Y-5591485D01*
X16000000Y-6950000D01*
X15750000Y-6950000D01*
X15462987Y-7007090D01*
X15219670Y-7169670D01*
X14019670Y-8369670D01*
X13857090Y-8612987D01*
X13800000Y-8900000D01*
X13800000Y-9600000D01*
X13857090Y-9887013D01*
X14019670Y-10130330D01*
X15019670Y-11130330D01*
X15262988Y-11292911D01*
X15550000Y-11350000D01*
X15789340Y-11350000D01*
X16809670Y-12370330D01*
X17052987Y-12532910D01*
X17340000Y-12590000D01*
X18762291Y-12590000D01*
X18804502Y-12653173D01*
X19177589Y-12902461D01*
X19617675Y-12990000D01*
X20682325Y-12990000D01*
X21122411Y-12902461D01*
X21420000Y-12703619D01*
X21717589Y-12902461D01*
X22157675Y-12990000D01*
X23222325Y-12990000D01*
X23662411Y-12902461D01*
X24035498Y-12653173D01*
X24284786Y-12280086D01*
X24372325Y-11840000D01*
X24284786Y-11399914D01*
X24035498Y-11026827D01*
X23662411Y-10777539D01*
X23222325Y-10690000D01*
X22157675Y-10690000D01*
X21717589Y-10777539D01*
X21420000Y-10976381D01*
X21122411Y-10777539D01*
X20682325Y-10690000D01*
X19617675Y-10690000D01*
X19177589Y-10777539D01*
X18804502Y-11026827D01*
X18762291Y-11090000D01*
X17650660Y-11090000D01*
X16630330Y-10069670D01*
X16387013Y-9907090D01*
X16100000Y-9850000D01*
X15860660Y-9850000D01*
X15310660Y-9300000D01*
X18467675Y-9300000D01*
X18555214Y-9740086D01*
X18804502Y-10113173D01*
X19177589Y-10362461D01*
X19617675Y-10450000D01*
X20682325Y-10450000D01*
X21122411Y-10362461D01*
X21420000Y-10163619D01*
X21717589Y-10362461D01*
X22157675Y-10450000D01*
X23222325Y-10450000D01*
X23662411Y-10362461D01*
X24035498Y-10113173D01*
X24284786Y-9740086D01*
X24372325Y-9300000D01*
X24284786Y-8859914D01*
X24035498Y-8486827D01*
X23662411Y-8237539D01*
X23222325Y-8150000D01*
X22157675Y-8150000D01*
X21717589Y-8237539D01*
X21420000Y-8436381D01*
X21122411Y-8237539D01*
X20682325Y-8150000D01*
X19617675Y-8150000D01*
X19177589Y-8237539D01*
X18804502Y-8486827D01*
X18555214Y-8859914D01*
X18467675Y-9300000D01*
X15310660Y-9300000D01*
X15300000Y-9289340D01*
X15300000Y-9210660D01*
X16060660Y-8450000D01*
X16350000Y-8450000D01*
X16637013Y-8392910D01*
X16880330Y-8230330D01*
X17280330Y-7830330D01*
X17442910Y-7587013D01*
X17500000Y-7300000D01*
X17500000Y-6710660D01*
X18079670Y-7290330D01*
X18322987Y-7452910D01*
X18610000Y-7510000D01*
X18762291Y-7510000D01*
X18804502Y-7573173D01*
X19177589Y-7822461D01*
X19617675Y-7910000D01*
X20682325Y-7910000D01*
X21122411Y-7822461D01*
X21495498Y-7573173D01*
X21744786Y-7200086D01*
X21832325Y-6760000D01*
X21744786Y-6319914D01*
X21495498Y-5946827D01*
X21122411Y-5697539D01*
X20682325Y-5610000D01*
X19617675Y-5610000D01*
X19177589Y-5697539D01*
X18836264Y-5925604D01*
X18550000Y-5639340D01*
X18550000Y-4633874D01*
X18555214Y-4660086D01*
X18804502Y-5033173D01*
X19177589Y-5282461D01*
X19617675Y-5370000D01*
X20682325Y-5370000D01*
X21122411Y-5282461D01*
X21420000Y-5083619D01*
X21717589Y-5282461D01*
X22157675Y-5370000D01*
X23222325Y-5370000D01*
X23662411Y-5282461D01*
X24035498Y-5033173D01*
X24284786Y-4660086D01*
X24372325Y-4220000D01*
X24284786Y-3779914D01*
X24035498Y-3406827D01*
X23662411Y-3157539D01*
X23222325Y-3070000D01*
X22157675Y-3070000D01*
X21717589Y-3157539D01*
X21420000Y-3356381D01*
X21122411Y-3157539D01*
X20682325Y-3070000D01*
X19617675Y-3070000D01*
X19177589Y-3157539D01*
X18804502Y-3406827D01*
X18555214Y-3779914D01*
X18550000Y-3806126D01*
X18550000Y-3700000D01*
X18492910Y-3412987D01*
X18330330Y-3169670D01*
X17543041Y-2382381D01*
X17644000Y-2340666D01*
X17939628Y-2045554D01*
X17967579Y-1978239D01*
X18199670Y-2210330D01*
X18442987Y-2372910D01*
X18730000Y-2430000D01*
X18762291Y-2430000D01*
X18804502Y-2493173D01*
X19177589Y-2742461D01*
X19617675Y-2830000D01*
X20682325Y-2830000D01*
X21122411Y-2742461D01*
X21420000Y-2543619D01*
X21717589Y-2742461D01*
X22157675Y-2830000D01*
X23222325Y-2830000D01*
X23662411Y-2742461D01*
X24035498Y-2493173D01*
X24284786Y-2120086D01*
X24372325Y-1680000D01*
X24284786Y-1239914D01*
X24035498Y-866827D01*
X23662411Y-617539D01*
X23222325Y-530000D01*
X22157675Y-530000D01*
X21717589Y-617539D01*
X21420000Y-816381D01*
X21122411Y-617539D01*
X20682325Y-530000D01*
X19617675Y-530000D01*
X19177589Y-617539D01*
X18908199Y-797539D01*
X18030330Y80330D01*
X17985926Y110000D01*
X18762291Y110000D01*
X18804502Y46827D01*
X19177589Y-202461D01*
X19617675Y-290000D01*
X20682325Y-290000D01*
X21122411Y-202461D01*
X21495498Y46827D01*
X21744786Y419914D01*
X21832325Y860000D01*
X21744786Y1300086D01*
X21495498Y1673173D01*
X21122411Y1922461D01*
X20682325Y2010000D01*
X19617675Y2010000D01*
X19177589Y1922461D01*
X18804502Y1673173D01*
X18762291Y1610000D01*
X17150660Y1610000D01*
X16921435Y1839225D01*
X16975000Y1839225D01*
X17178818Y1877576D01*
X17366012Y1998032D01*
X17491594Y2181827D01*
X17535775Y2400000D01*
X17535775Y3400000D01*
X18467675Y3400000D01*
X18555214Y2959914D01*
X18804502Y2586827D01*
X19177589Y2337539D01*
X19617675Y2250000D01*
X20682325Y2250000D01*
X21122411Y2337539D01*
X21420000Y2536381D01*
X21717589Y2337539D01*
X22157675Y2250000D01*
X23222325Y2250000D01*
X23662411Y2337539D01*
X24035498Y2586827D01*
X24284786Y2959914D01*
X24372325Y3400000D01*
X24284786Y3840086D01*
X24035498Y4213173D01*
X23662411Y4462461D01*
X23222325Y4550000D01*
X22157675Y4550000D01*
X21717589Y4462461D01*
X21420000Y4263619D01*
X21122411Y4462461D01*
X20682325Y4550000D01*
X19617675Y4550000D01*
X19177589Y4462461D01*
X18804502Y4213173D01*
X18555214Y3840086D01*
X18467675Y3400000D01*
X17535775Y3400000D01*
X17535775Y3600000D01*
X17497424Y3803818D01*
X17376968Y3991012D01*
X17193173Y4116594D01*
X16975000Y4160775D01*
X16225000Y4160775D01*
X16021182Y4122424D01*
X15833988Y4001968D01*
X15708406Y3818173D01*
X15694601Y3750000D01*
X15210755Y3750000D01*
X15210755Y4024170D01*
X15172404Y4227988D01*
X15051948Y4415182D01*
X14868153Y4540764D01*
X14649980Y4584945D01*
X13649980Y4584945D01*
X13446162Y4546594D01*
X13258968Y4426138D01*
X13133386Y4242343D01*
X13089205Y4024170D01*
X13089205Y3749280D01*
X12749280Y3749280D01*
X12462267Y3692190D01*
X12218950Y3529610D01*
X11439340Y2750000D01*
X10710660Y2750000D01*
X10498160Y2962500D01*
X10498160Y9923334D01*
X10533725Y10098960D01*
X10533725Y11098960D01*
X10562795Y11098960D01*
X10562795Y10098960D01*
X10598360Y9909948D01*
X10598360Y9551640D01*
X10655450Y9264627D01*
X10818030Y9021310D01*
X10999990Y8839350D01*
X10999818Y8642058D01*
X11159334Y8256000D01*
X11240206Y8174987D01*
X11010372Y7945554D01*
X10850182Y7559774D01*
X10849818Y7142058D01*
X11009334Y6756000D01*
X11065206Y6700030D01*
X10860372Y6495554D01*
X10700182Y6109774D01*
X10699818Y5692058D01*
X10859334Y5306000D01*
X11154446Y5010372D01*
X11540226Y4850182D01*
X11748899Y4850000D01*
X11963407Y4706670D01*
X12250420Y4649580D01*
X13474354Y4649580D01*
X13649980Y4614015D01*
X14649980Y4614015D01*
X14853798Y4652366D01*
X15040992Y4772822D01*
X15166574Y4956617D01*
X15210755Y5174790D01*
X15210755Y5624370D01*
X15176567Y5806064D01*
X15210755Y5974890D01*
X15210755Y6249780D01*
X18599780Y6249780D01*
X18886793Y6306870D01*
X19026171Y6400000D01*
X21108520Y6400000D01*
X21095214Y6380086D01*
X21007675Y5940000D01*
X21095214Y5499914D01*
X21344502Y5126827D01*
X21717589Y4877539D01*
X22157675Y4790000D01*
X23222325Y4790000D01*
X23662411Y4877539D01*
X24035498Y5126827D01*
X24284786Y5499914D01*
X24372325Y5940000D01*
X24284786Y6380086D01*
X24035498Y6753173D01*
X23662411Y7002461D01*
X23335869Y7067415D01*
X23220330Y7240330D01*
X23130660Y7330000D01*
X23222325Y7330000D01*
X23662411Y7417539D01*
X24035498Y7666827D01*
X24284786Y8039914D01*
X24372325Y8480000D01*
X24284786Y8920086D01*
X24035498Y9293173D01*
X23662411Y9542461D01*
X23393049Y9596041D01*
X23382910Y9647013D01*
X23220330Y9890330D01*
X22830330Y10280330D01*
X22587013Y10442910D01*
X22300000Y10500000D01*
X21691389Y10500000D01*
X21744786Y10579914D01*
X21832325Y11020000D01*
X21744786Y11460086D01*
X21495498Y11833173D01*
X21122411Y12082461D01*
X20682325Y12170000D01*
X19617675Y12170000D01*
X19177589Y12082461D01*
X18804502Y11833173D01*
X18795700Y11820000D01*
X16104924Y11820000D01*
X16794924Y12510000D01*
X19158940Y12510000D01*
X19177589Y12497539D01*
X19617675Y12410000D01*
X20682325Y12410000D01*
X21122411Y12497539D01*
X21420000Y12696381D01*
X21717589Y12497539D01*
X22157675Y12410000D01*
X23222325Y12410000D01*
X23662411Y12497539D01*
X24035498Y12746827D01*
X24284786Y13119914D01*
X24372325Y13560000D01*
X24284786Y14000086D01*
X24035498Y14373173D01*
X23662411Y14622461D01*
X23222325Y14710000D01*
X22157675Y14710000D01*
X21717589Y14622461D01*
X21420000Y14423619D01*
X21122411Y14622461D01*
X20682325Y14710000D01*
X19617675Y14710000D01*
X19177589Y14622461D01*
X19158940Y14610000D01*
X16360000Y14610000D01*
X15958182Y14530074D01*
X15617538Y14302462D01*
X12965076Y11650000D01*
X12550000Y11650000D01*
X12485086Y11637088D01*
X12373250Y11659735D01*
X11923670Y11659735D01*
X11741976Y11625547D01*
X11573150Y11659735D01*
X11123570Y11659735D01*
X10919752Y11621384D01*
X10732558Y11500928D01*
X10606976Y11317133D01*
X10562795Y11098960D01*
X10533725Y11098960D01*
X10498160Y11287972D01*
X10498160Y11801511D01*
X10503818Y11802576D01*
X10691012Y11923032D01*
X10816594Y12106827D01*
X10860775Y12325000D01*
X10860775Y13075000D01*
X10822424Y13278818D01*
X10701968Y13466012D01*
X10518173Y13591594D01*
X10300000Y13635775D01*
X10153150Y13635775D01*
X10101818Y13670074D01*
X9700000Y13750000D01*
X8834924Y13750000D01*
X8600000Y13984924D01*
X8600000Y15309084D01*
X8600182Y15517942D01*
X8440666Y15904000D01*
X8145554Y16199628D01*
X7759774Y16359818D01*
X7342058Y16360182D01*
X6956000Y16200666D01*
X6660372Y15905554D01*
X6500182Y15519774D01*
X6499818Y15102058D01*
X6500000Y15101618D01*
X6500000Y13550000D01*
X6579926Y13148182D01*
X6807538Y12807538D01*
X7657538Y11957538D01*
X7998182Y11729926D01*
X8351059Y11659735D01*
X7923170Y11659735D01*
X7741476Y11625547D01*
X7572650Y11659735D01*
X7123070Y11659735D01*
X6941376Y11625547D01*
X6772550Y11659735D01*
X6322970Y11659735D01*
X6141276Y11625547D01*
X5972450Y11659735D01*
X5697560Y11659735D01*
X5697560Y11936900D01*
X5830330Y12069670D01*
X5992910Y12312987D01*
X6050000Y12600000D01*
X6050000Y13165062D01*
X6189628Y13304446D01*
X6349818Y13690226D01*
X6350182Y14107942D01*
X6190666Y14494000D01*
X5895554Y14789628D01*
X5509774Y14949818D01*
X5092058Y14950182D01*
X4706000Y14790666D01*
X4410372Y14495554D01*
X4250182Y14109774D01*
X4250043Y13949914D01*
X3942058Y13950182D01*
X3556000Y13790666D01*
X3260372Y13495554D01*
X3100182Y13109774D01*
X3099818Y12692058D01*
X3259334Y12306000D01*
X3400000Y12165088D01*
X3400000Y11274586D01*
X3364435Y11098960D01*
X3364435Y10098960D01*
X3402786Y9895142D01*
X3523242Y9707948D01*
X3707037Y9582366D01*
X3925210Y9538185D01*
X4374790Y9538185D01*
X4555167Y9572125D01*
X4722770Y9538185D01*
X5172350Y9538185D01*
X5354044Y9572373D01*
X5522870Y9538185D01*
X5972450Y9538185D01*
X6154144Y9572373D01*
X6322970Y9538185D01*
X6772550Y9538185D01*
X6954244Y9572373D01*
X7123070Y9538185D01*
X7572650Y9538185D01*
X7754344Y9572373D01*
X7923170Y9538185D01*
X8372750Y9538185D01*
X8554444Y9572373D01*
X8723270Y9538185D01*
X8998160Y9538185D01*
X8998160Y8112500D01*
X7880330Y9230330D01*
X7637013Y9392910D01*
X7350000Y9450000D01*
X5650000Y9450000D01*
X5588700Y9437807D01*
X5559774Y9449818D01*
X5142058Y9450182D01*
X4756000Y9290666D01*
X4460372Y8995554D01*
X4300182Y8609774D01*
X4299818Y8192058D01*
X4459334Y7806000D01*
X4754446Y7510372D01*
X5140226Y7350182D01*
X5539174Y7349834D01*
X5139020Y6949680D01*
X3211795Y6949680D01*
X3211795Y7224570D01*
X3177607Y7406264D01*
X3211795Y7575090D01*
X3211795Y8024670D01*
X3177607Y8206364D01*
X3211795Y8375190D01*
X3211795Y8824770D01*
X3173444Y9028588D01*
X3075000Y9181574D01*
X3075000Y10500000D01*
X3004589Y10853982D01*
X2804074Y11154074D01*
X2804071Y11154076D01*
X704074Y13254074D01*
X403983Y13454589D01*
X50000Y13525000D01*
X-1589552Y13525000D01*
X-1500182Y13740226D01*
X-1499818Y14157942D01*
X-1615000Y14436704D01*
X-1615000Y15933267D01*
X-1226740Y16320849D01*
X-990270Y16890333D01*
X-990268Y16893039D01*
X989732Y16893039D01*
X1225208Y16323143D01*
X1660849Y15886740D01*
X2230333Y15650270D01*
X2846961Y15649732D01*
X3416857Y15885208D01*
X3853260Y16320849D01*
X4089730Y16890333D01*
X4089732Y16893039D01*
X10549732Y16893039D01*
X10785208Y16323143D01*
X11220849Y15886740D01*
X11790333Y15650270D01*
X12406961Y15649732D01*
X12976857Y15885208D01*
X13370304Y16277968D01*
X13760849Y15886740D01*
X14330333Y15650270D01*
X14946961Y15649732D01*
X15516857Y15885208D01*
X15953260Y16320849D01*
X16189730Y16890333D01*
X16190268Y17506961D01*
X15954792Y18076857D01*
X15519151Y18513260D01*
X14949667Y18749730D01*
X14333039Y18750268D01*
X13763143Y18514792D01*
X13369696Y18122032D01*
X12979151Y18513260D01*
X12409667Y18749730D01*
X11793039Y18750268D01*
X11223143Y18514792D01*
X10786740Y18079151D01*
X10550270Y17509667D01*
X10549732Y16893039D01*
X4089732Y16893039D01*
X4090268Y17506961D01*
X3854792Y18076857D01*
X3419151Y18513260D01*
X2849667Y18749730D01*
X2233039Y18750268D01*
X1663143Y18514792D01*
X1226740Y18079151D01*
X990270Y17509667D01*
X989732Y16893039D01*
X-990268Y16893039D01*
X-989732Y17506961D01*
X-1225208Y18076857D01*
X-1660849Y18513260D01*
X-2230333Y18749730D01*
X-2846961Y18750268D01*
X-3416857Y18514792D01*
X-3853260Y18079151D01*
X-4089730Y17509667D01*
X-4090268Y16893039D01*
X-3854792Y16323143D01*
X-3465000Y15932669D01*
X-3465000Y14484451D01*
X-3599818Y14159774D01*
X-3600182Y13742058D01*
X-3510495Y13525000D01*
X-4576853Y13525000D01*
X-8010211Y16958358D01*
X-8009732Y17506961D01*
X-8245208Y18076857D01*
X-8680849Y18513260D01*
X-9250333Y18749730D01*
X-9866961Y18750268D01*
X-10436857Y18514792D01*
X-10830304Y18122032D01*
X-11220849Y18513260D01*
X-11790333Y18749730D01*
X-12406961Y18750268D01*
X-12976857Y18514792D01*
X-13413260Y18079151D01*
X-13649730Y17509667D01*
X-13650268Y16893039D01*
X-13414792Y16323143D01*
X-12979151Y15886740D01*
X-12409667Y15650270D01*
X-11793039Y15649732D01*
X-11223143Y15885208D01*
X-10829696Y16277968D01*
X-10439151Y15886740D01*
X-9869667Y15650270D01*
X-9317936Y15649789D01*
X-8800673Y15132526D01*
X-9144000Y14990666D01*
X-9439628Y14695554D01*
X-9599818Y14309774D01*
X-9600182Y13892058D01*
X-9475000Y13589095D01*
X-9475000Y13560775D01*
X-10150000Y13560775D01*
X-10353818Y13522424D01*
X-10541012Y13401968D01*
X-10542357Y13400000D01*
X-11709364Y13400000D01*
X-11806827Y13466594D01*
X-12025000Y13510775D01*
X-12775000Y13510775D01*
X-12978818Y13472424D01*
X-13091368Y13400000D01*
X-13176459Y13400000D01*
X-13402512Y13551043D01*
X-13900000Y13650000D01*
X-15900000Y13650000D01*
X-16397489Y13551043D01*
X-16819239Y13269239D01*
X-17048478Y13040000D01*
X-19300000Y13040000D01*
X-19300000Y15600000D01*
X-19398957Y16097488D01*
X-19398957Y16097489D01*
X-19680761Y16519239D01*
X-21750000Y18588478D01*
X-21750000Y20633529D01*
X-21690312Y20633529D01*
X-21416855Y19971714D01*
X-20910949Y19464924D01*
X-20249613Y19190313D01*
X-19533529Y19189688D01*
X-18871714Y19463145D01*
X-18364924Y19969051D01*
X-18090313Y20630387D01*
X-18089688Y21346471D01*
X-18363145Y22008286D01*
X-18869051Y22515076D01*
X-19530387Y22789687D01*
X-20246471Y22790312D01*
X-20908286Y22516855D01*
X-21415076Y22010949D01*
X-21689687Y21349613D01*
X-21690312Y20633529D01*
X-21750000Y20633529D01*
X-21750000Y22011522D01*
X-20911522Y22850000D01*
X20561522Y22850000D01*
X21390000Y22021522D01*
X21390000Y21955205D01*
X20920949Y22425076D01*
X20259613Y22699687D01*
X19543529Y22700312D01*
X18881714Y22426855D01*
X18374924Y21920949D01*
X18100313Y21259613D01*
X18099688Y20543529D01*
X18373145Y19881714D01*
X18879051Y19374924D01*
X19540387Y19100313D01*
X20256471Y19099688D01*
X20918286Y19373145D01*
X21390000Y19844036D01*
X21390000Y17232424D01*
X21250000Y17260775D01*
X19050000Y17260775D01*
X18846182Y17222424D01*
X18658988Y17101968D01*
X18533406Y16918173D01*
X18489225Y16700000D01*
X18489225Y15500000D01*
X18527576Y15296182D01*
X18648032Y15108988D01*
X18831827Y14983406D01*
X19050000Y14939225D01*
X21250000Y14939225D01*
X21453818Y14977576D01*
X21633902Y15093457D01*
X21717589Y15037539D01*
X22098506Y14961769D01*
X22192512Y14898957D01*
X22690000Y14800000D01*
X23187488Y14898957D01*
X23281494Y14961769D01*
X23662411Y15037539D01*
X24035498Y15286827D01*
X24284786Y15659914D01*
X24372325Y16100000D01*
X24284786Y16540086D01*
X24035498Y16913173D01*
X23990000Y16943574D01*
X23990000Y22559995D01*
X23990001Y22560000D01*
X23891043Y23057488D01*
X23609239Y23479239D01*
X22019239Y25069239D01*
X21597489Y25351043D01*
X21477049Y25375000D01*
X24375000Y25375000D01*
X24375000Y-25375000D01*
X-24375000Y-25375000D01*
X-24375000Y-24507942D01*
X9249818Y-24507942D01*
X9409334Y-24894000D01*
X9704446Y-25189628D01*
X10090226Y-25349818D01*
X10507942Y-25350182D01*
X10508382Y-25350000D01*
X12550000Y-25350000D01*
X12747199Y-25310775D01*
X13150000Y-25310775D01*
X13353818Y-25272424D01*
X13541012Y-25151968D01*
X13666594Y-24968173D01*
X13710775Y-24750000D01*
X13710775Y-23850000D01*
X13672424Y-23646182D01*
X13551968Y-23458988D01*
X13368173Y-23333406D01*
X13150000Y-23289225D01*
X12747199Y-23289225D01*
X12550000Y-23250000D01*
X10300916Y-23250000D01*
X10092058Y-23249818D01*
X9706000Y-23409334D01*
X9410372Y-23704446D01*
X9250182Y-24090226D01*
X9249818Y-24507942D01*
X-24375000Y-24507942D01*
X-24375000Y-19356471D01*
X-21700312Y-19356471D01*
X-21426855Y-20018286D01*
X-20920949Y-20525076D01*
X-20259613Y-20799687D01*
X-19543529Y-20800312D01*
X-18881714Y-20526855D01*
X-18374924Y-20020949D01*
X-18100313Y-19359613D01*
X-18099688Y-18643529D01*
X-18373145Y-17981714D01*
X-18879051Y-17474924D01*
X-19540387Y-17200313D01*
X-20256471Y-17199688D01*
X-20918286Y-17473145D01*
X-21425076Y-17979051D01*
X-21699687Y-18640387D01*
X-21700312Y-19356471D01*
X-24375000Y-19356471D01*
X-24375000Y643039D01*
X-22150268Y643039D01*
X-21914792Y73143D01*
X-21542032Y-300269D01*
X-21913260Y-670849D01*
X-22149730Y-1240333D01*
X-22150268Y-1856961D01*
X-21914792Y-2426857D01*
X-21542032Y-2800269D01*
X-21913260Y-3170849D01*
X-22149730Y-3740333D01*
X-22150268Y-4356961D01*
X-21914792Y-4926857D01*
X-21479151Y-5363260D01*
X-20909667Y-5599730D01*
X-20293039Y-5600268D01*
X-19723143Y-5364792D01*
X-19286740Y-4929151D01*
X-19050270Y-4359667D01*
X-19049732Y-3743039D01*
X-19285208Y-3173143D01*
X-19657968Y-2799731D01*
X-19286740Y-2429151D01*
X-19050270Y-1859667D01*
X-19049732Y-1243039D01*
X-19285208Y-673143D01*
X-19657968Y-299731D01*
X-19286740Y70849D01*
X-19050270Y640333D01*
X-19049732Y1256961D01*
X-19285208Y1826857D01*
X-19720849Y2263260D01*
X-20290333Y2499730D01*
X-20906961Y2500268D01*
X-21476857Y2264792D01*
X-21913260Y1829151D01*
X-22149730Y1259667D01*
X-22150268Y643039D01*
X-24375000Y643039D01*
X-24375000Y25375000D01*
X-21827049Y25375000D01*
X-21947488Y25351043D01*
G36*
X6354446Y-3889628D02*
X6371797Y-3896833D01*
X4084315Y-6184315D01*
X3910896Y-6443853D01*
X3894282Y-6527377D01*
X3679926Y-6848182D01*
X3600000Y-7250000D01*
X3600000Y-7365076D01*
X3215076Y-7750000D01*
X150000Y-7750000D01*
X-251818Y-7829926D01*
X-592462Y-8057538D01*
X-3342462Y-10807538D01*
X-3570074Y-11148182D01*
X-3650000Y-11550000D01*
X-3650000Y-13407541D01*
X-3666594Y-13431827D01*
X-3710775Y-13650000D01*
X-3710775Y-15650000D01*
X-3672424Y-15853818D01*
X-3650000Y-15888666D01*
X-3650000Y-16100000D01*
X-3596220Y-16370371D01*
X-3950000Y-16300000D01*
X-12650000Y-16300000D01*
X-12847199Y-16339225D01*
X-13250000Y-16339225D01*
X-13453818Y-16377576D01*
X-13550000Y-16439467D01*
X-13550000Y-14050000D01*
X-13283794Y-14050000D01*
X-13176968Y-14216012D01*
X-12993173Y-14341594D01*
X-12775000Y-14385775D01*
X-9525000Y-14385775D01*
X-9321182Y-14347424D01*
X-9133988Y-14226968D01*
X-9008406Y-14043173D01*
X-8964225Y-13825000D01*
X-8964225Y-11675000D01*
X-9002576Y-11471182D01*
X-9123032Y-11283988D01*
X-9306827Y-11158406D01*
X-9525000Y-11114225D01*
X-9850000Y-11114225D01*
X-9850000Y-11100000D01*
X-7700000Y-11100000D01*
X-7202511Y-11001043D01*
X-6780761Y-10719239D01*
X-4830764Y-8769241D01*
X-4830761Y-8769239D01*
X-4548957Y-8347488D01*
X-4450000Y-7850000D01*
X-4450000Y-7100000D01*
X-3628358Y-7100000D01*
X-3601968Y-7141012D01*
X-3418173Y-7266594D01*
X-3200000Y-7310775D01*
X-2000000Y-7310775D01*
X-1796182Y-7272424D01*
X-1608988Y-7151968D01*
X-1539316Y-7050000D01*
X-1120533Y-7050000D01*
X-1061968Y-7141012D01*
X-878173Y-7266594D01*
X-660000Y-7310775D01*
X540000Y-7310775D01*
X743818Y-7272424D01*
X931012Y-7151968D01*
X1000684Y-7050000D01*
X1419467Y-7050000D01*
X1478032Y-7141012D01*
X1661827Y-7266594D01*
X1880000Y-7310775D01*
X3080000Y-7310775D01*
X3283818Y-7272424D01*
X3471012Y-7151968D01*
X3596594Y-6968173D01*
X3640775Y-6750000D01*
X3640775Y-6307754D01*
X3681043Y-6247488D01*
X3780000Y-5750000D01*
X3702326Y-5359510D01*
X4040226Y-5499818D01*
X4457942Y-5500182D01*
X4844000Y-5340666D01*
X5139628Y-5045554D01*
X5299818Y-4659774D01*
X5299992Y-4460668D01*
X6112950Y-3647710D01*
X6354446Y-3889628D01*
X6354446Y-3889628D01*
G37*
X6354446Y-3889628D02*
X6371797Y-3896833D01*
X4084315Y-6184315D01*
X3910896Y-6443853D01*
X3894282Y-6527377D01*
X3679926Y-6848182D01*
X3600000Y-7250000D01*
X3600000Y-7365076D01*
X3215076Y-7750000D01*
X150000Y-7750000D01*
X-251818Y-7829926D01*
X-592462Y-8057538D01*
X-3342462Y-10807538D01*
X-3570074Y-11148182D01*
X-3650000Y-11550000D01*
X-3650000Y-13407541D01*
X-3666594Y-13431827D01*
X-3710775Y-13650000D01*
X-3710775Y-15650000D01*
X-3672424Y-15853818D01*
X-3650000Y-15888666D01*
X-3650000Y-16100000D01*
X-3596220Y-16370371D01*
X-3950000Y-16300000D01*
X-12650000Y-16300000D01*
X-12847199Y-16339225D01*
X-13250000Y-16339225D01*
X-13453818Y-16377576D01*
X-13550000Y-16439467D01*
X-13550000Y-14050000D01*
X-13283794Y-14050000D01*
X-13176968Y-14216012D01*
X-12993173Y-14341594D01*
X-12775000Y-14385775D01*
X-9525000Y-14385775D01*
X-9321182Y-14347424D01*
X-9133988Y-14226968D01*
X-9008406Y-14043173D01*
X-8964225Y-13825000D01*
X-8964225Y-11675000D01*
X-9002576Y-11471182D01*
X-9123032Y-11283988D01*
X-9306827Y-11158406D01*
X-9525000Y-11114225D01*
X-9850000Y-11114225D01*
X-9850000Y-11100000D01*
X-7700000Y-11100000D01*
X-7202511Y-11001043D01*
X-6780761Y-10719239D01*
X-4830764Y-8769241D01*
X-4830761Y-8769239D01*
X-4548957Y-8347488D01*
X-4450000Y-7850000D01*
X-4450000Y-7100000D01*
X-3628358Y-7100000D01*
X-3601968Y-7141012D01*
X-3418173Y-7266594D01*
X-3200000Y-7310775D01*
X-2000000Y-7310775D01*
X-1796182Y-7272424D01*
X-1608988Y-7151968D01*
X-1539316Y-7050000D01*
X-1120533Y-7050000D01*
X-1061968Y-7141012D01*
X-878173Y-7266594D01*
X-660000Y-7310775D01*
X540000Y-7310775D01*
X743818Y-7272424D01*
X931012Y-7151968D01*
X1000684Y-7050000D01*
X1419467Y-7050000D01*
X1478032Y-7141012D01*
X1661827Y-7266594D01*
X1880000Y-7310775D01*
X3080000Y-7310775D01*
X3283818Y-7272424D01*
X3471012Y-7151968D01*
X3596594Y-6968173D01*
X3640775Y-6750000D01*
X3640775Y-6307754D01*
X3681043Y-6247488D01*
X3780000Y-5750000D01*
X3702326Y-5359510D01*
X4040226Y-5499818D01*
X4457942Y-5500182D01*
X4844000Y-5340666D01*
X5139628Y-5045554D01*
X5299818Y-4659774D01*
X5299992Y-4460668D01*
X6112950Y-3647710D01*
X6354446Y-3889628D01*
G36*
X8150000Y1410660D02*
X6817530Y78190D01*
X6654950Y-165127D01*
X6597860Y-452140D01*
X6597860Y-724374D01*
X6562295Y-900000D01*
X6562295Y-1900000D01*
X6583961Y-2015143D01*
X6503146Y-2048534D01*
X6533225Y-1900000D01*
X6533225Y-900000D01*
X6494874Y-696182D01*
X6374418Y-508988D01*
X6190623Y-383406D01*
X5972450Y-339225D01*
X5697560Y-339225D01*
X5697560Y-13100D01*
X7680330Y1969670D01*
X7842911Y2212988D01*
X7900000Y2500000D01*
X7900000Y5279175D01*
X8094000Y5359334D01*
X8150000Y5415236D01*
X8150000Y1410660D01*
X8150000Y1410660D01*
G37*
X8150000Y1410660D02*
X6817530Y78190D01*
X6654950Y-165127D01*
X6597860Y-452140D01*
X6597860Y-724374D01*
X6562295Y-900000D01*
X6562295Y-1900000D01*
X6583961Y-2015143D01*
X6503146Y-2048534D01*
X6533225Y-1900000D01*
X6533225Y-900000D01*
X6494874Y-696182D01*
X6374418Y-508988D01*
X6190623Y-383406D01*
X5972450Y-339225D01*
X5697560Y-339225D01*
X5697560Y-13100D01*
X7680330Y1969670D01*
X7842911Y2212988D01*
X7900000Y2500000D01*
X7900000Y5279175D01*
X8094000Y5359334D01*
X8150000Y5415236D01*
X8150000Y1410660D01*
G36*
X13089205Y1974390D02*
X13123393Y1792696D01*
X13089205Y1623870D01*
X13089205Y1174290D01*
X13123393Y992596D01*
X13089205Y823770D01*
X13089205Y572311D01*
X12950000Y600000D01*
X10900000Y600000D01*
X10612987Y542910D01*
X10369670Y380330D01*
X10017930Y28590D01*
X9855350Y-214727D01*
X9830586Y-339225D01*
X9523370Y-339225D01*
X9341676Y-373413D01*
X9172850Y-339225D01*
X8723270Y-339225D01*
X8541576Y-373413D01*
X8496396Y-364264D01*
X9430330Y569670D01*
X9592910Y812987D01*
X9650000Y1100000D01*
X9650000Y1689340D01*
X9869670Y1469670D01*
X10112987Y1307090D01*
X10400000Y1250000D01*
X11750000Y1250000D01*
X12037013Y1307090D01*
X12280330Y1469670D01*
X13059940Y2249280D01*
X13089205Y2249280D01*
X13089205Y1974390D01*
X13089205Y1974390D01*
G37*
X13089205Y1974390D02*
X13123393Y1792696D01*
X13089205Y1623870D01*
X13089205Y1174290D01*
X13123393Y992596D01*
X13089205Y823770D01*
X13089205Y572311D01*
X12950000Y600000D01*
X10900000Y600000D01*
X10612987Y542910D01*
X10369670Y380330D01*
X10017930Y28590D01*
X9855350Y-214727D01*
X9830586Y-339225D01*
X9523370Y-339225D01*
X9341676Y-373413D01*
X9172850Y-339225D01*
X8723270Y-339225D01*
X8541576Y-373413D01*
X8496396Y-364264D01*
X9430330Y569670D01*
X9592910Y812987D01*
X9650000Y1100000D01*
X9650000Y1689340D01*
X9869670Y1469670D01*
X10112987Y1307090D01*
X10400000Y1250000D01*
X11750000Y1250000D01*
X12037013Y1307090D01*
X12280330Y1469670D01*
X13059940Y2249280D01*
X13089205Y2249280D01*
X13089205Y1974390D01*
G36*
X6400000Y5900000D02*
X6400000Y3950067D01*
X6159774Y4049818D01*
X5742058Y4050182D01*
X5356000Y3890666D01*
X5214367Y3749280D01*
X3211795Y3749280D01*
X3211795Y4024170D01*
X3177607Y4205864D01*
X3211795Y4374690D01*
X3211795Y4824270D01*
X3177607Y5005964D01*
X3211795Y5174790D01*
X3211795Y5449680D01*
X5449680Y5449680D01*
X5736693Y5506770D01*
X5980010Y5669350D01*
X6447013Y6136353D01*
X6400000Y5900000D01*
X6400000Y5900000D01*
G37*
X6400000Y5900000D02*
X6400000Y3950067D01*
X6159774Y4049818D01*
X5742058Y4050182D01*
X5356000Y3890666D01*
X5214367Y3749280D01*
X3211795Y3749280D01*
X3211795Y4024170D01*
X3177607Y4205864D01*
X3211795Y4374690D01*
X3211795Y4824270D01*
X3177607Y5005964D01*
X3211795Y5174790D01*
X3211795Y5449680D01*
X5449680Y5449680D01*
X5736693Y5506770D01*
X5980010Y5669350D01*
X6447013Y6136353D01*
X6400000Y5900000D01*
M02*
