G04 #@! TF.FileFunction,Copper,L2,Bot,Signal*
%FSLAX46Y46*%
G04 Gerber Fmt 4.6, Leading zero omitted, Abs format (unit mm)*
G04 Created by KiCad (PCBNEW 4.0.0-rc1-stable) date 12.5.2016 9:41:02*
%MOMM*%
G01*
G04 APERTURE LIST*
%ADD10C,0.100000*%
%ADD11R,2.200000X1.200000*%
%ADD12O,2.200000X1.200000*%
%ADD13C,2.100000*%
%ADD14C,3.000000*%
%ADD15C,2.000000*%
%ADD16C,2.500000*%
%ADD17R,0.750000X1.200000*%
%ADD18R,1.250000X0.800100*%
%ADD19R,1.200000X0.900000*%
%ADD20O,2.500000X1.500000*%
%ADD21R,1.000000X1.500000*%
%ADD22C,1.000000*%
%ADD23C,0.400000*%
%ADD24C,1.000000*%
%ADD25C,0.750000*%
%ADD26C,1.500000*%
G04 APERTURE END LIST*
D10*
D11*
X20150000Y16100000D03*
D12*
X22690000Y16100000D03*
X20150000Y13560000D03*
X22690000Y13560000D03*
X20150000Y11020000D03*
X22690000Y11020000D03*
X20150000Y8480000D03*
X22690000Y8480000D03*
X20150000Y5940000D03*
X22690000Y5940000D03*
X20150000Y3400000D03*
X22690000Y3400000D03*
X20150000Y860000D03*
X22690000Y860000D03*
X20150000Y-1680000D03*
X22690000Y-1680000D03*
X20150000Y-4220000D03*
X22690000Y-4220000D03*
X20150000Y-6760000D03*
X22690000Y-6760000D03*
X20150000Y-9300000D03*
X22690000Y-9300000D03*
X20150000Y-11840000D03*
X22690000Y-11840000D03*
X20150000Y-14380000D03*
X22690000Y-14380000D03*
D13*
X5080000Y-19630000D03*
X5080000Y-22170000D03*
X2540000Y-19630000D03*
X2540000Y-22170000D03*
X0Y-19630000D03*
X0Y-22170000D03*
X-2540000Y-19630000D03*
X-2540000Y-22170000D03*
X-5080000Y-19630000D03*
X-5080000Y-22170000D03*
X7620000Y-19630000D03*
D14*
X-8290000Y20950000D03*
D15*
X-9560000Y17200000D03*
X-12100000Y17200000D03*
X-14640000Y17200000D03*
D14*
X-15910000Y20950000D03*
X3810000Y20950000D03*
D15*
X2540000Y17200000D03*
X0Y17200000D03*
X-2540000Y17200000D03*
D14*
X-3810000Y20950000D03*
X15910000Y20950000D03*
D15*
X14640000Y17200000D03*
X12100000Y17200000D03*
X9560000Y17200000D03*
D14*
X8290000Y20950000D03*
D16*
X-19890000Y20990000D03*
X19900000Y20900000D03*
X-19900000Y-19000000D03*
D17*
X12100000Y19500000D03*
X12100000Y21400000D03*
X-12100000Y19500000D03*
X-12100000Y21400000D03*
X0Y21900000D03*
X0Y20000000D03*
D16*
X19900000Y-19000000D03*
D15*
X-20600000Y-4050000D03*
X-20600000Y-1550000D03*
X-20600000Y3450000D03*
X-20600000Y950000D03*
D18*
X-15700000Y1900000D03*
X-15700000Y0D03*
X-18200000Y950000D03*
D19*
X-18350000Y-4050000D03*
X-16150000Y-4050000D03*
X-13500000Y4000000D03*
X-15700000Y4000000D03*
X-8550000Y12350000D03*
X-10750000Y12350000D03*
D20*
X-20600000Y11740000D03*
X-20600000Y9200000D03*
D21*
X-8038000Y-19500000D03*
X-9400000Y-19500000D03*
X-8088000Y-22150000D03*
X-9450000Y-22150000D03*
X-18012000Y-11200000D03*
X-16650000Y-11200000D03*
X-18012000Y-8500000D03*
X-16650000Y-8500000D03*
D22*
X11550000Y950000D03*
X11050000Y3250000D03*
X4650000Y4700000D03*
X-18450000Y-15550000D03*
X-11350000Y-15400000D03*
X-9150000Y8650000D03*
X-6200000Y11150000D03*
X17400000Y12250000D03*
X13950000Y13600000D03*
X2550000Y-700000D03*
X6350000Y0D03*
X16000000Y-9300000D03*
X13400000Y-9300000D03*
X2200000Y12550000D03*
X-2650000Y10600000D03*
X-14500000Y5800000D03*
X-8950000Y-4900000D03*
X-12375980Y-2550000D03*
X-14850000Y-6950000D03*
X-13900000Y12350000D03*
X-10250000Y-22150000D03*
X-14750000Y-12450000D03*
X7550000Y15310000D03*
X-5750000Y-5800000D03*
X-2500000Y3500000D03*
X-2700000Y8750000D03*
X17150000Y8450000D03*
X5350000Y8400000D03*
X6950000Y-3000000D03*
X10800000Y-3600000D03*
X15650000Y-4600000D03*
X4250000Y-4450000D03*
X7500000Y6250000D03*
X2600000Y-3400000D03*
X2500000Y-2100000D03*
X14800000Y-3550000D03*
X12050000Y8850000D03*
X4150000Y12900000D03*
X-2550000Y13950000D03*
X-2700000Y7300000D03*
X-8550000Y14100000D03*
X5300000Y13900000D03*
X4800000Y1950000D03*
X8500000Y-10650000D03*
X-13100000Y7400000D03*
X6800000Y7550000D03*
X-9200000Y4950000D03*
X-17450000Y4000000D03*
X-750000Y6900000D03*
X-16150000Y-5300000D03*
X8500000Y-7400000D03*
X4000000Y700000D03*
X10300000Y-24300000D03*
X10300000Y-20650000D03*
X-50000Y-12600000D03*
X14900000Y-15150000D03*
X9650000Y-4550000D03*
X6050000Y-12350000D03*
X11900000Y7350000D03*
X11750000Y5900000D03*
X17050000Y-1450000D03*
X5950000Y3000000D03*
D23*
X11050000Y3250000D02*
X11050000Y1450000D01*
X11050000Y1450000D02*
X11550000Y950000D01*
X9600000Y4700000D02*
X11050000Y3250000D01*
D24*
X2200000Y12550000D02*
X3100000Y11650000D01*
X3100000Y6250000D02*
X4650000Y4700000D01*
X3100000Y11650000D02*
X3100000Y6250000D01*
D23*
X4650000Y4700000D02*
X9600000Y4700000D01*
D24*
X-18450000Y-15550000D02*
X-18300000Y-15400000D01*
X-18300000Y-15400000D02*
X-11350000Y-15400000D01*
D23*
X22690000Y860000D02*
X23440000Y860000D01*
X23440000Y860000D02*
X24450000Y-150000D01*
X24450000Y-150000D02*
X24450000Y-5000000D01*
X24450000Y-5000000D02*
X22690000Y-6760000D01*
X20150000Y5940000D02*
X18910000Y5940000D01*
X18200000Y11450000D02*
X17400000Y12250000D01*
X18200000Y6650000D02*
X18200000Y11450000D01*
X18910000Y5940000D02*
X18200000Y6650000D01*
X13950000Y13600000D02*
X16050000Y13600000D01*
X16050000Y13600000D02*
X17400000Y12250000D01*
X13950000Y13600000D02*
X13950000Y13550000D01*
D24*
X2550000Y-700000D02*
X3600000Y-700000D01*
X5000000Y-1350000D02*
X6350000Y0D01*
X4250000Y-1350000D02*
X5000000Y-1350000D01*
X3600000Y-700000D02*
X4250000Y-1350000D01*
X13400000Y-9300000D02*
X16000000Y-9300000D01*
D25*
X2200000Y12550000D02*
X-700000Y12550000D01*
X-700000Y12550000D02*
X-2650000Y10600000D01*
X-13500000Y4800000D02*
X-14500000Y5800000D01*
X-13500000Y4000000D02*
X-13500000Y4800000D01*
D24*
X-15700000Y0D02*
X-15700000Y-1200000D01*
X-12900000Y-4900000D02*
X-8950000Y-4900000D01*
X-14100000Y-3700000D02*
X-12900000Y-4900000D01*
X-14100000Y-2800000D02*
X-14100000Y-3700000D01*
X-15700000Y-1200000D02*
X-14100000Y-2800000D01*
X5080000Y-22170000D02*
X6780000Y-22170000D01*
X7620000Y-21330000D02*
X7620000Y-19630000D01*
X6780000Y-22170000D02*
X7620000Y-21330000D01*
X2540000Y-22170000D02*
X5080000Y-22170000D01*
X0Y-22170000D02*
X2540000Y-22170000D01*
X0Y-22170000D02*
X-2540000Y-22170000D01*
X-5080000Y-22170000D02*
X-2540000Y-22170000D01*
X-15700000Y0D02*
X-14050000Y0D01*
X-13500000Y550000D02*
X-13500000Y4000000D01*
X-14050000Y0D02*
X-13500000Y550000D01*
X8290000Y20950000D02*
X8290000Y18470000D01*
X8290000Y18470000D02*
X9560000Y17200000D01*
X-15910000Y20950000D02*
X-15910000Y18470000D01*
X-15910000Y18470000D02*
X-14640000Y17200000D01*
X0Y21900000D02*
X2860000Y21900000D01*
X2860000Y21900000D02*
X3810000Y20950000D01*
X-3810000Y20950000D02*
X-2650000Y20950000D01*
X-2650000Y20950000D02*
X-1700000Y21900000D01*
X-1700000Y21900000D02*
X0Y21900000D01*
X12100000Y21400000D02*
X15460000Y21400000D01*
X15460000Y21400000D02*
X15910000Y20950000D01*
X8290000Y20950000D02*
X9750000Y20950000D01*
X9750000Y20950000D02*
X10200000Y21400000D01*
X10200000Y21400000D02*
X12100000Y21400000D01*
X3810000Y20950000D02*
X8290000Y20950000D01*
X-3810000Y20950000D02*
X-2850000Y20950000D01*
X-8290000Y20950000D02*
X-3810000Y20950000D01*
X-12100000Y21400000D02*
X-8740000Y21400000D01*
X-8740000Y21400000D02*
X-8290000Y20950000D01*
X-15910000Y20950000D02*
X-15460000Y21400000D01*
X-15460000Y21400000D02*
X-12100000Y21400000D01*
X-14850000Y-6950000D02*
X-14850000Y-7134000D01*
X-9400000Y-12584000D02*
X-9400000Y-19500000D01*
X-14850000Y-7134000D02*
X-9400000Y-12584000D01*
X-16650000Y-8500000D02*
X-16400000Y-8500000D01*
X-16400000Y-8500000D02*
X-14850000Y-6950000D01*
D26*
X-12375980Y-2550000D02*
X-12375980Y-1525980D01*
X-11250000Y9700000D02*
X-13900000Y12350000D01*
X-11250000Y-400000D02*
X-11250000Y9700000D01*
X-12375980Y-1525980D02*
X-11250000Y-400000D01*
X-12375980Y-2550000D02*
X-12400000Y-2550000D01*
D24*
X22690000Y16100000D02*
X22690000Y13560000D01*
X-10750000Y12350000D02*
X-13900000Y12350000D01*
X-9450000Y-22150000D02*
X-10250000Y-22150000D01*
X-16650000Y-11200000D02*
X-16000000Y-11200000D01*
X-16000000Y-11200000D02*
X-14750000Y-12450000D01*
D26*
X-2500000Y1450000D02*
X-5750000Y-1800000D01*
X-5750000Y-1800000D02*
X-5750000Y-5800000D01*
X-2500000Y1450000D02*
X-2500000Y3000000D01*
D24*
X-2500000Y3500000D02*
X-2500000Y3000000D01*
X-2500000Y3000000D02*
X-2450000Y2950000D01*
X-2700000Y8750000D02*
X-3300000Y8750000D01*
X-4200000Y9650000D02*
X-4200000Y15300000D01*
X-3300000Y8750000D02*
X-4200000Y9650000D01*
D25*
X2540000Y15310000D02*
X7550000Y15310000D01*
X7550000Y15310000D02*
X11110000Y15310000D01*
X11110000Y15310000D02*
X12100000Y16300000D01*
X12100000Y16300000D02*
X12100000Y17200000D01*
X2540000Y17200000D02*
X2540000Y15310000D01*
X-12100000Y15850000D02*
X-11550000Y15300000D01*
X-12100000Y15850000D02*
X-12100000Y17200000D01*
X-11550000Y15300000D02*
X-4200000Y15300000D01*
X-4200000Y15300000D02*
X1250000Y15300000D01*
X2540000Y15310000D02*
X2530000Y15300000D01*
X2530000Y15300000D02*
X1250000Y15300000D01*
D24*
X12100000Y19500000D02*
X12100000Y17200000D01*
X-12100000Y19500000D02*
X-12100000Y17200000D01*
X0Y20000000D02*
X650000Y20000000D01*
X650000Y20000000D02*
X2540000Y18110000D01*
X2540000Y18110000D02*
X2540000Y17200000D01*
D23*
X5350000Y8400000D02*
X5350000Y9950000D01*
X17150000Y10950000D02*
X17150000Y8450000D01*
X15550000Y12550000D02*
X17150000Y10950000D01*
X7950000Y12550000D02*
X15550000Y12550000D01*
X5350000Y9950000D02*
X7950000Y12550000D01*
D25*
X3900000Y-6750000D02*
X6950000Y-3700000D01*
X-1550000Y-13050000D02*
X-1550000Y-10800000D01*
X2500000Y-6750000D02*
X-1550000Y-10800000D01*
X3900000Y-6750000D02*
X2500000Y-6750000D01*
X6950000Y-3700000D02*
X6950000Y-3000000D01*
X-200000Y-14050000D02*
X-550000Y-14050000D01*
X5080000Y-16180000D02*
X2950000Y-14050000D01*
X2950000Y-14050000D02*
X-200000Y-14050000D01*
X5080000Y-19630000D02*
X5080000Y-16180000D01*
X-550000Y-14050000D02*
X-1550000Y-13050000D01*
X-1550000Y-13050000D02*
X-1600000Y-13000000D01*
D24*
X5080000Y-19630000D02*
X5080000Y-19130000D01*
D23*
X8000000Y-2600000D02*
X8900000Y-3500000D01*
X8900000Y-3500000D02*
X8950000Y-3500000D01*
X10800000Y-3600000D02*
X10700000Y-3500000D01*
X10700000Y-3500000D02*
X8950000Y-3500000D01*
X4250000Y-4250000D02*
X4250000Y-4450000D01*
X6550000Y-1950000D02*
X4250000Y-4250000D01*
X7350000Y-1950000D02*
X6550000Y-1950000D01*
X8000000Y-2600000D02*
X7350000Y-1950000D01*
D25*
X-3350000Y-13400000D02*
X-3350000Y-10250000D01*
X-1500000Y-15250000D02*
X-3350000Y-13400000D01*
X2540000Y-16440000D02*
X2540000Y-19630000D01*
X1350000Y-15250000D02*
X-50000Y-15250000D01*
X2540000Y-16440000D02*
X1350000Y-15250000D01*
X-50000Y-15250000D02*
X-1500000Y-15250000D01*
X3500000Y-5200000D02*
X4250000Y-4450000D01*
X1700000Y-5200000D02*
X3500000Y-5200000D01*
X-3350000Y-10250000D02*
X1700000Y-5200000D01*
D24*
X2540000Y-19630000D02*
X2540000Y-19190000D01*
D23*
X17300000Y4300000D02*
X14850000Y6750000D01*
X18200000Y3400000D02*
X17300000Y4300000D01*
X20150000Y3400000D02*
X18200000Y3400000D01*
X8350000Y7100000D02*
X7500000Y6250000D01*
X8350000Y8650000D02*
X8350000Y7100000D01*
X9800000Y10100000D02*
X8350000Y8650000D01*
X13950000Y10100000D02*
X9800000Y10100000D01*
X14850000Y9200000D02*
X13950000Y10100000D01*
X14850000Y6750000D02*
X14850000Y9200000D01*
D25*
X0Y-18700000D02*
X-2450000Y-16250000D01*
X2600000Y-3400000D02*
X1250000Y-3400000D01*
X-4900000Y-13800000D02*
X-2450000Y-16250000D01*
X-4900000Y-9550000D02*
X-4900000Y-13800000D01*
X1250000Y-3400000D02*
X-4900000Y-9550000D01*
X0Y-18700000D02*
X0Y-19630000D01*
D24*
X0Y-19630000D02*
X0Y-19150000D01*
D25*
X2500000Y-2100000D02*
X2450000Y-2150000D01*
X2450000Y-2150000D02*
X500000Y-2150000D01*
X-3650000Y-17650000D02*
X-6450000Y-14850000D01*
X-2540000Y-18760000D02*
X-3650000Y-17650000D01*
X-6450000Y-9100000D02*
X500000Y-2150000D01*
X-6450000Y-14850000D02*
X-6450000Y-9100000D01*
X-2540000Y-19630000D02*
X-2540000Y-18760000D01*
D24*
X-2540000Y-19630000D02*
X-2540000Y-19160000D01*
D23*
X16250000Y-7950000D02*
X14600000Y-6300000D01*
X22050000Y-10600000D02*
X22690000Y-11240000D01*
X18900000Y-10600000D02*
X16250000Y-7950000D01*
X22050000Y-10600000D02*
X18900000Y-10600000D01*
X14600000Y-3750000D02*
X14800000Y-3550000D01*
X14600000Y-6300000D02*
X14600000Y-3750000D01*
X22690000Y-11840000D02*
X22690000Y-11240000D01*
X10700000Y5350000D02*
X10700000Y5200000D01*
X10700000Y5200000D02*
X11350000Y4550000D01*
X11350000Y4550000D02*
X12850000Y4550000D01*
X15750000Y1650000D02*
X15750000Y-2850000D01*
X12850000Y4550000D02*
X15750000Y1650000D01*
X10700000Y5500000D02*
X10700000Y5350000D01*
X17200000Y-4300000D02*
X17200000Y-4950000D01*
X15750000Y-2850000D02*
X17200000Y-4300000D01*
X11600000Y8850000D02*
X12050000Y8850000D01*
X10700000Y7950000D02*
X11600000Y8850000D01*
X10700000Y5500000D02*
X10700000Y7950000D01*
X18900000Y-9300000D02*
X20150000Y-9300000D01*
X17200000Y-7600000D02*
X17200000Y-6150000D01*
X18900000Y-9300000D02*
X17200000Y-7600000D01*
X17200000Y-4950000D02*
X17200000Y-6150000D01*
D25*
X3100000Y13950000D02*
X4150000Y12900000D01*
X-2550000Y13950000D02*
X3100000Y13950000D01*
D24*
X-8550000Y12350000D02*
X-8550000Y10300000D01*
X-5550000Y7300000D02*
X-2700000Y7300000D01*
X-8550000Y10300000D02*
X-5550000Y7300000D01*
D25*
X-8550000Y14100000D02*
X-8550000Y12350000D01*
X11700000Y13900000D02*
X5300000Y13900000D01*
X11700000Y13900000D02*
X14640000Y16840000D01*
X14640000Y17200000D02*
X14640000Y16840000D01*
D23*
X8200000Y800000D02*
X10750000Y-1750000D01*
X10700000Y-1700000D02*
X10700000Y-1750000D01*
X10750000Y-1750000D02*
X10700000Y-1700000D01*
X4800000Y1950000D02*
X4900000Y1850000D01*
X11450000Y-1750000D02*
X12800000Y-3100000D01*
X10700000Y-1750000D02*
X11450000Y-1750000D01*
X7150000Y1850000D02*
X8200000Y800000D01*
X4900000Y1850000D02*
X7150000Y1850000D01*
X12800000Y-3100000D02*
X12800000Y-4450000D01*
X12800000Y-4450000D02*
X12800000Y-4500000D01*
X12800000Y-4500000D02*
X12800000Y-4850000D01*
X12800000Y-4850000D02*
X8500000Y-9150000D01*
X8500000Y-10650000D02*
X8500000Y-9150000D01*
D24*
X-18012000Y-8500000D02*
X-18012000Y-11200000D01*
X-18350000Y-8162000D02*
X-18350000Y-5500000D01*
X-18350000Y-5500000D02*
X-18350000Y-4050000D01*
X-18350000Y-8162000D02*
X-18012000Y-8500000D01*
X-20600000Y-4050000D02*
X-18350000Y-4050000D01*
X-20000000Y7400000D02*
X-13100000Y7400000D01*
X-21750000Y-1550000D02*
X-20600000Y-1550000D01*
X-22850000Y4550000D02*
X-20300000Y7100000D01*
X-22850000Y-450000D02*
X-22850000Y4550000D01*
X-21750000Y-1550000D02*
X-22850000Y-450000D01*
X-20300000Y7100000D02*
X-20000000Y7400000D01*
X-20600000Y950000D02*
X-18200000Y950000D01*
D25*
X-7510000Y-21572000D02*
X-7510000Y-22310000D01*
X-7510000Y-22310000D02*
X-7550000Y-22350000D01*
X-7510000Y-19500000D02*
X-7510000Y-21572000D01*
X-7510000Y-21572000D02*
X-8088000Y-22150000D01*
X-8088000Y-22150000D02*
X-8088000Y-19550000D01*
X-8088000Y-19550000D02*
X-8038000Y-19500000D01*
D24*
X-8038000Y-19500000D02*
X-7510000Y-19500000D01*
X-7510000Y-19500000D02*
X-7380000Y-19630000D01*
D26*
X-5080000Y-19630000D02*
X-7380000Y-19630000D01*
X-7380000Y-19630000D02*
X-7400000Y-19650000D01*
D23*
X6800000Y7550000D02*
X6800000Y9800000D01*
X18500000Y4650000D02*
X17600000Y5550000D01*
X21950000Y4650000D02*
X18500000Y4650000D01*
X22690000Y3910000D02*
X21950000Y4650000D01*
X16000000Y7150000D02*
X17600000Y5550000D01*
X16000000Y10500000D02*
X16000000Y7150000D01*
X15200000Y11300000D02*
X16000000Y10500000D01*
X8300000Y11300000D02*
X15200000Y11300000D01*
X6800000Y9800000D02*
X8300000Y11300000D01*
X22690000Y3400000D02*
X22690000Y3910000D01*
D24*
X-750000Y6900000D02*
X-1500000Y6150000D01*
X-9200000Y4950000D02*
X-2700000Y4950000D01*
D25*
X-15700000Y4000000D02*
X-17450000Y4000000D01*
D24*
X-2700000Y4950000D02*
X-1500000Y6150000D01*
X-15700000Y4000000D02*
X-15700000Y1900000D01*
D25*
X-16150000Y-4050000D02*
X-16150000Y-5300000D01*
D23*
X10500000Y-2550000D02*
X11200000Y-2550000D01*
X11950000Y-3950000D02*
X11950000Y-3300000D01*
X11950000Y-3950000D02*
X8500000Y-7400000D01*
X11200000Y-2550000D02*
X11950000Y-3300000D01*
X5550000Y1100000D02*
X5150000Y700000D01*
X5150000Y700000D02*
X4000000Y700000D01*
X6850000Y1100000D02*
X5550000Y1100000D01*
X7450000Y500000D02*
X6850000Y1100000D01*
X7450000Y500000D02*
X10500000Y-2550000D01*
D24*
X10300000Y-24300000D02*
X10300000Y-20650000D01*
D25*
X-50000Y-12600000D02*
X3350000Y-12600000D01*
X14900000Y-16150000D02*
X14900000Y-15150000D01*
X14050000Y-17000000D02*
X14900000Y-16150000D01*
X7750000Y-17000000D02*
X14050000Y-17000000D01*
X3350000Y-12600000D02*
X7750000Y-17000000D01*
D24*
X9650000Y-4550000D02*
X8450000Y-4550000D01*
X6050000Y-6950000D02*
X6050000Y-12350000D01*
X8450000Y-4550000D02*
X6050000Y-6950000D01*
D23*
X22690000Y-1680000D02*
X22690000Y-890000D01*
X13150000Y7350000D02*
X11900000Y7350000D01*
X18250000Y2250000D02*
X13150000Y7350000D01*
X18250000Y300000D02*
X18250000Y2250000D01*
X19000000Y-450000D02*
X18250000Y300000D01*
X22250000Y-450000D02*
X19000000Y-450000D01*
X22690000Y-890000D02*
X22250000Y-450000D01*
X17294976Y994976D02*
X17294976Y-194976D01*
X17294976Y1855024D02*
X17294976Y994976D01*
X11750000Y5900000D02*
X13250000Y5900000D01*
X13250000Y5900000D02*
X15950000Y3200000D01*
X15950000Y3200000D02*
X17294976Y1855024D01*
X18850000Y-2900000D02*
X18250000Y-2300000D01*
X18250000Y-2300000D02*
X18250000Y-1150000D01*
X22690000Y-3390000D02*
X22690000Y-4220000D01*
X22690000Y-3390000D02*
X22200000Y-2900000D01*
X22200000Y-2900000D02*
X18850000Y-2900000D01*
X17294976Y-194976D02*
X18250000Y-1150000D01*
X17050000Y-1450000D02*
X17050000Y-2700000D01*
X17050000Y-2700000D02*
X18150000Y-3800000D01*
X18150000Y-3750000D02*
X18150000Y-3800000D01*
X18150000Y-3800000D02*
X18150000Y-5000000D01*
X18400000Y-7500000D02*
X18150000Y-7250000D01*
X22690000Y-8490000D02*
X22690000Y-9300000D01*
X22250000Y-8050000D02*
X18950000Y-8050000D01*
X22690000Y-8490000D02*
X22250000Y-8050000D01*
X18950000Y-8050000D02*
X18400000Y-7500000D01*
X18150000Y-7250000D02*
X18150000Y-6250000D01*
X18150000Y-5000000D02*
X18150000Y-6250000D01*
X9075000Y1275000D02*
X11300000Y-950000D01*
X11300000Y-950000D02*
X12200000Y-950000D01*
X5950000Y3000000D02*
X7350000Y3000000D01*
X12200000Y-950000D02*
X13700000Y-2450000D01*
X7350000Y3000000D02*
X9075000Y1275000D01*
X11600000Y-7650000D02*
X13700000Y-5550000D01*
D25*
X14650000Y-12000000D02*
X13250000Y-12000000D01*
X13250000Y-12000000D02*
X11600000Y-10350000D01*
X11600000Y-10350000D02*
X11600000Y-8400000D01*
X22690000Y-14910000D02*
X21450000Y-16150000D01*
X21450000Y-16150000D02*
X18800000Y-16150000D01*
X18800000Y-16150000D02*
X16250000Y-13600000D01*
X16250000Y-13600000D02*
X14650000Y-12000000D01*
D23*
X11600000Y-7650000D02*
X11600000Y-8400000D01*
X13700000Y-5550000D02*
X13700000Y-2450000D01*
D25*
X22690000Y-14380000D02*
X22690000Y-14910000D01*
D10*
G36*
X24375000Y-25375000D02*
X-24375000Y-25375000D01*
X-24375000Y-19356471D01*
X-21700312Y-19356471D01*
X-21426855Y-20018286D01*
X-20920949Y-20525076D01*
X-20259613Y-20799687D01*
X-19543529Y-20800312D01*
X-18881714Y-20526855D01*
X-18374924Y-20020949D01*
X-18100313Y-19359613D01*
X-18099688Y-18643529D01*
X-18373145Y-17981714D01*
X-18879051Y-17474924D01*
X-19540387Y-17200313D01*
X-20256471Y-17199688D01*
X-20918286Y-17473145D01*
X-21425076Y-17979051D01*
X-21699687Y-18640387D01*
X-21700312Y-19356471D01*
X-24375000Y-19356471D01*
X-24375000Y4550000D01*
X-23900000Y4550000D01*
X-23900000Y-450000D01*
X-23820074Y-851818D01*
X-23592462Y-1192462D01*
X-22492462Y-2292462D01*
X-22151818Y-2520074D01*
X-21750000Y-2600000D01*
X-21741951Y-2600000D01*
X-21542032Y-2800269D01*
X-21913260Y-3170849D01*
X-22149730Y-3740333D01*
X-22150268Y-4356961D01*
X-21914792Y-4926857D01*
X-21479151Y-5363260D01*
X-20909667Y-5599730D01*
X-20293039Y-5600268D01*
X-19723143Y-5364792D01*
X-19457888Y-5100000D01*
X-19400000Y-5100000D01*
X-19400000Y-8162000D01*
X-19320074Y-8563818D01*
X-19092462Y-8904462D01*
X-19072775Y-8924149D01*
X-19072775Y-9250000D01*
X-19062000Y-9307264D01*
X-19062000Y-10396791D01*
X-19072775Y-10450000D01*
X-19072775Y-11950000D01*
X-19034424Y-12153818D01*
X-18913968Y-12341012D01*
X-18730173Y-12466594D01*
X-18512000Y-12510775D01*
X-17512000Y-12510775D01*
X-17324355Y-12475467D01*
X-17150000Y-12510775D01*
X-16174149Y-12510775D01*
X-15493110Y-13191814D01*
X-15345554Y-13339628D01*
X-14959774Y-13499818D01*
X-14542058Y-13500182D01*
X-14156000Y-13340666D01*
X-13860372Y-13045554D01*
X-13700182Y-12659774D01*
X-13699818Y-12242058D01*
X-13859334Y-11856000D01*
X-14154446Y-11560372D01*
X-14154887Y-11560189D01*
X-15257538Y-10457538D01*
X-15598182Y-10229926D01*
X-15643886Y-10220835D01*
X-15748032Y-10058988D01*
X-15931827Y-9933406D01*
X-16150000Y-9889225D01*
X-16962000Y-9889225D01*
X-16962000Y-9810775D01*
X-16150000Y-9810775D01*
X-15946182Y-9772424D01*
X-15758988Y-9651968D01*
X-15633406Y-9468173D01*
X-15589225Y-9250000D01*
X-15589225Y-9174149D01*
X-14942000Y-8526924D01*
X-10450000Y-13018924D01*
X-10450000Y-18696791D01*
X-10460775Y-18750000D01*
X-10460775Y-20250000D01*
X-10422424Y-20453818D01*
X-10301968Y-20641012D01*
X-10118173Y-20766594D01*
X-9900000Y-20810775D01*
X-9013000Y-20810775D01*
X-9013000Y-20839225D01*
X-9950000Y-20839225D01*
X-10153818Y-20877576D01*
X-10341012Y-20998032D01*
X-10410588Y-21099859D01*
X-10457942Y-21099818D01*
X-10844000Y-21259334D01*
X-11139628Y-21554446D01*
X-11299818Y-21940226D01*
X-11300182Y-22357942D01*
X-11140666Y-22744000D01*
X-10845554Y-23039628D01*
X-10459774Y-23199818D01*
X-10410622Y-23199861D01*
X-10351968Y-23291012D01*
X-10168173Y-23416594D01*
X-9950000Y-23460775D01*
X-8950000Y-23460775D01*
X-8762355Y-23425467D01*
X-8588000Y-23460775D01*
X-7588000Y-23460775D01*
X-7384182Y-23422424D01*
X-7196988Y-23301968D01*
X-7075371Y-23123975D01*
X-6895926Y-23004074D01*
X-6855929Y-22964076D01*
X-6855926Y-22964074D01*
X-6655411Y-22663982D01*
X-6622196Y-22497000D01*
X-6584999Y-22310000D01*
X-6585000Y-22309995D01*
X-6585000Y-20930000D01*
X-6043037Y-20930000D01*
X-5987511Y-20985623D01*
X-5399656Y-21229722D01*
X-4763137Y-21230277D01*
X-4174857Y-20987205D01*
X-3809758Y-20622743D01*
X-3447511Y-20985623D01*
X-2859656Y-21229722D01*
X-2223137Y-21230277D01*
X-1634857Y-20987205D01*
X-1269758Y-20622743D01*
X-907511Y-20985623D01*
X-319656Y-21229722D01*
X316863Y-21230277D01*
X905143Y-20987205D01*
X1270242Y-20622743D01*
X1632489Y-20985623D01*
X2220344Y-21229722D01*
X2856863Y-21230277D01*
X3445143Y-20987205D01*
X3810242Y-20622743D01*
X4172489Y-20985623D01*
X4760344Y-21229722D01*
X5396863Y-21230277D01*
X5985143Y-20987205D01*
X6114631Y-20857942D01*
X9249818Y-20857942D01*
X9250000Y-20858382D01*
X9250000Y-24299084D01*
X9249818Y-24507942D01*
X9409334Y-24894000D01*
X9704446Y-25189628D01*
X10090226Y-25349818D01*
X10507942Y-25350182D01*
X10894000Y-25190666D01*
X11189628Y-24895554D01*
X11349818Y-24509774D01*
X11350182Y-24092058D01*
X11350000Y-24091618D01*
X11350000Y-20650916D01*
X11350182Y-20442058D01*
X11190666Y-20056000D01*
X10895554Y-19760372D01*
X10509774Y-19600182D01*
X10092058Y-19599818D01*
X9706000Y-19759334D01*
X9410372Y-20054446D01*
X9250182Y-20440226D01*
X9249818Y-20857942D01*
X6114631Y-20857942D01*
X6435623Y-20537511D01*
X6679722Y-19949656D01*
X6680239Y-19356471D01*
X18099688Y-19356471D01*
X18373145Y-20018286D01*
X18879051Y-20525076D01*
X19540387Y-20799687D01*
X20256471Y-20800312D01*
X20918286Y-20526855D01*
X21425076Y-20020949D01*
X21699687Y-19359613D01*
X21700312Y-18643529D01*
X21426855Y-17981714D01*
X20920949Y-17474924D01*
X20259613Y-17200313D01*
X19543529Y-17199688D01*
X18881714Y-17473145D01*
X18374924Y-17979051D01*
X18100313Y-18640387D01*
X18099688Y-19356471D01*
X6680239Y-19356471D01*
X6680277Y-19313137D01*
X6437205Y-18724857D01*
X6005000Y-18291897D01*
X6005000Y-16563148D01*
X7095926Y-17654074D01*
X7396018Y-17854589D01*
X7750000Y-17925001D01*
X7750005Y-17925000D01*
X14050000Y-17925000D01*
X14403983Y-17854589D01*
X14704074Y-17654074D01*
X15554071Y-16804076D01*
X15554074Y-16804074D01*
X15754589Y-16503982D01*
X15767316Y-16440000D01*
X15825001Y-16150000D01*
X15825000Y-16149995D01*
X15825000Y-15660369D01*
X15949818Y-15359774D01*
X15950182Y-14942058D01*
X15790666Y-14556000D01*
X15495554Y-14260372D01*
X15109774Y-14100182D01*
X14692058Y-14099818D01*
X14306000Y-14259334D01*
X14010372Y-14554446D01*
X13850182Y-14940226D01*
X13849818Y-15357942D01*
X13975000Y-15660905D01*
X13975000Y-15766853D01*
X13666852Y-16075000D01*
X8133148Y-16075000D01*
X4004074Y-11945926D01*
X3703983Y-11745411D01*
X3350000Y-11675000D01*
X460369Y-11675000D01*
X159774Y-11550182D01*
X-257942Y-11549818D01*
X-625000Y-11701483D01*
X-625000Y-11183148D01*
X2883148Y-7675000D01*
X3900000Y-7675000D01*
X4253983Y-7604589D01*
X4554074Y-7404074D01*
X5000000Y-6958148D01*
X5000000Y-12349084D01*
X4999818Y-12557942D01*
X5159334Y-12944000D01*
X5454446Y-13239628D01*
X5840226Y-13399818D01*
X6257942Y-13400182D01*
X6644000Y-13240666D01*
X6939628Y-12945554D01*
X7099818Y-12559774D01*
X7100182Y-12142058D01*
X7100000Y-12141618D01*
X7100000Y-7384924D01*
X7560590Y-6924334D01*
X7450182Y-7190226D01*
X7449818Y-7607942D01*
X7609334Y-7994000D01*
X7904446Y-8289628D01*
X8183739Y-8405601D01*
X7969670Y-8619670D01*
X7807090Y-8862987D01*
X7750000Y-9150000D01*
X7750000Y-9915062D01*
X7610372Y-10054446D01*
X7450182Y-10440226D01*
X7449818Y-10857942D01*
X7609334Y-11244000D01*
X7904446Y-11539628D01*
X8290226Y-11699818D01*
X8707942Y-11700182D01*
X9094000Y-11540666D01*
X9389628Y-11245554D01*
X9549818Y-10859774D01*
X9550182Y-10442058D01*
X9390666Y-10056000D01*
X9250000Y-9915088D01*
X9250000Y-9460660D01*
X10850000Y-7860660D01*
X10850000Y-7889489D01*
X10745411Y-8046018D01*
X10675000Y-8400000D01*
X10675000Y-10350000D01*
X10745411Y-10703983D01*
X10945926Y-11004074D01*
X12595926Y-12654074D01*
X12896018Y-12854589D01*
X13250000Y-12925000D01*
X14266852Y-12925000D01*
X15595926Y-14254074D01*
X18145924Y-16804071D01*
X18145926Y-16804074D01*
X18295587Y-16904074D01*
X18446018Y-17004589D01*
X18800000Y-17075001D01*
X18800005Y-17075000D01*
X21450000Y-17075000D01*
X21803983Y-17004589D01*
X22104074Y-16804074D01*
X23344074Y-15564074D01*
X23388993Y-15496847D01*
X23662411Y-15442461D01*
X24035498Y-15193173D01*
X24284786Y-14820086D01*
X24372325Y-14380000D01*
X24284786Y-13939914D01*
X24035498Y-13566827D01*
X23662411Y-13317539D01*
X23222325Y-13230000D01*
X22157675Y-13230000D01*
X21717589Y-13317539D01*
X21344502Y-13566827D01*
X21095214Y-13939914D01*
X21007675Y-14380000D01*
X21095214Y-14820086D01*
X21246039Y-15045813D01*
X21066852Y-15225000D01*
X19183147Y-15225000D01*
X16904074Y-12945926D01*
X15304074Y-11345926D01*
X15003983Y-11145411D01*
X14650000Y-11075000D01*
X13633148Y-11075000D01*
X12525000Y-9966852D01*
X12525000Y-8400000D01*
X12454589Y-8046018D01*
X12378507Y-7932153D01*
X13876655Y-6434005D01*
X13907090Y-6587013D01*
X14069670Y-6830330D01*
X18369670Y-11130330D01*
X18612987Y-11292910D01*
X18625101Y-11295320D01*
X18555214Y-11399914D01*
X18467675Y-11840000D01*
X18555214Y-12280086D01*
X18804502Y-12653173D01*
X19177589Y-12902461D01*
X19617675Y-12990000D01*
X20682325Y-12990000D01*
X21122411Y-12902461D01*
X21420000Y-12703619D01*
X21717589Y-12902461D01*
X22157675Y-12990000D01*
X23222325Y-12990000D01*
X23662411Y-12902461D01*
X24035498Y-12653173D01*
X24284786Y-12280086D01*
X24372325Y-11840000D01*
X24284786Y-11399914D01*
X24035498Y-11026827D01*
X23662411Y-10777539D01*
X23222325Y-10690000D01*
X23200660Y-10690000D01*
X22960660Y-10450000D01*
X23222325Y-10450000D01*
X23662411Y-10362461D01*
X24035498Y-10113173D01*
X24284786Y-9740086D01*
X24372325Y-9300000D01*
X24284786Y-8859914D01*
X24035498Y-8486827D01*
X23662411Y-8237539D01*
X23366693Y-8178717D01*
X23220330Y-7959670D01*
X22780330Y-7519670D01*
X22537013Y-7357090D01*
X22250000Y-7300000D01*
X21678026Y-7300000D01*
X21744786Y-7200086D01*
X21832325Y-6760000D01*
X21744786Y-6319914D01*
X21495498Y-5946827D01*
X21122411Y-5697539D01*
X20682325Y-5610000D01*
X19617675Y-5610000D01*
X19177589Y-5697539D01*
X18900000Y-5883017D01*
X18900000Y-5096983D01*
X19177589Y-5282461D01*
X19617675Y-5370000D01*
X20682325Y-5370000D01*
X21122411Y-5282461D01*
X21420000Y-5083619D01*
X21717589Y-5282461D01*
X22157675Y-5370000D01*
X23222325Y-5370000D01*
X23662411Y-5282461D01*
X24035498Y-5033173D01*
X24284786Y-4660086D01*
X24372325Y-4220000D01*
X24284786Y-3779914D01*
X24035498Y-3406827D01*
X23662411Y-3157539D01*
X23382105Y-3101782D01*
X23220330Y-2859670D01*
X23190660Y-2830000D01*
X23222325Y-2830000D01*
X23662411Y-2742461D01*
X24035498Y-2493173D01*
X24284786Y-2120086D01*
X24372325Y-1680000D01*
X24284786Y-1239914D01*
X24035498Y-866827D01*
X23662411Y-617539D01*
X23351281Y-555651D01*
X23220330Y-359670D01*
X22780330Y80330D01*
X22537013Y242910D01*
X22250000Y300000D01*
X21664662Y300000D01*
X21744786Y419914D01*
X21832325Y860000D01*
X21744786Y1300086D01*
X21495498Y1673173D01*
X21122411Y1922461D01*
X20682325Y2010000D01*
X19617675Y2010000D01*
X19177589Y1922461D01*
X19000000Y1803800D01*
X19000000Y2250000D01*
X18952698Y2487806D01*
X19177589Y2337539D01*
X19617675Y2250000D01*
X20682325Y2250000D01*
X21122411Y2337539D01*
X21420000Y2536381D01*
X21717589Y2337539D01*
X22157675Y2250000D01*
X23222325Y2250000D01*
X23662411Y2337539D01*
X24035498Y2586827D01*
X24284786Y2959914D01*
X24372325Y3400000D01*
X24284786Y3840086D01*
X24035498Y4213173D01*
X23662411Y4462461D01*
X23222325Y4550000D01*
X23110660Y4550000D01*
X22870660Y4790000D01*
X23222325Y4790000D01*
X23662411Y4877539D01*
X24035498Y5126827D01*
X24284786Y5499914D01*
X24372325Y5940000D01*
X24284786Y6380086D01*
X24035498Y6753173D01*
X23662411Y7002461D01*
X23222325Y7090000D01*
X22157675Y7090000D01*
X21717589Y7002461D01*
X21344502Y6753173D01*
X21095214Y6380086D01*
X21007675Y5940000D01*
X21095214Y5499914D01*
X21161974Y5400000D01*
X18810660Y5400000D01*
X16750000Y7460660D01*
X16750000Y7479171D01*
X16940226Y7400182D01*
X17357942Y7399818D01*
X17744000Y7559334D01*
X18039628Y7854446D01*
X18199818Y8240226D01*
X18200026Y8480000D01*
X18467675Y8480000D01*
X18555214Y8039914D01*
X18804502Y7666827D01*
X19177589Y7417539D01*
X19617675Y7330000D01*
X20682325Y7330000D01*
X21122411Y7417539D01*
X21420000Y7616381D01*
X21717589Y7417539D01*
X22157675Y7330000D01*
X23222325Y7330000D01*
X23662411Y7417539D01*
X24035498Y7666827D01*
X24284786Y8039914D01*
X24372325Y8480000D01*
X24284786Y8920086D01*
X24035498Y9293173D01*
X23662411Y9542461D01*
X23222325Y9630000D01*
X22157675Y9630000D01*
X21717589Y9542461D01*
X21420000Y9343619D01*
X21122411Y9542461D01*
X20682325Y9630000D01*
X19617675Y9630000D01*
X19177589Y9542461D01*
X18804502Y9293173D01*
X18555214Y8920086D01*
X18467675Y8480000D01*
X18200026Y8480000D01*
X18200182Y8657942D01*
X18040666Y9044000D01*
X17900000Y9184912D01*
X17900000Y10950000D01*
X17886077Y11020000D01*
X18467675Y11020000D01*
X18555214Y10579914D01*
X18804502Y10206827D01*
X19177589Y9957539D01*
X19617675Y9870000D01*
X20682325Y9870000D01*
X21122411Y9957539D01*
X21495498Y10206827D01*
X21744786Y10579914D01*
X21832325Y11020000D01*
X21744786Y11460086D01*
X21495498Y11833173D01*
X21122411Y12082461D01*
X20682325Y12170000D01*
X19617675Y12170000D01*
X19177589Y12082461D01*
X18804502Y11833173D01*
X18555214Y11460086D01*
X18467675Y11020000D01*
X17886077Y11020000D01*
X17842910Y11237013D01*
X17680330Y11480330D01*
X16080330Y13080330D01*
X15837013Y13242910D01*
X15550000Y13300000D01*
X12408148Y13300000D01*
X12668148Y13560000D01*
X18467675Y13560000D01*
X18555214Y13119914D01*
X18804502Y12746827D01*
X19177589Y12497539D01*
X19617675Y12410000D01*
X20682325Y12410000D01*
X21122411Y12497539D01*
X21420000Y12696381D01*
X21717589Y12497539D01*
X22157675Y12410000D01*
X23222325Y12410000D01*
X23662411Y12497539D01*
X24035498Y12746827D01*
X24284786Y13119914D01*
X24372325Y13560000D01*
X24284786Y14000086D01*
X24035498Y14373173D01*
X23740000Y14570618D01*
X23740000Y15089382D01*
X24035498Y15286827D01*
X24284786Y15659914D01*
X24372325Y16100000D01*
X24284786Y16540086D01*
X24035498Y16913173D01*
X23662411Y17162461D01*
X23222325Y17250000D01*
X22157675Y17250000D01*
X21717589Y17162461D01*
X21631544Y17104967D01*
X21468173Y17216594D01*
X21250000Y17260775D01*
X19050000Y17260775D01*
X18846182Y17222424D01*
X18658988Y17101968D01*
X18533406Y16918173D01*
X18489225Y16700000D01*
X18489225Y15500000D01*
X18527576Y15296182D01*
X18648032Y15108988D01*
X18831827Y14983406D01*
X19050000Y14939225D01*
X21250000Y14939225D01*
X21453818Y14977576D01*
X21633902Y15093457D01*
X21640000Y15089382D01*
X21640000Y14570618D01*
X21420000Y14423619D01*
X21122411Y14622461D01*
X20682325Y14710000D01*
X19617675Y14710000D01*
X19177589Y14622461D01*
X18804502Y14373173D01*
X18555214Y14000086D01*
X18467675Y13560000D01*
X12668148Y13560000D01*
X14758045Y15649897D01*
X14946961Y15649732D01*
X15516857Y15885208D01*
X15953260Y16320849D01*
X16189730Y16890333D01*
X16190268Y17506961D01*
X15954792Y18076857D01*
X15519151Y18513260D01*
X14949667Y18749730D01*
X14333039Y18750268D01*
X13763143Y18514792D01*
X13369696Y18122032D01*
X13150000Y18342112D01*
X13150000Y19500000D01*
X13070074Y19901818D01*
X13035775Y19953150D01*
X13035775Y20100000D01*
X12997424Y20303818D01*
X12876968Y20491012D01*
X12800107Y20543529D01*
X18099688Y20543529D01*
X18373145Y19881714D01*
X18879051Y19374924D01*
X19540387Y19100313D01*
X20256471Y19099688D01*
X20918286Y19373145D01*
X21425076Y19879051D01*
X21699687Y20540387D01*
X21700312Y21256471D01*
X21426855Y21918286D01*
X20920949Y22425076D01*
X20259613Y22699687D01*
X19543529Y22700312D01*
X18881714Y22426855D01*
X18374924Y21920949D01*
X18100313Y21259613D01*
X18099688Y20543529D01*
X12800107Y20543529D01*
X12693173Y20616594D01*
X12475000Y20660775D01*
X11725000Y20660775D01*
X11521182Y20622424D01*
X11333988Y20501968D01*
X11208406Y20318173D01*
X11164225Y20100000D01*
X11164225Y19953150D01*
X11129926Y19901818D01*
X11050000Y19500000D01*
X11050000Y18341951D01*
X10786740Y18079151D01*
X10550270Y17509667D01*
X10549732Y16893039D01*
X10785208Y16323143D01*
X10800089Y16308236D01*
X10726852Y16235000D01*
X8060369Y16235000D01*
X7759774Y16359818D01*
X7342058Y16360182D01*
X7039095Y16235000D01*
X3767261Y16235000D01*
X3853260Y16320849D01*
X4089730Y16890333D01*
X4090268Y17506961D01*
X3854792Y18076857D01*
X3532341Y18399872D01*
X3510074Y18511818D01*
X3282462Y18852462D01*
X1392462Y20742462D01*
X1051818Y20970074D01*
X707324Y21038598D01*
X593173Y21116594D01*
X375000Y21160775D01*
X-375000Y21160775D01*
X-578818Y21122424D01*
X-766012Y21001968D01*
X-891594Y20818173D01*
X-935775Y20600000D01*
X-935775Y20453150D01*
X-970074Y20401818D01*
X-1050000Y20000000D01*
X-970074Y19598182D01*
X-935775Y19546850D01*
X-935775Y19400000D01*
X-897424Y19196182D01*
X-776968Y19008988D01*
X-593173Y18883406D01*
X-375000Y18839225D01*
X325851Y18839225D01*
X1185424Y17979652D01*
X990270Y17509667D01*
X989732Y16893039D01*
X1225208Y16323143D01*
X1323180Y16225000D01*
X-1322757Y16225000D01*
X-1226740Y16320849D01*
X-990270Y16890333D01*
X-989732Y17506961D01*
X-1225208Y18076857D01*
X-1660849Y18513260D01*
X-2230333Y18749730D01*
X-2846961Y18750268D01*
X-3416857Y18514792D01*
X-3853260Y18079151D01*
X-4089730Y17509667D01*
X-4090268Y16893039D01*
X-3854792Y16323143D01*
X-3802716Y16270976D01*
X-4200000Y16350000D01*
X-4601818Y16270074D01*
X-4669276Y16225000D01*
X-8342757Y16225000D01*
X-8246740Y16320849D01*
X-8010270Y16890333D01*
X-8009732Y17506961D01*
X-8245208Y18076857D01*
X-8680849Y18513260D01*
X-9250333Y18749730D01*
X-9866961Y18750268D01*
X-10436857Y18514792D01*
X-10830304Y18122032D01*
X-11050000Y18342112D01*
X-11050000Y19500000D01*
X-11129926Y19901818D01*
X-11164225Y19953150D01*
X-11164225Y20100000D01*
X-11202576Y20303818D01*
X-11323032Y20491012D01*
X-11506827Y20616594D01*
X-11725000Y20660775D01*
X-12475000Y20660775D01*
X-12678818Y20622424D01*
X-12866012Y20501968D01*
X-12991594Y20318173D01*
X-13035775Y20100000D01*
X-13035775Y19953150D01*
X-13070074Y19901818D01*
X-13150000Y19500000D01*
X-13150000Y18341951D01*
X-13413260Y18079151D01*
X-13649730Y17509667D01*
X-13650268Y16893039D01*
X-13414792Y16323143D01*
X-13025000Y15932669D01*
X-13025000Y15850000D01*
X-12954589Y15496017D01*
X-12754074Y15195926D01*
X-12204076Y14645929D01*
X-12204074Y14645926D01*
X-11903982Y14445411D01*
X-11550000Y14375000D01*
X-9572734Y14375000D01*
X-9599818Y14309774D01*
X-9600182Y13892058D01*
X-9475000Y13589095D01*
X-9475000Y13244446D01*
X-9541012Y13201968D01*
X-9651257Y13040619D01*
X-9748032Y13191012D01*
X-9931827Y13316594D01*
X-10150000Y13360775D01*
X-10552801Y13360775D01*
X-10750000Y13400000D01*
X-13176459Y13400000D01*
X-13402511Y13551043D01*
X-13900000Y13650000D01*
X-14397489Y13551043D01*
X-14819239Y13269239D01*
X-15101043Y12847489D01*
X-15200000Y12350000D01*
X-15101043Y11852511D01*
X-14819239Y11430761D01*
X-12550000Y9161522D01*
X-12550000Y8308544D01*
X-12890226Y8449818D01*
X-13307942Y8450182D01*
X-13308382Y8450000D01*
X-20000000Y8450000D01*
X-20401818Y8370074D01*
X-20742462Y8142462D01*
X-23592462Y5292462D01*
X-23820074Y4951818D01*
X-23900000Y4550000D01*
X-24375000Y4550000D01*
X-24375000Y11740000D01*
X-22435264Y11740000D01*
X-22336307Y11242512D01*
X-22054503Y10820761D01*
X-21632752Y10538957D01*
X-21135264Y10440000D01*
X-20064736Y10440000D01*
X-19567248Y10538957D01*
X-19145497Y10820761D01*
X-18863693Y11242512D01*
X-18764736Y11740000D01*
X-18863693Y12237488D01*
X-19145497Y12659239D01*
X-19567248Y12941043D01*
X-20064736Y13040000D01*
X-21135264Y13040000D01*
X-21632752Y12941043D01*
X-22054503Y12659239D01*
X-22336307Y12237488D01*
X-22435264Y11740000D01*
X-24375000Y11740000D01*
X-24375000Y20633529D01*
X-21690312Y20633529D01*
X-21416855Y19971714D01*
X-20910949Y19464924D01*
X-20249613Y19190313D01*
X-19533529Y19189688D01*
X-18871714Y19463145D01*
X-18364924Y19969051D01*
X-18090313Y20630387D01*
X-18089688Y21346471D01*
X-18363145Y22008286D01*
X-18869051Y22515076D01*
X-19530387Y22789687D01*
X-20246471Y22790312D01*
X-20908286Y22516855D01*
X-21415076Y22010949D01*
X-21689687Y21349613D01*
X-21690312Y20633529D01*
X-24375000Y20633529D01*
X-24375000Y25375000D01*
X24375000Y25375000D01*
X24375000Y-25375000D01*
X24375000Y-25375000D01*
G37*
X24375000Y-25375000D02*
X-24375000Y-25375000D01*
X-24375000Y-19356471D01*
X-21700312Y-19356471D01*
X-21426855Y-20018286D01*
X-20920949Y-20525076D01*
X-20259613Y-20799687D01*
X-19543529Y-20800312D01*
X-18881714Y-20526855D01*
X-18374924Y-20020949D01*
X-18100313Y-19359613D01*
X-18099688Y-18643529D01*
X-18373145Y-17981714D01*
X-18879051Y-17474924D01*
X-19540387Y-17200313D01*
X-20256471Y-17199688D01*
X-20918286Y-17473145D01*
X-21425076Y-17979051D01*
X-21699687Y-18640387D01*
X-21700312Y-19356471D01*
X-24375000Y-19356471D01*
X-24375000Y4550000D01*
X-23900000Y4550000D01*
X-23900000Y-450000D01*
X-23820074Y-851818D01*
X-23592462Y-1192462D01*
X-22492462Y-2292462D01*
X-22151818Y-2520074D01*
X-21750000Y-2600000D01*
X-21741951Y-2600000D01*
X-21542032Y-2800269D01*
X-21913260Y-3170849D01*
X-22149730Y-3740333D01*
X-22150268Y-4356961D01*
X-21914792Y-4926857D01*
X-21479151Y-5363260D01*
X-20909667Y-5599730D01*
X-20293039Y-5600268D01*
X-19723143Y-5364792D01*
X-19457888Y-5100000D01*
X-19400000Y-5100000D01*
X-19400000Y-8162000D01*
X-19320074Y-8563818D01*
X-19092462Y-8904462D01*
X-19072775Y-8924149D01*
X-19072775Y-9250000D01*
X-19062000Y-9307264D01*
X-19062000Y-10396791D01*
X-19072775Y-10450000D01*
X-19072775Y-11950000D01*
X-19034424Y-12153818D01*
X-18913968Y-12341012D01*
X-18730173Y-12466594D01*
X-18512000Y-12510775D01*
X-17512000Y-12510775D01*
X-17324355Y-12475467D01*
X-17150000Y-12510775D01*
X-16174149Y-12510775D01*
X-15493110Y-13191814D01*
X-15345554Y-13339628D01*
X-14959774Y-13499818D01*
X-14542058Y-13500182D01*
X-14156000Y-13340666D01*
X-13860372Y-13045554D01*
X-13700182Y-12659774D01*
X-13699818Y-12242058D01*
X-13859334Y-11856000D01*
X-14154446Y-11560372D01*
X-14154887Y-11560189D01*
X-15257538Y-10457538D01*
X-15598182Y-10229926D01*
X-15643886Y-10220835D01*
X-15748032Y-10058988D01*
X-15931827Y-9933406D01*
X-16150000Y-9889225D01*
X-16962000Y-9889225D01*
X-16962000Y-9810775D01*
X-16150000Y-9810775D01*
X-15946182Y-9772424D01*
X-15758988Y-9651968D01*
X-15633406Y-9468173D01*
X-15589225Y-9250000D01*
X-15589225Y-9174149D01*
X-14942000Y-8526924D01*
X-10450000Y-13018924D01*
X-10450000Y-18696791D01*
X-10460775Y-18750000D01*
X-10460775Y-20250000D01*
X-10422424Y-20453818D01*
X-10301968Y-20641012D01*
X-10118173Y-20766594D01*
X-9900000Y-20810775D01*
X-9013000Y-20810775D01*
X-9013000Y-20839225D01*
X-9950000Y-20839225D01*
X-10153818Y-20877576D01*
X-10341012Y-20998032D01*
X-10410588Y-21099859D01*
X-10457942Y-21099818D01*
X-10844000Y-21259334D01*
X-11139628Y-21554446D01*
X-11299818Y-21940226D01*
X-11300182Y-22357942D01*
X-11140666Y-22744000D01*
X-10845554Y-23039628D01*
X-10459774Y-23199818D01*
X-10410622Y-23199861D01*
X-10351968Y-23291012D01*
X-10168173Y-23416594D01*
X-9950000Y-23460775D01*
X-8950000Y-23460775D01*
X-8762355Y-23425467D01*
X-8588000Y-23460775D01*
X-7588000Y-23460775D01*
X-7384182Y-23422424D01*
X-7196988Y-23301968D01*
X-7075371Y-23123975D01*
X-6895926Y-23004074D01*
X-6855929Y-22964076D01*
X-6855926Y-22964074D01*
X-6655411Y-22663982D01*
X-6622196Y-22497000D01*
X-6584999Y-22310000D01*
X-6585000Y-22309995D01*
X-6585000Y-20930000D01*
X-6043037Y-20930000D01*
X-5987511Y-20985623D01*
X-5399656Y-21229722D01*
X-4763137Y-21230277D01*
X-4174857Y-20987205D01*
X-3809758Y-20622743D01*
X-3447511Y-20985623D01*
X-2859656Y-21229722D01*
X-2223137Y-21230277D01*
X-1634857Y-20987205D01*
X-1269758Y-20622743D01*
X-907511Y-20985623D01*
X-319656Y-21229722D01*
X316863Y-21230277D01*
X905143Y-20987205D01*
X1270242Y-20622743D01*
X1632489Y-20985623D01*
X2220344Y-21229722D01*
X2856863Y-21230277D01*
X3445143Y-20987205D01*
X3810242Y-20622743D01*
X4172489Y-20985623D01*
X4760344Y-21229722D01*
X5396863Y-21230277D01*
X5985143Y-20987205D01*
X6114631Y-20857942D01*
X9249818Y-20857942D01*
X9250000Y-20858382D01*
X9250000Y-24299084D01*
X9249818Y-24507942D01*
X9409334Y-24894000D01*
X9704446Y-25189628D01*
X10090226Y-25349818D01*
X10507942Y-25350182D01*
X10894000Y-25190666D01*
X11189628Y-24895554D01*
X11349818Y-24509774D01*
X11350182Y-24092058D01*
X11350000Y-24091618D01*
X11350000Y-20650916D01*
X11350182Y-20442058D01*
X11190666Y-20056000D01*
X10895554Y-19760372D01*
X10509774Y-19600182D01*
X10092058Y-19599818D01*
X9706000Y-19759334D01*
X9410372Y-20054446D01*
X9250182Y-20440226D01*
X9249818Y-20857942D01*
X6114631Y-20857942D01*
X6435623Y-20537511D01*
X6679722Y-19949656D01*
X6680239Y-19356471D01*
X18099688Y-19356471D01*
X18373145Y-20018286D01*
X18879051Y-20525076D01*
X19540387Y-20799687D01*
X20256471Y-20800312D01*
X20918286Y-20526855D01*
X21425076Y-20020949D01*
X21699687Y-19359613D01*
X21700312Y-18643529D01*
X21426855Y-17981714D01*
X20920949Y-17474924D01*
X20259613Y-17200313D01*
X19543529Y-17199688D01*
X18881714Y-17473145D01*
X18374924Y-17979051D01*
X18100313Y-18640387D01*
X18099688Y-19356471D01*
X6680239Y-19356471D01*
X6680277Y-19313137D01*
X6437205Y-18724857D01*
X6005000Y-18291897D01*
X6005000Y-16563148D01*
X7095926Y-17654074D01*
X7396018Y-17854589D01*
X7750000Y-17925001D01*
X7750005Y-17925000D01*
X14050000Y-17925000D01*
X14403983Y-17854589D01*
X14704074Y-17654074D01*
X15554071Y-16804076D01*
X15554074Y-16804074D01*
X15754589Y-16503982D01*
X15767316Y-16440000D01*
X15825001Y-16150000D01*
X15825000Y-16149995D01*
X15825000Y-15660369D01*
X15949818Y-15359774D01*
X15950182Y-14942058D01*
X15790666Y-14556000D01*
X15495554Y-14260372D01*
X15109774Y-14100182D01*
X14692058Y-14099818D01*
X14306000Y-14259334D01*
X14010372Y-14554446D01*
X13850182Y-14940226D01*
X13849818Y-15357942D01*
X13975000Y-15660905D01*
X13975000Y-15766853D01*
X13666852Y-16075000D01*
X8133148Y-16075000D01*
X4004074Y-11945926D01*
X3703983Y-11745411D01*
X3350000Y-11675000D01*
X460369Y-11675000D01*
X159774Y-11550182D01*
X-257942Y-11549818D01*
X-625000Y-11701483D01*
X-625000Y-11183148D01*
X2883148Y-7675000D01*
X3900000Y-7675000D01*
X4253983Y-7604589D01*
X4554074Y-7404074D01*
X5000000Y-6958148D01*
X5000000Y-12349084D01*
X4999818Y-12557942D01*
X5159334Y-12944000D01*
X5454446Y-13239628D01*
X5840226Y-13399818D01*
X6257942Y-13400182D01*
X6644000Y-13240666D01*
X6939628Y-12945554D01*
X7099818Y-12559774D01*
X7100182Y-12142058D01*
X7100000Y-12141618D01*
X7100000Y-7384924D01*
X7560590Y-6924334D01*
X7450182Y-7190226D01*
X7449818Y-7607942D01*
X7609334Y-7994000D01*
X7904446Y-8289628D01*
X8183739Y-8405601D01*
X7969670Y-8619670D01*
X7807090Y-8862987D01*
X7750000Y-9150000D01*
X7750000Y-9915062D01*
X7610372Y-10054446D01*
X7450182Y-10440226D01*
X7449818Y-10857942D01*
X7609334Y-11244000D01*
X7904446Y-11539628D01*
X8290226Y-11699818D01*
X8707942Y-11700182D01*
X9094000Y-11540666D01*
X9389628Y-11245554D01*
X9549818Y-10859774D01*
X9550182Y-10442058D01*
X9390666Y-10056000D01*
X9250000Y-9915088D01*
X9250000Y-9460660D01*
X10850000Y-7860660D01*
X10850000Y-7889489D01*
X10745411Y-8046018D01*
X10675000Y-8400000D01*
X10675000Y-10350000D01*
X10745411Y-10703983D01*
X10945926Y-11004074D01*
X12595926Y-12654074D01*
X12896018Y-12854589D01*
X13250000Y-12925000D01*
X14266852Y-12925000D01*
X15595926Y-14254074D01*
X18145924Y-16804071D01*
X18145926Y-16804074D01*
X18295587Y-16904074D01*
X18446018Y-17004589D01*
X18800000Y-17075001D01*
X18800005Y-17075000D01*
X21450000Y-17075000D01*
X21803983Y-17004589D01*
X22104074Y-16804074D01*
X23344074Y-15564074D01*
X23388993Y-15496847D01*
X23662411Y-15442461D01*
X24035498Y-15193173D01*
X24284786Y-14820086D01*
X24372325Y-14380000D01*
X24284786Y-13939914D01*
X24035498Y-13566827D01*
X23662411Y-13317539D01*
X23222325Y-13230000D01*
X22157675Y-13230000D01*
X21717589Y-13317539D01*
X21344502Y-13566827D01*
X21095214Y-13939914D01*
X21007675Y-14380000D01*
X21095214Y-14820086D01*
X21246039Y-15045813D01*
X21066852Y-15225000D01*
X19183147Y-15225000D01*
X16904074Y-12945926D01*
X15304074Y-11345926D01*
X15003983Y-11145411D01*
X14650000Y-11075000D01*
X13633148Y-11075000D01*
X12525000Y-9966852D01*
X12525000Y-8400000D01*
X12454589Y-8046018D01*
X12378507Y-7932153D01*
X13876655Y-6434005D01*
X13907090Y-6587013D01*
X14069670Y-6830330D01*
X18369670Y-11130330D01*
X18612987Y-11292910D01*
X18625101Y-11295320D01*
X18555214Y-11399914D01*
X18467675Y-11840000D01*
X18555214Y-12280086D01*
X18804502Y-12653173D01*
X19177589Y-12902461D01*
X19617675Y-12990000D01*
X20682325Y-12990000D01*
X21122411Y-12902461D01*
X21420000Y-12703619D01*
X21717589Y-12902461D01*
X22157675Y-12990000D01*
X23222325Y-12990000D01*
X23662411Y-12902461D01*
X24035498Y-12653173D01*
X24284786Y-12280086D01*
X24372325Y-11840000D01*
X24284786Y-11399914D01*
X24035498Y-11026827D01*
X23662411Y-10777539D01*
X23222325Y-10690000D01*
X23200660Y-10690000D01*
X22960660Y-10450000D01*
X23222325Y-10450000D01*
X23662411Y-10362461D01*
X24035498Y-10113173D01*
X24284786Y-9740086D01*
X24372325Y-9300000D01*
X24284786Y-8859914D01*
X24035498Y-8486827D01*
X23662411Y-8237539D01*
X23366693Y-8178717D01*
X23220330Y-7959670D01*
X22780330Y-7519670D01*
X22537013Y-7357090D01*
X22250000Y-7300000D01*
X21678026Y-7300000D01*
X21744786Y-7200086D01*
X21832325Y-6760000D01*
X21744786Y-6319914D01*
X21495498Y-5946827D01*
X21122411Y-5697539D01*
X20682325Y-5610000D01*
X19617675Y-5610000D01*
X19177589Y-5697539D01*
X18900000Y-5883017D01*
X18900000Y-5096983D01*
X19177589Y-5282461D01*
X19617675Y-5370000D01*
X20682325Y-5370000D01*
X21122411Y-5282461D01*
X21420000Y-5083619D01*
X21717589Y-5282461D01*
X22157675Y-5370000D01*
X23222325Y-5370000D01*
X23662411Y-5282461D01*
X24035498Y-5033173D01*
X24284786Y-4660086D01*
X24372325Y-4220000D01*
X24284786Y-3779914D01*
X24035498Y-3406827D01*
X23662411Y-3157539D01*
X23382105Y-3101782D01*
X23220330Y-2859670D01*
X23190660Y-2830000D01*
X23222325Y-2830000D01*
X23662411Y-2742461D01*
X24035498Y-2493173D01*
X24284786Y-2120086D01*
X24372325Y-1680000D01*
X24284786Y-1239914D01*
X24035498Y-866827D01*
X23662411Y-617539D01*
X23351281Y-555651D01*
X23220330Y-359670D01*
X22780330Y80330D01*
X22537013Y242910D01*
X22250000Y300000D01*
X21664662Y300000D01*
X21744786Y419914D01*
X21832325Y860000D01*
X21744786Y1300086D01*
X21495498Y1673173D01*
X21122411Y1922461D01*
X20682325Y2010000D01*
X19617675Y2010000D01*
X19177589Y1922461D01*
X19000000Y1803800D01*
X19000000Y2250000D01*
X18952698Y2487806D01*
X19177589Y2337539D01*
X19617675Y2250000D01*
X20682325Y2250000D01*
X21122411Y2337539D01*
X21420000Y2536381D01*
X21717589Y2337539D01*
X22157675Y2250000D01*
X23222325Y2250000D01*
X23662411Y2337539D01*
X24035498Y2586827D01*
X24284786Y2959914D01*
X24372325Y3400000D01*
X24284786Y3840086D01*
X24035498Y4213173D01*
X23662411Y4462461D01*
X23222325Y4550000D01*
X23110660Y4550000D01*
X22870660Y4790000D01*
X23222325Y4790000D01*
X23662411Y4877539D01*
X24035498Y5126827D01*
X24284786Y5499914D01*
X24372325Y5940000D01*
X24284786Y6380086D01*
X24035498Y6753173D01*
X23662411Y7002461D01*
X23222325Y7090000D01*
X22157675Y7090000D01*
X21717589Y7002461D01*
X21344502Y6753173D01*
X21095214Y6380086D01*
X21007675Y5940000D01*
X21095214Y5499914D01*
X21161974Y5400000D01*
X18810660Y5400000D01*
X16750000Y7460660D01*
X16750000Y7479171D01*
X16940226Y7400182D01*
X17357942Y7399818D01*
X17744000Y7559334D01*
X18039628Y7854446D01*
X18199818Y8240226D01*
X18200026Y8480000D01*
X18467675Y8480000D01*
X18555214Y8039914D01*
X18804502Y7666827D01*
X19177589Y7417539D01*
X19617675Y7330000D01*
X20682325Y7330000D01*
X21122411Y7417539D01*
X21420000Y7616381D01*
X21717589Y7417539D01*
X22157675Y7330000D01*
X23222325Y7330000D01*
X23662411Y7417539D01*
X24035498Y7666827D01*
X24284786Y8039914D01*
X24372325Y8480000D01*
X24284786Y8920086D01*
X24035498Y9293173D01*
X23662411Y9542461D01*
X23222325Y9630000D01*
X22157675Y9630000D01*
X21717589Y9542461D01*
X21420000Y9343619D01*
X21122411Y9542461D01*
X20682325Y9630000D01*
X19617675Y9630000D01*
X19177589Y9542461D01*
X18804502Y9293173D01*
X18555214Y8920086D01*
X18467675Y8480000D01*
X18200026Y8480000D01*
X18200182Y8657942D01*
X18040666Y9044000D01*
X17900000Y9184912D01*
X17900000Y10950000D01*
X17886077Y11020000D01*
X18467675Y11020000D01*
X18555214Y10579914D01*
X18804502Y10206827D01*
X19177589Y9957539D01*
X19617675Y9870000D01*
X20682325Y9870000D01*
X21122411Y9957539D01*
X21495498Y10206827D01*
X21744786Y10579914D01*
X21832325Y11020000D01*
X21744786Y11460086D01*
X21495498Y11833173D01*
X21122411Y12082461D01*
X20682325Y12170000D01*
X19617675Y12170000D01*
X19177589Y12082461D01*
X18804502Y11833173D01*
X18555214Y11460086D01*
X18467675Y11020000D01*
X17886077Y11020000D01*
X17842910Y11237013D01*
X17680330Y11480330D01*
X16080330Y13080330D01*
X15837013Y13242910D01*
X15550000Y13300000D01*
X12408148Y13300000D01*
X12668148Y13560000D01*
X18467675Y13560000D01*
X18555214Y13119914D01*
X18804502Y12746827D01*
X19177589Y12497539D01*
X19617675Y12410000D01*
X20682325Y12410000D01*
X21122411Y12497539D01*
X21420000Y12696381D01*
X21717589Y12497539D01*
X22157675Y12410000D01*
X23222325Y12410000D01*
X23662411Y12497539D01*
X24035498Y12746827D01*
X24284786Y13119914D01*
X24372325Y13560000D01*
X24284786Y14000086D01*
X24035498Y14373173D01*
X23740000Y14570618D01*
X23740000Y15089382D01*
X24035498Y15286827D01*
X24284786Y15659914D01*
X24372325Y16100000D01*
X24284786Y16540086D01*
X24035498Y16913173D01*
X23662411Y17162461D01*
X23222325Y17250000D01*
X22157675Y17250000D01*
X21717589Y17162461D01*
X21631544Y17104967D01*
X21468173Y17216594D01*
X21250000Y17260775D01*
X19050000Y17260775D01*
X18846182Y17222424D01*
X18658988Y17101968D01*
X18533406Y16918173D01*
X18489225Y16700000D01*
X18489225Y15500000D01*
X18527576Y15296182D01*
X18648032Y15108988D01*
X18831827Y14983406D01*
X19050000Y14939225D01*
X21250000Y14939225D01*
X21453818Y14977576D01*
X21633902Y15093457D01*
X21640000Y15089382D01*
X21640000Y14570618D01*
X21420000Y14423619D01*
X21122411Y14622461D01*
X20682325Y14710000D01*
X19617675Y14710000D01*
X19177589Y14622461D01*
X18804502Y14373173D01*
X18555214Y14000086D01*
X18467675Y13560000D01*
X12668148Y13560000D01*
X14758045Y15649897D01*
X14946961Y15649732D01*
X15516857Y15885208D01*
X15953260Y16320849D01*
X16189730Y16890333D01*
X16190268Y17506961D01*
X15954792Y18076857D01*
X15519151Y18513260D01*
X14949667Y18749730D01*
X14333039Y18750268D01*
X13763143Y18514792D01*
X13369696Y18122032D01*
X13150000Y18342112D01*
X13150000Y19500000D01*
X13070074Y19901818D01*
X13035775Y19953150D01*
X13035775Y20100000D01*
X12997424Y20303818D01*
X12876968Y20491012D01*
X12800107Y20543529D01*
X18099688Y20543529D01*
X18373145Y19881714D01*
X18879051Y19374924D01*
X19540387Y19100313D01*
X20256471Y19099688D01*
X20918286Y19373145D01*
X21425076Y19879051D01*
X21699687Y20540387D01*
X21700312Y21256471D01*
X21426855Y21918286D01*
X20920949Y22425076D01*
X20259613Y22699687D01*
X19543529Y22700312D01*
X18881714Y22426855D01*
X18374924Y21920949D01*
X18100313Y21259613D01*
X18099688Y20543529D01*
X12800107Y20543529D01*
X12693173Y20616594D01*
X12475000Y20660775D01*
X11725000Y20660775D01*
X11521182Y20622424D01*
X11333988Y20501968D01*
X11208406Y20318173D01*
X11164225Y20100000D01*
X11164225Y19953150D01*
X11129926Y19901818D01*
X11050000Y19500000D01*
X11050000Y18341951D01*
X10786740Y18079151D01*
X10550270Y17509667D01*
X10549732Y16893039D01*
X10785208Y16323143D01*
X10800089Y16308236D01*
X10726852Y16235000D01*
X8060369Y16235000D01*
X7759774Y16359818D01*
X7342058Y16360182D01*
X7039095Y16235000D01*
X3767261Y16235000D01*
X3853260Y16320849D01*
X4089730Y16890333D01*
X4090268Y17506961D01*
X3854792Y18076857D01*
X3532341Y18399872D01*
X3510074Y18511818D01*
X3282462Y18852462D01*
X1392462Y20742462D01*
X1051818Y20970074D01*
X707324Y21038598D01*
X593173Y21116594D01*
X375000Y21160775D01*
X-375000Y21160775D01*
X-578818Y21122424D01*
X-766012Y21001968D01*
X-891594Y20818173D01*
X-935775Y20600000D01*
X-935775Y20453150D01*
X-970074Y20401818D01*
X-1050000Y20000000D01*
X-970074Y19598182D01*
X-935775Y19546850D01*
X-935775Y19400000D01*
X-897424Y19196182D01*
X-776968Y19008988D01*
X-593173Y18883406D01*
X-375000Y18839225D01*
X325851Y18839225D01*
X1185424Y17979652D01*
X990270Y17509667D01*
X989732Y16893039D01*
X1225208Y16323143D01*
X1323180Y16225000D01*
X-1322757Y16225000D01*
X-1226740Y16320849D01*
X-990270Y16890333D01*
X-989732Y17506961D01*
X-1225208Y18076857D01*
X-1660849Y18513260D01*
X-2230333Y18749730D01*
X-2846961Y18750268D01*
X-3416857Y18514792D01*
X-3853260Y18079151D01*
X-4089730Y17509667D01*
X-4090268Y16893039D01*
X-3854792Y16323143D01*
X-3802716Y16270976D01*
X-4200000Y16350000D01*
X-4601818Y16270074D01*
X-4669276Y16225000D01*
X-8342757Y16225000D01*
X-8246740Y16320849D01*
X-8010270Y16890333D01*
X-8009732Y17506961D01*
X-8245208Y18076857D01*
X-8680849Y18513260D01*
X-9250333Y18749730D01*
X-9866961Y18750268D01*
X-10436857Y18514792D01*
X-10830304Y18122032D01*
X-11050000Y18342112D01*
X-11050000Y19500000D01*
X-11129926Y19901818D01*
X-11164225Y19953150D01*
X-11164225Y20100000D01*
X-11202576Y20303818D01*
X-11323032Y20491012D01*
X-11506827Y20616594D01*
X-11725000Y20660775D01*
X-12475000Y20660775D01*
X-12678818Y20622424D01*
X-12866012Y20501968D01*
X-12991594Y20318173D01*
X-13035775Y20100000D01*
X-13035775Y19953150D01*
X-13070074Y19901818D01*
X-13150000Y19500000D01*
X-13150000Y18341951D01*
X-13413260Y18079151D01*
X-13649730Y17509667D01*
X-13650268Y16893039D01*
X-13414792Y16323143D01*
X-13025000Y15932669D01*
X-13025000Y15850000D01*
X-12954589Y15496017D01*
X-12754074Y15195926D01*
X-12204076Y14645929D01*
X-12204074Y14645926D01*
X-11903982Y14445411D01*
X-11550000Y14375000D01*
X-9572734Y14375000D01*
X-9599818Y14309774D01*
X-9600182Y13892058D01*
X-9475000Y13589095D01*
X-9475000Y13244446D01*
X-9541012Y13201968D01*
X-9651257Y13040619D01*
X-9748032Y13191012D01*
X-9931827Y13316594D01*
X-10150000Y13360775D01*
X-10552801Y13360775D01*
X-10750000Y13400000D01*
X-13176459Y13400000D01*
X-13402511Y13551043D01*
X-13900000Y13650000D01*
X-14397489Y13551043D01*
X-14819239Y13269239D01*
X-15101043Y12847489D01*
X-15200000Y12350000D01*
X-15101043Y11852511D01*
X-14819239Y11430761D01*
X-12550000Y9161522D01*
X-12550000Y8308544D01*
X-12890226Y8449818D01*
X-13307942Y8450182D01*
X-13308382Y8450000D01*
X-20000000Y8450000D01*
X-20401818Y8370074D01*
X-20742462Y8142462D01*
X-23592462Y5292462D01*
X-23820074Y4951818D01*
X-23900000Y4550000D01*
X-24375000Y4550000D01*
X-24375000Y11740000D01*
X-22435264Y11740000D01*
X-22336307Y11242512D01*
X-22054503Y10820761D01*
X-21632752Y10538957D01*
X-21135264Y10440000D01*
X-20064736Y10440000D01*
X-19567248Y10538957D01*
X-19145497Y10820761D01*
X-18863693Y11242512D01*
X-18764736Y11740000D01*
X-18863693Y12237488D01*
X-19145497Y12659239D01*
X-19567248Y12941043D01*
X-20064736Y13040000D01*
X-21135264Y13040000D01*
X-21632752Y12941043D01*
X-22054503Y12659239D01*
X-22336307Y12237488D01*
X-22435264Y11740000D01*
X-24375000Y11740000D01*
X-24375000Y20633529D01*
X-21690312Y20633529D01*
X-21416855Y19971714D01*
X-20910949Y19464924D01*
X-20249613Y19190313D01*
X-19533529Y19189688D01*
X-18871714Y19463145D01*
X-18364924Y19969051D01*
X-18090313Y20630387D01*
X-18089688Y21346471D01*
X-18363145Y22008286D01*
X-18869051Y22515076D01*
X-19530387Y22789687D01*
X-20246471Y22790312D01*
X-20908286Y22516855D01*
X-21415076Y22010949D01*
X-21689687Y21349613D01*
X-21690312Y20633529D01*
X-24375000Y20633529D01*
X-24375000Y25375000D01*
X24375000Y25375000D01*
X24375000Y-25375000D01*
G36*
X-12550000Y138478D02*
X-13295219Y-606741D01*
X-13577023Y-1028491D01*
X-13640768Y-1348957D01*
X-13675980Y-1525980D01*
X-13675980Y-2429244D01*
X-13700000Y-2550000D01*
X-13601043Y-3047488D01*
X-13319239Y-3469239D01*
X-12897488Y-3751043D01*
X-12400000Y-3850000D01*
X-12375980Y-3850000D01*
X-11878492Y-3751043D01*
X-11456741Y-3469239D01*
X-11174937Y-3047488D01*
X-11075980Y-2550000D01*
X-11075980Y-2064458D01*
X-10330761Y-1319239D01*
X-10048957Y-897489D01*
X-9950000Y-400000D01*
X-9950000Y4215088D01*
X-9795554Y4060372D01*
X-9409774Y3900182D01*
X-8992058Y3899818D01*
X-8991618Y3900000D01*
X-3470829Y3900000D01*
X-3534419Y3746860D01*
X-3701043Y3497488D01*
X-3800000Y3000000D01*
X-3800000Y1988478D01*
X-6669239Y-880761D01*
X-6951043Y-1302511D01*
X-7026130Y-1680000D01*
X-7050000Y-1800000D01*
X-7050000Y-5800000D01*
X-6951043Y-6297488D01*
X-6669239Y-6719239D01*
X-6247488Y-7001043D01*
X-5756796Y-7098648D01*
X-7104074Y-8445926D01*
X-7304589Y-8746017D01*
X-7335579Y-8901818D01*
X-7375000Y-9100000D01*
X-7375000Y-14850000D01*
X-7304589Y-15203983D01*
X-7104074Y-15504074D01*
X-4448296Y-18159852D01*
X-4760344Y-18030278D01*
X-5396863Y-18029723D01*
X-5985143Y-18272795D01*
X-6042448Y-18330000D01*
X-7178457Y-18330000D01*
X-7319827Y-18233406D01*
X-7538000Y-18189225D01*
X-8350000Y-18189225D01*
X-8350000Y-12584000D01*
X-8429926Y-12182182D01*
X-8657538Y-11841538D01*
X-13829955Y-6669121D01*
X-13959334Y-6356000D01*
X-14254446Y-6060372D01*
X-14640226Y-5900182D01*
X-15057942Y-5899818D01*
X-15410623Y-6045543D01*
X-15260372Y-5895554D01*
X-15100182Y-5509774D01*
X-15099818Y-5092058D01*
X-15174292Y-4911816D01*
X-15158988Y-4901968D01*
X-15033406Y-4718173D01*
X-14989225Y-4500000D01*
X-14989225Y-3600000D01*
X-15027576Y-3396182D01*
X-15148032Y-3208988D01*
X-15331827Y-3083406D01*
X-15550000Y-3039225D01*
X-16750000Y-3039225D01*
X-16953818Y-3077576D01*
X-17141012Y-3198032D01*
X-17251257Y-3359381D01*
X-17348032Y-3208988D01*
X-17531827Y-3083406D01*
X-17750000Y-3039225D01*
X-18152801Y-3039225D01*
X-18350000Y-3000000D01*
X-19458049Y-3000000D01*
X-19657968Y-2799731D01*
X-19286740Y-2429151D01*
X-19050270Y-1859667D01*
X-19049732Y-1243039D01*
X-19285208Y-673143D01*
X-19657968Y-299731D01*
X-19457888Y-100000D01*
X-18200000Y-100000D01*
X-17798182Y-20074D01*
X-17784340Y-10825D01*
X-17575000Y-10825D01*
X-17371182Y27526D01*
X-17183988Y147982D01*
X-17058406Y331777D01*
X-17014225Y549950D01*
X-17014225Y1350050D01*
X-17052576Y1553868D01*
X-17173032Y1741062D01*
X-17356827Y1866644D01*
X-17575000Y1910825D01*
X-17784340Y1910825D01*
X-17798182Y1920074D01*
X-18200000Y2000000D01*
X-19458049Y2000000D01*
X-19720849Y2263260D01*
X-20290333Y2499730D01*
X-20906961Y2500268D01*
X-21476857Y2264792D01*
X-21800000Y1942213D01*
X-21800000Y3792058D01*
X-18500182Y3792058D01*
X-18340666Y3406000D01*
X-18045554Y3110372D01*
X-17659774Y2950182D01*
X-17242058Y2949818D01*
X-16939095Y3075000D01*
X-16750000Y3075000D01*
X-16750000Y2652275D01*
X-16841594Y2518223D01*
X-16885775Y2300050D01*
X-16885775Y1499950D01*
X-16847424Y1296132D01*
X-16726968Y1108938D01*
X-16543173Y983356D01*
X-16325000Y939175D01*
X-16115660Y939175D01*
X-16101818Y929926D01*
X-15700000Y850000D01*
X-15298182Y929926D01*
X-15284340Y939175D01*
X-15075000Y939175D01*
X-14871182Y977526D01*
X-14683988Y1097982D01*
X-14558406Y1281777D01*
X-14514225Y1499950D01*
X-14514225Y2300050D01*
X-14552576Y2503868D01*
X-14650000Y2655269D01*
X-14650000Y3234364D01*
X-14583406Y3331827D01*
X-14539225Y3550000D01*
X-14539225Y4450000D01*
X-14577576Y4653818D01*
X-14698032Y4841012D01*
X-14881827Y4966594D01*
X-15100000Y5010775D01*
X-15502801Y5010775D01*
X-15700000Y5050000D01*
X-15897199Y5010775D01*
X-16300000Y5010775D01*
X-16503818Y4972424D01*
X-16577517Y4925000D01*
X-16939631Y4925000D01*
X-17240226Y5049818D01*
X-17657942Y5050182D01*
X-18044000Y4890666D01*
X-18339628Y4595554D01*
X-18499818Y4209774D01*
X-18500182Y3792058D01*
X-21800000Y3792058D01*
X-21800000Y4115076D01*
X-19565076Y6350000D01*
X-13100916Y6350000D01*
X-12892058Y6349818D01*
X-12550000Y6491154D01*
X-12550000Y138478D01*
X-12550000Y138478D01*
G37*
X-12550000Y138478D02*
X-13295219Y-606741D01*
X-13577023Y-1028491D01*
X-13640768Y-1348957D01*
X-13675980Y-1525980D01*
X-13675980Y-2429244D01*
X-13700000Y-2550000D01*
X-13601043Y-3047488D01*
X-13319239Y-3469239D01*
X-12897488Y-3751043D01*
X-12400000Y-3850000D01*
X-12375980Y-3850000D01*
X-11878492Y-3751043D01*
X-11456741Y-3469239D01*
X-11174937Y-3047488D01*
X-11075980Y-2550000D01*
X-11075980Y-2064458D01*
X-10330761Y-1319239D01*
X-10048957Y-897489D01*
X-9950000Y-400000D01*
X-9950000Y4215088D01*
X-9795554Y4060372D01*
X-9409774Y3900182D01*
X-8992058Y3899818D01*
X-8991618Y3900000D01*
X-3470829Y3900000D01*
X-3534419Y3746860D01*
X-3701043Y3497488D01*
X-3800000Y3000000D01*
X-3800000Y1988478D01*
X-6669239Y-880761D01*
X-6951043Y-1302511D01*
X-7026130Y-1680000D01*
X-7050000Y-1800000D01*
X-7050000Y-5800000D01*
X-6951043Y-6297488D01*
X-6669239Y-6719239D01*
X-6247488Y-7001043D01*
X-5756796Y-7098648D01*
X-7104074Y-8445926D01*
X-7304589Y-8746017D01*
X-7335579Y-8901818D01*
X-7375000Y-9100000D01*
X-7375000Y-14850000D01*
X-7304589Y-15203983D01*
X-7104074Y-15504074D01*
X-4448296Y-18159852D01*
X-4760344Y-18030278D01*
X-5396863Y-18029723D01*
X-5985143Y-18272795D01*
X-6042448Y-18330000D01*
X-7178457Y-18330000D01*
X-7319827Y-18233406D01*
X-7538000Y-18189225D01*
X-8350000Y-18189225D01*
X-8350000Y-12584000D01*
X-8429926Y-12182182D01*
X-8657538Y-11841538D01*
X-13829955Y-6669121D01*
X-13959334Y-6356000D01*
X-14254446Y-6060372D01*
X-14640226Y-5900182D01*
X-15057942Y-5899818D01*
X-15410623Y-6045543D01*
X-15260372Y-5895554D01*
X-15100182Y-5509774D01*
X-15099818Y-5092058D01*
X-15174292Y-4911816D01*
X-15158988Y-4901968D01*
X-15033406Y-4718173D01*
X-14989225Y-4500000D01*
X-14989225Y-3600000D01*
X-15027576Y-3396182D01*
X-15148032Y-3208988D01*
X-15331827Y-3083406D01*
X-15550000Y-3039225D01*
X-16750000Y-3039225D01*
X-16953818Y-3077576D01*
X-17141012Y-3198032D01*
X-17251257Y-3359381D01*
X-17348032Y-3208988D01*
X-17531827Y-3083406D01*
X-17750000Y-3039225D01*
X-18152801Y-3039225D01*
X-18350000Y-3000000D01*
X-19458049Y-3000000D01*
X-19657968Y-2799731D01*
X-19286740Y-2429151D01*
X-19050270Y-1859667D01*
X-19049732Y-1243039D01*
X-19285208Y-673143D01*
X-19657968Y-299731D01*
X-19457888Y-100000D01*
X-18200000Y-100000D01*
X-17798182Y-20074D01*
X-17784340Y-10825D01*
X-17575000Y-10825D01*
X-17371182Y27526D01*
X-17183988Y147982D01*
X-17058406Y331777D01*
X-17014225Y549950D01*
X-17014225Y1350050D01*
X-17052576Y1553868D01*
X-17173032Y1741062D01*
X-17356827Y1866644D01*
X-17575000Y1910825D01*
X-17784340Y1910825D01*
X-17798182Y1920074D01*
X-18200000Y2000000D01*
X-19458049Y2000000D01*
X-19720849Y2263260D01*
X-20290333Y2499730D01*
X-20906961Y2500268D01*
X-21476857Y2264792D01*
X-21800000Y1942213D01*
X-21800000Y3792058D01*
X-18500182Y3792058D01*
X-18340666Y3406000D01*
X-18045554Y3110372D01*
X-17659774Y2950182D01*
X-17242058Y2949818D01*
X-16939095Y3075000D01*
X-16750000Y3075000D01*
X-16750000Y2652275D01*
X-16841594Y2518223D01*
X-16885775Y2300050D01*
X-16885775Y1499950D01*
X-16847424Y1296132D01*
X-16726968Y1108938D01*
X-16543173Y983356D01*
X-16325000Y939175D01*
X-16115660Y939175D01*
X-16101818Y929926D01*
X-15700000Y850000D01*
X-15298182Y929926D01*
X-15284340Y939175D01*
X-15075000Y939175D01*
X-14871182Y977526D01*
X-14683988Y1097982D01*
X-14558406Y1281777D01*
X-14514225Y1499950D01*
X-14514225Y2300050D01*
X-14552576Y2503868D01*
X-14650000Y2655269D01*
X-14650000Y3234364D01*
X-14583406Y3331827D01*
X-14539225Y3550000D01*
X-14539225Y4450000D01*
X-14577576Y4653818D01*
X-14698032Y4841012D01*
X-14881827Y4966594D01*
X-15100000Y5010775D01*
X-15502801Y5010775D01*
X-15700000Y5050000D01*
X-15897199Y5010775D01*
X-16300000Y5010775D01*
X-16503818Y4972424D01*
X-16577517Y4925000D01*
X-16939631Y4925000D01*
X-17240226Y5049818D01*
X-17657942Y5050182D01*
X-18044000Y4890666D01*
X-18339628Y4595554D01*
X-18499818Y4209774D01*
X-18500182Y3792058D01*
X-21800000Y3792058D01*
X-21800000Y4115076D01*
X-19565076Y6350000D01*
X-13100916Y6350000D01*
X-12892058Y6349818D01*
X-12550000Y6491154D01*
X-12550000Y138478D01*
G36*
X-3145554Y13060372D02*
X-2759774Y12900182D01*
X-2342058Y12899818D01*
X-2039095Y13025000D01*
X2716852Y13025000D01*
X3135042Y12606810D01*
X3259334Y12306000D01*
X3554446Y12010372D01*
X3940226Y11850182D01*
X4357942Y11849818D01*
X4744000Y12009334D01*
X5039628Y12304446D01*
X5199818Y12690226D01*
X5199957Y12850086D01*
X5507942Y12849818D01*
X5810905Y12975000D01*
X7314340Y12975000D01*
X4819670Y10480330D01*
X4657090Y10237013D01*
X4600000Y9950000D01*
X4600000Y9134938D01*
X4460372Y8995554D01*
X4300182Y8609774D01*
X4299818Y8192058D01*
X4459334Y7806000D01*
X4754446Y7510372D01*
X5140226Y7350182D01*
X5557942Y7349818D01*
X5749894Y7429131D01*
X5749818Y7342058D01*
X5909334Y6956000D01*
X6204446Y6660372D01*
X6485089Y6543839D01*
X6450182Y6459774D01*
X6449818Y6042058D01*
X6609334Y5656000D01*
X6904446Y5360372D01*
X7290226Y5200182D01*
X7707942Y5199818D01*
X8094000Y5359334D01*
X8389628Y5654446D01*
X8549818Y6040226D01*
X8549992Y6239332D01*
X8880330Y6569670D01*
X9042911Y6812988D01*
X9100000Y7100000D01*
X9100000Y8339340D01*
X10110660Y9350000D01*
X11039340Y9350000D01*
X10169670Y8480330D01*
X10007090Y8237013D01*
X9950000Y7950000D01*
X9950000Y5200000D01*
X10007090Y4912987D01*
X10169670Y4669670D01*
X10819670Y4019670D01*
X11062987Y3857090D01*
X11350000Y3800000D01*
X12539340Y3800000D01*
X15000000Y1339340D01*
X15000000Y-2500173D01*
X14592058Y-2499818D01*
X14450000Y-2558515D01*
X14450000Y-2450000D01*
X14392910Y-2162987D01*
X14230330Y-1919670D01*
X12730330Y-419670D01*
X12487013Y-257090D01*
X12200000Y-200000D01*
X11610660Y-200000D01*
X7880330Y3530330D01*
X7637013Y3692910D01*
X7350000Y3750000D01*
X6684938Y3750000D01*
X6545554Y3889628D01*
X6159774Y4049818D01*
X5742058Y4050182D01*
X5356000Y3890666D01*
X5060372Y3595554D01*
X4900182Y3209774D01*
X4899999Y2999914D01*
X4592058Y3000182D01*
X4206000Y2840666D01*
X3910372Y2545554D01*
X3750182Y2159774D01*
X3749818Y1742058D01*
X3753111Y1734089D01*
X3406000Y1590666D01*
X3110372Y1295554D01*
X2950182Y909774D01*
X2949818Y492058D01*
X3109334Y106000D01*
X3404446Y-189628D01*
X3790226Y-349818D01*
X4207942Y-350182D01*
X4594000Y-190666D01*
X4734912Y-50000D01*
X5150000Y-50000D01*
X5437013Y7090D01*
X5680330Y169670D01*
X5860660Y350000D01*
X6539340Y350000D01*
X9639340Y-2750000D01*
X9210660Y-2750000D01*
X7880330Y-1419670D01*
X7637013Y-1257090D01*
X7350000Y-1200000D01*
X6550000Y-1200000D01*
X6262987Y-1257090D01*
X6019670Y-1419670D01*
X4037736Y-3401604D01*
X3656000Y-3559334D01*
X3649857Y-3565467D01*
X3650182Y-3192058D01*
X3490666Y-2806000D01*
X3385012Y-2700162D01*
X3389628Y-2695554D01*
X3549818Y-2309774D01*
X3550182Y-1892058D01*
X3390666Y-1506000D01*
X3095554Y-1210372D01*
X2709774Y-1050182D01*
X2292058Y-1049818D01*
X1906000Y-1209334D01*
X1890307Y-1225000D01*
X500000Y-1225000D01*
X146017Y-1295411D01*
X-154074Y-1495926D01*
X-4450000Y-5791852D01*
X-4450000Y-2338478D01*
X-1580761Y530761D01*
X-1298957Y952511D01*
X-1200000Y1450000D01*
X-1200000Y3000000D01*
X-1298957Y3497488D01*
X-1466413Y3748104D01*
X-1609334Y4094000D01*
X-1840003Y4325073D01*
X-8186Y6156890D01*
X139628Y6304446D01*
X299818Y6690226D01*
X300182Y7107942D01*
X140666Y7494000D01*
X-154446Y7789628D01*
X-540226Y7949818D01*
X-957942Y7950182D01*
X-1344000Y7790666D01*
X-1639628Y7495554D01*
X-1639811Y7495113D01*
X-1649838Y7485086D01*
X-1649818Y7507942D01*
X-1809334Y7894000D01*
X-1940075Y8024969D01*
X-1810372Y8154446D01*
X-1650182Y8540226D01*
X-1649818Y8957942D01*
X-1809334Y9344000D01*
X-2104446Y9639628D01*
X-2490226Y9799818D01*
X-2865221Y9800145D01*
X-3150000Y10084924D01*
X-3150000Y13064826D01*
X-3145554Y13060372D01*
X-3145554Y13060372D01*
G37*
X-3145554Y13060372D02*
X-2759774Y12900182D01*
X-2342058Y12899818D01*
X-2039095Y13025000D01*
X2716852Y13025000D01*
X3135042Y12606810D01*
X3259334Y12306000D01*
X3554446Y12010372D01*
X3940226Y11850182D01*
X4357942Y11849818D01*
X4744000Y12009334D01*
X5039628Y12304446D01*
X5199818Y12690226D01*
X5199957Y12850086D01*
X5507942Y12849818D01*
X5810905Y12975000D01*
X7314340Y12975000D01*
X4819670Y10480330D01*
X4657090Y10237013D01*
X4600000Y9950000D01*
X4600000Y9134938D01*
X4460372Y8995554D01*
X4300182Y8609774D01*
X4299818Y8192058D01*
X4459334Y7806000D01*
X4754446Y7510372D01*
X5140226Y7350182D01*
X5557942Y7349818D01*
X5749894Y7429131D01*
X5749818Y7342058D01*
X5909334Y6956000D01*
X6204446Y6660372D01*
X6485089Y6543839D01*
X6450182Y6459774D01*
X6449818Y6042058D01*
X6609334Y5656000D01*
X6904446Y5360372D01*
X7290226Y5200182D01*
X7707942Y5199818D01*
X8094000Y5359334D01*
X8389628Y5654446D01*
X8549818Y6040226D01*
X8549992Y6239332D01*
X8880330Y6569670D01*
X9042911Y6812988D01*
X9100000Y7100000D01*
X9100000Y8339340D01*
X10110660Y9350000D01*
X11039340Y9350000D01*
X10169670Y8480330D01*
X10007090Y8237013D01*
X9950000Y7950000D01*
X9950000Y5200000D01*
X10007090Y4912987D01*
X10169670Y4669670D01*
X10819670Y4019670D01*
X11062987Y3857090D01*
X11350000Y3800000D01*
X12539340Y3800000D01*
X15000000Y1339340D01*
X15000000Y-2500173D01*
X14592058Y-2499818D01*
X14450000Y-2558515D01*
X14450000Y-2450000D01*
X14392910Y-2162987D01*
X14230330Y-1919670D01*
X12730330Y-419670D01*
X12487013Y-257090D01*
X12200000Y-200000D01*
X11610660Y-200000D01*
X7880330Y3530330D01*
X7637013Y3692910D01*
X7350000Y3750000D01*
X6684938Y3750000D01*
X6545554Y3889628D01*
X6159774Y4049818D01*
X5742058Y4050182D01*
X5356000Y3890666D01*
X5060372Y3595554D01*
X4900182Y3209774D01*
X4899999Y2999914D01*
X4592058Y3000182D01*
X4206000Y2840666D01*
X3910372Y2545554D01*
X3750182Y2159774D01*
X3749818Y1742058D01*
X3753111Y1734089D01*
X3406000Y1590666D01*
X3110372Y1295554D01*
X2950182Y909774D01*
X2949818Y492058D01*
X3109334Y106000D01*
X3404446Y-189628D01*
X3790226Y-349818D01*
X4207942Y-350182D01*
X4594000Y-190666D01*
X4734912Y-50000D01*
X5150000Y-50000D01*
X5437013Y7090D01*
X5680330Y169670D01*
X5860660Y350000D01*
X6539340Y350000D01*
X9639340Y-2750000D01*
X9210660Y-2750000D01*
X7880330Y-1419670D01*
X7637013Y-1257090D01*
X7350000Y-1200000D01*
X6550000Y-1200000D01*
X6262987Y-1257090D01*
X6019670Y-1419670D01*
X4037736Y-3401604D01*
X3656000Y-3559334D01*
X3649857Y-3565467D01*
X3650182Y-3192058D01*
X3490666Y-2806000D01*
X3385012Y-2700162D01*
X3389628Y-2695554D01*
X3549818Y-2309774D01*
X3550182Y-1892058D01*
X3390666Y-1506000D01*
X3095554Y-1210372D01*
X2709774Y-1050182D01*
X2292058Y-1049818D01*
X1906000Y-1209334D01*
X1890307Y-1225000D01*
X500000Y-1225000D01*
X146017Y-1295411D01*
X-154074Y-1495926D01*
X-4450000Y-5791852D01*
X-4450000Y-2338478D01*
X-1580761Y530761D01*
X-1298957Y952511D01*
X-1200000Y1450000D01*
X-1200000Y3000000D01*
X-1298957Y3497488D01*
X-1466413Y3748104D01*
X-1609334Y4094000D01*
X-1840003Y4325073D01*
X-8186Y6156890D01*
X139628Y6304446D01*
X299818Y6690226D01*
X300182Y7107942D01*
X140666Y7494000D01*
X-154446Y7789628D01*
X-540226Y7949818D01*
X-957942Y7950182D01*
X-1344000Y7790666D01*
X-1639628Y7495554D01*
X-1639811Y7495113D01*
X-1649838Y7485086D01*
X-1649818Y7507942D01*
X-1809334Y7894000D01*
X-1940075Y8024969D01*
X-1810372Y8154446D01*
X-1650182Y8540226D01*
X-1649818Y8957942D01*
X-1809334Y9344000D01*
X-2104446Y9639628D01*
X-2490226Y9799818D01*
X-2865221Y9800145D01*
X-3150000Y10084924D01*
X-3150000Y13064826D01*
X-3145554Y13060372D01*
G36*
X-9600000Y11583632D02*
X-9600000Y10300000D01*
X-9520074Y9898182D01*
X-9292462Y9557538D01*
X-6292462Y6557538D01*
X-5951818Y6329926D01*
X-5550000Y6250000D01*
X-2884924Y6250000D01*
X-3134924Y6000000D01*
X-9199084Y6000000D01*
X-9407942Y6000182D01*
X-9794000Y5840666D01*
X-9950000Y5684938D01*
X-9950000Y9700000D01*
X-10048957Y10197488D01*
X-10330761Y10619239D01*
X-11011522Y11300000D01*
X-10750000Y11300000D01*
X-10552801Y11339225D01*
X-10150000Y11339225D01*
X-9946182Y11377576D01*
X-9758988Y11498032D01*
X-9648743Y11659381D01*
X-9600000Y11583632D01*
X-9600000Y11583632D01*
G37*
X-9600000Y11583632D02*
X-9600000Y10300000D01*
X-9520074Y9898182D01*
X-9292462Y9557538D01*
X-6292462Y6557538D01*
X-5951818Y6329926D01*
X-5550000Y6250000D01*
X-2884924Y6250000D01*
X-3134924Y6000000D01*
X-9199084Y6000000D01*
X-9407942Y6000182D01*
X-9794000Y5840666D01*
X-9950000Y5684938D01*
X-9950000Y9700000D01*
X-10048957Y10197488D01*
X-10330761Y10619239D01*
X-11011522Y11300000D01*
X-10750000Y11300000D01*
X-10552801Y11339225D01*
X-10150000Y11339225D01*
X-9946182Y11377576D01*
X-9758988Y11498032D01*
X-9648743Y11659381D01*
X-9600000Y11583632D01*
G36*
X-5250000Y9650000D02*
X-5170074Y9248182D01*
X-4942462Y8907538D01*
X-4384924Y8350000D01*
X-5115076Y8350000D01*
X-7500000Y10734924D01*
X-7500000Y11584364D01*
X-7433406Y11681827D01*
X-7389225Y11900000D01*
X-7389225Y12800000D01*
X-7427576Y13003818D01*
X-7548032Y13191012D01*
X-7625000Y13243602D01*
X-7625000Y13589631D01*
X-7500182Y13890226D01*
X-7499818Y14307942D01*
X-7527526Y14375000D01*
X-5250000Y14375000D01*
X-5250000Y9650000D01*
X-5250000Y9650000D01*
G37*
X-5250000Y9650000D02*
X-5170074Y9248182D01*
X-4942462Y8907538D01*
X-4384924Y8350000D01*
X-5115076Y8350000D01*
X-7500000Y10734924D01*
X-7500000Y11584364D01*
X-7433406Y11681827D01*
X-7389225Y11900000D01*
X-7389225Y12800000D01*
X-7427576Y13003818D01*
X-7548032Y13191012D01*
X-7625000Y13243602D01*
X-7625000Y13589631D01*
X-7500182Y13890226D01*
X-7499818Y14307942D01*
X-7527526Y14375000D01*
X-5250000Y14375000D01*
X-5250000Y9650000D01*
M02*
