G04 #@! TF.FileFunction,Copper,L2,Bot,Signal*
%FSLAX46Y46*%
G04 Gerber Fmt 4.6, Leading zero omitted, Abs format (unit mm)*
G04 Created by KiCad (PCBNEW 4.0.0-rc1-stable) date 15.2.2016 17:04:42*
%MOMM*%
G01*
G04 APERTURE LIST*
%ADD10C,0.100000*%
%ADD11C,2.100000*%
%ADD12R,2.032000X2.032000*%
%ADD13O,2.032000X2.032000*%
%ADD14C,3.000000*%
%ADD15C,2.000000*%
%ADD16R,1.727200X2.032000*%
%ADD17O,1.727200X2.032000*%
%ADD18C,2.500000*%
%ADD19R,1.780000X2.500000*%
%ADD20C,1.600000*%
%ADD21C,1.000000*%
%ADD22C,0.381000*%
%ADD23C,1.500000*%
%ADD24C,0.500000*%
G04 APERTURE END LIST*
D10*
D11*
X-5080000Y-22170000D03*
X-5080000Y-19630000D03*
X-2540000Y-22170000D03*
X-2540000Y-19630000D03*
X0Y-22170000D03*
X0Y-19630000D03*
X2540000Y-22170000D03*
X2540000Y-19630000D03*
X5080000Y-22170000D03*
X5080000Y-19630000D03*
X-7620000Y-22170000D03*
D12*
X-19200000Y-13600000D03*
D13*
X-21740000Y-13600000D03*
D14*
X-8290000Y20950000D03*
D15*
X-9560000Y17200000D03*
X-12100000Y17200000D03*
X-14640000Y17200000D03*
D14*
X-15910000Y20950000D03*
X3810000Y20950000D03*
D15*
X2540000Y17200000D03*
X0Y17200000D03*
X-2540000Y17200000D03*
D14*
X-3810000Y20950000D03*
X15910000Y20950000D03*
D15*
X14640000Y17200000D03*
X12100000Y17200000D03*
X9560000Y17200000D03*
D14*
X8290000Y20950000D03*
D16*
X22600000Y-8400000D03*
D17*
X20060000Y-8400000D03*
X17520000Y-8400000D03*
X14980000Y-8400000D03*
X12440000Y-8400000D03*
X9900000Y-8400000D03*
D18*
X-19890000Y20990000D03*
X19900000Y20900000D03*
X-19900000Y-19000000D03*
D19*
X-8620000Y-14140000D03*
X-11160000Y-14140000D03*
X-13700000Y-14140000D03*
X-8620000Y-4150000D03*
X-11160000Y-4150000D03*
X-13700000Y-4150000D03*
D18*
X19900000Y-19000000D03*
D15*
X3460000Y8460000D03*
X600000Y6190000D03*
X-8100000Y12600000D03*
X-13575000Y4475000D03*
X-15350000Y-19400000D03*
X-20100000Y14900000D03*
X-16700000Y-10250000D03*
X-5100000Y4500000D03*
X-6400000Y-10200000D03*
X18000000Y1700000D03*
X18000000Y17250000D03*
D20*
X-200000Y-3400000D03*
D15*
X820000Y2230000D03*
D20*
X4100000Y-3400000D03*
X1900000Y-3400000D03*
D15*
X6960000Y8100000D03*
X15000000Y-3650000D03*
X-500000Y8600000D03*
X-4050000Y-6400000D03*
X10750000Y11100000D03*
X11350000Y-21950000D03*
X4760000Y2350000D03*
X11200000Y-12200000D03*
X7020000Y1000000D03*
X9900000Y-17000000D03*
X2700000Y3980000D03*
D21*
X600000Y6190000D02*
X1190000Y6190000D01*
X1190000Y6190000D02*
X3460000Y8460000D01*
X3460000Y8460000D02*
X3460000Y8450000D01*
X3460000Y8450000D02*
X12440000Y-530000D01*
X3460000Y11790000D02*
X3460000Y8460000D01*
X3460000Y11790000D02*
X3460000Y11800000D01*
X3460000Y11800000D02*
X3460000Y11790000D01*
X600000Y6190000D02*
X620000Y6190000D01*
D22*
X-7620000Y-22170000D02*
X-7610000Y-22180000D01*
D21*
X12440000Y-8400000D02*
X12440000Y-700000D01*
X3460000Y11790000D02*
X0Y15250000D01*
X-8100000Y12600000D02*
X-2650000Y12600000D01*
X-2650000Y12600000D02*
X0Y15250000D01*
X0Y15250000D02*
X0Y17200000D01*
X-8100000Y12600000D02*
X-14150000Y12600000D01*
X-14150000Y12600000D02*
X-14650000Y13100000D01*
X-13575000Y4475000D02*
X-14650000Y5550000D01*
X-14650000Y5550000D02*
X-14650000Y13100000D01*
X-14650000Y13100000D02*
X-14650000Y17190000D01*
X-14650000Y17190000D02*
X-14640000Y17200000D01*
X-13575000Y4475000D02*
X-13575000Y1675000D01*
X-11160000Y-740000D02*
X-11160000Y-4650000D01*
X-13575000Y1675000D02*
X-11160000Y-740000D01*
X-13575000Y4475000D02*
X-13600000Y4450000D01*
D23*
X-11160000Y-4650000D02*
X-11160000Y-13640000D01*
D24*
X5100000Y-19610000D02*
X5080000Y-19630000D01*
D23*
X-16125000Y-18625000D02*
X-15350000Y-19400000D01*
X-16125000Y-18625000D02*
X-16125000Y-10825000D01*
X-16700000Y-10250000D02*
X-16125000Y-10825000D01*
X-20100000Y-6850000D02*
X-20100000Y14900000D01*
X-20100000Y-6850000D02*
X-16700000Y-10250000D01*
D21*
X-6400000Y-10200000D02*
X-6400000Y-7500000D01*
X-6400000Y3200000D02*
X-6400000Y-7500000D01*
X-5100000Y4500000D02*
X-6400000Y3200000D01*
X18000000Y1700000D02*
X18000000Y17250000D01*
X2540000Y17200000D02*
X2540000Y17910000D01*
X2540000Y17910000D02*
X-50000Y20500000D01*
X-12100000Y22000000D02*
X-12100000Y17200000D01*
X-10000000Y24100000D02*
X-12100000Y22000000D01*
X-2150000Y24100000D02*
X-10000000Y24100000D01*
X-50000Y22000000D02*
X-2150000Y24100000D01*
X-50000Y20500000D02*
X-50000Y22000000D01*
X2540000Y17200000D02*
X6100000Y17200000D01*
X12100000Y15800000D02*
X12100000Y17200000D01*
X11350000Y15050000D02*
X12100000Y15800000D01*
X8250000Y15050000D02*
X11350000Y15050000D01*
X6100000Y17200000D02*
X8250000Y15050000D01*
D24*
X-7050000Y-19250000D02*
X-7050000Y-18780000D01*
X-5080000Y-22170000D02*
X-7050000Y-20200000D01*
X-7050000Y-19250000D02*
X-7050000Y-20200000D01*
X-7050000Y-18780000D02*
X-240000Y-11970000D01*
X-200000Y-3400000D02*
X-200000Y-11970000D01*
D21*
X-2100000Y-510000D02*
X640000Y2230000D01*
X820000Y2230000D02*
X640000Y2230000D01*
X-10190000Y-20490000D02*
X-10190000Y-19720000D01*
X-10190000Y-20490000D02*
X-10190000Y-22890000D01*
X-10190000Y-22890000D02*
X-8630000Y-24450000D01*
X-8630000Y-24450000D02*
X-6700000Y-24450000D01*
X-2540000Y-22170000D02*
X-2540000Y-23490000D01*
X-3500000Y-24450000D02*
X-6700000Y-24450000D01*
X-2540000Y-23490000D02*
X-3500000Y-24450000D01*
X-10190000Y-19720000D02*
X-2100000Y-11630000D01*
X-2100000Y-11630000D02*
X-2100000Y-510000D01*
X-2100000Y-510000D02*
X-2100000Y-500000D01*
D24*
X6670000Y-25170000D02*
X6920000Y-25170000D01*
X0Y-23050000D02*
X1900000Y-24950000D01*
X2100000Y-25170000D02*
X6670000Y-25170000D01*
X1900000Y-24970000D02*
X2100000Y-25170000D01*
X1900000Y-24950000D02*
X1900000Y-24970000D01*
X7200000Y-15460000D02*
X8090000Y-16350000D01*
X8090000Y-16350000D02*
X8090000Y-24000000D01*
X4100000Y-12350000D02*
X7200000Y-15450000D01*
X4100000Y-3400000D02*
X4100000Y-12350000D01*
X7200000Y-15450000D02*
X7200000Y-15460000D01*
X6920000Y-25170000D02*
X8090000Y-24000000D01*
X0Y-22170000D02*
X0Y-23050000D01*
X5950000Y-15950000D02*
X6710000Y-16710000D01*
X1900000Y-11900000D02*
X5950000Y-15950000D01*
X1900000Y-3400000D02*
X1900000Y-11900000D01*
X7020000Y-23050000D02*
X6010000Y-24060000D01*
X7020000Y-17020000D02*
X7020000Y-23050000D01*
X6710000Y-16710000D02*
X7020000Y-17020000D01*
X2540000Y-22170000D02*
X2540000Y-22870000D01*
X2540000Y-22870000D02*
X3730000Y-24060000D01*
X3730000Y-24060000D02*
X6010000Y-24060000D01*
X2540000Y-22170000D02*
X2540000Y-22740000D01*
D21*
X6960000Y8100000D02*
X6960000Y8090000D01*
X6960000Y8090000D02*
X17520000Y-2470000D01*
X17520000Y-8400000D02*
X17520000Y-2470000D01*
X14980000Y-8400000D02*
X14980000Y-3670000D01*
D24*
X14980000Y-3670000D02*
X15000000Y-3650000D01*
D21*
X-1600000Y7500000D02*
X-500000Y8600000D01*
X-1600000Y3550000D02*
X-1600000Y7500000D01*
X-1600000Y3550000D02*
X-3125000Y2025000D01*
X-3100000Y2050000D02*
X-3125000Y2025000D01*
X-3125000Y2025000D02*
X-4050000Y1100000D01*
X-4050000Y-6400000D02*
X-4050000Y1100000D01*
X10750000Y11100000D02*
X14450000Y14800000D01*
X14650000Y15000000D02*
X14650000Y17190000D01*
X14450000Y14800000D02*
X14650000Y15000000D01*
X14650000Y17190000D02*
X14640000Y17200000D01*
D24*
X4760000Y2350000D02*
X4760000Y-310000D01*
X5300000Y-850000D02*
X5750000Y-1300000D01*
X9900000Y-14250000D02*
X9900000Y-14260000D01*
X6950000Y-11300000D02*
X9900000Y-14250000D01*
X6700000Y-2250000D02*
X6900000Y-2450000D01*
X5750000Y-1300000D02*
X6700000Y-2250000D01*
X6950000Y-2500000D02*
X6950000Y-9550000D01*
X6900000Y-2450000D02*
X6950000Y-2500000D01*
X6950000Y-9550000D02*
X6950000Y-11300000D01*
X11350000Y-21950000D02*
X12540000Y-20760000D01*
X12540000Y-15780000D02*
X12540000Y-20760000D01*
X11160000Y-14400000D02*
X12540000Y-15780000D01*
X10040000Y-14400000D02*
X11160000Y-14400000D01*
X9900000Y-14260000D02*
X10040000Y-14400000D01*
X4760000Y-310000D02*
X5300000Y-850000D01*
X7350000Y-1350000D02*
X7350000Y-1330000D01*
X8150000Y-10100000D02*
X10250000Y-12200000D01*
X11200000Y-12200000D02*
X10250000Y-12200000D01*
X8150000Y-2150000D02*
X8150000Y-9550000D01*
X7350000Y-1350000D02*
X8150000Y-2150000D01*
X8150000Y-9550000D02*
X8150000Y-10100000D01*
X7020000Y-1000000D02*
X7020000Y1000000D01*
X7350000Y-1330000D02*
X7020000Y-1000000D01*
X3010000Y-150000D02*
X2670000Y190000D01*
X3010000Y-150000D02*
X3160000Y-300000D01*
X4650000Y-1790000D02*
X3160000Y-300000D01*
X8300000Y-14500000D02*
X8300000Y-14510000D01*
X5900000Y-12100000D02*
X8300000Y-14500000D01*
X5900000Y-9550000D02*
X5900000Y-3050000D01*
X4650000Y-1800000D02*
X5900000Y-3050000D01*
X5900000Y-9550000D02*
X5900000Y-12100000D01*
X9900000Y-17000000D02*
X9900000Y-16110000D01*
X8300000Y-14510000D02*
X9900000Y-16110000D01*
X4650000Y-1800000D02*
X4650000Y-1790000D01*
X2670000Y3950000D02*
X2700000Y3980000D01*
X2670000Y190000D02*
X2670000Y3950000D01*
D10*
G36*
X24375000Y-25375000D02*
X7846370Y-25375000D01*
X8655686Y-24565685D01*
X8829104Y-24306147D01*
X8848050Y-24210896D01*
X8890000Y-24000000D01*
X8890000Y-18182182D01*
X9020849Y-18313260D01*
X9590333Y-18549730D01*
X10206961Y-18550268D01*
X10776857Y-18314792D01*
X11213260Y-17879151D01*
X11449730Y-17309667D01*
X11450268Y-16693039D01*
X11214792Y-16123143D01*
X10779151Y-15686740D01*
X10477026Y-15561287D01*
X10465686Y-15544315D01*
X10121371Y-15200000D01*
X10828630Y-15200000D01*
X11740000Y-16111371D01*
X11740000Y-20428629D01*
X11736468Y-20432161D01*
X11659667Y-20400270D01*
X11043039Y-20399732D01*
X10473143Y-20635208D01*
X10036740Y-21070849D01*
X9800270Y-21640333D01*
X9799732Y-22256961D01*
X10035208Y-22826857D01*
X10470849Y-23263260D01*
X11040333Y-23499730D01*
X11656961Y-23500268D01*
X12226857Y-23264792D01*
X12663260Y-22829151D01*
X12899730Y-22259667D01*
X12900268Y-21643039D01*
X12867540Y-21563831D01*
X13105685Y-21325686D01*
X13279104Y-21066147D01*
X13292261Y-21000000D01*
X13340000Y-20760000D01*
X13340000Y-19356471D01*
X18099688Y-19356471D01*
X18373145Y-20018286D01*
X18879051Y-20525076D01*
X19540387Y-20799687D01*
X20256471Y-20800312D01*
X20918286Y-20526855D01*
X21425076Y-20020949D01*
X21699687Y-19359613D01*
X21700312Y-18643529D01*
X21426855Y-17981714D01*
X20920949Y-17474924D01*
X20259613Y-17200313D01*
X19543529Y-17199688D01*
X18881714Y-17473145D01*
X18374924Y-17979051D01*
X18100313Y-18640387D01*
X18099688Y-19356471D01*
X13340000Y-19356471D01*
X13340000Y-15780000D01*
X13279104Y-15473853D01*
X13223075Y-15390000D01*
X13105686Y-15214315D01*
X11725685Y-13834315D01*
X11564389Y-13726539D01*
X12076857Y-13514792D01*
X12513260Y-13079151D01*
X12749730Y-12509667D01*
X12750268Y-11893039D01*
X12514792Y-11323143D01*
X12079151Y-10886740D01*
X11509667Y-10650270D01*
X10893039Y-10649732D01*
X10323143Y-10885208D01*
X10194749Y-11013378D01*
X8950000Y-9768630D01*
X8950000Y-9615765D01*
X9359039Y-9889076D01*
X9900000Y-9996680D01*
X10440961Y-9889076D01*
X10899566Y-9582646D01*
X11205996Y-9124041D01*
X11313600Y-8583080D01*
X11313600Y-8216920D01*
X11205996Y-7675959D01*
X10899566Y-7217354D01*
X10440961Y-6910924D01*
X9900000Y-6803320D01*
X9359039Y-6910924D01*
X8950000Y-7184235D01*
X8950000Y-2150000D01*
X8889104Y-1843853D01*
X8859802Y-1800000D01*
X8715686Y-1584315D01*
X7955961Y-824591D01*
X7915685Y-764314D01*
X7820000Y-668629D01*
X7820000Y-346549D01*
X7896857Y-314792D01*
X8333260Y120849D01*
X8569730Y690333D01*
X8570268Y1306961D01*
X8334792Y1876857D01*
X7899151Y2313260D01*
X7329667Y2549730D01*
X6713039Y2550268D01*
X6310030Y2383748D01*
X6310268Y2656961D01*
X6074792Y3226857D01*
X5639151Y3663260D01*
X5069667Y3899730D01*
X4453039Y3900268D01*
X4249857Y3816315D01*
X4250268Y4286961D01*
X4014792Y4856857D01*
X3579151Y5293260D01*
X3009667Y5529730D01*
X2393039Y5530268D01*
X1823143Y5294792D01*
X1386740Y4859151D01*
X1150270Y4289667D01*
X1149818Y3771363D01*
X1129667Y3779730D01*
X513039Y3780268D01*
X-56857Y3544792D01*
X-493260Y3109151D01*
X-729730Y2539667D01*
X-729900Y2345024D01*
X-2812325Y262599D01*
X-2842462Y242462D01*
X-3000000Y6691D01*
X-3000000Y665076D01*
X-857538Y2807538D01*
X-732230Y2995074D01*
X-629926Y3148182D01*
X-550000Y3550000D01*
X-550000Y7050043D01*
X-193039Y7049732D01*
X376857Y7285208D01*
X813260Y7720849D01*
X843235Y7793039D01*
X5409732Y7793039D01*
X5645208Y7223143D01*
X6080849Y6786740D01*
X6650333Y6550270D01*
X7015124Y6549952D01*
X16470000Y-2904924D01*
X16470000Y-3148775D01*
X16314792Y-2773143D01*
X15879151Y-2336740D01*
X15309667Y-2100270D01*
X14693039Y-2099732D01*
X14123143Y-2335208D01*
X13686740Y-2770849D01*
X13450270Y-3340333D01*
X13449732Y-3956961D01*
X13685208Y-4526857D01*
X13930000Y-4772077D01*
X13930000Y-7292834D01*
X13674004Y-7675959D01*
X13566400Y-8216920D01*
X13566400Y-8583080D01*
X13674004Y-9124041D01*
X13980434Y-9582646D01*
X14439039Y-9889076D01*
X14980000Y-9996680D01*
X15520961Y-9889076D01*
X15979566Y-9582646D01*
X16250000Y-9177913D01*
X16520434Y-9582646D01*
X16979039Y-9889076D01*
X17520000Y-9996680D01*
X18060961Y-9889076D01*
X18519566Y-9582646D01*
X18790000Y-9177913D01*
X19060434Y-9582646D01*
X19519039Y-9889076D01*
X20060000Y-9996680D01*
X20600961Y-9889076D01*
X21059566Y-9582646D01*
X21175625Y-9408951D01*
X21175625Y-9416000D01*
X21213976Y-9619818D01*
X21334432Y-9807012D01*
X21518227Y-9932594D01*
X21736400Y-9976775D01*
X23463600Y-9976775D01*
X23667418Y-9938424D01*
X23854612Y-9817968D01*
X23980194Y-9634173D01*
X24024375Y-9416000D01*
X24024375Y-7384000D01*
X23986024Y-7180182D01*
X23865568Y-6992988D01*
X23681773Y-6867406D01*
X23463600Y-6823225D01*
X21736400Y-6823225D01*
X21532582Y-6861576D01*
X21345388Y-6982032D01*
X21219806Y-7165827D01*
X21175625Y-7384000D01*
X21175625Y-7391049D01*
X21059566Y-7217354D01*
X20600961Y-6910924D01*
X20060000Y-6803320D01*
X19519039Y-6910924D01*
X19060434Y-7217354D01*
X18790000Y-7622087D01*
X18570000Y-7292834D01*
X18570000Y-2470000D01*
X18490074Y-2068182D01*
X18262462Y-1727538D01*
X8509935Y8024989D01*
X8510268Y8406961D01*
X8274792Y8976857D01*
X7839151Y9413260D01*
X7269667Y9649730D01*
X6653039Y9650268D01*
X6083143Y9414792D01*
X5646740Y8979151D01*
X5410270Y8409667D01*
X5409732Y7793039D01*
X843235Y7793039D01*
X1049730Y8290333D01*
X1050268Y8906961D01*
X814792Y9476857D01*
X379151Y9913260D01*
X-190333Y10149730D01*
X-806961Y10150268D01*
X-1376857Y9914792D01*
X-1813260Y9479151D01*
X-2049730Y8909667D01*
X-2050057Y8534867D01*
X-2342462Y8242462D01*
X-2570074Y7901818D01*
X-2650000Y7500000D01*
X-2650000Y3984924D01*
X-4792462Y1842462D01*
X-5020074Y1501818D01*
X-5100000Y1100000D01*
X-5100000Y-5258049D01*
X-5350000Y-5507612D01*
X-5350000Y2765076D01*
X-5165019Y2950057D01*
X-4793039Y2949732D01*
X-4223143Y3185208D01*
X-3786740Y3620849D01*
X-3550270Y4190333D01*
X-3549732Y4806961D01*
X-3785208Y5376857D01*
X-4220849Y5813260D01*
X-4790333Y6049730D01*
X-5406961Y6050268D01*
X-5976857Y5814792D01*
X-6413260Y5379151D01*
X-6649730Y4809667D01*
X-6650057Y4434867D01*
X-7142462Y3942462D01*
X-7370074Y3601818D01*
X-7450000Y3200000D01*
X-7450000Y-2425651D01*
X-7511827Y-2383406D01*
X-7730000Y-2339225D01*
X-9510000Y-2339225D01*
X-9713818Y-2377576D01*
X-9901012Y-2498032D01*
X-10026594Y-2681827D01*
X-10070775Y-2900000D01*
X-10070775Y-5400000D01*
X-10032424Y-5603818D01*
X-9911968Y-5791012D01*
X-9728173Y-5916594D01*
X-9510000Y-5960775D01*
X-7730000Y-5960775D01*
X-7526182Y-5922424D01*
X-7450000Y-5873402D01*
X-7450000Y-9058049D01*
X-7713260Y-9320849D01*
X-7949730Y-9890333D01*
X-7950268Y-10506961D01*
X-7714792Y-11076857D01*
X-7279151Y-11513260D01*
X-6709667Y-11749730D01*
X-6093039Y-11750268D01*
X-5523143Y-11514792D01*
X-5086740Y-11079151D01*
X-4850270Y-10509667D01*
X-4849732Y-9893039D01*
X-5085208Y-9323143D01*
X-5350000Y-9057888D01*
X-5350000Y-7291675D01*
X-4929151Y-7713260D01*
X-4359667Y-7949730D01*
X-3743039Y-7950268D01*
X-3173143Y-7714792D01*
X-3150000Y-7691689D01*
X-3150000Y-11195076D01*
X-7169225Y-15214301D01*
X-7169225Y-12890000D01*
X-7207576Y-12686182D01*
X-7328032Y-12498988D01*
X-7511827Y-12373406D01*
X-7730000Y-12329225D01*
X-9510000Y-12329225D01*
X-9713818Y-12367576D01*
X-9901012Y-12488032D01*
X-10026594Y-12671827D01*
X-10070775Y-12890000D01*
X-10070775Y-15390000D01*
X-10032424Y-15593818D01*
X-9911968Y-15781012D01*
X-9728173Y-15906594D01*
X-9510000Y-15950775D01*
X-7905699Y-15950775D01*
X-10932462Y-18977538D01*
X-11160074Y-19318182D01*
X-11240000Y-19720000D01*
X-11240000Y-22890000D01*
X-11160074Y-23291818D01*
X-10932462Y-23632462D01*
X-9372462Y-25192462D01*
X-9099276Y-25375000D01*
X-24375000Y-25375000D01*
X-24375000Y-19356471D01*
X-21700312Y-19356471D01*
X-21426855Y-20018286D01*
X-20920949Y-20525076D01*
X-20259613Y-20799687D01*
X-19543529Y-20800312D01*
X-18881714Y-20526855D01*
X-18374924Y-20020949D01*
X-18100313Y-19359613D01*
X-18099688Y-18643529D01*
X-18373145Y-17981714D01*
X-18879051Y-17474924D01*
X-19540387Y-17200313D01*
X-20256471Y-17199688D01*
X-20918286Y-17473145D01*
X-21425076Y-17979051D01*
X-21699687Y-18640387D01*
X-21700312Y-19356471D01*
X-24375000Y-19356471D01*
X-24375000Y-13600000D01*
X-23336680Y-13600000D01*
X-23217475Y-14199282D01*
X-22878009Y-14707329D01*
X-22369962Y-15046795D01*
X-21770680Y-15166000D01*
X-21709320Y-15166000D01*
X-21110038Y-15046795D01*
X-20741989Y-14800873D01*
X-20738424Y-14819818D01*
X-20617968Y-15007012D01*
X-20434173Y-15132594D01*
X-20216000Y-15176775D01*
X-18184000Y-15176775D01*
X-17980182Y-15138424D01*
X-17792988Y-15017968D01*
X-17667406Y-14834173D01*
X-17623225Y-14616000D01*
X-17623225Y-12584000D01*
X-17661576Y-12380182D01*
X-17782032Y-12192988D01*
X-17965827Y-12067406D01*
X-18184000Y-12023225D01*
X-20216000Y-12023225D01*
X-20419818Y-12061576D01*
X-20607012Y-12182032D01*
X-20732594Y-12365827D01*
X-20739653Y-12400688D01*
X-21110038Y-12153205D01*
X-21709320Y-12034000D01*
X-21770680Y-12034000D01*
X-22369962Y-12153205D01*
X-22878009Y-12492671D01*
X-23217475Y-13000718D01*
X-23336680Y-13600000D01*
X-24375000Y-13600000D01*
X-24375000Y14593039D01*
X-21650268Y14593039D01*
X-21414792Y14023143D01*
X-21400000Y14008325D01*
X-21400000Y-6850000D01*
X-21301043Y-7347489D01*
X-21019239Y-7769239D01*
X-18250252Y-10538226D01*
X-18250268Y-10556961D01*
X-18014792Y-11126857D01*
X-17579151Y-11563260D01*
X-17425000Y-11627269D01*
X-17425000Y-18625000D01*
X-17326043Y-19122489D01*
X-17044239Y-19544239D01*
X-16900252Y-19688226D01*
X-16900268Y-19706961D01*
X-16664792Y-20276857D01*
X-16229151Y-20713260D01*
X-15659667Y-20949730D01*
X-15043039Y-20950268D01*
X-14473143Y-20714792D01*
X-14036740Y-20279151D01*
X-13800270Y-19709667D01*
X-13799732Y-19093039D01*
X-14035208Y-18523143D01*
X-14470849Y-18086740D01*
X-14825000Y-17939684D01*
X-14825000Y-15895097D01*
X-14808173Y-15906594D01*
X-14590000Y-15950775D01*
X-12810000Y-15950775D01*
X-12606182Y-15912424D01*
X-12418988Y-15791968D01*
X-12293406Y-15608173D01*
X-12249225Y-15390000D01*
X-12249225Y-12890000D01*
X-12287576Y-12686182D01*
X-12408032Y-12498988D01*
X-12591827Y-12373406D01*
X-12810000Y-12329225D01*
X-14590000Y-12329225D01*
X-14793818Y-12367576D01*
X-14825000Y-12387641D01*
X-14825000Y-10825000D01*
X-14923957Y-10327512D01*
X-15149773Y-9989554D01*
X-15149732Y-9943039D01*
X-15385208Y-9373143D01*
X-15820849Y-8936740D01*
X-16390333Y-8700270D01*
X-16411270Y-8700252D01*
X-18800000Y-6311522D01*
X-18800000Y-2900000D01*
X-15150775Y-2900000D01*
X-15150775Y-5400000D01*
X-15112424Y-5603818D01*
X-14991968Y-5791012D01*
X-14808173Y-5916594D01*
X-14590000Y-5960775D01*
X-12810000Y-5960775D01*
X-12606182Y-5922424D01*
X-12418988Y-5801968D01*
X-12293406Y-5618173D01*
X-12249225Y-5400000D01*
X-12249225Y-2900000D01*
X-12287576Y-2696182D01*
X-12408032Y-2508988D01*
X-12591827Y-2383406D01*
X-12810000Y-2339225D01*
X-14590000Y-2339225D01*
X-14793818Y-2377576D01*
X-14981012Y-2498032D01*
X-15106594Y-2681827D01*
X-15150775Y-2900000D01*
X-18800000Y-2900000D01*
X-18800000Y14007612D01*
X-18786740Y14020849D01*
X-18550270Y14590333D01*
X-18549732Y15206961D01*
X-18785208Y15776857D01*
X-19220849Y16213260D01*
X-19790333Y16449730D01*
X-20406961Y16450268D01*
X-20976857Y16214792D01*
X-21413260Y15779151D01*
X-21649730Y15209667D01*
X-21650268Y14593039D01*
X-24375000Y14593039D01*
X-24375000Y16893039D01*
X-13650268Y16893039D01*
X-13414792Y16323143D01*
X-12979151Y15886740D01*
X-12409667Y15650270D01*
X-11793039Y15649732D01*
X-11223143Y15885208D01*
X-10829696Y16277968D01*
X-10439151Y15886740D01*
X-9869667Y15650270D01*
X-9253039Y15649732D01*
X-8683143Y15885208D01*
X-8246740Y16320849D01*
X-8010270Y16890333D01*
X-8010268Y16893039D01*
X-4090268Y16893039D01*
X-3854792Y16323143D01*
X-3419151Y15886740D01*
X-2849667Y15650270D01*
X-2233039Y15649732D01*
X-1663143Y15885208D01*
X-1226740Y16320849D01*
X-990270Y16890333D01*
X-989732Y17506961D01*
X-1225208Y18076857D01*
X-1660849Y18513260D01*
X-2230333Y18749730D01*
X-2846961Y18750268D01*
X-3416857Y18514792D01*
X-3853260Y18079151D01*
X-4089730Y17509667D01*
X-4090268Y16893039D01*
X-8010268Y16893039D01*
X-8009732Y17506961D01*
X-8245208Y18076857D01*
X-8680849Y18513260D01*
X-9250333Y18749730D01*
X-9866961Y18750268D01*
X-10436857Y18514792D01*
X-10830304Y18122032D01*
X-11050000Y18342112D01*
X-11050000Y21565076D01*
X-9565076Y23050000D01*
X-2584924Y23050000D01*
X-1100000Y21565076D01*
X-1100000Y20500000D01*
X-1020074Y20098182D01*
X-792462Y19757538D01*
X1126744Y17838332D01*
X990270Y17509667D01*
X989732Y16893039D01*
X1225208Y16323143D01*
X1660849Y15886740D01*
X2230333Y15650270D01*
X2846961Y15649732D01*
X3416857Y15885208D01*
X3682112Y16150000D01*
X5665076Y16150000D01*
X7507538Y14307538D01*
X7848182Y14079926D01*
X8250000Y14000000D01*
X11350000Y14000000D01*
X11751818Y14079926D01*
X12092462Y14307538D01*
X12842462Y15057538D01*
X13070074Y15398182D01*
X13150000Y15800000D01*
X13150000Y16058049D01*
X13370304Y16277968D01*
X13600000Y16047870D01*
X13600000Y15434924D01*
X10815019Y12649943D01*
X10443039Y12650268D01*
X9873143Y12414792D01*
X9436740Y11979151D01*
X9200270Y11409667D01*
X9199732Y10793039D01*
X9435208Y10223143D01*
X9870849Y9786740D01*
X10440333Y9550270D01*
X11056961Y9549732D01*
X11626857Y9785208D01*
X12063260Y10220849D01*
X12299730Y10790333D01*
X12300057Y11165133D01*
X15392462Y14257538D01*
X15425871Y14307538D01*
X15620074Y14598182D01*
X15700000Y15000000D01*
X15700000Y16068031D01*
X15953260Y16320849D01*
X16189730Y16890333D01*
X16189775Y16943039D01*
X16449732Y16943039D01*
X16685208Y16373143D01*
X16950000Y16107888D01*
X16950000Y2841951D01*
X16686740Y2579151D01*
X16450270Y2009667D01*
X16449732Y1393039D01*
X16685208Y823143D01*
X17120849Y386740D01*
X17690333Y150270D01*
X18306961Y149732D01*
X18876857Y385208D01*
X19313260Y820849D01*
X19549730Y1390333D01*
X19550268Y2006961D01*
X19314792Y2576857D01*
X19050000Y2842112D01*
X19050000Y16108049D01*
X19313260Y16370849D01*
X19549730Y16940333D01*
X19550268Y17556961D01*
X19314792Y18126857D01*
X18879151Y18563260D01*
X18309667Y18799730D01*
X17693039Y18800268D01*
X17123143Y18564792D01*
X16686740Y18129151D01*
X16450270Y17559667D01*
X16449732Y16943039D01*
X16189775Y16943039D01*
X16190268Y17506961D01*
X15954792Y18076857D01*
X15519151Y18513260D01*
X14949667Y18749730D01*
X14333039Y18750268D01*
X13763143Y18514792D01*
X13369696Y18122032D01*
X12979151Y18513260D01*
X12409667Y18749730D01*
X11793039Y18750268D01*
X11223143Y18514792D01*
X10786740Y18079151D01*
X10550270Y17509667D01*
X10549732Y16893039D01*
X10785208Y16323143D01*
X10961559Y16146483D01*
X10915076Y16100000D01*
X8684924Y16100000D01*
X6842462Y17942462D01*
X6501818Y18170074D01*
X6100000Y18250000D01*
X3681951Y18250000D01*
X3419151Y18513260D01*
X3358703Y18538360D01*
X3282462Y18652462D01*
X1391395Y20543529D01*
X18099688Y20543529D01*
X18373145Y19881714D01*
X18879051Y19374924D01*
X19540387Y19100313D01*
X20256471Y19099688D01*
X20918286Y19373145D01*
X21425076Y19879051D01*
X21699687Y20540387D01*
X21700312Y21256471D01*
X21426855Y21918286D01*
X20920949Y22425076D01*
X20259613Y22699687D01*
X19543529Y22700312D01*
X18881714Y22426855D01*
X18374924Y21920949D01*
X18100313Y21259613D01*
X18099688Y20543529D01*
X1391395Y20543529D01*
X1000000Y20934924D01*
X1000000Y22000000D01*
X920074Y22401818D01*
X692462Y22742462D01*
X-1407538Y24842462D01*
X-1748182Y25070074D01*
X-2150000Y25150000D01*
X-10000000Y25150000D01*
X-10401818Y25070074D01*
X-10742462Y24842462D01*
X-12842462Y22742462D01*
X-13070074Y22401818D01*
X-13150000Y22000000D01*
X-13150000Y18341951D01*
X-13413260Y18079151D01*
X-13649730Y17509667D01*
X-13650268Y16893039D01*
X-24375000Y16893039D01*
X-24375000Y20633529D01*
X-21690312Y20633529D01*
X-21416855Y19971714D01*
X-20910949Y19464924D01*
X-20249613Y19190313D01*
X-19533529Y19189688D01*
X-18871714Y19463145D01*
X-18364924Y19969051D01*
X-18090313Y20630387D01*
X-18089688Y21346471D01*
X-18363145Y22008286D01*
X-18869051Y22515076D01*
X-19530387Y22789687D01*
X-20246471Y22790312D01*
X-20908286Y22516855D01*
X-21415076Y22010949D01*
X-21689687Y21349613D01*
X-21690312Y20633529D01*
X-24375000Y20633529D01*
X-24375000Y25375000D01*
X24375000Y25375000D01*
X24375000Y-25375000D01*
X24375000Y-25375000D01*
G37*
X24375000Y-25375000D02*
X7846370Y-25375000D01*
X8655686Y-24565685D01*
X8829104Y-24306147D01*
X8848050Y-24210896D01*
X8890000Y-24000000D01*
X8890000Y-18182182D01*
X9020849Y-18313260D01*
X9590333Y-18549730D01*
X10206961Y-18550268D01*
X10776857Y-18314792D01*
X11213260Y-17879151D01*
X11449730Y-17309667D01*
X11450268Y-16693039D01*
X11214792Y-16123143D01*
X10779151Y-15686740D01*
X10477026Y-15561287D01*
X10465686Y-15544315D01*
X10121371Y-15200000D01*
X10828630Y-15200000D01*
X11740000Y-16111371D01*
X11740000Y-20428629D01*
X11736468Y-20432161D01*
X11659667Y-20400270D01*
X11043039Y-20399732D01*
X10473143Y-20635208D01*
X10036740Y-21070849D01*
X9800270Y-21640333D01*
X9799732Y-22256961D01*
X10035208Y-22826857D01*
X10470849Y-23263260D01*
X11040333Y-23499730D01*
X11656961Y-23500268D01*
X12226857Y-23264792D01*
X12663260Y-22829151D01*
X12899730Y-22259667D01*
X12900268Y-21643039D01*
X12867540Y-21563831D01*
X13105685Y-21325686D01*
X13279104Y-21066147D01*
X13292261Y-21000000D01*
X13340000Y-20760000D01*
X13340000Y-19356471D01*
X18099688Y-19356471D01*
X18373145Y-20018286D01*
X18879051Y-20525076D01*
X19540387Y-20799687D01*
X20256471Y-20800312D01*
X20918286Y-20526855D01*
X21425076Y-20020949D01*
X21699687Y-19359613D01*
X21700312Y-18643529D01*
X21426855Y-17981714D01*
X20920949Y-17474924D01*
X20259613Y-17200313D01*
X19543529Y-17199688D01*
X18881714Y-17473145D01*
X18374924Y-17979051D01*
X18100313Y-18640387D01*
X18099688Y-19356471D01*
X13340000Y-19356471D01*
X13340000Y-15780000D01*
X13279104Y-15473853D01*
X13223075Y-15390000D01*
X13105686Y-15214315D01*
X11725685Y-13834315D01*
X11564389Y-13726539D01*
X12076857Y-13514792D01*
X12513260Y-13079151D01*
X12749730Y-12509667D01*
X12750268Y-11893039D01*
X12514792Y-11323143D01*
X12079151Y-10886740D01*
X11509667Y-10650270D01*
X10893039Y-10649732D01*
X10323143Y-10885208D01*
X10194749Y-11013378D01*
X8950000Y-9768630D01*
X8950000Y-9615765D01*
X9359039Y-9889076D01*
X9900000Y-9996680D01*
X10440961Y-9889076D01*
X10899566Y-9582646D01*
X11205996Y-9124041D01*
X11313600Y-8583080D01*
X11313600Y-8216920D01*
X11205996Y-7675959D01*
X10899566Y-7217354D01*
X10440961Y-6910924D01*
X9900000Y-6803320D01*
X9359039Y-6910924D01*
X8950000Y-7184235D01*
X8950000Y-2150000D01*
X8889104Y-1843853D01*
X8859802Y-1800000D01*
X8715686Y-1584315D01*
X7955961Y-824591D01*
X7915685Y-764314D01*
X7820000Y-668629D01*
X7820000Y-346549D01*
X7896857Y-314792D01*
X8333260Y120849D01*
X8569730Y690333D01*
X8570268Y1306961D01*
X8334792Y1876857D01*
X7899151Y2313260D01*
X7329667Y2549730D01*
X6713039Y2550268D01*
X6310030Y2383748D01*
X6310268Y2656961D01*
X6074792Y3226857D01*
X5639151Y3663260D01*
X5069667Y3899730D01*
X4453039Y3900268D01*
X4249857Y3816315D01*
X4250268Y4286961D01*
X4014792Y4856857D01*
X3579151Y5293260D01*
X3009667Y5529730D01*
X2393039Y5530268D01*
X1823143Y5294792D01*
X1386740Y4859151D01*
X1150270Y4289667D01*
X1149818Y3771363D01*
X1129667Y3779730D01*
X513039Y3780268D01*
X-56857Y3544792D01*
X-493260Y3109151D01*
X-729730Y2539667D01*
X-729900Y2345024D01*
X-2812325Y262599D01*
X-2842462Y242462D01*
X-3000000Y6691D01*
X-3000000Y665076D01*
X-857538Y2807538D01*
X-732230Y2995074D01*
X-629926Y3148182D01*
X-550000Y3550000D01*
X-550000Y7050043D01*
X-193039Y7049732D01*
X376857Y7285208D01*
X813260Y7720849D01*
X843235Y7793039D01*
X5409732Y7793039D01*
X5645208Y7223143D01*
X6080849Y6786740D01*
X6650333Y6550270D01*
X7015124Y6549952D01*
X16470000Y-2904924D01*
X16470000Y-3148775D01*
X16314792Y-2773143D01*
X15879151Y-2336740D01*
X15309667Y-2100270D01*
X14693039Y-2099732D01*
X14123143Y-2335208D01*
X13686740Y-2770849D01*
X13450270Y-3340333D01*
X13449732Y-3956961D01*
X13685208Y-4526857D01*
X13930000Y-4772077D01*
X13930000Y-7292834D01*
X13674004Y-7675959D01*
X13566400Y-8216920D01*
X13566400Y-8583080D01*
X13674004Y-9124041D01*
X13980434Y-9582646D01*
X14439039Y-9889076D01*
X14980000Y-9996680D01*
X15520961Y-9889076D01*
X15979566Y-9582646D01*
X16250000Y-9177913D01*
X16520434Y-9582646D01*
X16979039Y-9889076D01*
X17520000Y-9996680D01*
X18060961Y-9889076D01*
X18519566Y-9582646D01*
X18790000Y-9177913D01*
X19060434Y-9582646D01*
X19519039Y-9889076D01*
X20060000Y-9996680D01*
X20600961Y-9889076D01*
X21059566Y-9582646D01*
X21175625Y-9408951D01*
X21175625Y-9416000D01*
X21213976Y-9619818D01*
X21334432Y-9807012D01*
X21518227Y-9932594D01*
X21736400Y-9976775D01*
X23463600Y-9976775D01*
X23667418Y-9938424D01*
X23854612Y-9817968D01*
X23980194Y-9634173D01*
X24024375Y-9416000D01*
X24024375Y-7384000D01*
X23986024Y-7180182D01*
X23865568Y-6992988D01*
X23681773Y-6867406D01*
X23463600Y-6823225D01*
X21736400Y-6823225D01*
X21532582Y-6861576D01*
X21345388Y-6982032D01*
X21219806Y-7165827D01*
X21175625Y-7384000D01*
X21175625Y-7391049D01*
X21059566Y-7217354D01*
X20600961Y-6910924D01*
X20060000Y-6803320D01*
X19519039Y-6910924D01*
X19060434Y-7217354D01*
X18790000Y-7622087D01*
X18570000Y-7292834D01*
X18570000Y-2470000D01*
X18490074Y-2068182D01*
X18262462Y-1727538D01*
X8509935Y8024989D01*
X8510268Y8406961D01*
X8274792Y8976857D01*
X7839151Y9413260D01*
X7269667Y9649730D01*
X6653039Y9650268D01*
X6083143Y9414792D01*
X5646740Y8979151D01*
X5410270Y8409667D01*
X5409732Y7793039D01*
X843235Y7793039D01*
X1049730Y8290333D01*
X1050268Y8906961D01*
X814792Y9476857D01*
X379151Y9913260D01*
X-190333Y10149730D01*
X-806961Y10150268D01*
X-1376857Y9914792D01*
X-1813260Y9479151D01*
X-2049730Y8909667D01*
X-2050057Y8534867D01*
X-2342462Y8242462D01*
X-2570074Y7901818D01*
X-2650000Y7500000D01*
X-2650000Y3984924D01*
X-4792462Y1842462D01*
X-5020074Y1501818D01*
X-5100000Y1100000D01*
X-5100000Y-5258049D01*
X-5350000Y-5507612D01*
X-5350000Y2765076D01*
X-5165019Y2950057D01*
X-4793039Y2949732D01*
X-4223143Y3185208D01*
X-3786740Y3620849D01*
X-3550270Y4190333D01*
X-3549732Y4806961D01*
X-3785208Y5376857D01*
X-4220849Y5813260D01*
X-4790333Y6049730D01*
X-5406961Y6050268D01*
X-5976857Y5814792D01*
X-6413260Y5379151D01*
X-6649730Y4809667D01*
X-6650057Y4434867D01*
X-7142462Y3942462D01*
X-7370074Y3601818D01*
X-7450000Y3200000D01*
X-7450000Y-2425651D01*
X-7511827Y-2383406D01*
X-7730000Y-2339225D01*
X-9510000Y-2339225D01*
X-9713818Y-2377576D01*
X-9901012Y-2498032D01*
X-10026594Y-2681827D01*
X-10070775Y-2900000D01*
X-10070775Y-5400000D01*
X-10032424Y-5603818D01*
X-9911968Y-5791012D01*
X-9728173Y-5916594D01*
X-9510000Y-5960775D01*
X-7730000Y-5960775D01*
X-7526182Y-5922424D01*
X-7450000Y-5873402D01*
X-7450000Y-9058049D01*
X-7713260Y-9320849D01*
X-7949730Y-9890333D01*
X-7950268Y-10506961D01*
X-7714792Y-11076857D01*
X-7279151Y-11513260D01*
X-6709667Y-11749730D01*
X-6093039Y-11750268D01*
X-5523143Y-11514792D01*
X-5086740Y-11079151D01*
X-4850270Y-10509667D01*
X-4849732Y-9893039D01*
X-5085208Y-9323143D01*
X-5350000Y-9057888D01*
X-5350000Y-7291675D01*
X-4929151Y-7713260D01*
X-4359667Y-7949730D01*
X-3743039Y-7950268D01*
X-3173143Y-7714792D01*
X-3150000Y-7691689D01*
X-3150000Y-11195076D01*
X-7169225Y-15214301D01*
X-7169225Y-12890000D01*
X-7207576Y-12686182D01*
X-7328032Y-12498988D01*
X-7511827Y-12373406D01*
X-7730000Y-12329225D01*
X-9510000Y-12329225D01*
X-9713818Y-12367576D01*
X-9901012Y-12488032D01*
X-10026594Y-12671827D01*
X-10070775Y-12890000D01*
X-10070775Y-15390000D01*
X-10032424Y-15593818D01*
X-9911968Y-15781012D01*
X-9728173Y-15906594D01*
X-9510000Y-15950775D01*
X-7905699Y-15950775D01*
X-10932462Y-18977538D01*
X-11160074Y-19318182D01*
X-11240000Y-19720000D01*
X-11240000Y-22890000D01*
X-11160074Y-23291818D01*
X-10932462Y-23632462D01*
X-9372462Y-25192462D01*
X-9099276Y-25375000D01*
X-24375000Y-25375000D01*
X-24375000Y-19356471D01*
X-21700312Y-19356471D01*
X-21426855Y-20018286D01*
X-20920949Y-20525076D01*
X-20259613Y-20799687D01*
X-19543529Y-20800312D01*
X-18881714Y-20526855D01*
X-18374924Y-20020949D01*
X-18100313Y-19359613D01*
X-18099688Y-18643529D01*
X-18373145Y-17981714D01*
X-18879051Y-17474924D01*
X-19540387Y-17200313D01*
X-20256471Y-17199688D01*
X-20918286Y-17473145D01*
X-21425076Y-17979051D01*
X-21699687Y-18640387D01*
X-21700312Y-19356471D01*
X-24375000Y-19356471D01*
X-24375000Y-13600000D01*
X-23336680Y-13600000D01*
X-23217475Y-14199282D01*
X-22878009Y-14707329D01*
X-22369962Y-15046795D01*
X-21770680Y-15166000D01*
X-21709320Y-15166000D01*
X-21110038Y-15046795D01*
X-20741989Y-14800873D01*
X-20738424Y-14819818D01*
X-20617968Y-15007012D01*
X-20434173Y-15132594D01*
X-20216000Y-15176775D01*
X-18184000Y-15176775D01*
X-17980182Y-15138424D01*
X-17792988Y-15017968D01*
X-17667406Y-14834173D01*
X-17623225Y-14616000D01*
X-17623225Y-12584000D01*
X-17661576Y-12380182D01*
X-17782032Y-12192988D01*
X-17965827Y-12067406D01*
X-18184000Y-12023225D01*
X-20216000Y-12023225D01*
X-20419818Y-12061576D01*
X-20607012Y-12182032D01*
X-20732594Y-12365827D01*
X-20739653Y-12400688D01*
X-21110038Y-12153205D01*
X-21709320Y-12034000D01*
X-21770680Y-12034000D01*
X-22369962Y-12153205D01*
X-22878009Y-12492671D01*
X-23217475Y-13000718D01*
X-23336680Y-13600000D01*
X-24375000Y-13600000D01*
X-24375000Y14593039D01*
X-21650268Y14593039D01*
X-21414792Y14023143D01*
X-21400000Y14008325D01*
X-21400000Y-6850000D01*
X-21301043Y-7347489D01*
X-21019239Y-7769239D01*
X-18250252Y-10538226D01*
X-18250268Y-10556961D01*
X-18014792Y-11126857D01*
X-17579151Y-11563260D01*
X-17425000Y-11627269D01*
X-17425000Y-18625000D01*
X-17326043Y-19122489D01*
X-17044239Y-19544239D01*
X-16900252Y-19688226D01*
X-16900268Y-19706961D01*
X-16664792Y-20276857D01*
X-16229151Y-20713260D01*
X-15659667Y-20949730D01*
X-15043039Y-20950268D01*
X-14473143Y-20714792D01*
X-14036740Y-20279151D01*
X-13800270Y-19709667D01*
X-13799732Y-19093039D01*
X-14035208Y-18523143D01*
X-14470849Y-18086740D01*
X-14825000Y-17939684D01*
X-14825000Y-15895097D01*
X-14808173Y-15906594D01*
X-14590000Y-15950775D01*
X-12810000Y-15950775D01*
X-12606182Y-15912424D01*
X-12418988Y-15791968D01*
X-12293406Y-15608173D01*
X-12249225Y-15390000D01*
X-12249225Y-12890000D01*
X-12287576Y-12686182D01*
X-12408032Y-12498988D01*
X-12591827Y-12373406D01*
X-12810000Y-12329225D01*
X-14590000Y-12329225D01*
X-14793818Y-12367576D01*
X-14825000Y-12387641D01*
X-14825000Y-10825000D01*
X-14923957Y-10327512D01*
X-15149773Y-9989554D01*
X-15149732Y-9943039D01*
X-15385208Y-9373143D01*
X-15820849Y-8936740D01*
X-16390333Y-8700270D01*
X-16411270Y-8700252D01*
X-18800000Y-6311522D01*
X-18800000Y-2900000D01*
X-15150775Y-2900000D01*
X-15150775Y-5400000D01*
X-15112424Y-5603818D01*
X-14991968Y-5791012D01*
X-14808173Y-5916594D01*
X-14590000Y-5960775D01*
X-12810000Y-5960775D01*
X-12606182Y-5922424D01*
X-12418988Y-5801968D01*
X-12293406Y-5618173D01*
X-12249225Y-5400000D01*
X-12249225Y-2900000D01*
X-12287576Y-2696182D01*
X-12408032Y-2508988D01*
X-12591827Y-2383406D01*
X-12810000Y-2339225D01*
X-14590000Y-2339225D01*
X-14793818Y-2377576D01*
X-14981012Y-2498032D01*
X-15106594Y-2681827D01*
X-15150775Y-2900000D01*
X-18800000Y-2900000D01*
X-18800000Y14007612D01*
X-18786740Y14020849D01*
X-18550270Y14590333D01*
X-18549732Y15206961D01*
X-18785208Y15776857D01*
X-19220849Y16213260D01*
X-19790333Y16449730D01*
X-20406961Y16450268D01*
X-20976857Y16214792D01*
X-21413260Y15779151D01*
X-21649730Y15209667D01*
X-21650268Y14593039D01*
X-24375000Y14593039D01*
X-24375000Y16893039D01*
X-13650268Y16893039D01*
X-13414792Y16323143D01*
X-12979151Y15886740D01*
X-12409667Y15650270D01*
X-11793039Y15649732D01*
X-11223143Y15885208D01*
X-10829696Y16277968D01*
X-10439151Y15886740D01*
X-9869667Y15650270D01*
X-9253039Y15649732D01*
X-8683143Y15885208D01*
X-8246740Y16320849D01*
X-8010270Y16890333D01*
X-8010268Y16893039D01*
X-4090268Y16893039D01*
X-3854792Y16323143D01*
X-3419151Y15886740D01*
X-2849667Y15650270D01*
X-2233039Y15649732D01*
X-1663143Y15885208D01*
X-1226740Y16320849D01*
X-990270Y16890333D01*
X-989732Y17506961D01*
X-1225208Y18076857D01*
X-1660849Y18513260D01*
X-2230333Y18749730D01*
X-2846961Y18750268D01*
X-3416857Y18514792D01*
X-3853260Y18079151D01*
X-4089730Y17509667D01*
X-4090268Y16893039D01*
X-8010268Y16893039D01*
X-8009732Y17506961D01*
X-8245208Y18076857D01*
X-8680849Y18513260D01*
X-9250333Y18749730D01*
X-9866961Y18750268D01*
X-10436857Y18514792D01*
X-10830304Y18122032D01*
X-11050000Y18342112D01*
X-11050000Y21565076D01*
X-9565076Y23050000D01*
X-2584924Y23050000D01*
X-1100000Y21565076D01*
X-1100000Y20500000D01*
X-1020074Y20098182D01*
X-792462Y19757538D01*
X1126744Y17838332D01*
X990270Y17509667D01*
X989732Y16893039D01*
X1225208Y16323143D01*
X1660849Y15886740D01*
X2230333Y15650270D01*
X2846961Y15649732D01*
X3416857Y15885208D01*
X3682112Y16150000D01*
X5665076Y16150000D01*
X7507538Y14307538D01*
X7848182Y14079926D01*
X8250000Y14000000D01*
X11350000Y14000000D01*
X11751818Y14079926D01*
X12092462Y14307538D01*
X12842462Y15057538D01*
X13070074Y15398182D01*
X13150000Y15800000D01*
X13150000Y16058049D01*
X13370304Y16277968D01*
X13600000Y16047870D01*
X13600000Y15434924D01*
X10815019Y12649943D01*
X10443039Y12650268D01*
X9873143Y12414792D01*
X9436740Y11979151D01*
X9200270Y11409667D01*
X9199732Y10793039D01*
X9435208Y10223143D01*
X9870849Y9786740D01*
X10440333Y9550270D01*
X11056961Y9549732D01*
X11626857Y9785208D01*
X12063260Y10220849D01*
X12299730Y10790333D01*
X12300057Y11165133D01*
X15392462Y14257538D01*
X15425871Y14307538D01*
X15620074Y14598182D01*
X15700000Y15000000D01*
X15700000Y16068031D01*
X15953260Y16320849D01*
X16189730Y16890333D01*
X16189775Y16943039D01*
X16449732Y16943039D01*
X16685208Y16373143D01*
X16950000Y16107888D01*
X16950000Y2841951D01*
X16686740Y2579151D01*
X16450270Y2009667D01*
X16449732Y1393039D01*
X16685208Y823143D01*
X17120849Y386740D01*
X17690333Y150270D01*
X18306961Y149732D01*
X18876857Y385208D01*
X19313260Y820849D01*
X19549730Y1390333D01*
X19550268Y2006961D01*
X19314792Y2576857D01*
X19050000Y2842112D01*
X19050000Y16108049D01*
X19313260Y16370849D01*
X19549730Y16940333D01*
X19550268Y17556961D01*
X19314792Y18126857D01*
X18879151Y18563260D01*
X18309667Y18799730D01*
X17693039Y18800268D01*
X17123143Y18564792D01*
X16686740Y18129151D01*
X16450270Y17559667D01*
X16449732Y16943039D01*
X16189775Y16943039D01*
X16190268Y17506961D01*
X15954792Y18076857D01*
X15519151Y18513260D01*
X14949667Y18749730D01*
X14333039Y18750268D01*
X13763143Y18514792D01*
X13369696Y18122032D01*
X12979151Y18513260D01*
X12409667Y18749730D01*
X11793039Y18750268D01*
X11223143Y18514792D01*
X10786740Y18079151D01*
X10550270Y17509667D01*
X10549732Y16893039D01*
X10785208Y16323143D01*
X10961559Y16146483D01*
X10915076Y16100000D01*
X8684924Y16100000D01*
X6842462Y17942462D01*
X6501818Y18170074D01*
X6100000Y18250000D01*
X3681951Y18250000D01*
X3419151Y18513260D01*
X3358703Y18538360D01*
X3282462Y18652462D01*
X1391395Y20543529D01*
X18099688Y20543529D01*
X18373145Y19881714D01*
X18879051Y19374924D01*
X19540387Y19100313D01*
X20256471Y19099688D01*
X20918286Y19373145D01*
X21425076Y19879051D01*
X21699687Y20540387D01*
X21700312Y21256471D01*
X21426855Y21918286D01*
X20920949Y22425076D01*
X20259613Y22699687D01*
X19543529Y22700312D01*
X18881714Y22426855D01*
X18374924Y21920949D01*
X18100313Y21259613D01*
X18099688Y20543529D01*
X1391395Y20543529D01*
X1000000Y20934924D01*
X1000000Y22000000D01*
X920074Y22401818D01*
X692462Y22742462D01*
X-1407538Y24842462D01*
X-1748182Y25070074D01*
X-2150000Y25150000D01*
X-10000000Y25150000D01*
X-10401818Y25070074D01*
X-10742462Y24842462D01*
X-12842462Y22742462D01*
X-13070074Y22401818D01*
X-13150000Y22000000D01*
X-13150000Y18341951D01*
X-13413260Y18079151D01*
X-13649730Y17509667D01*
X-13650268Y16893039D01*
X-24375000Y16893039D01*
X-24375000Y20633529D01*
X-21690312Y20633529D01*
X-21416855Y19971714D01*
X-20910949Y19464924D01*
X-20249613Y19190313D01*
X-19533529Y19189688D01*
X-18871714Y19463145D01*
X-18364924Y19969051D01*
X-18090313Y20630387D01*
X-18089688Y21346471D01*
X-18363145Y22008286D01*
X-18869051Y22515076D01*
X-19530387Y22789687D01*
X-20246471Y22790312D01*
X-20908286Y22516855D01*
X-21415076Y22010949D01*
X-21689687Y21349613D01*
X-21690312Y20633529D01*
X-24375000Y20633529D01*
X-24375000Y25375000D01*
X24375000Y25375000D01*
X24375000Y-25375000D01*
G36*
X-7850000Y-20200000D02*
X-7810271Y-20399732D01*
X-7789104Y-20506147D01*
X-7615685Y-20765685D01*
X-6636094Y-21745276D01*
X-6679722Y-21850344D01*
X-6680277Y-22486863D01*
X-6437205Y-23075143D01*
X-6112915Y-23400000D01*
X-8195076Y-23400000D01*
X-9140000Y-22455076D01*
X-9140000Y-20154924D01*
X-7850000Y-18864924D01*
X-7850000Y-20200000D01*
X-7850000Y-20200000D01*
G37*
X-7850000Y-20200000D02*
X-7810271Y-20399732D01*
X-7789104Y-20506147D01*
X-7615685Y-20765685D01*
X-6636094Y-21745276D01*
X-6679722Y-21850344D01*
X-6680277Y-22486863D01*
X-6437205Y-23075143D01*
X-6112915Y-23400000D01*
X-8195076Y-23400000D01*
X-9140000Y-22455076D01*
X-9140000Y-20154924D01*
X-7850000Y-18864924D01*
X-7850000Y-20200000D01*
G36*
X1100000Y-4509459D02*
X1100000Y-11900000D01*
X1144755Y-12125000D01*
X1160896Y-12206147D01*
X1334315Y-12465685D01*
X5384315Y-16515685D01*
X6144314Y-17275685D01*
X6144317Y-17275687D01*
X6220000Y-17351370D01*
X6220000Y-21047272D01*
X5987511Y-20814377D01*
X5399656Y-20570278D01*
X4763137Y-20569723D01*
X4174857Y-20812795D01*
X3809758Y-21177257D01*
X3447511Y-20814377D01*
X2859656Y-20570278D01*
X2223137Y-20569723D01*
X1634857Y-20812795D01*
X1269758Y-21177257D01*
X907511Y-20814377D01*
X319656Y-20570278D01*
X-316863Y-20569723D01*
X-905143Y-20812795D01*
X-1270242Y-21177257D01*
X-1632489Y-20814377D01*
X-2220344Y-20570278D01*
X-2856863Y-20569723D01*
X-3445143Y-20812795D01*
X-3810242Y-21177257D01*
X-4172489Y-20814377D01*
X-4760344Y-20570278D01*
X-5396863Y-20569723D01*
X-5504452Y-20614178D01*
X-6250000Y-19868630D01*
X-6250000Y-19111370D01*
X245139Y-12616232D01*
X365685Y-12535685D01*
X539104Y-12276147D01*
X600000Y-11970000D01*
X600000Y-4508920D01*
X850166Y-4259190D01*
X1100000Y-4509459D01*
X1100000Y-4509459D01*
G37*
X1100000Y-4509459D02*
X1100000Y-11900000D01*
X1144755Y-12125000D01*
X1160896Y-12206147D01*
X1334315Y-12465685D01*
X5384315Y-16515685D01*
X6144314Y-17275685D01*
X6144317Y-17275687D01*
X6220000Y-17351370D01*
X6220000Y-21047272D01*
X5987511Y-20814377D01*
X5399656Y-20570278D01*
X4763137Y-20569723D01*
X4174857Y-20812795D01*
X3809758Y-21177257D01*
X3447511Y-20814377D01*
X2859656Y-20570278D01*
X2223137Y-20569723D01*
X1634857Y-20812795D01*
X1269758Y-21177257D01*
X907511Y-20814377D01*
X319656Y-20570278D01*
X-316863Y-20569723D01*
X-905143Y-20812795D01*
X-1270242Y-21177257D01*
X-1632489Y-20814377D01*
X-2220344Y-20570278D01*
X-2856863Y-20569723D01*
X-3445143Y-20812795D01*
X-3810242Y-21177257D01*
X-4172489Y-20814377D01*
X-4760344Y-20570278D01*
X-5396863Y-20569723D01*
X-5504452Y-20614178D01*
X-6250000Y-19868630D01*
X-6250000Y-19111370D01*
X245139Y-12616232D01*
X365685Y-12535685D01*
X539104Y-12276147D01*
X600000Y-11970000D01*
X600000Y-4508920D01*
X850166Y-4259190D01*
X1100000Y-4509459D01*
M02*
