G04 #@! TF.FileFunction,Copper,L1,Top,Signal*
%FSLAX46Y46*%
G04 Gerber Fmt 4.6, Leading zero omitted, Abs format (unit mm)*
G04 Created by KiCad (PCBNEW 4.0.0-rc1-stable) date 15.2.2016 17:04:42*
%MOMM*%
G01*
G04 APERTURE LIST*
%ADD10C,0.100000*%
%ADD11C,2.100000*%
%ADD12R,2.032000X2.032000*%
%ADD13O,2.032000X2.032000*%
%ADD14C,3.000000*%
%ADD15C,2.000000*%
%ADD16R,1.727200X2.032000*%
%ADD17O,1.727200X2.032000*%
%ADD18C,2.500000*%
%ADD19R,1.780000X2.500000*%
%ADD20R,0.449580X1.000000*%
%ADD21R,1.000000X0.449580*%
%ADD22R,2.150000X0.950000*%
%ADD23R,2.150000X3.250000*%
%ADD24R,1.200000X0.900000*%
%ADD25R,1.200000X0.750000*%
%ADD26R,0.750000X1.200000*%
%ADD27R,3.149600X1.800860*%
%ADD28R,2.000000X2.900000*%
%ADD29R,0.900000X1.200000*%
%ADD30R,1.200000X2.000000*%
%ADD31R,1.100000X2.000000*%
%ADD32C,1.600000*%
%ADD33C,0.500000*%
%ADD34C,1.000000*%
%ADD35C,1.500000*%
%ADD36C,2.000000*%
%ADD37C,0.750000*%
G04 APERTURE END LIST*
D10*
D11*
X-5080000Y-22170000D03*
X-5080000Y-19630000D03*
X-2540000Y-22170000D03*
X-2540000Y-19630000D03*
X0Y-22170000D03*
X0Y-19630000D03*
X2540000Y-22170000D03*
X2540000Y-19630000D03*
X5080000Y-22170000D03*
X5080000Y-19630000D03*
X-7620000Y-22170000D03*
D12*
X-19200000Y-13600000D03*
D13*
X-21740000Y-13600000D03*
D14*
X-8290000Y20950000D03*
D15*
X-9560000Y17200000D03*
X-12100000Y17200000D03*
X-14640000Y17200000D03*
D14*
X-15910000Y20950000D03*
X3810000Y20950000D03*
D15*
X2540000Y17200000D03*
X0Y17200000D03*
X-2540000Y17200000D03*
D14*
X-3810000Y20950000D03*
X15910000Y20950000D03*
D15*
X14640000Y17200000D03*
X12100000Y17200000D03*
X9560000Y17200000D03*
D14*
X8290000Y20950000D03*
D16*
X22600000Y-8400000D03*
D17*
X20060000Y-8400000D03*
X17520000Y-8400000D03*
X14980000Y-8400000D03*
X12440000Y-8400000D03*
X9900000Y-8400000D03*
D18*
X-19890000Y20990000D03*
X19900000Y20900000D03*
X-19900000Y-19000000D03*
D19*
X-8620000Y-14140000D03*
X-11160000Y-14140000D03*
X-13700000Y-14140000D03*
X-8620000Y-4150000D03*
X-11160000Y-4150000D03*
X-13700000Y-4150000D03*
D20*
X-600000Y-1250000D03*
X197560Y-1250000D03*
X997660Y-1250000D03*
X1797760Y-1250000D03*
X2597860Y-1250000D03*
X3397960Y-1250000D03*
X4198060Y-1250000D03*
X4998160Y-1250000D03*
X5798260Y-1250000D03*
X6598360Y-1250000D03*
X7398460Y-1250000D03*
D21*
X9399980Y748980D03*
X9399980Y1549080D03*
X9399980Y2349180D03*
X9399980Y3149280D03*
X9399980Y3949380D03*
X9399980Y4749480D03*
X9399980Y5549580D03*
X9399980Y6349680D03*
X9399980Y7149780D03*
X9399980Y7949880D03*
X9399980Y8749980D03*
D20*
X7398460Y10748960D03*
X6598360Y10748960D03*
X5798260Y10748960D03*
X4998160Y10748960D03*
X4198060Y10748960D03*
X3397960Y10748960D03*
X2597860Y10748960D03*
X1797760Y10748960D03*
X997660Y10748960D03*
X197560Y10748960D03*
X-600000Y10748960D03*
D21*
X-2598980Y8749980D03*
X-2598980Y7949880D03*
X-2598980Y7149780D03*
X-2598980Y6349680D03*
X-2598980Y5549580D03*
X-2598980Y4749480D03*
X-2598980Y3949380D03*
X-2598980Y3149280D03*
X-2598980Y2349180D03*
X-2598980Y1549080D03*
X-2598980Y748980D03*
D22*
X-17100000Y4400000D03*
X-17100000Y-200000D03*
X-17100000Y2100000D03*
D23*
X-22900000Y2100000D03*
D24*
X-8300000Y-800000D03*
X-6100000Y-800000D03*
X-18700000Y-10250000D03*
X-20900000Y-10250000D03*
D25*
X-11350000Y-800000D03*
X-13250000Y-800000D03*
D26*
X20000000Y17250000D03*
X20000000Y15350000D03*
D25*
X6450000Y12900000D03*
X8350000Y12900000D03*
X-12650000Y12900000D03*
X-14550000Y12900000D03*
D26*
X-14100000Y6150000D03*
X-14100000Y8050000D03*
D27*
X-17674020Y-4400000D03*
X-21925980Y-4400000D03*
D26*
X-5100000Y10250000D03*
X-5100000Y8350000D03*
D25*
X-950000Y12900000D03*
X950000Y12900000D03*
D26*
X11850000Y5050000D03*
X11850000Y3150000D03*
D27*
X-22325980Y8700000D03*
X-18074020Y8700000D03*
D28*
X-8410000Y7940000D03*
X-8400000Y4120000D03*
X-11180000Y4120000D03*
X-11170000Y7950000D03*
D18*
X19900000Y-19000000D03*
D24*
X19200000Y4400000D03*
X21400000Y4400000D03*
X19200000Y8400000D03*
X21400000Y8400000D03*
X19200000Y12500000D03*
X21400000Y12500000D03*
X16700000Y4400000D03*
X14500000Y4400000D03*
X16700000Y8400000D03*
X14500000Y8400000D03*
X16700000Y12500000D03*
X14500000Y12500000D03*
X19200000Y-1200000D03*
X21400000Y-1200000D03*
X16700000Y-1200000D03*
X14500000Y-1200000D03*
X14750000Y-24300000D03*
X12550000Y-24300000D03*
D29*
X14900000Y-19200000D03*
X14900000Y-17000000D03*
X12500000Y-19200000D03*
X12500000Y-17000000D03*
D30*
X3680000Y-14800000D03*
X3680000Y-5900000D03*
X1140000Y-5900000D03*
X-1400000Y-5900000D03*
X1140000Y-14800000D03*
D31*
X-1400000Y-14800000D03*
D15*
X3460000Y8460000D03*
X600000Y6190000D03*
X-8100000Y12600000D03*
X-13575000Y4475000D03*
X-15350000Y-19400000D03*
X-20100000Y14900000D03*
X-16700000Y-10250000D03*
X-5100000Y4500000D03*
X-6400000Y-10200000D03*
X18000000Y1700000D03*
X18000000Y17250000D03*
D32*
X-200000Y-3400000D03*
D15*
X820000Y2230000D03*
D32*
X4100000Y-3400000D03*
X1900000Y-3400000D03*
D15*
X6960000Y8100000D03*
X15000000Y-3650000D03*
X-500000Y8600000D03*
X-4050000Y-6400000D03*
X10750000Y11100000D03*
X11350000Y-21950000D03*
X4760000Y2350000D03*
X11200000Y-12200000D03*
X7020000Y1000000D03*
X9900000Y-17000000D03*
X2700000Y3980000D03*
D33*
X5798260Y9548260D02*
X5798260Y10748960D01*
X3460000Y8460000D02*
X4710000Y8460000D01*
X4710000Y8460000D02*
X5798260Y9548260D01*
X600000Y6190000D02*
X1440000Y6190000D01*
X6050000Y5450000D02*
X4260000Y5450000D01*
X8300520Y4749480D02*
X9399980Y4749480D01*
X7600000Y5450000D02*
X6050000Y5450000D01*
X8300520Y4749480D02*
X7600000Y5450000D01*
X3990000Y5720000D02*
X4260000Y5450000D01*
X1910000Y5720000D02*
X3990000Y5720000D01*
X1440000Y6190000D02*
X1910000Y5720000D01*
X600000Y6190000D02*
X600000Y6130000D01*
X600000Y6130000D02*
X-1130000Y4400000D01*
X-1130000Y1110000D02*
X-1130000Y4400000D01*
X1797760Y-1250000D02*
X1797760Y-257760D01*
X1797760Y-257760D02*
X1260000Y280000D01*
X1260000Y280000D02*
X-300000Y280000D01*
X-300000Y280000D02*
X-1130000Y1110000D01*
X-1130000Y4380000D02*
X-1130000Y4400000D01*
X820000Y6410000D02*
X600000Y6190000D01*
D34*
X-7620000Y-19630000D02*
X-7620000Y-22170000D01*
D33*
X9399460Y4750000D02*
X9399980Y4749480D01*
D34*
X-5750000Y10250000D02*
X-8100000Y12600000D01*
X-5100000Y10250000D02*
X-5750000Y10250000D01*
D33*
X9399980Y4749480D02*
X11549480Y4749480D01*
X11549480Y4749480D02*
X11850000Y5050000D01*
D34*
X21400000Y4400000D02*
X21400000Y-1200000D01*
X21400000Y8400000D02*
X21400000Y6300000D01*
X21400000Y6300000D02*
X21400000Y4400000D01*
X21400000Y12500000D02*
X21400000Y8400000D01*
X21400000Y12500000D02*
X21400000Y15350000D01*
X21400000Y15350000D02*
X21650000Y15350000D01*
X12440000Y-8400000D02*
X12440000Y-9640000D01*
X16400000Y-19200000D02*
X14900000Y-19200000D01*
X17200000Y-18400000D02*
X16400000Y-19200000D01*
X17200000Y-14400000D02*
X17200000Y-18400000D01*
X12440000Y-9640000D02*
X17200000Y-14400000D01*
X14900000Y-19200000D02*
X14900000Y-24150000D01*
X14900000Y-24150000D02*
X14750000Y-24300000D01*
X14900000Y-19200000D02*
X12500000Y-19200000D01*
X2540000Y-19630000D02*
X5080000Y-19630000D01*
X0Y-19630000D02*
X2540000Y-19630000D01*
X-2540000Y-19630000D02*
X0Y-19630000D01*
X-5080000Y-19630000D02*
X-2540000Y-19630000D01*
X-11160000Y-13640000D02*
X-11160000Y-17340000D01*
X-8870000Y-19630000D02*
X-7620000Y-19630000D01*
X-7620000Y-19630000D02*
X-5080000Y-19630000D01*
X-11160000Y-17340000D02*
X-8870000Y-19630000D01*
X-17674020Y-4400000D02*
X-17674020Y-5775980D01*
X-11160000Y-12290000D02*
X-11160000Y-13640000D01*
X-17674020Y-5775980D02*
X-11160000Y-12290000D01*
X-11350000Y-800000D02*
X-11350000Y-4460000D01*
X-11350000Y-4460000D02*
X-11160000Y-4650000D01*
X-14100000Y6150000D02*
X-14100000Y5000000D01*
X-13220000Y4120000D02*
X-11180000Y4120000D01*
X-14100000Y5000000D02*
X-13575000Y4475000D01*
X-13575000Y4475000D02*
X-13220000Y4120000D01*
D35*
X-17100000Y-200000D02*
X-17100000Y-1800000D01*
X-17674020Y-2374020D02*
X-17674020Y-4400000D01*
X-17100000Y-1800000D02*
X-17674020Y-2374020D01*
D36*
X-22640000Y14900000D02*
X-22640000Y9014020D01*
X-22640000Y9014020D02*
X-22325980Y8700000D01*
D34*
X-22640000Y14900000D02*
X-22640000Y22260000D01*
X-18560000Y23600000D02*
X-15910000Y20950000D01*
X-21300000Y23600000D02*
X-18560000Y23600000D01*
X-22640000Y22260000D02*
X-21300000Y23600000D01*
X0Y17200000D02*
X0Y20950000D01*
X0Y20950000D02*
X0Y20900000D01*
X0Y20900000D02*
X0Y20950000D01*
X8290000Y20950000D02*
X8290000Y18470000D01*
X8290000Y18470000D02*
X9560000Y17200000D01*
X15910000Y20950000D02*
X15910000Y23410000D01*
X21650000Y15350000D02*
X20000000Y15350000D01*
X22600000Y16300000D02*
X21650000Y15350000D01*
X22600000Y23000000D02*
X22600000Y16300000D01*
X21400000Y24200000D02*
X22600000Y23000000D01*
X16700000Y24200000D02*
X21400000Y24200000D01*
X15910000Y23410000D02*
X16700000Y24200000D01*
X9560000Y17200000D02*
X9560000Y15560000D01*
X9560000Y15560000D02*
X8350000Y14350000D01*
X8350000Y14350000D02*
X8350000Y12900000D01*
X0Y17200000D02*
X0Y15700000D01*
X0Y15700000D02*
X-950000Y14750000D01*
X-950000Y14750000D02*
X-950000Y12900000D01*
X8290000Y20950000D02*
X15910000Y20950000D01*
X3810000Y20950000D02*
X8290000Y20950000D01*
X-3810000Y20950000D02*
X0Y20950000D01*
X0Y20950000D02*
X3810000Y20950000D01*
X-8290000Y20950000D02*
X-3810000Y20950000D01*
X-15910000Y20950000D02*
X-8290000Y20950000D01*
X-15910000Y20950000D02*
X-15910000Y18470000D01*
X-15910000Y18470000D02*
X-14640000Y17200000D01*
X-14640000Y17200000D02*
X-14640000Y12990000D01*
X-14640000Y12990000D02*
X-14550000Y12900000D01*
X-11150000Y-4640000D02*
X-11160000Y-4650000D01*
D35*
X5080000Y-22170000D02*
X5080000Y-23070000D01*
X-10350000Y-24400000D02*
X-15350000Y-19400000D01*
X3750000Y-24400000D02*
X-10350000Y-24400000D01*
X5080000Y-23070000D02*
X3750000Y-24400000D01*
D36*
X-18100000Y8725980D02*
X-18100000Y12900000D01*
X-20100000Y14900000D02*
X-18100000Y12900000D01*
D34*
X-16700000Y-10250000D02*
X-18700000Y-10250000D01*
D35*
X-17100000Y4400000D02*
X-17100000Y5400000D01*
X-18074020Y6374020D02*
X-18074020Y8700000D01*
X-17100000Y5400000D02*
X-18074020Y6374020D01*
D36*
X-18100000Y8725980D02*
X-18074020Y8700000D01*
D34*
X-5100000Y4500000D02*
X-5100000Y8350000D01*
X13300000Y1700000D02*
X18000000Y1700000D01*
X11850000Y3150000D02*
X13300000Y1700000D01*
X18000000Y17250000D02*
X17650000Y17250000D01*
X-13700000Y-4650000D02*
X-13700000Y-6400000D01*
X-13700000Y-6400000D02*
X-9900000Y-10200000D01*
X-9900000Y-10200000D02*
X-6400000Y-10200000D01*
X-6400000Y-10200000D02*
X-3700000Y-10200000D01*
X-1400000Y-7900000D02*
X-1400000Y-5900000D01*
X-3700000Y-10200000D02*
X-1400000Y-7900000D01*
D33*
X4998160Y10748960D02*
X4998160Y12900000D01*
X4900000Y12750000D02*
X4900000Y12900000D01*
X4900000Y12801840D02*
X4900000Y12750000D01*
X4998160Y12900000D02*
X4900000Y12801840D01*
X9399980Y3149280D02*
X11849280Y3149280D01*
X11849280Y3149280D02*
X11850000Y3150000D01*
D35*
X9900000Y-8400000D02*
X4800000Y-8400000D01*
X3680000Y-7280000D02*
X3680000Y-5900000D01*
X4800000Y-8400000D02*
X3680000Y-7280000D01*
X1140000Y-5900000D02*
X3680000Y-5900000D01*
X-1400000Y-5900000D02*
X1140000Y-5900000D01*
D34*
X950000Y12900000D02*
X4900000Y12900000D01*
X4900000Y12900000D02*
X6450000Y12900000D01*
D33*
X-2598980Y7949880D02*
X-4699880Y7949880D01*
X-4699880Y7949880D02*
X-5100000Y8350000D01*
D34*
X-13250000Y650000D02*
X-9750000Y650000D01*
X-9750000Y650000D02*
X-8300000Y-800000D01*
X-13250000Y-800000D02*
X-13250000Y-1450000D01*
X-13700000Y-1900000D02*
X-13700000Y-4650000D01*
X-13250000Y-1450000D02*
X-13700000Y-1900000D01*
X-17100000Y2100000D02*
X-14700000Y2100000D01*
X-13250000Y650000D02*
X-13250000Y-800000D01*
X-14700000Y2100000D02*
X-13250000Y650000D01*
X-12650000Y12900000D02*
X-12650000Y8050000D01*
X-12700000Y8100000D02*
X-12700000Y8050000D01*
X-12650000Y8050000D02*
X-12700000Y8100000D01*
X-5100000Y8350000D02*
X-8000000Y8350000D01*
X-8000000Y8350000D02*
X-8410000Y7940000D01*
X-14100000Y8050000D02*
X-12700000Y8050000D01*
X-12700000Y8050000D02*
X-11270000Y8050000D01*
X-11270000Y8050000D02*
X-11170000Y7950000D01*
D36*
X-11170000Y7950000D02*
X-8420000Y7950000D01*
X-8420000Y7950000D02*
X-8410000Y7940000D01*
X-22900000Y2100000D02*
X-22900000Y-1100000D01*
X-21925980Y-2074020D02*
X-21925980Y-4400000D01*
X-22900000Y-1100000D02*
X-21925980Y-2074020D01*
D35*
X-17100000Y2100000D02*
X-22900000Y2100000D01*
D34*
X12100000Y17200000D02*
X12100000Y16000000D01*
X15600000Y15200000D02*
X17650000Y17250000D01*
X12900000Y15200000D02*
X15600000Y15200000D01*
X12100000Y16000000D02*
X12900000Y15200000D01*
X17650000Y17250000D02*
X20000000Y17250000D01*
X2540000Y17200000D02*
X2540000Y15740000D01*
X950000Y14150000D02*
X950000Y12900000D01*
X2540000Y15740000D02*
X950000Y14150000D01*
X-12100000Y17200000D02*
X-12100000Y15500000D01*
X-12650000Y14950000D02*
X-12650000Y12900000D01*
X-12100000Y15500000D02*
X-12650000Y14950000D01*
D33*
X197560Y-1250000D02*
X197560Y-3002440D01*
X197560Y-3002440D02*
X-200000Y-3400000D01*
X820000Y2230000D02*
X2040000Y1010000D01*
X2460000Y580000D02*
X4480000Y580000D01*
X2040000Y1000000D02*
X2460000Y580000D01*
X2040000Y1010000D02*
X2040000Y1000000D01*
X4470000Y590000D02*
X4480000Y580000D01*
X4480000Y580000D02*
X5000000Y60000D01*
X5000000Y-1248160D02*
X5000000Y60000D01*
X5000000Y-1248160D02*
X4998160Y-1250000D01*
X4198060Y-3301940D02*
X4198060Y-1250000D01*
X4198060Y-3301940D02*
X4100000Y-3400000D01*
X997660Y-1250000D02*
X997660Y-2497660D01*
X997660Y-2497660D02*
X1900000Y-3400000D01*
X6598360Y-1250000D02*
X6598360Y-3198360D01*
X22600000Y-6900000D02*
X22600000Y-8400000D01*
X20900000Y-5200000D02*
X22600000Y-6900000D01*
X8600000Y-5200000D02*
X20900000Y-5200000D01*
X6598360Y-3198360D02*
X8600000Y-5200000D01*
X5798260Y-1250000D02*
X5798260Y-3998260D01*
X17860000Y-6200000D02*
X20060000Y-8400000D01*
X8000000Y-6200000D02*
X17860000Y-6200000D01*
X5798260Y-3998260D02*
X8000000Y-6200000D01*
X6598360Y9751640D02*
X6960000Y9390000D01*
X6960000Y9390000D02*
X6960000Y8100000D01*
X6598360Y10748960D02*
X6598360Y9751640D01*
X7398460Y-1250000D02*
X7398460Y-2298460D01*
D34*
X14800000Y-3450000D02*
X15000000Y-3650000D01*
X11650000Y-3450000D02*
X14800000Y-3450000D01*
D33*
X8550000Y-3450000D02*
X11650000Y-3450000D01*
X7398460Y-2298460D02*
X8550000Y-3450000D01*
D34*
X15000000Y-3650000D02*
X14950000Y-3650000D01*
D37*
X-850000Y-1250000D02*
X-2950000Y-1250000D01*
D33*
X-600000Y-1250000D02*
X-850000Y-1250000D01*
D37*
X-2950000Y-1250000D02*
X-8320000Y4120000D01*
X-8320000Y4120000D02*
X-8400000Y4120000D01*
D33*
X-2540000Y17200000D02*
X-2540000Y11690000D01*
X-1598960Y10748960D02*
X-600000Y10748960D01*
X-2540000Y11690000D02*
X-1598960Y10748960D01*
D35*
X-13700000Y-13640000D02*
X-19160000Y-13640000D01*
X-19160000Y-13640000D02*
X-19200000Y-13600000D01*
D34*
X-13890000Y-13450000D02*
X-13700000Y-13640000D01*
X-20900000Y-10250000D02*
X-20900000Y-11150000D01*
X-21740000Y-11990000D02*
X-21740000Y-13600000D01*
X-20900000Y-11150000D02*
X-21740000Y-11990000D01*
D33*
X6550320Y6349680D02*
X4680320Y6349680D01*
X9399980Y6349680D02*
X6550320Y6349680D01*
X2590000Y6720000D02*
X710000Y8600000D01*
X4310000Y6720000D02*
X2590000Y6720000D01*
X4680320Y6349680D02*
X4310000Y6720000D01*
X710000Y8600000D02*
X-500000Y8600000D01*
D34*
X-4050000Y-6400000D02*
X-5800000Y-4650000D01*
X-6100000Y-800000D02*
X-6100000Y-4350000D01*
X-6100000Y-4350000D02*
X-5800000Y-4650000D01*
X-8620000Y-4650000D02*
X-5800000Y-4650000D01*
D33*
X10398960Y10748960D02*
X10750000Y11100000D01*
X7398460Y10748960D02*
X10398960Y10748960D01*
X-4350000Y11990000D02*
X-4340000Y11990000D01*
D34*
X-9560000Y17200000D02*
X-4350000Y11990000D01*
D33*
X-2598980Y10098980D02*
X-2598980Y8749980D01*
X-2598980Y10248980D02*
X-2598980Y10098980D01*
X-4340000Y11990000D02*
X-2598980Y10248980D01*
D34*
X16700000Y4400000D02*
X19200000Y4400000D01*
X16700000Y8400000D02*
X19200000Y8400000D01*
X16700000Y12500000D02*
X19200000Y12500000D01*
X16700000Y-1200000D02*
X19200000Y-1200000D01*
D33*
X9399980Y748980D02*
X10851020Y748980D01*
X12800000Y-1200000D02*
X14500000Y-1200000D01*
X10851020Y748980D02*
X12800000Y-1200000D01*
X5220000Y2810000D02*
X4760000Y2350000D01*
X8350820Y2349180D02*
X7890000Y2810000D01*
X8350820Y2349180D02*
X9399980Y2349180D01*
X7890000Y2810000D02*
X5220000Y2810000D01*
D34*
X-1400000Y-14800000D02*
X-1400000Y-16800000D01*
X12550000Y-23150000D02*
X12550000Y-24300000D01*
X7000000Y-17600000D02*
X11350000Y-21950000D01*
X11350000Y-21950000D02*
X12550000Y-23150000D01*
X-600000Y-17600000D02*
X7000000Y-17600000D01*
X-1400000Y-16800000D02*
X-600000Y-17600000D01*
D33*
X7569080Y1549080D02*
X7020000Y1000000D01*
X8099080Y1549080D02*
X9399980Y1549080D01*
X8099080Y1549080D02*
X7569080Y1549080D01*
D34*
X14200000Y-14700000D02*
X12200000Y-12700000D01*
X1140000Y-13010000D02*
X1950000Y-12200000D01*
X1950000Y-12200000D02*
X8900000Y-12200000D01*
X14200000Y-14700000D02*
X14900000Y-15400000D01*
X14900000Y-17000000D02*
X14900000Y-15400000D01*
X1140000Y-13010000D02*
X1140000Y-14800000D01*
X11750000Y-12200000D02*
X11200000Y-12200000D01*
X11200000Y-12200000D02*
X8900000Y-12200000D01*
X12200000Y-12650000D02*
X11750000Y-12200000D01*
X12200000Y-12700000D02*
X12200000Y-12650000D01*
D33*
X2920000Y4200000D02*
X2700000Y3980000D01*
X7450620Y3949380D02*
X9399980Y3949380D01*
X7450620Y3949380D02*
X7200000Y4200000D01*
X4470000Y4200000D02*
X7200000Y4200000D01*
X4470000Y4200000D02*
X2920000Y4200000D01*
D34*
X3680000Y-14800000D02*
X7700000Y-14800000D01*
X9900000Y-17000000D02*
X11000000Y-17000000D01*
X11000000Y-17000000D02*
X12500000Y-17000000D01*
X7700000Y-14800000D02*
X9900000Y-17000000D01*
D33*
X9399980Y7149780D02*
X12650220Y7149780D01*
D37*
X14500000Y5300000D02*
X14500000Y4400000D01*
X12650220Y7149780D02*
X14500000Y5300000D01*
D33*
X9399980Y7949880D02*
X11799880Y7949880D01*
X12250000Y8400000D02*
X14500000Y8400000D01*
X11799880Y7949880D02*
X12250000Y8400000D01*
X10749980Y8749980D02*
X11049980Y8749980D01*
X9399980Y8749980D02*
X10749980Y8749980D01*
X11049980Y8749980D02*
X14500000Y12200000D01*
X14500000Y12200000D02*
X14500000Y12500000D01*
D10*
G36*
X24375000Y-25375000D02*
X4585787Y-25375000D01*
X4669239Y-25319239D01*
X5999239Y-23989239D01*
X6281043Y-23567489D01*
X6364354Y-23148655D01*
X6435623Y-23077511D01*
X6679722Y-22489656D01*
X6680277Y-21853137D01*
X6437205Y-21264857D01*
X5987511Y-20814377D01*
X5399656Y-20570278D01*
X4763137Y-20569723D01*
X4174857Y-20812795D01*
X3809758Y-21177257D01*
X3447511Y-20814377D01*
X2859656Y-20570278D01*
X2223137Y-20569723D01*
X1634857Y-20812795D01*
X1269758Y-21177257D01*
X907511Y-20814377D01*
X319656Y-20570278D01*
X-316863Y-20569723D01*
X-905143Y-20812795D01*
X-1270242Y-21177257D01*
X-1632489Y-20814377D01*
X-2220344Y-20570278D01*
X-2856863Y-20569723D01*
X-3445143Y-20812795D01*
X-3810242Y-21177257D01*
X-4172489Y-20814377D01*
X-4760344Y-20570278D01*
X-5396863Y-20569723D01*
X-5985143Y-20812795D01*
X-6435623Y-21262489D01*
X-6679722Y-21850344D01*
X-6680277Y-22486863D01*
X-6437205Y-23075143D01*
X-6412391Y-23100000D01*
X-9811522Y-23100000D01*
X-13799748Y-19111774D01*
X-13799732Y-19093039D01*
X-14035208Y-18523143D01*
X-14470849Y-18086740D01*
X-15040333Y-17850270D01*
X-15656961Y-17849732D01*
X-16226857Y-18085208D01*
X-16663260Y-18520849D01*
X-16899730Y-19090333D01*
X-16900268Y-19706961D01*
X-16664792Y-20276857D01*
X-16229151Y-20713260D01*
X-15659667Y-20949730D01*
X-15638730Y-20949748D01*
X-11269239Y-25319239D01*
X-11185786Y-25375000D01*
X-24375000Y-25375000D01*
X-24375000Y-19356471D01*
X-21700312Y-19356471D01*
X-21426855Y-20018286D01*
X-20920949Y-20525076D01*
X-20259613Y-20799687D01*
X-19543529Y-20800312D01*
X-18881714Y-20526855D01*
X-18374924Y-20020949D01*
X-18100313Y-19359613D01*
X-18099688Y-18643529D01*
X-18373145Y-17981714D01*
X-18879051Y-17474924D01*
X-19540387Y-17200313D01*
X-20256471Y-17199688D01*
X-20918286Y-17473145D01*
X-21425076Y-17979051D01*
X-21699687Y-18640387D01*
X-21700312Y-19356471D01*
X-24375000Y-19356471D01*
X-24375000Y-13600000D01*
X-23336680Y-13600000D01*
X-23217475Y-14199282D01*
X-22878009Y-14707329D01*
X-22369962Y-15046795D01*
X-21770680Y-15166000D01*
X-21709320Y-15166000D01*
X-21110038Y-15046795D01*
X-20741989Y-14800873D01*
X-20738424Y-14819818D01*
X-20617968Y-15007012D01*
X-20434173Y-15132594D01*
X-20216000Y-15176775D01*
X-18184000Y-15176775D01*
X-17980182Y-15138424D01*
X-17792988Y-15017968D01*
X-17739715Y-14940000D01*
X-15150775Y-14940000D01*
X-15150775Y-15390000D01*
X-15112424Y-15593818D01*
X-14991968Y-15781012D01*
X-14808173Y-15906594D01*
X-14590000Y-15950775D01*
X-12810000Y-15950775D01*
X-12606182Y-15912424D01*
X-12418988Y-15791968D01*
X-12293406Y-15608173D01*
X-12249225Y-15390000D01*
X-12249225Y-12890000D01*
X-10070775Y-12890000D01*
X-10070775Y-15390000D01*
X-10032424Y-15593818D01*
X-9911968Y-15781012D01*
X-9728173Y-15906594D01*
X-9510000Y-15950775D01*
X-7730000Y-15950775D01*
X-7526182Y-15912424D01*
X-7338988Y-15791968D01*
X-7213406Y-15608173D01*
X-7169225Y-15390000D01*
X-7169225Y-13800000D01*
X-2510775Y-13800000D01*
X-2510775Y-15800000D01*
X-2472424Y-16003818D01*
X-2450000Y-16038666D01*
X-2450000Y-16800000D01*
X-2370074Y-17201818D01*
X-2142462Y-17542462D01*
X-1342462Y-18342462D01*
X-1001818Y-18570074D01*
X-600000Y-18650000D01*
X6565076Y-18650000D01*
X9800057Y-21884981D01*
X9799732Y-22256961D01*
X10035208Y-22826857D01*
X10470849Y-23263260D01*
X11040333Y-23499730D01*
X11415133Y-23500057D01*
X11479477Y-23564401D01*
X11433406Y-23631827D01*
X11389225Y-23850000D01*
X11389225Y-24750000D01*
X11427576Y-24953818D01*
X11548032Y-25141012D01*
X11731827Y-25266594D01*
X11950000Y-25310775D01*
X12352801Y-25310775D01*
X12550000Y-25350000D01*
X12747199Y-25310775D01*
X13150000Y-25310775D01*
X13353818Y-25272424D01*
X13541012Y-25151968D01*
X13666594Y-24968173D01*
X13710775Y-24750000D01*
X13710775Y-23850000D01*
X13672424Y-23646182D01*
X13600000Y-23533632D01*
X13600000Y-23150000D01*
X13520074Y-22748182D01*
X13292462Y-22407538D01*
X12899943Y-22015019D01*
X12900268Y-21643039D01*
X12664792Y-21073143D01*
X12229151Y-20636740D01*
X11659667Y-20400270D01*
X11284867Y-20399943D01*
X10241395Y-19356471D01*
X18099688Y-19356471D01*
X18373145Y-20018286D01*
X18879051Y-20525076D01*
X19540387Y-20799687D01*
X20256471Y-20800312D01*
X20918286Y-20526855D01*
X21425076Y-20020949D01*
X21699687Y-19359613D01*
X21700312Y-18643529D01*
X21426855Y-17981714D01*
X20920949Y-17474924D01*
X20259613Y-17200313D01*
X19543529Y-17199688D01*
X18881714Y-17473145D01*
X18374924Y-17979051D01*
X18100313Y-18640387D01*
X18099688Y-19356471D01*
X10241395Y-19356471D01*
X9324108Y-18439184D01*
X9590333Y-18549730D01*
X10206961Y-18550268D01*
X10776857Y-18314792D01*
X11042112Y-18050000D01*
X11734364Y-18050000D01*
X11831827Y-18116594D01*
X12050000Y-18160775D01*
X12950000Y-18160775D01*
X13153818Y-18122424D01*
X13341012Y-18001968D01*
X13466594Y-17818173D01*
X13510775Y-17600000D01*
X13510775Y-17197199D01*
X13550000Y-17000000D01*
X13510775Y-16802801D01*
X13510775Y-16400000D01*
X13472424Y-16196182D01*
X13351968Y-16008988D01*
X13168173Y-15883406D01*
X12950000Y-15839225D01*
X12050000Y-15839225D01*
X11846182Y-15877576D01*
X11733632Y-15950000D01*
X11041951Y-15950000D01*
X10779151Y-15686740D01*
X10209667Y-15450270D01*
X9834867Y-15449943D01*
X8442462Y-14057538D01*
X8101818Y-13829926D01*
X7700000Y-13750000D01*
X4831367Y-13750000D01*
X4802424Y-13596182D01*
X4681968Y-13408988D01*
X4498173Y-13283406D01*
X4333209Y-13250000D01*
X10058049Y-13250000D01*
X10320849Y-13513260D01*
X10890333Y-13749730D01*
X11506961Y-13750268D01*
X11689798Y-13674722D01*
X13850000Y-15834924D01*
X13850000Y-17000000D01*
X13889225Y-17197199D01*
X13889225Y-17600000D01*
X13927576Y-17803818D01*
X14048032Y-17991012D01*
X14231827Y-18116594D01*
X14450000Y-18160775D01*
X15350000Y-18160775D01*
X15553818Y-18122424D01*
X15741012Y-18001968D01*
X15866594Y-17818173D01*
X15910775Y-17600000D01*
X15910775Y-17197199D01*
X15950000Y-17000000D01*
X15950000Y-15400000D01*
X15870074Y-14998182D01*
X15642462Y-14657538D01*
X13043147Y-12058223D01*
X12942462Y-11907538D01*
X12625147Y-11590223D01*
X12514792Y-11323143D01*
X12079151Y-10886740D01*
X11509667Y-10650270D01*
X10893039Y-10649732D01*
X10323143Y-10885208D01*
X10057888Y-11150000D01*
X1950000Y-11150000D01*
X1548182Y-11229926D01*
X1207538Y-11457538D01*
X397538Y-12267538D01*
X169926Y-12608182D01*
X90000Y-13010000D01*
X90000Y-13484364D01*
X23406Y-13581827D01*
X-20775Y-13800000D01*
X-20775Y-15800000D01*
X17576Y-16003818D01*
X138032Y-16191012D01*
X321827Y-16316594D01*
X540000Y-16360775D01*
X1740000Y-16360775D01*
X1943818Y-16322424D01*
X2131012Y-16201968D01*
X2256594Y-16018173D01*
X2300775Y-15800000D01*
X2300775Y-13800000D01*
X2262424Y-13596182D01*
X2190000Y-13483632D01*
X2190000Y-13444924D01*
X2384924Y-13250000D01*
X3022736Y-13250000D01*
X2876182Y-13277576D01*
X2688988Y-13398032D01*
X2563406Y-13581827D01*
X2519225Y-13800000D01*
X2519225Y-15800000D01*
X2557576Y-16003818D01*
X2678032Y-16191012D01*
X2861827Y-16316594D01*
X3080000Y-16360775D01*
X4280000Y-16360775D01*
X4483818Y-16322424D01*
X4671012Y-16201968D01*
X4796594Y-16018173D01*
X4830650Y-15850000D01*
X7265076Y-15850000D01*
X8350057Y-16934981D01*
X8349732Y-17306961D01*
X8460877Y-17575953D01*
X7742462Y-16857538D01*
X7401818Y-16629926D01*
X7000000Y-16550000D01*
X-165076Y-16550000D01*
X-350000Y-16365076D01*
X-350000Y-16042459D01*
X-333406Y-16018173D01*
X-289225Y-15800000D01*
X-289225Y-13800000D01*
X-327576Y-13596182D01*
X-448032Y-13408988D01*
X-631827Y-13283406D01*
X-850000Y-13239225D01*
X-1950000Y-13239225D01*
X-2153818Y-13277576D01*
X-2341012Y-13398032D01*
X-2466594Y-13581827D01*
X-2510775Y-13800000D01*
X-7169225Y-13800000D01*
X-7169225Y-12890000D01*
X-7207576Y-12686182D01*
X-7328032Y-12498988D01*
X-7511827Y-12373406D01*
X-7730000Y-12329225D01*
X-9510000Y-12329225D01*
X-9713818Y-12367576D01*
X-9901012Y-12488032D01*
X-10026594Y-12671827D01*
X-10070775Y-12890000D01*
X-12249225Y-12890000D01*
X-12287576Y-12686182D01*
X-12408032Y-12498988D01*
X-12591827Y-12373406D01*
X-12810000Y-12329225D01*
X-14590000Y-12329225D01*
X-14647264Y-12340000D01*
X-17687432Y-12340000D01*
X-17782032Y-12192988D01*
X-17965827Y-12067406D01*
X-18184000Y-12023225D01*
X-20216000Y-12023225D01*
X-20305059Y-12039983D01*
X-20157538Y-11892462D01*
X-19929926Y-11551818D01*
X-19850000Y-11150000D01*
X-19850000Y-11015636D01*
X-19798743Y-10940619D01*
X-19701968Y-11091012D01*
X-19518173Y-11216594D01*
X-19300000Y-11260775D01*
X-18897199Y-11260775D01*
X-18700000Y-11300000D01*
X-17841951Y-11300000D01*
X-17579151Y-11563260D01*
X-17009667Y-11799730D01*
X-16393039Y-11800268D01*
X-15823143Y-11564792D01*
X-15386740Y-11129151D01*
X-15150270Y-10559667D01*
X-15149732Y-9943039D01*
X-15385208Y-9373143D01*
X-15820849Y-8936740D01*
X-16390333Y-8700270D01*
X-17006961Y-8699732D01*
X-17576857Y-8935208D01*
X-17842112Y-9200000D01*
X-18700000Y-9200000D01*
X-18897199Y-9239225D01*
X-19300000Y-9239225D01*
X-19503818Y-9277576D01*
X-19691012Y-9398032D01*
X-19801257Y-9559381D01*
X-19898032Y-9408988D01*
X-20081827Y-9283406D01*
X-20300000Y-9239225D01*
X-20702801Y-9239225D01*
X-20900000Y-9200000D01*
X-21097199Y-9239225D01*
X-21500000Y-9239225D01*
X-21703818Y-9277576D01*
X-21891012Y-9398032D01*
X-22016594Y-9581827D01*
X-22060775Y-9800000D01*
X-22060775Y-10700000D01*
X-22040845Y-10805921D01*
X-22482462Y-11247538D01*
X-22710074Y-11588182D01*
X-22790000Y-11990000D01*
X-22790000Y-12433865D01*
X-22878009Y-12492671D01*
X-23217475Y-13000718D01*
X-23336680Y-13600000D01*
X-24375000Y-13600000D01*
X-24375000Y-1477051D01*
X-24332013Y-1693159D01*
X-23996016Y-2196016D01*
X-23475980Y-2716051D01*
X-23475980Y-2938795D01*
X-23500780Y-2938795D01*
X-23704598Y-2977146D01*
X-23891792Y-3097602D01*
X-24017374Y-3281397D01*
X-24061555Y-3499570D01*
X-24061555Y-5300430D01*
X-24023204Y-5504248D01*
X-23902748Y-5691442D01*
X-23718953Y-5817024D01*
X-23500780Y-5861205D01*
X-22372381Y-5861205D01*
X-21925980Y-5950000D01*
X-21479579Y-5861205D01*
X-20351180Y-5861205D01*
X-20147362Y-5822854D01*
X-19960168Y-5702398D01*
X-19834586Y-5518603D01*
X-19790405Y-5300430D01*
X-19790405Y-3499570D01*
X-19828756Y-3295752D01*
X-19949212Y-3108558D01*
X-20133007Y-2982976D01*
X-20351180Y-2938795D01*
X-20375980Y-2938795D01*
X-20375980Y-2074020D01*
X-20402149Y-1942462D01*
X-20493967Y-1480860D01*
X-20710004Y-1157538D01*
X-20829964Y-978004D01*
X-20829967Y-978002D01*
X-21350000Y-457968D01*
X-21350000Y195952D01*
X-21308406Y256827D01*
X-21264225Y475000D01*
X-21264225Y800000D01*
X-17100000Y800000D01*
X-16602512Y898957D01*
X-16376459Y1050000D01*
X-15134924Y1050000D01*
X-14300000Y215076D01*
X-14300000Y-109364D01*
X-14366594Y-206827D01*
X-14410775Y-425000D01*
X-14410775Y-1125851D01*
X-14442462Y-1157538D01*
X-14670074Y-1498182D01*
X-14750000Y-1900000D01*
X-14750000Y-2369331D01*
X-14793818Y-2377576D01*
X-14981012Y-2498032D01*
X-15106594Y-2681827D01*
X-15150775Y-2900000D01*
X-15150775Y-5400000D01*
X-15112424Y-5603818D01*
X-14991968Y-5791012D01*
X-14808173Y-5916594D01*
X-14750000Y-5928374D01*
X-14750000Y-6400000D01*
X-14670074Y-6801818D01*
X-14442462Y-7142462D01*
X-10642462Y-10942462D01*
X-10301818Y-11170074D01*
X-9900000Y-11250000D01*
X-7541951Y-11250000D01*
X-7279151Y-11513260D01*
X-6709667Y-11749730D01*
X-6093039Y-11750268D01*
X-5523143Y-11514792D01*
X-5257888Y-11250000D01*
X-3700000Y-11250000D01*
X-3298182Y-11170074D01*
X-2957538Y-10942462D01*
X-657538Y-8642462D01*
X-429926Y-8301818D01*
X-350000Y-7900000D01*
X-350000Y-7215636D01*
X-339316Y-7200000D01*
X79467Y-7200000D01*
X138032Y-7291012D01*
X321827Y-7416594D01*
X540000Y-7460775D01*
X1740000Y-7460775D01*
X1943818Y-7422424D01*
X2131012Y-7301968D01*
X2200684Y-7200000D01*
X2380000Y-7200000D01*
X2380000Y-7280000D01*
X2478957Y-7777489D01*
X2760761Y-8199239D01*
X3880761Y-9319239D01*
X4302511Y-9601043D01*
X4800000Y-9700000D01*
X9076067Y-9700000D01*
X9359039Y-9889076D01*
X9900000Y-9996680D01*
X10440961Y-9889076D01*
X10899566Y-9582646D01*
X11205996Y-9124041D01*
X11313600Y-8583080D01*
X11313600Y-8216920D01*
X11205996Y-7675959D01*
X10899566Y-7217354D01*
X10574273Y-7000000D01*
X14305727Y-7000000D01*
X13980434Y-7217354D01*
X13674004Y-7675959D01*
X13566400Y-8216920D01*
X13566400Y-8583080D01*
X13674004Y-9124041D01*
X13980434Y-9582646D01*
X14439039Y-9889076D01*
X14980000Y-9996680D01*
X15520961Y-9889076D01*
X15979566Y-9582646D01*
X16250000Y-9177913D01*
X16520434Y-9582646D01*
X16979039Y-9889076D01*
X17520000Y-9996680D01*
X18060961Y-9889076D01*
X18519566Y-9582646D01*
X18790000Y-9177913D01*
X19060434Y-9582646D01*
X19519039Y-9889076D01*
X20060000Y-9996680D01*
X20600961Y-9889076D01*
X21059566Y-9582646D01*
X21175625Y-9408951D01*
X21175625Y-9416000D01*
X21213976Y-9619818D01*
X21334432Y-9807012D01*
X21518227Y-9932594D01*
X21736400Y-9976775D01*
X23463600Y-9976775D01*
X23667418Y-9938424D01*
X23854612Y-9817968D01*
X23980194Y-9634173D01*
X24024375Y-9416000D01*
X24024375Y-7384000D01*
X23986024Y-7180182D01*
X23865568Y-6992988D01*
X23681773Y-6867406D01*
X23463600Y-6823225D01*
X23384729Y-6823225D01*
X23339104Y-6593853D01*
X23165685Y-6334315D01*
X21465685Y-4634315D01*
X21206147Y-4460896D01*
X20900000Y-4400000D01*
X16366888Y-4400000D01*
X16549730Y-3959667D01*
X16550268Y-3343039D01*
X16314792Y-2773143D01*
X15879151Y-2336740D01*
X15374264Y-2127093D01*
X15491012Y-2051968D01*
X15601257Y-1890619D01*
X15698032Y-2041012D01*
X15881827Y-2166594D01*
X16100000Y-2210775D01*
X16502801Y-2210775D01*
X16700000Y-2250000D01*
X19200000Y-2250000D01*
X19397199Y-2210775D01*
X19800000Y-2210775D01*
X20003818Y-2172424D01*
X20191012Y-2051968D01*
X20316594Y-1868173D01*
X20360775Y-1650000D01*
X20360775Y-750000D01*
X20322424Y-546182D01*
X20201968Y-358988D01*
X20018173Y-233406D01*
X19800000Y-189225D01*
X19397199Y-189225D01*
X19200000Y-150000D01*
X16700000Y-150000D01*
X16502801Y-189225D01*
X16100000Y-189225D01*
X15896182Y-227576D01*
X15708988Y-348032D01*
X15598743Y-509381D01*
X15501968Y-358988D01*
X15318173Y-233406D01*
X15100000Y-189225D01*
X13900000Y-189225D01*
X13696182Y-227576D01*
X13508988Y-348032D01*
X13473480Y-400000D01*
X13131370Y-400000D01*
X11416705Y1314665D01*
X11157167Y1488084D01*
X10851020Y1548980D01*
X10460755Y1548980D01*
X10460755Y1773870D01*
X10426567Y1955564D01*
X10460755Y2124390D01*
X10460755Y2349280D01*
X10951993Y2349280D01*
X10952576Y2346182D01*
X11073032Y2158988D01*
X11256827Y2033406D01*
X11475000Y1989225D01*
X11525851Y1989225D01*
X12557538Y957538D01*
X12898182Y729926D01*
X13300000Y650000D01*
X16858049Y650000D01*
X17120849Y386740D01*
X17690333Y150270D01*
X18306961Y149732D01*
X18876857Y385208D01*
X19313260Y820849D01*
X19549730Y1390333D01*
X19550268Y2006961D01*
X19314792Y2576857D01*
X18879151Y3013260D01*
X18309667Y3249730D01*
X17693039Y3250268D01*
X17123143Y3014792D01*
X16857888Y2750000D01*
X13734924Y2750000D01*
X12785775Y3699149D01*
X12785775Y3750000D01*
X12747424Y3953818D01*
X12626968Y4141012D01*
X12443173Y4266594D01*
X12225000Y4310775D01*
X11475000Y4310775D01*
X11271182Y4272424D01*
X11083988Y4151968D01*
X10958406Y3968173D01*
X10954580Y3949280D01*
X10460755Y3949280D01*
X10460755Y4174170D01*
X10422404Y4377988D01*
X10301948Y4565182D01*
X10118153Y4690764D01*
X9899980Y4734945D01*
X9472550Y4734945D01*
X9399980Y4749380D01*
X7781990Y4749380D01*
X7765685Y4765685D01*
X7506147Y4939104D01*
X7200000Y5000000D01*
X3871899Y5000000D01*
X3579151Y5293260D01*
X3009667Y5529730D01*
X2393039Y5530268D01*
X1823143Y5294792D01*
X1386740Y4859151D01*
X1150270Y4289667D01*
X1149818Y3771363D01*
X1129667Y3779730D01*
X513039Y3780268D01*
X-56857Y3544792D01*
X-493260Y3109151D01*
X-729730Y2539667D01*
X-730268Y1923039D01*
X-494792Y1353143D01*
X-59151Y916740D01*
X510333Y680270D01*
X1126961Y679732D01*
X1206169Y712460D01*
X1454180Y464449D01*
X1474315Y434315D01*
X1894315Y14314D01*
X2153853Y-159104D01*
X2338235Y-195780D01*
X2169252Y-227576D01*
X1982058Y-348032D01*
X1856476Y-531827D01*
X1812295Y-750000D01*
X1812295Y-1750000D01*
X1850646Y-1953818D01*
X1912544Y-2050010D01*
X1797660Y-2049910D01*
X1797660Y-1250000D01*
X1783225Y-1177430D01*
X1783225Y-750000D01*
X1744874Y-546182D01*
X1624418Y-358988D01*
X1440623Y-233406D01*
X1222450Y-189225D01*
X772870Y-189225D01*
X591176Y-223413D01*
X422350Y-189225D01*
X-27230Y-189225D01*
X-207607Y-223165D01*
X-375210Y-189225D01*
X-824790Y-189225D01*
X-1028608Y-227576D01*
X-1180009Y-325000D01*
X-2566852Y-325000D01*
X-2855267Y-36585D01*
X-2098980Y-36585D01*
X-1895162Y1766D01*
X-1707968Y122222D01*
X-1582386Y306017D01*
X-1538205Y524190D01*
X-1538205Y973770D01*
X-1572393Y1155464D01*
X-1538205Y1324290D01*
X-1538205Y1773870D01*
X-1572393Y1955564D01*
X-1538205Y2124390D01*
X-1538205Y2573970D01*
X-1572393Y2755664D01*
X-1538205Y2924490D01*
X-1538205Y3374070D01*
X-1572393Y3555764D01*
X-1538205Y3724590D01*
X-1538205Y4174170D01*
X-1572393Y4355864D01*
X-1538205Y4524690D01*
X-1538205Y4974270D01*
X-1572393Y5155964D01*
X-1538205Y5324790D01*
X-1538205Y5774370D01*
X-1572393Y5956064D01*
X-1538205Y6124890D01*
X-1538205Y6574470D01*
X-1572393Y6756164D01*
X-1538205Y6924990D01*
X-1538205Y7374570D01*
X-1554784Y7462680D01*
X-1379151Y7286740D01*
X-809667Y7050270D01*
X-193039Y7049732D01*
X376857Y7285208D01*
X635365Y7543265D01*
X2024314Y6154315D01*
X2266422Y5992543D01*
X2283853Y5980896D01*
X2590000Y5920000D01*
X3978629Y5920000D01*
X4114635Y5783994D01*
X4374173Y5610576D01*
X4680320Y5549680D01*
X8339205Y5549680D01*
X8339205Y5324790D01*
X8377556Y5120972D01*
X8498012Y4933778D01*
X8681807Y4808196D01*
X8899980Y4764015D01*
X9899980Y4764015D01*
X10103798Y4802366D01*
X10290992Y4922822D01*
X10416574Y5106617D01*
X10460755Y5324790D01*
X10460755Y5774370D01*
X10426567Y5956064D01*
X10460755Y6124890D01*
X10460755Y6349780D01*
X12142072Y6349780D01*
X13399754Y5092098D01*
X13383406Y5068173D01*
X13339225Y4850000D01*
X13339225Y3950000D01*
X13377576Y3746182D01*
X13498032Y3558988D01*
X13681827Y3433406D01*
X13900000Y3389225D01*
X15100000Y3389225D01*
X15303818Y3427576D01*
X15491012Y3548032D01*
X15601257Y3709381D01*
X15698032Y3558988D01*
X15881827Y3433406D01*
X16100000Y3389225D01*
X16502801Y3389225D01*
X16700000Y3350000D01*
X19200000Y3350000D01*
X19397199Y3389225D01*
X19800000Y3389225D01*
X20003818Y3427576D01*
X20191012Y3548032D01*
X20316594Y3731827D01*
X20360775Y3950000D01*
X20360775Y4850000D01*
X20322424Y5053818D01*
X20201968Y5241012D01*
X20018173Y5366594D01*
X19800000Y5410775D01*
X19397199Y5410775D01*
X19200000Y5450000D01*
X16700000Y5450000D01*
X16502801Y5410775D01*
X16100000Y5410775D01*
X15896182Y5372424D01*
X15708988Y5251968D01*
X15598743Y5090619D01*
X15501968Y5241012D01*
X15425000Y5293602D01*
X15425000Y5300000D01*
X15411754Y5366594D01*
X15354589Y5653983D01*
X15154074Y5954074D01*
X13659458Y7448690D01*
X13681827Y7433406D01*
X13900000Y7389225D01*
X15100000Y7389225D01*
X15303818Y7427576D01*
X15491012Y7548032D01*
X15601257Y7709381D01*
X15698032Y7558988D01*
X15881827Y7433406D01*
X16100000Y7389225D01*
X16502801Y7389225D01*
X16700000Y7350000D01*
X19200000Y7350000D01*
X19397199Y7389225D01*
X19800000Y7389225D01*
X20003818Y7427576D01*
X20191012Y7548032D01*
X20316594Y7731827D01*
X20360775Y7950000D01*
X20360775Y8850000D01*
X20322424Y9053818D01*
X20201968Y9241012D01*
X20018173Y9366594D01*
X19800000Y9410775D01*
X19397199Y9410775D01*
X19200000Y9450000D01*
X16700000Y9450000D01*
X16502801Y9410775D01*
X16100000Y9410775D01*
X15896182Y9372424D01*
X15708988Y9251968D01*
X15598743Y9090619D01*
X15501968Y9241012D01*
X15318173Y9366594D01*
X15100000Y9410775D01*
X13900000Y9410775D01*
X13696182Y9372424D01*
X13508988Y9251968D01*
X13473480Y9200000D01*
X12631370Y9200000D01*
X14920595Y11489225D01*
X15100000Y11489225D01*
X15303818Y11527576D01*
X15491012Y11648032D01*
X15601257Y11809381D01*
X15698032Y11658988D01*
X15881827Y11533406D01*
X16100000Y11489225D01*
X16502801Y11489225D01*
X16700000Y11450000D01*
X19200000Y11450000D01*
X19397199Y11489225D01*
X19800000Y11489225D01*
X20003818Y11527576D01*
X20191012Y11648032D01*
X20316594Y11831827D01*
X20360775Y12050000D01*
X20360775Y12950000D01*
X20322424Y13153818D01*
X20201968Y13341012D01*
X20018173Y13466594D01*
X19800000Y13510775D01*
X19397199Y13510775D01*
X19200000Y13550000D01*
X16700000Y13550000D01*
X16502801Y13510775D01*
X16100000Y13510775D01*
X15896182Y13472424D01*
X15708988Y13351968D01*
X15598743Y13190619D01*
X15501968Y13341012D01*
X15318173Y13466594D01*
X15100000Y13510775D01*
X13900000Y13510775D01*
X13696182Y13472424D01*
X13508988Y13351968D01*
X13383406Y13168173D01*
X13339225Y12950000D01*
X13339225Y12170595D01*
X12300028Y11131398D01*
X12300268Y11406961D01*
X12064792Y11976857D01*
X11629151Y12413260D01*
X11059667Y12649730D01*
X10443039Y12650268D01*
X9873143Y12414792D01*
X9436740Y11979151D01*
X9258109Y11548960D01*
X8083783Y11548960D01*
X8025218Y11639972D01*
X7841423Y11765554D01*
X7623250Y11809735D01*
X7173670Y11809735D01*
X6991976Y11775547D01*
X6823150Y11809735D01*
X6373570Y11809735D01*
X6169752Y11771384D01*
X5982558Y11650928D01*
X5856976Y11467133D01*
X5812795Y11248960D01*
X5812795Y10821530D01*
X5798360Y10748960D01*
X5798360Y9751640D01*
X5846271Y9510775D01*
X5859256Y9445493D01*
X5961145Y9293007D01*
X5646740Y8979151D01*
X5410270Y8409667D01*
X5409732Y7793039D01*
X5645208Y7223143D01*
X5718543Y7149680D01*
X5011690Y7149680D01*
X4875685Y7285685D01*
X4616147Y7459104D01*
X4310000Y7520000D01*
X2921371Y7520000D01*
X1275685Y9165685D01*
X1016147Y9339104D01*
X1006555Y9341012D01*
X858776Y9370407D01*
X814792Y9476857D01*
X575135Y9716933D01*
X604044Y9722373D01*
X772870Y9688185D01*
X1222450Y9688185D01*
X1404144Y9722373D01*
X1572970Y9688185D01*
X2022550Y9688185D01*
X2204244Y9722373D01*
X2373070Y9688185D01*
X2822650Y9688185D01*
X3004344Y9722373D01*
X3173170Y9688185D01*
X3622750Y9688185D01*
X3804444Y9722373D01*
X3973270Y9688185D01*
X4422850Y9688185D01*
X4604544Y9722373D01*
X4773370Y9688185D01*
X5222950Y9688185D01*
X5426768Y9726536D01*
X5613962Y9846992D01*
X5739544Y10030787D01*
X5783725Y10248960D01*
X5783725Y10676390D01*
X5798160Y10748960D01*
X5798160Y11850000D01*
X6450000Y11850000D01*
X6851818Y11929926D01*
X6903150Y11964225D01*
X7050000Y11964225D01*
X7253818Y12002576D01*
X7441012Y12123032D01*
X7566594Y12306827D01*
X7610775Y12525000D01*
X7610775Y13275000D01*
X7572424Y13478818D01*
X7451968Y13666012D01*
X7268173Y13791594D01*
X7050000Y13835775D01*
X6903150Y13835775D01*
X6851818Y13870074D01*
X6450000Y13950000D01*
X2234924Y13950000D01*
X3282462Y14997538D01*
X3417743Y15200000D01*
X3510074Y15338182D01*
X3590000Y15740000D01*
X3590000Y16058049D01*
X3853260Y16320849D01*
X4089730Y16890333D01*
X4089732Y16893039D01*
X10549732Y16893039D01*
X10785208Y16323143D01*
X11050000Y16057888D01*
X11050000Y16000000D01*
X11129926Y15598182D01*
X11357538Y15257538D01*
X12157538Y14457538D01*
X12498182Y14229926D01*
X12900000Y14150000D01*
X15600000Y14150000D01*
X16001818Y14229926D01*
X16342462Y14457538D01*
X17616042Y15731118D01*
X17690333Y15700270D01*
X18306961Y15699732D01*
X18876857Y15935208D01*
X19142112Y16200000D01*
X19309364Y16200000D01*
X19406827Y16133406D01*
X19625000Y16089225D01*
X20375000Y16089225D01*
X20578818Y16127576D01*
X20766012Y16248032D01*
X20891594Y16431827D01*
X20935775Y16650000D01*
X20935775Y16796850D01*
X20970074Y16848182D01*
X21050000Y17250000D01*
X20970074Y17651818D01*
X20935775Y17703150D01*
X20935775Y17850000D01*
X20897424Y18053818D01*
X20776968Y18241012D01*
X20593173Y18366594D01*
X20375000Y18410775D01*
X19625000Y18410775D01*
X19421182Y18372424D01*
X19308632Y18300000D01*
X19141951Y18300000D01*
X18879151Y18563260D01*
X18309667Y18799730D01*
X17693039Y18800268D01*
X17123143Y18564792D01*
X16686740Y18129151D01*
X16450270Y17559667D01*
X16450249Y17535173D01*
X16190066Y17274990D01*
X16190268Y17506961D01*
X15954792Y18076857D01*
X15519151Y18513260D01*
X14949667Y18749730D01*
X14333039Y18750268D01*
X13763143Y18514792D01*
X13369696Y18122032D01*
X12979151Y18513260D01*
X12409667Y18749730D01*
X11793039Y18750268D01*
X11223143Y18514792D01*
X10786740Y18079151D01*
X10550270Y17509667D01*
X10549732Y16893039D01*
X4089732Y16893039D01*
X4090268Y17506961D01*
X3854792Y18076857D01*
X3419151Y18513260D01*
X2849667Y18749730D01*
X2233039Y18750268D01*
X1663143Y18514792D01*
X1226740Y18079151D01*
X990270Y17509667D01*
X989732Y16893039D01*
X1225208Y16323143D01*
X1431533Y16116457D01*
X207538Y14892462D01*
X-20074Y14551818D01*
X-100000Y14150000D01*
X-100000Y13590636D01*
X-166594Y13493173D01*
X-210775Y13275000D01*
X-210775Y12525000D01*
X-172424Y12321182D01*
X-51968Y12133988D01*
X131827Y12008406D01*
X350000Y11964225D01*
X496850Y11964225D01*
X548182Y11929926D01*
X950000Y11850000D01*
X4198160Y11850000D01*
X4198160Y11809735D01*
X3973270Y11809735D01*
X3791576Y11775547D01*
X3622750Y11809735D01*
X3173170Y11809735D01*
X2991476Y11775547D01*
X2822650Y11809735D01*
X2373070Y11809735D01*
X2191376Y11775547D01*
X2022550Y11809735D01*
X1572970Y11809735D01*
X1391276Y11775547D01*
X1222450Y11809735D01*
X772870Y11809735D01*
X591176Y11775547D01*
X422350Y11809735D01*
X-27230Y11809735D01*
X-207607Y11775795D01*
X-375210Y11809735D01*
X-824790Y11809735D01*
X-1028608Y11771384D01*
X-1215802Y11650928D01*
X-1278214Y11559585D01*
X-1740000Y12021370D01*
X-1740000Y15853451D01*
X-1663143Y15885208D01*
X-1226740Y16320849D01*
X-990270Y16890333D01*
X-989732Y17506961D01*
X-1225208Y18076857D01*
X-1660849Y18513260D01*
X-2230333Y18749730D01*
X-2846961Y18750268D01*
X-3416857Y18514792D01*
X-3853260Y18079151D01*
X-4089730Y17509667D01*
X-4090268Y16893039D01*
X-3854792Y16323143D01*
X-3419151Y15886740D01*
X-3340000Y15853874D01*
X-3340000Y12191095D01*
X-3379926Y12391817D01*
X-3607538Y12732462D01*
X-8010057Y17134981D01*
X-8009732Y17506961D01*
X-8245208Y18076857D01*
X-8680849Y18513260D01*
X-9250333Y18749730D01*
X-9866961Y18750268D01*
X-10436857Y18514792D01*
X-10830304Y18122032D01*
X-11220849Y18513260D01*
X-11790333Y18749730D01*
X-12406961Y18750268D01*
X-12976857Y18514792D01*
X-13413260Y18079151D01*
X-13649730Y17509667D01*
X-13650268Y16893039D01*
X-13414792Y16323143D01*
X-13150000Y16057888D01*
X-13150000Y15934924D01*
X-13392462Y15692462D01*
X-13620074Y15351818D01*
X-13700000Y14950000D01*
X-13700000Y13590636D01*
X-13766594Y13493173D01*
X-13810775Y13275000D01*
X-13810775Y12525000D01*
X-13772424Y12321182D01*
X-13700000Y12208632D01*
X-13700000Y9205712D01*
X-13725000Y9210775D01*
X-14475000Y9210775D01*
X-14678818Y9172424D01*
X-14866012Y9051968D01*
X-14991594Y8868173D01*
X-15035775Y8650000D01*
X-15035775Y8503150D01*
X-15070074Y8451818D01*
X-15150000Y8050000D01*
X-15070074Y7648182D01*
X-15035775Y7596850D01*
X-15035775Y7450000D01*
X-14997424Y7246182D01*
X-14876968Y7058988D01*
X-14693173Y6933406D01*
X-14475000Y6889225D01*
X-13725000Y6889225D01*
X-13521182Y6927576D01*
X-13408632Y7000000D01*
X-12730775Y7000000D01*
X-12730775Y6500000D01*
X-12692424Y6296182D01*
X-12571968Y6108988D01*
X-12388173Y5983406D01*
X-12170000Y5939225D01*
X-10170000Y5939225D01*
X-9966182Y5977576D01*
X-9795252Y6087566D01*
X-9706067Y6026629D01*
X-9791012Y5971968D01*
X-9916594Y5788173D01*
X-9960775Y5570000D01*
X-9960775Y2670000D01*
X-9922424Y2466182D01*
X-9801968Y2278988D01*
X-9618173Y2153406D01*
X-9400000Y2109225D01*
X-7617373Y2109225D01*
X-5718923Y210775D01*
X-5902801Y210775D01*
X-6100000Y250000D01*
X-6297199Y210775D01*
X-6700000Y210775D01*
X-6903818Y172424D01*
X-7091012Y51968D01*
X-7201257Y-109381D01*
X-7298032Y41012D01*
X-7481827Y166594D01*
X-7700000Y210775D01*
X-7825851Y210775D01*
X-9007538Y1392462D01*
X-9348182Y1620074D01*
X-9750000Y1700000D01*
X-12815076Y1700000D01*
X-13957538Y2842462D01*
X-14298182Y3070074D01*
X-14700000Y3150000D01*
X-16376459Y3150000D01*
X-16526120Y3250000D01*
X-16355170Y3364225D01*
X-16025000Y3364225D01*
X-15821182Y3402576D01*
X-15633988Y3523032D01*
X-15508406Y3706827D01*
X-15464225Y3925000D01*
X-15464225Y4875000D01*
X-15502576Y5078818D01*
X-15623032Y5266012D01*
X-15800000Y5386929D01*
X-15800000Y5400000D01*
X-15874467Y5774370D01*
X-15898957Y5897489D01*
X-16180761Y6319239D01*
X-16774020Y6912498D01*
X-16774020Y7238795D01*
X-16499220Y7238795D01*
X-16295402Y7277146D01*
X-16108208Y7397602D01*
X-15982626Y7581397D01*
X-15938445Y7799570D01*
X-15938445Y9600430D01*
X-15976796Y9804248D01*
X-16097252Y9991442D01*
X-16281047Y10117024D01*
X-16499220Y10161205D01*
X-16550000Y10161205D01*
X-16550000Y12899995D01*
X-16549999Y12900000D01*
X-16667987Y13493159D01*
X-16767748Y13642462D01*
X-17003984Y13996016D01*
X-17003987Y13996018D01*
X-19003984Y15996016D01*
X-19003985Y15996017D01*
X-19220849Y16213260D01*
X-19790333Y16449730D01*
X-20099996Y16450000D01*
X-20100000Y16450001D01*
X-20100004Y16450000D01*
X-20406961Y16450268D01*
X-20976857Y16214792D01*
X-21413260Y15779151D01*
X-21649730Y15209667D01*
X-21650000Y14900004D01*
X-21650001Y14900000D01*
X-21650000Y14899996D01*
X-21650268Y14593039D01*
X-21414792Y14023143D01*
X-20979151Y13586740D01*
X-20978503Y13586471D01*
X-19650000Y12257969D01*
X-19650000Y10160983D01*
X-19852638Y10122854D01*
X-20039832Y10002398D01*
X-20165414Y9818603D01*
X-20209595Y9600430D01*
X-20209595Y7799570D01*
X-20171244Y7595752D01*
X-20050788Y7408558D01*
X-19866993Y7282976D01*
X-19648820Y7238795D01*
X-19374020Y7238795D01*
X-19374020Y6374020D01*
X-19275063Y5876531D01*
X-18993259Y5454781D01*
X-18667262Y5128784D01*
X-18691594Y5093173D01*
X-18735775Y4875000D01*
X-18735775Y3925000D01*
X-18697424Y3721182D01*
X-18576968Y3533988D01*
X-18393173Y3408406D01*
X-18351663Y3400000D01*
X-21264225Y3400000D01*
X-21264225Y3725000D01*
X-21302576Y3928818D01*
X-21423032Y4116012D01*
X-21606827Y4241594D01*
X-21825000Y4285775D01*
X-23975000Y4285775D01*
X-24178818Y4247424D01*
X-24366012Y4126968D01*
X-24375000Y4113814D01*
X-24375000Y20633529D01*
X-21690312Y20633529D01*
X-21416855Y19971714D01*
X-20910949Y19464924D01*
X-20249613Y19190313D01*
X-19533529Y19189688D01*
X-18871714Y19463145D01*
X-18364924Y19969051D01*
X-18126380Y20543529D01*
X18099688Y20543529D01*
X18373145Y19881714D01*
X18879051Y19374924D01*
X19540387Y19100313D01*
X20256471Y19099688D01*
X20918286Y19373145D01*
X21425076Y19879051D01*
X21699687Y20540387D01*
X21700312Y21256471D01*
X21426855Y21918286D01*
X20920949Y22425076D01*
X20259613Y22699687D01*
X19543529Y22700312D01*
X18881714Y22426855D01*
X18374924Y21920949D01*
X18100313Y21259613D01*
X18099688Y20543529D01*
X-18126380Y20543529D01*
X-18090313Y20630387D01*
X-18089688Y21346471D01*
X-18363145Y22008286D01*
X-18869051Y22515076D01*
X-19530387Y22789687D01*
X-20246471Y22790312D01*
X-20908286Y22516855D01*
X-21415076Y22010949D01*
X-21689687Y21349613D01*
X-21690312Y20633529D01*
X-24375000Y20633529D01*
X-24375000Y25375000D01*
X24375000Y25375000D01*
X24375000Y-25375000D01*
X24375000Y-25375000D01*
G37*
X24375000Y-25375000D02*
X4585787Y-25375000D01*
X4669239Y-25319239D01*
X5999239Y-23989239D01*
X6281043Y-23567489D01*
X6364354Y-23148655D01*
X6435623Y-23077511D01*
X6679722Y-22489656D01*
X6680277Y-21853137D01*
X6437205Y-21264857D01*
X5987511Y-20814377D01*
X5399656Y-20570278D01*
X4763137Y-20569723D01*
X4174857Y-20812795D01*
X3809758Y-21177257D01*
X3447511Y-20814377D01*
X2859656Y-20570278D01*
X2223137Y-20569723D01*
X1634857Y-20812795D01*
X1269758Y-21177257D01*
X907511Y-20814377D01*
X319656Y-20570278D01*
X-316863Y-20569723D01*
X-905143Y-20812795D01*
X-1270242Y-21177257D01*
X-1632489Y-20814377D01*
X-2220344Y-20570278D01*
X-2856863Y-20569723D01*
X-3445143Y-20812795D01*
X-3810242Y-21177257D01*
X-4172489Y-20814377D01*
X-4760344Y-20570278D01*
X-5396863Y-20569723D01*
X-5985143Y-20812795D01*
X-6435623Y-21262489D01*
X-6679722Y-21850344D01*
X-6680277Y-22486863D01*
X-6437205Y-23075143D01*
X-6412391Y-23100000D01*
X-9811522Y-23100000D01*
X-13799748Y-19111774D01*
X-13799732Y-19093039D01*
X-14035208Y-18523143D01*
X-14470849Y-18086740D01*
X-15040333Y-17850270D01*
X-15656961Y-17849732D01*
X-16226857Y-18085208D01*
X-16663260Y-18520849D01*
X-16899730Y-19090333D01*
X-16900268Y-19706961D01*
X-16664792Y-20276857D01*
X-16229151Y-20713260D01*
X-15659667Y-20949730D01*
X-15638730Y-20949748D01*
X-11269239Y-25319239D01*
X-11185786Y-25375000D01*
X-24375000Y-25375000D01*
X-24375000Y-19356471D01*
X-21700312Y-19356471D01*
X-21426855Y-20018286D01*
X-20920949Y-20525076D01*
X-20259613Y-20799687D01*
X-19543529Y-20800312D01*
X-18881714Y-20526855D01*
X-18374924Y-20020949D01*
X-18100313Y-19359613D01*
X-18099688Y-18643529D01*
X-18373145Y-17981714D01*
X-18879051Y-17474924D01*
X-19540387Y-17200313D01*
X-20256471Y-17199688D01*
X-20918286Y-17473145D01*
X-21425076Y-17979051D01*
X-21699687Y-18640387D01*
X-21700312Y-19356471D01*
X-24375000Y-19356471D01*
X-24375000Y-13600000D01*
X-23336680Y-13600000D01*
X-23217475Y-14199282D01*
X-22878009Y-14707329D01*
X-22369962Y-15046795D01*
X-21770680Y-15166000D01*
X-21709320Y-15166000D01*
X-21110038Y-15046795D01*
X-20741989Y-14800873D01*
X-20738424Y-14819818D01*
X-20617968Y-15007012D01*
X-20434173Y-15132594D01*
X-20216000Y-15176775D01*
X-18184000Y-15176775D01*
X-17980182Y-15138424D01*
X-17792988Y-15017968D01*
X-17739715Y-14940000D01*
X-15150775Y-14940000D01*
X-15150775Y-15390000D01*
X-15112424Y-15593818D01*
X-14991968Y-15781012D01*
X-14808173Y-15906594D01*
X-14590000Y-15950775D01*
X-12810000Y-15950775D01*
X-12606182Y-15912424D01*
X-12418988Y-15791968D01*
X-12293406Y-15608173D01*
X-12249225Y-15390000D01*
X-12249225Y-12890000D01*
X-10070775Y-12890000D01*
X-10070775Y-15390000D01*
X-10032424Y-15593818D01*
X-9911968Y-15781012D01*
X-9728173Y-15906594D01*
X-9510000Y-15950775D01*
X-7730000Y-15950775D01*
X-7526182Y-15912424D01*
X-7338988Y-15791968D01*
X-7213406Y-15608173D01*
X-7169225Y-15390000D01*
X-7169225Y-13800000D01*
X-2510775Y-13800000D01*
X-2510775Y-15800000D01*
X-2472424Y-16003818D01*
X-2450000Y-16038666D01*
X-2450000Y-16800000D01*
X-2370074Y-17201818D01*
X-2142462Y-17542462D01*
X-1342462Y-18342462D01*
X-1001818Y-18570074D01*
X-600000Y-18650000D01*
X6565076Y-18650000D01*
X9800057Y-21884981D01*
X9799732Y-22256961D01*
X10035208Y-22826857D01*
X10470849Y-23263260D01*
X11040333Y-23499730D01*
X11415133Y-23500057D01*
X11479477Y-23564401D01*
X11433406Y-23631827D01*
X11389225Y-23850000D01*
X11389225Y-24750000D01*
X11427576Y-24953818D01*
X11548032Y-25141012D01*
X11731827Y-25266594D01*
X11950000Y-25310775D01*
X12352801Y-25310775D01*
X12550000Y-25350000D01*
X12747199Y-25310775D01*
X13150000Y-25310775D01*
X13353818Y-25272424D01*
X13541012Y-25151968D01*
X13666594Y-24968173D01*
X13710775Y-24750000D01*
X13710775Y-23850000D01*
X13672424Y-23646182D01*
X13600000Y-23533632D01*
X13600000Y-23150000D01*
X13520074Y-22748182D01*
X13292462Y-22407538D01*
X12899943Y-22015019D01*
X12900268Y-21643039D01*
X12664792Y-21073143D01*
X12229151Y-20636740D01*
X11659667Y-20400270D01*
X11284867Y-20399943D01*
X10241395Y-19356471D01*
X18099688Y-19356471D01*
X18373145Y-20018286D01*
X18879051Y-20525076D01*
X19540387Y-20799687D01*
X20256471Y-20800312D01*
X20918286Y-20526855D01*
X21425076Y-20020949D01*
X21699687Y-19359613D01*
X21700312Y-18643529D01*
X21426855Y-17981714D01*
X20920949Y-17474924D01*
X20259613Y-17200313D01*
X19543529Y-17199688D01*
X18881714Y-17473145D01*
X18374924Y-17979051D01*
X18100313Y-18640387D01*
X18099688Y-19356471D01*
X10241395Y-19356471D01*
X9324108Y-18439184D01*
X9590333Y-18549730D01*
X10206961Y-18550268D01*
X10776857Y-18314792D01*
X11042112Y-18050000D01*
X11734364Y-18050000D01*
X11831827Y-18116594D01*
X12050000Y-18160775D01*
X12950000Y-18160775D01*
X13153818Y-18122424D01*
X13341012Y-18001968D01*
X13466594Y-17818173D01*
X13510775Y-17600000D01*
X13510775Y-17197199D01*
X13550000Y-17000000D01*
X13510775Y-16802801D01*
X13510775Y-16400000D01*
X13472424Y-16196182D01*
X13351968Y-16008988D01*
X13168173Y-15883406D01*
X12950000Y-15839225D01*
X12050000Y-15839225D01*
X11846182Y-15877576D01*
X11733632Y-15950000D01*
X11041951Y-15950000D01*
X10779151Y-15686740D01*
X10209667Y-15450270D01*
X9834867Y-15449943D01*
X8442462Y-14057538D01*
X8101818Y-13829926D01*
X7700000Y-13750000D01*
X4831367Y-13750000D01*
X4802424Y-13596182D01*
X4681968Y-13408988D01*
X4498173Y-13283406D01*
X4333209Y-13250000D01*
X10058049Y-13250000D01*
X10320849Y-13513260D01*
X10890333Y-13749730D01*
X11506961Y-13750268D01*
X11689798Y-13674722D01*
X13850000Y-15834924D01*
X13850000Y-17000000D01*
X13889225Y-17197199D01*
X13889225Y-17600000D01*
X13927576Y-17803818D01*
X14048032Y-17991012D01*
X14231827Y-18116594D01*
X14450000Y-18160775D01*
X15350000Y-18160775D01*
X15553818Y-18122424D01*
X15741012Y-18001968D01*
X15866594Y-17818173D01*
X15910775Y-17600000D01*
X15910775Y-17197199D01*
X15950000Y-17000000D01*
X15950000Y-15400000D01*
X15870074Y-14998182D01*
X15642462Y-14657538D01*
X13043147Y-12058223D01*
X12942462Y-11907538D01*
X12625147Y-11590223D01*
X12514792Y-11323143D01*
X12079151Y-10886740D01*
X11509667Y-10650270D01*
X10893039Y-10649732D01*
X10323143Y-10885208D01*
X10057888Y-11150000D01*
X1950000Y-11150000D01*
X1548182Y-11229926D01*
X1207538Y-11457538D01*
X397538Y-12267538D01*
X169926Y-12608182D01*
X90000Y-13010000D01*
X90000Y-13484364D01*
X23406Y-13581827D01*
X-20775Y-13800000D01*
X-20775Y-15800000D01*
X17576Y-16003818D01*
X138032Y-16191012D01*
X321827Y-16316594D01*
X540000Y-16360775D01*
X1740000Y-16360775D01*
X1943818Y-16322424D01*
X2131012Y-16201968D01*
X2256594Y-16018173D01*
X2300775Y-15800000D01*
X2300775Y-13800000D01*
X2262424Y-13596182D01*
X2190000Y-13483632D01*
X2190000Y-13444924D01*
X2384924Y-13250000D01*
X3022736Y-13250000D01*
X2876182Y-13277576D01*
X2688988Y-13398032D01*
X2563406Y-13581827D01*
X2519225Y-13800000D01*
X2519225Y-15800000D01*
X2557576Y-16003818D01*
X2678032Y-16191012D01*
X2861827Y-16316594D01*
X3080000Y-16360775D01*
X4280000Y-16360775D01*
X4483818Y-16322424D01*
X4671012Y-16201968D01*
X4796594Y-16018173D01*
X4830650Y-15850000D01*
X7265076Y-15850000D01*
X8350057Y-16934981D01*
X8349732Y-17306961D01*
X8460877Y-17575953D01*
X7742462Y-16857538D01*
X7401818Y-16629926D01*
X7000000Y-16550000D01*
X-165076Y-16550000D01*
X-350000Y-16365076D01*
X-350000Y-16042459D01*
X-333406Y-16018173D01*
X-289225Y-15800000D01*
X-289225Y-13800000D01*
X-327576Y-13596182D01*
X-448032Y-13408988D01*
X-631827Y-13283406D01*
X-850000Y-13239225D01*
X-1950000Y-13239225D01*
X-2153818Y-13277576D01*
X-2341012Y-13398032D01*
X-2466594Y-13581827D01*
X-2510775Y-13800000D01*
X-7169225Y-13800000D01*
X-7169225Y-12890000D01*
X-7207576Y-12686182D01*
X-7328032Y-12498988D01*
X-7511827Y-12373406D01*
X-7730000Y-12329225D01*
X-9510000Y-12329225D01*
X-9713818Y-12367576D01*
X-9901012Y-12488032D01*
X-10026594Y-12671827D01*
X-10070775Y-12890000D01*
X-12249225Y-12890000D01*
X-12287576Y-12686182D01*
X-12408032Y-12498988D01*
X-12591827Y-12373406D01*
X-12810000Y-12329225D01*
X-14590000Y-12329225D01*
X-14647264Y-12340000D01*
X-17687432Y-12340000D01*
X-17782032Y-12192988D01*
X-17965827Y-12067406D01*
X-18184000Y-12023225D01*
X-20216000Y-12023225D01*
X-20305059Y-12039983D01*
X-20157538Y-11892462D01*
X-19929926Y-11551818D01*
X-19850000Y-11150000D01*
X-19850000Y-11015636D01*
X-19798743Y-10940619D01*
X-19701968Y-11091012D01*
X-19518173Y-11216594D01*
X-19300000Y-11260775D01*
X-18897199Y-11260775D01*
X-18700000Y-11300000D01*
X-17841951Y-11300000D01*
X-17579151Y-11563260D01*
X-17009667Y-11799730D01*
X-16393039Y-11800268D01*
X-15823143Y-11564792D01*
X-15386740Y-11129151D01*
X-15150270Y-10559667D01*
X-15149732Y-9943039D01*
X-15385208Y-9373143D01*
X-15820849Y-8936740D01*
X-16390333Y-8700270D01*
X-17006961Y-8699732D01*
X-17576857Y-8935208D01*
X-17842112Y-9200000D01*
X-18700000Y-9200000D01*
X-18897199Y-9239225D01*
X-19300000Y-9239225D01*
X-19503818Y-9277576D01*
X-19691012Y-9398032D01*
X-19801257Y-9559381D01*
X-19898032Y-9408988D01*
X-20081827Y-9283406D01*
X-20300000Y-9239225D01*
X-20702801Y-9239225D01*
X-20900000Y-9200000D01*
X-21097199Y-9239225D01*
X-21500000Y-9239225D01*
X-21703818Y-9277576D01*
X-21891012Y-9398032D01*
X-22016594Y-9581827D01*
X-22060775Y-9800000D01*
X-22060775Y-10700000D01*
X-22040845Y-10805921D01*
X-22482462Y-11247538D01*
X-22710074Y-11588182D01*
X-22790000Y-11990000D01*
X-22790000Y-12433865D01*
X-22878009Y-12492671D01*
X-23217475Y-13000718D01*
X-23336680Y-13600000D01*
X-24375000Y-13600000D01*
X-24375000Y-1477051D01*
X-24332013Y-1693159D01*
X-23996016Y-2196016D01*
X-23475980Y-2716051D01*
X-23475980Y-2938795D01*
X-23500780Y-2938795D01*
X-23704598Y-2977146D01*
X-23891792Y-3097602D01*
X-24017374Y-3281397D01*
X-24061555Y-3499570D01*
X-24061555Y-5300430D01*
X-24023204Y-5504248D01*
X-23902748Y-5691442D01*
X-23718953Y-5817024D01*
X-23500780Y-5861205D01*
X-22372381Y-5861205D01*
X-21925980Y-5950000D01*
X-21479579Y-5861205D01*
X-20351180Y-5861205D01*
X-20147362Y-5822854D01*
X-19960168Y-5702398D01*
X-19834586Y-5518603D01*
X-19790405Y-5300430D01*
X-19790405Y-3499570D01*
X-19828756Y-3295752D01*
X-19949212Y-3108558D01*
X-20133007Y-2982976D01*
X-20351180Y-2938795D01*
X-20375980Y-2938795D01*
X-20375980Y-2074020D01*
X-20402149Y-1942462D01*
X-20493967Y-1480860D01*
X-20710004Y-1157538D01*
X-20829964Y-978004D01*
X-20829967Y-978002D01*
X-21350000Y-457968D01*
X-21350000Y195952D01*
X-21308406Y256827D01*
X-21264225Y475000D01*
X-21264225Y800000D01*
X-17100000Y800000D01*
X-16602512Y898957D01*
X-16376459Y1050000D01*
X-15134924Y1050000D01*
X-14300000Y215076D01*
X-14300000Y-109364D01*
X-14366594Y-206827D01*
X-14410775Y-425000D01*
X-14410775Y-1125851D01*
X-14442462Y-1157538D01*
X-14670074Y-1498182D01*
X-14750000Y-1900000D01*
X-14750000Y-2369331D01*
X-14793818Y-2377576D01*
X-14981012Y-2498032D01*
X-15106594Y-2681827D01*
X-15150775Y-2900000D01*
X-15150775Y-5400000D01*
X-15112424Y-5603818D01*
X-14991968Y-5791012D01*
X-14808173Y-5916594D01*
X-14750000Y-5928374D01*
X-14750000Y-6400000D01*
X-14670074Y-6801818D01*
X-14442462Y-7142462D01*
X-10642462Y-10942462D01*
X-10301818Y-11170074D01*
X-9900000Y-11250000D01*
X-7541951Y-11250000D01*
X-7279151Y-11513260D01*
X-6709667Y-11749730D01*
X-6093039Y-11750268D01*
X-5523143Y-11514792D01*
X-5257888Y-11250000D01*
X-3700000Y-11250000D01*
X-3298182Y-11170074D01*
X-2957538Y-10942462D01*
X-657538Y-8642462D01*
X-429926Y-8301818D01*
X-350000Y-7900000D01*
X-350000Y-7215636D01*
X-339316Y-7200000D01*
X79467Y-7200000D01*
X138032Y-7291012D01*
X321827Y-7416594D01*
X540000Y-7460775D01*
X1740000Y-7460775D01*
X1943818Y-7422424D01*
X2131012Y-7301968D01*
X2200684Y-7200000D01*
X2380000Y-7200000D01*
X2380000Y-7280000D01*
X2478957Y-7777489D01*
X2760761Y-8199239D01*
X3880761Y-9319239D01*
X4302511Y-9601043D01*
X4800000Y-9700000D01*
X9076067Y-9700000D01*
X9359039Y-9889076D01*
X9900000Y-9996680D01*
X10440961Y-9889076D01*
X10899566Y-9582646D01*
X11205996Y-9124041D01*
X11313600Y-8583080D01*
X11313600Y-8216920D01*
X11205996Y-7675959D01*
X10899566Y-7217354D01*
X10574273Y-7000000D01*
X14305727Y-7000000D01*
X13980434Y-7217354D01*
X13674004Y-7675959D01*
X13566400Y-8216920D01*
X13566400Y-8583080D01*
X13674004Y-9124041D01*
X13980434Y-9582646D01*
X14439039Y-9889076D01*
X14980000Y-9996680D01*
X15520961Y-9889076D01*
X15979566Y-9582646D01*
X16250000Y-9177913D01*
X16520434Y-9582646D01*
X16979039Y-9889076D01*
X17520000Y-9996680D01*
X18060961Y-9889076D01*
X18519566Y-9582646D01*
X18790000Y-9177913D01*
X19060434Y-9582646D01*
X19519039Y-9889076D01*
X20060000Y-9996680D01*
X20600961Y-9889076D01*
X21059566Y-9582646D01*
X21175625Y-9408951D01*
X21175625Y-9416000D01*
X21213976Y-9619818D01*
X21334432Y-9807012D01*
X21518227Y-9932594D01*
X21736400Y-9976775D01*
X23463600Y-9976775D01*
X23667418Y-9938424D01*
X23854612Y-9817968D01*
X23980194Y-9634173D01*
X24024375Y-9416000D01*
X24024375Y-7384000D01*
X23986024Y-7180182D01*
X23865568Y-6992988D01*
X23681773Y-6867406D01*
X23463600Y-6823225D01*
X23384729Y-6823225D01*
X23339104Y-6593853D01*
X23165685Y-6334315D01*
X21465685Y-4634315D01*
X21206147Y-4460896D01*
X20900000Y-4400000D01*
X16366888Y-4400000D01*
X16549730Y-3959667D01*
X16550268Y-3343039D01*
X16314792Y-2773143D01*
X15879151Y-2336740D01*
X15374264Y-2127093D01*
X15491012Y-2051968D01*
X15601257Y-1890619D01*
X15698032Y-2041012D01*
X15881827Y-2166594D01*
X16100000Y-2210775D01*
X16502801Y-2210775D01*
X16700000Y-2250000D01*
X19200000Y-2250000D01*
X19397199Y-2210775D01*
X19800000Y-2210775D01*
X20003818Y-2172424D01*
X20191012Y-2051968D01*
X20316594Y-1868173D01*
X20360775Y-1650000D01*
X20360775Y-750000D01*
X20322424Y-546182D01*
X20201968Y-358988D01*
X20018173Y-233406D01*
X19800000Y-189225D01*
X19397199Y-189225D01*
X19200000Y-150000D01*
X16700000Y-150000D01*
X16502801Y-189225D01*
X16100000Y-189225D01*
X15896182Y-227576D01*
X15708988Y-348032D01*
X15598743Y-509381D01*
X15501968Y-358988D01*
X15318173Y-233406D01*
X15100000Y-189225D01*
X13900000Y-189225D01*
X13696182Y-227576D01*
X13508988Y-348032D01*
X13473480Y-400000D01*
X13131370Y-400000D01*
X11416705Y1314665D01*
X11157167Y1488084D01*
X10851020Y1548980D01*
X10460755Y1548980D01*
X10460755Y1773870D01*
X10426567Y1955564D01*
X10460755Y2124390D01*
X10460755Y2349280D01*
X10951993Y2349280D01*
X10952576Y2346182D01*
X11073032Y2158988D01*
X11256827Y2033406D01*
X11475000Y1989225D01*
X11525851Y1989225D01*
X12557538Y957538D01*
X12898182Y729926D01*
X13300000Y650000D01*
X16858049Y650000D01*
X17120849Y386740D01*
X17690333Y150270D01*
X18306961Y149732D01*
X18876857Y385208D01*
X19313260Y820849D01*
X19549730Y1390333D01*
X19550268Y2006961D01*
X19314792Y2576857D01*
X18879151Y3013260D01*
X18309667Y3249730D01*
X17693039Y3250268D01*
X17123143Y3014792D01*
X16857888Y2750000D01*
X13734924Y2750000D01*
X12785775Y3699149D01*
X12785775Y3750000D01*
X12747424Y3953818D01*
X12626968Y4141012D01*
X12443173Y4266594D01*
X12225000Y4310775D01*
X11475000Y4310775D01*
X11271182Y4272424D01*
X11083988Y4151968D01*
X10958406Y3968173D01*
X10954580Y3949280D01*
X10460755Y3949280D01*
X10460755Y4174170D01*
X10422404Y4377988D01*
X10301948Y4565182D01*
X10118153Y4690764D01*
X9899980Y4734945D01*
X9472550Y4734945D01*
X9399980Y4749380D01*
X7781990Y4749380D01*
X7765685Y4765685D01*
X7506147Y4939104D01*
X7200000Y5000000D01*
X3871899Y5000000D01*
X3579151Y5293260D01*
X3009667Y5529730D01*
X2393039Y5530268D01*
X1823143Y5294792D01*
X1386740Y4859151D01*
X1150270Y4289667D01*
X1149818Y3771363D01*
X1129667Y3779730D01*
X513039Y3780268D01*
X-56857Y3544792D01*
X-493260Y3109151D01*
X-729730Y2539667D01*
X-730268Y1923039D01*
X-494792Y1353143D01*
X-59151Y916740D01*
X510333Y680270D01*
X1126961Y679732D01*
X1206169Y712460D01*
X1454180Y464449D01*
X1474315Y434315D01*
X1894315Y14314D01*
X2153853Y-159104D01*
X2338235Y-195780D01*
X2169252Y-227576D01*
X1982058Y-348032D01*
X1856476Y-531827D01*
X1812295Y-750000D01*
X1812295Y-1750000D01*
X1850646Y-1953818D01*
X1912544Y-2050010D01*
X1797660Y-2049910D01*
X1797660Y-1250000D01*
X1783225Y-1177430D01*
X1783225Y-750000D01*
X1744874Y-546182D01*
X1624418Y-358988D01*
X1440623Y-233406D01*
X1222450Y-189225D01*
X772870Y-189225D01*
X591176Y-223413D01*
X422350Y-189225D01*
X-27230Y-189225D01*
X-207607Y-223165D01*
X-375210Y-189225D01*
X-824790Y-189225D01*
X-1028608Y-227576D01*
X-1180009Y-325000D01*
X-2566852Y-325000D01*
X-2855267Y-36585D01*
X-2098980Y-36585D01*
X-1895162Y1766D01*
X-1707968Y122222D01*
X-1582386Y306017D01*
X-1538205Y524190D01*
X-1538205Y973770D01*
X-1572393Y1155464D01*
X-1538205Y1324290D01*
X-1538205Y1773870D01*
X-1572393Y1955564D01*
X-1538205Y2124390D01*
X-1538205Y2573970D01*
X-1572393Y2755664D01*
X-1538205Y2924490D01*
X-1538205Y3374070D01*
X-1572393Y3555764D01*
X-1538205Y3724590D01*
X-1538205Y4174170D01*
X-1572393Y4355864D01*
X-1538205Y4524690D01*
X-1538205Y4974270D01*
X-1572393Y5155964D01*
X-1538205Y5324790D01*
X-1538205Y5774370D01*
X-1572393Y5956064D01*
X-1538205Y6124890D01*
X-1538205Y6574470D01*
X-1572393Y6756164D01*
X-1538205Y6924990D01*
X-1538205Y7374570D01*
X-1554784Y7462680D01*
X-1379151Y7286740D01*
X-809667Y7050270D01*
X-193039Y7049732D01*
X376857Y7285208D01*
X635365Y7543265D01*
X2024314Y6154315D01*
X2266422Y5992543D01*
X2283853Y5980896D01*
X2590000Y5920000D01*
X3978629Y5920000D01*
X4114635Y5783994D01*
X4374173Y5610576D01*
X4680320Y5549680D01*
X8339205Y5549680D01*
X8339205Y5324790D01*
X8377556Y5120972D01*
X8498012Y4933778D01*
X8681807Y4808196D01*
X8899980Y4764015D01*
X9899980Y4764015D01*
X10103798Y4802366D01*
X10290992Y4922822D01*
X10416574Y5106617D01*
X10460755Y5324790D01*
X10460755Y5774370D01*
X10426567Y5956064D01*
X10460755Y6124890D01*
X10460755Y6349780D01*
X12142072Y6349780D01*
X13399754Y5092098D01*
X13383406Y5068173D01*
X13339225Y4850000D01*
X13339225Y3950000D01*
X13377576Y3746182D01*
X13498032Y3558988D01*
X13681827Y3433406D01*
X13900000Y3389225D01*
X15100000Y3389225D01*
X15303818Y3427576D01*
X15491012Y3548032D01*
X15601257Y3709381D01*
X15698032Y3558988D01*
X15881827Y3433406D01*
X16100000Y3389225D01*
X16502801Y3389225D01*
X16700000Y3350000D01*
X19200000Y3350000D01*
X19397199Y3389225D01*
X19800000Y3389225D01*
X20003818Y3427576D01*
X20191012Y3548032D01*
X20316594Y3731827D01*
X20360775Y3950000D01*
X20360775Y4850000D01*
X20322424Y5053818D01*
X20201968Y5241012D01*
X20018173Y5366594D01*
X19800000Y5410775D01*
X19397199Y5410775D01*
X19200000Y5450000D01*
X16700000Y5450000D01*
X16502801Y5410775D01*
X16100000Y5410775D01*
X15896182Y5372424D01*
X15708988Y5251968D01*
X15598743Y5090619D01*
X15501968Y5241012D01*
X15425000Y5293602D01*
X15425000Y5300000D01*
X15411754Y5366594D01*
X15354589Y5653983D01*
X15154074Y5954074D01*
X13659458Y7448690D01*
X13681827Y7433406D01*
X13900000Y7389225D01*
X15100000Y7389225D01*
X15303818Y7427576D01*
X15491012Y7548032D01*
X15601257Y7709381D01*
X15698032Y7558988D01*
X15881827Y7433406D01*
X16100000Y7389225D01*
X16502801Y7389225D01*
X16700000Y7350000D01*
X19200000Y7350000D01*
X19397199Y7389225D01*
X19800000Y7389225D01*
X20003818Y7427576D01*
X20191012Y7548032D01*
X20316594Y7731827D01*
X20360775Y7950000D01*
X20360775Y8850000D01*
X20322424Y9053818D01*
X20201968Y9241012D01*
X20018173Y9366594D01*
X19800000Y9410775D01*
X19397199Y9410775D01*
X19200000Y9450000D01*
X16700000Y9450000D01*
X16502801Y9410775D01*
X16100000Y9410775D01*
X15896182Y9372424D01*
X15708988Y9251968D01*
X15598743Y9090619D01*
X15501968Y9241012D01*
X15318173Y9366594D01*
X15100000Y9410775D01*
X13900000Y9410775D01*
X13696182Y9372424D01*
X13508988Y9251968D01*
X13473480Y9200000D01*
X12631370Y9200000D01*
X14920595Y11489225D01*
X15100000Y11489225D01*
X15303818Y11527576D01*
X15491012Y11648032D01*
X15601257Y11809381D01*
X15698032Y11658988D01*
X15881827Y11533406D01*
X16100000Y11489225D01*
X16502801Y11489225D01*
X16700000Y11450000D01*
X19200000Y11450000D01*
X19397199Y11489225D01*
X19800000Y11489225D01*
X20003818Y11527576D01*
X20191012Y11648032D01*
X20316594Y11831827D01*
X20360775Y12050000D01*
X20360775Y12950000D01*
X20322424Y13153818D01*
X20201968Y13341012D01*
X20018173Y13466594D01*
X19800000Y13510775D01*
X19397199Y13510775D01*
X19200000Y13550000D01*
X16700000Y13550000D01*
X16502801Y13510775D01*
X16100000Y13510775D01*
X15896182Y13472424D01*
X15708988Y13351968D01*
X15598743Y13190619D01*
X15501968Y13341012D01*
X15318173Y13466594D01*
X15100000Y13510775D01*
X13900000Y13510775D01*
X13696182Y13472424D01*
X13508988Y13351968D01*
X13383406Y13168173D01*
X13339225Y12950000D01*
X13339225Y12170595D01*
X12300028Y11131398D01*
X12300268Y11406961D01*
X12064792Y11976857D01*
X11629151Y12413260D01*
X11059667Y12649730D01*
X10443039Y12650268D01*
X9873143Y12414792D01*
X9436740Y11979151D01*
X9258109Y11548960D01*
X8083783Y11548960D01*
X8025218Y11639972D01*
X7841423Y11765554D01*
X7623250Y11809735D01*
X7173670Y11809735D01*
X6991976Y11775547D01*
X6823150Y11809735D01*
X6373570Y11809735D01*
X6169752Y11771384D01*
X5982558Y11650928D01*
X5856976Y11467133D01*
X5812795Y11248960D01*
X5812795Y10821530D01*
X5798360Y10748960D01*
X5798360Y9751640D01*
X5846271Y9510775D01*
X5859256Y9445493D01*
X5961145Y9293007D01*
X5646740Y8979151D01*
X5410270Y8409667D01*
X5409732Y7793039D01*
X5645208Y7223143D01*
X5718543Y7149680D01*
X5011690Y7149680D01*
X4875685Y7285685D01*
X4616147Y7459104D01*
X4310000Y7520000D01*
X2921371Y7520000D01*
X1275685Y9165685D01*
X1016147Y9339104D01*
X1006555Y9341012D01*
X858776Y9370407D01*
X814792Y9476857D01*
X575135Y9716933D01*
X604044Y9722373D01*
X772870Y9688185D01*
X1222450Y9688185D01*
X1404144Y9722373D01*
X1572970Y9688185D01*
X2022550Y9688185D01*
X2204244Y9722373D01*
X2373070Y9688185D01*
X2822650Y9688185D01*
X3004344Y9722373D01*
X3173170Y9688185D01*
X3622750Y9688185D01*
X3804444Y9722373D01*
X3973270Y9688185D01*
X4422850Y9688185D01*
X4604544Y9722373D01*
X4773370Y9688185D01*
X5222950Y9688185D01*
X5426768Y9726536D01*
X5613962Y9846992D01*
X5739544Y10030787D01*
X5783725Y10248960D01*
X5783725Y10676390D01*
X5798160Y10748960D01*
X5798160Y11850000D01*
X6450000Y11850000D01*
X6851818Y11929926D01*
X6903150Y11964225D01*
X7050000Y11964225D01*
X7253818Y12002576D01*
X7441012Y12123032D01*
X7566594Y12306827D01*
X7610775Y12525000D01*
X7610775Y13275000D01*
X7572424Y13478818D01*
X7451968Y13666012D01*
X7268173Y13791594D01*
X7050000Y13835775D01*
X6903150Y13835775D01*
X6851818Y13870074D01*
X6450000Y13950000D01*
X2234924Y13950000D01*
X3282462Y14997538D01*
X3417743Y15200000D01*
X3510074Y15338182D01*
X3590000Y15740000D01*
X3590000Y16058049D01*
X3853260Y16320849D01*
X4089730Y16890333D01*
X4089732Y16893039D01*
X10549732Y16893039D01*
X10785208Y16323143D01*
X11050000Y16057888D01*
X11050000Y16000000D01*
X11129926Y15598182D01*
X11357538Y15257538D01*
X12157538Y14457538D01*
X12498182Y14229926D01*
X12900000Y14150000D01*
X15600000Y14150000D01*
X16001818Y14229926D01*
X16342462Y14457538D01*
X17616042Y15731118D01*
X17690333Y15700270D01*
X18306961Y15699732D01*
X18876857Y15935208D01*
X19142112Y16200000D01*
X19309364Y16200000D01*
X19406827Y16133406D01*
X19625000Y16089225D01*
X20375000Y16089225D01*
X20578818Y16127576D01*
X20766012Y16248032D01*
X20891594Y16431827D01*
X20935775Y16650000D01*
X20935775Y16796850D01*
X20970074Y16848182D01*
X21050000Y17250000D01*
X20970074Y17651818D01*
X20935775Y17703150D01*
X20935775Y17850000D01*
X20897424Y18053818D01*
X20776968Y18241012D01*
X20593173Y18366594D01*
X20375000Y18410775D01*
X19625000Y18410775D01*
X19421182Y18372424D01*
X19308632Y18300000D01*
X19141951Y18300000D01*
X18879151Y18563260D01*
X18309667Y18799730D01*
X17693039Y18800268D01*
X17123143Y18564792D01*
X16686740Y18129151D01*
X16450270Y17559667D01*
X16450249Y17535173D01*
X16190066Y17274990D01*
X16190268Y17506961D01*
X15954792Y18076857D01*
X15519151Y18513260D01*
X14949667Y18749730D01*
X14333039Y18750268D01*
X13763143Y18514792D01*
X13369696Y18122032D01*
X12979151Y18513260D01*
X12409667Y18749730D01*
X11793039Y18750268D01*
X11223143Y18514792D01*
X10786740Y18079151D01*
X10550270Y17509667D01*
X10549732Y16893039D01*
X4089732Y16893039D01*
X4090268Y17506961D01*
X3854792Y18076857D01*
X3419151Y18513260D01*
X2849667Y18749730D01*
X2233039Y18750268D01*
X1663143Y18514792D01*
X1226740Y18079151D01*
X990270Y17509667D01*
X989732Y16893039D01*
X1225208Y16323143D01*
X1431533Y16116457D01*
X207538Y14892462D01*
X-20074Y14551818D01*
X-100000Y14150000D01*
X-100000Y13590636D01*
X-166594Y13493173D01*
X-210775Y13275000D01*
X-210775Y12525000D01*
X-172424Y12321182D01*
X-51968Y12133988D01*
X131827Y12008406D01*
X350000Y11964225D01*
X496850Y11964225D01*
X548182Y11929926D01*
X950000Y11850000D01*
X4198160Y11850000D01*
X4198160Y11809735D01*
X3973270Y11809735D01*
X3791576Y11775547D01*
X3622750Y11809735D01*
X3173170Y11809735D01*
X2991476Y11775547D01*
X2822650Y11809735D01*
X2373070Y11809735D01*
X2191376Y11775547D01*
X2022550Y11809735D01*
X1572970Y11809735D01*
X1391276Y11775547D01*
X1222450Y11809735D01*
X772870Y11809735D01*
X591176Y11775547D01*
X422350Y11809735D01*
X-27230Y11809735D01*
X-207607Y11775795D01*
X-375210Y11809735D01*
X-824790Y11809735D01*
X-1028608Y11771384D01*
X-1215802Y11650928D01*
X-1278214Y11559585D01*
X-1740000Y12021370D01*
X-1740000Y15853451D01*
X-1663143Y15885208D01*
X-1226740Y16320849D01*
X-990270Y16890333D01*
X-989732Y17506961D01*
X-1225208Y18076857D01*
X-1660849Y18513260D01*
X-2230333Y18749730D01*
X-2846961Y18750268D01*
X-3416857Y18514792D01*
X-3853260Y18079151D01*
X-4089730Y17509667D01*
X-4090268Y16893039D01*
X-3854792Y16323143D01*
X-3419151Y15886740D01*
X-3340000Y15853874D01*
X-3340000Y12191095D01*
X-3379926Y12391817D01*
X-3607538Y12732462D01*
X-8010057Y17134981D01*
X-8009732Y17506961D01*
X-8245208Y18076857D01*
X-8680849Y18513260D01*
X-9250333Y18749730D01*
X-9866961Y18750268D01*
X-10436857Y18514792D01*
X-10830304Y18122032D01*
X-11220849Y18513260D01*
X-11790333Y18749730D01*
X-12406961Y18750268D01*
X-12976857Y18514792D01*
X-13413260Y18079151D01*
X-13649730Y17509667D01*
X-13650268Y16893039D01*
X-13414792Y16323143D01*
X-13150000Y16057888D01*
X-13150000Y15934924D01*
X-13392462Y15692462D01*
X-13620074Y15351818D01*
X-13700000Y14950000D01*
X-13700000Y13590636D01*
X-13766594Y13493173D01*
X-13810775Y13275000D01*
X-13810775Y12525000D01*
X-13772424Y12321182D01*
X-13700000Y12208632D01*
X-13700000Y9205712D01*
X-13725000Y9210775D01*
X-14475000Y9210775D01*
X-14678818Y9172424D01*
X-14866012Y9051968D01*
X-14991594Y8868173D01*
X-15035775Y8650000D01*
X-15035775Y8503150D01*
X-15070074Y8451818D01*
X-15150000Y8050000D01*
X-15070074Y7648182D01*
X-15035775Y7596850D01*
X-15035775Y7450000D01*
X-14997424Y7246182D01*
X-14876968Y7058988D01*
X-14693173Y6933406D01*
X-14475000Y6889225D01*
X-13725000Y6889225D01*
X-13521182Y6927576D01*
X-13408632Y7000000D01*
X-12730775Y7000000D01*
X-12730775Y6500000D01*
X-12692424Y6296182D01*
X-12571968Y6108988D01*
X-12388173Y5983406D01*
X-12170000Y5939225D01*
X-10170000Y5939225D01*
X-9966182Y5977576D01*
X-9795252Y6087566D01*
X-9706067Y6026629D01*
X-9791012Y5971968D01*
X-9916594Y5788173D01*
X-9960775Y5570000D01*
X-9960775Y2670000D01*
X-9922424Y2466182D01*
X-9801968Y2278988D01*
X-9618173Y2153406D01*
X-9400000Y2109225D01*
X-7617373Y2109225D01*
X-5718923Y210775D01*
X-5902801Y210775D01*
X-6100000Y250000D01*
X-6297199Y210775D01*
X-6700000Y210775D01*
X-6903818Y172424D01*
X-7091012Y51968D01*
X-7201257Y-109381D01*
X-7298032Y41012D01*
X-7481827Y166594D01*
X-7700000Y210775D01*
X-7825851Y210775D01*
X-9007538Y1392462D01*
X-9348182Y1620074D01*
X-9750000Y1700000D01*
X-12815076Y1700000D01*
X-13957538Y2842462D01*
X-14298182Y3070074D01*
X-14700000Y3150000D01*
X-16376459Y3150000D01*
X-16526120Y3250000D01*
X-16355170Y3364225D01*
X-16025000Y3364225D01*
X-15821182Y3402576D01*
X-15633988Y3523032D01*
X-15508406Y3706827D01*
X-15464225Y3925000D01*
X-15464225Y4875000D01*
X-15502576Y5078818D01*
X-15623032Y5266012D01*
X-15800000Y5386929D01*
X-15800000Y5400000D01*
X-15874467Y5774370D01*
X-15898957Y5897489D01*
X-16180761Y6319239D01*
X-16774020Y6912498D01*
X-16774020Y7238795D01*
X-16499220Y7238795D01*
X-16295402Y7277146D01*
X-16108208Y7397602D01*
X-15982626Y7581397D01*
X-15938445Y7799570D01*
X-15938445Y9600430D01*
X-15976796Y9804248D01*
X-16097252Y9991442D01*
X-16281047Y10117024D01*
X-16499220Y10161205D01*
X-16550000Y10161205D01*
X-16550000Y12899995D01*
X-16549999Y12900000D01*
X-16667987Y13493159D01*
X-16767748Y13642462D01*
X-17003984Y13996016D01*
X-17003987Y13996018D01*
X-19003984Y15996016D01*
X-19003985Y15996017D01*
X-19220849Y16213260D01*
X-19790333Y16449730D01*
X-20099996Y16450000D01*
X-20100000Y16450001D01*
X-20100004Y16450000D01*
X-20406961Y16450268D01*
X-20976857Y16214792D01*
X-21413260Y15779151D01*
X-21649730Y15209667D01*
X-21650000Y14900004D01*
X-21650001Y14900000D01*
X-21650000Y14899996D01*
X-21650268Y14593039D01*
X-21414792Y14023143D01*
X-20979151Y13586740D01*
X-20978503Y13586471D01*
X-19650000Y12257969D01*
X-19650000Y10160983D01*
X-19852638Y10122854D01*
X-20039832Y10002398D01*
X-20165414Y9818603D01*
X-20209595Y9600430D01*
X-20209595Y7799570D01*
X-20171244Y7595752D01*
X-20050788Y7408558D01*
X-19866993Y7282976D01*
X-19648820Y7238795D01*
X-19374020Y7238795D01*
X-19374020Y6374020D01*
X-19275063Y5876531D01*
X-18993259Y5454781D01*
X-18667262Y5128784D01*
X-18691594Y5093173D01*
X-18735775Y4875000D01*
X-18735775Y3925000D01*
X-18697424Y3721182D01*
X-18576968Y3533988D01*
X-18393173Y3408406D01*
X-18351663Y3400000D01*
X-21264225Y3400000D01*
X-21264225Y3725000D01*
X-21302576Y3928818D01*
X-21423032Y4116012D01*
X-21606827Y4241594D01*
X-21825000Y4285775D01*
X-23975000Y4285775D01*
X-24178818Y4247424D01*
X-24366012Y4126968D01*
X-24375000Y4113814D01*
X-24375000Y20633529D01*
X-21690312Y20633529D01*
X-21416855Y19971714D01*
X-20910949Y19464924D01*
X-20249613Y19190313D01*
X-19533529Y19189688D01*
X-18871714Y19463145D01*
X-18364924Y19969051D01*
X-18126380Y20543529D01*
X18099688Y20543529D01*
X18373145Y19881714D01*
X18879051Y19374924D01*
X19540387Y19100313D01*
X20256471Y19099688D01*
X20918286Y19373145D01*
X21425076Y19879051D01*
X21699687Y20540387D01*
X21700312Y21256471D01*
X21426855Y21918286D01*
X20920949Y22425076D01*
X20259613Y22699687D01*
X19543529Y22700312D01*
X18881714Y22426855D01*
X18374924Y21920949D01*
X18100313Y21259613D01*
X18099688Y20543529D01*
X-18126380Y20543529D01*
X-18090313Y20630387D01*
X-18089688Y21346471D01*
X-18363145Y22008286D01*
X-18869051Y22515076D01*
X-19530387Y22789687D01*
X-20246471Y22790312D01*
X-20908286Y22516855D01*
X-21415076Y22010949D01*
X-21689687Y21349613D01*
X-21690312Y20633529D01*
X-24375000Y20633529D01*
X-24375000Y25375000D01*
X24375000Y25375000D01*
X24375000Y-25375000D01*
G36*
X-9460775Y-1124149D02*
X-9460775Y-1250000D01*
X-9422424Y-1453818D01*
X-9301968Y-1641012D01*
X-9118173Y-1766594D01*
X-8900000Y-1810775D01*
X-8497198Y-1810775D01*
X-8300000Y-1850000D01*
X-8102801Y-1810775D01*
X-7700000Y-1810775D01*
X-7496182Y-1772424D01*
X-7308988Y-1651968D01*
X-7198743Y-1490619D01*
X-7150000Y-1566368D01*
X-7150000Y-3600000D01*
X-7169225Y-3600000D01*
X-7169225Y-2900000D01*
X-7207576Y-2696182D01*
X-7328032Y-2508988D01*
X-7511827Y-2383406D01*
X-7730000Y-2339225D01*
X-9510000Y-2339225D01*
X-9713818Y-2377576D01*
X-9901012Y-2498032D01*
X-10026594Y-2681827D01*
X-10070775Y-2900000D01*
X-10070775Y-5400000D01*
X-10032424Y-5603818D01*
X-9911968Y-5791012D01*
X-9728173Y-5916594D01*
X-9510000Y-5960775D01*
X-7730000Y-5960775D01*
X-7526182Y-5922424D01*
X-7338988Y-5801968D01*
X-7269316Y-5700000D01*
X-6234924Y-5700000D01*
X-5599943Y-6334981D01*
X-5600268Y-6706961D01*
X-5364792Y-7276857D01*
X-4929151Y-7713260D01*
X-4359667Y-7949730D01*
X-3743039Y-7950268D01*
X-3173143Y-7714792D01*
X-2736740Y-7279151D01*
X-2560775Y-6855379D01*
X-2560775Y-6900000D01*
X-2522424Y-7103818D01*
X-2450000Y-7216368D01*
X-2450000Y-7465076D01*
X-4134924Y-9150000D01*
X-5258049Y-9150000D01*
X-5520849Y-8886740D01*
X-6090333Y-8650270D01*
X-6706961Y-8649732D01*
X-7276857Y-8885208D01*
X-7542112Y-9150000D01*
X-9465076Y-9150000D01*
X-12650000Y-5965076D01*
X-12650000Y-5930669D01*
X-12606182Y-5922424D01*
X-12418988Y-5801968D01*
X-12293406Y-5618173D01*
X-12249225Y-5400000D01*
X-12249225Y-2900000D01*
X-12287576Y-2696182D01*
X-12408032Y-2508988D01*
X-12591827Y-2383406D01*
X-12650000Y-2371626D01*
X-12650000Y-2334924D01*
X-12507538Y-2192462D01*
X-12279926Y-1851818D01*
X-12211402Y-1507324D01*
X-12133406Y-1393173D01*
X-12089225Y-1175000D01*
X-12089225Y-425000D01*
X-12093929Y-400000D01*
X-10184924Y-400000D01*
X-9460775Y-1124149D01*
X-9460775Y-1124149D01*
G37*
X-9460775Y-1124149D02*
X-9460775Y-1250000D01*
X-9422424Y-1453818D01*
X-9301968Y-1641012D01*
X-9118173Y-1766594D01*
X-8900000Y-1810775D01*
X-8497198Y-1810775D01*
X-8300000Y-1850000D01*
X-8102801Y-1810775D01*
X-7700000Y-1810775D01*
X-7496182Y-1772424D01*
X-7308988Y-1651968D01*
X-7198743Y-1490619D01*
X-7150000Y-1566368D01*
X-7150000Y-3600000D01*
X-7169225Y-3600000D01*
X-7169225Y-2900000D01*
X-7207576Y-2696182D01*
X-7328032Y-2508988D01*
X-7511827Y-2383406D01*
X-7730000Y-2339225D01*
X-9510000Y-2339225D01*
X-9713818Y-2377576D01*
X-9901012Y-2498032D01*
X-10026594Y-2681827D01*
X-10070775Y-2900000D01*
X-10070775Y-5400000D01*
X-10032424Y-5603818D01*
X-9911968Y-5791012D01*
X-9728173Y-5916594D01*
X-9510000Y-5960775D01*
X-7730000Y-5960775D01*
X-7526182Y-5922424D01*
X-7338988Y-5801968D01*
X-7269316Y-5700000D01*
X-6234924Y-5700000D01*
X-5599943Y-6334981D01*
X-5600268Y-6706961D01*
X-5364792Y-7276857D01*
X-4929151Y-7713260D01*
X-4359667Y-7949730D01*
X-3743039Y-7950268D01*
X-3173143Y-7714792D01*
X-2736740Y-7279151D01*
X-2560775Y-6855379D01*
X-2560775Y-6900000D01*
X-2522424Y-7103818D01*
X-2450000Y-7216368D01*
X-2450000Y-7465076D01*
X-4134924Y-9150000D01*
X-5258049Y-9150000D01*
X-5520849Y-8886740D01*
X-6090333Y-8650270D01*
X-6706961Y-8649732D01*
X-7276857Y-8885208D01*
X-7542112Y-9150000D01*
X-9465076Y-9150000D01*
X-12650000Y-5965076D01*
X-12650000Y-5930669D01*
X-12606182Y-5922424D01*
X-12418988Y-5801968D01*
X-12293406Y-5618173D01*
X-12249225Y-5400000D01*
X-12249225Y-2900000D01*
X-12287576Y-2696182D01*
X-12408032Y-2508988D01*
X-12591827Y-2383406D01*
X-12650000Y-2371626D01*
X-12650000Y-2334924D01*
X-12507538Y-2192462D01*
X-12279926Y-1851818D01*
X-12211402Y-1507324D01*
X-12133406Y-1393173D01*
X-12089225Y-1175000D01*
X-12089225Y-425000D01*
X-12093929Y-400000D01*
X-10184924Y-400000D01*
X-9460775Y-1124149D01*
G36*
X-10439151Y15886740D02*
X-9869667Y15650270D01*
X-9494867Y15649943D01*
X-5092462Y11247538D01*
X-4751817Y11019926D01*
X-4439091Y10957721D01*
X-3398980Y9917610D01*
X-3398980Y9435303D01*
X-3489992Y9376738D01*
X-3615574Y9192943D01*
X-3659755Y8974770D01*
X-3659755Y8749880D01*
X-4129541Y8749880D01*
X-4129926Y8751818D01*
X-4164225Y8803150D01*
X-4164225Y8950000D01*
X-4202576Y9153818D01*
X-4323032Y9341012D01*
X-4506827Y9466594D01*
X-4725000Y9510775D01*
X-5475000Y9510775D01*
X-5678818Y9472424D01*
X-5791368Y9400000D01*
X-6851107Y9400000D01*
X-6887576Y9593818D01*
X-7008032Y9781012D01*
X-7191827Y9906594D01*
X-7410000Y9950775D01*
X-9410000Y9950775D01*
X-9613818Y9912424D01*
X-9784748Y9802434D01*
X-9951827Y9916594D01*
X-10170000Y9960775D01*
X-11600000Y9960775D01*
X-11600000Y12209364D01*
X-11533406Y12306827D01*
X-11489225Y12525000D01*
X-11489225Y13275000D01*
X-11527576Y13478818D01*
X-11600000Y13591368D01*
X-11600000Y14515076D01*
X-11357538Y14757538D01*
X-11129926Y15098182D01*
X-11050000Y15500000D01*
X-11050000Y16058049D01*
X-10829696Y16277968D01*
X-10439151Y15886740D01*
X-10439151Y15886740D01*
G37*
X-10439151Y15886740D02*
X-9869667Y15650270D01*
X-9494867Y15649943D01*
X-5092462Y11247538D01*
X-4751817Y11019926D01*
X-4439091Y10957721D01*
X-3398980Y9917610D01*
X-3398980Y9435303D01*
X-3489992Y9376738D01*
X-3615574Y9192943D01*
X-3659755Y8974770D01*
X-3659755Y8749880D01*
X-4129541Y8749880D01*
X-4129926Y8751818D01*
X-4164225Y8803150D01*
X-4164225Y8950000D01*
X-4202576Y9153818D01*
X-4323032Y9341012D01*
X-4506827Y9466594D01*
X-4725000Y9510775D01*
X-5475000Y9510775D01*
X-5678818Y9472424D01*
X-5791368Y9400000D01*
X-6851107Y9400000D01*
X-6887576Y9593818D01*
X-7008032Y9781012D01*
X-7191827Y9906594D01*
X-7410000Y9950775D01*
X-9410000Y9950775D01*
X-9613818Y9912424D01*
X-9784748Y9802434D01*
X-9951827Y9916594D01*
X-10170000Y9960775D01*
X-11600000Y9960775D01*
X-11600000Y12209364D01*
X-11533406Y12306827D01*
X-11489225Y12525000D01*
X-11489225Y13275000D01*
X-11527576Y13478818D01*
X-11600000Y13591368D01*
X-11600000Y14515076D01*
X-11357538Y14757538D01*
X-11129926Y15098182D01*
X-11050000Y15500000D01*
X-11050000Y16058049D01*
X-10829696Y16277968D01*
X-10439151Y15886740D01*
M02*
