G04 #@! TF.FileFunction,Soldermask,Bot*
%FSLAX46Y46*%
G04 Gerber Fmt 4.6, Leading zero omitted, Abs format (unit mm)*
G04 Created by KiCad (PCBNEW 4.0.0-rc1-stable) date 15.2.2016 17:04:43*
%MOMM*%
G01*
G04 APERTURE LIST*
%ADD10C,0.100000*%
%ADD11C,2.500000*%
%ADD12R,2.432000X2.432000*%
%ADD13O,2.432000X2.432000*%
%ADD14C,3.400000*%
%ADD15C,2.400000*%
%ADD16R,2.127200X2.432000*%
%ADD17O,2.127200X2.432000*%
%ADD18R,2.180000X2.900000*%
G04 APERTURE END LIST*
D10*
D11*
X-5080000Y-22170000D03*
X-5080000Y-19630000D03*
X-2540000Y-22170000D03*
X-2540000Y-19630000D03*
X0Y-22170000D03*
X0Y-19630000D03*
X2540000Y-22170000D03*
X2540000Y-19630000D03*
X5080000Y-22170000D03*
X5080000Y-19630000D03*
X-7620000Y-22170000D03*
D12*
X-19200000Y-13600000D03*
D13*
X-21740000Y-13600000D03*
D14*
X-8290000Y20950000D03*
D15*
X-9560000Y17200000D03*
X-12100000Y17200000D03*
X-14640000Y17200000D03*
D14*
X-15910000Y20950000D03*
X3810000Y20950000D03*
D15*
X2540000Y17200000D03*
X0Y17200000D03*
X-2540000Y17200000D03*
D14*
X-3810000Y20950000D03*
X15910000Y20950000D03*
D15*
X14640000Y17200000D03*
X12100000Y17200000D03*
X9560000Y17200000D03*
D14*
X8290000Y20950000D03*
D16*
X22600000Y-8400000D03*
D17*
X20060000Y-8400000D03*
X17520000Y-8400000D03*
X14980000Y-8400000D03*
X12440000Y-8400000D03*
X9900000Y-8400000D03*
D18*
X-8620000Y-14140000D03*
X-11160000Y-14140000D03*
X-13700000Y-14140000D03*
X-8620000Y-4150000D03*
X-11160000Y-4150000D03*
X-13700000Y-4150000D03*
M02*
