G04 #@! TF.FileFunction,Copper,L1,Top,Signal*
%FSLAX46Y46*%
G04 Gerber Fmt 4.6, Leading zero omitted, Abs format (unit mm)*
G04 Created by KiCad (PCBNEW 4.0.0-rc1-stable) date 21.10.2016 11:20:38*
%MOMM*%
G01*
G04 APERTURE LIST*
%ADD10C,0.100000*%
%ADD11C,3.100000*%
%ADD12R,1.727200X1.727200*%
%ADD13O,1.727200X1.727200*%
%ADD14C,1.506220*%
%ADD15C,4.100000*%
%ADD16O,2.500000X1.500000*%
%ADD17C,0.800000*%
%ADD18C,1.000000*%
%ADD19C,0.700000*%
%ADD20C,0.508000*%
%ADD21C,0.254000*%
%ADD22C,0.500000*%
G04 APERTURE END LIST*
D10*
D11*
X14150000Y-44955000D03*
X53940000Y-44955000D03*
X53940000Y-5075000D03*
D12*
X54160000Y-9875000D03*
D13*
X56700000Y-9875000D03*
X54160000Y-12415000D03*
X56700000Y-12415000D03*
X54160000Y-14955000D03*
X56700000Y-14955000D03*
X54160000Y-17495000D03*
X56700000Y-17495000D03*
X54160000Y-20035000D03*
X56700000Y-20035000D03*
X54160000Y-22575000D03*
X56700000Y-22575000D03*
X54160000Y-25115000D03*
X56700000Y-25115000D03*
X54160000Y-27655000D03*
X56700000Y-27655000D03*
X54160000Y-30195000D03*
X56700000Y-30195000D03*
X54160000Y-32735000D03*
X56700000Y-32735000D03*
X54160000Y-35275000D03*
X56700000Y-35275000D03*
X54160000Y-37815000D03*
X56700000Y-37815000D03*
X54160000Y-40355000D03*
X56700000Y-40355000D03*
D11*
X14150000Y-5075000D03*
D14*
X3150000Y-37730000D03*
X5690000Y-37730000D03*
X3150000Y-40270000D03*
X5690000Y-40270000D03*
X3150000Y-42810000D03*
X5690000Y-42810000D03*
X3150000Y-45350000D03*
X5690000Y-45350000D03*
X3150000Y-27580000D03*
X5690000Y-27580000D03*
X3150000Y-30120000D03*
X5690000Y-30120000D03*
X3150000Y-32660000D03*
X5690000Y-32660000D03*
X3150000Y-35200000D03*
X5690000Y-35200000D03*
D15*
X45990000Y-55980000D03*
X4000000Y-55990000D03*
X46000000Y-3990000D03*
D14*
X5690000Y-25040000D03*
X3150000Y-25040000D03*
X5690000Y-22500000D03*
X3150000Y-22500000D03*
X5690000Y-19960000D03*
X3150000Y-19960000D03*
X5690000Y-17420000D03*
X3150000Y-17420000D03*
X5690000Y-14880000D03*
X3150000Y-14880000D03*
D15*
X4000000Y-3990000D03*
D16*
X55275000Y-57390000D03*
X55275000Y-54850000D03*
D17*
X15775000Y-17425000D03*
X14125000Y-13225000D03*
X35175000Y-19400000D03*
X29525000Y-19400000D03*
X33050000Y-22800000D03*
X17750000Y-23525000D03*
X21050000Y-43250000D03*
X33900000Y-43250000D03*
X27325000Y-43250000D03*
X14775000Y-26375000D03*
X19975000Y-25425000D03*
X46000000Y-17500000D03*
X42825000Y-38225000D03*
X48825000Y-21525000D03*
X18475000Y-47550000D03*
X10475000Y-46625000D03*
X48825000Y-34175000D03*
X50400000Y-20300000D03*
X5925000Y-49300000D03*
X52075000Y-34100000D03*
X41000000Y-23450000D03*
X41000000Y-36400000D03*
X50625000Y-23850000D03*
X50475000Y-34050000D03*
X39125000Y-25125000D03*
X39125000Y-34825000D03*
X13300000Y-31600000D03*
X9265000Y-32660000D03*
X8950000Y-40275000D03*
X52600000Y-51275000D03*
X9600000Y-50700000D03*
X48750000Y-46225000D03*
X7350000Y-50700000D03*
D18*
X52225000Y-8175000D02*
X50450000Y-9950000D01*
X50450000Y-9950000D02*
X16750000Y-9950000D01*
X16750000Y-9950000D02*
X15350000Y-9950000D01*
X15350000Y-9950000D02*
X13175000Y-12125000D01*
X13175000Y-12125000D02*
X5900000Y-12125000D01*
X3150000Y-14880000D02*
X3150000Y-14875000D01*
X3150000Y-14875000D02*
X5900000Y-12125000D01*
X56700000Y-8675000D02*
X56700000Y-9875000D01*
X56200000Y-8175000D02*
X56700000Y-8675000D01*
X52225000Y-8175000D02*
X56200000Y-8175000D01*
X56700000Y-9875000D02*
X56700000Y-12415000D01*
X54160000Y-12415000D02*
X17285000Y-12415000D01*
X17285000Y-12415000D02*
X9740000Y-19960000D01*
X9740000Y-19960000D02*
X5690000Y-19960000D01*
X15775000Y-17425000D02*
X18245000Y-14955000D01*
X18245000Y-14955000D02*
X54160000Y-14955000D01*
D19*
X35175000Y-19400000D02*
X29525000Y-19400000D01*
X17750000Y-23525000D02*
X19650000Y-25425000D01*
X19650000Y-25425000D02*
X19975000Y-25425000D01*
X47830000Y-17495000D02*
X47805000Y-17495000D01*
X46000000Y-17500000D02*
X47800000Y-17500000D01*
X47805000Y-17495000D02*
X47800000Y-17500000D01*
X13300000Y-39800000D02*
X41250000Y-39800000D01*
X41250000Y-39800000D02*
X42825000Y-38225000D01*
X8115000Y-42925000D02*
X5690000Y-45350000D01*
X10175000Y-42925000D02*
X11775000Y-41325000D01*
X8115000Y-42925000D02*
X10175000Y-42925000D01*
X11775000Y-41325000D02*
X13300000Y-39800000D01*
X54160000Y-17495000D02*
X47830000Y-17495000D01*
X47830000Y-17495000D02*
X47800000Y-17525000D01*
D20*
X48825000Y-21525000D02*
X48825000Y-19875000D01*
D21*
X55420000Y-18775000D02*
X52350000Y-18775000D01*
X56700000Y-17495000D02*
X55420000Y-18775000D01*
D19*
X43250000Y-44700000D02*
X43600000Y-44700000D01*
X36800000Y-47550000D02*
X39650000Y-44700000D01*
X39650000Y-44700000D02*
X43250000Y-44700000D01*
X4725000Y-46925000D02*
X3150000Y-45350000D01*
X4725000Y-46925000D02*
X6575000Y-46925000D01*
X6575000Y-46925000D02*
X8725000Y-46925000D01*
X10175000Y-46925000D02*
X10475000Y-46625000D01*
X8725000Y-46925000D02*
X10175000Y-46925000D01*
X18475000Y-47550000D02*
X36800000Y-47550000D01*
X48825000Y-39475000D02*
X48825000Y-34175000D01*
X43600000Y-44700000D02*
X48825000Y-39475000D01*
D20*
X49925000Y-18775000D02*
X52350000Y-18775000D01*
X48825000Y-19875000D02*
X49925000Y-18775000D01*
X52400000Y-21300000D02*
X51400000Y-21300000D01*
D21*
X55435000Y-21300000D02*
X52400000Y-21300000D01*
X56700000Y-20035000D02*
X55435000Y-21300000D01*
D19*
X52075000Y-34100000D02*
X52075000Y-38750000D01*
X40975000Y-47725000D02*
X45050000Y-47725000D01*
X45050000Y-47725000D02*
X52075000Y-40700000D01*
X52075000Y-40700000D02*
X52075000Y-38750000D01*
X16500000Y-50400000D02*
X38300000Y-50400000D01*
X10525000Y-49300000D02*
X11625000Y-50400000D01*
X11625000Y-50400000D02*
X16500000Y-50400000D01*
X8200000Y-49300000D02*
X5925000Y-49300000D01*
X8200000Y-49300000D02*
X10525000Y-49300000D01*
X38300000Y-50400000D02*
X40525000Y-48175000D01*
X40525000Y-48175000D02*
X40975000Y-47725000D01*
D20*
X51400000Y-21300000D02*
X50400000Y-20300000D01*
D19*
X41000000Y-23450000D02*
X48850000Y-23450000D01*
D20*
X49725000Y-22575000D02*
X48850000Y-23450000D01*
X54160000Y-22575000D02*
X49725000Y-22575000D01*
D19*
X12850000Y-38325000D02*
X10612500Y-40562500D01*
X41000000Y-37425000D02*
X41000000Y-36400000D01*
X40100000Y-38325000D02*
X41000000Y-37425000D01*
X12850000Y-38325000D02*
X40100000Y-38325000D01*
X5690000Y-42810000D02*
X6900000Y-41600000D01*
X9575000Y-41600000D02*
X10612500Y-40562500D01*
X10612500Y-40562500D02*
X10625000Y-40550000D01*
X6900000Y-41600000D02*
X9575000Y-41600000D01*
D20*
X52500000Y-23850000D02*
X50625000Y-23850000D01*
D19*
X16375000Y-49025000D02*
X37675000Y-49025000D01*
X11475000Y-48000000D02*
X12500000Y-49025000D01*
X12500000Y-49025000D02*
X16375000Y-49025000D01*
X1475000Y-46025000D02*
X3450000Y-48000000D01*
X1475000Y-40800000D02*
X1475000Y-44550000D01*
X2005000Y-40270000D02*
X1475000Y-40800000D01*
X2005000Y-40270000D02*
X3150000Y-40270000D01*
X3575000Y-48000000D02*
X6725000Y-48000000D01*
X1475000Y-44550000D02*
X1475000Y-46025000D01*
X3450000Y-48000000D02*
X3575000Y-48000000D01*
X6725000Y-48000000D02*
X11475000Y-48000000D01*
X50475000Y-40150000D02*
X50475000Y-34050000D01*
X44275000Y-46350000D02*
X50475000Y-40150000D01*
X40350000Y-46350000D02*
X44275000Y-46350000D01*
X37675000Y-49025000D02*
X40350000Y-46350000D01*
D21*
X56700000Y-22575000D02*
X55425000Y-23850000D01*
X52500000Y-23850000D02*
X52475000Y-23825000D01*
X55425000Y-23850000D02*
X52500000Y-23850000D01*
D19*
X54150000Y-25125000D02*
X39125000Y-25125000D01*
X10970000Y-37730000D02*
X5690000Y-37730000D01*
X37125000Y-36825000D02*
X39125000Y-34825000D01*
X11875000Y-36825000D02*
X37125000Y-36825000D01*
X10970000Y-37730000D02*
X11875000Y-36825000D01*
X54150000Y-25125000D02*
X54160000Y-25115000D01*
X13300000Y-31600000D02*
X34250000Y-31600000D01*
X34250000Y-31600000D02*
X38195000Y-27655000D01*
X5690000Y-32660000D02*
X9265000Y-32660000D01*
X54160000Y-27655000D02*
X38195000Y-27655000D01*
X22475000Y-33525000D02*
X34975000Y-33525000D01*
X9495000Y-30120000D02*
X12900000Y-33525000D01*
X12900000Y-33525000D02*
X22475000Y-33525000D01*
X5690000Y-30120000D02*
X9495000Y-30120000D01*
X34975000Y-33525000D02*
X38850000Y-29650000D01*
X51475000Y-29650000D02*
X38850000Y-29650000D01*
D21*
X55430000Y-28925000D02*
X53225000Y-28925000D01*
X56700000Y-27655000D02*
X55430000Y-28925000D01*
X52800000Y-28925000D02*
X52075000Y-29650000D01*
X52075000Y-29650000D02*
X51475000Y-29650000D01*
X53225000Y-28925000D02*
X52800000Y-28925000D01*
D19*
X5690000Y-35200000D02*
X36000000Y-35200000D01*
X36000000Y-35200000D02*
X39750000Y-31450000D01*
X52400000Y-31450000D02*
X39750000Y-31450000D01*
D21*
X55445000Y-31450000D02*
X52400000Y-31450000D01*
X56700000Y-30195000D02*
X55445000Y-31450000D01*
D19*
X8950000Y-40275000D02*
X8945000Y-40270000D01*
X42950000Y-49175000D02*
X41825000Y-49175000D01*
X51475000Y-51275000D02*
X49375000Y-49175000D01*
X49375000Y-49175000D02*
X42950000Y-49175000D01*
X52600000Y-51275000D02*
X51600000Y-51275000D01*
X51600000Y-51275000D02*
X51475000Y-51275000D01*
X10800000Y-51900000D02*
X9600000Y-50700000D01*
X39100000Y-51900000D02*
X10800000Y-51900000D01*
X41825000Y-49175000D02*
X39100000Y-51900000D01*
X8945000Y-40270000D02*
X5690000Y-40270000D01*
X56700000Y-40355000D02*
X58175000Y-41830000D01*
X58175000Y-46550000D02*
X54850000Y-49875000D01*
X58175000Y-41830000D02*
X58175000Y-46550000D01*
X52400000Y-49875000D02*
X50750000Y-48225000D01*
X54850000Y-49875000D02*
X52400000Y-49875000D01*
X48750000Y-46225000D02*
X50750000Y-48225000D01*
X7350000Y-50700000D02*
X10075000Y-53425000D01*
X39875000Y-53425000D02*
X42600000Y-50700000D01*
X10075000Y-53425000D02*
X39875000Y-53425000D01*
X55275000Y-54850000D02*
X52725000Y-54850000D01*
X48575000Y-50700000D02*
X42600000Y-50700000D01*
X52725000Y-54850000D02*
X48575000Y-50700000D01*
D22*
G36*
X2672183Y-48777818D02*
X2750681Y-48842297D01*
X2828536Y-48907625D01*
X2833606Y-48910412D01*
X2838075Y-48914083D01*
X2927603Y-48962088D01*
X3016664Y-49011049D01*
X3022179Y-49012798D01*
X3027275Y-49015531D01*
X3124420Y-49045231D01*
X3221297Y-49075962D01*
X3227047Y-49076607D01*
X3232578Y-49078298D01*
X3333680Y-49088568D01*
X3434642Y-49099893D01*
X3445942Y-49099972D01*
X3446161Y-49099994D01*
X3446365Y-49099975D01*
X3450000Y-49100000D01*
X4791770Y-49100000D01*
X4776638Y-49171191D01*
X4773489Y-49396695D01*
X4814201Y-49618517D01*
X4897222Y-49828206D01*
X5019392Y-50017776D01*
X5176056Y-50180006D01*
X5361247Y-50308717D01*
X5567911Y-50399007D01*
X5788177Y-50447435D01*
X6013654Y-50452158D01*
X6235244Y-50413086D01*
X6201638Y-50571191D01*
X6198489Y-50796695D01*
X6239201Y-51018517D01*
X6322222Y-51228206D01*
X6444392Y-51417776D01*
X6601056Y-51580006D01*
X6786247Y-51708717D01*
X6816145Y-51721779D01*
X9297183Y-54202817D01*
X9375651Y-54267272D01*
X9453536Y-54332625D01*
X9458607Y-54335413D01*
X9463075Y-54339083D01*
X9552603Y-54387088D01*
X9641664Y-54436049D01*
X9647179Y-54437798D01*
X9652275Y-54440531D01*
X9749433Y-54470235D01*
X9846297Y-54500962D01*
X9852045Y-54501607D01*
X9857577Y-54503298D01*
X9958690Y-54513569D01*
X10059642Y-54524893D01*
X10070941Y-54524972D01*
X10071160Y-54524994D01*
X10071364Y-54524975D01*
X10075000Y-54525000D01*
X39875000Y-54525000D01*
X39976122Y-54515085D01*
X40077346Y-54506229D01*
X40082899Y-54504616D01*
X40088658Y-54504051D01*
X40185973Y-54474670D01*
X40283505Y-54446334D01*
X40288638Y-54443673D01*
X40294177Y-54442001D01*
X40383922Y-54394283D01*
X40474103Y-54347537D01*
X40478622Y-54343929D01*
X40483731Y-54341213D01*
X40562478Y-54276989D01*
X40641882Y-54213602D01*
X40649926Y-54205668D01*
X40650098Y-54205528D01*
X40650230Y-54205369D01*
X40652817Y-54202817D01*
X43055634Y-51800000D01*
X48119366Y-51800000D01*
X51947182Y-55627817D01*
X52025675Y-55692292D01*
X52103536Y-55757625D01*
X52108606Y-55760413D01*
X52113075Y-55764083D01*
X52202622Y-55812098D01*
X52291664Y-55861049D01*
X52297176Y-55862798D01*
X52302274Y-55865531D01*
X52399447Y-55895240D01*
X52496297Y-55925962D01*
X52502045Y-55926607D01*
X52507577Y-55928298D01*
X52608645Y-55938564D01*
X52709642Y-55949893D01*
X52720951Y-55949972D01*
X52721160Y-55949993D01*
X52721355Y-55949975D01*
X52725000Y-55950000D01*
X53753803Y-55950000D01*
X53917872Y-56087670D01*
X54174410Y-56228703D01*
X54453455Y-56317221D01*
X54744380Y-56349854D01*
X54765323Y-56350000D01*
X55784677Y-56350000D01*
X56076029Y-56321433D01*
X56356283Y-56236819D01*
X56614764Y-56099382D01*
X56841628Y-55914356D01*
X57028233Y-55688789D01*
X57167472Y-55431273D01*
X57254040Y-55151617D01*
X57284640Y-54860472D01*
X57258108Y-54568928D01*
X57175453Y-54288090D01*
X57039823Y-54028655D01*
X56856386Y-53800505D01*
X56632128Y-53612330D01*
X56375590Y-53471297D01*
X56096545Y-53382779D01*
X55805620Y-53350146D01*
X55784677Y-53350000D01*
X54765323Y-53350000D01*
X54473971Y-53378567D01*
X54193717Y-53463181D01*
X53935236Y-53600618D01*
X53752076Y-53750000D01*
X53180635Y-53750000D01*
X51805635Y-52375000D01*
X52247427Y-52375000D01*
X52463177Y-52422435D01*
X52688654Y-52427158D01*
X52910754Y-52387996D01*
X53121018Y-52306440D01*
X53311436Y-52185597D01*
X53474756Y-52030069D01*
X53604757Y-51845781D01*
X53696487Y-51639753D01*
X53746452Y-51419831D01*
X53750049Y-51162237D01*
X53712975Y-50975000D01*
X54850000Y-50975000D01*
X54951122Y-50965085D01*
X55052346Y-50956229D01*
X55057899Y-50954616D01*
X55063658Y-50954051D01*
X55160973Y-50924670D01*
X55258505Y-50896334D01*
X55263638Y-50893673D01*
X55269177Y-50892001D01*
X55358922Y-50844283D01*
X55449103Y-50797537D01*
X55453622Y-50793929D01*
X55458731Y-50791213D01*
X55537478Y-50726989D01*
X55616882Y-50663602D01*
X55624926Y-50655668D01*
X55625098Y-50655528D01*
X55625230Y-50655369D01*
X55627817Y-50652817D01*
X58225000Y-48055635D01*
X58225000Y-59175000D01*
X825000Y-59175000D01*
X825000Y-56225432D01*
X1196320Y-56225432D01*
X1295444Y-56765519D01*
X1497584Y-57276067D01*
X1795041Y-57737629D01*
X2176484Y-58132625D01*
X2627383Y-58446008D01*
X3130566Y-58665843D01*
X3666865Y-58783756D01*
X4215853Y-58795256D01*
X4756619Y-58699904D01*
X5268566Y-58501333D01*
X5732193Y-58207106D01*
X6129842Y-57828430D01*
X6446366Y-57379729D01*
X6669708Y-56878094D01*
X6791362Y-56342631D01*
X6793138Y-56215432D01*
X43186320Y-56215432D01*
X43285444Y-56755519D01*
X43487584Y-57266067D01*
X43785041Y-57727629D01*
X44166484Y-58122625D01*
X44617383Y-58436008D01*
X45120566Y-58655843D01*
X45656865Y-58773756D01*
X46205853Y-58785256D01*
X46746619Y-58689904D01*
X47258566Y-58491333D01*
X47722193Y-58197106D01*
X48119842Y-57818430D01*
X48436366Y-57369729D01*
X48659708Y-56868094D01*
X48781362Y-56332631D01*
X48790120Y-55705446D01*
X48683464Y-55166795D01*
X48474215Y-54659119D01*
X48170344Y-54201755D01*
X47783423Y-53812124D01*
X47328192Y-53505067D01*
X46821989Y-53292278D01*
X46284096Y-53181865D01*
X45735001Y-53178031D01*
X45195619Y-53280924D01*
X44686494Y-53486624D01*
X44227020Y-53787295D01*
X43834697Y-54171486D01*
X43524469Y-54624563D01*
X43308152Y-55129268D01*
X43193986Y-55666377D01*
X43186320Y-56215432D01*
X6793138Y-56215432D01*
X6800120Y-55715446D01*
X6693464Y-55176795D01*
X6484215Y-54669119D01*
X6180344Y-54211755D01*
X5793423Y-53822124D01*
X5338192Y-53515067D01*
X4831989Y-53302278D01*
X4294096Y-53191865D01*
X3745001Y-53188031D01*
X3205619Y-53290924D01*
X2696494Y-53496624D01*
X2237020Y-53797295D01*
X1844697Y-54181486D01*
X1534469Y-54634563D01*
X1318152Y-55139268D01*
X1203986Y-55676377D01*
X1196320Y-56225432D01*
X825000Y-56225432D01*
X825000Y-46930634D01*
X2672183Y-48777818D01*
X2672183Y-48777818D01*
G37*
X2672183Y-48777818D02*
X2750681Y-48842297D01*
X2828536Y-48907625D01*
X2833606Y-48910412D01*
X2838075Y-48914083D01*
X2927603Y-48962088D01*
X3016664Y-49011049D01*
X3022179Y-49012798D01*
X3027275Y-49015531D01*
X3124420Y-49045231D01*
X3221297Y-49075962D01*
X3227047Y-49076607D01*
X3232578Y-49078298D01*
X3333680Y-49088568D01*
X3434642Y-49099893D01*
X3445942Y-49099972D01*
X3446161Y-49099994D01*
X3446365Y-49099975D01*
X3450000Y-49100000D01*
X4791770Y-49100000D01*
X4776638Y-49171191D01*
X4773489Y-49396695D01*
X4814201Y-49618517D01*
X4897222Y-49828206D01*
X5019392Y-50017776D01*
X5176056Y-50180006D01*
X5361247Y-50308717D01*
X5567911Y-50399007D01*
X5788177Y-50447435D01*
X6013654Y-50452158D01*
X6235244Y-50413086D01*
X6201638Y-50571191D01*
X6198489Y-50796695D01*
X6239201Y-51018517D01*
X6322222Y-51228206D01*
X6444392Y-51417776D01*
X6601056Y-51580006D01*
X6786247Y-51708717D01*
X6816145Y-51721779D01*
X9297183Y-54202817D01*
X9375651Y-54267272D01*
X9453536Y-54332625D01*
X9458607Y-54335413D01*
X9463075Y-54339083D01*
X9552603Y-54387088D01*
X9641664Y-54436049D01*
X9647179Y-54437798D01*
X9652275Y-54440531D01*
X9749433Y-54470235D01*
X9846297Y-54500962D01*
X9852045Y-54501607D01*
X9857577Y-54503298D01*
X9958690Y-54513569D01*
X10059642Y-54524893D01*
X10070941Y-54524972D01*
X10071160Y-54524994D01*
X10071364Y-54524975D01*
X10075000Y-54525000D01*
X39875000Y-54525000D01*
X39976122Y-54515085D01*
X40077346Y-54506229D01*
X40082899Y-54504616D01*
X40088658Y-54504051D01*
X40185973Y-54474670D01*
X40283505Y-54446334D01*
X40288638Y-54443673D01*
X40294177Y-54442001D01*
X40383922Y-54394283D01*
X40474103Y-54347537D01*
X40478622Y-54343929D01*
X40483731Y-54341213D01*
X40562478Y-54276989D01*
X40641882Y-54213602D01*
X40649926Y-54205668D01*
X40650098Y-54205528D01*
X40650230Y-54205369D01*
X40652817Y-54202817D01*
X43055634Y-51800000D01*
X48119366Y-51800000D01*
X51947182Y-55627817D01*
X52025675Y-55692292D01*
X52103536Y-55757625D01*
X52108606Y-55760413D01*
X52113075Y-55764083D01*
X52202622Y-55812098D01*
X52291664Y-55861049D01*
X52297176Y-55862798D01*
X52302274Y-55865531D01*
X52399447Y-55895240D01*
X52496297Y-55925962D01*
X52502045Y-55926607D01*
X52507577Y-55928298D01*
X52608645Y-55938564D01*
X52709642Y-55949893D01*
X52720951Y-55949972D01*
X52721160Y-55949993D01*
X52721355Y-55949975D01*
X52725000Y-55950000D01*
X53753803Y-55950000D01*
X53917872Y-56087670D01*
X54174410Y-56228703D01*
X54453455Y-56317221D01*
X54744380Y-56349854D01*
X54765323Y-56350000D01*
X55784677Y-56350000D01*
X56076029Y-56321433D01*
X56356283Y-56236819D01*
X56614764Y-56099382D01*
X56841628Y-55914356D01*
X57028233Y-55688789D01*
X57167472Y-55431273D01*
X57254040Y-55151617D01*
X57284640Y-54860472D01*
X57258108Y-54568928D01*
X57175453Y-54288090D01*
X57039823Y-54028655D01*
X56856386Y-53800505D01*
X56632128Y-53612330D01*
X56375590Y-53471297D01*
X56096545Y-53382779D01*
X55805620Y-53350146D01*
X55784677Y-53350000D01*
X54765323Y-53350000D01*
X54473971Y-53378567D01*
X54193717Y-53463181D01*
X53935236Y-53600618D01*
X53752076Y-53750000D01*
X53180635Y-53750000D01*
X51805635Y-52375000D01*
X52247427Y-52375000D01*
X52463177Y-52422435D01*
X52688654Y-52427158D01*
X52910754Y-52387996D01*
X53121018Y-52306440D01*
X53311436Y-52185597D01*
X53474756Y-52030069D01*
X53604757Y-51845781D01*
X53696487Y-51639753D01*
X53746452Y-51419831D01*
X53750049Y-51162237D01*
X53712975Y-50975000D01*
X54850000Y-50975000D01*
X54951122Y-50965085D01*
X55052346Y-50956229D01*
X55057899Y-50954616D01*
X55063658Y-50954051D01*
X55160973Y-50924670D01*
X55258505Y-50896334D01*
X55263638Y-50893673D01*
X55269177Y-50892001D01*
X55358922Y-50844283D01*
X55449103Y-50797537D01*
X55453622Y-50793929D01*
X55458731Y-50791213D01*
X55537478Y-50726989D01*
X55616882Y-50663602D01*
X55624926Y-50655668D01*
X55625098Y-50655528D01*
X55625230Y-50655369D01*
X55627817Y-50652817D01*
X58225000Y-48055635D01*
X58225000Y-59175000D01*
X825000Y-59175000D01*
X825000Y-56225432D01*
X1196320Y-56225432D01*
X1295444Y-56765519D01*
X1497584Y-57276067D01*
X1795041Y-57737629D01*
X2176484Y-58132625D01*
X2627383Y-58446008D01*
X3130566Y-58665843D01*
X3666865Y-58783756D01*
X4215853Y-58795256D01*
X4756619Y-58699904D01*
X5268566Y-58501333D01*
X5732193Y-58207106D01*
X6129842Y-57828430D01*
X6446366Y-57379729D01*
X6669708Y-56878094D01*
X6791362Y-56342631D01*
X6793138Y-56215432D01*
X43186320Y-56215432D01*
X43285444Y-56755519D01*
X43487584Y-57266067D01*
X43785041Y-57727629D01*
X44166484Y-58122625D01*
X44617383Y-58436008D01*
X45120566Y-58655843D01*
X45656865Y-58773756D01*
X46205853Y-58785256D01*
X46746619Y-58689904D01*
X47258566Y-58491333D01*
X47722193Y-58197106D01*
X48119842Y-57818430D01*
X48436366Y-57369729D01*
X48659708Y-56868094D01*
X48781362Y-56332631D01*
X48790120Y-55705446D01*
X48683464Y-55166795D01*
X48474215Y-54659119D01*
X48170344Y-54201755D01*
X47783423Y-53812124D01*
X47328192Y-53505067D01*
X46821989Y-53292278D01*
X46284096Y-53181865D01*
X45735001Y-53178031D01*
X45195619Y-53280924D01*
X44686494Y-53486624D01*
X44227020Y-53787295D01*
X43834697Y-54171486D01*
X43524469Y-54624563D01*
X43308152Y-55129268D01*
X43193986Y-55666377D01*
X43186320Y-56215432D01*
X6793138Y-56215432D01*
X6800120Y-55715446D01*
X6693464Y-55176795D01*
X6484215Y-54669119D01*
X6180344Y-54211755D01*
X5793423Y-53822124D01*
X5338192Y-53515067D01*
X4831989Y-53302278D01*
X4294096Y-53191865D01*
X3745001Y-53188031D01*
X3205619Y-53290924D01*
X2696494Y-53496624D01*
X2237020Y-53797295D01*
X1844697Y-54181486D01*
X1534469Y-54634563D01*
X1318152Y-55139268D01*
X1203986Y-55676377D01*
X1196320Y-56225432D01*
X825000Y-56225432D01*
X825000Y-46930634D01*
X2672183Y-48777818D01*
G36*
X55555037Y-38959806D02*
X55706675Y-39085252D01*
X55571023Y-39194319D01*
X55368597Y-39435561D01*
X55216883Y-39711527D01*
X55121661Y-40011706D01*
X55086557Y-40324663D01*
X55086400Y-40347192D01*
X55086400Y-40362808D01*
X55117131Y-40676225D01*
X55208153Y-40977703D01*
X55355998Y-41255761D01*
X55555037Y-41499806D01*
X55797686Y-41700543D01*
X56074705Y-41850326D01*
X56375541Y-41943451D01*
X56688735Y-41976369D01*
X56759312Y-41969946D01*
X57075000Y-42285634D01*
X57075000Y-46094365D01*
X54394366Y-48775000D01*
X52855635Y-48775000D01*
X51527888Y-47447254D01*
X51527817Y-47447182D01*
X49775331Y-45694697D01*
X49770302Y-45682496D01*
X49645498Y-45494650D01*
X49486584Y-45334623D01*
X49299614Y-45208510D01*
X49174653Y-45155981D01*
X49182244Y-45148390D01*
X51636976Y-45148390D01*
X51718400Y-45592033D01*
X51884444Y-46011412D01*
X52128783Y-46390553D01*
X52442111Y-46715013D01*
X52812493Y-46972436D01*
X53225822Y-47153014D01*
X53666353Y-47249871D01*
X54117308Y-47259318D01*
X54561508Y-47180993D01*
X54982036Y-47017881D01*
X55362873Y-46776195D01*
X55689513Y-46465139D01*
X55949515Y-46096563D01*
X56132975Y-45684506D01*
X56232905Y-45244661D01*
X56240099Y-44729473D01*
X56152489Y-44287010D01*
X55980606Y-43869991D01*
X55730997Y-43494299D01*
X55413169Y-43174244D01*
X55039229Y-42922019D01*
X54623419Y-42747228D01*
X54181579Y-42656532D01*
X53730536Y-42653383D01*
X53287472Y-42737902D01*
X52869263Y-42906869D01*
X52491838Y-43153849D01*
X52169572Y-43469435D01*
X51914742Y-43841605D01*
X51737053Y-44256184D01*
X51643274Y-44697381D01*
X51636976Y-45148390D01*
X49182244Y-45148390D01*
X52852817Y-41477818D01*
X52917292Y-41399325D01*
X52982625Y-41321464D01*
X52985413Y-41316394D01*
X52989083Y-41311925D01*
X53037098Y-41222378D01*
X53086049Y-41133336D01*
X53087798Y-41127824D01*
X53090531Y-41122726D01*
X53120240Y-41025553D01*
X53150962Y-40928703D01*
X53151607Y-40922955D01*
X53153298Y-40917423D01*
X53163564Y-40816355D01*
X53174893Y-40715358D01*
X53174972Y-40704049D01*
X53174993Y-40703840D01*
X53174975Y-40703645D01*
X53175000Y-40700000D01*
X53175000Y-39092139D01*
X53257686Y-39160543D01*
X53534705Y-39310326D01*
X53835541Y-39403451D01*
X54148735Y-39436369D01*
X54462358Y-39407827D01*
X54764465Y-39318912D01*
X55043548Y-39173011D01*
X55288977Y-38975681D01*
X55430463Y-38807064D01*
X55555037Y-38959806D01*
X55555037Y-38959806D01*
G37*
X55555037Y-38959806D02*
X55706675Y-39085252D01*
X55571023Y-39194319D01*
X55368597Y-39435561D01*
X55216883Y-39711527D01*
X55121661Y-40011706D01*
X55086557Y-40324663D01*
X55086400Y-40347192D01*
X55086400Y-40362808D01*
X55117131Y-40676225D01*
X55208153Y-40977703D01*
X55355998Y-41255761D01*
X55555037Y-41499806D01*
X55797686Y-41700543D01*
X56074705Y-41850326D01*
X56375541Y-41943451D01*
X56688735Y-41976369D01*
X56759312Y-41969946D01*
X57075000Y-42285634D01*
X57075000Y-46094365D01*
X54394366Y-48775000D01*
X52855635Y-48775000D01*
X51527888Y-47447254D01*
X51527817Y-47447182D01*
X49775331Y-45694697D01*
X49770302Y-45682496D01*
X49645498Y-45494650D01*
X49486584Y-45334623D01*
X49299614Y-45208510D01*
X49174653Y-45155981D01*
X49182244Y-45148390D01*
X51636976Y-45148390D01*
X51718400Y-45592033D01*
X51884444Y-46011412D01*
X52128783Y-46390553D01*
X52442111Y-46715013D01*
X52812493Y-46972436D01*
X53225822Y-47153014D01*
X53666353Y-47249871D01*
X54117308Y-47259318D01*
X54561508Y-47180993D01*
X54982036Y-47017881D01*
X55362873Y-46776195D01*
X55689513Y-46465139D01*
X55949515Y-46096563D01*
X56132975Y-45684506D01*
X56232905Y-45244661D01*
X56240099Y-44729473D01*
X56152489Y-44287010D01*
X55980606Y-43869991D01*
X55730997Y-43494299D01*
X55413169Y-43174244D01*
X55039229Y-42922019D01*
X54623419Y-42747228D01*
X54181579Y-42656532D01*
X53730536Y-42653383D01*
X53287472Y-42737902D01*
X52869263Y-42906869D01*
X52491838Y-43153849D01*
X52169572Y-43469435D01*
X51914742Y-43841605D01*
X51737053Y-44256184D01*
X51643274Y-44697381D01*
X51636976Y-45148390D01*
X49182244Y-45148390D01*
X52852817Y-41477818D01*
X52917292Y-41399325D01*
X52982625Y-41321464D01*
X52985413Y-41316394D01*
X52989083Y-41311925D01*
X53037098Y-41222378D01*
X53086049Y-41133336D01*
X53087798Y-41127824D01*
X53090531Y-41122726D01*
X53120240Y-41025553D01*
X53150962Y-40928703D01*
X53151607Y-40922955D01*
X53153298Y-40917423D01*
X53163564Y-40816355D01*
X53174893Y-40715358D01*
X53174972Y-40704049D01*
X53174993Y-40703840D01*
X53174975Y-40703645D01*
X53175000Y-40700000D01*
X53175000Y-39092139D01*
X53257686Y-39160543D01*
X53534705Y-39310326D01*
X53835541Y-39403451D01*
X54148735Y-39436369D01*
X54462358Y-39407827D01*
X54764465Y-39318912D01*
X55043548Y-39173011D01*
X55288977Y-38975681D01*
X55430463Y-38807064D01*
X55555037Y-38959806D01*
G36*
X52546557Y-32704663D02*
X52546400Y-32727192D01*
X52546400Y-32742808D01*
X52577131Y-33056225D01*
X52579664Y-33064615D01*
X52416710Y-32996115D01*
X52195789Y-32950766D01*
X51970268Y-32949192D01*
X51748736Y-32991451D01*
X51539632Y-33075935D01*
X51350919Y-33199425D01*
X51300317Y-33248978D01*
X51211584Y-33159623D01*
X51024614Y-33033510D01*
X50816710Y-32946115D01*
X50595789Y-32900766D01*
X50370268Y-32899192D01*
X50148736Y-32941451D01*
X49939632Y-33025935D01*
X49750919Y-33149425D01*
X49589787Y-33307218D01*
X49587434Y-33310654D01*
X49561584Y-33284623D01*
X49374614Y-33158510D01*
X49166710Y-33071115D01*
X48945789Y-33025766D01*
X48720268Y-33024192D01*
X48498736Y-33066451D01*
X48289632Y-33150935D01*
X48100919Y-33274425D01*
X47939787Y-33432218D01*
X47812372Y-33618303D01*
X47723527Y-33825592D01*
X47676638Y-34046191D01*
X47673489Y-34271695D01*
X47714201Y-34493517D01*
X47725000Y-34520792D01*
X47725000Y-39019365D01*
X43144366Y-43600000D01*
X39650000Y-43600000D01*
X39548878Y-43609915D01*
X39447654Y-43618771D01*
X39442101Y-43620384D01*
X39436342Y-43620949D01*
X39339073Y-43650316D01*
X39241495Y-43678665D01*
X39236358Y-43681328D01*
X39230823Y-43682999D01*
X39141132Y-43730689D01*
X39050898Y-43777462D01*
X39046377Y-43781071D01*
X39041269Y-43783787D01*
X38962528Y-43848007D01*
X38883118Y-43911398D01*
X38875069Y-43919336D01*
X38874902Y-43919472D01*
X38874774Y-43919627D01*
X38872183Y-43922182D01*
X36344366Y-46450000D01*
X18825952Y-46450000D01*
X18816710Y-46446115D01*
X18595789Y-46400766D01*
X18370268Y-46399192D01*
X18148736Y-46441451D01*
X17939632Y-46525935D01*
X17750919Y-46649425D01*
X17589787Y-46807218D01*
X17462372Y-46993303D01*
X17373527Y-47200592D01*
X17326638Y-47421191D01*
X17323489Y-47646695D01*
X17364201Y-47868517D01*
X17386564Y-47925000D01*
X12955635Y-47925000D01*
X12252817Y-47222183D01*
X12174349Y-47157728D01*
X12096464Y-47092375D01*
X12091393Y-47089587D01*
X12086925Y-47085917D01*
X11997397Y-47037912D01*
X11908336Y-46988951D01*
X11902821Y-46987202D01*
X11897725Y-46984469D01*
X11800567Y-46954765D01*
X11703703Y-46924038D01*
X11697955Y-46923393D01*
X11692423Y-46921702D01*
X11591310Y-46911431D01*
X11589332Y-46911209D01*
X11621452Y-46769831D01*
X11625049Y-46512237D01*
X11581244Y-46291005D01*
X11495302Y-46082496D01*
X11370498Y-45894650D01*
X11211584Y-45734623D01*
X11024614Y-45608510D01*
X10816710Y-45521115D01*
X10595789Y-45475766D01*
X10370268Y-45474192D01*
X10148736Y-45516451D01*
X9939632Y-45600935D01*
X9750919Y-45724425D01*
X9648216Y-45825000D01*
X7123564Y-45825000D01*
X7188473Y-45539301D01*
X7190345Y-45405290D01*
X7447245Y-45148390D01*
X11846976Y-45148390D01*
X11928400Y-45592033D01*
X12094444Y-46011412D01*
X12338783Y-46390553D01*
X12652111Y-46715013D01*
X13022493Y-46972436D01*
X13435822Y-47153014D01*
X13876353Y-47249871D01*
X14327308Y-47259318D01*
X14771508Y-47180993D01*
X15192036Y-47017881D01*
X15572873Y-46776195D01*
X15899513Y-46465139D01*
X16159515Y-46096563D01*
X16342975Y-45684506D01*
X16442905Y-45244661D01*
X16450099Y-44729473D01*
X16362489Y-44287010D01*
X16190606Y-43869991D01*
X15940997Y-43494299D01*
X15623169Y-43174244D01*
X15249229Y-42922019D01*
X14833419Y-42747228D01*
X14391579Y-42656532D01*
X13940536Y-42653383D01*
X13497472Y-42737902D01*
X13079263Y-42906869D01*
X12701838Y-43153849D01*
X12379572Y-43469435D01*
X12124742Y-43841605D01*
X11947053Y-44256184D01*
X11853274Y-44697381D01*
X11846976Y-45148390D01*
X7447245Y-45148390D01*
X8570635Y-44025000D01*
X10175000Y-44025000D01*
X10276122Y-44015085D01*
X10377346Y-44006229D01*
X10382899Y-44004616D01*
X10388658Y-44004051D01*
X10485973Y-43974670D01*
X10583505Y-43946334D01*
X10588638Y-43943673D01*
X10594177Y-43942001D01*
X10683922Y-43894283D01*
X10774103Y-43847537D01*
X10778622Y-43843929D01*
X10783731Y-43841213D01*
X10862478Y-43776989D01*
X10941882Y-43713602D01*
X10949926Y-43705668D01*
X10950098Y-43705528D01*
X10950230Y-43705369D01*
X10952817Y-43702817D01*
X12552818Y-42102817D01*
X12552823Y-42102811D01*
X13755635Y-40900000D01*
X41250000Y-40900000D01*
X41351122Y-40890085D01*
X41452346Y-40881229D01*
X41457899Y-40879616D01*
X41463658Y-40879051D01*
X41560973Y-40849670D01*
X41658505Y-40821334D01*
X41663638Y-40818673D01*
X41669177Y-40817001D01*
X41758922Y-40769283D01*
X41849103Y-40722537D01*
X41853622Y-40718929D01*
X41858731Y-40716213D01*
X41937478Y-40651989D01*
X42016882Y-40588602D01*
X42024926Y-40580668D01*
X42025098Y-40580528D01*
X42025230Y-40580369D01*
X42027817Y-40577817D01*
X43354713Y-39250922D01*
X43536436Y-39135597D01*
X43699756Y-38980069D01*
X43829757Y-38795781D01*
X43921487Y-38589753D01*
X43971452Y-38369831D01*
X43975049Y-38112237D01*
X43931244Y-37891005D01*
X43845302Y-37682496D01*
X43720498Y-37494650D01*
X43561584Y-37334623D01*
X43374614Y-37208510D01*
X43166710Y-37121115D01*
X42945789Y-37075766D01*
X42720268Y-37074192D01*
X42498736Y-37116451D01*
X42289632Y-37200935D01*
X42100919Y-37324425D01*
X42100000Y-37325325D01*
X42100000Y-36749290D01*
X42146452Y-36544831D01*
X42150049Y-36287237D01*
X42106244Y-36066005D01*
X42020302Y-35857496D01*
X41895498Y-35669650D01*
X41736584Y-35509623D01*
X41549614Y-35383510D01*
X41341710Y-35296115D01*
X41120789Y-35250766D01*
X40895268Y-35249192D01*
X40673736Y-35291451D01*
X40464632Y-35375935D01*
X40275919Y-35499425D01*
X40114787Y-35657218D01*
X39987372Y-35843303D01*
X39898527Y-36050592D01*
X39851638Y-36271191D01*
X39848489Y-36496695D01*
X39889201Y-36718517D01*
X39900000Y-36745792D01*
X39900000Y-36969365D01*
X39644366Y-37225000D01*
X38280634Y-37225000D01*
X39654713Y-35850922D01*
X39836436Y-35735597D01*
X39999756Y-35580069D01*
X40129757Y-35395781D01*
X40221487Y-35189753D01*
X40271452Y-34969831D01*
X40275049Y-34712237D01*
X40231244Y-34491005D01*
X40145302Y-34282496D01*
X40020498Y-34094650D01*
X39861584Y-33934623D01*
X39674614Y-33808510D01*
X39466710Y-33721115D01*
X39245789Y-33675766D01*
X39081019Y-33674616D01*
X40205635Y-32550000D01*
X52400000Y-32550000D01*
X52565728Y-32533750D01*
X52546557Y-32704663D01*
X52546557Y-32704663D01*
G37*
X52546557Y-32704663D02*
X52546400Y-32727192D01*
X52546400Y-32742808D01*
X52577131Y-33056225D01*
X52579664Y-33064615D01*
X52416710Y-32996115D01*
X52195789Y-32950766D01*
X51970268Y-32949192D01*
X51748736Y-32991451D01*
X51539632Y-33075935D01*
X51350919Y-33199425D01*
X51300317Y-33248978D01*
X51211584Y-33159623D01*
X51024614Y-33033510D01*
X50816710Y-32946115D01*
X50595789Y-32900766D01*
X50370268Y-32899192D01*
X50148736Y-32941451D01*
X49939632Y-33025935D01*
X49750919Y-33149425D01*
X49589787Y-33307218D01*
X49587434Y-33310654D01*
X49561584Y-33284623D01*
X49374614Y-33158510D01*
X49166710Y-33071115D01*
X48945789Y-33025766D01*
X48720268Y-33024192D01*
X48498736Y-33066451D01*
X48289632Y-33150935D01*
X48100919Y-33274425D01*
X47939787Y-33432218D01*
X47812372Y-33618303D01*
X47723527Y-33825592D01*
X47676638Y-34046191D01*
X47673489Y-34271695D01*
X47714201Y-34493517D01*
X47725000Y-34520792D01*
X47725000Y-39019365D01*
X43144366Y-43600000D01*
X39650000Y-43600000D01*
X39548878Y-43609915D01*
X39447654Y-43618771D01*
X39442101Y-43620384D01*
X39436342Y-43620949D01*
X39339073Y-43650316D01*
X39241495Y-43678665D01*
X39236358Y-43681328D01*
X39230823Y-43682999D01*
X39141132Y-43730689D01*
X39050898Y-43777462D01*
X39046377Y-43781071D01*
X39041269Y-43783787D01*
X38962528Y-43848007D01*
X38883118Y-43911398D01*
X38875069Y-43919336D01*
X38874902Y-43919472D01*
X38874774Y-43919627D01*
X38872183Y-43922182D01*
X36344366Y-46450000D01*
X18825952Y-46450000D01*
X18816710Y-46446115D01*
X18595789Y-46400766D01*
X18370268Y-46399192D01*
X18148736Y-46441451D01*
X17939632Y-46525935D01*
X17750919Y-46649425D01*
X17589787Y-46807218D01*
X17462372Y-46993303D01*
X17373527Y-47200592D01*
X17326638Y-47421191D01*
X17323489Y-47646695D01*
X17364201Y-47868517D01*
X17386564Y-47925000D01*
X12955635Y-47925000D01*
X12252817Y-47222183D01*
X12174349Y-47157728D01*
X12096464Y-47092375D01*
X12091393Y-47089587D01*
X12086925Y-47085917D01*
X11997397Y-47037912D01*
X11908336Y-46988951D01*
X11902821Y-46987202D01*
X11897725Y-46984469D01*
X11800567Y-46954765D01*
X11703703Y-46924038D01*
X11697955Y-46923393D01*
X11692423Y-46921702D01*
X11591310Y-46911431D01*
X11589332Y-46911209D01*
X11621452Y-46769831D01*
X11625049Y-46512237D01*
X11581244Y-46291005D01*
X11495302Y-46082496D01*
X11370498Y-45894650D01*
X11211584Y-45734623D01*
X11024614Y-45608510D01*
X10816710Y-45521115D01*
X10595789Y-45475766D01*
X10370268Y-45474192D01*
X10148736Y-45516451D01*
X9939632Y-45600935D01*
X9750919Y-45724425D01*
X9648216Y-45825000D01*
X7123564Y-45825000D01*
X7188473Y-45539301D01*
X7190345Y-45405290D01*
X7447245Y-45148390D01*
X11846976Y-45148390D01*
X11928400Y-45592033D01*
X12094444Y-46011412D01*
X12338783Y-46390553D01*
X12652111Y-46715013D01*
X13022493Y-46972436D01*
X13435822Y-47153014D01*
X13876353Y-47249871D01*
X14327308Y-47259318D01*
X14771508Y-47180993D01*
X15192036Y-47017881D01*
X15572873Y-46776195D01*
X15899513Y-46465139D01*
X16159515Y-46096563D01*
X16342975Y-45684506D01*
X16442905Y-45244661D01*
X16450099Y-44729473D01*
X16362489Y-44287010D01*
X16190606Y-43869991D01*
X15940997Y-43494299D01*
X15623169Y-43174244D01*
X15249229Y-42922019D01*
X14833419Y-42747228D01*
X14391579Y-42656532D01*
X13940536Y-42653383D01*
X13497472Y-42737902D01*
X13079263Y-42906869D01*
X12701838Y-43153849D01*
X12379572Y-43469435D01*
X12124742Y-43841605D01*
X11947053Y-44256184D01*
X11853274Y-44697381D01*
X11846976Y-45148390D01*
X7447245Y-45148390D01*
X8570635Y-44025000D01*
X10175000Y-44025000D01*
X10276122Y-44015085D01*
X10377346Y-44006229D01*
X10382899Y-44004616D01*
X10388658Y-44004051D01*
X10485973Y-43974670D01*
X10583505Y-43946334D01*
X10588638Y-43943673D01*
X10594177Y-43942001D01*
X10683922Y-43894283D01*
X10774103Y-43847537D01*
X10778622Y-43843929D01*
X10783731Y-43841213D01*
X10862478Y-43776989D01*
X10941882Y-43713602D01*
X10949926Y-43705668D01*
X10950098Y-43705528D01*
X10950230Y-43705369D01*
X10952817Y-43702817D01*
X12552818Y-42102817D01*
X12552823Y-42102811D01*
X13755635Y-40900000D01*
X41250000Y-40900000D01*
X41351122Y-40890085D01*
X41452346Y-40881229D01*
X41457899Y-40879616D01*
X41463658Y-40879051D01*
X41560973Y-40849670D01*
X41658505Y-40821334D01*
X41663638Y-40818673D01*
X41669177Y-40817001D01*
X41758922Y-40769283D01*
X41849103Y-40722537D01*
X41853622Y-40718929D01*
X41858731Y-40716213D01*
X41937478Y-40651989D01*
X42016882Y-40588602D01*
X42024926Y-40580668D01*
X42025098Y-40580528D01*
X42025230Y-40580369D01*
X42027817Y-40577817D01*
X43354713Y-39250922D01*
X43536436Y-39135597D01*
X43699756Y-38980069D01*
X43829757Y-38795781D01*
X43921487Y-38589753D01*
X43971452Y-38369831D01*
X43975049Y-38112237D01*
X43931244Y-37891005D01*
X43845302Y-37682496D01*
X43720498Y-37494650D01*
X43561584Y-37334623D01*
X43374614Y-37208510D01*
X43166710Y-37121115D01*
X42945789Y-37075766D01*
X42720268Y-37074192D01*
X42498736Y-37116451D01*
X42289632Y-37200935D01*
X42100919Y-37324425D01*
X42100000Y-37325325D01*
X42100000Y-36749290D01*
X42146452Y-36544831D01*
X42150049Y-36287237D01*
X42106244Y-36066005D01*
X42020302Y-35857496D01*
X41895498Y-35669650D01*
X41736584Y-35509623D01*
X41549614Y-35383510D01*
X41341710Y-35296115D01*
X41120789Y-35250766D01*
X40895268Y-35249192D01*
X40673736Y-35291451D01*
X40464632Y-35375935D01*
X40275919Y-35499425D01*
X40114787Y-35657218D01*
X39987372Y-35843303D01*
X39898527Y-36050592D01*
X39851638Y-36271191D01*
X39848489Y-36496695D01*
X39889201Y-36718517D01*
X39900000Y-36745792D01*
X39900000Y-36969365D01*
X39644366Y-37225000D01*
X38280634Y-37225000D01*
X39654713Y-35850922D01*
X39836436Y-35735597D01*
X39999756Y-35580069D01*
X40129757Y-35395781D01*
X40221487Y-35189753D01*
X40271452Y-34969831D01*
X40275049Y-34712237D01*
X40231244Y-34491005D01*
X40145302Y-34282496D01*
X40020498Y-34094650D01*
X39861584Y-33934623D01*
X39674614Y-33808510D01*
X39466710Y-33721115D01*
X39245789Y-33675766D01*
X39081019Y-33674616D01*
X40205635Y-32550000D01*
X52400000Y-32550000D01*
X52565728Y-32533750D01*
X52546557Y-32704663D01*
G36*
X58225000Y-9362105D02*
X58191847Y-9252297D01*
X58044002Y-8974239D01*
X57950000Y-8858982D01*
X57950000Y-8675000D01*
X57938739Y-8560146D01*
X57928670Y-8445061D01*
X57926835Y-8438745D01*
X57926194Y-8432207D01*
X57892821Y-8321669D01*
X57860607Y-8210790D01*
X57857584Y-8204957D01*
X57855683Y-8198662D01*
X57801477Y-8096715D01*
X57748339Y-7994201D01*
X57744236Y-7989062D01*
X57741152Y-7983261D01*
X57668184Y-7893794D01*
X57596138Y-7803544D01*
X57587116Y-7794395D01*
X57586963Y-7794207D01*
X57586789Y-7794063D01*
X57583884Y-7791117D01*
X57083883Y-7291117D01*
X56994673Y-7217838D01*
X56906209Y-7143608D01*
X56900451Y-7140442D01*
X56895370Y-7136269D01*
X56793573Y-7081686D01*
X56692427Y-7026081D01*
X56686164Y-7024094D01*
X56680369Y-7020987D01*
X56569952Y-6987229D01*
X56459890Y-6952315D01*
X56453355Y-6951582D01*
X56447072Y-6949661D01*
X56332231Y-6937996D01*
X56217453Y-6925122D01*
X56204601Y-6925032D01*
X56204363Y-6925008D01*
X56204141Y-6925029D01*
X56200000Y-6925000D01*
X55317483Y-6925000D01*
X55362873Y-6896195D01*
X55689513Y-6585139D01*
X55949515Y-6216563D01*
X56132975Y-5804506D01*
X56232905Y-5364661D01*
X56240099Y-4849473D01*
X56152489Y-4407010D01*
X55980606Y-3989991D01*
X55730997Y-3614299D01*
X55413169Y-3294244D01*
X55039229Y-3042019D01*
X54623419Y-2867228D01*
X54181579Y-2776532D01*
X53730536Y-2773383D01*
X53287472Y-2857902D01*
X52869263Y-3026869D01*
X52491838Y-3273849D01*
X52169572Y-3589435D01*
X51914742Y-3961605D01*
X51737053Y-4376184D01*
X51643274Y-4817381D01*
X51636976Y-5268390D01*
X51718400Y-5712033D01*
X51884444Y-6131412D01*
X52128783Y-6510553D01*
X52442111Y-6835013D01*
X52571585Y-6925000D01*
X52225000Y-6925000D01*
X52110052Y-6936271D01*
X51995061Y-6946331D01*
X51988750Y-6948164D01*
X51982207Y-6948806D01*
X51871627Y-6982192D01*
X51760790Y-7014393D01*
X51754957Y-7017416D01*
X51748662Y-7019317D01*
X51646715Y-7073523D01*
X51544201Y-7126661D01*
X51539062Y-7130764D01*
X51533261Y-7133848D01*
X51443794Y-7206816D01*
X51353544Y-7278862D01*
X51344395Y-7287884D01*
X51344207Y-7288037D01*
X51344063Y-7288211D01*
X51341116Y-7291117D01*
X49932234Y-8700000D01*
X15350000Y-8700000D01*
X15235052Y-8711271D01*
X15120061Y-8721331D01*
X15113750Y-8723164D01*
X15107207Y-8723806D01*
X14996627Y-8757192D01*
X14885790Y-8789393D01*
X14879957Y-8792416D01*
X14873662Y-8794317D01*
X14771676Y-8848544D01*
X14669201Y-8901662D01*
X14664065Y-8905762D01*
X14658261Y-8908848D01*
X14568767Y-8981838D01*
X14478544Y-9053862D01*
X14469395Y-9062884D01*
X14469207Y-9063037D01*
X14469063Y-9063211D01*
X14466116Y-9066117D01*
X12657234Y-10875000D01*
X5900000Y-10875000D01*
X5785052Y-10886271D01*
X5670061Y-10896331D01*
X5663750Y-10898164D01*
X5657207Y-10898806D01*
X5546627Y-10932192D01*
X5435790Y-10964393D01*
X5429957Y-10967416D01*
X5423662Y-10969317D01*
X5321715Y-11023523D01*
X5219201Y-11076661D01*
X5214062Y-11080764D01*
X5208261Y-11083848D01*
X5118794Y-11156816D01*
X5028544Y-11228862D01*
X5019395Y-11237884D01*
X5019207Y-11238037D01*
X5019063Y-11238211D01*
X5016116Y-11241117D01*
X2850354Y-13406880D01*
X2723556Y-13431068D01*
X2450246Y-13541493D01*
X2203588Y-13702901D01*
X1992979Y-13909145D01*
X1826441Y-14152367D01*
X1710317Y-14423306D01*
X1649030Y-14711639D01*
X1644914Y-15006386D01*
X1698127Y-15296318D01*
X1806641Y-15570393D01*
X1966323Y-15818171D01*
X2171091Y-16030215D01*
X2413145Y-16198447D01*
X2683266Y-16316460D01*
X2971165Y-16379758D01*
X3265875Y-16385932D01*
X3556172Y-16334744D01*
X3830998Y-16228146D01*
X4079885Y-16070198D01*
X4293352Y-15866915D01*
X4421063Y-15685873D01*
X4506323Y-15818171D01*
X4711091Y-16030215D01*
X4884466Y-16150714D01*
X4743588Y-16242901D01*
X4532979Y-16449145D01*
X4366441Y-16692367D01*
X4250317Y-16963306D01*
X4189030Y-17251639D01*
X4184914Y-17546386D01*
X4238127Y-17836318D01*
X4346641Y-18110393D01*
X4506323Y-18358171D01*
X4711091Y-18570215D01*
X4884466Y-18690714D01*
X4743588Y-18782901D01*
X4532979Y-18989145D01*
X4366441Y-19232367D01*
X4250317Y-19503306D01*
X4189030Y-19791639D01*
X4184914Y-20086386D01*
X4238127Y-20376318D01*
X4346641Y-20650393D01*
X4506323Y-20898171D01*
X4711091Y-21110215D01*
X4884466Y-21230714D01*
X4743588Y-21322901D01*
X4532979Y-21529145D01*
X4366441Y-21772367D01*
X4250317Y-22043306D01*
X4189030Y-22331639D01*
X4184914Y-22626386D01*
X4238127Y-22916318D01*
X4346641Y-23190393D01*
X4506323Y-23438171D01*
X4711091Y-23650215D01*
X4884466Y-23770714D01*
X4743588Y-23862901D01*
X4532979Y-24069145D01*
X4366441Y-24312367D01*
X4250317Y-24583306D01*
X4189030Y-24871639D01*
X4184914Y-25166386D01*
X4238127Y-25456318D01*
X4346641Y-25730393D01*
X4506323Y-25978171D01*
X4711091Y-26190215D01*
X4884466Y-26310714D01*
X4743588Y-26402901D01*
X4532979Y-26609145D01*
X4366441Y-26852367D01*
X4250317Y-27123306D01*
X4189030Y-27411639D01*
X4184914Y-27706386D01*
X4238127Y-27996318D01*
X4346641Y-28270393D01*
X4506323Y-28518171D01*
X4711091Y-28730215D01*
X4884466Y-28850714D01*
X4743588Y-28942901D01*
X4532979Y-29149145D01*
X4419642Y-29314670D01*
X4320463Y-29165394D01*
X4112754Y-28956230D01*
X3868375Y-28791394D01*
X3596632Y-28677164D01*
X3307878Y-28617891D01*
X3013110Y-28615833D01*
X2723556Y-28671068D01*
X2450246Y-28781493D01*
X2203588Y-28942901D01*
X1992979Y-29149145D01*
X1826441Y-29392367D01*
X1710317Y-29663306D01*
X1649030Y-29951639D01*
X1644914Y-30246386D01*
X1698127Y-30536318D01*
X1806641Y-30810393D01*
X1966323Y-31058171D01*
X2171091Y-31270215D01*
X2344466Y-31390714D01*
X2203588Y-31482901D01*
X1992979Y-31689145D01*
X1826441Y-31932367D01*
X1710317Y-32203306D01*
X1649030Y-32491639D01*
X1644914Y-32786386D01*
X1698127Y-33076318D01*
X1806641Y-33350393D01*
X1966323Y-33598171D01*
X2171091Y-33810215D01*
X2344466Y-33930714D01*
X2203588Y-34022901D01*
X1992979Y-34229145D01*
X1826441Y-34472367D01*
X1710317Y-34743306D01*
X1649030Y-35031639D01*
X1644914Y-35326386D01*
X1698127Y-35616318D01*
X1806641Y-35890393D01*
X1966323Y-36138171D01*
X2171091Y-36350215D01*
X2337055Y-36465563D01*
X2203588Y-36552901D01*
X1992979Y-36759145D01*
X1826441Y-37002367D01*
X1710317Y-37273306D01*
X1649030Y-37561639D01*
X1644914Y-37856386D01*
X1698127Y-38146318D01*
X1806641Y-38420393D01*
X1966323Y-38668171D01*
X2171091Y-38880215D01*
X2344466Y-39000714D01*
X2203588Y-39092901D01*
X2124857Y-39170000D01*
X2005000Y-39170000D01*
X1903882Y-39179915D01*
X1802653Y-39188771D01*
X1797099Y-39190384D01*
X1791342Y-39190949D01*
X1694039Y-39220327D01*
X1596495Y-39248666D01*
X1591362Y-39251327D01*
X1585823Y-39252999D01*
X1496078Y-39300717D01*
X1405897Y-39347463D01*
X1401378Y-39351071D01*
X1396269Y-39353787D01*
X1317492Y-39418036D01*
X1238118Y-39481399D01*
X1230071Y-39489334D01*
X1229902Y-39489472D01*
X1229773Y-39489628D01*
X1227182Y-39492183D01*
X825000Y-39894366D01*
X825000Y-4225432D01*
X1196320Y-4225432D01*
X1295444Y-4765519D01*
X1497584Y-5276067D01*
X1795041Y-5737629D01*
X2176484Y-6132625D01*
X2627383Y-6446008D01*
X3130566Y-6665843D01*
X3666865Y-6783756D01*
X4215853Y-6795256D01*
X4756619Y-6699904D01*
X5268566Y-6501333D01*
X5732193Y-6207106D01*
X6129842Y-5828430D01*
X6446366Y-5379729D01*
X6495937Y-5268390D01*
X11846976Y-5268390D01*
X11928400Y-5712033D01*
X12094444Y-6131412D01*
X12338783Y-6510553D01*
X12652111Y-6835013D01*
X13022493Y-7092436D01*
X13435822Y-7273014D01*
X13876353Y-7369871D01*
X14327308Y-7379318D01*
X14771508Y-7300993D01*
X15192036Y-7137881D01*
X15572873Y-6896195D01*
X15899513Y-6585139D01*
X16159515Y-6216563D01*
X16342975Y-5804506D01*
X16442905Y-5364661D01*
X16450099Y-4849473D01*
X16362489Y-4407010D01*
X16287648Y-4225432D01*
X43196320Y-4225432D01*
X43295444Y-4765519D01*
X43497584Y-5276067D01*
X43795041Y-5737629D01*
X44176484Y-6132625D01*
X44627383Y-6446008D01*
X45130566Y-6665843D01*
X45666865Y-6783756D01*
X46215853Y-6795256D01*
X46756619Y-6699904D01*
X47268566Y-6501333D01*
X47732193Y-6207106D01*
X48129842Y-5828430D01*
X48446366Y-5379729D01*
X48669708Y-4878094D01*
X48791362Y-4342631D01*
X48800120Y-3715446D01*
X48693464Y-3176795D01*
X48484215Y-2669119D01*
X48180344Y-2211755D01*
X47793423Y-1822124D01*
X47338192Y-1515067D01*
X46831989Y-1302278D01*
X46294096Y-1191865D01*
X45745001Y-1188031D01*
X45205619Y-1290924D01*
X44696494Y-1496624D01*
X44237020Y-1797295D01*
X43844697Y-2181486D01*
X43534469Y-2634563D01*
X43318152Y-3139268D01*
X43203986Y-3676377D01*
X43196320Y-4225432D01*
X16287648Y-4225432D01*
X16190606Y-3989991D01*
X15940997Y-3614299D01*
X15623169Y-3294244D01*
X15249229Y-3042019D01*
X14833419Y-2867228D01*
X14391579Y-2776532D01*
X13940536Y-2773383D01*
X13497472Y-2857902D01*
X13079263Y-3026869D01*
X12701838Y-3273849D01*
X12379572Y-3589435D01*
X12124742Y-3961605D01*
X11947053Y-4376184D01*
X11853274Y-4817381D01*
X11846976Y-5268390D01*
X6495937Y-5268390D01*
X6669708Y-4878094D01*
X6791362Y-4342631D01*
X6800120Y-3715446D01*
X6693464Y-3176795D01*
X6484215Y-2669119D01*
X6180344Y-2211755D01*
X5793423Y-1822124D01*
X5338192Y-1515067D01*
X4831989Y-1302278D01*
X4294096Y-1191865D01*
X3745001Y-1188031D01*
X3205619Y-1290924D01*
X2696494Y-1496624D01*
X2237020Y-1797295D01*
X1844697Y-2181486D01*
X1534469Y-2634563D01*
X1318152Y-3139268D01*
X1203986Y-3676377D01*
X1196320Y-4225432D01*
X825000Y-4225432D01*
X825000Y-825000D01*
X58225000Y-825000D01*
X58225000Y-9362105D01*
X58225000Y-9362105D01*
G37*
X58225000Y-9362105D02*
X58191847Y-9252297D01*
X58044002Y-8974239D01*
X57950000Y-8858982D01*
X57950000Y-8675000D01*
X57938739Y-8560146D01*
X57928670Y-8445061D01*
X57926835Y-8438745D01*
X57926194Y-8432207D01*
X57892821Y-8321669D01*
X57860607Y-8210790D01*
X57857584Y-8204957D01*
X57855683Y-8198662D01*
X57801477Y-8096715D01*
X57748339Y-7994201D01*
X57744236Y-7989062D01*
X57741152Y-7983261D01*
X57668184Y-7893794D01*
X57596138Y-7803544D01*
X57587116Y-7794395D01*
X57586963Y-7794207D01*
X57586789Y-7794063D01*
X57583884Y-7791117D01*
X57083883Y-7291117D01*
X56994673Y-7217838D01*
X56906209Y-7143608D01*
X56900451Y-7140442D01*
X56895370Y-7136269D01*
X56793573Y-7081686D01*
X56692427Y-7026081D01*
X56686164Y-7024094D01*
X56680369Y-7020987D01*
X56569952Y-6987229D01*
X56459890Y-6952315D01*
X56453355Y-6951582D01*
X56447072Y-6949661D01*
X56332231Y-6937996D01*
X56217453Y-6925122D01*
X56204601Y-6925032D01*
X56204363Y-6925008D01*
X56204141Y-6925029D01*
X56200000Y-6925000D01*
X55317483Y-6925000D01*
X55362873Y-6896195D01*
X55689513Y-6585139D01*
X55949515Y-6216563D01*
X56132975Y-5804506D01*
X56232905Y-5364661D01*
X56240099Y-4849473D01*
X56152489Y-4407010D01*
X55980606Y-3989991D01*
X55730997Y-3614299D01*
X55413169Y-3294244D01*
X55039229Y-3042019D01*
X54623419Y-2867228D01*
X54181579Y-2776532D01*
X53730536Y-2773383D01*
X53287472Y-2857902D01*
X52869263Y-3026869D01*
X52491838Y-3273849D01*
X52169572Y-3589435D01*
X51914742Y-3961605D01*
X51737053Y-4376184D01*
X51643274Y-4817381D01*
X51636976Y-5268390D01*
X51718400Y-5712033D01*
X51884444Y-6131412D01*
X52128783Y-6510553D01*
X52442111Y-6835013D01*
X52571585Y-6925000D01*
X52225000Y-6925000D01*
X52110052Y-6936271D01*
X51995061Y-6946331D01*
X51988750Y-6948164D01*
X51982207Y-6948806D01*
X51871627Y-6982192D01*
X51760790Y-7014393D01*
X51754957Y-7017416D01*
X51748662Y-7019317D01*
X51646715Y-7073523D01*
X51544201Y-7126661D01*
X51539062Y-7130764D01*
X51533261Y-7133848D01*
X51443794Y-7206816D01*
X51353544Y-7278862D01*
X51344395Y-7287884D01*
X51344207Y-7288037D01*
X51344063Y-7288211D01*
X51341116Y-7291117D01*
X49932234Y-8700000D01*
X15350000Y-8700000D01*
X15235052Y-8711271D01*
X15120061Y-8721331D01*
X15113750Y-8723164D01*
X15107207Y-8723806D01*
X14996627Y-8757192D01*
X14885790Y-8789393D01*
X14879957Y-8792416D01*
X14873662Y-8794317D01*
X14771676Y-8848544D01*
X14669201Y-8901662D01*
X14664065Y-8905762D01*
X14658261Y-8908848D01*
X14568767Y-8981838D01*
X14478544Y-9053862D01*
X14469395Y-9062884D01*
X14469207Y-9063037D01*
X14469063Y-9063211D01*
X14466116Y-9066117D01*
X12657234Y-10875000D01*
X5900000Y-10875000D01*
X5785052Y-10886271D01*
X5670061Y-10896331D01*
X5663750Y-10898164D01*
X5657207Y-10898806D01*
X5546627Y-10932192D01*
X5435790Y-10964393D01*
X5429957Y-10967416D01*
X5423662Y-10969317D01*
X5321715Y-11023523D01*
X5219201Y-11076661D01*
X5214062Y-11080764D01*
X5208261Y-11083848D01*
X5118794Y-11156816D01*
X5028544Y-11228862D01*
X5019395Y-11237884D01*
X5019207Y-11238037D01*
X5019063Y-11238211D01*
X5016116Y-11241117D01*
X2850354Y-13406880D01*
X2723556Y-13431068D01*
X2450246Y-13541493D01*
X2203588Y-13702901D01*
X1992979Y-13909145D01*
X1826441Y-14152367D01*
X1710317Y-14423306D01*
X1649030Y-14711639D01*
X1644914Y-15006386D01*
X1698127Y-15296318D01*
X1806641Y-15570393D01*
X1966323Y-15818171D01*
X2171091Y-16030215D01*
X2413145Y-16198447D01*
X2683266Y-16316460D01*
X2971165Y-16379758D01*
X3265875Y-16385932D01*
X3556172Y-16334744D01*
X3830998Y-16228146D01*
X4079885Y-16070198D01*
X4293352Y-15866915D01*
X4421063Y-15685873D01*
X4506323Y-15818171D01*
X4711091Y-16030215D01*
X4884466Y-16150714D01*
X4743588Y-16242901D01*
X4532979Y-16449145D01*
X4366441Y-16692367D01*
X4250317Y-16963306D01*
X4189030Y-17251639D01*
X4184914Y-17546386D01*
X4238127Y-17836318D01*
X4346641Y-18110393D01*
X4506323Y-18358171D01*
X4711091Y-18570215D01*
X4884466Y-18690714D01*
X4743588Y-18782901D01*
X4532979Y-18989145D01*
X4366441Y-19232367D01*
X4250317Y-19503306D01*
X4189030Y-19791639D01*
X4184914Y-20086386D01*
X4238127Y-20376318D01*
X4346641Y-20650393D01*
X4506323Y-20898171D01*
X4711091Y-21110215D01*
X4884466Y-21230714D01*
X4743588Y-21322901D01*
X4532979Y-21529145D01*
X4366441Y-21772367D01*
X4250317Y-22043306D01*
X4189030Y-22331639D01*
X4184914Y-22626386D01*
X4238127Y-22916318D01*
X4346641Y-23190393D01*
X4506323Y-23438171D01*
X4711091Y-23650215D01*
X4884466Y-23770714D01*
X4743588Y-23862901D01*
X4532979Y-24069145D01*
X4366441Y-24312367D01*
X4250317Y-24583306D01*
X4189030Y-24871639D01*
X4184914Y-25166386D01*
X4238127Y-25456318D01*
X4346641Y-25730393D01*
X4506323Y-25978171D01*
X4711091Y-26190215D01*
X4884466Y-26310714D01*
X4743588Y-26402901D01*
X4532979Y-26609145D01*
X4366441Y-26852367D01*
X4250317Y-27123306D01*
X4189030Y-27411639D01*
X4184914Y-27706386D01*
X4238127Y-27996318D01*
X4346641Y-28270393D01*
X4506323Y-28518171D01*
X4711091Y-28730215D01*
X4884466Y-28850714D01*
X4743588Y-28942901D01*
X4532979Y-29149145D01*
X4419642Y-29314670D01*
X4320463Y-29165394D01*
X4112754Y-28956230D01*
X3868375Y-28791394D01*
X3596632Y-28677164D01*
X3307878Y-28617891D01*
X3013110Y-28615833D01*
X2723556Y-28671068D01*
X2450246Y-28781493D01*
X2203588Y-28942901D01*
X1992979Y-29149145D01*
X1826441Y-29392367D01*
X1710317Y-29663306D01*
X1649030Y-29951639D01*
X1644914Y-30246386D01*
X1698127Y-30536318D01*
X1806641Y-30810393D01*
X1966323Y-31058171D01*
X2171091Y-31270215D01*
X2344466Y-31390714D01*
X2203588Y-31482901D01*
X1992979Y-31689145D01*
X1826441Y-31932367D01*
X1710317Y-32203306D01*
X1649030Y-32491639D01*
X1644914Y-32786386D01*
X1698127Y-33076318D01*
X1806641Y-33350393D01*
X1966323Y-33598171D01*
X2171091Y-33810215D01*
X2344466Y-33930714D01*
X2203588Y-34022901D01*
X1992979Y-34229145D01*
X1826441Y-34472367D01*
X1710317Y-34743306D01*
X1649030Y-35031639D01*
X1644914Y-35326386D01*
X1698127Y-35616318D01*
X1806641Y-35890393D01*
X1966323Y-36138171D01*
X2171091Y-36350215D01*
X2337055Y-36465563D01*
X2203588Y-36552901D01*
X1992979Y-36759145D01*
X1826441Y-37002367D01*
X1710317Y-37273306D01*
X1649030Y-37561639D01*
X1644914Y-37856386D01*
X1698127Y-38146318D01*
X1806641Y-38420393D01*
X1966323Y-38668171D01*
X2171091Y-38880215D01*
X2344466Y-39000714D01*
X2203588Y-39092901D01*
X2124857Y-39170000D01*
X2005000Y-39170000D01*
X1903882Y-39179915D01*
X1802653Y-39188771D01*
X1797099Y-39190384D01*
X1791342Y-39190949D01*
X1694039Y-39220327D01*
X1596495Y-39248666D01*
X1591362Y-39251327D01*
X1585823Y-39252999D01*
X1496078Y-39300717D01*
X1405897Y-39347463D01*
X1401378Y-39351071D01*
X1396269Y-39353787D01*
X1317492Y-39418036D01*
X1238118Y-39481399D01*
X1230071Y-39489334D01*
X1229902Y-39489472D01*
X1229773Y-39489628D01*
X1227182Y-39492183D01*
X825000Y-39894366D01*
X825000Y-4225432D01*
X1196320Y-4225432D01*
X1295444Y-4765519D01*
X1497584Y-5276067D01*
X1795041Y-5737629D01*
X2176484Y-6132625D01*
X2627383Y-6446008D01*
X3130566Y-6665843D01*
X3666865Y-6783756D01*
X4215853Y-6795256D01*
X4756619Y-6699904D01*
X5268566Y-6501333D01*
X5732193Y-6207106D01*
X6129842Y-5828430D01*
X6446366Y-5379729D01*
X6495937Y-5268390D01*
X11846976Y-5268390D01*
X11928400Y-5712033D01*
X12094444Y-6131412D01*
X12338783Y-6510553D01*
X12652111Y-6835013D01*
X13022493Y-7092436D01*
X13435822Y-7273014D01*
X13876353Y-7369871D01*
X14327308Y-7379318D01*
X14771508Y-7300993D01*
X15192036Y-7137881D01*
X15572873Y-6896195D01*
X15899513Y-6585139D01*
X16159515Y-6216563D01*
X16342975Y-5804506D01*
X16442905Y-5364661D01*
X16450099Y-4849473D01*
X16362489Y-4407010D01*
X16287648Y-4225432D01*
X43196320Y-4225432D01*
X43295444Y-4765519D01*
X43497584Y-5276067D01*
X43795041Y-5737629D01*
X44176484Y-6132625D01*
X44627383Y-6446008D01*
X45130566Y-6665843D01*
X45666865Y-6783756D01*
X46215853Y-6795256D01*
X46756619Y-6699904D01*
X47268566Y-6501333D01*
X47732193Y-6207106D01*
X48129842Y-5828430D01*
X48446366Y-5379729D01*
X48669708Y-4878094D01*
X48791362Y-4342631D01*
X48800120Y-3715446D01*
X48693464Y-3176795D01*
X48484215Y-2669119D01*
X48180344Y-2211755D01*
X47793423Y-1822124D01*
X47338192Y-1515067D01*
X46831989Y-1302278D01*
X46294096Y-1191865D01*
X45745001Y-1188031D01*
X45205619Y-1290924D01*
X44696494Y-1496624D01*
X44237020Y-1797295D01*
X43844697Y-2181486D01*
X43534469Y-2634563D01*
X43318152Y-3139268D01*
X43203986Y-3676377D01*
X43196320Y-4225432D01*
X16287648Y-4225432D01*
X16190606Y-3989991D01*
X15940997Y-3614299D01*
X15623169Y-3294244D01*
X15249229Y-3042019D01*
X14833419Y-2867228D01*
X14391579Y-2776532D01*
X13940536Y-2773383D01*
X13497472Y-2857902D01*
X13079263Y-3026869D01*
X12701838Y-3273849D01*
X12379572Y-3589435D01*
X12124742Y-3961605D01*
X11947053Y-4376184D01*
X11853274Y-4817381D01*
X11846976Y-5268390D01*
X6495937Y-5268390D01*
X6669708Y-4878094D01*
X6791362Y-4342631D01*
X6800120Y-3715446D01*
X6693464Y-3176795D01*
X6484215Y-2669119D01*
X6180344Y-2211755D01*
X5793423Y-1822124D01*
X5338192Y-1515067D01*
X4831989Y-1302278D01*
X4294096Y-1191865D01*
X3745001Y-1188031D01*
X3205619Y-1290924D01*
X2696494Y-1496624D01*
X2237020Y-1797295D01*
X1844697Y-2181486D01*
X1534469Y-2634563D01*
X1318152Y-3139268D01*
X1203986Y-3676377D01*
X1196320Y-4225432D01*
X825000Y-4225432D01*
X825000Y-825000D01*
X58225000Y-825000D01*
X58225000Y-9362105D01*
G36*
X58225000Y-34762105D02*
X58191847Y-34652297D01*
X58044002Y-34374239D01*
X57844963Y-34130194D01*
X57602314Y-33929457D01*
X57325295Y-33779674D01*
X57024459Y-33686549D01*
X56711265Y-33653631D01*
X56397642Y-33682173D01*
X56095535Y-33771088D01*
X55816452Y-33916989D01*
X55571023Y-34114319D01*
X55429537Y-34282936D01*
X55304963Y-34130194D01*
X55153325Y-34004748D01*
X55288977Y-33895681D01*
X55491403Y-33654439D01*
X55643117Y-33378473D01*
X55738339Y-33078294D01*
X55773443Y-32765337D01*
X55773600Y-32742808D01*
X55773600Y-32727192D01*
X55742869Y-32413775D01*
X55703618Y-32283769D01*
X55770690Y-32264282D01*
X55774783Y-32262160D01*
X55779199Y-32260827D01*
X55850740Y-32222788D01*
X55922648Y-32185514D01*
X55926251Y-32182637D01*
X55930324Y-32180472D01*
X55993098Y-32129275D01*
X56056414Y-32078731D01*
X56062834Y-32072400D01*
X56062964Y-32072294D01*
X56063063Y-32072174D01*
X56065133Y-32070133D01*
X56357423Y-31777843D01*
X56375541Y-31783451D01*
X56688735Y-31816369D01*
X57002358Y-31787827D01*
X57304465Y-31698912D01*
X57583548Y-31553011D01*
X57828977Y-31355681D01*
X58031403Y-31114439D01*
X58183117Y-30838473D01*
X58225000Y-30706441D01*
X58225000Y-34762105D01*
X58225000Y-34762105D01*
G37*
X58225000Y-34762105D02*
X58191847Y-34652297D01*
X58044002Y-34374239D01*
X57844963Y-34130194D01*
X57602314Y-33929457D01*
X57325295Y-33779674D01*
X57024459Y-33686549D01*
X56711265Y-33653631D01*
X56397642Y-33682173D01*
X56095535Y-33771088D01*
X55816452Y-33916989D01*
X55571023Y-34114319D01*
X55429537Y-34282936D01*
X55304963Y-34130194D01*
X55153325Y-34004748D01*
X55288977Y-33895681D01*
X55491403Y-33654439D01*
X55643117Y-33378473D01*
X55738339Y-33078294D01*
X55773443Y-32765337D01*
X55773600Y-32742808D01*
X55773600Y-32727192D01*
X55742869Y-32413775D01*
X55703618Y-32283769D01*
X55770690Y-32264282D01*
X55774783Y-32262160D01*
X55779199Y-32260827D01*
X55850740Y-32222788D01*
X55922648Y-32185514D01*
X55926251Y-32182637D01*
X55930324Y-32180472D01*
X55993098Y-32129275D01*
X56056414Y-32078731D01*
X56062834Y-32072400D01*
X56062964Y-32072294D01*
X56063063Y-32072174D01*
X56065133Y-32070133D01*
X56357423Y-31777843D01*
X56375541Y-31783451D01*
X56688735Y-31816369D01*
X57002358Y-31787827D01*
X57304465Y-31698912D01*
X57583548Y-31553011D01*
X57828977Y-31355681D01*
X58031403Y-31114439D01*
X58183117Y-30838473D01*
X58225000Y-30706441D01*
X58225000Y-34762105D01*
G36*
X53166675Y-16225252D02*
X53031023Y-16334319D01*
X52980106Y-16395000D01*
X47805000Y-16395000D01*
X47754005Y-16400000D01*
X46350952Y-16400000D01*
X46341710Y-16396115D01*
X46120789Y-16350766D01*
X45895268Y-16349192D01*
X45673736Y-16391451D01*
X45464632Y-16475935D01*
X45275919Y-16599425D01*
X45114787Y-16757218D01*
X44987372Y-16943303D01*
X44898527Y-17150592D01*
X44851638Y-17371191D01*
X44848489Y-17596695D01*
X44889201Y-17818517D01*
X44972222Y-18028206D01*
X45094392Y-18217776D01*
X45251056Y-18380006D01*
X45436247Y-18508717D01*
X45642911Y-18599007D01*
X45863177Y-18647435D01*
X46088654Y-18652158D01*
X46310754Y-18612996D01*
X46344260Y-18600000D01*
X47569454Y-18600000D01*
X47575054Y-18601755D01*
X47788481Y-18624940D01*
X48002346Y-18606229D01*
X48040996Y-18595000D01*
X48685130Y-18595000D01*
X48115065Y-19165065D01*
X48056226Y-19236697D01*
X47996586Y-19307773D01*
X47994042Y-19312401D01*
X47990692Y-19316479D01*
X47946888Y-19398174D01*
X47902188Y-19479482D01*
X47900591Y-19484517D01*
X47898097Y-19489168D01*
X47870987Y-19577841D01*
X47842940Y-19666257D01*
X47842352Y-19671503D01*
X47840808Y-19676552D01*
X47831435Y-19768825D01*
X47821098Y-19860982D01*
X47821026Y-19871300D01*
X47821006Y-19871496D01*
X47821023Y-19871678D01*
X47821000Y-19875000D01*
X47821000Y-20955702D01*
X47812372Y-20968303D01*
X47723527Y-21175592D01*
X47676638Y-21396191D01*
X47673489Y-21621695D01*
X47714201Y-21843517D01*
X47797222Y-22053206D01*
X47919392Y-22242776D01*
X48022937Y-22350000D01*
X41350952Y-22350000D01*
X41341710Y-22346115D01*
X41120789Y-22300766D01*
X40895268Y-22299192D01*
X40673736Y-22341451D01*
X40464632Y-22425935D01*
X40275919Y-22549425D01*
X40114787Y-22707218D01*
X39987372Y-22893303D01*
X39898527Y-23100592D01*
X39851638Y-23321191D01*
X39848489Y-23546695D01*
X39889201Y-23768517D01*
X39972222Y-23978206D01*
X40002379Y-24025000D01*
X39475952Y-24025000D01*
X39466710Y-24021115D01*
X39245789Y-23975766D01*
X39020268Y-23974192D01*
X38798736Y-24016451D01*
X38589632Y-24100935D01*
X38400919Y-24224425D01*
X38239787Y-24382218D01*
X38112372Y-24568303D01*
X38023527Y-24775592D01*
X37976638Y-24996191D01*
X37973489Y-25221695D01*
X38014201Y-25443517D01*
X38097222Y-25653206D01*
X38219392Y-25842776D01*
X38376056Y-26005006D01*
X38561247Y-26133717D01*
X38767911Y-26224007D01*
X38988177Y-26272435D01*
X39213654Y-26277158D01*
X39435754Y-26237996D01*
X39469260Y-26225000D01*
X52986650Y-26225000D01*
X53015037Y-26259806D01*
X53166675Y-26385252D01*
X53031023Y-26494319D01*
X52980106Y-26555000D01*
X38195000Y-26555000D01*
X38093928Y-26564910D01*
X37992654Y-26573770D01*
X37987096Y-26575385D01*
X37981342Y-26575949D01*
X37884101Y-26605308D01*
X37786496Y-26633665D01*
X37781360Y-26636327D01*
X37775823Y-26637999D01*
X37686114Y-26685698D01*
X37595898Y-26732462D01*
X37591377Y-26736071D01*
X37586269Y-26738787D01*
X37507528Y-26803007D01*
X37428118Y-26866398D01*
X37420069Y-26874336D01*
X37419902Y-26874472D01*
X37419774Y-26874627D01*
X37417183Y-26877182D01*
X33794366Y-30500000D01*
X13650952Y-30500000D01*
X13641710Y-30496115D01*
X13420789Y-30450766D01*
X13195268Y-30449192D01*
X12973736Y-30491451D01*
X12764632Y-30575935D01*
X12575919Y-30699425D01*
X12414787Y-30857218D01*
X12287372Y-31043303D01*
X12198527Y-31250592D01*
X12195494Y-31264860D01*
X10272817Y-29342183D01*
X10194349Y-29277728D01*
X10116464Y-29212375D01*
X10111393Y-29209587D01*
X10106925Y-29205917D01*
X10017397Y-29157912D01*
X9928336Y-29108951D01*
X9922821Y-29107202D01*
X9917725Y-29104469D01*
X9820567Y-29074765D01*
X9723703Y-29044038D01*
X9717955Y-29043393D01*
X9712423Y-29041702D01*
X9611310Y-29031431D01*
X9510358Y-29020107D01*
X9499059Y-29020028D01*
X9498840Y-29020006D01*
X9498636Y-29020025D01*
X9495000Y-29020000D01*
X6716080Y-29020000D01*
X6652754Y-28956230D01*
X6494716Y-28849632D01*
X6619885Y-28770198D01*
X6833352Y-28566915D01*
X7003270Y-28326041D01*
X7123166Y-28056751D01*
X7188473Y-27769301D01*
X7193175Y-27432612D01*
X7135919Y-27143451D01*
X7023589Y-26870918D01*
X6860463Y-26625394D01*
X6652754Y-26416230D01*
X6494716Y-26309632D01*
X6619885Y-26230198D01*
X6833352Y-26026915D01*
X7003270Y-25786041D01*
X7123166Y-25516751D01*
X7188473Y-25229301D01*
X7193175Y-24892612D01*
X7135919Y-24603451D01*
X7023589Y-24330918D01*
X6860463Y-24085394D01*
X6652754Y-23876230D01*
X6494716Y-23769632D01*
X6619885Y-23690198D01*
X6833352Y-23486915D01*
X7003270Y-23246041D01*
X7123166Y-22976751D01*
X7188473Y-22689301D01*
X7193175Y-22352612D01*
X7135919Y-22063451D01*
X7023589Y-21790918D01*
X6860463Y-21545394D01*
X6652754Y-21336230D01*
X6494716Y-21229632D01*
X6525652Y-21210000D01*
X9740000Y-21210000D01*
X9854948Y-21198729D01*
X9969939Y-21188669D01*
X9976250Y-21186836D01*
X9982793Y-21186194D01*
X10093373Y-21152808D01*
X10204210Y-21120607D01*
X10210043Y-21117584D01*
X10216338Y-21115683D01*
X10318285Y-21061477D01*
X10420799Y-21008339D01*
X10425938Y-21004236D01*
X10431739Y-21001152D01*
X10521206Y-20928184D01*
X10611456Y-20856138D01*
X10620601Y-20847120D01*
X10620793Y-20846963D01*
X10620940Y-20846785D01*
X10623883Y-20843883D01*
X14734110Y-16733657D01*
X14620987Y-16944631D01*
X14549661Y-17177928D01*
X14525008Y-17420637D01*
X14547966Y-17663511D01*
X14617662Y-17897301D01*
X14731440Y-18113101D01*
X14884967Y-18302691D01*
X15072396Y-18458851D01*
X15286586Y-18575631D01*
X15519380Y-18648584D01*
X15761910Y-18674931D01*
X16004939Y-18653669D01*
X16239210Y-18585607D01*
X16455799Y-18473339D01*
X16646456Y-18321138D01*
X16658883Y-18308883D01*
X18762767Y-16205000D01*
X53142195Y-16205000D01*
X53166675Y-16225252D01*
X53166675Y-16225252D01*
G37*
X53166675Y-16225252D02*
X53031023Y-16334319D01*
X52980106Y-16395000D01*
X47805000Y-16395000D01*
X47754005Y-16400000D01*
X46350952Y-16400000D01*
X46341710Y-16396115D01*
X46120789Y-16350766D01*
X45895268Y-16349192D01*
X45673736Y-16391451D01*
X45464632Y-16475935D01*
X45275919Y-16599425D01*
X45114787Y-16757218D01*
X44987372Y-16943303D01*
X44898527Y-17150592D01*
X44851638Y-17371191D01*
X44848489Y-17596695D01*
X44889201Y-17818517D01*
X44972222Y-18028206D01*
X45094392Y-18217776D01*
X45251056Y-18380006D01*
X45436247Y-18508717D01*
X45642911Y-18599007D01*
X45863177Y-18647435D01*
X46088654Y-18652158D01*
X46310754Y-18612996D01*
X46344260Y-18600000D01*
X47569454Y-18600000D01*
X47575054Y-18601755D01*
X47788481Y-18624940D01*
X48002346Y-18606229D01*
X48040996Y-18595000D01*
X48685130Y-18595000D01*
X48115065Y-19165065D01*
X48056226Y-19236697D01*
X47996586Y-19307773D01*
X47994042Y-19312401D01*
X47990692Y-19316479D01*
X47946888Y-19398174D01*
X47902188Y-19479482D01*
X47900591Y-19484517D01*
X47898097Y-19489168D01*
X47870987Y-19577841D01*
X47842940Y-19666257D01*
X47842352Y-19671503D01*
X47840808Y-19676552D01*
X47831435Y-19768825D01*
X47821098Y-19860982D01*
X47821026Y-19871300D01*
X47821006Y-19871496D01*
X47821023Y-19871678D01*
X47821000Y-19875000D01*
X47821000Y-20955702D01*
X47812372Y-20968303D01*
X47723527Y-21175592D01*
X47676638Y-21396191D01*
X47673489Y-21621695D01*
X47714201Y-21843517D01*
X47797222Y-22053206D01*
X47919392Y-22242776D01*
X48022937Y-22350000D01*
X41350952Y-22350000D01*
X41341710Y-22346115D01*
X41120789Y-22300766D01*
X40895268Y-22299192D01*
X40673736Y-22341451D01*
X40464632Y-22425935D01*
X40275919Y-22549425D01*
X40114787Y-22707218D01*
X39987372Y-22893303D01*
X39898527Y-23100592D01*
X39851638Y-23321191D01*
X39848489Y-23546695D01*
X39889201Y-23768517D01*
X39972222Y-23978206D01*
X40002379Y-24025000D01*
X39475952Y-24025000D01*
X39466710Y-24021115D01*
X39245789Y-23975766D01*
X39020268Y-23974192D01*
X38798736Y-24016451D01*
X38589632Y-24100935D01*
X38400919Y-24224425D01*
X38239787Y-24382218D01*
X38112372Y-24568303D01*
X38023527Y-24775592D01*
X37976638Y-24996191D01*
X37973489Y-25221695D01*
X38014201Y-25443517D01*
X38097222Y-25653206D01*
X38219392Y-25842776D01*
X38376056Y-26005006D01*
X38561247Y-26133717D01*
X38767911Y-26224007D01*
X38988177Y-26272435D01*
X39213654Y-26277158D01*
X39435754Y-26237996D01*
X39469260Y-26225000D01*
X52986650Y-26225000D01*
X53015037Y-26259806D01*
X53166675Y-26385252D01*
X53031023Y-26494319D01*
X52980106Y-26555000D01*
X38195000Y-26555000D01*
X38093928Y-26564910D01*
X37992654Y-26573770D01*
X37987096Y-26575385D01*
X37981342Y-26575949D01*
X37884101Y-26605308D01*
X37786496Y-26633665D01*
X37781360Y-26636327D01*
X37775823Y-26637999D01*
X37686114Y-26685698D01*
X37595898Y-26732462D01*
X37591377Y-26736071D01*
X37586269Y-26738787D01*
X37507528Y-26803007D01*
X37428118Y-26866398D01*
X37420069Y-26874336D01*
X37419902Y-26874472D01*
X37419774Y-26874627D01*
X37417183Y-26877182D01*
X33794366Y-30500000D01*
X13650952Y-30500000D01*
X13641710Y-30496115D01*
X13420789Y-30450766D01*
X13195268Y-30449192D01*
X12973736Y-30491451D01*
X12764632Y-30575935D01*
X12575919Y-30699425D01*
X12414787Y-30857218D01*
X12287372Y-31043303D01*
X12198527Y-31250592D01*
X12195494Y-31264860D01*
X10272817Y-29342183D01*
X10194349Y-29277728D01*
X10116464Y-29212375D01*
X10111393Y-29209587D01*
X10106925Y-29205917D01*
X10017397Y-29157912D01*
X9928336Y-29108951D01*
X9922821Y-29107202D01*
X9917725Y-29104469D01*
X9820567Y-29074765D01*
X9723703Y-29044038D01*
X9717955Y-29043393D01*
X9712423Y-29041702D01*
X9611310Y-29031431D01*
X9510358Y-29020107D01*
X9499059Y-29020028D01*
X9498840Y-29020006D01*
X9498636Y-29020025D01*
X9495000Y-29020000D01*
X6716080Y-29020000D01*
X6652754Y-28956230D01*
X6494716Y-28849632D01*
X6619885Y-28770198D01*
X6833352Y-28566915D01*
X7003270Y-28326041D01*
X7123166Y-28056751D01*
X7188473Y-27769301D01*
X7193175Y-27432612D01*
X7135919Y-27143451D01*
X7023589Y-26870918D01*
X6860463Y-26625394D01*
X6652754Y-26416230D01*
X6494716Y-26309632D01*
X6619885Y-26230198D01*
X6833352Y-26026915D01*
X7003270Y-25786041D01*
X7123166Y-25516751D01*
X7188473Y-25229301D01*
X7193175Y-24892612D01*
X7135919Y-24603451D01*
X7023589Y-24330918D01*
X6860463Y-24085394D01*
X6652754Y-23876230D01*
X6494716Y-23769632D01*
X6619885Y-23690198D01*
X6833352Y-23486915D01*
X7003270Y-23246041D01*
X7123166Y-22976751D01*
X7188473Y-22689301D01*
X7193175Y-22352612D01*
X7135919Y-22063451D01*
X7023589Y-21790918D01*
X6860463Y-21545394D01*
X6652754Y-21336230D01*
X6494716Y-21229632D01*
X6525652Y-21210000D01*
X9740000Y-21210000D01*
X9854948Y-21198729D01*
X9969939Y-21188669D01*
X9976250Y-21186836D01*
X9982793Y-21186194D01*
X10093373Y-21152808D01*
X10204210Y-21120607D01*
X10210043Y-21117584D01*
X10216338Y-21115683D01*
X10318285Y-21061477D01*
X10420799Y-21008339D01*
X10425938Y-21004236D01*
X10431739Y-21001152D01*
X10521206Y-20928184D01*
X10611456Y-20856138D01*
X10620601Y-20847120D01*
X10620793Y-20846963D01*
X10620940Y-20846785D01*
X10623883Y-20843883D01*
X14734110Y-16733657D01*
X14620987Y-16944631D01*
X14549661Y-17177928D01*
X14525008Y-17420637D01*
X14547966Y-17663511D01*
X14617662Y-17897301D01*
X14731440Y-18113101D01*
X14884967Y-18302691D01*
X15072396Y-18458851D01*
X15286586Y-18575631D01*
X15519380Y-18648584D01*
X15761910Y-18674931D01*
X16004939Y-18653669D01*
X16239210Y-18585607D01*
X16455799Y-18473339D01*
X16646456Y-18321138D01*
X16658883Y-18308883D01*
X18762767Y-16205000D01*
X53142195Y-16205000D01*
X53166675Y-16225252D01*
G36*
X58225000Y-27142105D02*
X58191847Y-27032297D01*
X58044002Y-26754239D01*
X57844963Y-26510194D01*
X57602314Y-26309457D01*
X57325295Y-26159674D01*
X57024459Y-26066549D01*
X56711265Y-26033631D01*
X56397642Y-26062173D01*
X56095535Y-26151088D01*
X55816452Y-26296989D01*
X55571023Y-26494319D01*
X55429537Y-26662936D01*
X55304963Y-26510194D01*
X55153325Y-26384748D01*
X55288977Y-26275681D01*
X55491403Y-26034439D01*
X55643117Y-25758473D01*
X55738339Y-25458294D01*
X55773443Y-25145337D01*
X55773600Y-25122808D01*
X55773600Y-25107192D01*
X55742869Y-24793775D01*
X55707556Y-24676814D01*
X55750690Y-24664282D01*
X55754783Y-24662160D01*
X55759199Y-24660827D01*
X55830740Y-24622788D01*
X55902648Y-24585514D01*
X55906251Y-24582637D01*
X55910324Y-24580472D01*
X55973098Y-24529275D01*
X56036414Y-24478731D01*
X56042834Y-24472400D01*
X56042964Y-24472294D01*
X56043063Y-24472174D01*
X56045133Y-24470133D01*
X56357423Y-24157843D01*
X56375541Y-24163451D01*
X56688735Y-24196369D01*
X57002358Y-24167827D01*
X57304465Y-24078912D01*
X57583548Y-23933011D01*
X57828977Y-23735681D01*
X58031403Y-23494439D01*
X58183117Y-23218473D01*
X58225000Y-23086441D01*
X58225000Y-27142105D01*
X58225000Y-27142105D01*
G37*
X58225000Y-27142105D02*
X58191847Y-27032297D01*
X58044002Y-26754239D01*
X57844963Y-26510194D01*
X57602314Y-26309457D01*
X57325295Y-26159674D01*
X57024459Y-26066549D01*
X56711265Y-26033631D01*
X56397642Y-26062173D01*
X56095535Y-26151088D01*
X55816452Y-26296989D01*
X55571023Y-26494319D01*
X55429537Y-26662936D01*
X55304963Y-26510194D01*
X55153325Y-26384748D01*
X55288977Y-26275681D01*
X55491403Y-26034439D01*
X55643117Y-25758473D01*
X55738339Y-25458294D01*
X55773443Y-25145337D01*
X55773600Y-25122808D01*
X55773600Y-25107192D01*
X55742869Y-24793775D01*
X55707556Y-24676814D01*
X55750690Y-24664282D01*
X55754783Y-24662160D01*
X55759199Y-24660827D01*
X55830740Y-24622788D01*
X55902648Y-24585514D01*
X55906251Y-24582637D01*
X55910324Y-24580472D01*
X55973098Y-24529275D01*
X56036414Y-24478731D01*
X56042834Y-24472400D01*
X56042964Y-24472294D01*
X56043063Y-24472174D01*
X56045133Y-24470133D01*
X56357423Y-24157843D01*
X56375541Y-24163451D01*
X56688735Y-24196369D01*
X57002358Y-24167827D01*
X57304465Y-24078912D01*
X57583548Y-23933011D01*
X57828977Y-23735681D01*
X58031403Y-23494439D01*
X58183117Y-23218473D01*
X58225000Y-23086441D01*
X58225000Y-27142105D01*
G36*
X55121661Y-19691706D02*
X55086557Y-20004663D01*
X55086400Y-20027192D01*
X55086400Y-20042808D01*
X55117131Y-20356225D01*
X55122089Y-20372645D01*
X55071734Y-20423000D01*
X52878850Y-20423000D01*
X52795518Y-20377188D01*
X52608743Y-20317940D01*
X52414018Y-20296098D01*
X52400000Y-20296000D01*
X51815871Y-20296000D01*
X51511273Y-19991402D01*
X51506244Y-19966005D01*
X51429165Y-19779000D01*
X52350000Y-19779000D01*
X52545011Y-19759879D01*
X52732595Y-19703244D01*
X52828971Y-19652000D01*
X55134256Y-19652000D01*
X55121661Y-19691706D01*
X55121661Y-19691706D01*
G37*
X55121661Y-19691706D02*
X55086557Y-20004663D01*
X55086400Y-20027192D01*
X55086400Y-20042808D01*
X55117131Y-20356225D01*
X55122089Y-20372645D01*
X55071734Y-20423000D01*
X52878850Y-20423000D01*
X52795518Y-20377188D01*
X52608743Y-20317940D01*
X52414018Y-20296098D01*
X52400000Y-20296000D01*
X51815871Y-20296000D01*
X51511273Y-19991402D01*
X51506244Y-19966005D01*
X51429165Y-19779000D01*
X52350000Y-19779000D01*
X52545011Y-19759879D01*
X52732595Y-19703244D01*
X52828971Y-19652000D01*
X55134256Y-19652000D01*
X55121661Y-19691706D01*
G36*
X16931627Y-11222192D02*
X16820790Y-11254393D01*
X16814957Y-11257416D01*
X16808662Y-11259317D01*
X16706715Y-11313523D01*
X16604201Y-11366661D01*
X16599062Y-11370764D01*
X16593261Y-11373848D01*
X16503794Y-11446816D01*
X16413544Y-11518862D01*
X16404395Y-11527884D01*
X16404207Y-11528037D01*
X16404063Y-11528211D01*
X16401116Y-11531117D01*
X9222234Y-18710000D01*
X6524913Y-18710000D01*
X6494716Y-18689632D01*
X6619885Y-18610198D01*
X6833352Y-18406915D01*
X7003270Y-18166041D01*
X7123166Y-17896751D01*
X7188473Y-17609301D01*
X7193175Y-17272612D01*
X7135919Y-16983451D01*
X7023589Y-16710918D01*
X6860463Y-16465394D01*
X6652754Y-16256230D01*
X6494716Y-16149632D01*
X6619885Y-16070198D01*
X6833352Y-15866915D01*
X7003270Y-15626041D01*
X7123166Y-15356751D01*
X7188473Y-15069301D01*
X7193175Y-14732612D01*
X7135919Y-14443451D01*
X7023589Y-14170918D01*
X6860463Y-13925394D01*
X6652754Y-13716230D01*
X6408375Y-13551394D01*
X6290798Y-13501969D01*
X6417767Y-13375000D01*
X13175000Y-13375000D01*
X13289948Y-13363729D01*
X13404939Y-13353669D01*
X13411250Y-13351836D01*
X13417793Y-13351194D01*
X13528373Y-13317808D01*
X13639210Y-13285607D01*
X13645043Y-13282584D01*
X13651338Y-13280683D01*
X13753285Y-13226477D01*
X13855799Y-13173339D01*
X13860938Y-13169236D01*
X13866739Y-13166152D01*
X13956206Y-13093184D01*
X14046456Y-13021138D01*
X14055601Y-13012120D01*
X14055793Y-13011963D01*
X14055940Y-13011785D01*
X14058883Y-13008883D01*
X15867767Y-11200000D01*
X17005130Y-11200000D01*
X16931627Y-11222192D01*
X16931627Y-11222192D01*
G37*
X16931627Y-11222192D02*
X16820790Y-11254393D01*
X16814957Y-11257416D01*
X16808662Y-11259317D01*
X16706715Y-11313523D01*
X16604201Y-11366661D01*
X16599062Y-11370764D01*
X16593261Y-11373848D01*
X16503794Y-11446816D01*
X16413544Y-11518862D01*
X16404395Y-11527884D01*
X16404207Y-11528037D01*
X16404063Y-11528211D01*
X16401116Y-11531117D01*
X9222234Y-18710000D01*
X6524913Y-18710000D01*
X6494716Y-18689632D01*
X6619885Y-18610198D01*
X6833352Y-18406915D01*
X7003270Y-18166041D01*
X7123166Y-17896751D01*
X7188473Y-17609301D01*
X7193175Y-17272612D01*
X7135919Y-16983451D01*
X7023589Y-16710918D01*
X6860463Y-16465394D01*
X6652754Y-16256230D01*
X6494716Y-16149632D01*
X6619885Y-16070198D01*
X6833352Y-15866915D01*
X7003270Y-15626041D01*
X7123166Y-15356751D01*
X7188473Y-15069301D01*
X7193175Y-14732612D01*
X7135919Y-14443451D01*
X7023589Y-14170918D01*
X6860463Y-13925394D01*
X6652754Y-13716230D01*
X6408375Y-13551394D01*
X6290798Y-13501969D01*
X6417767Y-13375000D01*
X13175000Y-13375000D01*
X13289948Y-13363729D01*
X13404939Y-13353669D01*
X13411250Y-13351836D01*
X13417793Y-13351194D01*
X13528373Y-13317808D01*
X13639210Y-13285607D01*
X13645043Y-13282584D01*
X13651338Y-13280683D01*
X13753285Y-13226477D01*
X13855799Y-13173339D01*
X13860938Y-13169236D01*
X13866739Y-13166152D01*
X13956206Y-13093184D01*
X14046456Y-13021138D01*
X14055601Y-13012120D01*
X14055793Y-13011963D01*
X14055940Y-13011785D01*
X14058883Y-13008883D01*
X15867767Y-11200000D01*
X17005130Y-11200000D01*
X16931627Y-11222192D01*
G36*
X58225000Y-16982105D02*
X58191847Y-16872297D01*
X58044002Y-16594239D01*
X57844963Y-16350194D01*
X57602314Y-16149457D01*
X57325295Y-15999674D01*
X57024459Y-15906549D01*
X56711265Y-15873631D01*
X56397642Y-15902173D01*
X56095535Y-15991088D01*
X55816452Y-16136989D01*
X55571023Y-16334319D01*
X55429537Y-16502936D01*
X55304963Y-16350194D01*
X55153325Y-16224748D01*
X55288977Y-16115681D01*
X55491403Y-15874439D01*
X55643117Y-15598473D01*
X55738339Y-15298294D01*
X55773443Y-14985337D01*
X55773600Y-14962808D01*
X55773600Y-14947192D01*
X55742869Y-14633775D01*
X55651847Y-14332297D01*
X55504002Y-14054239D01*
X55304963Y-13810194D01*
X55153325Y-13684748D01*
X55288977Y-13575681D01*
X55430463Y-13407064D01*
X55555037Y-13559806D01*
X55797686Y-13760543D01*
X56074705Y-13910326D01*
X56375541Y-14003451D01*
X56688735Y-14036369D01*
X57002358Y-14007827D01*
X57304465Y-13918912D01*
X57583548Y-13773011D01*
X57828977Y-13575681D01*
X58031403Y-13334439D01*
X58183117Y-13058473D01*
X58225000Y-12926441D01*
X58225000Y-16982105D01*
X58225000Y-16982105D01*
G37*
X58225000Y-16982105D02*
X58191847Y-16872297D01*
X58044002Y-16594239D01*
X57844963Y-16350194D01*
X57602314Y-16149457D01*
X57325295Y-15999674D01*
X57024459Y-15906549D01*
X56711265Y-15873631D01*
X56397642Y-15902173D01*
X56095535Y-15991088D01*
X55816452Y-16136989D01*
X55571023Y-16334319D01*
X55429537Y-16502936D01*
X55304963Y-16350194D01*
X55153325Y-16224748D01*
X55288977Y-16115681D01*
X55491403Y-15874439D01*
X55643117Y-15598473D01*
X55738339Y-15298294D01*
X55773443Y-14985337D01*
X55773600Y-14962808D01*
X55773600Y-14947192D01*
X55742869Y-14633775D01*
X55651847Y-14332297D01*
X55504002Y-14054239D01*
X55304963Y-13810194D01*
X55153325Y-13684748D01*
X55288977Y-13575681D01*
X55430463Y-13407064D01*
X55555037Y-13559806D01*
X55797686Y-13760543D01*
X56074705Y-13910326D01*
X56375541Y-14003451D01*
X56688735Y-14036369D01*
X57002358Y-14007827D01*
X57304465Y-13918912D01*
X57583548Y-13773011D01*
X57828977Y-13575681D01*
X58031403Y-13334439D01*
X58183117Y-13058473D01*
X58225000Y-12926441D01*
X58225000Y-16982105D01*
M02*
