G04 #@! TF.FileFunction,Soldermask,Bot*
%FSLAX46Y46*%
G04 Gerber Fmt 4.6, Leading zero omitted, Abs format (unit mm)*
G04 Created by KiCad (PCBNEW 4.0.0-rc1-stable) date 28.10.2015 10:15:14*
%MOMM*%
G01*
G04 APERTURE LIST*
%ADD10C,0.150000*%
%ADD11C,2.100000*%
%ADD12R,2.100000X2.100000*%
%ADD13R,2.127200X2.127200*%
%ADD14O,2.127200X2.127200*%
%ADD15R,2.432000X2.127200*%
%ADD16O,2.432000X2.127200*%
%ADD17C,2.900000*%
%ADD18R,2.900000X2.900000*%
%ADD19R,2.127200X2.432000*%
%ADD20O,2.127200X2.432000*%
%ADD21R,2.900000X2.127200*%
%ADD22O,2.900000X2.127200*%
%ADD23C,3.400000*%
%ADD24C,2.000000*%
%ADD25R,2.432000X2.432000*%
%ADD26O,2.432000X2.432000*%
G04 APERTURE END LIST*
D10*
D11*
X170919000Y-60960000D03*
X170919000Y-58420000D03*
X170919000Y-63500000D03*
X170919000Y-66040000D03*
X170919000Y-68580000D03*
X170919000Y-71120000D03*
X170919000Y-73660000D03*
X170919000Y-76200000D03*
D12*
X183769000Y-76200000D03*
D11*
X183769000Y-73660000D03*
X183769000Y-71120000D03*
X183769000Y-68580000D03*
X183769000Y-66040000D03*
X183769000Y-63500000D03*
X183769000Y-58420000D03*
X183769000Y-60960000D03*
X130533000Y-87249000D03*
X130533000Y-84709000D03*
X130533000Y-89789000D03*
X130533000Y-92329000D03*
X130533000Y-94869000D03*
X130533000Y-97409000D03*
X130533000Y-99949000D03*
X130533000Y-102489000D03*
D12*
X143383000Y-102489000D03*
D11*
X143383000Y-99949000D03*
X143383000Y-97409000D03*
X143383000Y-94869000D03*
X143383000Y-92329000D03*
X143383000Y-89789000D03*
X143383000Y-84709000D03*
X143383000Y-87249000D03*
X150726000Y-87185500D03*
X150726000Y-84645500D03*
X150726000Y-89725500D03*
X150726000Y-92265500D03*
X150726000Y-94805500D03*
X150726000Y-97345500D03*
X150726000Y-99885500D03*
X150726000Y-102425500D03*
D12*
X163576000Y-102425500D03*
D11*
X163576000Y-99885500D03*
X163576000Y-97345500D03*
X163576000Y-94805500D03*
X163576000Y-92265500D03*
X163576000Y-89725500D03*
X163576000Y-84645500D03*
X163576000Y-87185500D03*
X104498000Y-60960000D03*
X104498000Y-58420000D03*
X104498000Y-63500000D03*
X104498000Y-66040000D03*
X104498000Y-68580000D03*
X104498000Y-71120000D03*
X104498000Y-73660000D03*
X104498000Y-76200000D03*
D12*
X117348000Y-76200000D03*
D11*
X117348000Y-73660000D03*
X117348000Y-71120000D03*
X117348000Y-68580000D03*
X117348000Y-66040000D03*
X117348000Y-63500000D03*
X117348000Y-58420000D03*
X117348000Y-60960000D03*
D13*
X116459000Y-53213000D03*
D14*
X116459000Y-50673000D03*
X113919000Y-53213000D03*
X113919000Y-50673000D03*
X111379000Y-53213000D03*
X111379000Y-50673000D03*
X108839000Y-53213000D03*
X108839000Y-50673000D03*
X106299000Y-53213000D03*
X106299000Y-50673000D03*
D13*
X140335000Y-50546000D03*
D14*
X137795000Y-50546000D03*
X140335000Y-53086000D03*
X137795000Y-53086000D03*
X140335000Y-55626000D03*
X137795000Y-55626000D03*
D13*
X158432500Y-87185500D03*
D14*
X155892500Y-87185500D03*
X158432500Y-89725500D03*
X155892500Y-89725500D03*
X158432500Y-92265500D03*
X155892500Y-92265500D03*
D15*
X147193000Y-97345500D03*
D16*
X147193000Y-94805500D03*
X147193000Y-92265500D03*
X147193000Y-89725500D03*
D13*
X137985500Y-87249000D03*
D14*
X135445500Y-87249000D03*
X137985500Y-89789000D03*
X135445500Y-89789000D03*
X137985500Y-92329000D03*
X135445500Y-92329000D03*
D15*
X126873000Y-97409000D03*
D16*
X126873000Y-94869000D03*
X126873000Y-92329000D03*
X126873000Y-89789000D03*
D15*
X167259000Y-71120000D03*
D16*
X167259000Y-68580000D03*
X167259000Y-66040000D03*
X167259000Y-63500000D03*
D13*
X178244500Y-60960000D03*
D14*
X175704500Y-60960000D03*
X178244500Y-63500000D03*
X175704500Y-63500000D03*
X178244500Y-66040000D03*
X175704500Y-66040000D03*
D13*
X112014000Y-60960000D03*
D14*
X109474000Y-60960000D03*
X112014000Y-63500000D03*
X109474000Y-63500000D03*
X112014000Y-66040000D03*
X109474000Y-66040000D03*
D15*
X100838000Y-71120000D03*
D16*
X100838000Y-68580000D03*
X100838000Y-66040000D03*
X100838000Y-63500000D03*
D13*
X137795000Y-74549000D03*
D14*
X140335000Y-74549000D03*
X137795000Y-72009000D03*
X140335000Y-72009000D03*
X137795000Y-69469000D03*
X140335000Y-69469000D03*
D13*
X140335000Y-60071000D03*
D14*
X137795000Y-60071000D03*
X140335000Y-62611000D03*
X137795000Y-62611000D03*
X140335000Y-65151000D03*
X137795000Y-65151000D03*
D17*
X106934000Y-89578000D03*
D18*
X106934000Y-84328000D03*
D17*
X106934000Y-111104500D03*
D18*
X106934000Y-105854500D03*
D13*
X181991000Y-125476000D03*
D14*
X184531000Y-125476000D03*
X181991000Y-122936000D03*
X184531000Y-122936000D03*
X181991000Y-120396000D03*
X184531000Y-120396000D03*
X181991000Y-117856000D03*
X184531000Y-117856000D03*
X181991000Y-115316000D03*
X184531000Y-115316000D03*
D13*
X181991000Y-109093000D03*
D14*
X184531000Y-109093000D03*
X181991000Y-106553000D03*
X184531000Y-106553000D03*
X181991000Y-104013000D03*
X184531000Y-104013000D03*
X181991000Y-101473000D03*
X184531000Y-101473000D03*
X181991000Y-98933000D03*
X184531000Y-98933000D03*
D13*
X181991000Y-92837000D03*
D14*
X184531000Y-92837000D03*
X181991000Y-90297000D03*
X184531000Y-90297000D03*
X181991000Y-87757000D03*
X184531000Y-87757000D03*
X181991000Y-85217000D03*
X184531000Y-85217000D03*
X181991000Y-82677000D03*
X184531000Y-82677000D03*
D19*
X148844000Y-127000000D03*
D20*
X151384000Y-127000000D03*
X153924000Y-127000000D03*
X156464000Y-127000000D03*
X159004000Y-127000000D03*
X161544000Y-127000000D03*
D21*
X122682000Y-109200000D03*
D22*
X122682000Y-106660000D03*
X122682000Y-104120000D03*
X122682000Y-101580000D03*
X122682000Y-99040000D03*
X122682000Y-96500000D03*
X122682000Y-93960000D03*
X122682000Y-91420000D03*
D21*
X122682000Y-127000000D03*
D22*
X122682000Y-124460000D03*
X122682000Y-121920000D03*
X122682000Y-119380000D03*
X122682000Y-116840000D03*
X122682000Y-114300000D03*
D21*
X171182000Y-104656000D03*
D22*
X171182000Y-102116000D03*
X171182000Y-99576000D03*
X171182000Y-97036000D03*
X171182000Y-94496000D03*
X171182000Y-91956000D03*
X171182000Y-89416000D03*
X171182000Y-86876000D03*
X171182000Y-84336000D03*
X171182000Y-81796000D03*
D23*
X156718000Y-138998000D03*
D24*
X155448000Y-142748000D03*
X152908000Y-142748000D03*
X150368000Y-142748000D03*
D23*
X149098000Y-138998000D03*
X171196000Y-138998000D03*
D24*
X169926000Y-142748000D03*
X167386000Y-142748000D03*
X164846000Y-142748000D03*
D23*
X163576000Y-138998000D03*
X185674000Y-138998000D03*
D24*
X184404000Y-142748000D03*
X181864000Y-142748000D03*
X179324000Y-142748000D03*
D23*
X178054000Y-138998000D03*
D21*
X171182000Y-127000000D03*
D22*
X171182000Y-124460000D03*
X171182000Y-121920000D03*
X171182000Y-119380000D03*
X171182000Y-116840000D03*
X171182000Y-114300000D03*
X171182000Y-111760000D03*
X171182000Y-109220000D03*
D25*
X114363500Y-109410500D03*
D26*
X114363500Y-111950500D03*
D23*
X113347500Y-138998000D03*
D24*
X112077500Y-142748000D03*
X109537500Y-142748000D03*
X106997500Y-142748000D03*
D23*
X105727500Y-138998000D03*
X127571500Y-138998000D03*
D24*
X126301500Y-142748000D03*
X123761500Y-142748000D03*
X121221500Y-142748000D03*
D23*
X119951500Y-138998000D03*
X142176500Y-138998000D03*
D24*
X140906500Y-142748000D03*
X138366500Y-142748000D03*
X135826500Y-142748000D03*
D23*
X134556500Y-138998000D03*
M02*
