G04 #@! TF.FileFunction,Soldermask,Top*
%FSLAX46Y46*%
G04 Gerber Fmt 4.6, Leading zero omitted, Abs format (unit mm)*
G04 Created by KiCad (PCBNEW 4.0.0-rc1-stable) date 28.10.2015 10:15:14*
%MOMM*%
G01*
G04 APERTURE LIST*
%ADD10C,0.150000*%
%ADD11C,2.100000*%
%ADD12R,2.100000X2.100000*%
%ADD13R,0.849580X1.400000*%
%ADD14R,1.400000X0.849580*%
%ADD15R,2.127200X2.127200*%
%ADD16O,2.127200X2.127200*%
%ADD17R,1.100000X3.100000*%
%ADD18R,2.432000X2.127200*%
%ADD19O,2.432000X2.127200*%
%ADD20R,1.150000X1.600000*%
%ADD21R,1.600000X1.150000*%
%ADD22R,1.901140X3.100020*%
%ADD23R,2.000000X3.900000*%
%ADD24C,2.900000*%
%ADD25R,2.900000X2.900000*%
%ADD26R,2.127200X2.432000*%
%ADD27O,2.127200X2.432000*%
%ADD28R,2.900000X2.127200*%
%ADD29O,2.900000X2.127200*%
%ADD30R,2.200000X2.400000*%
%ADD31C,3.400000*%
%ADD32C,2.000000*%
%ADD33R,2.550000X1.350000*%
%ADD34R,2.550000X3.650000*%
%ADD35R,3.399740X1.901140*%
%ADD36R,1.901140X3.399740*%
%ADD37R,2.432000X2.432000*%
%ADD38O,2.432000X2.432000*%
G04 APERTURE END LIST*
D10*
D11*
X170919000Y-60960000D03*
X170919000Y-58420000D03*
X170919000Y-63500000D03*
X170919000Y-66040000D03*
X170919000Y-68580000D03*
X170919000Y-71120000D03*
X170919000Y-73660000D03*
X170919000Y-76200000D03*
D12*
X183769000Y-76200000D03*
D11*
X183769000Y-73660000D03*
X183769000Y-71120000D03*
X183769000Y-68580000D03*
X183769000Y-66040000D03*
X183769000Y-63500000D03*
X183769000Y-58420000D03*
X183769000Y-60960000D03*
X130533000Y-87249000D03*
X130533000Y-84709000D03*
X130533000Y-89789000D03*
X130533000Y-92329000D03*
X130533000Y-94869000D03*
X130533000Y-97409000D03*
X130533000Y-99949000D03*
X130533000Y-102489000D03*
D12*
X143383000Y-102489000D03*
D11*
X143383000Y-99949000D03*
X143383000Y-97409000D03*
X143383000Y-94869000D03*
X143383000Y-92329000D03*
X143383000Y-89789000D03*
X143383000Y-84709000D03*
X143383000Y-87249000D03*
X150726000Y-87185500D03*
X150726000Y-84645500D03*
X150726000Y-89725500D03*
X150726000Y-92265500D03*
X150726000Y-94805500D03*
X150726000Y-97345500D03*
X150726000Y-99885500D03*
X150726000Y-102425500D03*
D12*
X163576000Y-102425500D03*
D11*
X163576000Y-99885500D03*
X163576000Y-97345500D03*
X163576000Y-94805500D03*
X163576000Y-92265500D03*
X163576000Y-89725500D03*
X163576000Y-84645500D03*
X163576000Y-87185500D03*
X104498000Y-60960000D03*
X104498000Y-58420000D03*
X104498000Y-63500000D03*
X104498000Y-66040000D03*
X104498000Y-68580000D03*
X104498000Y-71120000D03*
X104498000Y-73660000D03*
X104498000Y-76200000D03*
D12*
X117348000Y-76200000D03*
D11*
X117348000Y-73660000D03*
X117348000Y-71120000D03*
X117348000Y-68580000D03*
X117348000Y-66040000D03*
X117348000Y-63500000D03*
X117348000Y-58420000D03*
X117348000Y-60960000D03*
D13*
X141668500Y-122364500D03*
X142466060Y-122364500D03*
X143266160Y-122364500D03*
X144066260Y-122364500D03*
X144866360Y-122364500D03*
X145666460Y-122364500D03*
X146466560Y-122364500D03*
X147266660Y-122364500D03*
X148066760Y-122364500D03*
X148866860Y-122364500D03*
X149666960Y-122364500D03*
D14*
X151668480Y-120365520D03*
X151668480Y-119565420D03*
X151668480Y-118765320D03*
X151668480Y-117965220D03*
X151668480Y-117165120D03*
X151668480Y-116365020D03*
X151668480Y-115564920D03*
X151668480Y-114764820D03*
X151668480Y-113964720D03*
X151668480Y-113164620D03*
X151668480Y-112364520D03*
D13*
X149666960Y-110365540D03*
X148866860Y-110365540D03*
X148066760Y-110365540D03*
X147266660Y-110365540D03*
X146466560Y-110365540D03*
X145666460Y-110365540D03*
X144866360Y-110365540D03*
X144066260Y-110365540D03*
X143266160Y-110365540D03*
X142466060Y-110365540D03*
X141668500Y-110365540D03*
D14*
X139669520Y-112364520D03*
X139669520Y-113164620D03*
X139669520Y-113964720D03*
X139669520Y-114764820D03*
X139669520Y-115564920D03*
X139669520Y-116365020D03*
X139669520Y-117165120D03*
X139669520Y-117965220D03*
X139669520Y-118765320D03*
X139669520Y-119565420D03*
X139669520Y-120365520D03*
D15*
X116459000Y-53213000D03*
D16*
X116459000Y-50673000D03*
X113919000Y-53213000D03*
X113919000Y-50673000D03*
X111379000Y-53213000D03*
X111379000Y-50673000D03*
X108839000Y-53213000D03*
X108839000Y-50673000D03*
X106299000Y-53213000D03*
X106299000Y-50673000D03*
D15*
X140335000Y-50546000D03*
D16*
X137795000Y-50546000D03*
X140335000Y-53086000D03*
X137795000Y-53086000D03*
X140335000Y-55626000D03*
X137795000Y-55626000D03*
D17*
X156781500Y-96374500D03*
X156781500Y-100774500D03*
D15*
X158432500Y-87185500D03*
D16*
X155892500Y-87185500D03*
X158432500Y-89725500D03*
X155892500Y-89725500D03*
X158432500Y-92265500D03*
X155892500Y-92265500D03*
D18*
X147193000Y-97345500D03*
D19*
X147193000Y-94805500D03*
X147193000Y-92265500D03*
X147193000Y-89725500D03*
D17*
X136779000Y-96247500D03*
X136779000Y-100647500D03*
D15*
X137985500Y-87249000D03*
D16*
X135445500Y-87249000D03*
X137985500Y-89789000D03*
X135445500Y-89789000D03*
X137985500Y-92329000D03*
X135445500Y-92329000D03*
D18*
X126873000Y-97409000D03*
D19*
X126873000Y-94869000D03*
X126873000Y-92329000D03*
X126873000Y-89789000D03*
D18*
X167259000Y-71120000D03*
D19*
X167259000Y-68580000D03*
X167259000Y-66040000D03*
X167259000Y-63500000D03*
D15*
X178244500Y-60960000D03*
D16*
X175704500Y-60960000D03*
X178244500Y-63500000D03*
X175704500Y-63500000D03*
X178244500Y-66040000D03*
X175704500Y-66040000D03*
D17*
X177292000Y-69895000D03*
X177292000Y-74295000D03*
X110617000Y-69768000D03*
X110617000Y-74168000D03*
D15*
X112014000Y-60960000D03*
D16*
X109474000Y-60960000D03*
X112014000Y-63500000D03*
X109474000Y-63500000D03*
X112014000Y-66040000D03*
X109474000Y-66040000D03*
D18*
X100838000Y-71120000D03*
D19*
X100838000Y-68580000D03*
X100838000Y-66040000D03*
X100838000Y-63500000D03*
D15*
X137795000Y-74549000D03*
D16*
X140335000Y-74549000D03*
X137795000Y-72009000D03*
X140335000Y-72009000D03*
X137795000Y-69469000D03*
X140335000Y-69469000D03*
D15*
X140335000Y-60071000D03*
D16*
X137795000Y-60071000D03*
X140335000Y-62611000D03*
X137795000Y-62611000D03*
X140335000Y-65151000D03*
X137795000Y-65151000D03*
D20*
X136017000Y-113154500D03*
X136017000Y-111254500D03*
D21*
X167388500Y-132461000D03*
X169288500Y-132461000D03*
X149545000Y-107378500D03*
X151445000Y-107378500D03*
X157800000Y-118237000D03*
X159700000Y-118237000D03*
X181866500Y-132397500D03*
X183766500Y-132397500D03*
X130939500Y-128397000D03*
X132839500Y-128397000D03*
X152910500Y-132334000D03*
X154810500Y-132334000D03*
X138935500Y-132334000D03*
X137035500Y-132334000D03*
X124267000Y-132334000D03*
X122367000Y-132334000D03*
D22*
X113677700Y-80454500D03*
X118478300Y-80454500D03*
D23*
X118579900Y-85598000D03*
X113703100Y-85598000D03*
D24*
X106934000Y-89578000D03*
D25*
X106934000Y-84328000D03*
D24*
X106934000Y-111104500D03*
D25*
X106934000Y-105854500D03*
D15*
X181991000Y-125476000D03*
D16*
X184531000Y-125476000D03*
X181991000Y-122936000D03*
X184531000Y-122936000D03*
X181991000Y-120396000D03*
X184531000Y-120396000D03*
X181991000Y-117856000D03*
X184531000Y-117856000D03*
X181991000Y-115316000D03*
X184531000Y-115316000D03*
D15*
X181991000Y-109093000D03*
D16*
X184531000Y-109093000D03*
X181991000Y-106553000D03*
X184531000Y-106553000D03*
X181991000Y-104013000D03*
X184531000Y-104013000D03*
X181991000Y-101473000D03*
X184531000Y-101473000D03*
X181991000Y-98933000D03*
X184531000Y-98933000D03*
D15*
X181991000Y-92837000D03*
D16*
X184531000Y-92837000D03*
X181991000Y-90297000D03*
X184531000Y-90297000D03*
X181991000Y-87757000D03*
X184531000Y-87757000D03*
X181991000Y-85217000D03*
X184531000Y-85217000D03*
X181991000Y-82677000D03*
X184531000Y-82677000D03*
D26*
X148844000Y-127000000D03*
D27*
X151384000Y-127000000D03*
X153924000Y-127000000D03*
X156464000Y-127000000D03*
X159004000Y-127000000D03*
X161544000Y-127000000D03*
D28*
X122682000Y-109200000D03*
D29*
X122682000Y-106660000D03*
X122682000Y-104120000D03*
X122682000Y-101580000D03*
X122682000Y-99040000D03*
X122682000Y-96500000D03*
X122682000Y-93960000D03*
X122682000Y-91420000D03*
D28*
X122682000Y-127000000D03*
D29*
X122682000Y-124460000D03*
X122682000Y-121920000D03*
X122682000Y-119380000D03*
X122682000Y-116840000D03*
X122682000Y-114300000D03*
D28*
X171182000Y-104656000D03*
D29*
X171182000Y-102116000D03*
X171182000Y-99576000D03*
X171182000Y-97036000D03*
X171182000Y-94496000D03*
X171182000Y-91956000D03*
X171182000Y-89416000D03*
X171182000Y-86876000D03*
X171182000Y-84336000D03*
X171182000Y-81796000D03*
D30*
X130937000Y-121285500D03*
X136017000Y-121285500D03*
X136017000Y-125285500D03*
X130937000Y-125285500D03*
D31*
X156718000Y-138998000D03*
D32*
X155448000Y-142748000D03*
X152908000Y-142748000D03*
X150368000Y-142748000D03*
D31*
X149098000Y-138998000D03*
X171196000Y-138998000D03*
D32*
X169926000Y-142748000D03*
X167386000Y-142748000D03*
X164846000Y-142748000D03*
D31*
X163576000Y-138998000D03*
X185674000Y-138998000D03*
D32*
X184404000Y-142748000D03*
X181864000Y-142748000D03*
X179324000Y-142748000D03*
D31*
X178054000Y-138998000D03*
D33*
X110363000Y-95299500D03*
X110363000Y-99899500D03*
X110363000Y-97599500D03*
D34*
X104563000Y-97599500D03*
D28*
X171182000Y-127000000D03*
D29*
X171182000Y-124460000D03*
X171182000Y-121920000D03*
X171182000Y-119380000D03*
X171182000Y-116840000D03*
X171182000Y-114300000D03*
X171182000Y-111760000D03*
X171182000Y-109220000D03*
D21*
X109471500Y-132334000D03*
X107571500Y-132334000D03*
D35*
X112869980Y-129032000D03*
X108872020Y-129032000D03*
X107792520Y-116903500D03*
X111790480Y-116903500D03*
D36*
X114363500Y-98902520D03*
X114363500Y-102900480D03*
D37*
X114363500Y-109410500D03*
D38*
X114363500Y-111950500D03*
D33*
X113411000Y-120509000D03*
X113411000Y-125109000D03*
X113411000Y-122809000D03*
D34*
X107611000Y-122809000D03*
D31*
X113347500Y-138998000D03*
D32*
X112077500Y-142748000D03*
X109537500Y-142748000D03*
X106997500Y-142748000D03*
D31*
X105727500Y-138998000D03*
X127571500Y-138998000D03*
D32*
X126301500Y-142748000D03*
X123761500Y-142748000D03*
X121221500Y-142748000D03*
D31*
X119951500Y-138998000D03*
X142176500Y-138998000D03*
D32*
X140906500Y-142748000D03*
X138366500Y-142748000D03*
X135826500Y-142748000D03*
D31*
X134556500Y-138998000D03*
D17*
X116268500Y-90469000D03*
X116268500Y-94869000D03*
M02*
