M48
;DRILL file {KiCad 4.0.0-rc1-stable} date 28.10.2015 10:16:16
;FORMAT={2:4/ absolute / inch / keep zeros}
FMAT,2
INCH,TZ
T1C0.020
T2C0.024
T3C0.031
T4C0.035
T5C0.040
T6C0.049
T7C0.102
%
G90
G05
M72
T1
X042400Y-039300
X042722Y-022586
X042863Y-049888
X044395Y-022822
X045900Y-038950
X047550Y-033700
X047900Y-026200
X047900Y-031650
X048300Y-023975
X048900Y-035100
X049200Y-025800
X049200Y-033250
X049650Y-041950
X049900Y-025900
X049900Y-033250
X050250Y-023650
X050275Y-050400
X050400Y-034550
X050400Y-043800
X050793Y-031248
X050950Y-054000
X051925Y-023875
X051934Y-031031
X052092Y-028196
X052300Y-032375
X052675Y-044550
X052800Y-043800
X053150Y-039650
X053200Y-032300
X054250Y-033350
X054450Y-030800
X054600Y-049300
X054650Y-038800
X054887Y-042586
X054950Y-032650
X055300Y-049397
X055600Y-032550
X055773Y-047291
X055850Y-045400
X055930Y-049378
X056250Y-030000
X056836Y-042586
X056954Y-047114
X056993Y-044279
X057190Y-049141
X057289Y-045500
X057407Y-027862
X057584Y-045067
X057840Y-047350
X058056Y-044594
X058225Y-049050
X058425Y-041000
X058603Y-047453
X058650Y-045550
X058706Y-044456
X058825Y-042275
X059611Y-025657
X060350Y-030800
X060350Y-042300
X061400Y-032350
X062125Y-047075
X062200Y-041700
X062300Y-031650
X063100Y-031350
X063550Y-046550
X064395Y-041208
X064592Y-048787
X065025Y-031149
X065400Y-045498
X066107Y-039437
X068275Y-038700
X068750Y-033825
X068750Y-035550
X069250Y-041950
X069474Y-049004
X069769Y-032842
X069769Y-034555
X070325Y-040950
X070694Y-032842
X070694Y-035106
X070900Y-040200
X071225Y-029500
T2
X042750Y-029200
X057400Y-039925
T3
X042125Y-056200
X043125Y-056200
X044125Y-056200
X047725Y-056200
X048725Y-056200
X049725Y-056200
X053475Y-056200
X054475Y-056200
X055475Y-056200
X059200Y-056200
X060200Y-056200
X061200Y-056200
X064900Y-056200
X065900Y-056200
X066900Y-056200
X070600Y-056200
X071600Y-056200
X072600Y-056200
T4
X041141Y-023000
X041141Y-024000
X041141Y-025000
X041141Y-026000
X041141Y-027000
X041141Y-028000
X041141Y-029000
X041141Y-030000
X046200Y-023000
X046200Y-024000
X046200Y-025000
X046200Y-026000
X046200Y-027000
X046200Y-028000
X046200Y-029000
X046200Y-030000
X051391Y-033350
X051391Y-034350
X051391Y-035350
X051391Y-036350
X051391Y-037350
X051391Y-038350
X051391Y-039350
X051391Y-040350
X056450Y-033350
X056450Y-034350
X056450Y-035350
X056450Y-036350
X056450Y-037350
X056450Y-038350
X056450Y-039350
X056450Y-040350
X059341Y-033325
X059341Y-034325
X059341Y-035325
X059341Y-036325
X059341Y-037325
X059341Y-038325
X059341Y-039325
X059341Y-040325
X064400Y-033325
X064400Y-034325
X064400Y-035325
X064400Y-036325
X064400Y-037325
X064400Y-038325
X064400Y-039325
X064400Y-040325
X067291Y-023000
X067291Y-024000
X067291Y-025000
X067291Y-026000
X067291Y-027000
X067291Y-028000
X067291Y-029000
X067291Y-030000
X072350Y-023000
X072350Y-024000
X072350Y-025000
X072350Y-026000
X072350Y-027000
X072350Y-028000
X072350Y-029000
X072350Y-030000
T5
X039700Y-025000
X039700Y-026000
X039700Y-027000
X039700Y-028000
X041850Y-019950
X041850Y-020950
X042850Y-019950
X042850Y-020950
X043100Y-024000
X043100Y-025000
X043100Y-026000
X043850Y-019950
X043850Y-020950
X044100Y-024000
X044100Y-025000
X044100Y-026000
X044850Y-019950
X044850Y-020950
X045025Y-043075
X045025Y-044075
X045850Y-019950
X045850Y-020950
X048300Y-035992
X048300Y-036992
X048300Y-037992
X048300Y-038992
X048300Y-039992
X048300Y-040992
X048300Y-041992
X048300Y-042992
X048300Y-045000
X048300Y-046000
X048300Y-047000
X048300Y-048000
X048300Y-049000
X048300Y-050000
X049950Y-035350
X049950Y-036350
X049950Y-037350
X049950Y-038350
X053325Y-034350
X053325Y-035350
X053325Y-036350
X054250Y-019900
X054250Y-020900
X054250Y-021900
X054250Y-023650
X054250Y-024650
X054250Y-025650
X054250Y-027350
X054250Y-028350
X054250Y-029350
X054325Y-034350
X054325Y-035350
X054325Y-036350
X055250Y-019900
X055250Y-020900
X055250Y-021900
X055250Y-023650
X055250Y-024650
X055250Y-025650
X055250Y-027350
X055250Y-028350
X055250Y-029350
X057950Y-035325
X057950Y-036325
X057950Y-037325
X057950Y-038325
X058600Y-050000
X059600Y-050000
X060600Y-050000
X061375Y-034325
X061375Y-035325
X061375Y-036325
X061600Y-050000
X062375Y-034325
X062375Y-035325
X062375Y-036325
X062600Y-050000
X063600Y-050000
X065850Y-025000
X065850Y-026000
X065850Y-027000
X065850Y-028000
X067394Y-032203
X067394Y-033203
X067394Y-034203
X067394Y-035203
X067394Y-036203
X067394Y-037203
X067394Y-038203
X067394Y-039203
X067394Y-040203
X067394Y-041203
X067394Y-043000
X067394Y-044000
X067394Y-045000
X067394Y-046000
X067394Y-047000
X067394Y-048000
X067394Y-049000
X067394Y-050000
X069175Y-024000
X069175Y-025000
X069175Y-026000
X070175Y-024000
X070175Y-025000
X070175Y-026000
X071650Y-032550
X071650Y-033550
X071650Y-034550
X071650Y-035550
X071650Y-036550
X071650Y-038950
X071650Y-039950
X071650Y-040950
X071650Y-041950
X071650Y-042950
X071650Y-045400
X071650Y-046400
X071650Y-047400
X071650Y-048400
X071650Y-049400
X072650Y-032550
X072650Y-033550
X072650Y-034550
X072650Y-035550
X072650Y-036550
X072650Y-038950
X072650Y-039950
X072650Y-040950
X072650Y-041950
X072650Y-042950
X072650Y-045400
X072650Y-046400
X072650Y-047400
X072650Y-048400
X072650Y-049400
T6
X042100Y-033200
X042100Y-035267
X042100Y-041675
X042100Y-043742
T7
X041625Y-054724
X044625Y-054724
X047225Y-054724
X050225Y-054724
X052975Y-054724
X055975Y-054724
X058700Y-054724
X061700Y-054724
X064400Y-054724
X067400Y-054724
X070100Y-054724
X073100Y-054724
T0
M30
