G04 #@! TF.FileFunction,Legend,Top*
%FSLAX46Y46*%
G04 Gerber Fmt 4.6, Leading zero omitted, Abs format (unit mm)*
G04 Created by KiCad (PCBNEW 4.0.0-rc1-stable) date 28.10.2015 10:15:14*
%MOMM*%
G01*
G04 APERTURE LIST*
%ADD10C,0.150000*%
%ADD11C,0.300000*%
%ADD12C,0.250000*%
%ADD13C,0.304800*%
G04 APERTURE END LIST*
D10*
D11*
X173867071Y-140604642D02*
X173867071Y-139747499D01*
X175367071Y-140176070D02*
X173867071Y-140176070D01*
X173867071Y-139390356D02*
X175367071Y-138390356D01*
X173867071Y-138390356D02*
X175367071Y-139390356D01*
X173867071Y-137961785D02*
X173867071Y-137033214D01*
X174438500Y-137533214D01*
X174438500Y-137318928D01*
X174509929Y-137176071D01*
X174581357Y-137104642D01*
X174724214Y-137033214D01*
X175081357Y-137033214D01*
X175224214Y-137104642D01*
X175295643Y-137176071D01*
X175367071Y-137318928D01*
X175367071Y-137747500D01*
X175295643Y-137890357D01*
X175224214Y-137961785D01*
X159389071Y-140731642D02*
X159389071Y-139874499D01*
X160889071Y-140303070D02*
X159389071Y-140303070D01*
X159389071Y-139517356D02*
X160889071Y-138517356D01*
X159389071Y-138517356D02*
X160889071Y-139517356D01*
X159531929Y-138017357D02*
X159460500Y-137945928D01*
X159389071Y-137803071D01*
X159389071Y-137445928D01*
X159460500Y-137303071D01*
X159531929Y-137231642D01*
X159674786Y-137160214D01*
X159817643Y-137160214D01*
X160031929Y-137231642D01*
X160889071Y-138088785D01*
X160889071Y-137160214D01*
X144911071Y-140858642D02*
X144911071Y-140001499D01*
X146411071Y-140430070D02*
X144911071Y-140430070D01*
X144911071Y-139644356D02*
X146411071Y-138644356D01*
X144911071Y-138644356D02*
X146411071Y-139644356D01*
X146411071Y-137287214D02*
X146411071Y-138144357D01*
X146411071Y-137715785D02*
X144911071Y-137715785D01*
X145125357Y-137858642D01*
X145268214Y-138001500D01*
X145339643Y-138144357D01*
X131742571Y-139965785D02*
X131028286Y-140465785D01*
X131742571Y-140822928D02*
X130242571Y-140822928D01*
X130242571Y-140251500D01*
X130314000Y-140108642D01*
X130385429Y-140037214D01*
X130528286Y-139965785D01*
X130742571Y-139965785D01*
X130885429Y-140037214D01*
X130956857Y-140108642D01*
X131028286Y-140251500D01*
X131028286Y-140822928D01*
X130242571Y-139465785D02*
X131742571Y-138465785D01*
X130242571Y-138465785D02*
X131742571Y-139465785D01*
X130242571Y-138037214D02*
X130242571Y-137108643D01*
X130814000Y-137608643D01*
X130814000Y-137394357D01*
X130885429Y-137251500D01*
X130956857Y-137180071D01*
X131099714Y-137108643D01*
X131456857Y-137108643D01*
X131599714Y-137180071D01*
X131671143Y-137251500D01*
X131742571Y-137394357D01*
X131742571Y-137822929D01*
X131671143Y-137965786D01*
X131599714Y-138037214D01*
X117328071Y-139965785D02*
X116613786Y-140465785D01*
X117328071Y-140822928D02*
X115828071Y-140822928D01*
X115828071Y-140251500D01*
X115899500Y-140108642D01*
X115970929Y-140037214D01*
X116113786Y-139965785D01*
X116328071Y-139965785D01*
X116470929Y-140037214D01*
X116542357Y-140108642D01*
X116613786Y-140251500D01*
X116613786Y-140822928D01*
X115828071Y-139465785D02*
X117328071Y-138465785D01*
X115828071Y-138465785D02*
X117328071Y-139465785D01*
X115970929Y-137965786D02*
X115899500Y-137894357D01*
X115828071Y-137751500D01*
X115828071Y-137394357D01*
X115899500Y-137251500D01*
X115970929Y-137180071D01*
X116113786Y-137108643D01*
X116256643Y-137108643D01*
X116470929Y-137180071D01*
X117328071Y-138037214D01*
X117328071Y-137108643D01*
X103231071Y-139902285D02*
X102516786Y-140402285D01*
X103231071Y-140759428D02*
X101731071Y-140759428D01*
X101731071Y-140188000D01*
X101802500Y-140045142D01*
X101873929Y-139973714D01*
X102016786Y-139902285D01*
X102231071Y-139902285D01*
X102373929Y-139973714D01*
X102445357Y-140045142D01*
X102516786Y-140188000D01*
X102516786Y-140759428D01*
X101731071Y-139402285D02*
X103231071Y-138402285D01*
X101731071Y-138402285D02*
X103231071Y-139402285D01*
X103231071Y-137045143D02*
X103231071Y-137902286D01*
X103231071Y-137473714D02*
X101731071Y-137473714D01*
X101945357Y-137616571D01*
X102088214Y-137759429D01*
X102159643Y-137902286D01*
X120951715Y-52506500D02*
X122380286Y-52506500D01*
X120666000Y-53363643D02*
X121666000Y-50363643D01*
X122666000Y-53363643D01*
X176220643Y-81962500D02*
X176220643Y-79962500D01*
X179220643Y-81962500D01*
X179220643Y-79962500D01*
X178109571Y-97790000D02*
X179538143Y-97790000D01*
X176538143Y-98790000D02*
X178109571Y-97790000D01*
X176538143Y-96790000D01*
X176411143Y-115490500D02*
X179411143Y-113490500D01*
X176411143Y-113490500D02*
X179411143Y-115490500D01*
X159582072Y-129136857D02*
X160324929Y-129136857D01*
X159924929Y-129594000D01*
X160096357Y-129594000D01*
X160210643Y-129651143D01*
X160267786Y-129708286D01*
X160324929Y-129822571D01*
X160324929Y-130108286D01*
X160267786Y-130222571D01*
X160210643Y-130279714D01*
X160096357Y-130336857D01*
X159753500Y-130336857D01*
X159639214Y-130279714D01*
X159582072Y-130222571D01*
X160839214Y-130222571D02*
X160896357Y-130279714D01*
X160839214Y-130336857D01*
X160782071Y-130279714D01*
X160839214Y-130222571D01*
X160839214Y-130336857D01*
X161296358Y-129136857D02*
X162039215Y-129136857D01*
X161639215Y-129594000D01*
X161810643Y-129594000D01*
X161924929Y-129651143D01*
X161982072Y-129708286D01*
X162039215Y-129822571D01*
X162039215Y-130108286D01*
X161982072Y-130222571D01*
X161924929Y-130279714D01*
X161810643Y-130336857D01*
X161467786Y-130336857D01*
X161353500Y-130279714D01*
X161296358Y-130222571D01*
X162382072Y-129136857D02*
X162782072Y-130336857D01*
X163182072Y-129136857D01*
X158026215Y-123733000D02*
X157911929Y-123675857D01*
X157740500Y-123675857D01*
X157569072Y-123733000D01*
X157454786Y-123847286D01*
X157397643Y-123961571D01*
X157340500Y-124190143D01*
X157340500Y-124361571D01*
X157397643Y-124590143D01*
X157454786Y-124704429D01*
X157569072Y-124818714D01*
X157740500Y-124875857D01*
X157854786Y-124875857D01*
X158026215Y-124818714D01*
X158083358Y-124761571D01*
X158083358Y-124361571D01*
X157854786Y-124361571D01*
X158597643Y-124875857D02*
X158597643Y-123675857D01*
X159283358Y-124875857D01*
X159283358Y-123675857D01*
X159854786Y-124875857D02*
X159854786Y-123675857D01*
X160140501Y-123675857D01*
X160311929Y-123733000D01*
X160426215Y-123847286D01*
X160483358Y-123961571D01*
X160540501Y-124190143D01*
X160540501Y-124361571D01*
X160483358Y-124590143D01*
X160426215Y-124704429D01*
X160311929Y-124818714D01*
X160140501Y-124875857D01*
X159854786Y-124875857D01*
X154921143Y-129136857D02*
X155606857Y-129136857D01*
X155264000Y-130336857D02*
X155264000Y-129136857D01*
X156692572Y-130222571D02*
X156635429Y-130279714D01*
X156464000Y-130336857D01*
X156349714Y-130336857D01*
X156178286Y-130279714D01*
X156064000Y-130165429D01*
X156006857Y-130051143D01*
X155949714Y-129822571D01*
X155949714Y-129651143D01*
X156006857Y-129422571D01*
X156064000Y-129308286D01*
X156178286Y-129194000D01*
X156349714Y-129136857D01*
X156464000Y-129136857D01*
X156635429Y-129194000D01*
X156692572Y-129251143D01*
X157206857Y-130336857D02*
X157206857Y-129136857D01*
X157892572Y-130336857D02*
X157378286Y-129651143D01*
X157892572Y-129136857D02*
X157206857Y-129822571D01*
X152225572Y-123675857D02*
X152911286Y-123675857D01*
X152568429Y-124875857D02*
X152568429Y-123675857D01*
X153311286Y-124875857D02*
X153311286Y-123675857D01*
X153597001Y-123675857D01*
X153768429Y-123733000D01*
X153882715Y-123847286D01*
X153939858Y-123961571D01*
X153997001Y-124190143D01*
X153997001Y-124361571D01*
X153939858Y-124590143D01*
X153882715Y-124704429D01*
X153768429Y-124818714D01*
X153597001Y-124875857D01*
X153311286Y-124875857D01*
X154739858Y-123675857D02*
X154968429Y-123675857D01*
X155082715Y-123733000D01*
X155197001Y-123847286D01*
X155254143Y-124075857D01*
X155254143Y-124475857D01*
X155197001Y-124704429D01*
X155082715Y-124818714D01*
X154968429Y-124875857D01*
X154739858Y-124875857D01*
X154625572Y-124818714D01*
X154511286Y-124704429D01*
X154454143Y-124475857D01*
X154454143Y-124075857D01*
X154511286Y-123847286D01*
X154625572Y-123733000D01*
X154739858Y-123675857D01*
X150218929Y-129200357D02*
X150904643Y-129200357D01*
X150561786Y-130400357D02*
X150561786Y-129200357D01*
X151304643Y-130400357D02*
X151304643Y-129200357D01*
X151590358Y-129200357D01*
X151761786Y-129257500D01*
X151876072Y-129371786D01*
X151933215Y-129486071D01*
X151990358Y-129714643D01*
X151990358Y-129886071D01*
X151933215Y-130114643D01*
X151876072Y-130228929D01*
X151761786Y-130343214D01*
X151590358Y-130400357D01*
X151304643Y-130400357D01*
X152504643Y-130400357D02*
X152504643Y-129200357D01*
X146164500Y-129200357D02*
X146850214Y-129200357D01*
X146507357Y-130400357D02*
X146507357Y-129200357D01*
X147250214Y-130400357D02*
X147250214Y-129200357D01*
X147650214Y-130057500D01*
X148050214Y-129200357D01*
X148050214Y-130400357D01*
X148564500Y-130343214D02*
X148735929Y-130400357D01*
X149021643Y-130400357D01*
X149135929Y-130343214D01*
X149193072Y-130286071D01*
X149250215Y-130171786D01*
X149250215Y-130057500D01*
X149193072Y-129943214D01*
X149135929Y-129886071D01*
X149021643Y-129828929D01*
X148793072Y-129771786D01*
X148678786Y-129714643D01*
X148621643Y-129657500D01*
X148564500Y-129543214D01*
X148564500Y-129428929D01*
X148621643Y-129314643D01*
X148678786Y-129257500D01*
X148793072Y-129200357D01*
X149078786Y-129200357D01*
X149250215Y-129257500D01*
X176419000Y-53856143D02*
X178419000Y-53856143D01*
X176419000Y-56856143D01*
X178419000Y-56856143D01*
X157162500Y-82224571D02*
X157162500Y-83653143D01*
X156162500Y-80653143D02*
X157162500Y-82224571D01*
X158162500Y-80653143D01*
X136160000Y-80780143D02*
X138160000Y-83780143D01*
X138160000Y-80780143D02*
X136160000Y-83780143D01*
X121904215Y-66730500D02*
X123332786Y-66730500D01*
X121618500Y-67587643D02*
X122618500Y-64587643D01*
X123618500Y-67587643D01*
X140125571Y-89887357D02*
X140125571Y-88687357D01*
X140525571Y-89544500D01*
X140925571Y-88687357D01*
X140925571Y-89887357D01*
X141725572Y-88687357D02*
X141839857Y-88687357D01*
X141954143Y-88744500D01*
X142011286Y-88801643D01*
X142068429Y-88915929D01*
X142125572Y-89144500D01*
X142125572Y-89430214D01*
X142068429Y-89658786D01*
X142011286Y-89773071D01*
X141954143Y-89830214D01*
X141839857Y-89887357D01*
X141725572Y-89887357D01*
X141611286Y-89830214D01*
X141554143Y-89773071D01*
X141497000Y-89658786D01*
X141439857Y-89430214D01*
X141439857Y-89144500D01*
X141497000Y-88915929D01*
X141554143Y-88801643D01*
X141611286Y-88744500D01*
X141725572Y-88687357D01*
X140125571Y-88172857D02*
X140125571Y-86972857D01*
X140525571Y-87830000D01*
X140925571Y-86972857D01*
X140925571Y-88172857D01*
X142125572Y-88172857D02*
X141439857Y-88172857D01*
X141782715Y-88172857D02*
X141782715Y-86972857D01*
X141668429Y-87144286D01*
X141554143Y-87258571D01*
X141439857Y-87315714D01*
X140125571Y-86458357D02*
X140125571Y-85258357D01*
X140525571Y-86115500D01*
X140925571Y-85258357D01*
X140925571Y-86458357D01*
X141439857Y-85372643D02*
X141497000Y-85315500D01*
X141611286Y-85258357D01*
X141897000Y-85258357D01*
X142011286Y-85315500D01*
X142068429Y-85372643D01*
X142125572Y-85486929D01*
X142125572Y-85601214D01*
X142068429Y-85772643D01*
X141382715Y-86458357D01*
X142125572Y-86458357D01*
X160445571Y-89950857D02*
X160445571Y-88750857D01*
X160845571Y-89608000D01*
X161245571Y-88750857D01*
X161245571Y-89950857D01*
X162045572Y-88750857D02*
X162159857Y-88750857D01*
X162274143Y-88808000D01*
X162331286Y-88865143D01*
X162388429Y-88979429D01*
X162445572Y-89208000D01*
X162445572Y-89493714D01*
X162388429Y-89722286D01*
X162331286Y-89836571D01*
X162274143Y-89893714D01*
X162159857Y-89950857D01*
X162045572Y-89950857D01*
X161931286Y-89893714D01*
X161874143Y-89836571D01*
X161817000Y-89722286D01*
X161759857Y-89493714D01*
X161759857Y-89208000D01*
X161817000Y-88979429D01*
X161874143Y-88865143D01*
X161931286Y-88808000D01*
X162045572Y-88750857D01*
X160445571Y-88236357D02*
X160445571Y-87036357D01*
X160845571Y-87893500D01*
X161245571Y-87036357D01*
X161245571Y-88236357D01*
X162445572Y-88236357D02*
X161759857Y-88236357D01*
X162102715Y-88236357D02*
X162102715Y-87036357D01*
X161988429Y-87207786D01*
X161874143Y-87322071D01*
X161759857Y-87379214D01*
X160445571Y-86521857D02*
X160445571Y-85321857D01*
X160845571Y-86179000D01*
X161245571Y-85321857D01*
X161245571Y-86521857D01*
X161759857Y-85436143D02*
X161817000Y-85379000D01*
X161931286Y-85321857D01*
X162217000Y-85321857D01*
X162331286Y-85379000D01*
X162388429Y-85436143D01*
X162445572Y-85550429D01*
X162445572Y-85664714D01*
X162388429Y-85836143D01*
X161702715Y-86521857D01*
X162445572Y-86521857D01*
X180321071Y-63407857D02*
X180321071Y-62207857D01*
X180721071Y-63065000D01*
X181121071Y-62207857D01*
X181121071Y-63407857D01*
X181921072Y-62207857D02*
X182035357Y-62207857D01*
X182149643Y-62265000D01*
X182206786Y-62322143D01*
X182263929Y-62436429D01*
X182321072Y-62665000D01*
X182321072Y-62950714D01*
X182263929Y-63179286D01*
X182206786Y-63293571D01*
X182149643Y-63350714D01*
X182035357Y-63407857D01*
X181921072Y-63407857D01*
X181806786Y-63350714D01*
X181749643Y-63293571D01*
X181692500Y-63179286D01*
X181635357Y-62950714D01*
X181635357Y-62665000D01*
X181692500Y-62436429D01*
X181749643Y-62322143D01*
X181806786Y-62265000D01*
X181921072Y-62207857D01*
X180321071Y-61756857D02*
X180321071Y-60556857D01*
X180721071Y-61414000D01*
X181121071Y-60556857D01*
X181121071Y-61756857D01*
X182321072Y-61756857D02*
X181635357Y-61756857D01*
X181978215Y-61756857D02*
X181978215Y-60556857D01*
X181863929Y-60728286D01*
X181749643Y-60842571D01*
X181635357Y-60899714D01*
X180321071Y-60169357D02*
X180321071Y-58969357D01*
X180721071Y-59826500D01*
X181121071Y-58969357D01*
X181121071Y-60169357D01*
X181635357Y-59083643D02*
X181692500Y-59026500D01*
X181806786Y-58969357D01*
X182092500Y-58969357D01*
X182206786Y-59026500D01*
X182263929Y-59083643D01*
X182321072Y-59197929D01*
X182321072Y-59312214D01*
X182263929Y-59483643D01*
X181578215Y-60169357D01*
X182321072Y-60169357D01*
X113963571Y-60296357D02*
X113963571Y-59096357D01*
X114363571Y-59953500D01*
X114763571Y-59096357D01*
X114763571Y-60296357D01*
X115277857Y-59210643D02*
X115335000Y-59153500D01*
X115449286Y-59096357D01*
X115735000Y-59096357D01*
X115849286Y-59153500D01*
X115906429Y-59210643D01*
X115963572Y-59324929D01*
X115963572Y-59439214D01*
X115906429Y-59610643D01*
X115220715Y-60296357D01*
X115963572Y-60296357D01*
X113963571Y-61947357D02*
X113963571Y-60747357D01*
X114363571Y-61604500D01*
X114763571Y-60747357D01*
X114763571Y-61947357D01*
X115963572Y-61947357D02*
X115277857Y-61947357D01*
X115620715Y-61947357D02*
X115620715Y-60747357D01*
X115506429Y-60918786D01*
X115392143Y-61033071D01*
X115277857Y-61090214D01*
X113963571Y-63534857D02*
X113963571Y-62334857D01*
X114363571Y-63192000D01*
X114763571Y-62334857D01*
X114763571Y-63534857D01*
X115563572Y-62334857D02*
X115677857Y-62334857D01*
X115792143Y-62392000D01*
X115849286Y-62449143D01*
X115906429Y-62563429D01*
X115963572Y-62792000D01*
X115963572Y-63077714D01*
X115906429Y-63306286D01*
X115849286Y-63420571D01*
X115792143Y-63477714D01*
X115677857Y-63534857D01*
X115563572Y-63534857D01*
X115449286Y-63477714D01*
X115392143Y-63420571D01*
X115335000Y-63306286D01*
X115277857Y-63077714D01*
X115277857Y-62792000D01*
X115335000Y-62563429D01*
X115392143Y-62449143D01*
X115449286Y-62392000D01*
X115563572Y-62334857D01*
X119427572Y-54018571D02*
X118570429Y-54018571D01*
X118999001Y-54018571D02*
X118999001Y-52518571D01*
X118856144Y-52732857D01*
X118713286Y-52875714D01*
X118570429Y-52947143D01*
X182419572Y-96309571D02*
X181562429Y-96309571D01*
X181991001Y-96309571D02*
X181991001Y-94809571D01*
X181848144Y-95023857D01*
X181705286Y-95166714D01*
X181562429Y-95238143D01*
X182419572Y-112565571D02*
X181562429Y-112565571D01*
X181991001Y-112565571D02*
X181991001Y-111065571D01*
X181848144Y-111279857D01*
X181705286Y-111422714D01*
X181562429Y-111494143D01*
X182419572Y-128948571D02*
X181562429Y-128948571D01*
X181991001Y-128948571D02*
X181991001Y-127448571D01*
X181848144Y-127662857D01*
X181705286Y-127805714D01*
X181562429Y-127877143D01*
X99651429Y-88780714D02*
X99580000Y-88709285D01*
X99508571Y-88566428D01*
X99508571Y-88209285D01*
X99580000Y-88066428D01*
X99651429Y-87994999D01*
X99794286Y-87923571D01*
X99937143Y-87923571D01*
X100151429Y-87994999D01*
X101008571Y-88852142D01*
X101008571Y-87923571D01*
X100008571Y-86637857D02*
X101008571Y-86637857D01*
X99437143Y-86995000D02*
X100508571Y-87352143D01*
X100508571Y-86423571D01*
X99508571Y-86066429D02*
X101008571Y-85566429D01*
X99508571Y-85066429D01*
X99572071Y-108934213D02*
X99572071Y-109648499D01*
X100286357Y-109719928D01*
X100214929Y-109648499D01*
X100143500Y-109505642D01*
X100143500Y-109148499D01*
X100214929Y-109005642D01*
X100286357Y-108934213D01*
X100429214Y-108862785D01*
X100786357Y-108862785D01*
X100929214Y-108934213D01*
X101000643Y-109005642D01*
X101072071Y-109148499D01*
X101072071Y-109505642D01*
X101000643Y-109648499D01*
X100929214Y-109719928D01*
X99572071Y-108434214D02*
X101072071Y-107934214D01*
X99572071Y-107434214D01*
X134501001Y-54804571D02*
X135501001Y-56304571D01*
X135501001Y-54804571D02*
X134501001Y-56304571D01*
X135001000Y-53050286D02*
X135001000Y-53764571D01*
X134501000Y-52264571D02*
X135001000Y-53050286D01*
X135501000Y-52264571D01*
X134501001Y-59249571D02*
X135501001Y-59249571D01*
X134501001Y-60749571D01*
X135501001Y-60749571D01*
X134501001Y-49597571D02*
X135501001Y-49597571D01*
X134501001Y-51097571D01*
X135501001Y-51097571D01*
X135001000Y-62575286D02*
X135001000Y-63289571D01*
X134501000Y-61789571D02*
X135001000Y-62575286D01*
X135501000Y-61789571D01*
X134628001Y-64456571D02*
X135628001Y-65956571D01*
X135628001Y-64456571D02*
X134628001Y-65956571D01*
X134247001Y-68774571D02*
X135247001Y-68774571D01*
X134247001Y-70274571D01*
X135247001Y-70274571D01*
X134747000Y-72227286D02*
X134747000Y-72941571D01*
X134247000Y-71441571D02*
X134747000Y-72227286D01*
X135247000Y-71441571D01*
X134247001Y-74108571D02*
X135247001Y-75608571D01*
X135247001Y-74108571D02*
X134247001Y-75608571D01*
D10*
X185919454Y-76360000D02*
G75*
G03X185919454Y-76360000I-440454J0D01*
G01*
D12*
X182349000Y-58420000D02*
X172399000Y-58420000D01*
X182349000Y-76200000D02*
X172399000Y-76200000D01*
D10*
X145533454Y-102649000D02*
G75*
G03X145533454Y-102649000I-440454J0D01*
G01*
D12*
X141963000Y-84709000D02*
X132013000Y-84709000D01*
X141963000Y-102489000D02*
X132013000Y-102489000D01*
D10*
X165726454Y-102585500D02*
G75*
G03X165726454Y-102585500I-440454J0D01*
G01*
D12*
X162156000Y-84645500D02*
X152206000Y-84645500D01*
X162156000Y-102425500D02*
X152206000Y-102425500D01*
D10*
X119498454Y-76360000D02*
G75*
G03X119498454Y-76360000I-440454J0D01*
G01*
D12*
X115928000Y-58420000D02*
X105978000Y-58420000D01*
X115928000Y-76200000D02*
X105978000Y-76200000D01*
D10*
X141154590Y-122174500D02*
G75*
G03X141154590Y-122174500I-356090J0D01*
G01*
D13*
X139034520Y-122999500D02*
X152303480Y-122999500D01*
X152303480Y-122999500D02*
X152303480Y-109730540D01*
X152303480Y-109730540D02*
X139034520Y-109730540D01*
X139034520Y-109730540D02*
X139034520Y-122999500D01*
D10*
X117729000Y-49403000D02*
X105029000Y-49403000D01*
X105029000Y-49403000D02*
X105029000Y-54483000D01*
X105029000Y-54483000D02*
X115189000Y-54483000D01*
X117729000Y-49403000D02*
X117729000Y-51943000D01*
X116459000Y-54763000D02*
X118009000Y-54763000D01*
X117729000Y-51943000D02*
X115189000Y-51943000D01*
X115189000Y-51943000D02*
X115189000Y-54483000D01*
X118009000Y-54763000D02*
X118009000Y-53213000D01*
X141605000Y-56896000D02*
X141605000Y-51816000D01*
X141885000Y-48996000D02*
X141885000Y-50546000D01*
X139065000Y-49276000D02*
X139065000Y-51816000D01*
X139065000Y-51816000D02*
X141605000Y-51816000D01*
X141605000Y-56896000D02*
X136525000Y-56896000D01*
X136525000Y-56896000D02*
X136525000Y-51816000D01*
X141885000Y-48996000D02*
X140335000Y-48996000D01*
X136525000Y-49276000D02*
X139065000Y-49276000D01*
X136525000Y-51816000D02*
X136525000Y-49276000D01*
X154781500Y-99774500D02*
X155781500Y-99774500D01*
X155281500Y-99274500D02*
X155281500Y-100274500D01*
X155951019Y-95710706D02*
G75*
G03X156011500Y-101534500I810481J-2903794D01*
G01*
X157586981Y-101509634D02*
G75*
G03X157531500Y-95704500I-805481J2895134D01*
G01*
X160071500Y-100294500D02*
X158831500Y-101784500D01*
X153491500Y-100294500D02*
X154731500Y-101804500D01*
X158831500Y-101784500D02*
X157551500Y-101784500D01*
X154731500Y-101804500D02*
X156031500Y-101804500D01*
X160091500Y-95474500D02*
X160091500Y-100294500D01*
X153491500Y-95474500D02*
X153491500Y-100294500D01*
X157531500Y-95474500D02*
X160081500Y-95474500D01*
X153481500Y-95474500D02*
X156031500Y-95474500D01*
X159702500Y-93535500D02*
X159702500Y-88455500D01*
X159982500Y-85635500D02*
X159982500Y-87185500D01*
X157162500Y-85915500D02*
X157162500Y-88455500D01*
X157162500Y-88455500D02*
X159702500Y-88455500D01*
X159702500Y-93535500D02*
X154622500Y-93535500D01*
X154622500Y-93535500D02*
X154622500Y-88455500D01*
X159982500Y-85635500D02*
X158432500Y-85635500D01*
X154622500Y-85915500D02*
X157162500Y-85915500D01*
X154622500Y-88455500D02*
X154622500Y-85915500D01*
X145923000Y-96075500D02*
X145923000Y-88455500D01*
X148463000Y-96075500D02*
X148463000Y-88455500D01*
X148743000Y-98895500D02*
X148743000Y-97345500D01*
X145923000Y-88455500D02*
X148463000Y-88455500D01*
X148463000Y-96075500D02*
X145923000Y-96075500D01*
X145643000Y-97345500D02*
X145643000Y-98895500D01*
X145643000Y-98895500D02*
X148743000Y-98895500D01*
X134779000Y-99647500D02*
X135779000Y-99647500D01*
X135279000Y-99147500D02*
X135279000Y-100147500D01*
X135948519Y-95583706D02*
G75*
G03X136009000Y-101407500I810481J-2903794D01*
G01*
X137584481Y-101382634D02*
G75*
G03X137529000Y-95577500I-805481J2895134D01*
G01*
X140069000Y-100167500D02*
X138829000Y-101657500D01*
X133489000Y-100167500D02*
X134729000Y-101677500D01*
X138829000Y-101657500D02*
X137549000Y-101657500D01*
X134729000Y-101677500D02*
X136029000Y-101677500D01*
X140089000Y-95347500D02*
X140089000Y-100167500D01*
X133489000Y-95347500D02*
X133489000Y-100167500D01*
X137529000Y-95347500D02*
X140079000Y-95347500D01*
X133479000Y-95347500D02*
X136029000Y-95347500D01*
X139255500Y-93599000D02*
X139255500Y-88519000D01*
X139535500Y-85699000D02*
X139535500Y-87249000D01*
X136715500Y-85979000D02*
X136715500Y-88519000D01*
X136715500Y-88519000D02*
X139255500Y-88519000D01*
X139255500Y-93599000D02*
X134175500Y-93599000D01*
X134175500Y-93599000D02*
X134175500Y-88519000D01*
X139535500Y-85699000D02*
X137985500Y-85699000D01*
X134175500Y-85979000D02*
X136715500Y-85979000D01*
X134175500Y-88519000D02*
X134175500Y-85979000D01*
X125603000Y-96139000D02*
X125603000Y-88519000D01*
X128143000Y-96139000D02*
X128143000Y-88519000D01*
X128423000Y-98959000D02*
X128423000Y-97409000D01*
X125603000Y-88519000D02*
X128143000Y-88519000D01*
X128143000Y-96139000D02*
X125603000Y-96139000D01*
X125323000Y-97409000D02*
X125323000Y-98959000D01*
X125323000Y-98959000D02*
X128423000Y-98959000D01*
X165989000Y-69850000D02*
X165989000Y-62230000D01*
X168529000Y-69850000D02*
X168529000Y-62230000D01*
X168809000Y-72670000D02*
X168809000Y-71120000D01*
X165989000Y-62230000D02*
X168529000Y-62230000D01*
X168529000Y-69850000D02*
X165989000Y-69850000D01*
X165709000Y-71120000D02*
X165709000Y-72670000D01*
X165709000Y-72670000D02*
X168809000Y-72670000D01*
X179514500Y-67310000D02*
X179514500Y-62230000D01*
X179794500Y-59410000D02*
X179794500Y-60960000D01*
X176974500Y-59690000D02*
X176974500Y-62230000D01*
X176974500Y-62230000D02*
X179514500Y-62230000D01*
X179514500Y-67310000D02*
X174434500Y-67310000D01*
X174434500Y-67310000D02*
X174434500Y-62230000D01*
X179794500Y-59410000D02*
X178244500Y-59410000D01*
X174434500Y-59690000D02*
X176974500Y-59690000D01*
X174434500Y-62230000D02*
X174434500Y-59690000D01*
X175292000Y-73295000D02*
X176292000Y-73295000D01*
X175792000Y-72795000D02*
X175792000Y-73795000D01*
X176461519Y-69231206D02*
G75*
G03X176522000Y-75055000I810481J-2903794D01*
G01*
X178097481Y-75030134D02*
G75*
G03X178042000Y-69225000I-805481J2895134D01*
G01*
X180582000Y-73815000D02*
X179342000Y-75305000D01*
X174002000Y-73815000D02*
X175242000Y-75325000D01*
X179342000Y-75305000D02*
X178062000Y-75305000D01*
X175242000Y-75325000D02*
X176542000Y-75325000D01*
X180602000Y-68995000D02*
X180602000Y-73815000D01*
X174002000Y-68995000D02*
X174002000Y-73815000D01*
X178042000Y-68995000D02*
X180592000Y-68995000D01*
X173992000Y-68995000D02*
X176542000Y-68995000D01*
X108617000Y-73168000D02*
X109617000Y-73168000D01*
X109117000Y-72668000D02*
X109117000Y-73668000D01*
X109786519Y-69104206D02*
G75*
G03X109847000Y-74928000I810481J-2903794D01*
G01*
X111422481Y-74903134D02*
G75*
G03X111367000Y-69098000I-805481J2895134D01*
G01*
X113907000Y-73688000D02*
X112667000Y-75178000D01*
X107327000Y-73688000D02*
X108567000Y-75198000D01*
X112667000Y-75178000D02*
X111387000Y-75178000D01*
X108567000Y-75198000D02*
X109867000Y-75198000D01*
X113927000Y-68868000D02*
X113927000Y-73688000D01*
X107327000Y-68868000D02*
X107327000Y-73688000D01*
X111367000Y-68868000D02*
X113917000Y-68868000D01*
X107317000Y-68868000D02*
X109867000Y-68868000D01*
X113284000Y-67310000D02*
X113284000Y-62230000D01*
X113564000Y-59410000D02*
X113564000Y-60960000D01*
X110744000Y-59690000D02*
X110744000Y-62230000D01*
X110744000Y-62230000D02*
X113284000Y-62230000D01*
X113284000Y-67310000D02*
X108204000Y-67310000D01*
X108204000Y-67310000D02*
X108204000Y-62230000D01*
X113564000Y-59410000D02*
X112014000Y-59410000D01*
X108204000Y-59690000D02*
X110744000Y-59690000D01*
X108204000Y-62230000D02*
X108204000Y-59690000D01*
X99568000Y-69850000D02*
X99568000Y-62230000D01*
X102108000Y-69850000D02*
X102108000Y-62230000D01*
X102388000Y-72670000D02*
X102388000Y-71120000D01*
X99568000Y-62230000D02*
X102108000Y-62230000D01*
X102108000Y-69850000D02*
X99568000Y-69850000D01*
X99288000Y-71120000D02*
X99288000Y-72670000D01*
X99288000Y-72670000D02*
X102388000Y-72670000D01*
X136525000Y-68199000D02*
X136525000Y-73279000D01*
X136245000Y-76099000D02*
X136245000Y-74549000D01*
X139065000Y-75819000D02*
X139065000Y-73279000D01*
X139065000Y-73279000D02*
X136525000Y-73279000D01*
X136525000Y-68199000D02*
X141605000Y-68199000D01*
X141605000Y-68199000D02*
X141605000Y-73279000D01*
X136245000Y-76099000D02*
X137795000Y-76099000D01*
X141605000Y-75819000D02*
X139065000Y-75819000D01*
X141605000Y-73279000D02*
X141605000Y-75819000D01*
X141605000Y-66421000D02*
X141605000Y-61341000D01*
X141885000Y-58521000D02*
X141885000Y-60071000D01*
X139065000Y-58801000D02*
X139065000Y-61341000D01*
X139065000Y-61341000D02*
X141605000Y-61341000D01*
X141605000Y-66421000D02*
X136525000Y-66421000D01*
X136525000Y-66421000D02*
X136525000Y-61341000D01*
X141885000Y-58521000D02*
X140335000Y-58521000D01*
X136525000Y-58801000D02*
X139065000Y-58801000D01*
X136525000Y-61341000D02*
X136525000Y-58801000D01*
X135417000Y-112554500D02*
X135417000Y-111854500D01*
X136617000Y-111854500D02*
X136617000Y-112554500D01*
X167988500Y-131861000D02*
X168688500Y-131861000D01*
X168688500Y-133061000D02*
X167988500Y-133061000D01*
X150145000Y-106778500D02*
X150845000Y-106778500D01*
X150845000Y-107978500D02*
X150145000Y-107978500D01*
X158400000Y-117637000D02*
X159100000Y-117637000D01*
X159100000Y-118837000D02*
X158400000Y-118837000D01*
X182466500Y-131797500D02*
X183166500Y-131797500D01*
X183166500Y-132997500D02*
X182466500Y-132997500D01*
X131539500Y-127797000D02*
X132239500Y-127797000D01*
X132239500Y-128997000D02*
X131539500Y-128997000D01*
X153510500Y-131734000D02*
X154210500Y-131734000D01*
X154210500Y-132934000D02*
X153510500Y-132934000D01*
X138335500Y-132934000D02*
X137635500Y-132934000D01*
X137635500Y-131734000D02*
X138335500Y-131734000D01*
X123667000Y-132934000D02*
X122967000Y-132934000D01*
X122967000Y-131734000D02*
X123667000Y-131734000D01*
X114927380Y-80454500D02*
X115877340Y-79204820D01*
X115877340Y-79204820D02*
X115877340Y-81704180D01*
X115877340Y-81704180D02*
X114879120Y-80454500D01*
X114879120Y-79204820D02*
X114879120Y-81704180D01*
X117177820Y-79204820D02*
X117276880Y-79204820D01*
X117177820Y-81704180D02*
X117276880Y-81704180D01*
X114879120Y-79204820D02*
X117228620Y-79204820D01*
X114879120Y-81704180D02*
X117127020Y-81704180D01*
X117868700Y-83718400D02*
X114414300Y-83718400D01*
X117868700Y-87477600D02*
X114414300Y-87477600D01*
X105374000Y-88238000D02*
X103584000Y-88238000D01*
X105374000Y-88268000D02*
X105374000Y-90638000D01*
X105374000Y-90638000D02*
X103614000Y-90638000D01*
X105374000Y-83068000D02*
X105374000Y-85588000D01*
X105374000Y-85588000D02*
X103584000Y-85588000D01*
X105314000Y-83068000D02*
X103584000Y-83068000D01*
D12*
X103434000Y-81838000D02*
X103434000Y-92078000D01*
X110934000Y-92078000D02*
X103434000Y-92078000D01*
X110934000Y-81838000D02*
X110934000Y-92078000D01*
X110934000Y-81838000D02*
X103434000Y-81838000D01*
D10*
X105374000Y-109764500D02*
X103584000Y-109764500D01*
X105374000Y-109794500D02*
X105374000Y-112164500D01*
X105374000Y-112164500D02*
X103614000Y-112164500D01*
X105374000Y-104594500D02*
X105374000Y-107114500D01*
X105374000Y-107114500D02*
X103584000Y-107114500D01*
X105314000Y-104594500D02*
X103584000Y-104594500D01*
D12*
X103434000Y-103364500D02*
X103434000Y-113604500D01*
X110934000Y-113604500D02*
X103434000Y-113604500D01*
X110934000Y-103364500D02*
X110934000Y-113604500D01*
X110934000Y-103364500D02*
X103434000Y-103364500D01*
D10*
X185801000Y-126746000D02*
X185801000Y-114046000D01*
X185801000Y-114046000D02*
X180721000Y-114046000D01*
X180721000Y-114046000D02*
X180721000Y-124206000D01*
X185801000Y-126746000D02*
X183261000Y-126746000D01*
X180441000Y-125476000D02*
X180441000Y-127026000D01*
X183261000Y-126746000D02*
X183261000Y-124206000D01*
X183261000Y-124206000D02*
X180721000Y-124206000D01*
X180441000Y-127026000D02*
X181991000Y-127026000D01*
X185801000Y-110363000D02*
X185801000Y-97663000D01*
X185801000Y-97663000D02*
X180721000Y-97663000D01*
X180721000Y-97663000D02*
X180721000Y-107823000D01*
X185801000Y-110363000D02*
X183261000Y-110363000D01*
X180441000Y-109093000D02*
X180441000Y-110643000D01*
X183261000Y-110363000D02*
X183261000Y-107823000D01*
X183261000Y-107823000D02*
X180721000Y-107823000D01*
X180441000Y-110643000D02*
X181991000Y-110643000D01*
X185801000Y-94107000D02*
X185801000Y-81407000D01*
X185801000Y-81407000D02*
X180721000Y-81407000D01*
X180721000Y-81407000D02*
X180721000Y-91567000D01*
X185801000Y-94107000D02*
X183261000Y-94107000D01*
X180441000Y-92837000D02*
X180441000Y-94387000D01*
X183261000Y-94107000D02*
X183261000Y-91567000D01*
X183261000Y-91567000D02*
X180721000Y-91567000D01*
X180441000Y-94387000D02*
X181991000Y-94387000D01*
X150114000Y-128270000D02*
X162814000Y-128270000D01*
X162814000Y-128270000D02*
X162814000Y-125730000D01*
X162814000Y-125730000D02*
X150114000Y-125730000D01*
X147294000Y-128550000D02*
X148844000Y-128550000D01*
X150114000Y-128270000D02*
X150114000Y-125730000D01*
X148844000Y-125450000D02*
X147294000Y-125450000D01*
X147294000Y-125450000D02*
X147294000Y-128550000D01*
X123952000Y-107930000D02*
X123952000Y-90150000D01*
X123952000Y-90150000D02*
X121412000Y-90150000D01*
X121412000Y-90150000D02*
X121412000Y-107930000D01*
X124232000Y-110750000D02*
X124232000Y-109200000D01*
X123952000Y-107930000D02*
X121412000Y-107930000D01*
X121132000Y-109200000D02*
X121132000Y-110750000D01*
X121132000Y-110750000D02*
X124232000Y-110750000D01*
X123952000Y-125730000D02*
X123952000Y-113030000D01*
X123952000Y-113030000D02*
X121412000Y-113030000D01*
X121412000Y-113030000D02*
X121412000Y-125730000D01*
X124232000Y-128550000D02*
X124232000Y-127000000D01*
X123952000Y-125730000D02*
X121412000Y-125730000D01*
X121132000Y-127000000D02*
X121132000Y-128550000D01*
X121132000Y-128550000D02*
X124232000Y-128550000D01*
X172452000Y-103386000D02*
X172452000Y-80526000D01*
X172452000Y-80526000D02*
X169912000Y-80526000D01*
X169912000Y-80526000D02*
X169912000Y-103386000D01*
X172732000Y-106206000D02*
X172732000Y-104656000D01*
X172452000Y-103386000D02*
X169912000Y-103386000D01*
X169632000Y-104656000D02*
X169632000Y-106206000D01*
X169632000Y-106206000D02*
X172732000Y-106206000D01*
X129887977Y-126695500D02*
G75*
G03X129887977Y-126695500I-460977J0D01*
G01*
X129977000Y-122785500D02*
X129977000Y-123785500D01*
X132437000Y-120355500D02*
X134437000Y-120355500D01*
X136927000Y-123785500D02*
X136927000Y-122785500D01*
X132437000Y-126205500D02*
X134437000Y-126205500D01*
D12*
X147158000Y-134298000D02*
X158658000Y-134298000D01*
X158658000Y-134288000D02*
X158658000Y-148308000D01*
X147158000Y-134298000D02*
X147158000Y-148398000D01*
X147158000Y-148398000D02*
X158658000Y-148398000D01*
X161636000Y-134298000D02*
X173136000Y-134298000D01*
X173136000Y-134288000D02*
X173136000Y-148308000D01*
X161636000Y-134298000D02*
X161636000Y-148398000D01*
X161636000Y-148398000D02*
X173136000Y-148398000D01*
X176114000Y-134298000D02*
X187614000Y-134298000D01*
X187614000Y-134288000D02*
X187614000Y-148308000D01*
X176114000Y-134298000D02*
X176114000Y-148398000D01*
X176114000Y-148398000D02*
X187614000Y-148398000D01*
X106333000Y-101099500D02*
X108433000Y-101099500D01*
X106333000Y-101099500D02*
X106333000Y-94099500D01*
X106333000Y-94099500D02*
X108433000Y-94099500D01*
X108433000Y-94099500D02*
X108433000Y-101099500D01*
D10*
X172452000Y-125730000D02*
X172452000Y-107950000D01*
X172452000Y-107950000D02*
X169912000Y-107950000D01*
X169912000Y-107950000D02*
X169912000Y-125730000D01*
X172732000Y-128550000D02*
X172732000Y-127000000D01*
X172452000Y-125730000D02*
X169912000Y-125730000D01*
X169632000Y-127000000D02*
X169632000Y-128550000D01*
X169632000Y-128550000D02*
X172732000Y-128550000D01*
X108871500Y-132934000D02*
X108171500Y-132934000D01*
X108171500Y-131734000D02*
X108871500Y-131734000D01*
X108270040Y-130230880D02*
X113471960Y-130230880D01*
X113471960Y-127833120D02*
X108270040Y-127833120D01*
X106271060Y-126733300D02*
X106271060Y-127833120D01*
X105671620Y-127233680D02*
X106870500Y-127233680D01*
X106875580Y-127833120D02*
X106875580Y-130230880D01*
X112392460Y-115704620D02*
X107190540Y-115704620D01*
X107190540Y-118102380D02*
X112392460Y-118102380D01*
X114391440Y-119202200D02*
X114391440Y-118102380D01*
X114990880Y-118701820D02*
X113792000Y-118701820D01*
X113786920Y-118102380D02*
X113786920Y-115704620D01*
X115562380Y-103502460D02*
X115562380Y-98300540D01*
X113164620Y-98300540D02*
X113164620Y-103502460D01*
X112064800Y-105501440D02*
X113164620Y-105501440D01*
X112565180Y-106100880D02*
X112565180Y-104902000D01*
X113164620Y-104896920D02*
X115562380Y-104896920D01*
X112813500Y-107860500D02*
X112813500Y-109410500D01*
X113093500Y-113220500D02*
X113093500Y-110680500D01*
X113093500Y-110680500D02*
X115633500Y-110680500D01*
X115913500Y-109410500D02*
X115913500Y-107860500D01*
X115913500Y-107860500D02*
X112813500Y-107860500D01*
X115633500Y-110680500D02*
X115633500Y-113220500D01*
X115633500Y-113220500D02*
X113093500Y-113220500D01*
D12*
X109381000Y-126309000D02*
X111481000Y-126309000D01*
X109381000Y-126309000D02*
X109381000Y-119309000D01*
X109381000Y-119309000D02*
X111481000Y-119309000D01*
X111481000Y-119309000D02*
X111481000Y-126309000D01*
X103787500Y-134298000D02*
X115287500Y-134298000D01*
X115287500Y-134288000D02*
X115287500Y-148308000D01*
X103787500Y-134298000D02*
X103787500Y-148398000D01*
X103787500Y-148398000D02*
X115287500Y-148398000D01*
X118011500Y-134298000D02*
X129511500Y-134298000D01*
X129511500Y-134288000D02*
X129511500Y-148308000D01*
X118011500Y-134298000D02*
X118011500Y-148398000D01*
X118011500Y-148398000D02*
X129511500Y-148398000D01*
X132616500Y-134298000D02*
X144116500Y-134298000D01*
X144116500Y-134288000D02*
X144116500Y-148308000D01*
X132616500Y-134298000D02*
X132616500Y-148398000D01*
X132616500Y-148398000D02*
X144116500Y-148398000D01*
D10*
X114268500Y-93869000D02*
X115268500Y-93869000D01*
X114768500Y-93369000D02*
X114768500Y-94369000D01*
X115438019Y-89805206D02*
G75*
G03X115498500Y-95629000I810481J-2903794D01*
G01*
X117073981Y-95604134D02*
G75*
G03X117018500Y-89799000I-805481J2895134D01*
G01*
X119558500Y-94389000D02*
X118318500Y-95879000D01*
X112978500Y-94389000D02*
X114218500Y-95899000D01*
X118318500Y-95879000D02*
X117038500Y-95879000D01*
X114218500Y-95899000D02*
X115518500Y-95899000D01*
X119578500Y-89569000D02*
X119578500Y-94389000D01*
X112978500Y-89569000D02*
X112978500Y-94389000D01*
X117018500Y-89569000D02*
X119568500Y-89569000D01*
X112968500Y-89569000D02*
X115518500Y-89569000D01*
D11*
X175869786Y-76558857D02*
X175869786Y-77530286D01*
X175926929Y-77644571D01*
X175984072Y-77701714D01*
X176098358Y-77758857D01*
X176326929Y-77758857D01*
X176441215Y-77701714D01*
X176498358Y-77644571D01*
X176555501Y-77530286D01*
X176555501Y-76558857D01*
X177755501Y-77758857D02*
X177069786Y-77758857D01*
X177412644Y-77758857D02*
X177412644Y-76558857D01*
X177298358Y-76730286D01*
X177184072Y-76844571D01*
X177069786Y-76901714D01*
X178155501Y-76558857D02*
X178898358Y-76558857D01*
X178498358Y-77016000D01*
X178669786Y-77016000D01*
X178784072Y-77073143D01*
X178841215Y-77130286D01*
X178898358Y-77244571D01*
X178898358Y-77530286D01*
X178841215Y-77644571D01*
X178784072Y-77701714D01*
X178669786Y-77758857D01*
X178326929Y-77758857D01*
X178212643Y-77701714D01*
X178155501Y-77644571D01*
X186470857Y-74389356D02*
X185270857Y-74389356D01*
X185270857Y-74103641D01*
X185328000Y-73932213D01*
X185442286Y-73817927D01*
X185556571Y-73760784D01*
X185785143Y-73703641D01*
X185956571Y-73703641D01*
X186185143Y-73760784D01*
X186299429Y-73817927D01*
X186413714Y-73932213D01*
X186470857Y-74103641D01*
X186470857Y-74389356D01*
X186470857Y-72503641D02*
X185899429Y-72903641D01*
X186470857Y-73189356D02*
X185270857Y-73189356D01*
X185270857Y-72732213D01*
X185328000Y-72617927D01*
X185385143Y-72560784D01*
X185499429Y-72503641D01*
X185670857Y-72503641D01*
X185785143Y-72560784D01*
X185842286Y-72617927D01*
X185899429Y-72732213D01*
X185899429Y-73189356D01*
X185270857Y-72160784D02*
X186470857Y-71760784D01*
X185270857Y-71360784D01*
X185785143Y-70789356D02*
X185728000Y-70903642D01*
X185670857Y-70960785D01*
X185556571Y-71017928D01*
X185499429Y-71017928D01*
X185385143Y-70960785D01*
X185328000Y-70903642D01*
X185270857Y-70789356D01*
X185270857Y-70560785D01*
X185328000Y-70446499D01*
X185385143Y-70389356D01*
X185499429Y-70332213D01*
X185556571Y-70332213D01*
X185670857Y-70389356D01*
X185728000Y-70446499D01*
X185785143Y-70560785D01*
X185785143Y-70789356D01*
X185842286Y-70903642D01*
X185899429Y-70960785D01*
X186013714Y-71017928D01*
X186242286Y-71017928D01*
X186356571Y-70960785D01*
X186413714Y-70903642D01*
X186470857Y-70789356D01*
X186470857Y-70560785D01*
X186413714Y-70446499D01*
X186356571Y-70389356D01*
X186242286Y-70332213D01*
X186013714Y-70332213D01*
X185899429Y-70389356D01*
X185842286Y-70446499D01*
X185785143Y-70560785D01*
X185785143Y-69646499D02*
X185728000Y-69760785D01*
X185670857Y-69817928D01*
X185556571Y-69875071D01*
X185499429Y-69875071D01*
X185385143Y-69817928D01*
X185328000Y-69760785D01*
X185270857Y-69646499D01*
X185270857Y-69417928D01*
X185328000Y-69303642D01*
X185385143Y-69246499D01*
X185499429Y-69189356D01*
X185556571Y-69189356D01*
X185670857Y-69246499D01*
X185728000Y-69303642D01*
X185785143Y-69417928D01*
X185785143Y-69646499D01*
X185842286Y-69760785D01*
X185899429Y-69817928D01*
X186013714Y-69875071D01*
X186242286Y-69875071D01*
X186356571Y-69817928D01*
X186413714Y-69760785D01*
X186470857Y-69646499D01*
X186470857Y-69417928D01*
X186413714Y-69303642D01*
X186356571Y-69246499D01*
X186242286Y-69189356D01*
X186013714Y-69189356D01*
X185899429Y-69246499D01*
X185842286Y-69303642D01*
X185785143Y-69417928D01*
X185385143Y-68732214D02*
X185328000Y-68675071D01*
X185270857Y-68560785D01*
X185270857Y-68275071D01*
X185328000Y-68160785D01*
X185385143Y-68103642D01*
X185499429Y-68046499D01*
X185613714Y-68046499D01*
X185785143Y-68103642D01*
X186470857Y-68789356D01*
X186470857Y-68046499D01*
X185270857Y-66960785D02*
X185270857Y-67532214D01*
X185842286Y-67589357D01*
X185785143Y-67532214D01*
X185728000Y-67417928D01*
X185728000Y-67132214D01*
X185785143Y-67017928D01*
X185842286Y-66960785D01*
X185956571Y-66903642D01*
X186242286Y-66903642D01*
X186356571Y-66960785D01*
X186413714Y-67017928D01*
X186470857Y-67132214D01*
X186470857Y-67417928D01*
X186413714Y-67532214D01*
X186356571Y-67589357D01*
X186585143Y-66675071D02*
X186585143Y-65760785D01*
X186413714Y-64960785D02*
X186470857Y-65075071D01*
X186470857Y-65303642D01*
X186413714Y-65417928D01*
X186356571Y-65475071D01*
X186242286Y-65532214D01*
X185899429Y-65532214D01*
X185785143Y-65475071D01*
X185728000Y-65417928D01*
X185670857Y-65303642D01*
X185670857Y-65075071D01*
X185728000Y-64960785D01*
X186470857Y-63932214D02*
X185842286Y-63932214D01*
X185728000Y-63989357D01*
X185670857Y-64103643D01*
X185670857Y-64332214D01*
X185728000Y-64446500D01*
X186413714Y-63932214D02*
X186470857Y-64046500D01*
X186470857Y-64332214D01*
X186413714Y-64446500D01*
X186299429Y-64503643D01*
X186185143Y-64503643D01*
X186070857Y-64446500D01*
X186013714Y-64332214D01*
X186013714Y-64046500D01*
X185956571Y-63932214D01*
X186470857Y-63360786D02*
X185670857Y-63360786D01*
X185899429Y-63360786D02*
X185785143Y-63303643D01*
X185728000Y-63246500D01*
X185670857Y-63132214D01*
X185670857Y-63017929D01*
X186470857Y-62617929D02*
X185670857Y-62617929D01*
X185899429Y-62617929D02*
X185785143Y-62560786D01*
X185728000Y-62503643D01*
X185670857Y-62389357D01*
X185670857Y-62275072D01*
X186470857Y-61875072D02*
X185670857Y-61875072D01*
X185270857Y-61875072D02*
X185328000Y-61932215D01*
X185385143Y-61875072D01*
X185328000Y-61817929D01*
X185270857Y-61875072D01*
X185385143Y-61875072D01*
X186413714Y-60846500D02*
X186470857Y-60960786D01*
X186470857Y-61189357D01*
X186413714Y-61303643D01*
X186299429Y-61360786D01*
X185842286Y-61360786D01*
X185728000Y-61303643D01*
X185670857Y-61189357D01*
X185670857Y-60960786D01*
X185728000Y-60846500D01*
X185842286Y-60789357D01*
X185956571Y-60789357D01*
X186070857Y-61360786D01*
X186470857Y-60275072D02*
X185670857Y-60275072D01*
X185899429Y-60275072D02*
X185785143Y-60217929D01*
X185728000Y-60160786D01*
X185670857Y-60046500D01*
X185670857Y-59932215D01*
X135420286Y-102847857D02*
X135420286Y-103819286D01*
X135477429Y-103933571D01*
X135534572Y-103990714D01*
X135648858Y-104047857D01*
X135877429Y-104047857D01*
X135991715Y-103990714D01*
X136048858Y-103933571D01*
X136106001Y-103819286D01*
X136106001Y-102847857D01*
X137306001Y-104047857D02*
X136620286Y-104047857D01*
X136963144Y-104047857D02*
X136963144Y-102847857D01*
X136848858Y-103019286D01*
X136734572Y-103133571D01*
X136620286Y-103190714D01*
X138448858Y-104047857D02*
X137763143Y-104047857D01*
X138106001Y-104047857D02*
X138106001Y-102847857D01*
X137991715Y-103019286D01*
X137877429Y-103133571D01*
X137763143Y-103190714D01*
X130144144Y-105889357D02*
X130144144Y-104689357D01*
X130429859Y-104689357D01*
X130601287Y-104746500D01*
X130715573Y-104860786D01*
X130772716Y-104975071D01*
X130829859Y-105203643D01*
X130829859Y-105375071D01*
X130772716Y-105603643D01*
X130715573Y-105717929D01*
X130601287Y-105832214D01*
X130429859Y-105889357D01*
X130144144Y-105889357D01*
X132029859Y-105889357D02*
X131629859Y-105317929D01*
X131344144Y-105889357D02*
X131344144Y-104689357D01*
X131801287Y-104689357D01*
X131915573Y-104746500D01*
X131972716Y-104803643D01*
X132029859Y-104917929D01*
X132029859Y-105089357D01*
X131972716Y-105203643D01*
X131915573Y-105260786D01*
X131801287Y-105317929D01*
X131344144Y-105317929D01*
X132372716Y-104689357D02*
X132772716Y-105889357D01*
X133172716Y-104689357D01*
X133744144Y-105203643D02*
X133629858Y-105146500D01*
X133572715Y-105089357D01*
X133515572Y-104975071D01*
X133515572Y-104917929D01*
X133572715Y-104803643D01*
X133629858Y-104746500D01*
X133744144Y-104689357D01*
X133972715Y-104689357D01*
X134087001Y-104746500D01*
X134144144Y-104803643D01*
X134201287Y-104917929D01*
X134201287Y-104975071D01*
X134144144Y-105089357D01*
X134087001Y-105146500D01*
X133972715Y-105203643D01*
X133744144Y-105203643D01*
X133629858Y-105260786D01*
X133572715Y-105317929D01*
X133515572Y-105432214D01*
X133515572Y-105660786D01*
X133572715Y-105775071D01*
X133629858Y-105832214D01*
X133744144Y-105889357D01*
X133972715Y-105889357D01*
X134087001Y-105832214D01*
X134144144Y-105775071D01*
X134201287Y-105660786D01*
X134201287Y-105432214D01*
X134144144Y-105317929D01*
X134087001Y-105260786D01*
X133972715Y-105203643D01*
X134887001Y-105203643D02*
X134772715Y-105146500D01*
X134715572Y-105089357D01*
X134658429Y-104975071D01*
X134658429Y-104917929D01*
X134715572Y-104803643D01*
X134772715Y-104746500D01*
X134887001Y-104689357D01*
X135115572Y-104689357D01*
X135229858Y-104746500D01*
X135287001Y-104803643D01*
X135344144Y-104917929D01*
X135344144Y-104975071D01*
X135287001Y-105089357D01*
X135229858Y-105146500D01*
X135115572Y-105203643D01*
X134887001Y-105203643D01*
X134772715Y-105260786D01*
X134715572Y-105317929D01*
X134658429Y-105432214D01*
X134658429Y-105660786D01*
X134715572Y-105775071D01*
X134772715Y-105832214D01*
X134887001Y-105889357D01*
X135115572Y-105889357D01*
X135229858Y-105832214D01*
X135287001Y-105775071D01*
X135344144Y-105660786D01*
X135344144Y-105432214D01*
X135287001Y-105317929D01*
X135229858Y-105260786D01*
X135115572Y-105203643D01*
X135801286Y-104803643D02*
X135858429Y-104746500D01*
X135972715Y-104689357D01*
X136258429Y-104689357D01*
X136372715Y-104746500D01*
X136429858Y-104803643D01*
X136487001Y-104917929D01*
X136487001Y-105032214D01*
X136429858Y-105203643D01*
X135744144Y-105889357D01*
X136487001Y-105889357D01*
X137572715Y-104689357D02*
X137001286Y-104689357D01*
X136944143Y-105260786D01*
X137001286Y-105203643D01*
X137115572Y-105146500D01*
X137401286Y-105146500D01*
X137515572Y-105203643D01*
X137572715Y-105260786D01*
X137629858Y-105375071D01*
X137629858Y-105660786D01*
X137572715Y-105775071D01*
X137515572Y-105832214D01*
X137401286Y-105889357D01*
X137115572Y-105889357D01*
X137001286Y-105832214D01*
X136944143Y-105775071D01*
X137858429Y-106003643D02*
X138772715Y-106003643D01*
X139572715Y-105832214D02*
X139458429Y-105889357D01*
X139229858Y-105889357D01*
X139115572Y-105832214D01*
X139058429Y-105775071D01*
X139001286Y-105660786D01*
X139001286Y-105317929D01*
X139058429Y-105203643D01*
X139115572Y-105146500D01*
X139229858Y-105089357D01*
X139458429Y-105089357D01*
X139572715Y-105146500D01*
X140601286Y-105889357D02*
X140601286Y-105260786D01*
X140544143Y-105146500D01*
X140429857Y-105089357D01*
X140201286Y-105089357D01*
X140087000Y-105146500D01*
X140601286Y-105832214D02*
X140487000Y-105889357D01*
X140201286Y-105889357D01*
X140087000Y-105832214D01*
X140029857Y-105717929D01*
X140029857Y-105603643D01*
X140087000Y-105489357D01*
X140201286Y-105432214D01*
X140487000Y-105432214D01*
X140601286Y-105375071D01*
X141172714Y-105889357D02*
X141172714Y-105089357D01*
X141172714Y-105317929D02*
X141229857Y-105203643D01*
X141287000Y-105146500D01*
X141401286Y-105089357D01*
X141515571Y-105089357D01*
X141915571Y-105889357D02*
X141915571Y-105089357D01*
X141915571Y-105317929D02*
X141972714Y-105203643D01*
X142029857Y-105146500D01*
X142144143Y-105089357D01*
X142258428Y-105089357D01*
X142658428Y-105889357D02*
X142658428Y-105089357D01*
X142658428Y-104689357D02*
X142601285Y-104746500D01*
X142658428Y-104803643D01*
X142715571Y-104746500D01*
X142658428Y-104689357D01*
X142658428Y-104803643D01*
X143687000Y-105832214D02*
X143572714Y-105889357D01*
X143344143Y-105889357D01*
X143229857Y-105832214D01*
X143172714Y-105717929D01*
X143172714Y-105260786D01*
X143229857Y-105146500D01*
X143344143Y-105089357D01*
X143572714Y-105089357D01*
X143687000Y-105146500D01*
X143744143Y-105260786D01*
X143744143Y-105375071D01*
X143172714Y-105489357D01*
X144258428Y-105889357D02*
X144258428Y-105089357D01*
X144258428Y-105317929D02*
X144315571Y-105203643D01*
X144372714Y-105146500D01*
X144487000Y-105089357D01*
X144601285Y-105089357D01*
X155232286Y-102974857D02*
X155232286Y-103946286D01*
X155289429Y-104060571D01*
X155346572Y-104117714D01*
X155460858Y-104174857D01*
X155689429Y-104174857D01*
X155803715Y-104117714D01*
X155860858Y-104060571D01*
X155918001Y-103946286D01*
X155918001Y-102974857D01*
X157118001Y-104174857D02*
X156432286Y-104174857D01*
X156775144Y-104174857D02*
X156775144Y-102974857D01*
X156660858Y-103146286D01*
X156546572Y-103260571D01*
X156432286Y-103317714D01*
X157575143Y-103089143D02*
X157632286Y-103032000D01*
X157746572Y-102974857D01*
X158032286Y-102974857D01*
X158146572Y-103032000D01*
X158203715Y-103089143D01*
X158260858Y-103203429D01*
X158260858Y-103317714D01*
X158203715Y-103489143D01*
X157518001Y-104174857D01*
X158260858Y-104174857D01*
X166277857Y-100297356D02*
X165077857Y-100297356D01*
X165077857Y-100011641D01*
X165135000Y-99840213D01*
X165249286Y-99725927D01*
X165363571Y-99668784D01*
X165592143Y-99611641D01*
X165763571Y-99611641D01*
X165992143Y-99668784D01*
X166106429Y-99725927D01*
X166220714Y-99840213D01*
X166277857Y-100011641D01*
X166277857Y-100297356D01*
X166277857Y-98411641D02*
X165706429Y-98811641D01*
X166277857Y-99097356D02*
X165077857Y-99097356D01*
X165077857Y-98640213D01*
X165135000Y-98525927D01*
X165192143Y-98468784D01*
X165306429Y-98411641D01*
X165477857Y-98411641D01*
X165592143Y-98468784D01*
X165649286Y-98525927D01*
X165706429Y-98640213D01*
X165706429Y-99097356D01*
X165077857Y-98068784D02*
X166277857Y-97668784D01*
X165077857Y-97268784D01*
X165592143Y-96697356D02*
X165535000Y-96811642D01*
X165477857Y-96868785D01*
X165363571Y-96925928D01*
X165306429Y-96925928D01*
X165192143Y-96868785D01*
X165135000Y-96811642D01*
X165077857Y-96697356D01*
X165077857Y-96468785D01*
X165135000Y-96354499D01*
X165192143Y-96297356D01*
X165306429Y-96240213D01*
X165363571Y-96240213D01*
X165477857Y-96297356D01*
X165535000Y-96354499D01*
X165592143Y-96468785D01*
X165592143Y-96697356D01*
X165649286Y-96811642D01*
X165706429Y-96868785D01*
X165820714Y-96925928D01*
X166049286Y-96925928D01*
X166163571Y-96868785D01*
X166220714Y-96811642D01*
X166277857Y-96697356D01*
X166277857Y-96468785D01*
X166220714Y-96354499D01*
X166163571Y-96297356D01*
X166049286Y-96240213D01*
X165820714Y-96240213D01*
X165706429Y-96297356D01*
X165649286Y-96354499D01*
X165592143Y-96468785D01*
X165592143Y-95554499D02*
X165535000Y-95668785D01*
X165477857Y-95725928D01*
X165363571Y-95783071D01*
X165306429Y-95783071D01*
X165192143Y-95725928D01*
X165135000Y-95668785D01*
X165077857Y-95554499D01*
X165077857Y-95325928D01*
X165135000Y-95211642D01*
X165192143Y-95154499D01*
X165306429Y-95097356D01*
X165363571Y-95097356D01*
X165477857Y-95154499D01*
X165535000Y-95211642D01*
X165592143Y-95325928D01*
X165592143Y-95554499D01*
X165649286Y-95668785D01*
X165706429Y-95725928D01*
X165820714Y-95783071D01*
X166049286Y-95783071D01*
X166163571Y-95725928D01*
X166220714Y-95668785D01*
X166277857Y-95554499D01*
X166277857Y-95325928D01*
X166220714Y-95211642D01*
X166163571Y-95154499D01*
X166049286Y-95097356D01*
X165820714Y-95097356D01*
X165706429Y-95154499D01*
X165649286Y-95211642D01*
X165592143Y-95325928D01*
X165192143Y-94640214D02*
X165135000Y-94583071D01*
X165077857Y-94468785D01*
X165077857Y-94183071D01*
X165135000Y-94068785D01*
X165192143Y-94011642D01*
X165306429Y-93954499D01*
X165420714Y-93954499D01*
X165592143Y-94011642D01*
X166277857Y-94697356D01*
X166277857Y-93954499D01*
X165077857Y-92868785D02*
X165077857Y-93440214D01*
X165649286Y-93497357D01*
X165592143Y-93440214D01*
X165535000Y-93325928D01*
X165535000Y-93040214D01*
X165592143Y-92925928D01*
X165649286Y-92868785D01*
X165763571Y-92811642D01*
X166049286Y-92811642D01*
X166163571Y-92868785D01*
X166220714Y-92925928D01*
X166277857Y-93040214D01*
X166277857Y-93325928D01*
X166220714Y-93440214D01*
X166163571Y-93497357D01*
X166392143Y-92583071D02*
X166392143Y-91668785D01*
X166220714Y-90868785D02*
X166277857Y-90983071D01*
X166277857Y-91211642D01*
X166220714Y-91325928D01*
X166163571Y-91383071D01*
X166049286Y-91440214D01*
X165706429Y-91440214D01*
X165592143Y-91383071D01*
X165535000Y-91325928D01*
X165477857Y-91211642D01*
X165477857Y-90983071D01*
X165535000Y-90868785D01*
X166277857Y-89840214D02*
X165649286Y-89840214D01*
X165535000Y-89897357D01*
X165477857Y-90011643D01*
X165477857Y-90240214D01*
X165535000Y-90354500D01*
X166220714Y-89840214D02*
X166277857Y-89954500D01*
X166277857Y-90240214D01*
X166220714Y-90354500D01*
X166106429Y-90411643D01*
X165992143Y-90411643D01*
X165877857Y-90354500D01*
X165820714Y-90240214D01*
X165820714Y-89954500D01*
X165763571Y-89840214D01*
X166277857Y-89268786D02*
X165477857Y-89268786D01*
X165706429Y-89268786D02*
X165592143Y-89211643D01*
X165535000Y-89154500D01*
X165477857Y-89040214D01*
X165477857Y-88925929D01*
X166277857Y-88525929D02*
X165477857Y-88525929D01*
X165706429Y-88525929D02*
X165592143Y-88468786D01*
X165535000Y-88411643D01*
X165477857Y-88297357D01*
X165477857Y-88183072D01*
X166277857Y-87783072D02*
X165477857Y-87783072D01*
X165077857Y-87783072D02*
X165135000Y-87840215D01*
X165192143Y-87783072D01*
X165135000Y-87725929D01*
X165077857Y-87783072D01*
X165192143Y-87783072D01*
X166220714Y-86754500D02*
X166277857Y-86868786D01*
X166277857Y-87097357D01*
X166220714Y-87211643D01*
X166106429Y-87268786D01*
X165649286Y-87268786D01*
X165535000Y-87211643D01*
X165477857Y-87097357D01*
X165477857Y-86868786D01*
X165535000Y-86754500D01*
X165649286Y-86697357D01*
X165763571Y-86697357D01*
X165877857Y-87268786D01*
X166277857Y-86183072D02*
X165477857Y-86183072D01*
X165706429Y-86183072D02*
X165592143Y-86125929D01*
X165535000Y-86068786D01*
X165477857Y-85954500D01*
X165477857Y-85840215D01*
X109131286Y-76558857D02*
X109131286Y-77530286D01*
X109188429Y-77644571D01*
X109245572Y-77701714D01*
X109359858Y-77758857D01*
X109588429Y-77758857D01*
X109702715Y-77701714D01*
X109759858Y-77644571D01*
X109817001Y-77530286D01*
X109817001Y-76558857D01*
X111017001Y-77758857D02*
X110331286Y-77758857D01*
X110674144Y-77758857D02*
X110674144Y-76558857D01*
X110559858Y-76730286D01*
X110445572Y-76844571D01*
X110331286Y-76901714D01*
X112045572Y-76958857D02*
X112045572Y-77758857D01*
X111759858Y-76501714D02*
X111474143Y-77358857D01*
X112217001Y-77358857D01*
X120303857Y-73817856D02*
X119103857Y-73817856D01*
X119103857Y-73532141D01*
X119161000Y-73360713D01*
X119275286Y-73246427D01*
X119389571Y-73189284D01*
X119618143Y-73132141D01*
X119789571Y-73132141D01*
X120018143Y-73189284D01*
X120132429Y-73246427D01*
X120246714Y-73360713D01*
X120303857Y-73532141D01*
X120303857Y-73817856D01*
X120303857Y-71932141D02*
X119732429Y-72332141D01*
X120303857Y-72617856D02*
X119103857Y-72617856D01*
X119103857Y-72160713D01*
X119161000Y-72046427D01*
X119218143Y-71989284D01*
X119332429Y-71932141D01*
X119503857Y-71932141D01*
X119618143Y-71989284D01*
X119675286Y-72046427D01*
X119732429Y-72160713D01*
X119732429Y-72617856D01*
X119103857Y-71589284D02*
X120303857Y-71189284D01*
X119103857Y-70789284D01*
X119618143Y-70217856D02*
X119561000Y-70332142D01*
X119503857Y-70389285D01*
X119389571Y-70446428D01*
X119332429Y-70446428D01*
X119218143Y-70389285D01*
X119161000Y-70332142D01*
X119103857Y-70217856D01*
X119103857Y-69989285D01*
X119161000Y-69874999D01*
X119218143Y-69817856D01*
X119332429Y-69760713D01*
X119389571Y-69760713D01*
X119503857Y-69817856D01*
X119561000Y-69874999D01*
X119618143Y-69989285D01*
X119618143Y-70217856D01*
X119675286Y-70332142D01*
X119732429Y-70389285D01*
X119846714Y-70446428D01*
X120075286Y-70446428D01*
X120189571Y-70389285D01*
X120246714Y-70332142D01*
X120303857Y-70217856D01*
X120303857Y-69989285D01*
X120246714Y-69874999D01*
X120189571Y-69817856D01*
X120075286Y-69760713D01*
X119846714Y-69760713D01*
X119732429Y-69817856D01*
X119675286Y-69874999D01*
X119618143Y-69989285D01*
X119618143Y-69074999D02*
X119561000Y-69189285D01*
X119503857Y-69246428D01*
X119389571Y-69303571D01*
X119332429Y-69303571D01*
X119218143Y-69246428D01*
X119161000Y-69189285D01*
X119103857Y-69074999D01*
X119103857Y-68846428D01*
X119161000Y-68732142D01*
X119218143Y-68674999D01*
X119332429Y-68617856D01*
X119389571Y-68617856D01*
X119503857Y-68674999D01*
X119561000Y-68732142D01*
X119618143Y-68846428D01*
X119618143Y-69074999D01*
X119675286Y-69189285D01*
X119732429Y-69246428D01*
X119846714Y-69303571D01*
X120075286Y-69303571D01*
X120189571Y-69246428D01*
X120246714Y-69189285D01*
X120303857Y-69074999D01*
X120303857Y-68846428D01*
X120246714Y-68732142D01*
X120189571Y-68674999D01*
X120075286Y-68617856D01*
X119846714Y-68617856D01*
X119732429Y-68674999D01*
X119675286Y-68732142D01*
X119618143Y-68846428D01*
X119218143Y-68160714D02*
X119161000Y-68103571D01*
X119103857Y-67989285D01*
X119103857Y-67703571D01*
X119161000Y-67589285D01*
X119218143Y-67532142D01*
X119332429Y-67474999D01*
X119446714Y-67474999D01*
X119618143Y-67532142D01*
X120303857Y-68217856D01*
X120303857Y-67474999D01*
X119103857Y-66389285D02*
X119103857Y-66960714D01*
X119675286Y-67017857D01*
X119618143Y-66960714D01*
X119561000Y-66846428D01*
X119561000Y-66560714D01*
X119618143Y-66446428D01*
X119675286Y-66389285D01*
X119789571Y-66332142D01*
X120075286Y-66332142D01*
X120189571Y-66389285D01*
X120246714Y-66446428D01*
X120303857Y-66560714D01*
X120303857Y-66846428D01*
X120246714Y-66960714D01*
X120189571Y-67017857D01*
X120418143Y-66103571D02*
X120418143Y-65189285D01*
X120246714Y-64389285D02*
X120303857Y-64503571D01*
X120303857Y-64732142D01*
X120246714Y-64846428D01*
X120189571Y-64903571D01*
X120075286Y-64960714D01*
X119732429Y-64960714D01*
X119618143Y-64903571D01*
X119561000Y-64846428D01*
X119503857Y-64732142D01*
X119503857Y-64503571D01*
X119561000Y-64389285D01*
X120303857Y-63360714D02*
X119675286Y-63360714D01*
X119561000Y-63417857D01*
X119503857Y-63532143D01*
X119503857Y-63760714D01*
X119561000Y-63875000D01*
X120246714Y-63360714D02*
X120303857Y-63475000D01*
X120303857Y-63760714D01*
X120246714Y-63875000D01*
X120132429Y-63932143D01*
X120018143Y-63932143D01*
X119903857Y-63875000D01*
X119846714Y-63760714D01*
X119846714Y-63475000D01*
X119789571Y-63360714D01*
X120303857Y-62789286D02*
X119503857Y-62789286D01*
X119732429Y-62789286D02*
X119618143Y-62732143D01*
X119561000Y-62675000D01*
X119503857Y-62560714D01*
X119503857Y-62446429D01*
X120303857Y-62046429D02*
X119503857Y-62046429D01*
X119732429Y-62046429D02*
X119618143Y-61989286D01*
X119561000Y-61932143D01*
X119503857Y-61817857D01*
X119503857Y-61703572D01*
X120303857Y-61303572D02*
X119503857Y-61303572D01*
X119103857Y-61303572D02*
X119161000Y-61360715D01*
X119218143Y-61303572D01*
X119161000Y-61246429D01*
X119103857Y-61303572D01*
X119218143Y-61303572D01*
X120246714Y-60275000D02*
X120303857Y-60389286D01*
X120303857Y-60617857D01*
X120246714Y-60732143D01*
X120132429Y-60789286D01*
X119675286Y-60789286D01*
X119561000Y-60732143D01*
X119503857Y-60617857D01*
X119503857Y-60389286D01*
X119561000Y-60275000D01*
X119675286Y-60217857D01*
X119789571Y-60217857D01*
X119903857Y-60789286D01*
X120303857Y-59703572D02*
X119503857Y-59703572D01*
X119732429Y-59703572D02*
X119618143Y-59646429D01*
X119561000Y-59589286D01*
X119503857Y-59475000D01*
X119503857Y-59360715D01*
X139230214Y-123548857D02*
X139230214Y-124520286D01*
X139287357Y-124634571D01*
X139344500Y-124691714D01*
X139458786Y-124748857D01*
X139687357Y-124748857D01*
X139801643Y-124691714D01*
X139858786Y-124634571D01*
X139915929Y-124520286D01*
X139915929Y-123548857D01*
X141001643Y-123948857D02*
X141001643Y-124748857D01*
X140715929Y-123491714D02*
X140430214Y-124348857D01*
X141173072Y-124348857D01*
X104183571Y-53954928D02*
X102683571Y-53954928D01*
X102683571Y-53383500D01*
X102755000Y-53240642D01*
X102826429Y-53169214D01*
X102969286Y-53097785D01*
X103183571Y-53097785D01*
X103326429Y-53169214D01*
X103397857Y-53240642D01*
X103469286Y-53383500D01*
X103469286Y-53954928D01*
X102826429Y-52526357D02*
X102755000Y-52454928D01*
X102683571Y-52312071D01*
X102683571Y-51954928D01*
X102755000Y-51812071D01*
X102826429Y-51740642D01*
X102969286Y-51669214D01*
X103112143Y-51669214D01*
X103326429Y-51740642D01*
X104183571Y-52597785D01*
X104183571Y-51669214D01*
X102683571Y-50740643D02*
X102683571Y-50597786D01*
X102755000Y-50454929D01*
X102826429Y-50383500D01*
X102969286Y-50312071D01*
X103255000Y-50240643D01*
X103612143Y-50240643D01*
X103897857Y-50312071D01*
X104040714Y-50383500D01*
X104112143Y-50454929D01*
X104183571Y-50597786D01*
X104183571Y-50740643D01*
X104112143Y-50883500D01*
X104040714Y-50954929D01*
X103897857Y-51026357D01*
X103612143Y-51097786D01*
X103255000Y-51097786D01*
X102969286Y-51026357D01*
X102826429Y-50954929D01*
X102755000Y-50883500D01*
X102683571Y-50740643D01*
X105394858Y-56422857D02*
X105394858Y-55222857D01*
X105852001Y-55222857D01*
X105966287Y-55280000D01*
X106023430Y-55337143D01*
X106080573Y-55451429D01*
X106080573Y-55622857D01*
X106023430Y-55737143D01*
X105966287Y-55794286D01*
X105852001Y-55851429D01*
X105394858Y-55851429D01*
X106766287Y-56422857D02*
X106652001Y-56365714D01*
X106594858Y-56308571D01*
X106537715Y-56194286D01*
X106537715Y-55851429D01*
X106594858Y-55737143D01*
X106652001Y-55680000D01*
X106766287Y-55622857D01*
X106937715Y-55622857D01*
X107052001Y-55680000D01*
X107109144Y-55737143D01*
X107166287Y-55851429D01*
X107166287Y-56194286D01*
X107109144Y-56308571D01*
X107052001Y-56365714D01*
X106937715Y-56422857D01*
X106766287Y-56422857D01*
X107623429Y-56365714D02*
X107794858Y-56422857D01*
X108080572Y-56422857D01*
X108194858Y-56365714D01*
X108252001Y-56308571D01*
X108309144Y-56194286D01*
X108309144Y-56080000D01*
X108252001Y-55965714D01*
X108194858Y-55908571D01*
X108080572Y-55851429D01*
X107852001Y-55794286D01*
X107737715Y-55737143D01*
X107680572Y-55680000D01*
X107623429Y-55565714D01*
X107623429Y-55451429D01*
X107680572Y-55337143D01*
X107737715Y-55280000D01*
X107852001Y-55222857D01*
X108137715Y-55222857D01*
X108309144Y-55280000D01*
X108652001Y-55622857D02*
X109109144Y-55622857D01*
X108823429Y-55222857D02*
X108823429Y-56251429D01*
X108880572Y-56365714D01*
X108994858Y-56422857D01*
X109109144Y-56422857D01*
X109966286Y-56365714D02*
X109852000Y-56422857D01*
X109623429Y-56422857D01*
X109509143Y-56365714D01*
X109452000Y-56251429D01*
X109452000Y-55794286D01*
X109509143Y-55680000D01*
X109623429Y-55622857D01*
X109852000Y-55622857D01*
X109966286Y-55680000D01*
X110023429Y-55794286D01*
X110023429Y-55908571D01*
X109452000Y-56022857D01*
X110537714Y-55622857D02*
X110537714Y-56822857D01*
X110537714Y-55680000D02*
X110652000Y-55622857D01*
X110880571Y-55622857D01*
X110994857Y-55680000D01*
X111052000Y-55737143D01*
X111109143Y-55851429D01*
X111109143Y-56194286D01*
X111052000Y-56308571D01*
X110994857Y-56365714D01*
X110880571Y-56422857D01*
X110652000Y-56422857D01*
X110537714Y-56365714D01*
X111566285Y-55337143D02*
X111623428Y-55280000D01*
X111737714Y-55222857D01*
X112023428Y-55222857D01*
X112137714Y-55280000D01*
X112194857Y-55337143D01*
X112252000Y-55451429D01*
X112252000Y-55565714D01*
X112194857Y-55737143D01*
X111509143Y-56422857D01*
X112252000Y-56422857D01*
X113337714Y-55222857D02*
X112766285Y-55222857D01*
X112709142Y-55794286D01*
X112766285Y-55737143D01*
X112880571Y-55680000D01*
X113166285Y-55680000D01*
X113280571Y-55737143D01*
X113337714Y-55794286D01*
X113394857Y-55908571D01*
X113394857Y-56194286D01*
X113337714Y-56308571D01*
X113280571Y-56365714D01*
X113166285Y-56422857D01*
X112880571Y-56422857D01*
X112766285Y-56365714D01*
X112709142Y-56308571D01*
X113909142Y-55965714D02*
X114823428Y-55965714D01*
X115280571Y-55222857D02*
X116023428Y-55222857D01*
X115623428Y-55680000D01*
X115794856Y-55680000D01*
X115909142Y-55737143D01*
X115966285Y-55794286D01*
X116023428Y-55908571D01*
X116023428Y-56194286D01*
X115966285Y-56308571D01*
X115909142Y-56365714D01*
X115794856Y-56422857D01*
X115451999Y-56422857D01*
X115337713Y-56365714D01*
X115280571Y-56308571D01*
X116480570Y-55337143D02*
X116537713Y-55280000D01*
X116651999Y-55222857D01*
X116937713Y-55222857D01*
X117051999Y-55280000D01*
X117109142Y-55337143D01*
X117166285Y-55451429D01*
X117166285Y-55565714D01*
X117109142Y-55737143D01*
X116423428Y-56422857D01*
X117166285Y-56422857D01*
X142814857Y-52485857D02*
X142814857Y-51285857D01*
X143272000Y-51285857D01*
X143386286Y-51343000D01*
X143443429Y-51400143D01*
X143500572Y-51514429D01*
X143500572Y-51685857D01*
X143443429Y-51800143D01*
X143386286Y-51857286D01*
X143272000Y-51914429D01*
X142814857Y-51914429D01*
X143957714Y-51400143D02*
X144014857Y-51343000D01*
X144129143Y-51285857D01*
X144414857Y-51285857D01*
X144529143Y-51343000D01*
X144586286Y-51400143D01*
X144643429Y-51514429D01*
X144643429Y-51628714D01*
X144586286Y-51800143D01*
X143900572Y-52485857D01*
X144643429Y-52485857D01*
X145786286Y-52485857D02*
X145100571Y-52485857D01*
X145443429Y-52485857D02*
X145443429Y-51285857D01*
X145329143Y-51457286D01*
X145214857Y-51571571D01*
X145100571Y-51628714D01*
X143437500Y-50403071D02*
X143380357Y-50460214D01*
X143208928Y-50517357D01*
X143094642Y-50517357D01*
X142923214Y-50460214D01*
X142808928Y-50345929D01*
X142751785Y-50231643D01*
X142694642Y-50003071D01*
X142694642Y-49831643D01*
X142751785Y-49603071D01*
X142808928Y-49488786D01*
X142923214Y-49374500D01*
X143094642Y-49317357D01*
X143208928Y-49317357D01*
X143380357Y-49374500D01*
X143437500Y-49431643D01*
X144123214Y-50517357D02*
X144008928Y-50460214D01*
X143951785Y-50345929D01*
X143951785Y-49317357D01*
X144751785Y-50517357D02*
X144637499Y-50460214D01*
X144580356Y-50403071D01*
X144523213Y-50288786D01*
X144523213Y-49945929D01*
X144580356Y-49831643D01*
X144637499Y-49774500D01*
X144751785Y-49717357D01*
X144923213Y-49717357D01*
X145037499Y-49774500D01*
X145094642Y-49831643D01*
X145151785Y-49945929D01*
X145151785Y-50288786D01*
X145094642Y-50403071D01*
X145037499Y-50460214D01*
X144923213Y-50517357D01*
X144751785Y-50517357D01*
X145666070Y-49717357D02*
X145666070Y-50517357D01*
X145666070Y-49831643D02*
X145723213Y-49774500D01*
X145837499Y-49717357D01*
X146008927Y-49717357D01*
X146123213Y-49774500D01*
X146180356Y-49888786D01*
X146180356Y-50517357D01*
X147208927Y-50460214D02*
X147094641Y-50517357D01*
X146866070Y-50517357D01*
X146751784Y-50460214D01*
X146694641Y-50345929D01*
X146694641Y-49888786D01*
X146751784Y-49774500D01*
X146866070Y-49717357D01*
X147094641Y-49717357D01*
X147208927Y-49774500D01*
X147266070Y-49888786D01*
X147266070Y-50003071D01*
X146694641Y-50117357D01*
X149266070Y-50517357D02*
X148694641Y-50517357D01*
X148694641Y-49317357D01*
X149666070Y-50517357D02*
X149666070Y-49317357D01*
X150237499Y-50517357D02*
X150237499Y-49317357D01*
X150637499Y-50174500D01*
X151037499Y-49317357D01*
X151037499Y-50517357D01*
X151608928Y-50517357D02*
X151608928Y-49317357D01*
X152008929Y-49317357D02*
X152694643Y-49317357D01*
X152351786Y-50517357D02*
X152351786Y-49317357D01*
X153019071Y-98815499D02*
X153076214Y-98872642D01*
X153133357Y-99044071D01*
X153133357Y-99158357D01*
X153076214Y-99329785D01*
X152961929Y-99444071D01*
X152847643Y-99501214D01*
X152619071Y-99558357D01*
X152447643Y-99558357D01*
X152219071Y-99501214D01*
X152104786Y-99444071D01*
X151990500Y-99329785D01*
X151933357Y-99158357D01*
X151933357Y-99044071D01*
X151990500Y-98872642D01*
X152047643Y-98815499D01*
X153133357Y-97672642D02*
X153133357Y-98358357D01*
X153133357Y-98015499D02*
X151933357Y-98015499D01*
X152104786Y-98129785D01*
X152219071Y-98244071D01*
X152276214Y-98358357D01*
X161832857Y-94230643D02*
X160632857Y-94230643D01*
X160632857Y-93773500D01*
X160690000Y-93659214D01*
X160747143Y-93602071D01*
X160861429Y-93544928D01*
X161032857Y-93544928D01*
X161147143Y-93602071D01*
X161204286Y-93659214D01*
X161261429Y-93773500D01*
X161261429Y-94230643D01*
X161832857Y-92402071D02*
X161832857Y-93087786D01*
X161832857Y-92744928D02*
X160632857Y-92744928D01*
X160804286Y-92859214D01*
X160918571Y-92973500D01*
X160975714Y-93087786D01*
X161832857Y-91259214D02*
X161832857Y-91944929D01*
X161832857Y-91602071D02*
X160632857Y-91602071D01*
X160804286Y-91716357D01*
X160918571Y-91830643D01*
X160975714Y-91944929D01*
X153450857Y-95395285D02*
X152250857Y-95395285D01*
X153108000Y-94995285D01*
X152250857Y-94595285D01*
X153450857Y-94595285D01*
X153450857Y-94023856D02*
X152650857Y-94023856D01*
X152250857Y-94023856D02*
X152308000Y-94080999D01*
X152365143Y-94023856D01*
X152308000Y-93966713D01*
X152250857Y-94023856D01*
X152365143Y-94023856D01*
X153393714Y-92938141D02*
X153450857Y-93052427D01*
X153450857Y-93280998D01*
X153393714Y-93395284D01*
X153336571Y-93452427D01*
X153222286Y-93509570D01*
X152879429Y-93509570D01*
X152765143Y-93452427D01*
X152708000Y-93395284D01*
X152650857Y-93280998D01*
X152650857Y-93052427D01*
X152708000Y-92938141D01*
X153450857Y-92423856D02*
X152650857Y-92423856D01*
X152879429Y-92423856D02*
X152765143Y-92366713D01*
X152708000Y-92309570D01*
X152650857Y-92195284D01*
X152650857Y-92080999D01*
X153450857Y-91509570D02*
X153393714Y-91623856D01*
X153336571Y-91680999D01*
X153222286Y-91738142D01*
X152879429Y-91738142D01*
X152765143Y-91680999D01*
X152708000Y-91623856D01*
X152650857Y-91509570D01*
X152650857Y-91338142D01*
X152708000Y-91223856D01*
X152765143Y-91166713D01*
X152879429Y-91109570D01*
X153222286Y-91109570D01*
X153336571Y-91166713D01*
X153393714Y-91223856D01*
X153450857Y-91338142D01*
X153450857Y-91509570D01*
X153393714Y-90652428D02*
X153450857Y-90480999D01*
X153450857Y-90195285D01*
X153393714Y-90080999D01*
X153336571Y-90023856D01*
X153222286Y-89966713D01*
X153108000Y-89966713D01*
X152993714Y-90023856D01*
X152936571Y-90080999D01*
X152879429Y-90195285D01*
X152822286Y-90423856D01*
X152765143Y-90538142D01*
X152708000Y-90595285D01*
X152593714Y-90652428D01*
X152479429Y-90652428D01*
X152365143Y-90595285D01*
X152308000Y-90538142D01*
X152250857Y-90423856D01*
X152250857Y-90138142D01*
X152308000Y-89966713D01*
X152650857Y-89623856D02*
X152650857Y-89166713D01*
X152250857Y-89452428D02*
X153279429Y-89452428D01*
X153393714Y-89395285D01*
X153450857Y-89280999D01*
X153450857Y-89166713D01*
X153393714Y-88309571D02*
X153450857Y-88423857D01*
X153450857Y-88652428D01*
X153393714Y-88766714D01*
X153279429Y-88823857D01*
X152822286Y-88823857D01*
X152708000Y-88766714D01*
X152650857Y-88652428D01*
X152650857Y-88423857D01*
X152708000Y-88309571D01*
X152822286Y-88252428D01*
X152936571Y-88252428D01*
X153050857Y-88823857D01*
X152650857Y-87738143D02*
X153850857Y-87738143D01*
X152708000Y-87738143D02*
X152650857Y-87623857D01*
X152650857Y-87395286D01*
X152708000Y-87281000D01*
X152765143Y-87223857D01*
X152879429Y-87166714D01*
X153222286Y-87166714D01*
X153336571Y-87223857D01*
X153393714Y-87281000D01*
X153450857Y-87395286D01*
X153450857Y-87623857D01*
X153393714Y-87738143D01*
X152250857Y-86309572D02*
X153108000Y-86309572D01*
X153279429Y-86366714D01*
X153393714Y-86481000D01*
X153450857Y-86652429D01*
X153450857Y-86766714D01*
X153450857Y-85738143D02*
X152250857Y-85738143D01*
X152250857Y-85281000D01*
X152308000Y-85166714D01*
X152365143Y-85109571D01*
X152479429Y-85052428D01*
X152650857Y-85052428D01*
X152765143Y-85109571D01*
X152822286Y-85166714D01*
X152879429Y-85281000D01*
X152879429Y-85738143D01*
X152879429Y-83395285D02*
X153450857Y-83395285D01*
X152250857Y-83795285D02*
X152879429Y-83395285D01*
X152250857Y-82995285D01*
X145735857Y-87474357D02*
X145735857Y-86274357D01*
X146193000Y-86274357D01*
X146307286Y-86331500D01*
X146364429Y-86388643D01*
X146421572Y-86502929D01*
X146421572Y-86674357D01*
X146364429Y-86788643D01*
X146307286Y-86845786D01*
X146193000Y-86902929D01*
X145735857Y-86902929D01*
X147564429Y-87474357D02*
X146878714Y-87474357D01*
X147221572Y-87474357D02*
X147221572Y-86274357D01*
X147107286Y-86445786D01*
X146993000Y-86560071D01*
X146878714Y-86617214D01*
X148021571Y-86388643D02*
X148078714Y-86331500D01*
X148193000Y-86274357D01*
X148478714Y-86274357D01*
X148593000Y-86331500D01*
X148650143Y-86388643D01*
X148707286Y-86502929D01*
X148707286Y-86617214D01*
X148650143Y-86788643D01*
X147964429Y-87474357D01*
X148707286Y-87474357D01*
X147672357Y-105914428D02*
X146472357Y-105914428D01*
X147329500Y-105514428D01*
X146472357Y-105114428D01*
X147672357Y-105114428D01*
X147672357Y-104371570D02*
X147615214Y-104485856D01*
X147558071Y-104542999D01*
X147443786Y-104600142D01*
X147100929Y-104600142D01*
X146986643Y-104542999D01*
X146929500Y-104485856D01*
X146872357Y-104371570D01*
X146872357Y-104200142D01*
X146929500Y-104085856D01*
X146986643Y-104028713D01*
X147100929Y-103971570D01*
X147443786Y-103971570D01*
X147558071Y-104028713D01*
X147615214Y-104085856D01*
X147672357Y-104200142D01*
X147672357Y-104371570D01*
X146872357Y-103628713D02*
X146872357Y-103171570D01*
X146472357Y-103457285D02*
X147500929Y-103457285D01*
X147615214Y-103400142D01*
X147672357Y-103285856D01*
X147672357Y-103171570D01*
X147672357Y-102600142D02*
X147615214Y-102714428D01*
X147558071Y-102771571D01*
X147443786Y-102828714D01*
X147100929Y-102828714D01*
X146986643Y-102771571D01*
X146929500Y-102714428D01*
X146872357Y-102600142D01*
X146872357Y-102428714D01*
X146929500Y-102314428D01*
X146986643Y-102257285D01*
X147100929Y-102200142D01*
X147443786Y-102200142D01*
X147558071Y-102257285D01*
X147615214Y-102314428D01*
X147672357Y-102428714D01*
X147672357Y-102600142D01*
X147672357Y-101685857D02*
X146872357Y-101685857D01*
X147100929Y-101685857D02*
X146986643Y-101628714D01*
X146929500Y-101571571D01*
X146872357Y-101457285D01*
X146872357Y-101343000D01*
X147100929Y-99800142D02*
X147672357Y-99800142D01*
X146472357Y-100200142D02*
X147100929Y-99800142D01*
X146472357Y-99400142D01*
X133016571Y-98751999D02*
X133073714Y-98809142D01*
X133130857Y-98980571D01*
X133130857Y-99094857D01*
X133073714Y-99266285D01*
X132959429Y-99380571D01*
X132845143Y-99437714D01*
X132616571Y-99494857D01*
X132445143Y-99494857D01*
X132216571Y-99437714D01*
X132102286Y-99380571D01*
X131988000Y-99266285D01*
X131930857Y-99094857D01*
X131930857Y-98980571D01*
X131988000Y-98809142D01*
X132045143Y-98751999D01*
X131930857Y-98351999D02*
X131930857Y-97551999D01*
X133130857Y-98066285D01*
X141322357Y-94167214D02*
X140122357Y-94167214D01*
X140122357Y-93710071D01*
X140179500Y-93595785D01*
X140236643Y-93538642D01*
X140350929Y-93481499D01*
X140522357Y-93481499D01*
X140636643Y-93538642D01*
X140693786Y-93595785D01*
X140750929Y-93710071D01*
X140750929Y-94167214D01*
X141322357Y-92910071D02*
X141322357Y-92681499D01*
X141265214Y-92567214D01*
X141208071Y-92510071D01*
X141036643Y-92395785D01*
X140808071Y-92338642D01*
X140350929Y-92338642D01*
X140236643Y-92395785D01*
X140179500Y-92452928D01*
X140122357Y-92567214D01*
X140122357Y-92795785D01*
X140179500Y-92910071D01*
X140236643Y-92967214D01*
X140350929Y-93024357D01*
X140636643Y-93024357D01*
X140750929Y-92967214D01*
X140808071Y-92910071D01*
X140865214Y-92795785D01*
X140865214Y-92567214D01*
X140808071Y-92452928D01*
X140750929Y-92395785D01*
X140636643Y-92338642D01*
X133130857Y-95833428D02*
X131930857Y-95833428D01*
X132788000Y-95433428D01*
X131930857Y-95033428D01*
X133130857Y-95033428D01*
X133130857Y-94461999D02*
X132330857Y-94461999D01*
X131930857Y-94461999D02*
X131988000Y-94519142D01*
X132045143Y-94461999D01*
X131988000Y-94404856D01*
X131930857Y-94461999D01*
X132045143Y-94461999D01*
X133073714Y-93376284D02*
X133130857Y-93490570D01*
X133130857Y-93719141D01*
X133073714Y-93833427D01*
X133016571Y-93890570D01*
X132902286Y-93947713D01*
X132559429Y-93947713D01*
X132445143Y-93890570D01*
X132388000Y-93833427D01*
X132330857Y-93719141D01*
X132330857Y-93490570D01*
X132388000Y-93376284D01*
X133130857Y-92861999D02*
X132330857Y-92861999D01*
X132559429Y-92861999D02*
X132445143Y-92804856D01*
X132388000Y-92747713D01*
X132330857Y-92633427D01*
X132330857Y-92519142D01*
X133130857Y-91947713D02*
X133073714Y-92061999D01*
X133016571Y-92119142D01*
X132902286Y-92176285D01*
X132559429Y-92176285D01*
X132445143Y-92119142D01*
X132388000Y-92061999D01*
X132330857Y-91947713D01*
X132330857Y-91776285D01*
X132388000Y-91661999D01*
X132445143Y-91604856D01*
X132559429Y-91547713D01*
X132902286Y-91547713D01*
X133016571Y-91604856D01*
X133073714Y-91661999D01*
X133130857Y-91776285D01*
X133130857Y-91947713D01*
X133073714Y-91090571D02*
X133130857Y-90919142D01*
X133130857Y-90633428D01*
X133073714Y-90519142D01*
X133016571Y-90461999D01*
X132902286Y-90404856D01*
X132788000Y-90404856D01*
X132673714Y-90461999D01*
X132616571Y-90519142D01*
X132559429Y-90633428D01*
X132502286Y-90861999D01*
X132445143Y-90976285D01*
X132388000Y-91033428D01*
X132273714Y-91090571D01*
X132159429Y-91090571D01*
X132045143Y-91033428D01*
X131988000Y-90976285D01*
X131930857Y-90861999D01*
X131930857Y-90576285D01*
X131988000Y-90404856D01*
X132330857Y-90061999D02*
X132330857Y-89604856D01*
X131930857Y-89890571D02*
X132959429Y-89890571D01*
X133073714Y-89833428D01*
X133130857Y-89719142D01*
X133130857Y-89604856D01*
X133073714Y-88747714D02*
X133130857Y-88862000D01*
X133130857Y-89090571D01*
X133073714Y-89204857D01*
X132959429Y-89262000D01*
X132502286Y-89262000D01*
X132388000Y-89204857D01*
X132330857Y-89090571D01*
X132330857Y-88862000D01*
X132388000Y-88747714D01*
X132502286Y-88690571D01*
X132616571Y-88690571D01*
X132730857Y-89262000D01*
X132330857Y-88176286D02*
X133530857Y-88176286D01*
X132388000Y-88176286D02*
X132330857Y-88062000D01*
X132330857Y-87833429D01*
X132388000Y-87719143D01*
X132445143Y-87662000D01*
X132559429Y-87604857D01*
X132902286Y-87604857D01*
X133016571Y-87662000D01*
X133073714Y-87719143D01*
X133130857Y-87833429D01*
X133130857Y-88062000D01*
X133073714Y-88176286D01*
X131930857Y-86747715D02*
X132788000Y-86747715D01*
X132959429Y-86804857D01*
X133073714Y-86919143D01*
X133130857Y-87090572D01*
X133130857Y-87204857D01*
X133130857Y-86176286D02*
X131930857Y-86176286D01*
X131930857Y-85719143D01*
X131988000Y-85604857D01*
X132045143Y-85547714D01*
X132159429Y-85490571D01*
X132330857Y-85490571D01*
X132445143Y-85547714D01*
X132502286Y-85604857D01*
X132559429Y-85719143D01*
X132559429Y-86176286D01*
X131930857Y-84176285D02*
X133130857Y-83376285D01*
X131930857Y-83376285D02*
X133130857Y-84176285D01*
X125352357Y-87537857D02*
X125352357Y-86337857D01*
X125809500Y-86337857D01*
X125923786Y-86395000D01*
X125980929Y-86452143D01*
X126038072Y-86566429D01*
X126038072Y-86737857D01*
X125980929Y-86852143D01*
X125923786Y-86909286D01*
X125809500Y-86966429D01*
X125352357Y-86966429D01*
X127180929Y-87537857D02*
X126495214Y-87537857D01*
X126838072Y-87537857D02*
X126838072Y-86337857D01*
X126723786Y-86509286D01*
X126609500Y-86623571D01*
X126495214Y-86680714D01*
X127923786Y-86337857D02*
X128038071Y-86337857D01*
X128152357Y-86395000D01*
X128209500Y-86452143D01*
X128266643Y-86566429D01*
X128323786Y-86795000D01*
X128323786Y-87080714D01*
X128266643Y-87309286D01*
X128209500Y-87423571D01*
X128152357Y-87480714D01*
X128038071Y-87537857D01*
X127923786Y-87537857D01*
X127809500Y-87480714D01*
X127752357Y-87423571D01*
X127695214Y-87309286D01*
X127638071Y-87080714D01*
X127638071Y-86795000D01*
X127695214Y-86566429D01*
X127752357Y-86452143D01*
X127809500Y-86395000D01*
X127923786Y-86337857D01*
X127415857Y-106035071D02*
X126215857Y-106035071D01*
X127073000Y-105635071D01*
X126215857Y-105235071D01*
X127415857Y-105235071D01*
X127415857Y-104492213D02*
X127358714Y-104606499D01*
X127301571Y-104663642D01*
X127187286Y-104720785D01*
X126844429Y-104720785D01*
X126730143Y-104663642D01*
X126673000Y-104606499D01*
X126615857Y-104492213D01*
X126615857Y-104320785D01*
X126673000Y-104206499D01*
X126730143Y-104149356D01*
X126844429Y-104092213D01*
X127187286Y-104092213D01*
X127301571Y-104149356D01*
X127358714Y-104206499D01*
X127415857Y-104320785D01*
X127415857Y-104492213D01*
X126615857Y-103749356D02*
X126615857Y-103292213D01*
X126215857Y-103577928D02*
X127244429Y-103577928D01*
X127358714Y-103520785D01*
X127415857Y-103406499D01*
X127415857Y-103292213D01*
X127415857Y-102720785D02*
X127358714Y-102835071D01*
X127301571Y-102892214D01*
X127187286Y-102949357D01*
X126844429Y-102949357D01*
X126730143Y-102892214D01*
X126673000Y-102835071D01*
X126615857Y-102720785D01*
X126615857Y-102549357D01*
X126673000Y-102435071D01*
X126730143Y-102377928D01*
X126844429Y-102320785D01*
X127187286Y-102320785D01*
X127301571Y-102377928D01*
X127358714Y-102435071D01*
X127415857Y-102549357D01*
X127415857Y-102720785D01*
X127415857Y-101806500D02*
X126615857Y-101806500D01*
X126844429Y-101806500D02*
X126730143Y-101749357D01*
X126673000Y-101692214D01*
X126615857Y-101577928D01*
X126615857Y-101463643D01*
X126215857Y-100263642D02*
X127415857Y-99463642D01*
X126215857Y-99463642D02*
X127415857Y-100263642D01*
X165738357Y-61185357D02*
X165738357Y-59985357D01*
X166195500Y-59985357D01*
X166309786Y-60042500D01*
X166366929Y-60099643D01*
X166424072Y-60213929D01*
X166424072Y-60385357D01*
X166366929Y-60499643D01*
X166309786Y-60556786D01*
X166195500Y-60613929D01*
X165738357Y-60613929D01*
X167566929Y-61185357D02*
X166881214Y-61185357D01*
X167224072Y-61185357D02*
X167224072Y-59985357D01*
X167109786Y-60156786D01*
X166995500Y-60271071D01*
X166881214Y-60328214D01*
X168595500Y-60385357D02*
X168595500Y-61185357D01*
X168309786Y-59928214D02*
X168024071Y-60785357D01*
X168766929Y-60785357D01*
X167801857Y-79809571D02*
X166601857Y-79809571D01*
X167459000Y-79409571D01*
X166601857Y-79009571D01*
X167801857Y-79009571D01*
X167801857Y-78266713D02*
X167744714Y-78380999D01*
X167687571Y-78438142D01*
X167573286Y-78495285D01*
X167230429Y-78495285D01*
X167116143Y-78438142D01*
X167059000Y-78380999D01*
X167001857Y-78266713D01*
X167001857Y-78095285D01*
X167059000Y-77980999D01*
X167116143Y-77923856D01*
X167230429Y-77866713D01*
X167573286Y-77866713D01*
X167687571Y-77923856D01*
X167744714Y-77980999D01*
X167801857Y-78095285D01*
X167801857Y-78266713D01*
X167001857Y-77523856D02*
X167001857Y-77066713D01*
X166601857Y-77352428D02*
X167630429Y-77352428D01*
X167744714Y-77295285D01*
X167801857Y-77180999D01*
X167801857Y-77066713D01*
X167801857Y-76495285D02*
X167744714Y-76609571D01*
X167687571Y-76666714D01*
X167573286Y-76723857D01*
X167230429Y-76723857D01*
X167116143Y-76666714D01*
X167059000Y-76609571D01*
X167001857Y-76495285D01*
X167001857Y-76323857D01*
X167059000Y-76209571D01*
X167116143Y-76152428D01*
X167230429Y-76095285D01*
X167573286Y-76095285D01*
X167687571Y-76152428D01*
X167744714Y-76209571D01*
X167801857Y-76323857D01*
X167801857Y-76495285D01*
X167801857Y-75581000D02*
X167001857Y-75581000D01*
X167230429Y-75581000D02*
X167116143Y-75523857D01*
X167059000Y-75466714D01*
X167001857Y-75352428D01*
X167001857Y-75238143D01*
X166601857Y-74038142D02*
X166601857Y-73238142D01*
X167801857Y-74038142D01*
X167801857Y-73238142D01*
X181708357Y-67560643D02*
X180508357Y-67560643D01*
X180508357Y-67103500D01*
X180565500Y-66989214D01*
X180622643Y-66932071D01*
X180736929Y-66874928D01*
X180908357Y-66874928D01*
X181022643Y-66932071D01*
X181079786Y-66989214D01*
X181136929Y-67103500D01*
X181136929Y-67560643D01*
X181708357Y-65732071D02*
X181708357Y-66417786D01*
X181708357Y-66074928D02*
X180508357Y-66074928D01*
X180679786Y-66189214D01*
X180794071Y-66303500D01*
X180851214Y-66417786D01*
X180508357Y-65332071D02*
X180508357Y-64589214D01*
X180965500Y-64989214D01*
X180965500Y-64817786D01*
X181022643Y-64703500D01*
X181079786Y-64646357D01*
X181194071Y-64589214D01*
X181479786Y-64589214D01*
X181594071Y-64646357D01*
X181651214Y-64703500D01*
X181708357Y-64817786D01*
X181708357Y-65160643D01*
X181651214Y-65274929D01*
X181594071Y-65332071D01*
X173516857Y-69353928D02*
X172316857Y-69353928D01*
X173174000Y-68953928D01*
X172316857Y-68553928D01*
X173516857Y-68553928D01*
X173516857Y-67982499D02*
X172716857Y-67982499D01*
X172316857Y-67982499D02*
X172374000Y-68039642D01*
X172431143Y-67982499D01*
X172374000Y-67925356D01*
X172316857Y-67982499D01*
X172431143Y-67982499D01*
X173459714Y-66896784D02*
X173516857Y-67011070D01*
X173516857Y-67239641D01*
X173459714Y-67353927D01*
X173402571Y-67411070D01*
X173288286Y-67468213D01*
X172945429Y-67468213D01*
X172831143Y-67411070D01*
X172774000Y-67353927D01*
X172716857Y-67239641D01*
X172716857Y-67011070D01*
X172774000Y-66896784D01*
X173516857Y-66382499D02*
X172716857Y-66382499D01*
X172945429Y-66382499D02*
X172831143Y-66325356D01*
X172774000Y-66268213D01*
X172716857Y-66153927D01*
X172716857Y-66039642D01*
X173516857Y-65468213D02*
X173459714Y-65582499D01*
X173402571Y-65639642D01*
X173288286Y-65696785D01*
X172945429Y-65696785D01*
X172831143Y-65639642D01*
X172774000Y-65582499D01*
X172716857Y-65468213D01*
X172716857Y-65296785D01*
X172774000Y-65182499D01*
X172831143Y-65125356D01*
X172945429Y-65068213D01*
X173288286Y-65068213D01*
X173402571Y-65125356D01*
X173459714Y-65182499D01*
X173516857Y-65296785D01*
X173516857Y-65468213D01*
X173459714Y-64611071D02*
X173516857Y-64439642D01*
X173516857Y-64153928D01*
X173459714Y-64039642D01*
X173402571Y-63982499D01*
X173288286Y-63925356D01*
X173174000Y-63925356D01*
X173059714Y-63982499D01*
X173002571Y-64039642D01*
X172945429Y-64153928D01*
X172888286Y-64382499D01*
X172831143Y-64496785D01*
X172774000Y-64553928D01*
X172659714Y-64611071D01*
X172545429Y-64611071D01*
X172431143Y-64553928D01*
X172374000Y-64496785D01*
X172316857Y-64382499D01*
X172316857Y-64096785D01*
X172374000Y-63925356D01*
X172716857Y-63582499D02*
X172716857Y-63125356D01*
X172316857Y-63411071D02*
X173345429Y-63411071D01*
X173459714Y-63353928D01*
X173516857Y-63239642D01*
X173516857Y-63125356D01*
X173459714Y-62268214D02*
X173516857Y-62382500D01*
X173516857Y-62611071D01*
X173459714Y-62725357D01*
X173345429Y-62782500D01*
X172888286Y-62782500D01*
X172774000Y-62725357D01*
X172716857Y-62611071D01*
X172716857Y-62382500D01*
X172774000Y-62268214D01*
X172888286Y-62211071D01*
X173002571Y-62211071D01*
X173116857Y-62782500D01*
X172716857Y-61696786D02*
X173916857Y-61696786D01*
X172774000Y-61696786D02*
X172716857Y-61582500D01*
X172716857Y-61353929D01*
X172774000Y-61239643D01*
X172831143Y-61182500D01*
X172945429Y-61125357D01*
X173288286Y-61125357D01*
X173402571Y-61182500D01*
X173459714Y-61239643D01*
X173516857Y-61353929D01*
X173516857Y-61582500D01*
X173459714Y-61696786D01*
X172316857Y-60268215D02*
X173174000Y-60268215D01*
X173345429Y-60325357D01*
X173459714Y-60439643D01*
X173516857Y-60611072D01*
X173516857Y-60725357D01*
X173516857Y-59696786D02*
X172316857Y-59696786D01*
X172316857Y-59239643D01*
X172374000Y-59125357D01*
X172431143Y-59068214D01*
X172545429Y-59011071D01*
X172716857Y-59011071D01*
X172831143Y-59068214D01*
X172888286Y-59125357D01*
X172945429Y-59239643D01*
X172945429Y-59696786D01*
X172316857Y-57696785D02*
X172316857Y-56896785D01*
X173516857Y-57696785D01*
X173516857Y-56896785D01*
X173466071Y-71891499D02*
X173523214Y-71948642D01*
X173580357Y-72120071D01*
X173580357Y-72234357D01*
X173523214Y-72405785D01*
X173408929Y-72520071D01*
X173294643Y-72577214D01*
X173066071Y-72634357D01*
X172894643Y-72634357D01*
X172666071Y-72577214D01*
X172551786Y-72520071D01*
X172437500Y-72405785D01*
X172380357Y-72234357D01*
X172380357Y-72120071D01*
X172437500Y-71948642D01*
X172494643Y-71891499D01*
X173580357Y-71320071D02*
X173580357Y-71091499D01*
X173523214Y-70977214D01*
X173466071Y-70920071D01*
X173294643Y-70805785D01*
X173066071Y-70748642D01*
X172608929Y-70748642D01*
X172494643Y-70805785D01*
X172437500Y-70862928D01*
X172380357Y-70977214D01*
X172380357Y-71205785D01*
X172437500Y-71320071D01*
X172494643Y-71377214D01*
X172608929Y-71434357D01*
X172894643Y-71434357D01*
X173008929Y-71377214D01*
X173066071Y-71320071D01*
X173123214Y-71205785D01*
X173123214Y-70977214D01*
X173066071Y-70862928D01*
X173008929Y-70805785D01*
X172894643Y-70748642D01*
X115490571Y-72208928D02*
X115547714Y-72266071D01*
X115604857Y-72437500D01*
X115604857Y-72551786D01*
X115547714Y-72723214D01*
X115433429Y-72837500D01*
X115319143Y-72894643D01*
X115090571Y-72951786D01*
X114919143Y-72951786D01*
X114690571Y-72894643D01*
X114576286Y-72837500D01*
X114462000Y-72723214D01*
X114404857Y-72551786D01*
X114404857Y-72437500D01*
X114462000Y-72266071D01*
X114519143Y-72208928D01*
X115604857Y-71066071D02*
X115604857Y-71751786D01*
X115604857Y-71408928D02*
X114404857Y-71408928D01*
X114576286Y-71523214D01*
X114690571Y-71637500D01*
X114747714Y-71751786D01*
X114404857Y-69980357D02*
X114404857Y-70551786D01*
X114976286Y-70608929D01*
X114919143Y-70551786D01*
X114862000Y-70437500D01*
X114862000Y-70151786D01*
X114919143Y-70037500D01*
X114976286Y-69980357D01*
X115090571Y-69923214D01*
X115376286Y-69923214D01*
X115490571Y-69980357D01*
X115547714Y-70037500D01*
X115604857Y-70151786D01*
X115604857Y-70437500D01*
X115547714Y-70551786D01*
X115490571Y-70608929D01*
X115414357Y-67878143D02*
X114214357Y-67878143D01*
X114214357Y-67421000D01*
X114271500Y-67306714D01*
X114328643Y-67249571D01*
X114442929Y-67192428D01*
X114614357Y-67192428D01*
X114728643Y-67249571D01*
X114785786Y-67306714D01*
X114842929Y-67421000D01*
X114842929Y-67878143D01*
X115414357Y-66049571D02*
X115414357Y-66735286D01*
X115414357Y-66392428D02*
X114214357Y-66392428D01*
X114385786Y-66506714D01*
X114500071Y-66621000D01*
X114557214Y-66735286D01*
X114214357Y-65649571D02*
X114214357Y-64849571D01*
X115414357Y-65363857D01*
X107032357Y-69423785D02*
X105832357Y-69423785D01*
X106689500Y-69023785D01*
X105832357Y-68623785D01*
X107032357Y-68623785D01*
X107032357Y-68052356D02*
X106232357Y-68052356D01*
X105832357Y-68052356D02*
X105889500Y-68109499D01*
X105946643Y-68052356D01*
X105889500Y-67995213D01*
X105832357Y-68052356D01*
X105946643Y-68052356D01*
X106975214Y-66966641D02*
X107032357Y-67080927D01*
X107032357Y-67309498D01*
X106975214Y-67423784D01*
X106918071Y-67480927D01*
X106803786Y-67538070D01*
X106460929Y-67538070D01*
X106346643Y-67480927D01*
X106289500Y-67423784D01*
X106232357Y-67309498D01*
X106232357Y-67080927D01*
X106289500Y-66966641D01*
X107032357Y-66452356D02*
X106232357Y-66452356D01*
X106460929Y-66452356D02*
X106346643Y-66395213D01*
X106289500Y-66338070D01*
X106232357Y-66223784D01*
X106232357Y-66109499D01*
X107032357Y-65538070D02*
X106975214Y-65652356D01*
X106918071Y-65709499D01*
X106803786Y-65766642D01*
X106460929Y-65766642D01*
X106346643Y-65709499D01*
X106289500Y-65652356D01*
X106232357Y-65538070D01*
X106232357Y-65366642D01*
X106289500Y-65252356D01*
X106346643Y-65195213D01*
X106460929Y-65138070D01*
X106803786Y-65138070D01*
X106918071Y-65195213D01*
X106975214Y-65252356D01*
X107032357Y-65366642D01*
X107032357Y-65538070D01*
X106975214Y-64680928D02*
X107032357Y-64509499D01*
X107032357Y-64223785D01*
X106975214Y-64109499D01*
X106918071Y-64052356D01*
X106803786Y-63995213D01*
X106689500Y-63995213D01*
X106575214Y-64052356D01*
X106518071Y-64109499D01*
X106460929Y-64223785D01*
X106403786Y-64452356D01*
X106346643Y-64566642D01*
X106289500Y-64623785D01*
X106175214Y-64680928D01*
X106060929Y-64680928D01*
X105946643Y-64623785D01*
X105889500Y-64566642D01*
X105832357Y-64452356D01*
X105832357Y-64166642D01*
X105889500Y-63995213D01*
X106232357Y-63652356D02*
X106232357Y-63195213D01*
X105832357Y-63480928D02*
X106860929Y-63480928D01*
X106975214Y-63423785D01*
X107032357Y-63309499D01*
X107032357Y-63195213D01*
X106975214Y-62338071D02*
X107032357Y-62452357D01*
X107032357Y-62680928D01*
X106975214Y-62795214D01*
X106860929Y-62852357D01*
X106403786Y-62852357D01*
X106289500Y-62795214D01*
X106232357Y-62680928D01*
X106232357Y-62452357D01*
X106289500Y-62338071D01*
X106403786Y-62280928D01*
X106518071Y-62280928D01*
X106632357Y-62852357D01*
X106232357Y-61766643D02*
X107432357Y-61766643D01*
X106289500Y-61766643D02*
X106232357Y-61652357D01*
X106232357Y-61423786D01*
X106289500Y-61309500D01*
X106346643Y-61252357D01*
X106460929Y-61195214D01*
X106803786Y-61195214D01*
X106918071Y-61252357D01*
X106975214Y-61309500D01*
X107032357Y-61423786D01*
X107032357Y-61652357D01*
X106975214Y-61766643D01*
X105832357Y-60338072D02*
X106689500Y-60338072D01*
X106860929Y-60395214D01*
X106975214Y-60509500D01*
X107032357Y-60680929D01*
X107032357Y-60795214D01*
X107032357Y-59766643D02*
X105832357Y-59766643D01*
X105832357Y-59309500D01*
X105889500Y-59195214D01*
X105946643Y-59138071D01*
X106060929Y-59080928D01*
X106232357Y-59080928D01*
X106346643Y-59138071D01*
X106403786Y-59195214D01*
X106460929Y-59309500D01*
X106460929Y-59766643D01*
X106689500Y-57709500D02*
X106689500Y-57138071D01*
X107032357Y-57823785D02*
X105832357Y-57423785D01*
X107032357Y-57023785D01*
X99380857Y-61312357D02*
X99380857Y-60112357D01*
X99838000Y-60112357D01*
X99952286Y-60169500D01*
X100009429Y-60226643D01*
X100066572Y-60340929D01*
X100066572Y-60512357D01*
X100009429Y-60626643D01*
X99952286Y-60683786D01*
X99838000Y-60740929D01*
X99380857Y-60740929D01*
X101209429Y-61312357D02*
X100523714Y-61312357D01*
X100866572Y-61312357D02*
X100866572Y-60112357D01*
X100752286Y-60283786D01*
X100638000Y-60398071D01*
X100523714Y-60455214D01*
X101780857Y-61312357D02*
X102009429Y-61312357D01*
X102123714Y-61255214D01*
X102180857Y-61198071D01*
X102295143Y-61026643D01*
X102352286Y-60798071D01*
X102352286Y-60340929D01*
X102295143Y-60226643D01*
X102238000Y-60169500D01*
X102123714Y-60112357D01*
X101895143Y-60112357D01*
X101780857Y-60169500D01*
X101723714Y-60226643D01*
X101666571Y-60340929D01*
X101666571Y-60626643D01*
X101723714Y-60740929D01*
X101780857Y-60798071D01*
X101895143Y-60855214D01*
X102123714Y-60855214D01*
X102238000Y-60798071D01*
X102295143Y-60740929D01*
X102352286Y-60626643D01*
X101253857Y-79752428D02*
X100053857Y-79752428D01*
X100911000Y-79352428D01*
X100053857Y-78952428D01*
X101253857Y-78952428D01*
X101253857Y-78209570D02*
X101196714Y-78323856D01*
X101139571Y-78380999D01*
X101025286Y-78438142D01*
X100682429Y-78438142D01*
X100568143Y-78380999D01*
X100511000Y-78323856D01*
X100453857Y-78209570D01*
X100453857Y-78038142D01*
X100511000Y-77923856D01*
X100568143Y-77866713D01*
X100682429Y-77809570D01*
X101025286Y-77809570D01*
X101139571Y-77866713D01*
X101196714Y-77923856D01*
X101253857Y-78038142D01*
X101253857Y-78209570D01*
X100453857Y-77466713D02*
X100453857Y-77009570D01*
X100053857Y-77295285D02*
X101082429Y-77295285D01*
X101196714Y-77238142D01*
X101253857Y-77123856D01*
X101253857Y-77009570D01*
X101253857Y-76438142D02*
X101196714Y-76552428D01*
X101139571Y-76609571D01*
X101025286Y-76666714D01*
X100682429Y-76666714D01*
X100568143Y-76609571D01*
X100511000Y-76552428D01*
X100453857Y-76438142D01*
X100453857Y-76266714D01*
X100511000Y-76152428D01*
X100568143Y-76095285D01*
X100682429Y-76038142D01*
X101025286Y-76038142D01*
X101139571Y-76095285D01*
X101196714Y-76152428D01*
X101253857Y-76266714D01*
X101253857Y-76438142D01*
X101253857Y-75523857D02*
X100453857Y-75523857D01*
X100682429Y-75523857D02*
X100568143Y-75466714D01*
X100511000Y-75409571D01*
X100453857Y-75295285D01*
X100453857Y-75181000D01*
X100911000Y-73923857D02*
X100911000Y-73352428D01*
X101253857Y-74038142D02*
X100053857Y-73638142D01*
X101253857Y-73238142D01*
X142751357Y-71535857D02*
X142751357Y-70335857D01*
X143208500Y-70335857D01*
X143322786Y-70393000D01*
X143379929Y-70450143D01*
X143437072Y-70564429D01*
X143437072Y-70735857D01*
X143379929Y-70850143D01*
X143322786Y-70907286D01*
X143208500Y-70964429D01*
X142751357Y-70964429D01*
X144579929Y-71535857D02*
X143894214Y-71535857D01*
X144237072Y-71535857D02*
X144237072Y-70335857D01*
X144122786Y-70507286D01*
X144008500Y-70621571D01*
X143894214Y-70678714D01*
X145265643Y-70850143D02*
X145151357Y-70793000D01*
X145094214Y-70735857D01*
X145037071Y-70621571D01*
X145037071Y-70564429D01*
X145094214Y-70450143D01*
X145151357Y-70393000D01*
X145265643Y-70335857D01*
X145494214Y-70335857D01*
X145608500Y-70393000D01*
X145665643Y-70450143D01*
X145722786Y-70564429D01*
X145722786Y-70621571D01*
X145665643Y-70735857D01*
X145608500Y-70793000D01*
X145494214Y-70850143D01*
X145265643Y-70850143D01*
X145151357Y-70907286D01*
X145094214Y-70964429D01*
X145037071Y-71078714D01*
X145037071Y-71307286D01*
X145094214Y-71421571D01*
X145151357Y-71478714D01*
X145265643Y-71535857D01*
X145494214Y-71535857D01*
X145608500Y-71478714D01*
X145665643Y-71421571D01*
X145722786Y-71307286D01*
X145722786Y-71078714D01*
X145665643Y-70964429D01*
X145608500Y-70907286D01*
X145494214Y-70850143D01*
X143389787Y-69389571D02*
X143332644Y-69446714D01*
X143161215Y-69503857D01*
X143046929Y-69503857D01*
X142875501Y-69446714D01*
X142761215Y-69332429D01*
X142704072Y-69218143D01*
X142646929Y-68989571D01*
X142646929Y-68818143D01*
X142704072Y-68589571D01*
X142761215Y-68475286D01*
X142875501Y-68361000D01*
X143046929Y-68303857D01*
X143161215Y-68303857D01*
X143332644Y-68361000D01*
X143389787Y-68418143D01*
X144075501Y-69503857D02*
X143961215Y-69446714D01*
X143904072Y-69332429D01*
X143904072Y-68303857D01*
X144704072Y-69503857D02*
X144589786Y-69446714D01*
X144532643Y-69389571D01*
X144475500Y-69275286D01*
X144475500Y-68932429D01*
X144532643Y-68818143D01*
X144589786Y-68761000D01*
X144704072Y-68703857D01*
X144875500Y-68703857D01*
X144989786Y-68761000D01*
X145046929Y-68818143D01*
X145104072Y-68932429D01*
X145104072Y-69275286D01*
X145046929Y-69389571D01*
X144989786Y-69446714D01*
X144875500Y-69503857D01*
X144704072Y-69503857D01*
X145618357Y-68703857D02*
X145618357Y-69503857D01*
X145618357Y-68818143D02*
X145675500Y-68761000D01*
X145789786Y-68703857D01*
X145961214Y-68703857D01*
X146075500Y-68761000D01*
X146132643Y-68875286D01*
X146132643Y-69503857D01*
X147161214Y-69446714D02*
X147046928Y-69503857D01*
X146818357Y-69503857D01*
X146704071Y-69446714D01*
X146646928Y-69332429D01*
X146646928Y-68875286D01*
X146704071Y-68761000D01*
X146818357Y-68703857D01*
X147046928Y-68703857D01*
X147161214Y-68761000D01*
X147218357Y-68875286D01*
X147218357Y-68989571D01*
X146646928Y-69103857D01*
X148646928Y-69503857D02*
X148646928Y-68303857D01*
X148932643Y-68303857D01*
X149104071Y-68361000D01*
X149218357Y-68475286D01*
X149275500Y-68589571D01*
X149332643Y-68818143D01*
X149332643Y-68989571D01*
X149275500Y-69218143D01*
X149218357Y-69332429D01*
X149104071Y-69446714D01*
X148932643Y-69503857D01*
X148646928Y-69503857D01*
X149846928Y-69503857D02*
X149846928Y-68303857D01*
X151104072Y-69503857D02*
X150704072Y-68932429D01*
X150418357Y-69503857D02*
X150418357Y-68303857D01*
X150875500Y-68303857D01*
X150989786Y-68361000D01*
X151046929Y-68418143D01*
X151104072Y-68532429D01*
X151104072Y-68703857D01*
X151046929Y-68818143D01*
X150989786Y-68875286D01*
X150875500Y-68932429D01*
X150418357Y-68932429D01*
X142878357Y-62074357D02*
X142878357Y-60874357D01*
X143335500Y-60874357D01*
X143449786Y-60931500D01*
X143506929Y-60988643D01*
X143564072Y-61102929D01*
X143564072Y-61274357D01*
X143506929Y-61388643D01*
X143449786Y-61445786D01*
X143335500Y-61502929D01*
X142878357Y-61502929D01*
X144706929Y-62074357D02*
X144021214Y-62074357D01*
X144364072Y-62074357D02*
X144364072Y-60874357D01*
X144249786Y-61045786D01*
X144135500Y-61160071D01*
X144021214Y-61217214D01*
X145735500Y-60874357D02*
X145506929Y-60874357D01*
X145392643Y-60931500D01*
X145335500Y-60988643D01*
X145221214Y-61160071D01*
X145164071Y-61388643D01*
X145164071Y-61845786D01*
X145221214Y-61960071D01*
X145278357Y-62017214D01*
X145392643Y-62074357D01*
X145621214Y-62074357D01*
X145735500Y-62017214D01*
X145792643Y-61960071D01*
X145849786Y-61845786D01*
X145849786Y-61560071D01*
X145792643Y-61445786D01*
X145735500Y-61388643D01*
X145621214Y-61331500D01*
X145392643Y-61331500D01*
X145278357Y-61388643D01*
X145221214Y-61445786D01*
X145164071Y-61560071D01*
X143500930Y-59801071D02*
X143443787Y-59858214D01*
X143272358Y-59915357D01*
X143158072Y-59915357D01*
X142986644Y-59858214D01*
X142872358Y-59743929D01*
X142815215Y-59629643D01*
X142758072Y-59401071D01*
X142758072Y-59229643D01*
X142815215Y-59001071D01*
X142872358Y-58886786D01*
X142986644Y-58772500D01*
X143158072Y-58715357D01*
X143272358Y-58715357D01*
X143443787Y-58772500D01*
X143500930Y-58829643D01*
X144186644Y-59915357D02*
X144072358Y-59858214D01*
X144015215Y-59743929D01*
X144015215Y-58715357D01*
X144815215Y-59915357D02*
X144700929Y-59858214D01*
X144643786Y-59801071D01*
X144586643Y-59686786D01*
X144586643Y-59343929D01*
X144643786Y-59229643D01*
X144700929Y-59172500D01*
X144815215Y-59115357D01*
X144986643Y-59115357D01*
X145100929Y-59172500D01*
X145158072Y-59229643D01*
X145215215Y-59343929D01*
X145215215Y-59686786D01*
X145158072Y-59801071D01*
X145100929Y-59858214D01*
X144986643Y-59915357D01*
X144815215Y-59915357D01*
X145729500Y-59115357D02*
X145729500Y-59915357D01*
X145729500Y-59229643D02*
X145786643Y-59172500D01*
X145900929Y-59115357D01*
X146072357Y-59115357D01*
X146186643Y-59172500D01*
X146243786Y-59286786D01*
X146243786Y-59915357D01*
X147272357Y-59858214D02*
X147158071Y-59915357D01*
X146929500Y-59915357D01*
X146815214Y-59858214D01*
X146758071Y-59743929D01*
X146758071Y-59286786D01*
X146815214Y-59172500D01*
X146929500Y-59115357D01*
X147158071Y-59115357D01*
X147272357Y-59172500D01*
X147329500Y-59286786D01*
X147329500Y-59401071D01*
X146758071Y-59515357D01*
X148700928Y-59858214D02*
X148872357Y-59915357D01*
X149158071Y-59915357D01*
X149272357Y-59858214D01*
X149329500Y-59801071D01*
X149386643Y-59686786D01*
X149386643Y-59572500D01*
X149329500Y-59458214D01*
X149272357Y-59401071D01*
X149158071Y-59343929D01*
X148929500Y-59286786D01*
X148815214Y-59229643D01*
X148758071Y-59172500D01*
X148700928Y-59058214D01*
X148700928Y-58943929D01*
X148758071Y-58829643D01*
X148815214Y-58772500D01*
X148929500Y-58715357D01*
X149215214Y-58715357D01*
X149386643Y-58772500D01*
X149729500Y-58715357D02*
X150415214Y-58715357D01*
X150072357Y-59915357D02*
X150072357Y-58715357D01*
X150815214Y-59915357D02*
X150815214Y-58715357D01*
X151272357Y-58715357D01*
X151386643Y-58772500D01*
X151443786Y-58829643D01*
X151500929Y-58943929D01*
X151500929Y-59115357D01*
X151443786Y-59229643D01*
X151386643Y-59286786D01*
X151272357Y-59343929D01*
X150815214Y-59343929D01*
X134604071Y-112467999D02*
X134661214Y-112525142D01*
X134718357Y-112696571D01*
X134718357Y-112810857D01*
X134661214Y-112982285D01*
X134546929Y-113096571D01*
X134432643Y-113153714D01*
X134204071Y-113210857D01*
X134032643Y-113210857D01*
X133804071Y-113153714D01*
X133689786Y-113096571D01*
X133575500Y-112982285D01*
X133518357Y-112810857D01*
X133518357Y-112696571D01*
X133575500Y-112525142D01*
X133632643Y-112467999D01*
X133632643Y-112010857D02*
X133575500Y-111953714D01*
X133518357Y-111839428D01*
X133518357Y-111553714D01*
X133575500Y-111439428D01*
X133632643Y-111382285D01*
X133746929Y-111325142D01*
X133861214Y-111325142D01*
X134032643Y-111382285D01*
X134718357Y-112067999D01*
X134718357Y-111325142D01*
X171504001Y-132889571D02*
X171446858Y-132946714D01*
X171275429Y-133003857D01*
X171161143Y-133003857D01*
X170989715Y-132946714D01*
X170875429Y-132832429D01*
X170818286Y-132718143D01*
X170761143Y-132489571D01*
X170761143Y-132318143D01*
X170818286Y-132089571D01*
X170875429Y-131975286D01*
X170989715Y-131861000D01*
X171161143Y-131803857D01*
X171275429Y-131803857D01*
X171446858Y-131861000D01*
X171504001Y-131918143D01*
X172532572Y-132203857D02*
X172532572Y-133003857D01*
X172246858Y-131746714D02*
X171961143Y-132603857D01*
X172704001Y-132603857D01*
X153660501Y-107743571D02*
X153603358Y-107800714D01*
X153431929Y-107857857D01*
X153317643Y-107857857D01*
X153146215Y-107800714D01*
X153031929Y-107686429D01*
X152974786Y-107572143D01*
X152917643Y-107343571D01*
X152917643Y-107172143D01*
X152974786Y-106943571D01*
X153031929Y-106829286D01*
X153146215Y-106715000D01*
X153317643Y-106657857D01*
X153431929Y-106657857D01*
X153603358Y-106715000D01*
X153660501Y-106772143D01*
X154689072Y-106657857D02*
X154460501Y-106657857D01*
X154346215Y-106715000D01*
X154289072Y-106772143D01*
X154174786Y-106943571D01*
X154117643Y-107172143D01*
X154117643Y-107629286D01*
X154174786Y-107743571D01*
X154231929Y-107800714D01*
X154346215Y-107857857D01*
X154574786Y-107857857D01*
X154689072Y-107800714D01*
X154746215Y-107743571D01*
X154803358Y-107629286D01*
X154803358Y-107343571D01*
X154746215Y-107229286D01*
X154689072Y-107172143D01*
X154574786Y-107115000D01*
X154346215Y-107115000D01*
X154231929Y-107172143D01*
X154174786Y-107229286D01*
X154117643Y-107343571D01*
X157915072Y-116887571D02*
X157857929Y-116944714D01*
X157686500Y-117001857D01*
X157572214Y-117001857D01*
X157400786Y-116944714D01*
X157286500Y-116830429D01*
X157229357Y-116716143D01*
X157172214Y-116487571D01*
X157172214Y-116316143D01*
X157229357Y-116087571D01*
X157286500Y-115973286D01*
X157400786Y-115859000D01*
X157572214Y-115801857D01*
X157686500Y-115801857D01*
X157857929Y-115859000D01*
X157915072Y-115916143D01*
X159057929Y-117001857D02*
X158372214Y-117001857D01*
X158715072Y-117001857D02*
X158715072Y-115801857D01*
X158600786Y-115973286D01*
X158486500Y-116087571D01*
X158372214Y-116144714D01*
X159800786Y-115801857D02*
X159915071Y-115801857D01*
X160029357Y-115859000D01*
X160086500Y-115916143D01*
X160143643Y-116030429D01*
X160200786Y-116259000D01*
X160200786Y-116544714D01*
X160143643Y-116773286D01*
X160086500Y-116887571D01*
X160029357Y-116944714D01*
X159915071Y-117001857D01*
X159800786Y-117001857D01*
X159686500Y-116944714D01*
X159629357Y-116887571D01*
X159572214Y-116773286D01*
X159515071Y-116544714D01*
X159515071Y-116259000D01*
X159572214Y-116030429D01*
X159629357Y-115916143D01*
X159686500Y-115859000D01*
X159800786Y-115801857D01*
X185791572Y-132826071D02*
X185734429Y-132883214D01*
X185563000Y-132940357D01*
X185448714Y-132940357D01*
X185277286Y-132883214D01*
X185163000Y-132768929D01*
X185105857Y-132654643D01*
X185048714Y-132426071D01*
X185048714Y-132254643D01*
X185105857Y-132026071D01*
X185163000Y-131911786D01*
X185277286Y-131797500D01*
X185448714Y-131740357D01*
X185563000Y-131740357D01*
X185734429Y-131797500D01*
X185791572Y-131854643D01*
X186934429Y-132940357D02*
X186248714Y-132940357D01*
X186591572Y-132940357D02*
X186591572Y-131740357D01*
X186477286Y-131911786D01*
X186363000Y-132026071D01*
X186248714Y-132083214D01*
X187391571Y-131854643D02*
X187448714Y-131797500D01*
X187563000Y-131740357D01*
X187848714Y-131740357D01*
X187963000Y-131797500D01*
X188020143Y-131854643D01*
X188077286Y-131968929D01*
X188077286Y-132083214D01*
X188020143Y-132254643D01*
X187334429Y-132940357D01*
X188077286Y-132940357D01*
X134864572Y-128825571D02*
X134807429Y-128882714D01*
X134636000Y-128939857D01*
X134521714Y-128939857D01*
X134350286Y-128882714D01*
X134236000Y-128768429D01*
X134178857Y-128654143D01*
X134121714Y-128425571D01*
X134121714Y-128254143D01*
X134178857Y-128025571D01*
X134236000Y-127911286D01*
X134350286Y-127797000D01*
X134521714Y-127739857D01*
X134636000Y-127739857D01*
X134807429Y-127797000D01*
X134864572Y-127854143D01*
X136007429Y-128939857D02*
X135321714Y-128939857D01*
X135664572Y-128939857D02*
X135664572Y-127739857D01*
X135550286Y-127911286D01*
X135436000Y-128025571D01*
X135321714Y-128082714D01*
X137036000Y-128139857D02*
X137036000Y-128939857D01*
X136750286Y-127682714D02*
X136464571Y-128539857D01*
X137207429Y-128539857D01*
X157026072Y-132762571D02*
X156968929Y-132819714D01*
X156797500Y-132876857D01*
X156683214Y-132876857D01*
X156511786Y-132819714D01*
X156397500Y-132705429D01*
X156340357Y-132591143D01*
X156283214Y-132362571D01*
X156283214Y-132191143D01*
X156340357Y-131962571D01*
X156397500Y-131848286D01*
X156511786Y-131734000D01*
X156683214Y-131676857D01*
X156797500Y-131676857D01*
X156968929Y-131734000D01*
X157026072Y-131791143D01*
X158168929Y-132876857D02*
X157483214Y-132876857D01*
X157826072Y-132876857D02*
X157826072Y-131676857D01*
X157711786Y-131848286D01*
X157597500Y-131962571D01*
X157483214Y-132019714D01*
X159197500Y-131676857D02*
X158968929Y-131676857D01*
X158854643Y-131734000D01*
X158797500Y-131791143D01*
X158683214Y-131962571D01*
X158626071Y-132191143D01*
X158626071Y-132648286D01*
X158683214Y-132762571D01*
X158740357Y-132819714D01*
X158854643Y-132876857D01*
X159083214Y-132876857D01*
X159197500Y-132819714D01*
X159254643Y-132762571D01*
X159311786Y-132648286D01*
X159311786Y-132362571D01*
X159254643Y-132248286D01*
X159197500Y-132191143D01*
X159083214Y-132134000D01*
X158854643Y-132134000D01*
X158740357Y-132191143D01*
X158683214Y-132248286D01*
X158626071Y-132362571D01*
X141087572Y-132762571D02*
X141030429Y-132819714D01*
X140859000Y-132876857D01*
X140744714Y-132876857D01*
X140573286Y-132819714D01*
X140459000Y-132705429D01*
X140401857Y-132591143D01*
X140344714Y-132362571D01*
X140344714Y-132191143D01*
X140401857Y-131962571D01*
X140459000Y-131848286D01*
X140573286Y-131734000D01*
X140744714Y-131676857D01*
X140859000Y-131676857D01*
X141030429Y-131734000D01*
X141087572Y-131791143D01*
X142230429Y-132876857D02*
X141544714Y-132876857D01*
X141887572Y-132876857D02*
X141887572Y-131676857D01*
X141773286Y-131848286D01*
X141659000Y-131962571D01*
X141544714Y-132019714D01*
X142916143Y-132191143D02*
X142801857Y-132134000D01*
X142744714Y-132076857D01*
X142687571Y-131962571D01*
X142687571Y-131905429D01*
X142744714Y-131791143D01*
X142801857Y-131734000D01*
X142916143Y-131676857D01*
X143144714Y-131676857D01*
X143259000Y-131734000D01*
X143316143Y-131791143D01*
X143373286Y-131905429D01*
X143373286Y-131962571D01*
X143316143Y-132076857D01*
X143259000Y-132134000D01*
X143144714Y-132191143D01*
X142916143Y-132191143D01*
X142801857Y-132248286D01*
X142744714Y-132305429D01*
X142687571Y-132419714D01*
X142687571Y-132648286D01*
X142744714Y-132762571D01*
X142801857Y-132819714D01*
X142916143Y-132876857D01*
X143144714Y-132876857D01*
X143259000Y-132819714D01*
X143316143Y-132762571D01*
X143373286Y-132648286D01*
X143373286Y-132419714D01*
X143316143Y-132305429D01*
X143259000Y-132248286D01*
X143144714Y-132191143D01*
X126355572Y-132762571D02*
X126298429Y-132819714D01*
X126127000Y-132876857D01*
X126012714Y-132876857D01*
X125841286Y-132819714D01*
X125727000Y-132705429D01*
X125669857Y-132591143D01*
X125612714Y-132362571D01*
X125612714Y-132191143D01*
X125669857Y-131962571D01*
X125727000Y-131848286D01*
X125841286Y-131734000D01*
X126012714Y-131676857D01*
X126127000Y-131676857D01*
X126298429Y-131734000D01*
X126355572Y-131791143D01*
X126812714Y-131791143D02*
X126869857Y-131734000D01*
X126984143Y-131676857D01*
X127269857Y-131676857D01*
X127384143Y-131734000D01*
X127441286Y-131791143D01*
X127498429Y-131905429D01*
X127498429Y-132019714D01*
X127441286Y-132191143D01*
X126755572Y-132876857D01*
X127498429Y-132876857D01*
X128241286Y-131676857D02*
X128355571Y-131676857D01*
X128469857Y-131734000D01*
X128527000Y-131791143D01*
X128584143Y-131905429D01*
X128641286Y-132134000D01*
X128641286Y-132419714D01*
X128584143Y-132648286D01*
X128527000Y-132762571D01*
X128469857Y-132819714D01*
X128355571Y-132876857D01*
X128241286Y-132876857D01*
X128127000Y-132819714D01*
X128069857Y-132762571D01*
X128012714Y-132648286D01*
X127955571Y-132419714D01*
X127955571Y-132134000D01*
X128012714Y-131905429D01*
X128069857Y-131791143D01*
X128127000Y-131734000D01*
X128241286Y-131676857D01*
X120018286Y-81060857D02*
X120018286Y-79860857D01*
X120304001Y-79860857D01*
X120475429Y-79918000D01*
X120589715Y-80032286D01*
X120646858Y-80146571D01*
X120704001Y-80375143D01*
X120704001Y-80546571D01*
X120646858Y-80775143D01*
X120589715Y-80889429D01*
X120475429Y-81003714D01*
X120304001Y-81060857D01*
X120018286Y-81060857D01*
X121846858Y-81060857D02*
X121161143Y-81060857D01*
X121504001Y-81060857D02*
X121504001Y-79860857D01*
X121389715Y-80032286D01*
X121275429Y-80146571D01*
X121161143Y-80203714D01*
X113414214Y-78520857D02*
X113414214Y-77320857D01*
X114099929Y-78520857D02*
X113585643Y-77835143D01*
X114099929Y-77320857D02*
X113414214Y-78006571D01*
X118141786Y-78178000D02*
X118713215Y-78178000D01*
X118027501Y-78520857D02*
X118427501Y-77320857D01*
X118827501Y-78520857D01*
X120567500Y-85512286D02*
X120167500Y-85512286D01*
X120167500Y-86140857D02*
X120167500Y-84940857D01*
X120738929Y-84940857D01*
X121824643Y-86140857D02*
X121138928Y-86140857D01*
X121481786Y-86140857D02*
X121481786Y-84940857D01*
X121367500Y-85112286D01*
X121253214Y-85226571D01*
X121138928Y-85283714D01*
X103549500Y-79416357D02*
X103549500Y-80273500D01*
X103492358Y-80444929D01*
X103378072Y-80559214D01*
X103206643Y-80616357D01*
X103092358Y-80616357D01*
X104749501Y-80616357D02*
X104063786Y-80616357D01*
X104406644Y-80616357D02*
X104406644Y-79416357D01*
X104292358Y-79587786D01*
X104178072Y-79702071D01*
X104063786Y-79759214D01*
X107211786Y-80771857D02*
X107211786Y-78486143D01*
X108354643Y-79629000D02*
X106068929Y-79629000D01*
X104057500Y-114150857D02*
X104057500Y-115008000D01*
X104000358Y-115179429D01*
X103886072Y-115293714D01*
X103714643Y-115350857D01*
X103600358Y-115350857D01*
X104571786Y-114265143D02*
X104628929Y-114208000D01*
X104743215Y-114150857D01*
X105028929Y-114150857D01*
X105143215Y-114208000D01*
X105200358Y-114265143D01*
X105257501Y-114379429D01*
X105257501Y-114493714D01*
X105200358Y-114665143D01*
X104514644Y-115350857D01*
X105257501Y-115350857D01*
X104544786Y-102679357D02*
X104544786Y-100393643D01*
X105687643Y-101536500D02*
X103401929Y-101536500D01*
X177453857Y-127377714D02*
X176253857Y-127377714D01*
X176253857Y-126920571D01*
X176311000Y-126806285D01*
X176368143Y-126749142D01*
X176482429Y-126691999D01*
X176653857Y-126691999D01*
X176768143Y-126749142D01*
X176825286Y-126806285D01*
X176882429Y-126920571D01*
X176882429Y-127377714D01*
X177453857Y-125549142D02*
X177453857Y-126234857D01*
X177453857Y-125891999D02*
X176253857Y-125891999D01*
X176425286Y-126006285D01*
X176539571Y-126120571D01*
X176596714Y-126234857D01*
X179549357Y-128539142D02*
X178349357Y-128539142D01*
X178349357Y-128081999D01*
X178406500Y-127967713D01*
X178463643Y-127910570D01*
X178577929Y-127853427D01*
X178749357Y-127853427D01*
X178863643Y-127910570D01*
X178920786Y-127967713D01*
X178977929Y-128081999D01*
X178977929Y-128539142D01*
X179549357Y-127167713D02*
X179492214Y-127281999D01*
X179435071Y-127339142D01*
X179320786Y-127396285D01*
X178977929Y-127396285D01*
X178863643Y-127339142D01*
X178806500Y-127281999D01*
X178749357Y-127167713D01*
X178749357Y-126996285D01*
X178806500Y-126881999D01*
X178863643Y-126824856D01*
X178977929Y-126767713D01*
X179320786Y-126767713D01*
X179435071Y-126824856D01*
X179492214Y-126881999D01*
X179549357Y-126996285D01*
X179549357Y-127167713D01*
X179492214Y-126310571D02*
X179549357Y-126139142D01*
X179549357Y-125853428D01*
X179492214Y-125739142D01*
X179435071Y-125681999D01*
X179320786Y-125624856D01*
X179206500Y-125624856D01*
X179092214Y-125681999D01*
X179035071Y-125739142D01*
X178977929Y-125853428D01*
X178920786Y-126081999D01*
X178863643Y-126196285D01*
X178806500Y-126253428D01*
X178692214Y-126310571D01*
X178577929Y-126310571D01*
X178463643Y-126253428D01*
X178406500Y-126196285D01*
X178349357Y-126081999D01*
X178349357Y-125796285D01*
X178406500Y-125624856D01*
X178749357Y-125281999D02*
X178749357Y-124824856D01*
X178349357Y-125110571D02*
X179377929Y-125110571D01*
X179492214Y-125053428D01*
X179549357Y-124939142D01*
X179549357Y-124824856D01*
X179492214Y-123967714D02*
X179549357Y-124082000D01*
X179549357Y-124310571D01*
X179492214Y-124424857D01*
X179377929Y-124482000D01*
X178920786Y-124482000D01*
X178806500Y-124424857D01*
X178749357Y-124310571D01*
X178749357Y-124082000D01*
X178806500Y-123967714D01*
X178920786Y-123910571D01*
X179035071Y-123910571D01*
X179149357Y-124482000D01*
X178749357Y-123396286D02*
X179949357Y-123396286D01*
X178806500Y-123396286D02*
X178749357Y-123282000D01*
X178749357Y-123053429D01*
X178806500Y-122939143D01*
X178863643Y-122882000D01*
X178977929Y-122824857D01*
X179320786Y-122824857D01*
X179435071Y-122882000D01*
X179492214Y-122939143D01*
X179549357Y-123053429D01*
X179549357Y-123282000D01*
X179492214Y-123396286D01*
X178463643Y-122367715D02*
X178406500Y-122310572D01*
X178349357Y-122196286D01*
X178349357Y-121910572D01*
X178406500Y-121796286D01*
X178463643Y-121739143D01*
X178577929Y-121682000D01*
X178692214Y-121682000D01*
X178863643Y-121739143D01*
X179549357Y-122424857D01*
X179549357Y-121682000D01*
X178349357Y-120596286D02*
X178349357Y-121167715D01*
X178920786Y-121224858D01*
X178863643Y-121167715D01*
X178806500Y-121053429D01*
X178806500Y-120767715D01*
X178863643Y-120653429D01*
X178920786Y-120596286D01*
X179035071Y-120539143D01*
X179320786Y-120539143D01*
X179435071Y-120596286D01*
X179492214Y-120653429D01*
X179549357Y-120767715D01*
X179549357Y-121053429D01*
X179492214Y-121167715D01*
X179435071Y-121224858D01*
X179092214Y-120024858D02*
X179092214Y-119110572D01*
X178349357Y-118653429D02*
X178349357Y-117910572D01*
X178806500Y-118310572D01*
X178806500Y-118139144D01*
X178863643Y-118024858D01*
X178920786Y-117967715D01*
X179035071Y-117910572D01*
X179320786Y-117910572D01*
X179435071Y-117967715D01*
X179492214Y-118024858D01*
X179549357Y-118139144D01*
X179549357Y-118482001D01*
X179492214Y-118596287D01*
X179435071Y-118653429D01*
X178463643Y-117453430D02*
X178406500Y-117396287D01*
X178349357Y-117282001D01*
X178349357Y-116996287D01*
X178406500Y-116882001D01*
X178463643Y-116824858D01*
X178577929Y-116767715D01*
X178692214Y-116767715D01*
X178863643Y-116824858D01*
X179549357Y-117510572D01*
X179549357Y-116767715D01*
X177707857Y-110994714D02*
X176507857Y-110994714D01*
X176507857Y-110537571D01*
X176565000Y-110423285D01*
X176622143Y-110366142D01*
X176736429Y-110308999D01*
X176907857Y-110308999D01*
X177022143Y-110366142D01*
X177079286Y-110423285D01*
X177136429Y-110537571D01*
X177136429Y-110994714D01*
X176622143Y-109851857D02*
X176565000Y-109794714D01*
X176507857Y-109680428D01*
X176507857Y-109394714D01*
X176565000Y-109280428D01*
X176622143Y-109223285D01*
X176736429Y-109166142D01*
X176850714Y-109166142D01*
X177022143Y-109223285D01*
X177707857Y-109908999D01*
X177707857Y-109166142D01*
X179612857Y-111457642D02*
X178412857Y-111457642D01*
X178412857Y-111000499D01*
X178470000Y-110886213D01*
X178527143Y-110829070D01*
X178641429Y-110771927D01*
X178812857Y-110771927D01*
X178927143Y-110829070D01*
X178984286Y-110886213D01*
X179041429Y-111000499D01*
X179041429Y-111457642D01*
X179612857Y-110086213D02*
X179555714Y-110200499D01*
X179498571Y-110257642D01*
X179384286Y-110314785D01*
X179041429Y-110314785D01*
X178927143Y-110257642D01*
X178870000Y-110200499D01*
X178812857Y-110086213D01*
X178812857Y-109914785D01*
X178870000Y-109800499D01*
X178927143Y-109743356D01*
X179041429Y-109686213D01*
X179384286Y-109686213D01*
X179498571Y-109743356D01*
X179555714Y-109800499D01*
X179612857Y-109914785D01*
X179612857Y-110086213D01*
X179555714Y-109229071D02*
X179612857Y-109057642D01*
X179612857Y-108771928D01*
X179555714Y-108657642D01*
X179498571Y-108600499D01*
X179384286Y-108543356D01*
X179270000Y-108543356D01*
X179155714Y-108600499D01*
X179098571Y-108657642D01*
X179041429Y-108771928D01*
X178984286Y-109000499D01*
X178927143Y-109114785D01*
X178870000Y-109171928D01*
X178755714Y-109229071D01*
X178641429Y-109229071D01*
X178527143Y-109171928D01*
X178470000Y-109114785D01*
X178412857Y-109000499D01*
X178412857Y-108714785D01*
X178470000Y-108543356D01*
X178812857Y-108200499D02*
X178812857Y-107743356D01*
X178412857Y-108029071D02*
X179441429Y-108029071D01*
X179555714Y-107971928D01*
X179612857Y-107857642D01*
X179612857Y-107743356D01*
X179555714Y-106886214D02*
X179612857Y-107000500D01*
X179612857Y-107229071D01*
X179555714Y-107343357D01*
X179441429Y-107400500D01*
X178984286Y-107400500D01*
X178870000Y-107343357D01*
X178812857Y-107229071D01*
X178812857Y-107000500D01*
X178870000Y-106886214D01*
X178984286Y-106829071D01*
X179098571Y-106829071D01*
X179212857Y-107400500D01*
X178812857Y-106314786D02*
X180012857Y-106314786D01*
X178870000Y-106314786D02*
X178812857Y-106200500D01*
X178812857Y-105971929D01*
X178870000Y-105857643D01*
X178927143Y-105800500D01*
X179041429Y-105743357D01*
X179384286Y-105743357D01*
X179498571Y-105800500D01*
X179555714Y-105857643D01*
X179612857Y-105971929D01*
X179612857Y-106200500D01*
X179555714Y-106314786D01*
X178527143Y-105286215D02*
X178470000Y-105229072D01*
X178412857Y-105114786D01*
X178412857Y-104829072D01*
X178470000Y-104714786D01*
X178527143Y-104657643D01*
X178641429Y-104600500D01*
X178755714Y-104600500D01*
X178927143Y-104657643D01*
X179612857Y-105343357D01*
X179612857Y-104600500D01*
X178412857Y-103514786D02*
X178412857Y-104086215D01*
X178984286Y-104143358D01*
X178927143Y-104086215D01*
X178870000Y-103971929D01*
X178870000Y-103686215D01*
X178927143Y-103571929D01*
X178984286Y-103514786D01*
X179098571Y-103457643D01*
X179384286Y-103457643D01*
X179498571Y-103514786D01*
X179555714Y-103571929D01*
X179612857Y-103686215D01*
X179612857Y-103971929D01*
X179555714Y-104086215D01*
X179498571Y-104143358D01*
X179155714Y-102943358D02*
X179155714Y-102029072D01*
X178412857Y-101571929D02*
X178412857Y-100829072D01*
X178870000Y-101229072D01*
X178870000Y-101057644D01*
X178927143Y-100943358D01*
X178984286Y-100886215D01*
X179098571Y-100829072D01*
X179384286Y-100829072D01*
X179498571Y-100886215D01*
X179555714Y-100943358D01*
X179612857Y-101057644D01*
X179612857Y-101400501D01*
X179555714Y-101514787D01*
X179498571Y-101571929D01*
X178527143Y-100371930D02*
X178470000Y-100314787D01*
X178412857Y-100200501D01*
X178412857Y-99914787D01*
X178470000Y-99800501D01*
X178527143Y-99743358D01*
X178641429Y-99686215D01*
X178755714Y-99686215D01*
X178927143Y-99743358D01*
X179612857Y-100429072D01*
X179612857Y-99686215D01*
X177707857Y-94738714D02*
X176507857Y-94738714D01*
X176507857Y-94281571D01*
X176565000Y-94167285D01*
X176622143Y-94110142D01*
X176736429Y-94052999D01*
X176907857Y-94052999D01*
X177022143Y-94110142D01*
X177079286Y-94167285D01*
X177136429Y-94281571D01*
X177136429Y-94738714D01*
X176507857Y-93652999D02*
X176507857Y-92910142D01*
X176965000Y-93310142D01*
X176965000Y-93138714D01*
X177022143Y-93024428D01*
X177079286Y-92967285D01*
X177193571Y-92910142D01*
X177479286Y-92910142D01*
X177593571Y-92967285D01*
X177650714Y-93024428D01*
X177707857Y-93138714D01*
X177707857Y-93481571D01*
X177650714Y-93595857D01*
X177593571Y-93652999D01*
X179612857Y-94820642D02*
X178412857Y-94820642D01*
X178412857Y-94363499D01*
X178470000Y-94249213D01*
X178527143Y-94192070D01*
X178641429Y-94134927D01*
X178812857Y-94134927D01*
X178927143Y-94192070D01*
X178984286Y-94249213D01*
X179041429Y-94363499D01*
X179041429Y-94820642D01*
X179612857Y-93449213D02*
X179555714Y-93563499D01*
X179498571Y-93620642D01*
X179384286Y-93677785D01*
X179041429Y-93677785D01*
X178927143Y-93620642D01*
X178870000Y-93563499D01*
X178812857Y-93449213D01*
X178812857Y-93277785D01*
X178870000Y-93163499D01*
X178927143Y-93106356D01*
X179041429Y-93049213D01*
X179384286Y-93049213D01*
X179498571Y-93106356D01*
X179555714Y-93163499D01*
X179612857Y-93277785D01*
X179612857Y-93449213D01*
X179555714Y-92592071D02*
X179612857Y-92420642D01*
X179612857Y-92134928D01*
X179555714Y-92020642D01*
X179498571Y-91963499D01*
X179384286Y-91906356D01*
X179270000Y-91906356D01*
X179155714Y-91963499D01*
X179098571Y-92020642D01*
X179041429Y-92134928D01*
X178984286Y-92363499D01*
X178927143Y-92477785D01*
X178870000Y-92534928D01*
X178755714Y-92592071D01*
X178641429Y-92592071D01*
X178527143Y-92534928D01*
X178470000Y-92477785D01*
X178412857Y-92363499D01*
X178412857Y-92077785D01*
X178470000Y-91906356D01*
X178812857Y-91563499D02*
X178812857Y-91106356D01*
X178412857Y-91392071D02*
X179441429Y-91392071D01*
X179555714Y-91334928D01*
X179612857Y-91220642D01*
X179612857Y-91106356D01*
X179555714Y-90249214D02*
X179612857Y-90363500D01*
X179612857Y-90592071D01*
X179555714Y-90706357D01*
X179441429Y-90763500D01*
X178984286Y-90763500D01*
X178870000Y-90706357D01*
X178812857Y-90592071D01*
X178812857Y-90363500D01*
X178870000Y-90249214D01*
X178984286Y-90192071D01*
X179098571Y-90192071D01*
X179212857Y-90763500D01*
X178812857Y-89677786D02*
X180012857Y-89677786D01*
X178870000Y-89677786D02*
X178812857Y-89563500D01*
X178812857Y-89334929D01*
X178870000Y-89220643D01*
X178927143Y-89163500D01*
X179041429Y-89106357D01*
X179384286Y-89106357D01*
X179498571Y-89163500D01*
X179555714Y-89220643D01*
X179612857Y-89334929D01*
X179612857Y-89563500D01*
X179555714Y-89677786D01*
X178527143Y-88649215D02*
X178470000Y-88592072D01*
X178412857Y-88477786D01*
X178412857Y-88192072D01*
X178470000Y-88077786D01*
X178527143Y-88020643D01*
X178641429Y-87963500D01*
X178755714Y-87963500D01*
X178927143Y-88020643D01*
X179612857Y-88706357D01*
X179612857Y-87963500D01*
X178412857Y-86877786D02*
X178412857Y-87449215D01*
X178984286Y-87506358D01*
X178927143Y-87449215D01*
X178870000Y-87334929D01*
X178870000Y-87049215D01*
X178927143Y-86934929D01*
X178984286Y-86877786D01*
X179098571Y-86820643D01*
X179384286Y-86820643D01*
X179498571Y-86877786D01*
X179555714Y-86934929D01*
X179612857Y-87049215D01*
X179612857Y-87334929D01*
X179555714Y-87449215D01*
X179498571Y-87506358D01*
X179155714Y-86306358D02*
X179155714Y-85392072D01*
X178412857Y-84934929D02*
X178412857Y-84192072D01*
X178870000Y-84592072D01*
X178870000Y-84420644D01*
X178927143Y-84306358D01*
X178984286Y-84249215D01*
X179098571Y-84192072D01*
X179384286Y-84192072D01*
X179498571Y-84249215D01*
X179555714Y-84306358D01*
X179612857Y-84420644D01*
X179612857Y-84763501D01*
X179555714Y-84877787D01*
X179498571Y-84934929D01*
X178527143Y-83734930D02*
X178470000Y-83677787D01*
X178412857Y-83563501D01*
X178412857Y-83277787D01*
X178470000Y-83163501D01*
X178527143Y-83106358D01*
X178641429Y-83049215D01*
X178755714Y-83049215D01*
X178927143Y-83106358D01*
X179612857Y-83792072D01*
X179612857Y-83049215D01*
X144592786Y-127479357D02*
X144592786Y-126279357D01*
X145049929Y-126279357D01*
X145164215Y-126336500D01*
X145221358Y-126393643D01*
X145278501Y-126507929D01*
X145278501Y-126679357D01*
X145221358Y-126793643D01*
X145164215Y-126850786D01*
X145049929Y-126907929D01*
X144592786Y-126907929D01*
X146307072Y-126679357D02*
X146307072Y-127479357D01*
X146021358Y-126222214D02*
X145735643Y-127079357D01*
X146478501Y-127079357D01*
X164061857Y-128400000D02*
X164919000Y-128400000D01*
X165090429Y-128457142D01*
X165204714Y-128571428D01*
X165261857Y-128742857D01*
X165261857Y-128857142D01*
X164061857Y-127999999D02*
X164061857Y-127314285D01*
X165261857Y-127657142D02*
X164061857Y-127657142D01*
X164919000Y-126971428D02*
X164919000Y-126399999D01*
X165261857Y-127085713D02*
X164061857Y-126685713D01*
X165261857Y-126285713D01*
X164119000Y-125257142D02*
X164061857Y-125371428D01*
X164061857Y-125542857D01*
X164119000Y-125714285D01*
X164233286Y-125828571D01*
X164347571Y-125885714D01*
X164576143Y-125942857D01*
X164747571Y-125942857D01*
X164976143Y-125885714D01*
X165090429Y-125828571D01*
X165204714Y-125714285D01*
X165261857Y-125542857D01*
X165261857Y-125428571D01*
X165204714Y-125257142D01*
X165147571Y-125199999D01*
X164747571Y-125199999D01*
X164747571Y-125428571D01*
X126082357Y-110296214D02*
X124882357Y-110296214D01*
X124882357Y-109839071D01*
X124939500Y-109724785D01*
X124996643Y-109667642D01*
X125110929Y-109610499D01*
X125282357Y-109610499D01*
X125396643Y-109667642D01*
X125453786Y-109724785D01*
X125510929Y-109839071D01*
X125510929Y-110296214D01*
X124882357Y-108524785D02*
X124882357Y-109096214D01*
X125453786Y-109153357D01*
X125396643Y-109096214D01*
X125339500Y-108981928D01*
X125339500Y-108696214D01*
X125396643Y-108581928D01*
X125453786Y-108524785D01*
X125568071Y-108467642D01*
X125853786Y-108467642D01*
X125968071Y-108524785D01*
X126025214Y-108581928D01*
X126082357Y-108696214D01*
X126082357Y-108981928D01*
X126025214Y-109096214D01*
X125968071Y-109153357D01*
X120278500Y-110644500D02*
X120278500Y-110073071D01*
X120621357Y-110758785D02*
X119421357Y-110358785D01*
X120621357Y-109958785D01*
X120621357Y-109558786D02*
X119821357Y-109558786D01*
X120049929Y-109558786D02*
X119935643Y-109501643D01*
X119878500Y-109444500D01*
X119821357Y-109330214D01*
X119821357Y-109215929D01*
X120621357Y-108301643D02*
X119421357Y-108301643D01*
X120564214Y-108301643D02*
X120621357Y-108415929D01*
X120621357Y-108644500D01*
X120564214Y-108758786D01*
X120507071Y-108815929D01*
X120392786Y-108873072D01*
X120049929Y-108873072D01*
X119935643Y-108815929D01*
X119878500Y-108758786D01*
X119821357Y-108644500D01*
X119821357Y-108415929D01*
X119878500Y-108301643D01*
X119821357Y-107215929D02*
X120621357Y-107215929D01*
X119821357Y-107730215D02*
X120449929Y-107730215D01*
X120564214Y-107673072D01*
X120621357Y-107558786D01*
X120621357Y-107387358D01*
X120564214Y-107273072D01*
X120507071Y-107215929D01*
X120621357Y-106644501D02*
X119821357Y-106644501D01*
X119421357Y-106644501D02*
X119478500Y-106701644D01*
X119535643Y-106644501D01*
X119478500Y-106587358D01*
X119421357Y-106644501D01*
X119535643Y-106644501D01*
X119821357Y-106073072D02*
X120621357Y-106073072D01*
X119935643Y-106073072D02*
X119878500Y-106015929D01*
X119821357Y-105901643D01*
X119821357Y-105730215D01*
X119878500Y-105615929D01*
X119992786Y-105558786D01*
X120621357Y-105558786D01*
X120621357Y-104815929D02*
X120564214Y-104930215D01*
X120507071Y-104987358D01*
X120392786Y-105044501D01*
X120049929Y-105044501D01*
X119935643Y-104987358D01*
X119878500Y-104930215D01*
X119821357Y-104815929D01*
X119821357Y-104644501D01*
X119878500Y-104530215D01*
X119935643Y-104473072D01*
X120049929Y-104415929D01*
X120392786Y-104415929D01*
X120507071Y-104473072D01*
X120564214Y-104530215D01*
X120621357Y-104644501D01*
X120621357Y-104815929D01*
X120621357Y-102987358D02*
X119421357Y-102987358D01*
X119421357Y-102530215D01*
X119478500Y-102415929D01*
X119535643Y-102358786D01*
X119649929Y-102301643D01*
X119821357Y-102301643D01*
X119935643Y-102358786D01*
X119992786Y-102415929D01*
X120049929Y-102530215D01*
X120049929Y-102987358D01*
X120621357Y-101615929D02*
X120564214Y-101730215D01*
X120507071Y-101787358D01*
X120392786Y-101844501D01*
X120049929Y-101844501D01*
X119935643Y-101787358D01*
X119878500Y-101730215D01*
X119821357Y-101615929D01*
X119821357Y-101444501D01*
X119878500Y-101330215D01*
X119935643Y-101273072D01*
X120049929Y-101215929D01*
X120392786Y-101215929D01*
X120507071Y-101273072D01*
X120564214Y-101330215D01*
X120621357Y-101444501D01*
X120621357Y-101615929D01*
X119821357Y-100815929D02*
X120621357Y-100587358D01*
X120049929Y-100358787D01*
X120621357Y-100130215D01*
X119821357Y-99901644D01*
X120564214Y-98987358D02*
X120621357Y-99101644D01*
X120621357Y-99330215D01*
X120564214Y-99444501D01*
X120449929Y-99501644D01*
X119992786Y-99501644D01*
X119878500Y-99444501D01*
X119821357Y-99330215D01*
X119821357Y-99101644D01*
X119878500Y-98987358D01*
X119992786Y-98930215D01*
X120107071Y-98930215D01*
X120221357Y-99501644D01*
X120621357Y-98415930D02*
X119821357Y-98415930D01*
X120049929Y-98415930D02*
X119935643Y-98358787D01*
X119878500Y-98301644D01*
X119821357Y-98187358D01*
X119821357Y-98073073D01*
X120621357Y-96758787D02*
X119421357Y-96758787D01*
X119421357Y-96301644D01*
X119478500Y-96187358D01*
X119535643Y-96130215D01*
X119649929Y-96073072D01*
X119821357Y-96073072D01*
X119935643Y-96130215D01*
X119992786Y-96187358D01*
X120049929Y-96301644D01*
X120049929Y-96758787D01*
X120621357Y-95558787D02*
X119821357Y-95558787D01*
X119421357Y-95558787D02*
X119478500Y-95615930D01*
X119535643Y-95558787D01*
X119478500Y-95501644D01*
X119421357Y-95558787D01*
X119535643Y-95558787D01*
X119821357Y-94987358D02*
X120621357Y-94987358D01*
X119935643Y-94987358D02*
X119878500Y-94930215D01*
X119821357Y-94815929D01*
X119821357Y-94644501D01*
X119878500Y-94530215D01*
X119992786Y-94473072D01*
X120621357Y-94473072D01*
X120564214Y-93958787D02*
X120621357Y-93844501D01*
X120621357Y-93615929D01*
X120564214Y-93501644D01*
X120449929Y-93444501D01*
X120392786Y-93444501D01*
X120278500Y-93501644D01*
X120221357Y-93615929D01*
X120221357Y-93787358D01*
X120164214Y-93901644D01*
X120049929Y-93958787D01*
X119992786Y-93958787D01*
X119878500Y-93901644D01*
X119821357Y-93787358D01*
X119821357Y-93615929D01*
X119878500Y-93501644D01*
X126082357Y-127885714D02*
X124882357Y-127885714D01*
X124882357Y-127428571D01*
X124939500Y-127314285D01*
X124996643Y-127257142D01*
X125110929Y-127199999D01*
X125282357Y-127199999D01*
X125396643Y-127257142D01*
X125453786Y-127314285D01*
X125510929Y-127428571D01*
X125510929Y-127885714D01*
X124882357Y-126171428D02*
X124882357Y-126399999D01*
X124939500Y-126514285D01*
X124996643Y-126571428D01*
X125168071Y-126685714D01*
X125396643Y-126742857D01*
X125853786Y-126742857D01*
X125968071Y-126685714D01*
X126025214Y-126628571D01*
X126082357Y-126514285D01*
X126082357Y-126285714D01*
X126025214Y-126171428D01*
X125968071Y-126114285D01*
X125853786Y-126057142D01*
X125568071Y-126057142D01*
X125453786Y-126114285D01*
X125396643Y-126171428D01*
X125339500Y-126285714D01*
X125339500Y-126514285D01*
X125396643Y-126628571D01*
X125453786Y-126685714D01*
X125568071Y-126742857D01*
X119961000Y-129592856D02*
X119961000Y-129021427D01*
X120303857Y-129707141D02*
X119103857Y-129307141D01*
X120303857Y-128907141D01*
X120303857Y-128507142D02*
X119503857Y-128507142D01*
X119732429Y-128507142D02*
X119618143Y-128449999D01*
X119561000Y-128392856D01*
X119503857Y-128278570D01*
X119503857Y-128164285D01*
X120303857Y-127249999D02*
X119103857Y-127249999D01*
X120246714Y-127249999D02*
X120303857Y-127364285D01*
X120303857Y-127592856D01*
X120246714Y-127707142D01*
X120189571Y-127764285D01*
X120075286Y-127821428D01*
X119732429Y-127821428D01*
X119618143Y-127764285D01*
X119561000Y-127707142D01*
X119503857Y-127592856D01*
X119503857Y-127364285D01*
X119561000Y-127249999D01*
X119503857Y-126164285D02*
X120303857Y-126164285D01*
X119503857Y-126678571D02*
X120132429Y-126678571D01*
X120246714Y-126621428D01*
X120303857Y-126507142D01*
X120303857Y-126335714D01*
X120246714Y-126221428D01*
X120189571Y-126164285D01*
X120303857Y-125592857D02*
X119503857Y-125592857D01*
X119103857Y-125592857D02*
X119161000Y-125650000D01*
X119218143Y-125592857D01*
X119161000Y-125535714D01*
X119103857Y-125592857D01*
X119218143Y-125592857D01*
X119503857Y-125021428D02*
X120303857Y-125021428D01*
X119618143Y-125021428D02*
X119561000Y-124964285D01*
X119503857Y-124849999D01*
X119503857Y-124678571D01*
X119561000Y-124564285D01*
X119675286Y-124507142D01*
X120303857Y-124507142D01*
X120303857Y-123764285D02*
X120246714Y-123878571D01*
X120189571Y-123935714D01*
X120075286Y-123992857D01*
X119732429Y-123992857D01*
X119618143Y-123935714D01*
X119561000Y-123878571D01*
X119503857Y-123764285D01*
X119503857Y-123592857D01*
X119561000Y-123478571D01*
X119618143Y-123421428D01*
X119732429Y-123364285D01*
X120075286Y-123364285D01*
X120189571Y-123421428D01*
X120246714Y-123478571D01*
X120303857Y-123592857D01*
X120303857Y-123764285D01*
X119961000Y-121992857D02*
X119961000Y-121421428D01*
X120303857Y-122107142D02*
X119103857Y-121707142D01*
X120303857Y-121307142D01*
X119503857Y-120907143D02*
X120303857Y-120907143D01*
X119618143Y-120907143D02*
X119561000Y-120850000D01*
X119503857Y-120735714D01*
X119503857Y-120564286D01*
X119561000Y-120450000D01*
X119675286Y-120392857D01*
X120303857Y-120392857D01*
X120303857Y-119307143D02*
X119675286Y-119307143D01*
X119561000Y-119364286D01*
X119503857Y-119478572D01*
X119503857Y-119707143D01*
X119561000Y-119821429D01*
X120246714Y-119307143D02*
X120303857Y-119421429D01*
X120303857Y-119707143D01*
X120246714Y-119821429D01*
X120132429Y-119878572D01*
X120018143Y-119878572D01*
X119903857Y-119821429D01*
X119846714Y-119707143D01*
X119846714Y-119421429D01*
X119789571Y-119307143D01*
X120303857Y-118564286D02*
X120246714Y-118678572D01*
X120132429Y-118735715D01*
X119103857Y-118735715D01*
X120303857Y-117935715D02*
X120246714Y-118050001D01*
X120189571Y-118107144D01*
X120075286Y-118164287D01*
X119732429Y-118164287D01*
X119618143Y-118107144D01*
X119561000Y-118050001D01*
X119503857Y-117935715D01*
X119503857Y-117764287D01*
X119561000Y-117650001D01*
X119618143Y-117592858D01*
X119732429Y-117535715D01*
X120075286Y-117535715D01*
X120189571Y-117592858D01*
X120246714Y-117650001D01*
X120303857Y-117764287D01*
X120303857Y-117935715D01*
X119503857Y-116507144D02*
X120475286Y-116507144D01*
X120589571Y-116564287D01*
X120646714Y-116621430D01*
X120703857Y-116735715D01*
X120703857Y-116907144D01*
X120646714Y-117021430D01*
X120246714Y-116507144D02*
X120303857Y-116621430D01*
X120303857Y-116850001D01*
X120246714Y-116964287D01*
X120189571Y-117021430D01*
X120075286Y-117078573D01*
X119732429Y-117078573D01*
X119618143Y-117021430D01*
X119561000Y-116964287D01*
X119503857Y-116850001D01*
X119503857Y-116621430D01*
X119561000Y-116507144D01*
X120303857Y-115021430D02*
X119103857Y-115021430D01*
X119103857Y-114564287D01*
X119161000Y-114450001D01*
X119218143Y-114392858D01*
X119332429Y-114335715D01*
X119503857Y-114335715D01*
X119618143Y-114392858D01*
X119675286Y-114450001D01*
X119732429Y-114564287D01*
X119732429Y-115021430D01*
X120303857Y-113821430D02*
X119503857Y-113821430D01*
X119103857Y-113821430D02*
X119161000Y-113878573D01*
X119218143Y-113821430D01*
X119161000Y-113764287D01*
X119103857Y-113821430D01*
X119218143Y-113821430D01*
X119503857Y-113250001D02*
X120303857Y-113250001D01*
X119618143Y-113250001D02*
X119561000Y-113192858D01*
X119503857Y-113078572D01*
X119503857Y-112907144D01*
X119561000Y-112792858D01*
X119675286Y-112735715D01*
X120303857Y-112735715D01*
X120246714Y-112221430D02*
X120303857Y-112107144D01*
X120303857Y-111878572D01*
X120246714Y-111764287D01*
X120132429Y-111707144D01*
X120075286Y-111707144D01*
X119961000Y-111764287D01*
X119903857Y-111878572D01*
X119903857Y-112050001D01*
X119846714Y-112164287D01*
X119732429Y-112221430D01*
X119675286Y-112221430D01*
X119561000Y-112164287D01*
X119503857Y-112050001D01*
X119503857Y-111878572D01*
X119561000Y-111764287D01*
X169008357Y-105470214D02*
X167808357Y-105470214D01*
X167808357Y-105013071D01*
X167865500Y-104898785D01*
X167922643Y-104841642D01*
X168036929Y-104784499D01*
X168208357Y-104784499D01*
X168322643Y-104841642D01*
X168379786Y-104898785D01*
X168436929Y-105013071D01*
X168436929Y-105470214D01*
X167808357Y-104384499D02*
X167808357Y-103584499D01*
X169008357Y-104098785D01*
X174444000Y-104709928D02*
X174444000Y-104138499D01*
X174786857Y-104824213D02*
X173586857Y-104424213D01*
X174786857Y-104024213D01*
X174786857Y-103624214D02*
X173986857Y-103624214D01*
X174215429Y-103624214D02*
X174101143Y-103567071D01*
X174044000Y-103509928D01*
X173986857Y-103395642D01*
X173986857Y-103281357D01*
X174786857Y-102367071D02*
X173586857Y-102367071D01*
X174729714Y-102367071D02*
X174786857Y-102481357D01*
X174786857Y-102709928D01*
X174729714Y-102824214D01*
X174672571Y-102881357D01*
X174558286Y-102938500D01*
X174215429Y-102938500D01*
X174101143Y-102881357D01*
X174044000Y-102824214D01*
X173986857Y-102709928D01*
X173986857Y-102481357D01*
X174044000Y-102367071D01*
X173986857Y-101281357D02*
X174786857Y-101281357D01*
X173986857Y-101795643D02*
X174615429Y-101795643D01*
X174729714Y-101738500D01*
X174786857Y-101624214D01*
X174786857Y-101452786D01*
X174729714Y-101338500D01*
X174672571Y-101281357D01*
X174786857Y-100709929D02*
X173986857Y-100709929D01*
X173586857Y-100709929D02*
X173644000Y-100767072D01*
X173701143Y-100709929D01*
X173644000Y-100652786D01*
X173586857Y-100709929D01*
X173701143Y-100709929D01*
X173986857Y-100138500D02*
X174786857Y-100138500D01*
X174101143Y-100138500D02*
X174044000Y-100081357D01*
X173986857Y-99967071D01*
X173986857Y-99795643D01*
X174044000Y-99681357D01*
X174158286Y-99624214D01*
X174786857Y-99624214D01*
X174786857Y-98881357D02*
X174729714Y-98995643D01*
X174672571Y-99052786D01*
X174558286Y-99109929D01*
X174215429Y-99109929D01*
X174101143Y-99052786D01*
X174044000Y-98995643D01*
X173986857Y-98881357D01*
X173986857Y-98709929D01*
X174044000Y-98595643D01*
X174101143Y-98538500D01*
X174215429Y-98481357D01*
X174558286Y-98481357D01*
X174672571Y-98538500D01*
X174729714Y-98595643D01*
X174786857Y-98709929D01*
X174786857Y-98881357D01*
X174786857Y-97052786D02*
X173586857Y-97052786D01*
X173586857Y-96767071D01*
X173644000Y-96595643D01*
X173758286Y-96481357D01*
X173872571Y-96424214D01*
X174101143Y-96367071D01*
X174272571Y-96367071D01*
X174501143Y-96424214D01*
X174615429Y-96481357D01*
X174729714Y-96595643D01*
X174786857Y-96767071D01*
X174786857Y-97052786D01*
X174786857Y-95852786D02*
X173986857Y-95852786D01*
X173586857Y-95852786D02*
X173644000Y-95909929D01*
X173701143Y-95852786D01*
X173644000Y-95795643D01*
X173586857Y-95852786D01*
X173701143Y-95852786D01*
X173986857Y-94767071D02*
X174958286Y-94767071D01*
X175072571Y-94824214D01*
X175129714Y-94881357D01*
X175186857Y-94995642D01*
X175186857Y-95167071D01*
X175129714Y-95281357D01*
X174729714Y-94767071D02*
X174786857Y-94881357D01*
X174786857Y-95109928D01*
X174729714Y-95224214D01*
X174672571Y-95281357D01*
X174558286Y-95338500D01*
X174215429Y-95338500D01*
X174101143Y-95281357D01*
X174044000Y-95224214D01*
X173986857Y-95109928D01*
X173986857Y-94881357D01*
X174044000Y-94767071D01*
X174786857Y-94195643D02*
X173986857Y-94195643D01*
X173586857Y-94195643D02*
X173644000Y-94252786D01*
X173701143Y-94195643D01*
X173644000Y-94138500D01*
X173586857Y-94195643D01*
X173701143Y-94195643D01*
X173986857Y-93795642D02*
X173986857Y-93338499D01*
X173586857Y-93624214D02*
X174615429Y-93624214D01*
X174729714Y-93567071D01*
X174786857Y-93452785D01*
X174786857Y-93338499D01*
X174786857Y-92424214D02*
X174158286Y-92424214D01*
X174044000Y-92481357D01*
X173986857Y-92595643D01*
X173986857Y-92824214D01*
X174044000Y-92938500D01*
X174729714Y-92424214D02*
X174786857Y-92538500D01*
X174786857Y-92824214D01*
X174729714Y-92938500D01*
X174615429Y-92995643D01*
X174501143Y-92995643D01*
X174386857Y-92938500D01*
X174329714Y-92824214D01*
X174329714Y-92538500D01*
X174272571Y-92424214D01*
X174786857Y-91681357D02*
X174729714Y-91795643D01*
X174615429Y-91852786D01*
X173586857Y-91852786D01*
X174786857Y-90309929D02*
X173586857Y-90309929D01*
X173586857Y-89852786D01*
X173644000Y-89738500D01*
X173701143Y-89681357D01*
X173815429Y-89624214D01*
X173986857Y-89624214D01*
X174101143Y-89681357D01*
X174158286Y-89738500D01*
X174215429Y-89852786D01*
X174215429Y-90309929D01*
X174786857Y-89109929D02*
X173986857Y-89109929D01*
X173586857Y-89109929D02*
X173644000Y-89167072D01*
X173701143Y-89109929D01*
X173644000Y-89052786D01*
X173586857Y-89109929D01*
X173701143Y-89109929D01*
X173986857Y-88538500D02*
X174786857Y-88538500D01*
X174101143Y-88538500D02*
X174044000Y-88481357D01*
X173986857Y-88367071D01*
X173986857Y-88195643D01*
X174044000Y-88081357D01*
X174158286Y-88024214D01*
X174786857Y-88024214D01*
X174729714Y-87509929D02*
X174786857Y-87395643D01*
X174786857Y-87167071D01*
X174729714Y-87052786D01*
X174615429Y-86995643D01*
X174558286Y-86995643D01*
X174444000Y-87052786D01*
X174386857Y-87167071D01*
X174386857Y-87338500D01*
X174329714Y-87452786D01*
X174215429Y-87509929D01*
X174158286Y-87509929D01*
X174044000Y-87452786D01*
X173986857Y-87338500D01*
X173986857Y-87167071D01*
X174044000Y-87052786D01*
X175244000Y-85224214D02*
X175186857Y-85281356D01*
X175015429Y-85395642D01*
X174901143Y-85452785D01*
X174729714Y-85509928D01*
X174444000Y-85567071D01*
X174215429Y-85567071D01*
X173929714Y-85509928D01*
X173758286Y-85452785D01*
X173644000Y-85395642D01*
X173472571Y-85281356D01*
X173415429Y-85224214D01*
X174101143Y-84595642D02*
X174044000Y-84709928D01*
X173986857Y-84767071D01*
X173872571Y-84824214D01*
X173815429Y-84824214D01*
X173701143Y-84767071D01*
X173644000Y-84709928D01*
X173586857Y-84595642D01*
X173586857Y-84367071D01*
X173644000Y-84252785D01*
X173701143Y-84195642D01*
X173815429Y-84138499D01*
X173872571Y-84138499D01*
X173986857Y-84195642D01*
X174044000Y-84252785D01*
X174101143Y-84367071D01*
X174101143Y-84595642D01*
X174158286Y-84709928D01*
X174215429Y-84767071D01*
X174329714Y-84824214D01*
X174558286Y-84824214D01*
X174672571Y-84767071D01*
X174729714Y-84709928D01*
X174786857Y-84595642D01*
X174786857Y-84367071D01*
X174729714Y-84252785D01*
X174672571Y-84195642D01*
X174558286Y-84138499D01*
X174329714Y-84138499D01*
X174215429Y-84195642D01*
X174158286Y-84252785D01*
X174101143Y-84367071D01*
X174329714Y-83624214D02*
X174329714Y-82709928D01*
X174786857Y-81509928D02*
X174786857Y-82195643D01*
X174786857Y-81852785D02*
X173586857Y-81852785D01*
X173758286Y-81967071D01*
X173872571Y-82081357D01*
X173929714Y-82195643D01*
X173586857Y-81109928D02*
X173586857Y-80367071D01*
X174044000Y-80767071D01*
X174044000Y-80595643D01*
X174101143Y-80481357D01*
X174158286Y-80424214D01*
X174272571Y-80367071D01*
X174558286Y-80367071D01*
X174672571Y-80424214D01*
X174729714Y-80481357D01*
X174786857Y-80595643D01*
X174786857Y-80938500D01*
X174729714Y-81052786D01*
X174672571Y-81109928D01*
X175244000Y-79967071D02*
X175186857Y-79909929D01*
X175015429Y-79795643D01*
X174901143Y-79738500D01*
X174729714Y-79681357D01*
X174444000Y-79624214D01*
X174215429Y-79624214D01*
X173929714Y-79681357D01*
X173758286Y-79738500D01*
X173644000Y-79795643D01*
X173472571Y-79909929D01*
X173415429Y-79967071D01*
X129895714Y-118151357D02*
X129895714Y-119122786D01*
X129952857Y-119237071D01*
X130010000Y-119294214D01*
X130124286Y-119351357D01*
X130352857Y-119351357D01*
X130467143Y-119294214D01*
X130524286Y-119237071D01*
X130581429Y-119122786D01*
X130581429Y-118151357D01*
X131781429Y-119351357D02*
X131095714Y-119351357D01*
X131438572Y-119351357D02*
X131438572Y-118151357D01*
X131324286Y-118322786D01*
X131210000Y-118437071D01*
X131095714Y-118494214D01*
X147421714Y-132502357D02*
X147421714Y-133473786D01*
X147478857Y-133588071D01*
X147536000Y-133645214D01*
X147650286Y-133702357D01*
X147878857Y-133702357D01*
X147993143Y-133645214D01*
X148050286Y-133588071D01*
X148107429Y-133473786D01*
X148107429Y-132502357D01*
X149193143Y-132502357D02*
X148964572Y-132502357D01*
X148850286Y-132559500D01*
X148793143Y-132616643D01*
X148678857Y-132788071D01*
X148621714Y-133016643D01*
X148621714Y-133473786D01*
X148678857Y-133588071D01*
X148736000Y-133645214D01*
X148850286Y-133702357D01*
X149078857Y-133702357D01*
X149193143Y-133645214D01*
X149250286Y-133588071D01*
X149307429Y-133473786D01*
X149307429Y-133188071D01*
X149250286Y-133073786D01*
X149193143Y-133016643D01*
X149078857Y-132959500D01*
X148850286Y-132959500D01*
X148736000Y-133016643D01*
X148678857Y-133073786D01*
X148621714Y-133188071D01*
X162026714Y-132438857D02*
X162026714Y-133410286D01*
X162083857Y-133524571D01*
X162141000Y-133581714D01*
X162255286Y-133638857D01*
X162483857Y-133638857D01*
X162598143Y-133581714D01*
X162655286Y-133524571D01*
X162712429Y-133410286D01*
X162712429Y-132438857D01*
X163169572Y-132438857D02*
X163969572Y-132438857D01*
X163455286Y-133638857D01*
X176441214Y-132438857D02*
X176441214Y-133410286D01*
X176498357Y-133524571D01*
X176555500Y-133581714D01*
X176669786Y-133638857D01*
X176898357Y-133638857D01*
X177012643Y-133581714D01*
X177069786Y-133524571D01*
X177126929Y-133410286D01*
X177126929Y-132438857D01*
X177869786Y-132953143D02*
X177755500Y-132896000D01*
X177698357Y-132838857D01*
X177641214Y-132724571D01*
X177641214Y-132667429D01*
X177698357Y-132553143D01*
X177755500Y-132496000D01*
X177869786Y-132438857D01*
X178098357Y-132438857D01*
X178212643Y-132496000D01*
X178269786Y-132553143D01*
X178326929Y-132667429D01*
X178326929Y-132724571D01*
X178269786Y-132838857D01*
X178212643Y-132896000D01*
X178098357Y-132953143D01*
X177869786Y-132953143D01*
X177755500Y-133010286D01*
X177698357Y-133067429D01*
X177641214Y-133181714D01*
X177641214Y-133410286D01*
X177698357Y-133524571D01*
X177755500Y-133581714D01*
X177869786Y-133638857D01*
X178098357Y-133638857D01*
X178212643Y-133581714D01*
X178269786Y-133524571D01*
X178326929Y-133410286D01*
X178326929Y-133181714D01*
X178269786Y-133067429D01*
X178212643Y-133010286D01*
X178098357Y-132953143D01*
X102654286Y-93767357D02*
X102654286Y-94738786D01*
X102711429Y-94853071D01*
X102768572Y-94910214D01*
X102882858Y-94967357D01*
X103111429Y-94967357D01*
X103225715Y-94910214D01*
X103282858Y-94853071D01*
X103340001Y-94738786D01*
X103340001Y-93767357D01*
X104540001Y-94967357D02*
X103854286Y-94967357D01*
X104197144Y-94967357D02*
X104197144Y-93767357D01*
X104082858Y-93938786D01*
X103968572Y-94053071D01*
X103854286Y-94110214D01*
X105282858Y-93767357D02*
X105397143Y-93767357D01*
X105511429Y-93824500D01*
X105568572Y-93881643D01*
X105625715Y-93995929D01*
X105682858Y-94224500D01*
X105682858Y-94510214D01*
X105625715Y-94738786D01*
X105568572Y-94853071D01*
X105511429Y-94910214D01*
X105397143Y-94967357D01*
X105282858Y-94967357D01*
X105168572Y-94910214D01*
X105111429Y-94853071D01*
X105054286Y-94738786D01*
X104997143Y-94510214D01*
X104997143Y-94224500D01*
X105054286Y-93995929D01*
X105111429Y-93881643D01*
X105168572Y-93824500D01*
X105282858Y-93767357D01*
X169008357Y-127885714D02*
X167808357Y-127885714D01*
X167808357Y-127428571D01*
X167865500Y-127314285D01*
X167922643Y-127257142D01*
X168036929Y-127199999D01*
X168208357Y-127199999D01*
X168322643Y-127257142D01*
X168379786Y-127314285D01*
X168436929Y-127428571D01*
X168436929Y-127885714D01*
X168322643Y-126514285D02*
X168265500Y-126628571D01*
X168208357Y-126685714D01*
X168094071Y-126742857D01*
X168036929Y-126742857D01*
X167922643Y-126685714D01*
X167865500Y-126628571D01*
X167808357Y-126514285D01*
X167808357Y-126285714D01*
X167865500Y-126171428D01*
X167922643Y-126114285D01*
X168036929Y-126057142D01*
X168094071Y-126057142D01*
X168208357Y-126114285D01*
X168265500Y-126171428D01*
X168322643Y-126285714D01*
X168322643Y-126514285D01*
X168379786Y-126628571D01*
X168436929Y-126685714D01*
X168551214Y-126742857D01*
X168779786Y-126742857D01*
X168894071Y-126685714D01*
X168951214Y-126628571D01*
X169008357Y-126514285D01*
X169008357Y-126285714D01*
X168951214Y-126171428D01*
X168894071Y-126114285D01*
X168779786Y-126057142D01*
X168551214Y-126057142D01*
X168436929Y-126114285D01*
X168379786Y-126171428D01*
X168322643Y-126285714D01*
X174444000Y-130427500D02*
X174444000Y-129856071D01*
X174786857Y-130541785D02*
X173586857Y-130141785D01*
X174786857Y-129741785D01*
X174786857Y-129341786D02*
X173986857Y-129341786D01*
X174215429Y-129341786D02*
X174101143Y-129284643D01*
X174044000Y-129227500D01*
X173986857Y-129113214D01*
X173986857Y-128998929D01*
X174786857Y-128084643D02*
X173586857Y-128084643D01*
X174729714Y-128084643D02*
X174786857Y-128198929D01*
X174786857Y-128427500D01*
X174729714Y-128541786D01*
X174672571Y-128598929D01*
X174558286Y-128656072D01*
X174215429Y-128656072D01*
X174101143Y-128598929D01*
X174044000Y-128541786D01*
X173986857Y-128427500D01*
X173986857Y-128198929D01*
X174044000Y-128084643D01*
X173986857Y-126998929D02*
X174786857Y-126998929D01*
X173986857Y-127513215D02*
X174615429Y-127513215D01*
X174729714Y-127456072D01*
X174786857Y-127341786D01*
X174786857Y-127170358D01*
X174729714Y-127056072D01*
X174672571Y-126998929D01*
X174786857Y-126427501D02*
X173986857Y-126427501D01*
X173586857Y-126427501D02*
X173644000Y-126484644D01*
X173701143Y-126427501D01*
X173644000Y-126370358D01*
X173586857Y-126427501D01*
X173701143Y-126427501D01*
X173986857Y-125856072D02*
X174786857Y-125856072D01*
X174101143Y-125856072D02*
X174044000Y-125798929D01*
X173986857Y-125684643D01*
X173986857Y-125513215D01*
X174044000Y-125398929D01*
X174158286Y-125341786D01*
X174786857Y-125341786D01*
X174786857Y-124598929D02*
X174729714Y-124713215D01*
X174672571Y-124770358D01*
X174558286Y-124827501D01*
X174215429Y-124827501D01*
X174101143Y-124770358D01*
X174044000Y-124713215D01*
X173986857Y-124598929D01*
X173986857Y-124427501D01*
X174044000Y-124313215D01*
X174101143Y-124256072D01*
X174215429Y-124198929D01*
X174558286Y-124198929D01*
X174672571Y-124256072D01*
X174729714Y-124313215D01*
X174786857Y-124427501D01*
X174786857Y-124598929D01*
X174786857Y-122770358D02*
X173586857Y-122770358D01*
X173586857Y-122484643D01*
X173644000Y-122313215D01*
X173758286Y-122198929D01*
X173872571Y-122141786D01*
X174101143Y-122084643D01*
X174272571Y-122084643D01*
X174501143Y-122141786D01*
X174615429Y-122198929D01*
X174729714Y-122313215D01*
X174786857Y-122484643D01*
X174786857Y-122770358D01*
X174786857Y-121570358D02*
X173986857Y-121570358D01*
X173586857Y-121570358D02*
X173644000Y-121627501D01*
X173701143Y-121570358D01*
X173644000Y-121513215D01*
X173586857Y-121570358D01*
X173701143Y-121570358D01*
X173986857Y-120484643D02*
X174958286Y-120484643D01*
X175072571Y-120541786D01*
X175129714Y-120598929D01*
X175186857Y-120713214D01*
X175186857Y-120884643D01*
X175129714Y-120998929D01*
X174729714Y-120484643D02*
X174786857Y-120598929D01*
X174786857Y-120827500D01*
X174729714Y-120941786D01*
X174672571Y-120998929D01*
X174558286Y-121056072D01*
X174215429Y-121056072D01*
X174101143Y-120998929D01*
X174044000Y-120941786D01*
X173986857Y-120827500D01*
X173986857Y-120598929D01*
X174044000Y-120484643D01*
X174786857Y-119913215D02*
X173986857Y-119913215D01*
X173586857Y-119913215D02*
X173644000Y-119970358D01*
X173701143Y-119913215D01*
X173644000Y-119856072D01*
X173586857Y-119913215D01*
X173701143Y-119913215D01*
X173986857Y-119513214D02*
X173986857Y-119056071D01*
X173586857Y-119341786D02*
X174615429Y-119341786D01*
X174729714Y-119284643D01*
X174786857Y-119170357D01*
X174786857Y-119056071D01*
X174786857Y-118141786D02*
X174158286Y-118141786D01*
X174044000Y-118198929D01*
X173986857Y-118313215D01*
X173986857Y-118541786D01*
X174044000Y-118656072D01*
X174729714Y-118141786D02*
X174786857Y-118256072D01*
X174786857Y-118541786D01*
X174729714Y-118656072D01*
X174615429Y-118713215D01*
X174501143Y-118713215D01*
X174386857Y-118656072D01*
X174329714Y-118541786D01*
X174329714Y-118256072D01*
X174272571Y-118141786D01*
X174786857Y-117398929D02*
X174729714Y-117513215D01*
X174615429Y-117570358D01*
X173586857Y-117570358D01*
X174786857Y-116027501D02*
X173586857Y-116027501D01*
X173586857Y-115570358D01*
X173644000Y-115456072D01*
X173701143Y-115398929D01*
X173815429Y-115341786D01*
X173986857Y-115341786D01*
X174101143Y-115398929D01*
X174158286Y-115456072D01*
X174215429Y-115570358D01*
X174215429Y-116027501D01*
X174786857Y-114827501D02*
X173986857Y-114827501D01*
X173586857Y-114827501D02*
X173644000Y-114884644D01*
X173701143Y-114827501D01*
X173644000Y-114770358D01*
X173586857Y-114827501D01*
X173701143Y-114827501D01*
X173986857Y-114256072D02*
X174786857Y-114256072D01*
X174101143Y-114256072D02*
X174044000Y-114198929D01*
X173986857Y-114084643D01*
X173986857Y-113913215D01*
X174044000Y-113798929D01*
X174158286Y-113741786D01*
X174786857Y-113741786D01*
X174729714Y-113227501D02*
X174786857Y-113113215D01*
X174786857Y-112884643D01*
X174729714Y-112770358D01*
X174615429Y-112713215D01*
X174558286Y-112713215D01*
X174444000Y-112770358D01*
X174386857Y-112884643D01*
X174386857Y-113056072D01*
X174329714Y-113170358D01*
X174215429Y-113227501D01*
X174158286Y-113227501D01*
X174044000Y-113170358D01*
X173986857Y-113056072D01*
X173986857Y-112884643D01*
X174044000Y-112770358D01*
X175244000Y-110941786D02*
X175186857Y-110998928D01*
X175015429Y-111113214D01*
X174901143Y-111170357D01*
X174729714Y-111227500D01*
X174444000Y-111284643D01*
X174215429Y-111284643D01*
X173929714Y-111227500D01*
X173758286Y-111170357D01*
X173644000Y-111113214D01*
X173472571Y-110998928D01*
X173415429Y-110941786D01*
X173586857Y-110256071D02*
X173586857Y-110141786D01*
X173644000Y-110027500D01*
X173701143Y-109970357D01*
X173815429Y-109913214D01*
X174044000Y-109856071D01*
X174329714Y-109856071D01*
X174558286Y-109913214D01*
X174672571Y-109970357D01*
X174729714Y-110027500D01*
X174786857Y-110141786D01*
X174786857Y-110256071D01*
X174729714Y-110370357D01*
X174672571Y-110427500D01*
X174558286Y-110484643D01*
X174329714Y-110541786D01*
X174044000Y-110541786D01*
X173815429Y-110484643D01*
X173701143Y-110427500D01*
X173644000Y-110370357D01*
X173586857Y-110256071D01*
X174329714Y-109341786D02*
X174329714Y-108427500D01*
X173586857Y-107970357D02*
X173586857Y-107170357D01*
X174786857Y-107684643D01*
X175244000Y-106827500D02*
X175186857Y-106770358D01*
X175015429Y-106656072D01*
X174901143Y-106598929D01*
X174729714Y-106541786D01*
X174444000Y-106484643D01*
X174215429Y-106484643D01*
X173929714Y-106541786D01*
X173758286Y-106598929D01*
X173644000Y-106656072D01*
X173472571Y-106770358D01*
X173415429Y-106827500D01*
X105019501Y-132762571D02*
X104962358Y-132819714D01*
X104790929Y-132876857D01*
X104676643Y-132876857D01*
X104505215Y-132819714D01*
X104390929Y-132705429D01*
X104333786Y-132591143D01*
X104276643Y-132362571D01*
X104276643Y-132191143D01*
X104333786Y-131962571D01*
X104390929Y-131848286D01*
X104505215Y-131734000D01*
X104676643Y-131676857D01*
X104790929Y-131676857D01*
X104962358Y-131734000D01*
X105019501Y-131791143D01*
X105705215Y-132191143D02*
X105590929Y-132134000D01*
X105533786Y-132076857D01*
X105476643Y-131962571D01*
X105476643Y-131905429D01*
X105533786Y-131791143D01*
X105590929Y-131734000D01*
X105705215Y-131676857D01*
X105933786Y-131676857D01*
X106048072Y-131734000D01*
X106105215Y-131791143D01*
X106162358Y-131905429D01*
X106162358Y-131962571D01*
X106105215Y-132076857D01*
X106048072Y-132134000D01*
X105933786Y-132191143D01*
X105705215Y-132191143D01*
X105590929Y-132248286D01*
X105533786Y-132305429D01*
X105476643Y-132419714D01*
X105476643Y-132648286D01*
X105533786Y-132762571D01*
X105590929Y-132819714D01*
X105705215Y-132876857D01*
X105933786Y-132876857D01*
X106048072Y-132819714D01*
X106105215Y-132762571D01*
X106162358Y-132648286D01*
X106162358Y-132419714D01*
X106105215Y-132305429D01*
X106048072Y-132248286D01*
X105933786Y-132191143D01*
X105019501Y-129460571D02*
X104962358Y-129517714D01*
X104790929Y-129574857D01*
X104676643Y-129574857D01*
X104505215Y-129517714D01*
X104390929Y-129403429D01*
X104333786Y-129289143D01*
X104276643Y-129060571D01*
X104276643Y-128889143D01*
X104333786Y-128660571D01*
X104390929Y-128546286D01*
X104505215Y-128432000D01*
X104676643Y-128374857D01*
X104790929Y-128374857D01*
X104962358Y-128432000D01*
X105019501Y-128489143D01*
X105419501Y-128374857D02*
X106162358Y-128374857D01*
X105762358Y-128832000D01*
X105933786Y-128832000D01*
X106048072Y-128889143D01*
X106105215Y-128946286D01*
X106162358Y-129060571D01*
X106162358Y-129346286D01*
X106105215Y-129460571D01*
X106048072Y-129517714D01*
X105933786Y-129574857D01*
X105590929Y-129574857D01*
X105476643Y-129517714D01*
X105419501Y-129460571D01*
X115052501Y-117332071D02*
X114995358Y-117389214D01*
X114823929Y-117446357D01*
X114709643Y-117446357D01*
X114538215Y-117389214D01*
X114423929Y-117274929D01*
X114366786Y-117160643D01*
X114309643Y-116932071D01*
X114309643Y-116760643D01*
X114366786Y-116532071D01*
X114423929Y-116417786D01*
X114538215Y-116303500D01*
X114709643Y-116246357D01*
X114823929Y-116246357D01*
X114995358Y-116303500D01*
X115052501Y-116360643D01*
X116138215Y-116246357D02*
X115566786Y-116246357D01*
X115509643Y-116817786D01*
X115566786Y-116760643D01*
X115681072Y-116703500D01*
X115966786Y-116703500D01*
X116081072Y-116760643D01*
X116138215Y-116817786D01*
X116195358Y-116932071D01*
X116195358Y-117217786D01*
X116138215Y-117332071D01*
X116081072Y-117389214D01*
X115966786Y-117446357D01*
X115681072Y-117446357D01*
X115566786Y-117389214D01*
X115509643Y-117332071D01*
X117014571Y-101799928D02*
X117071714Y-101857071D01*
X117128857Y-102028500D01*
X117128857Y-102142786D01*
X117071714Y-102314214D01*
X116957429Y-102428500D01*
X116843143Y-102485643D01*
X116614571Y-102542786D01*
X116443143Y-102542786D01*
X116214571Y-102485643D01*
X116100286Y-102428500D01*
X115986000Y-102314214D01*
X115928857Y-102142786D01*
X115928857Y-102028500D01*
X115986000Y-101857071D01*
X116043143Y-101799928D01*
X117128857Y-100657071D02*
X117128857Y-101342786D01*
X117128857Y-100999928D02*
X115928857Y-100999928D01*
X116100286Y-101114214D01*
X116214571Y-101228500D01*
X116271714Y-101342786D01*
X117128857Y-99514214D02*
X117128857Y-100199929D01*
X117128857Y-99857071D02*
X115928857Y-99857071D01*
X116100286Y-99971357D01*
X116214571Y-100085643D01*
X116271714Y-100199929D01*
X112906357Y-115223857D02*
X112906357Y-114023857D01*
X113363500Y-114023857D01*
X113477786Y-114081000D01*
X113534929Y-114138143D01*
X113592072Y-114252429D01*
X113592072Y-114423857D01*
X113534929Y-114538143D01*
X113477786Y-114595286D01*
X113363500Y-114652429D01*
X112906357Y-114652429D01*
X114734929Y-115223857D02*
X114049214Y-115223857D01*
X114392072Y-115223857D02*
X114392072Y-114023857D01*
X114277786Y-114195286D01*
X114163500Y-114309571D01*
X114049214Y-114366714D01*
X115820643Y-114023857D02*
X115249214Y-114023857D01*
X115192071Y-114595286D01*
X115249214Y-114538143D01*
X115363500Y-114481000D01*
X115649214Y-114481000D01*
X115763500Y-114538143D01*
X115820643Y-114595286D01*
X115877786Y-114709571D01*
X115877786Y-114995286D01*
X115820643Y-115109571D01*
X115763500Y-115166714D01*
X115649214Y-115223857D01*
X115363500Y-115223857D01*
X115249214Y-115166714D01*
X115192071Y-115109571D01*
X116500357Y-114236072D02*
X117357500Y-114236072D01*
X117528929Y-114293214D01*
X117643214Y-114407500D01*
X117700357Y-114578929D01*
X117700357Y-114693214D01*
X117700357Y-113664643D02*
X116500357Y-113664643D01*
X116500357Y-113207500D01*
X116557500Y-113093214D01*
X116614643Y-113036071D01*
X116728929Y-112978928D01*
X116900357Y-112978928D01*
X117014643Y-113036071D01*
X117071786Y-113093214D01*
X117128929Y-113207500D01*
X117128929Y-113664643D01*
X117071786Y-111550357D02*
X117071786Y-111150357D01*
X117700357Y-110978928D02*
X117700357Y-111550357D01*
X116500357Y-111550357D01*
X116500357Y-110978928D01*
X116500357Y-110578928D02*
X117700357Y-109778928D01*
X116500357Y-109778928D02*
X117700357Y-110578928D01*
X116500357Y-109493214D02*
X116500357Y-108807500D01*
X117700357Y-109150357D02*
X116500357Y-109150357D01*
X117814643Y-108693214D02*
X117814643Y-107778928D01*
X116500357Y-107664642D02*
X117700357Y-107264642D01*
X116500357Y-106864642D01*
X106527714Y-119040357D02*
X106527714Y-120011786D01*
X106584857Y-120126071D01*
X106642000Y-120183214D01*
X106756286Y-120240357D01*
X106984857Y-120240357D01*
X107099143Y-120183214D01*
X107156286Y-120126071D01*
X107213429Y-120011786D01*
X107213429Y-119040357D01*
X107842000Y-120240357D02*
X108070572Y-120240357D01*
X108184857Y-120183214D01*
X108242000Y-120126071D01*
X108356286Y-119954643D01*
X108413429Y-119726071D01*
X108413429Y-119268929D01*
X108356286Y-119154643D01*
X108299143Y-119097500D01*
X108184857Y-119040357D01*
X107956286Y-119040357D01*
X107842000Y-119097500D01*
X107784857Y-119154643D01*
X107727714Y-119268929D01*
X107727714Y-119554643D01*
X107784857Y-119668929D01*
X107842000Y-119726071D01*
X107956286Y-119783214D01*
X108184857Y-119783214D01*
X108299143Y-119726071D01*
X108356286Y-119668929D01*
X108413429Y-119554643D01*
X113449214Y-132502357D02*
X113449214Y-133473786D01*
X113506357Y-133588071D01*
X113563500Y-133645214D01*
X113677786Y-133702357D01*
X113906357Y-133702357D01*
X114020643Y-133645214D01*
X114077786Y-133588071D01*
X114134929Y-133473786D01*
X114134929Y-132502357D01*
X114649214Y-132616643D02*
X114706357Y-132559500D01*
X114820643Y-132502357D01*
X115106357Y-132502357D01*
X115220643Y-132559500D01*
X115277786Y-132616643D01*
X115334929Y-132730929D01*
X115334929Y-132845214D01*
X115277786Y-133016643D01*
X114592072Y-133702357D01*
X115334929Y-133702357D01*
X118148214Y-132502357D02*
X118148214Y-133473786D01*
X118205357Y-133588071D01*
X118262500Y-133645214D01*
X118376786Y-133702357D01*
X118605357Y-133702357D01*
X118719643Y-133645214D01*
X118776786Y-133588071D01*
X118833929Y-133473786D01*
X118833929Y-132502357D01*
X119291072Y-132502357D02*
X120033929Y-132502357D01*
X119633929Y-132959500D01*
X119805357Y-132959500D01*
X119919643Y-133016643D01*
X119976786Y-133073786D01*
X120033929Y-133188071D01*
X120033929Y-133473786D01*
X119976786Y-133588071D01*
X119919643Y-133645214D01*
X119805357Y-133702357D01*
X119462500Y-133702357D01*
X119348214Y-133645214D01*
X119291072Y-133588071D01*
X132943714Y-132438857D02*
X132943714Y-133410286D01*
X133000857Y-133524571D01*
X133058000Y-133581714D01*
X133172286Y-133638857D01*
X133400857Y-133638857D01*
X133515143Y-133581714D01*
X133572286Y-133524571D01*
X133629429Y-133410286D01*
X133629429Y-132438857D01*
X134772286Y-132438857D02*
X134200857Y-132438857D01*
X134143714Y-133010286D01*
X134200857Y-132953143D01*
X134315143Y-132896000D01*
X134600857Y-132896000D01*
X134715143Y-132953143D01*
X134772286Y-133010286D01*
X134829429Y-133124571D01*
X134829429Y-133410286D01*
X134772286Y-133524571D01*
X134715143Y-133581714D01*
X134600857Y-133638857D01*
X134315143Y-133638857D01*
X134200857Y-133581714D01*
X134143714Y-133524571D01*
X112506071Y-93036928D02*
X112563214Y-93094071D01*
X112620357Y-93265500D01*
X112620357Y-93379786D01*
X112563214Y-93551214D01*
X112448929Y-93665500D01*
X112334643Y-93722643D01*
X112106071Y-93779786D01*
X111934643Y-93779786D01*
X111706071Y-93722643D01*
X111591786Y-93665500D01*
X111477500Y-93551214D01*
X111420357Y-93379786D01*
X111420357Y-93265500D01*
X111477500Y-93094071D01*
X111534643Y-93036928D01*
X112620357Y-91894071D02*
X112620357Y-92579786D01*
X112620357Y-92236928D02*
X111420357Y-92236928D01*
X111591786Y-92351214D01*
X111706071Y-92465500D01*
X111763214Y-92579786D01*
X111420357Y-91494071D02*
X111420357Y-90751214D01*
X111877500Y-91151214D01*
X111877500Y-90979786D01*
X111934643Y-90865500D01*
X111991786Y-90808357D01*
X112106071Y-90751214D01*
X112391786Y-90751214D01*
X112506071Y-90808357D01*
X112563214Y-90865500D01*
X112620357Y-90979786D01*
X112620357Y-91322643D01*
X112563214Y-91436929D01*
X112506071Y-91494071D01*
M02*
