G04 #@! TF.FileFunction,Soldermask,Top*
%FSLAX46Y46*%
G04 Gerber Fmt 4.6, Leading zero omitted, Abs format (unit mm)*
G04 Created by KiCad (PCBNEW 4.0.0-rc1-stable) date 23.12.2015 15:42:51*
%MOMM*%
G01*
G04 APERTURE LIST*
%ADD10C,0.150000*%
%ADD11C,2.900000*%
%ADD12R,2.900000X2.900000*%
%ADD13C,3.400000*%
%ADD14C,2.000000*%
%ADD15R,1.600000X1.300000*%
%ADD16C,1.906220*%
%ADD17R,2.550000X1.350000*%
%ADD18R,2.550000X3.650000*%
%ADD19R,3.399740X1.901140*%
%ADD20R,1.600000X1.150000*%
%ADD21R,2.900000X2.127200*%
%ADD22O,2.900000X2.127200*%
%ADD23R,2.200000X2.400000*%
%ADD24R,2.127200X2.432000*%
%ADD25O,2.127200X2.432000*%
%ADD26R,3.900000X2.000000*%
%ADD27R,1.901140X3.100020*%
%ADD28R,1.150000X1.600000*%
%ADD29R,2.127200X2.127200*%
%ADD30O,2.127200X2.127200*%
%ADD31R,2.432000X2.127200*%
%ADD32O,2.432000X2.127200*%
%ADD33R,0.849580X1.400000*%
%ADD34R,1.400000X0.849580*%
%ADD35C,2.100000*%
%ADD36R,2.100000X2.100000*%
%ADD37R,4.400000X6.400000*%
G04 APERTURE END LIST*
D10*
D11*
X7137400Y54084400D03*
D12*
X7137400Y59334400D03*
D13*
X79933800Y5292400D03*
D14*
X81203800Y9042400D03*
X83743800Y9042400D03*
X86283800Y9042400D03*
D13*
X87553800Y5292400D03*
X65532000Y5317800D03*
D14*
X66802000Y9067800D03*
X69342000Y9067800D03*
X71882000Y9067800D03*
D13*
X73152000Y5317800D03*
X51079400Y5343200D03*
D14*
X52349400Y9093200D03*
X54889400Y9093200D03*
X57429400Y9093200D03*
D13*
X58699400Y5343200D03*
X36525200Y5343200D03*
D14*
X37795200Y9093200D03*
X40335200Y9093200D03*
X42875200Y9093200D03*
D13*
X44145200Y5343200D03*
X21971000Y5292400D03*
D14*
X23241000Y9042400D03*
X25781000Y9042400D03*
X28321000Y9042400D03*
D13*
X29591000Y5292400D03*
X7670800Y5292400D03*
D14*
X8940800Y9042400D03*
X11480800Y9042400D03*
X14020800Y9042400D03*
D13*
X15290800Y5292400D03*
D15*
X50757000Y105130600D03*
X48557000Y105130600D03*
X50757000Y102590600D03*
X48557000Y102590600D03*
X50757000Y100050600D03*
X48557000Y100050600D03*
D16*
X7086600Y98475800D03*
X7086600Y101015800D03*
X9626600Y98475800D03*
X9626600Y101015800D03*
X12166600Y98475800D03*
X12166600Y101015800D03*
X14706600Y98475800D03*
X14706600Y101015800D03*
X17246600Y98475800D03*
X17246600Y101015800D03*
X86741000Y73863200D03*
X89281000Y73863200D03*
X86741000Y71323200D03*
X89281000Y71323200D03*
X86741000Y68783200D03*
X89281000Y68783200D03*
X86741000Y66243200D03*
X89281000Y66243200D03*
X86741000Y63703200D03*
X89281000Y63703200D03*
X86741000Y52832000D03*
X89281000Y52832000D03*
X86741000Y50292000D03*
X89281000Y50292000D03*
X86741000Y47752000D03*
X89281000Y47752000D03*
X86741000Y45212000D03*
X89281000Y45212000D03*
X86741000Y42672000D03*
X89281000Y42672000D03*
X86791800Y31673800D03*
X89331800Y31673800D03*
X86791800Y29133800D03*
X89331800Y29133800D03*
X86791800Y26593800D03*
X89331800Y26593800D03*
X86791800Y24053800D03*
X89331800Y24053800D03*
X86791800Y21513800D03*
X89331800Y21513800D03*
D17*
X15367000Y28843000D03*
X15367000Y24243000D03*
X15367000Y26543000D03*
D18*
X9567000Y26543000D03*
D19*
X9748520Y32448500D03*
X13746480Y32448500D03*
X14825980Y20320000D03*
X10828020Y20320000D03*
D20*
X9591000Y13462000D03*
X11491000Y13462000D03*
D21*
X73138000Y22352000D03*
D22*
X73138000Y24892000D03*
X73138000Y27432000D03*
X73138000Y29972000D03*
X73138000Y32512000D03*
X73138000Y35052000D03*
X73138000Y37592000D03*
X73138000Y40132000D03*
D23*
X32893000Y28066500D03*
X37973000Y28066500D03*
X37973000Y24066500D03*
X32893000Y24066500D03*
D21*
X73138000Y44696000D03*
D22*
X73138000Y47236000D03*
X73138000Y49776000D03*
X73138000Y52316000D03*
X73138000Y54856000D03*
X73138000Y57396000D03*
X73138000Y59936000D03*
X73138000Y62476000D03*
X73138000Y65016000D03*
X73138000Y67556000D03*
D21*
X24638000Y22352000D03*
D22*
X24638000Y24892000D03*
X24638000Y27432000D03*
X24638000Y29972000D03*
X24638000Y32512000D03*
X24638000Y35052000D03*
D21*
X24638000Y40152000D03*
D22*
X24638000Y42692000D03*
X24638000Y45232000D03*
X24638000Y47772000D03*
X24638000Y50312000D03*
X24638000Y52852000D03*
X24638000Y55392000D03*
X24638000Y57932000D03*
D24*
X50825400Y20751800D03*
D25*
X53365400Y20751800D03*
X55905400Y20751800D03*
X58445400Y20751800D03*
X60985400Y20751800D03*
X63525400Y20751800D03*
D11*
X7112000Y38247500D03*
D12*
X7112000Y43497500D03*
D26*
X15011400Y58978800D03*
X15011400Y54102000D03*
D27*
X16294100Y63271400D03*
X21094700Y63271400D03*
D20*
X23891200Y13487400D03*
X25791200Y13487400D03*
X38445400Y13563600D03*
X40345400Y13563600D03*
X53075800Y13512800D03*
X54975800Y13512800D03*
X32895500Y20955000D03*
X34795500Y20955000D03*
X81955600Y13385800D03*
X83855600Y13385800D03*
X59756000Y31115000D03*
X61656000Y31115000D03*
X51501000Y41973500D03*
X53401000Y41973500D03*
X67579200Y13563600D03*
X69479200Y13563600D03*
D28*
X37973000Y36197500D03*
X37973000Y38097500D03*
D29*
X42291000Y95605600D03*
D30*
X39751000Y95605600D03*
X42291000Y93065600D03*
X39751000Y93065600D03*
X42291000Y90525600D03*
X39751000Y90525600D03*
D29*
X39751000Y81127600D03*
D30*
X42291000Y81127600D03*
X39751000Y83667600D03*
X42291000Y83667600D03*
X39751000Y86207600D03*
X42291000Y86207600D03*
D31*
X2260600Y78155800D03*
D32*
X2260600Y80695800D03*
X2260600Y83235800D03*
X2260600Y85775800D03*
D29*
X13436600Y88315800D03*
D30*
X10896600Y88315800D03*
X13436600Y85775800D03*
X10896600Y85775800D03*
X13436600Y83235800D03*
X10896600Y83235800D03*
D29*
X80200500Y105283000D03*
D30*
X77660500Y105283000D03*
X80200500Y102743000D03*
X77660500Y102743000D03*
X80200500Y100203000D03*
X77660500Y100203000D03*
D31*
X69215000Y95123000D03*
D32*
X69215000Y97663000D03*
X69215000Y100203000D03*
X69215000Y102743000D03*
D31*
X28829000Y58699400D03*
D32*
X28829000Y61239400D03*
X28829000Y63779400D03*
X28829000Y66319400D03*
D29*
X39941500Y68859400D03*
D30*
X37401500Y68859400D03*
X39941500Y66319400D03*
X37401500Y66319400D03*
X39941500Y63779400D03*
X37401500Y63779400D03*
D31*
X49149000Y58762900D03*
D32*
X49149000Y61302900D03*
X49149000Y63842900D03*
X49149000Y66382900D03*
D29*
X60388500Y68922900D03*
D30*
X57848500Y68922900D03*
X60388500Y66382900D03*
X57848500Y66382900D03*
X60388500Y63842900D03*
X57848500Y63842900D03*
D29*
X42291000Y105130600D03*
D30*
X39751000Y105130600D03*
X42291000Y102590600D03*
X39751000Y102590600D03*
X42291000Y100050600D03*
X39751000Y100050600D03*
D33*
X43624500Y26987500D03*
X44422060Y26987500D03*
X45222160Y26987500D03*
X46022260Y26987500D03*
X46822360Y26987500D03*
X47622460Y26987500D03*
X48422560Y26987500D03*
X49222660Y26987500D03*
X50022760Y26987500D03*
X50822860Y26987500D03*
X51622960Y26987500D03*
D34*
X53624480Y28986480D03*
X53624480Y29786580D03*
X53624480Y30586680D03*
X53624480Y31386780D03*
X53624480Y32186880D03*
X53624480Y32986980D03*
X53624480Y33787080D03*
X53624480Y34587180D03*
X53624480Y35387280D03*
X53624480Y36187380D03*
X53624480Y36987480D03*
D33*
X51622960Y38986460D03*
X50822860Y38986460D03*
X50022760Y38986460D03*
X49222660Y38986460D03*
X48422560Y38986460D03*
X47622460Y38986460D03*
X46822360Y38986460D03*
X46022260Y38986460D03*
X45222160Y38986460D03*
X44422060Y38986460D03*
X43624500Y38986460D03*
D34*
X41625520Y36987480D03*
X41625520Y36187380D03*
X41625520Y35387280D03*
X41625520Y34587180D03*
X41625520Y33787080D03*
X41625520Y32986980D03*
X41625520Y32186880D03*
X41625520Y31386780D03*
X41625520Y30586680D03*
X41625520Y29786580D03*
X41625520Y28986480D03*
D35*
X5920600Y88315800D03*
X5920600Y90855800D03*
X5920600Y85775800D03*
X5920600Y83235800D03*
X5920600Y80695800D03*
X5920600Y78155800D03*
X5920600Y75615800D03*
X5920600Y73075800D03*
D36*
X18770600Y73075800D03*
D35*
X18770600Y75615800D03*
X18770600Y78155800D03*
X18770600Y80695800D03*
X18770600Y83235800D03*
X18770600Y85775800D03*
X18770600Y90855800D03*
X18770600Y88315800D03*
X52682000Y68922900D03*
X52682000Y71462900D03*
X52682000Y66382900D03*
X52682000Y63842900D03*
X52682000Y61302900D03*
X52682000Y58762900D03*
X52682000Y56222900D03*
X52682000Y53682900D03*
D36*
X65532000Y53682900D03*
D35*
X65532000Y56222900D03*
X65532000Y58762900D03*
X65532000Y61302900D03*
X65532000Y63842900D03*
X65532000Y66382900D03*
X65532000Y71462900D03*
X65532000Y68922900D03*
X32489000Y68859400D03*
X32489000Y71399400D03*
X32489000Y66319400D03*
X32489000Y63779400D03*
X32489000Y61239400D03*
X32489000Y58699400D03*
X32489000Y56159400D03*
X32489000Y53619400D03*
D36*
X45339000Y53619400D03*
D35*
X45339000Y56159400D03*
X45339000Y58699400D03*
X45339000Y61239400D03*
X45339000Y63779400D03*
X45339000Y66319400D03*
X45339000Y71399400D03*
X45339000Y68859400D03*
X72875000Y105283000D03*
X72875000Y107823000D03*
X72875000Y102743000D03*
X72875000Y100203000D03*
X72875000Y97663000D03*
X72875000Y95123000D03*
X72875000Y92583000D03*
X72875000Y90043000D03*
D36*
X85725000Y90043000D03*
D35*
X85725000Y92583000D03*
X85725000Y95123000D03*
X85725000Y97663000D03*
X85725000Y100203000D03*
X85725000Y102743000D03*
X85725000Y107823000D03*
X85725000Y105283000D03*
D37*
X12268200Y77386200D03*
X12268200Y67386200D03*
X79222600Y94531200D03*
X79222600Y84531200D03*
X38862000Y58031400D03*
X38862000Y48031400D03*
X59029600Y58031400D03*
X59029600Y48031400D03*
M02*
