M48
;DRILL file {KiCad 4.0.0-rc1-stable} date 23.12.2015 15:43:08
;FORMAT={2:4/ absolute / inch / keep zeros}
FMAT,2
INCH,TZ
T1C0.020
T2C0.031
T3C0.035
T4C0.039
T5C0.040
T6C0.049
T7C0.059
T8C0.102
%
G90
G05
M72
T1
X001150Y020120
X001150Y019200
X002750Y012810
X003290Y031280
X003300Y030190
X003350Y029080
X006060Y018200
X007710Y014820
X007710Y008000
X007920Y004600
X008305Y023665
X008880Y032600
X008880Y031260
X008940Y033940
X009040Y025880
X009310Y024180
X010570Y036280
X011310Y007940
X011990Y029440
X012090Y014440
X012440Y037350
X012440Y034750
X012440Y032600
X012760Y017910
X013050Y004650
X013470Y015120
X013750Y022420
X013830Y023610
X013960Y021480
X015550Y007590
X015650Y015720
X015840Y009470
X016510Y007610
X016630Y017750
X016720Y022660
X016950Y006470
X017160Y017170
X017420Y013930
X017420Y008250
X017770Y016500
X018010Y012000
X018120Y011410
X018290Y016360
X018370Y040390
X018370Y039390
X018400Y041390
X018700Y029680
X018900Y014550
X019080Y016600
X019230Y030240
X019740Y005270
X019770Y004350
X019800Y030780
X019830Y009410
X020010Y014210
X020340Y031350
X020450Y012980
X020453Y006463
X021010Y009410
X021550Y010300
X021660Y009390
X021700Y015840
X021710Y016520
X021720Y017210
X021750Y023600
X021750Y022610
X022120Y031960
X022250Y022180
X022410Y020860
X022740Y036300
X022740Y035670
X022750Y028100
X022770Y035010
X022780Y034470
X022800Y012250
X022800Y009500
X023130Y020850
X023320Y005130
X023460Y041450
X023550Y004350
X024070Y018920
X024150Y036300
X024190Y035670
X024190Y034480
X024210Y035020
X024260Y010010
X024500Y028920
X024500Y022490
X024740Y020170
X024850Y018910
X024850Y018190
X025560Y012250
X025560Y004470
X025900Y035070
X026100Y031930
X026110Y031350
X026110Y030780
X026130Y030010
X026880Y010170
X027100Y029450
X027720Y029450
X028180Y029070
X028410Y031930
X028980Y032100
X029070Y029950
X029290Y004470
X029560Y032110
X029600Y029680
X029610Y037860
X029610Y036470
X029970Y016590
X030010Y027370
X030060Y035840
X030070Y013240
X030070Y012300
X030190Y031470
X030220Y029730
X030690Y011160
X030690Y009400
X031080Y031470
X031120Y015440
X031750Y019800
X031870Y029500
X031870Y026510
X032070Y030970
X032280Y029210
X032660Y009700
X032670Y032200
X032700Y028770
X032970Y018790
X033110Y030540
X033110Y027080
X033450Y018280
X033480Y014110
X033510Y029490
X033600Y032200
X034680Y033080
X035010Y032200
X035960Y030050
T2
X003520Y003560
X004520Y003560
X005520Y003560
X009150Y003560
X010150Y003560
X011150Y003560
X014880Y003580
X015880Y003580
X016880Y003580
X020610Y003580
X021610Y003580
X022610Y003580
X026300Y003570
X027300Y003570
X028300Y003570
X031970Y003560
X032970Y003560
X033970Y003560
T3
X002331Y035770
X002331Y034770
X002331Y033770
X002331Y032770
X002331Y031770
X002331Y030770
X002331Y029770
X002331Y028770
X007390Y035770
X007390Y034770
X007390Y033770
X007390Y032770
X007390Y031770
X007390Y030770
X007390Y029770
X007390Y028770
X012791Y028110
X012791Y027110
X012791Y026110
X012791Y025110
X012791Y024110
X012791Y023110
X012791Y022110
X012791Y021110
X017850Y028110
X017850Y027110
X017850Y026110
X017850Y025110
X017850Y024110
X017850Y023110
X017850Y022110
X017850Y021110
X020741Y028135
X020741Y027135
X020741Y026135
X020741Y025135
X020741Y024135
X020741Y023135
X020741Y022135
X020741Y021135
X025800Y028135
X025800Y027135
X025800Y026135
X025800Y025135
X025800Y024135
X025800Y023135
X025800Y022135
X025800Y021135
X028691Y042450
X028691Y041450
X028691Y040450
X028691Y039450
X028691Y038450
X028691Y037450
X028691Y036450
X028691Y035450
X033750Y042450
X033750Y041450
X033750Y040450
X033750Y039450
X033750Y038450
X033750Y037450
X033750Y036450
X033750Y035450
T4
X002790Y039770
X002790Y038770
X003790Y039770
X003790Y038770
X004790Y039770
X004790Y038770
X005790Y039770
X005790Y038770
X006790Y039770
X006790Y038770
X034150Y029080
X034150Y028080
X034150Y027080
X034150Y026080
X034150Y025080
X034150Y020800
X034150Y019800
X034150Y018800
X034150Y017800
X034150Y016800
X034170Y012470
X034170Y011470
X034170Y010470
X034170Y009470
X034170Y008470
X035150Y029080
X035150Y028080
X035150Y027080
X035150Y026080
X035150Y025080
X035150Y020800
X035150Y019800
X035150Y018800
X035150Y017800
X035150Y016800
X035170Y012470
X035170Y011470
X035170Y010470
X035170Y009470
X035170Y008470
T5
X000890Y033770
X000890Y032770
X000890Y031770
X000890Y030770
X004290Y034770
X004290Y033770
X004290Y032770
X005290Y034770
X005290Y033770
X005290Y032770
X009700Y022808
X009700Y021808
X009700Y020808
X009700Y019808
X009700Y018808
X009700Y017808
X009700Y016808
X009700Y015808
X009700Y013800
X009700Y012800
X009700Y011800
X009700Y010800
X009700Y009800
X009700Y008800
X011350Y026110
X011350Y025110
X011350Y024110
X011350Y023110
X014725Y027110
X014725Y026110
X014725Y025110
X015650Y041390
X015650Y040390
X015650Y039390
X015650Y037640
X015650Y036640
X015650Y035640
X015650Y033940
X015650Y032940
X015650Y031940
X015725Y027110
X015725Y026110
X015725Y025110
X016650Y041390
X016650Y040390
X016650Y039390
X016650Y037640
X016650Y036640
X016650Y035640
X016650Y033940
X016650Y032940
X016650Y031940
X019350Y026135
X019350Y025135
X019350Y024135
X019350Y023135
X020010Y008170
X021010Y008170
X022010Y008170
X022775Y027135
X022775Y026135
X022775Y025135
X023010Y008170
X023775Y027135
X023775Y026135
X023775Y025135
X024010Y008170
X025010Y008170
X027250Y040450
X027250Y039450
X027250Y038450
X027250Y037450
X028794Y026597
X028794Y025597
X028794Y024597
X028794Y023597
X028794Y022597
X028794Y021597
X028794Y020597
X028794Y019597
X028794Y018597
X028794Y017597
X028794Y015800
X028794Y014800
X028794Y013800
X028794Y012800
X028794Y011800
X028794Y010800
X028794Y009800
X028794Y008800
X030575Y041450
X030575Y040450
X030575Y039450
X031575Y041450
X031575Y040450
X031575Y039450
T6
X002800Y017125
X002800Y015058
X002810Y023360
X002810Y021293
T7
X001190Y042360
X001190Y001190
X036410Y042360
X036410Y001190
T8
X003020Y002084
X006020Y002084
X008650Y002084
X011650Y002084
X014380Y002104
X017380Y002104
X020110Y002104
X023110Y002104
X025800Y002094
X028800Y002094
X031470Y002084
X034470Y002084
T0
M30
