G04 #@! TF.FileFunction,Copper,L2,Bot,Signal*
%FSLAX46Y46*%
G04 Gerber Fmt 4.6, Leading zero omitted, Abs format (unit mm)*
G04 Created by KiCad (PCBNEW 4.0.0-rc1-stable) date 12.5.2016 9:55:17*
%MOMM*%
G01*
G04 APERTURE LIST*
%ADD10C,0.100000*%
%ADD11C,2.500000*%
%ADD12R,1.727200X1.727200*%
%ADD13O,1.727200X1.727200*%
%ADD14R,1.000000X1.500000*%
%ADD15O,1.524000X2.540000*%
%ADD16C,3.175000*%
%ADD17C,1.506220*%
%ADD18C,2.000000*%
%ADD19C,1.000000*%
%ADD20C,0.500000*%
%ADD21C,0.400000*%
%ADD22C,0.750000*%
%ADD23C,1.000000*%
%ADD24C,1.500000*%
G04 APERTURE END LIST*
D10*
D11*
X45175000Y-8275000D03*
X45175000Y-48075000D03*
D12*
X10075000Y-8065000D03*
D13*
X10075000Y-5525000D03*
X12615000Y-8065000D03*
X12615000Y-5525000D03*
X15155000Y-8065000D03*
X15155000Y-5525000D03*
X17695000Y-8065000D03*
X17695000Y-5525000D03*
X20235000Y-8065000D03*
X20235000Y-5525000D03*
X22775000Y-8065000D03*
X22775000Y-5525000D03*
X25315000Y-8065000D03*
X25315000Y-5525000D03*
X27855000Y-8065000D03*
X27855000Y-5525000D03*
X30395000Y-8065000D03*
X30395000Y-5525000D03*
X32935000Y-8065000D03*
X32935000Y-5525000D03*
X35475000Y-8065000D03*
X35475000Y-5525000D03*
X38015000Y-8065000D03*
X38015000Y-5525000D03*
X40555000Y-8065000D03*
X40555000Y-5525000D03*
D14*
X45462000Y-39350000D03*
X44100000Y-39350000D03*
X49212000Y-39350000D03*
X47850000Y-39350000D03*
D15*
X64201100Y-50763600D03*
X61661100Y-50763600D03*
X59121100Y-50763600D03*
X51501100Y-50763600D03*
X54041100Y-50763600D03*
X56581100Y-50763600D03*
X46421100Y-50763600D03*
X43881100Y-50763600D03*
X41341100Y-50763600D03*
X36261100Y-50763600D03*
X33721100Y-50763600D03*
X64201100Y-2503600D03*
X61661100Y-2503600D03*
X59121100Y-2503600D03*
X56581100Y-2503600D03*
X54041100Y-2503600D03*
X51501100Y-2503600D03*
X48961100Y-2503600D03*
X46421100Y-2503600D03*
X42357100Y-2503600D03*
X39817100Y-2503600D03*
X37277100Y-2503600D03*
X34737100Y-2503600D03*
X32197100Y-2503600D03*
X29657100Y-2503600D03*
X27117100Y-2503600D03*
X24577100Y-2503600D03*
X38801100Y-50763600D03*
D16*
X66741100Y-45683600D03*
X66741100Y-17743600D03*
X15941100Y-2503600D03*
X14671100Y-50763600D03*
D15*
X22037100Y-2503600D03*
X19497100Y-2503600D03*
X31181100Y-50763600D03*
X28641100Y-50763600D03*
D17*
X59520000Y-20180000D03*
X56980000Y-20180000D03*
X59520000Y-17640000D03*
X56980000Y-17640000D03*
X59520000Y-15100000D03*
X56980000Y-15100000D03*
X59520000Y-12560000D03*
X56980000Y-12560000D03*
X59520000Y-10020000D03*
X56980000Y-10020000D03*
X59470000Y-42080000D03*
X56930000Y-42080000D03*
X59470000Y-39540000D03*
X56930000Y-39540000D03*
X59470000Y-37000000D03*
X56930000Y-37000000D03*
X59470000Y-34460000D03*
X56930000Y-34460000D03*
X59470000Y-31920000D03*
X56930000Y-31920000D03*
X77570000Y-42280000D03*
X75030000Y-42280000D03*
X77570000Y-39740000D03*
X75030000Y-39740000D03*
X77570000Y-37200000D03*
X75030000Y-37200000D03*
X77570000Y-34660000D03*
X75030000Y-34660000D03*
X77570000Y-32120000D03*
X75030000Y-32120000D03*
D18*
X76300000Y-3600000D03*
X76300000Y-6100000D03*
X76300000Y-11100000D03*
X76300000Y-8600000D03*
X76300000Y-16100000D03*
X76300000Y-18600000D03*
X76300000Y-23600000D03*
X76300000Y-21100000D03*
D19*
X14980000Y-16170000D03*
X23900000Y-35825000D03*
X15800000Y-36725000D03*
X38650000Y-23500000D03*
X44200000Y-23100000D03*
X27190000Y-28080000D03*
X56870000Y-46180000D03*
X17210000Y-21640000D03*
X19600000Y-12330000D03*
X16990000Y-18460000D03*
X44200000Y-24910000D03*
X38730000Y-24910000D03*
X28980000Y-30520000D03*
X73600000Y-7390000D03*
X74210000Y-12610000D03*
X44790000Y-4120000D03*
X42670000Y-26820000D03*
X38810000Y-26820000D03*
X33170000Y-31170000D03*
X43100000Y-42100000D03*
X34900000Y-11360000D03*
X51160000Y-40590000D03*
X72420000Y-44160000D03*
X37050000Y-28000000D03*
X34710000Y-37020000D03*
X42550000Y-37350000D03*
X45130000Y-42370000D03*
X55500000Y-30100000D03*
X38650000Y-46800000D03*
X42450000Y-46800000D03*
X13013000Y-36450000D03*
X68800000Y-31900000D03*
X71000000Y-13300000D03*
X75300000Y-29600000D03*
X29350000Y-42070000D03*
X29710000Y-20650000D03*
X8110000Y-24800000D03*
X24280000Y-26480000D03*
X40555000Y-33610000D03*
X55500000Y-13800000D03*
X50100000Y-13800000D03*
X44600000Y-18620000D03*
X38620000Y-18620000D03*
X48120000Y-34580000D03*
X38590000Y-17030000D03*
X44700000Y-17000000D03*
X58370000Y-33170000D03*
X63450000Y-35400000D03*
X49570000Y-33180000D03*
X45125000Y-14925000D03*
X38620000Y-15440000D03*
X37640000Y-12730000D03*
X46400000Y-12020000D03*
X55450000Y-16350000D03*
X34230000Y-9630000D03*
X31450000Y-12000000D03*
X42550000Y-35800000D03*
X43800000Y-14320000D03*
X51750000Y-37700000D03*
X44610000Y-26650000D03*
X58900000Y-25200000D03*
X29900000Y-22700000D03*
X37300000Y-22300000D03*
X59270000Y-28960000D03*
X71530000Y-30250000D03*
X67650000Y-30930000D03*
X46270000Y-28240000D03*
X26590000Y-9580000D03*
X29540000Y-13230000D03*
X43800000Y-13020000D03*
X47650000Y-7780000D03*
X36440000Y-14150000D03*
X59460000Y-7780000D03*
X70800000Y-15600000D03*
X61900000Y-13300000D03*
X68450000Y-25850000D03*
X66460000Y-32250000D03*
X66750000Y-25650000D03*
X64800000Y-32260000D03*
X64800000Y-38300000D03*
X63650000Y-21150000D03*
D20*
X14980000Y-16170000D02*
X14980000Y-11910000D01*
X16430000Y-8930000D02*
X16430000Y-9600000D01*
D21*
X16425000Y-8925000D02*
X16425000Y-6650000D01*
D20*
X17550000Y-5525000D02*
X16425000Y-6650000D01*
X16425000Y-8925000D02*
X16430000Y-8930000D01*
X16430000Y-10460000D02*
X16430000Y-9600000D01*
X14980000Y-11910000D02*
X16430000Y-10460000D01*
X17695000Y-5525000D02*
X17550000Y-5525000D01*
X23900000Y-35825000D02*
X16700000Y-35825000D01*
X16700000Y-35825000D02*
X15800000Y-36725000D01*
X56300000Y-7000000D02*
X58490000Y-4810000D01*
X60800000Y-4810000D02*
X61661100Y-3948900D01*
X58490000Y-4810000D02*
X60800000Y-4810000D01*
X44200000Y-23100000D02*
X52030000Y-15270000D01*
X52030000Y-15270000D02*
X52030000Y-13570000D01*
X38635000Y-23485000D02*
X38650000Y-23500000D01*
X37635000Y-23485000D02*
X38635000Y-23485000D01*
X31785000Y-23485000D02*
X37635000Y-23485000D01*
X37635000Y-23485000D02*
X37650000Y-23500000D01*
X54700000Y-8600000D02*
X54000000Y-9300000D01*
X54000000Y-9300000D02*
X54000000Y-11600000D01*
X54000000Y-11600000D02*
X52030000Y-13570000D01*
X61661100Y-2503600D02*
X61661100Y-3948900D01*
X56300000Y-7000000D02*
X54700000Y-8600000D01*
X27190000Y-28080000D02*
X31785000Y-23485000D01*
X56870000Y-46180000D02*
X63660000Y-46180000D01*
X78850000Y-8600000D02*
X76300000Y-8600000D01*
X80580000Y-10330000D02*
X78850000Y-8600000D01*
X80580000Y-43300000D02*
X80580000Y-10330000D01*
X75640000Y-48240000D02*
X80580000Y-43300000D01*
X65720000Y-48240000D02*
X75640000Y-48240000D01*
X63660000Y-46180000D02*
X65720000Y-48240000D01*
X19600000Y-19250000D02*
X17210000Y-21640000D01*
X19600000Y-12330000D02*
X19600000Y-19250000D01*
X18960000Y-8920000D02*
X18230000Y-9650000D01*
X20235000Y-5525000D02*
X18960000Y-6800000D01*
D21*
X18960000Y-6800000D02*
X18960000Y-8760000D01*
X18960000Y-8760000D02*
X18960000Y-8920000D01*
D20*
X16990000Y-12490000D02*
X18230000Y-11250000D01*
X18230000Y-11250000D02*
X18230000Y-9850000D01*
X16990000Y-18460000D02*
X16990000Y-12490000D01*
X18230000Y-9650000D02*
X18230000Y-9850000D01*
X56600000Y-8100000D02*
X58790000Y-5910000D01*
X58790000Y-5910000D02*
X62490000Y-5910000D01*
X45700000Y-24200000D02*
X53750000Y-16150000D01*
X53750000Y-16150000D02*
X53750000Y-13550000D01*
X44200000Y-24910000D02*
X44990000Y-24910000D01*
X55300000Y-12000000D02*
X53750000Y-13550000D01*
X55300000Y-9400000D02*
X55300000Y-12000000D01*
X56600000Y-8100000D02*
X55300000Y-9400000D01*
X64201100Y-4198900D02*
X64201100Y-2503600D01*
X64201100Y-4198900D02*
X62490000Y-5910000D01*
X44990000Y-24910000D02*
X45700000Y-24200000D01*
X44200000Y-24910000D02*
X44200000Y-24900000D01*
X28980000Y-29910000D02*
X33980000Y-24910000D01*
X33980000Y-24910000D02*
X38730000Y-24910000D01*
X28980000Y-30520000D02*
X28980000Y-29910000D01*
X41300000Y-10840000D02*
X40790000Y-11350000D01*
X40790000Y-12960000D02*
X42670000Y-14840000D01*
X40790000Y-11350000D02*
X40790000Y-12960000D01*
X74210000Y-8000000D02*
X73600000Y-7390000D01*
X74210000Y-12610000D02*
X74210000Y-8000000D01*
X42340000Y-5060000D02*
X43280000Y-4120000D01*
X43280000Y-4120000D02*
X44790000Y-4120000D01*
X42670000Y-14840000D02*
X42670000Y-15670000D01*
X42340000Y-9800000D02*
X41300000Y-10840000D01*
X42340000Y-5060000D02*
X42340000Y-9800000D01*
X42670000Y-26820000D02*
X42670000Y-15670000D01*
X33170000Y-31170000D02*
X33170000Y-28160000D01*
X34510000Y-26820000D02*
X38810000Y-26820000D01*
X33170000Y-28160000D02*
X34510000Y-26820000D01*
X42340000Y-5060000D02*
X39817100Y-2537100D01*
D22*
X33170000Y-31170000D02*
X33200000Y-31170000D01*
D20*
X39817100Y-2503600D02*
X39817100Y-2537100D01*
X44100000Y-39350000D02*
X44100000Y-41100000D01*
X44100000Y-41100000D02*
X43100000Y-42100000D01*
X45462000Y-39350000D02*
X45462000Y-40612000D01*
X47950000Y-43100000D02*
X47950000Y-46350000D01*
X45462000Y-40612000D02*
X47950000Y-43100000D01*
X61661100Y-49361100D02*
X61661100Y-50763600D01*
X60900000Y-48600000D02*
X61661100Y-49361100D01*
X50200000Y-48600000D02*
X60900000Y-48600000D01*
X47950000Y-46350000D02*
X50200000Y-48600000D01*
X34900000Y-11360000D02*
X34920000Y-11360000D01*
X34920000Y-11360000D02*
X36740000Y-9540000D01*
X55600000Y-45030000D02*
X62200000Y-45030000D01*
X62200000Y-45030000D02*
X64300000Y-42930000D01*
X64300000Y-42930000D02*
X71190000Y-42930000D01*
X71190000Y-42930000D02*
X72420000Y-44160000D01*
X51160000Y-40590000D02*
X55600000Y-45030000D01*
X35200000Y-29850000D02*
X37050000Y-28000000D01*
X35200000Y-30850000D02*
X35200000Y-29850000D01*
D21*
X37277100Y-2503600D02*
X37277100Y-3972900D01*
X37277100Y-3972900D02*
X36740000Y-4510000D01*
X36740000Y-4510000D02*
X36740000Y-9540000D01*
D20*
X35200000Y-36530000D02*
X34710000Y-37020000D01*
X35200000Y-30850000D02*
X35200000Y-36530000D01*
X47850000Y-37850000D02*
X47350000Y-37350000D01*
X47350000Y-37350000D02*
X42550000Y-37350000D01*
X47850000Y-37850000D02*
X47850000Y-39350000D01*
X49212000Y-39350000D02*
X49212000Y-46312000D01*
X64201100Y-48501100D02*
X64201100Y-50763600D01*
X63400000Y-47700000D02*
X64201100Y-48501100D01*
X50600000Y-47700000D02*
X63400000Y-47700000D01*
X49212000Y-46312000D02*
X50600000Y-47700000D01*
D23*
X42450000Y-45050000D02*
X45130000Y-42370000D01*
X42450000Y-46800000D02*
X42450000Y-45050000D01*
X57650000Y-30100000D02*
X59470000Y-31920000D01*
X55500000Y-30100000D02*
X57650000Y-30100000D01*
X13013000Y-41713000D02*
X18100000Y-46800000D01*
X18100000Y-46800000D02*
X38650000Y-46800000D01*
X13013000Y-36450000D02*
X13013000Y-41713000D01*
X13050000Y-36450000D02*
X13000000Y-36450000D01*
X13000000Y-36450000D02*
X13013000Y-36450000D01*
X59470000Y-31920000D02*
X61150000Y-33600000D01*
X61150000Y-33600000D02*
X67100000Y-33600000D01*
X67100000Y-33600000D02*
X68800000Y-31900000D01*
D21*
X68800000Y-31900000D02*
X68800000Y-31920000D01*
X68800000Y-31920000D02*
X68800000Y-31900000D01*
X68800000Y-31900000D02*
X68800000Y-31920000D01*
D23*
X71000000Y-13300000D02*
X72800000Y-13300000D01*
X73900000Y-28200000D02*
X75300000Y-29600000D01*
X73900000Y-14400000D02*
X73900000Y-28200000D01*
X72800000Y-13300000D02*
X73900000Y-14400000D01*
X67720000Y-10020000D02*
X71000000Y-13300000D01*
X67720000Y-10020000D02*
X59520000Y-10020000D01*
X75300000Y-29600000D02*
X74600000Y-29600000D01*
X74600000Y-29600000D02*
X72280000Y-31920000D01*
X72280000Y-31920000D02*
X68800000Y-31920000D01*
D24*
X40555000Y-8065000D02*
X40555000Y-9025000D01*
X40555000Y-15025000D02*
X40555000Y-16540000D01*
X39230000Y-13700000D02*
X40555000Y-15025000D01*
X39230000Y-10350000D02*
X39230000Y-13700000D01*
X40555000Y-9025000D02*
X39230000Y-10350000D01*
D23*
X65610000Y-41370000D02*
X72110000Y-41370000D01*
X72110000Y-41370000D02*
X73020000Y-42280000D01*
X60720000Y-43850000D02*
X63200000Y-41370000D01*
X63200000Y-41370000D02*
X65610000Y-41370000D01*
X56930000Y-42080000D02*
X56930000Y-42910000D01*
X57870000Y-43850000D02*
X60720000Y-43850000D01*
X56930000Y-42910000D02*
X57870000Y-43850000D01*
D20*
X30855000Y-42095000D02*
X29375000Y-42095000D01*
X29375000Y-42095000D02*
X29350000Y-42070000D01*
D23*
X76300000Y-16100000D02*
X77400000Y-16100000D01*
X78360000Y-17060000D02*
X78360000Y-28790000D01*
X77400000Y-16100000D02*
X78360000Y-17060000D01*
X73020000Y-42280000D02*
X75030000Y-42280000D01*
X78360000Y-28790000D02*
X75030000Y-32120000D01*
D24*
X8100000Y-24800000D02*
X5150000Y-21850000D01*
D22*
X33942500Y-40367500D02*
X32582500Y-40367500D01*
X32582500Y-40367500D02*
X30855000Y-42095000D01*
X23127500Y-29552500D02*
X23127500Y-27632500D01*
X23127500Y-27632500D02*
X24280000Y-26480000D01*
D24*
X40555000Y-20650000D02*
X29710000Y-20650000D01*
X29710000Y-20650000D02*
X22525000Y-20650000D01*
X22525000Y-20650000D02*
X21670000Y-21505000D01*
X18375000Y-24800000D02*
X23127500Y-29552500D01*
X23127500Y-29552500D02*
X33942500Y-40367500D01*
X33942500Y-40367500D02*
X35575000Y-42000000D01*
X35575000Y-42000000D02*
X40555000Y-42000000D01*
X40555000Y-16540000D02*
X40540000Y-16540000D01*
X40540000Y-16540000D02*
X40555000Y-16540000D01*
D21*
X27117100Y-2503600D02*
X27117100Y-2607100D01*
X27117100Y-2607100D02*
X28730000Y-4220000D01*
X31630000Y-4220000D02*
X32935000Y-5525000D01*
X28730000Y-4220000D02*
X31630000Y-4220000D01*
D24*
X20235000Y-10165000D02*
X21670000Y-11600000D01*
X21670000Y-16540000D02*
X21670000Y-21505000D01*
X21670000Y-11600000D02*
X21670000Y-16540000D01*
X20235000Y-10165000D02*
X20235000Y-10150000D01*
X20235000Y-8065000D02*
X20235000Y-10150000D01*
X18375000Y-24800000D02*
X8110000Y-24800000D01*
X8110000Y-24800000D02*
X8100000Y-24800000D01*
X5150000Y-21850000D02*
X5150000Y-9625000D01*
X12725000Y-2950000D02*
X6775000Y-2950000D01*
D22*
X12725000Y-2950000D02*
X15155000Y-5380000D01*
D24*
X5150000Y-4575000D02*
X5150000Y-9625000D01*
X6775000Y-2950000D02*
X5150000Y-4575000D01*
X21670000Y-21505000D02*
X18375000Y-24800000D01*
X40555000Y-16540000D02*
X40555000Y-20650000D01*
X40555000Y-20650000D02*
X40555000Y-33610000D01*
X40555000Y-33610000D02*
X40555000Y-41170000D01*
X40555000Y-41170000D02*
X40555000Y-42000000D01*
X40555000Y-42000000D02*
X40555000Y-48425000D01*
X41341100Y-49211100D02*
X41341100Y-50763600D01*
X40555000Y-48425000D02*
X41341100Y-49211100D01*
D22*
X15155000Y-5525000D02*
X15155000Y-5380000D01*
D20*
X23610000Y-11550000D02*
X23610000Y-16130000D01*
X26100000Y-18620000D02*
X30680000Y-18620000D01*
X23610000Y-16130000D02*
X26100000Y-18620000D01*
X55900000Y-5900000D02*
X59121100Y-2678900D01*
X59121100Y-2678900D02*
X59121100Y-2503600D01*
X58300000Y-13800000D02*
X55500000Y-13800000D01*
X58300000Y-13800000D02*
X59520000Y-15020000D01*
X50100000Y-13800000D02*
X50050000Y-13750000D01*
X50050000Y-13750000D02*
X50100000Y-13800000D01*
X50100000Y-13800000D02*
X50100000Y-13700000D01*
X59520000Y-15100000D02*
X59520000Y-15020000D01*
X54000000Y-7800000D02*
X52800000Y-9000000D01*
X55900000Y-5900000D02*
X54000000Y-7800000D01*
X45180000Y-18620000D02*
X44600000Y-18620000D01*
X52800000Y-11000000D02*
X50100000Y-13700000D01*
X50100000Y-13700000D02*
X45180000Y-18620000D01*
X52800000Y-9000000D02*
X52800000Y-11000000D01*
X30680000Y-18620000D02*
X38620000Y-18620000D01*
X44600000Y-18620000D02*
X44600000Y-18600000D01*
X22775000Y-9635000D02*
X23610000Y-10470000D01*
X23610000Y-10470000D02*
X23610000Y-11550000D01*
X22775000Y-9635000D02*
X22775000Y-8065000D01*
X25315000Y-10750000D02*
X25315000Y-15215000D01*
X27130000Y-17030000D02*
X31595000Y-17030000D01*
X25315000Y-15215000D02*
X27130000Y-17030000D01*
X48120000Y-34580000D02*
X54630000Y-34580000D01*
D21*
X58170000Y-35700000D02*
X55750000Y-35700000D01*
X59470000Y-37000000D02*
X58170000Y-35700000D01*
D20*
X54630000Y-34580000D02*
X55750000Y-35700000D01*
X51900000Y-8200000D02*
X51300000Y-8800000D01*
X51300000Y-8800000D02*
X51300000Y-10400000D01*
X53150000Y-6950000D02*
X51900000Y-8200000D01*
X31595000Y-17030000D02*
X38590000Y-17030000D01*
X25315000Y-10750000D02*
X25315000Y-8065000D01*
X51300000Y-10400000D02*
X44700000Y-17000000D01*
X56581100Y-2503600D02*
X56581100Y-3518900D01*
X56581100Y-3518900D02*
X53150000Y-6950000D01*
X53150000Y-6950000D02*
X53100000Y-7000000D01*
X27855000Y-10905000D02*
X27855000Y-14425000D01*
X28870000Y-15440000D02*
X32390000Y-15440000D01*
X27855000Y-14425000D02*
X28870000Y-15440000D01*
D21*
X73800000Y-35900000D02*
X63950000Y-35900000D01*
X76270000Y-35900000D02*
X73800000Y-35900000D01*
X76270000Y-35900000D02*
X77570000Y-37200000D01*
X63950000Y-35900000D02*
X63450000Y-35400000D01*
D20*
X58360000Y-33180000D02*
X55070000Y-33180000D01*
X49570000Y-33180000D02*
X55070000Y-33180000D01*
X58370000Y-33170000D02*
X58360000Y-33180000D01*
X45125000Y-14925000D02*
X45450000Y-14600000D01*
X45125000Y-14925000D02*
X45120000Y-14930000D01*
X49650000Y-10400000D02*
X50130000Y-9920000D01*
X54041100Y-3458900D02*
X50130000Y-7370000D01*
X45450000Y-14600000D02*
X49650000Y-10400000D01*
X50130000Y-9920000D02*
X50130000Y-7370000D01*
X32390000Y-15440000D02*
X38620000Y-15440000D01*
X27855000Y-10905000D02*
X27855000Y-8065000D01*
X54041100Y-3458900D02*
X54041100Y-2503600D01*
X33290000Y-12490000D02*
X33530000Y-12730000D01*
X33530000Y-12730000D02*
X37640000Y-12730000D01*
X46400000Y-12020000D02*
X49010000Y-9410000D01*
X49010000Y-9410000D02*
X49010000Y-6390000D01*
X51501100Y-2503600D02*
X51501100Y-3898900D01*
X51501100Y-3898900D02*
X49010000Y-6390000D01*
D21*
X48300000Y-10120000D02*
X46400000Y-12020000D01*
D20*
X58230000Y-16350000D02*
X55450000Y-16350000D01*
X58230000Y-16350000D02*
X59520000Y-17640000D01*
X32970000Y-10890000D02*
X32970000Y-12170000D01*
X32970000Y-12170000D02*
X33290000Y-12490000D01*
X34230000Y-9630000D02*
X32970000Y-10890000D01*
D21*
X31660000Y-8730000D02*
X31660000Y-11790000D01*
D20*
X55250000Y-38250000D02*
X52800000Y-35800000D01*
D21*
X59470000Y-39540000D02*
X58180000Y-38250000D01*
X58180000Y-38250000D02*
X55650000Y-38250000D01*
X55250000Y-38250000D02*
X55650000Y-38250000D01*
D20*
X52800000Y-35800000D02*
X42550000Y-35800000D01*
D21*
X31660000Y-6810000D02*
X31660000Y-8730000D01*
X31660000Y-6810000D02*
X31670000Y-6800000D01*
X31660000Y-11790000D02*
X31450000Y-12000000D01*
D20*
X43140000Y-680000D02*
X48430000Y-680000D01*
X48961100Y-1211100D02*
X48961100Y-2503600D01*
X48430000Y-680000D02*
X48961100Y-1211100D01*
D21*
X34200000Y-4950000D02*
X34200000Y-4710000D01*
D20*
X43140000Y-680000D02*
X34820000Y-680000D01*
D21*
X33730000Y-6800000D02*
X34200000Y-6330000D01*
X34200000Y-6330000D02*
X34200000Y-4950000D01*
X31670000Y-6800000D02*
X30395000Y-5525000D01*
X31670000Y-6800000D02*
X33050000Y-6800000D01*
X33050000Y-6800000D02*
X33730000Y-6800000D01*
D20*
X34150000Y-680000D02*
X34820000Y-680000D01*
D21*
X33460000Y-1370000D02*
X34150000Y-680000D01*
X33460000Y-3970000D02*
X33460000Y-1370000D01*
X34200000Y-4710000D02*
X33460000Y-3970000D01*
X43200000Y-10410000D02*
X42030000Y-11580000D01*
X42030000Y-11580000D02*
X42030000Y-12670000D01*
X42030000Y-12670000D02*
X43680000Y-14320000D01*
X43680000Y-14320000D02*
X43800000Y-14320000D01*
D20*
X46421100Y-5328900D02*
X46000000Y-5750000D01*
X46421100Y-2503600D02*
X46421100Y-5328900D01*
X44300000Y-5750000D02*
X46000000Y-5750000D01*
D21*
X43200000Y-6850000D02*
X44300000Y-5750000D01*
X43200000Y-10150000D02*
X43200000Y-6850000D01*
X43200000Y-10150000D02*
X43200000Y-10410000D01*
X56350000Y-40800000D02*
X53300000Y-40800000D01*
X61250000Y-37500000D02*
X61250000Y-40150000D01*
X61250000Y-40150000D02*
X60600000Y-40800000D01*
X60600000Y-40800000D02*
X56350000Y-40800000D01*
X73850000Y-38450000D02*
X67200000Y-38450000D01*
X76280000Y-38450000D02*
X73850000Y-38450000D01*
X76280000Y-38450000D02*
X77570000Y-39740000D01*
X65700000Y-36950000D02*
X61800000Y-36950000D01*
X67200000Y-38450000D02*
X65700000Y-36950000D01*
X61800000Y-36950000D02*
X61250000Y-37500000D01*
X51750000Y-39250000D02*
X51750000Y-37700000D01*
X53300000Y-40800000D02*
X51750000Y-39250000D01*
D20*
X44610000Y-26650000D02*
X57450000Y-26650000D01*
X57450000Y-26650000D02*
X58900000Y-25200000D01*
X29900000Y-22700000D02*
X31000000Y-22700000D01*
X31400000Y-22300000D02*
X37300000Y-22300000D01*
X31000000Y-22700000D02*
X31400000Y-22300000D01*
X46270000Y-28240000D02*
X58550000Y-28240000D01*
X71530000Y-30250000D02*
X68330000Y-30250000D01*
X68330000Y-30250000D02*
X67650000Y-30930000D01*
X58550000Y-28240000D02*
X59270000Y-28960000D01*
D21*
X22775000Y-5525000D02*
X24050000Y-6800000D01*
X26590000Y-7330000D02*
X26590000Y-8330000D01*
X26060000Y-6800000D02*
X26590000Y-7330000D01*
X24050000Y-6800000D02*
X26060000Y-6800000D01*
X26590000Y-9580000D02*
X26590000Y-8330000D01*
D20*
X36440000Y-14150000D02*
X30460000Y-14150000D01*
X30460000Y-14150000D02*
X29540000Y-13230000D01*
X46000000Y-10800000D02*
X43800000Y-13000000D01*
X43800000Y-13000000D02*
X43800000Y-13020000D01*
X47650000Y-7780000D02*
X47650000Y-9150000D01*
X47650000Y-9150000D02*
X46000000Y-10800000D01*
X73060000Y-6100000D02*
X71785000Y-7375000D01*
X73060000Y-6100000D02*
X76300000Y-6100000D01*
X71380000Y-7780000D02*
X59460000Y-7780000D01*
X71785000Y-7375000D02*
X71380000Y-7780000D01*
X22775000Y-5525000D02*
X23325000Y-4975000D01*
X23325000Y-4975000D02*
X23325000Y-1400000D01*
X23325000Y-1400000D02*
X24100000Y-625000D01*
X24100000Y-625000D02*
X30318500Y-625000D01*
X30318500Y-625000D02*
X32197100Y-2503600D01*
X61900000Y-13300000D02*
X68500000Y-13300000D01*
X68500000Y-13300000D02*
X70800000Y-15600000D01*
D21*
X68450000Y-25850000D02*
X68450000Y-23950000D01*
X64680000Y-20180000D02*
X59520000Y-20180000D01*
X68450000Y-23950000D02*
X64680000Y-20180000D01*
D20*
X66450000Y-31300000D02*
X66450000Y-32240000D01*
X66450000Y-32240000D02*
X66460000Y-32250000D01*
X66450000Y-25950000D02*
X66750000Y-25650000D01*
X66450000Y-31350000D02*
X66450000Y-31300000D01*
X66450000Y-31300000D02*
X66450000Y-25950000D01*
D21*
X66255000Y-39755000D02*
X72705000Y-39755000D01*
X72705000Y-39755000D02*
X73950000Y-41000000D01*
X64800000Y-31900000D02*
X64800000Y-22300000D01*
X76290000Y-41000000D02*
X73950000Y-41000000D01*
X77570000Y-42280000D02*
X76290000Y-41000000D01*
X66255000Y-39755000D02*
X64800000Y-38300000D01*
X64800000Y-22300000D02*
X63650000Y-21150000D01*
G36*
X14703599Y-648046D02*
X14087709Y-1262863D01*
X13753980Y-2066570D01*
X13753221Y-2936812D01*
X14085546Y-3741101D01*
X14700363Y-4356991D01*
X15504070Y-4690720D01*
X16374312Y-4691479D01*
X16543561Y-4621547D01*
X16314136Y-4964905D01*
X16202726Y-5525000D01*
X16226815Y-5646103D01*
X15823959Y-6048959D01*
X15639702Y-6324719D01*
X15575000Y-6650000D01*
X15581056Y-6680444D01*
X15183674Y-6601400D01*
X15126326Y-6601400D01*
X14566231Y-6712810D01*
X14091405Y-7030079D01*
X13885000Y-7338986D01*
X13678595Y-7030079D01*
X13326775Y-6795000D01*
X13678595Y-6559921D01*
X13995864Y-6085095D01*
X14107274Y-5525000D01*
X13995864Y-4964905D01*
X13678595Y-4490079D01*
X13203769Y-4172810D01*
X12643674Y-4061400D01*
X12586326Y-4061400D01*
X12026231Y-4172810D01*
X11551405Y-4490079D01*
X11345000Y-4798986D01*
X11138595Y-4490079D01*
X10663769Y-4172810D01*
X10103674Y-4061400D01*
X10046326Y-4061400D01*
X9486231Y-4172810D01*
X9011405Y-4490079D01*
X8694136Y-4964905D01*
X8582726Y-5525000D01*
X8694136Y-6085095D01*
X9011405Y-6559921D01*
X9090061Y-6612477D01*
X8989054Y-6631483D01*
X8784842Y-6762890D01*
X8647844Y-6963393D01*
X8599646Y-7201400D01*
X8599646Y-8928600D01*
X8641483Y-9150946D01*
X8772890Y-9355158D01*
X8973393Y-9492156D01*
X9211400Y-9540354D01*
X10938600Y-9540354D01*
X11160946Y-9498517D01*
X11365158Y-9367110D01*
X11502156Y-9166607D01*
X11523974Y-9058868D01*
X11551405Y-9099921D01*
X12026231Y-9417190D01*
X12586326Y-9528600D01*
X12643674Y-9528600D01*
X13203769Y-9417190D01*
X13678595Y-9099921D01*
X13885000Y-8791014D01*
X14091405Y-9099921D01*
X14566231Y-9417190D01*
X15126326Y-9528600D01*
X15183674Y-9528600D01*
X15580000Y-9449766D01*
X15580000Y-10107918D01*
X14378959Y-11308959D01*
X14194702Y-11584719D01*
X14130000Y-11910000D01*
X14130000Y-15464239D01*
X14048009Y-15546087D01*
X13880192Y-15950237D01*
X13879810Y-16387844D01*
X14046922Y-16792286D01*
X14356087Y-17101991D01*
X14760237Y-17269808D01*
X15197844Y-17270190D01*
X15602286Y-17103078D01*
X15911991Y-16793913D01*
X16079808Y-16389763D01*
X16080190Y-15952156D01*
X15913078Y-15547714D01*
X15830000Y-15464491D01*
X15830000Y-12262082D01*
X17031041Y-11061041D01*
X17215298Y-10785281D01*
X17280001Y-10460000D01*
X17280000Y-10459995D01*
X17280000Y-9451755D01*
X17414126Y-9478434D01*
X17380000Y-9650000D01*
X17380000Y-10897918D01*
X16388959Y-11888959D01*
X16204702Y-12164719D01*
X16140000Y-12490000D01*
X16140000Y-17754239D01*
X16058009Y-17836087D01*
X15890192Y-18240237D01*
X15889810Y-18677844D01*
X16056922Y-19082286D01*
X16366087Y-19391991D01*
X16770237Y-19559808D01*
X17207844Y-19560190D01*
X17612286Y-19393078D01*
X17921991Y-19083913D01*
X18089808Y-18679763D01*
X18090190Y-18242156D01*
X17923078Y-17837714D01*
X17840000Y-17754491D01*
X17840000Y-12842082D01*
X18500129Y-12181953D01*
X18499810Y-12547844D01*
X18666922Y-12952286D01*
X18750000Y-13035509D01*
X18750000Y-18897919D01*
X17108007Y-20539911D01*
X16992156Y-20539810D01*
X16587714Y-20706922D01*
X16278009Y-21016087D01*
X16110192Y-21420237D01*
X16109810Y-21857844D01*
X16276922Y-22262286D01*
X16586087Y-22571991D01*
X16990237Y-22739808D01*
X17427844Y-22740190D01*
X17832286Y-22573078D01*
X18141991Y-22263913D01*
X18309808Y-21859763D01*
X18309911Y-21742171D01*
X20201038Y-19851043D01*
X20201041Y-19851041D01*
X20385298Y-19575281D01*
X20450000Y-19250000D01*
X20450000Y-13035761D01*
X20531991Y-12953913D01*
X20699808Y-12549763D01*
X20700190Y-12112156D01*
X20533078Y-11707714D01*
X20223913Y-11398009D01*
X19819763Y-11230192D01*
X19382156Y-11229810D01*
X19057318Y-11364030D01*
X19080000Y-11250000D01*
X19080000Y-10002082D01*
X19561041Y-9521041D01*
X19745298Y-9245281D01*
X19810000Y-8920000D01*
X19760000Y-8668631D01*
X19760000Y-7202082D01*
X20012113Y-6949969D01*
X20206326Y-6988600D01*
X20263674Y-6988600D01*
X20823769Y-6877190D01*
X21298595Y-6559921D01*
X21505000Y-6251014D01*
X21711405Y-6559921D01*
X22063225Y-6795000D01*
X21711405Y-7030079D01*
X21394136Y-7504905D01*
X21282726Y-8065000D01*
X21394136Y-8625095D01*
X21711405Y-9099921D01*
X21925000Y-9242641D01*
X21925000Y-9635000D01*
X21989702Y-9960281D01*
X22173959Y-10236041D01*
X22760000Y-10822082D01*
X22760000Y-16130000D01*
X22824702Y-16455281D01*
X23008959Y-16731041D01*
X25498959Y-19221041D01*
X25774719Y-19405298D01*
X26100000Y-19470000D01*
X37914239Y-19470000D01*
X37996087Y-19551991D01*
X38400237Y-19719808D01*
X38837844Y-19720190D01*
X39242286Y-19553078D01*
X39551991Y-19243913D01*
X39719808Y-18839763D01*
X39720190Y-18402156D01*
X39553078Y-17997714D01*
X39365661Y-17809970D01*
X39521991Y-17653913D01*
X39689808Y-17249763D01*
X39690190Y-16812156D01*
X39523078Y-16407714D01*
X39365609Y-16249970D01*
X39551991Y-16063913D01*
X39719808Y-15659763D01*
X39720190Y-15222156D01*
X39553078Y-14817714D01*
X39243913Y-14508009D01*
X38839763Y-14340192D01*
X38402156Y-14339810D01*
X37997714Y-14506922D01*
X37914491Y-14590000D01*
X37448358Y-14590000D01*
X37539808Y-14369763D01*
X37540190Y-13932156D01*
X37497929Y-13829876D01*
X37857844Y-13830190D01*
X38262286Y-13663078D01*
X38571991Y-13353913D01*
X38739808Y-12949763D01*
X38740190Y-12512156D01*
X38573078Y-12107714D01*
X38263913Y-11798009D01*
X37859763Y-11630192D01*
X37422156Y-11629810D01*
X37017714Y-11796922D01*
X36934491Y-11880000D01*
X35875139Y-11880000D01*
X35999808Y-11579763D01*
X35999893Y-11482189D01*
X37341041Y-10141041D01*
X37525298Y-9865281D01*
X37590001Y-9540000D01*
X37571313Y-9446049D01*
X37986326Y-9528600D01*
X38043674Y-9528600D01*
X38603769Y-9417190D01*
X39078595Y-9099921D01*
X39395864Y-8625095D01*
X39507274Y-8065000D01*
X39395864Y-7504905D01*
X39078595Y-7030079D01*
X38726775Y-6795000D01*
X39078595Y-6559921D01*
X39285000Y-6251014D01*
X39491405Y-6559921D01*
X39966231Y-6877190D01*
X40526326Y-6988600D01*
X40583674Y-6988600D01*
X41143769Y-6877190D01*
X41490000Y-6645846D01*
X41490000Y-9447918D01*
X40188959Y-10748959D01*
X40004702Y-11024719D01*
X39940000Y-11350000D01*
X39940000Y-12960000D01*
X40004702Y-13285281D01*
X40188959Y-13561041D01*
X41820000Y-15192081D01*
X41820000Y-26114239D01*
X41738009Y-26196087D01*
X41570192Y-26600237D01*
X41569810Y-27037844D01*
X41736922Y-27442286D01*
X42046087Y-27751991D01*
X42450237Y-27919808D01*
X42887844Y-27920190D01*
X43292286Y-27753078D01*
X43601991Y-27443913D01*
X43675094Y-27267861D01*
X43676922Y-27272286D01*
X43986087Y-27581991D01*
X44390237Y-27749808D01*
X44827844Y-27750190D01*
X45232286Y-27583078D01*
X45315509Y-27500000D01*
X45454299Y-27500000D01*
X45338009Y-27616087D01*
X45170192Y-28020237D01*
X45169810Y-28457844D01*
X45336922Y-28862286D01*
X45646087Y-29171991D01*
X46050237Y-29339808D01*
X46487844Y-29340190D01*
X46892286Y-29173078D01*
X46975509Y-29090000D01*
X55063879Y-29090000D01*
X54877714Y-29166922D01*
X54568009Y-29476087D01*
X54400192Y-29880237D01*
X54399810Y-30317844D01*
X54566922Y-30722286D01*
X54876087Y-31031991D01*
X55280237Y-31199808D01*
X55499999Y-31200000D01*
X55500186Y-31200000D01*
X55717844Y-31200190D01*
X55718304Y-31200000D01*
X57194366Y-31200000D01*
X58089899Y-32095534D01*
X57747714Y-32236922D01*
X57654473Y-32330000D01*
X50275761Y-32330000D01*
X50193913Y-32248009D01*
X49789763Y-32080192D01*
X49352156Y-32079810D01*
X48947714Y-32246922D01*
X48638009Y-32556087D01*
X48470192Y-32960237D01*
X48469810Y-33397844D01*
X48537816Y-33562430D01*
X48339763Y-33480192D01*
X47902156Y-33479810D01*
X47497714Y-33646922D01*
X47188009Y-33956087D01*
X47020192Y-34360237D01*
X47019810Y-34797844D01*
X47082680Y-34950000D01*
X43255761Y-34950000D01*
X43173913Y-34868009D01*
X42769763Y-34700192D01*
X42332156Y-34699810D01*
X41927714Y-34866922D01*
X41618009Y-35176087D01*
X41450192Y-35580237D01*
X41449810Y-36017844D01*
X41616922Y-36422286D01*
X41769365Y-36574995D01*
X41618009Y-36726087D01*
X41450192Y-37130237D01*
X41449810Y-37567844D01*
X41616922Y-37972286D01*
X41926087Y-38281991D01*
X42330237Y-38449808D01*
X42767844Y-38450190D01*
X43058138Y-38330243D01*
X43036444Y-38361993D01*
X42988246Y-38600000D01*
X42988246Y-40100000D01*
X43030083Y-40322346D01*
X43161490Y-40526558D01*
X43250000Y-40587034D01*
X43250000Y-40747919D01*
X42998007Y-40999911D01*
X42882156Y-40999810D01*
X42477714Y-41166922D01*
X42168009Y-41476087D01*
X42000192Y-41880237D01*
X41999810Y-42317844D01*
X42166922Y-42722286D01*
X42476087Y-43031991D01*
X42784366Y-43159999D01*
X41672183Y-44272183D01*
X41433733Y-44629048D01*
X41350000Y-45050000D01*
X41350000Y-46800000D01*
X41349810Y-47017844D01*
X41516922Y-47422286D01*
X41826087Y-47731991D01*
X42230237Y-47899808D01*
X42449999Y-47900000D01*
X42450001Y-47900000D01*
X42667844Y-47900190D01*
X43072286Y-47733078D01*
X43381991Y-47423913D01*
X43549808Y-47019763D01*
X43550190Y-46582156D01*
X43550000Y-46581696D01*
X43550000Y-45505634D01*
X45907817Y-43147818D01*
X46061991Y-42993913D01*
X46229808Y-42589763D01*
X46229815Y-42581897D01*
X47100000Y-43452082D01*
X47100000Y-46350000D01*
X47164702Y-46675281D01*
X47348959Y-46951041D01*
X49598957Y-49201038D01*
X49598959Y-49201041D01*
X49726705Y-49286398D01*
X49874719Y-49385298D01*
X50200000Y-49450001D01*
X50200005Y-49450000D01*
X50408318Y-49450000D01*
X50242776Y-49697750D01*
X50139100Y-50218965D01*
X50139100Y-51308235D01*
X50242776Y-51829450D01*
X50538021Y-52271314D01*
X50979885Y-52566559D01*
X51501100Y-52670235D01*
X52022315Y-52566559D01*
X52464179Y-52271314D01*
X52759424Y-51829450D01*
X52771100Y-51770751D01*
X52782776Y-51829450D01*
X53078021Y-52271314D01*
X53519885Y-52566559D01*
X54041100Y-52670235D01*
X54562315Y-52566559D01*
X55004179Y-52271314D01*
X55299424Y-51829450D01*
X55311100Y-51770751D01*
X55322776Y-51829450D01*
X55618021Y-52271314D01*
X56059885Y-52566559D01*
X56581100Y-52670235D01*
X57102315Y-52566559D01*
X57544179Y-52271314D01*
X57839424Y-51829450D01*
X57851100Y-51770751D01*
X57862776Y-51829450D01*
X58158021Y-52271314D01*
X58599885Y-52566559D01*
X59121100Y-52670235D01*
X59642315Y-52566559D01*
X60084179Y-52271314D01*
X60379424Y-51829450D01*
X60391100Y-51770751D01*
X60402776Y-51829450D01*
X60698021Y-52271314D01*
X61139885Y-52566559D01*
X61661100Y-52670235D01*
X62182315Y-52566559D01*
X62624179Y-52271314D01*
X62919424Y-51829450D01*
X62931100Y-51770751D01*
X62942776Y-51829450D01*
X63238021Y-52271314D01*
X63679885Y-52566559D01*
X64201100Y-52670235D01*
X64722315Y-52566559D01*
X65164179Y-52271314D01*
X65459424Y-51829450D01*
X65563100Y-51308235D01*
X65563100Y-50218965D01*
X65459424Y-49697750D01*
X65164179Y-49255886D01*
X65051100Y-49180329D01*
X65051100Y-48773182D01*
X65118959Y-48841041D01*
X65394719Y-49025298D01*
X65720000Y-49090000D01*
X75640000Y-49090000D01*
X75965281Y-49025298D01*
X76241041Y-48841041D01*
X81181041Y-43901041D01*
X81325000Y-43685591D01*
X81325000Y-52825000D01*
X15410415Y-52825000D01*
X15908601Y-52619154D01*
X16524491Y-52004337D01*
X16858220Y-51200630D01*
X16858979Y-50330388D01*
X16812941Y-50218965D01*
X27279100Y-50218965D01*
X27279100Y-51308235D01*
X27382776Y-51829450D01*
X27678021Y-52271314D01*
X28119885Y-52566559D01*
X28641100Y-52670235D01*
X29162315Y-52566559D01*
X29604179Y-52271314D01*
X29899424Y-51829450D01*
X29911100Y-51770751D01*
X29922776Y-51829450D01*
X30218021Y-52271314D01*
X30659885Y-52566559D01*
X31181100Y-52670235D01*
X31702315Y-52566559D01*
X32144179Y-52271314D01*
X32439424Y-51829450D01*
X32451100Y-51770751D01*
X32462776Y-51829450D01*
X32758021Y-52271314D01*
X33199885Y-52566559D01*
X33721100Y-52670235D01*
X34242315Y-52566559D01*
X34684179Y-52271314D01*
X34979424Y-51829450D01*
X34991100Y-51770751D01*
X35002776Y-51829450D01*
X35298021Y-52271314D01*
X35739885Y-52566559D01*
X36261100Y-52670235D01*
X36782315Y-52566559D01*
X37224179Y-52271314D01*
X37519424Y-51829450D01*
X37531100Y-51770751D01*
X37542776Y-51829450D01*
X37838021Y-52271314D01*
X38279885Y-52566559D01*
X38801100Y-52670235D01*
X39322315Y-52566559D01*
X39764179Y-52271314D01*
X40059424Y-51829450D01*
X40163100Y-51308235D01*
X40163100Y-50218965D01*
X40059424Y-49697750D01*
X39764179Y-49255886D01*
X39322315Y-48960641D01*
X38801100Y-48856965D01*
X38279885Y-48960641D01*
X37838021Y-49255886D01*
X37542776Y-49697750D01*
X37531100Y-49756449D01*
X37519424Y-49697750D01*
X37224179Y-49255886D01*
X36782315Y-48960641D01*
X36261100Y-48856965D01*
X35739885Y-48960641D01*
X35298021Y-49255886D01*
X35002776Y-49697750D01*
X34991100Y-49756449D01*
X34979424Y-49697750D01*
X34684179Y-49255886D01*
X34242315Y-48960641D01*
X33721100Y-48856965D01*
X33199885Y-48960641D01*
X32758021Y-49255886D01*
X32462776Y-49697750D01*
X32451100Y-49756449D01*
X32439424Y-49697750D01*
X32144179Y-49255886D01*
X31702315Y-48960641D01*
X31181100Y-48856965D01*
X30659885Y-48960641D01*
X30218021Y-49255886D01*
X29922776Y-49697750D01*
X29911100Y-49756449D01*
X29899424Y-49697750D01*
X29604179Y-49255886D01*
X29162315Y-48960641D01*
X28641100Y-48856965D01*
X28119885Y-48960641D01*
X27678021Y-49255886D01*
X27382776Y-49697750D01*
X27279100Y-50218965D01*
X16812941Y-50218965D01*
X16526654Y-49526099D01*
X15911837Y-48910209D01*
X15108130Y-48576480D01*
X14237888Y-48575721D01*
X13433599Y-48908046D01*
X12817709Y-49522863D01*
X12483980Y-50326570D01*
X12483221Y-51196812D01*
X12815546Y-52001101D01*
X13430363Y-52616991D01*
X13931303Y-52825000D01*
X575000Y-52825000D01*
X575000Y-48441373D01*
X43324679Y-48441373D01*
X43605732Y-49121572D01*
X44125691Y-49642439D01*
X44805398Y-49924679D01*
X45117583Y-49924951D01*
X45059100Y-50218965D01*
X45059100Y-51308235D01*
X45162776Y-51829450D01*
X45458021Y-52271314D01*
X45899885Y-52566559D01*
X46421100Y-52670235D01*
X46942315Y-52566559D01*
X47384179Y-52271314D01*
X47679424Y-51829450D01*
X47783100Y-51308235D01*
X47783100Y-50218965D01*
X47679424Y-49697750D01*
X47384179Y-49255886D01*
X46942315Y-48960641D01*
X46820464Y-48936403D01*
X47024679Y-48444602D01*
X47025321Y-47708627D01*
X46744268Y-47028428D01*
X46224309Y-46507561D01*
X45544602Y-46225321D01*
X44808627Y-46224679D01*
X44128428Y-46505732D01*
X43607561Y-47025691D01*
X43325321Y-47705398D01*
X43324679Y-48441373D01*
X575000Y-48441373D01*
X575000Y-36450000D01*
X11900000Y-36450000D01*
X11912943Y-36515070D01*
X11912810Y-36667844D01*
X11913000Y-36668304D01*
X11913000Y-41713000D01*
X11996733Y-42133952D01*
X12139735Y-42347969D01*
X12235183Y-42490817D01*
X17322182Y-47577817D01*
X17676706Y-47814702D01*
X17679048Y-47816267D01*
X18100000Y-47900000D01*
X38650001Y-47900000D01*
X38867844Y-47900190D01*
X39272286Y-47733078D01*
X39581991Y-47423913D01*
X39749808Y-47019763D01*
X39750190Y-46582156D01*
X39583078Y-46177714D01*
X39273913Y-45868009D01*
X38869763Y-45700192D01*
X38650001Y-45700000D01*
X38649814Y-45700000D01*
X38432156Y-45699810D01*
X38431696Y-45700000D01*
X18555635Y-45700000D01*
X14113000Y-41257366D01*
X14113000Y-36942844D01*
X14699810Y-36942844D01*
X14866922Y-37347286D01*
X15176087Y-37656991D01*
X15580237Y-37824808D01*
X16017844Y-37825190D01*
X16422286Y-37658078D01*
X16731991Y-37348913D01*
X16899808Y-36944763D01*
X16899911Y-36827171D01*
X17052082Y-36675000D01*
X23194239Y-36675000D01*
X23276087Y-36756991D01*
X23680237Y-36924808D01*
X24117844Y-36925190D01*
X24522286Y-36758078D01*
X24831991Y-36448913D01*
X24999808Y-36044763D01*
X25000190Y-35607156D01*
X24833078Y-35202714D01*
X24523913Y-34893009D01*
X24119763Y-34725192D01*
X23682156Y-34724810D01*
X23277714Y-34891922D01*
X23194491Y-34975000D01*
X16700000Y-34975000D01*
X16374719Y-35039702D01*
X16098959Y-35223959D01*
X15698007Y-35624911D01*
X15582156Y-35624810D01*
X15177714Y-35791922D01*
X14868009Y-36101087D01*
X14700192Y-36505237D01*
X14699810Y-36942844D01*
X14113000Y-36942844D01*
X14113000Y-36636011D01*
X14150000Y-36450000D01*
X14113162Y-36264801D01*
X14113190Y-36232156D01*
X14100613Y-36201718D01*
X14066267Y-36029048D01*
X13969312Y-35883945D01*
X13946078Y-35827714D01*
X13902714Y-35784275D01*
X13827817Y-35672183D01*
X13716705Y-35597940D01*
X13636913Y-35518009D01*
X13531690Y-35474317D01*
X13470952Y-35433733D01*
X13399931Y-35419606D01*
X13232763Y-35350192D01*
X13050164Y-35350033D01*
X13050000Y-35350000D01*
X13012814Y-35350000D01*
X12795156Y-35349810D01*
X12604114Y-35428747D01*
X12579048Y-35433733D01*
X12557984Y-35447807D01*
X12390714Y-35516922D01*
X12261496Y-35645915D01*
X12222183Y-35672183D01*
X12196145Y-35711152D01*
X12081009Y-35826087D01*
X12018073Y-35977655D01*
X11983733Y-36029048D01*
X11971779Y-36089142D01*
X11913192Y-36230237D01*
X11913057Y-36384356D01*
X11900000Y-36450000D01*
X575000Y-36450000D01*
X575000Y-28297844D01*
X26089810Y-28297844D01*
X26256922Y-28702286D01*
X26566087Y-29011991D01*
X26970237Y-29179808D01*
X27407844Y-29180190D01*
X27812286Y-29013078D01*
X28121991Y-28703913D01*
X28289808Y-28299763D01*
X28289911Y-28182171D01*
X32137082Y-24335000D01*
X33352918Y-24335000D01*
X28378959Y-29308959D01*
X28194702Y-29584719D01*
X28153767Y-29790513D01*
X28048009Y-29896087D01*
X27880192Y-30300237D01*
X27879810Y-30737844D01*
X28046922Y-31142286D01*
X28356087Y-31451991D01*
X28760237Y-31619808D01*
X29197844Y-31620190D01*
X29602286Y-31453078D01*
X29911991Y-31143913D01*
X30079808Y-30739763D01*
X30080190Y-30302156D01*
X29995322Y-30096760D01*
X34332082Y-25760000D01*
X38024239Y-25760000D01*
X38106087Y-25841991D01*
X38201036Y-25881417D01*
X38187714Y-25886922D01*
X38104491Y-25970000D01*
X34510000Y-25970000D01*
X34184719Y-26034702D01*
X33908959Y-26218959D01*
X32568959Y-27558959D01*
X32384702Y-27834719D01*
X32320000Y-28160000D01*
X32320000Y-30464239D01*
X32238009Y-30546087D01*
X32070192Y-30950237D01*
X32069810Y-31387844D01*
X32236922Y-31792286D01*
X32546087Y-32101991D01*
X32950237Y-32269808D01*
X33387844Y-32270190D01*
X33792286Y-32103078D01*
X34101991Y-31793913D01*
X34269808Y-31389763D01*
X34270190Y-30952156D01*
X34103078Y-30547714D01*
X34020000Y-30464491D01*
X34020000Y-28512082D01*
X34862082Y-27670000D01*
X35995966Y-27670000D01*
X35950192Y-27780237D01*
X35950089Y-27897829D01*
X34598959Y-29248959D01*
X34414702Y-29524719D01*
X34350000Y-29850000D01*
X34350000Y-35978548D01*
X34087714Y-36086922D01*
X33778009Y-36396087D01*
X33610192Y-36800237D01*
X33609810Y-37237844D01*
X33776922Y-37642286D01*
X34086087Y-37951991D01*
X34490237Y-38119808D01*
X34927844Y-38120190D01*
X35332286Y-37953078D01*
X35641991Y-37643913D01*
X35809808Y-37239763D01*
X35809914Y-37117761D01*
X35985298Y-36855281D01*
X36050001Y-36530000D01*
X36050000Y-36529995D01*
X36050000Y-30202082D01*
X37151993Y-29100089D01*
X37267844Y-29100190D01*
X37672286Y-28933078D01*
X37981991Y-28623913D01*
X38149808Y-28219763D01*
X38150190Y-27782156D01*
X38103848Y-27670000D01*
X38104239Y-27670000D01*
X38186087Y-27751991D01*
X38590237Y-27919808D01*
X39027844Y-27920190D01*
X39432286Y-27753078D01*
X39741991Y-27443913D01*
X39909808Y-27039763D01*
X39910190Y-26602156D01*
X39743078Y-26197714D01*
X39433913Y-25888009D01*
X39338964Y-25848583D01*
X39352286Y-25843078D01*
X39661991Y-25533913D01*
X39829808Y-25129763D01*
X39830190Y-24692156D01*
X39663078Y-24287714D01*
X39540705Y-24165127D01*
X39581991Y-24123913D01*
X39749808Y-23719763D01*
X39750190Y-23282156D01*
X39583078Y-22877714D01*
X39273913Y-22568009D01*
X38869763Y-22400192D01*
X38432156Y-22399810D01*
X38399901Y-22413137D01*
X38400190Y-22082156D01*
X38233078Y-21677714D01*
X37923913Y-21368009D01*
X37519763Y-21200192D01*
X37082156Y-21199810D01*
X36677714Y-21366922D01*
X36594491Y-21450000D01*
X31400000Y-21450000D01*
X31074719Y-21514702D01*
X30798959Y-21698959D01*
X30798957Y-21698962D01*
X30647919Y-21850000D01*
X30605761Y-21850000D01*
X30523913Y-21768009D01*
X30119763Y-21600192D01*
X29682156Y-21599810D01*
X29277714Y-21766922D01*
X28968009Y-22076087D01*
X28800192Y-22480237D01*
X28799810Y-22917844D01*
X28966922Y-23322286D01*
X29276087Y-23631991D01*
X29680237Y-23799808D01*
X30117844Y-23800190D01*
X30373266Y-23694652D01*
X27088007Y-26979911D01*
X26972156Y-26979810D01*
X26567714Y-27146922D01*
X26258009Y-27456087D01*
X26090192Y-27860237D01*
X26089810Y-28297844D01*
X575000Y-28297844D01*
X575000Y-475000D01*
X15122403Y-475000D01*
X14703599Y-648046D01*
X14703599Y-648046D01*
G37*
X14703599Y-648046D02*
X14087709Y-1262863D01*
X13753980Y-2066570D01*
X13753221Y-2936812D01*
X14085546Y-3741101D01*
X14700363Y-4356991D01*
X15504070Y-4690720D01*
X16374312Y-4691479D01*
X16543561Y-4621547D01*
X16314136Y-4964905D01*
X16202726Y-5525000D01*
X16226815Y-5646103D01*
X15823959Y-6048959D01*
X15639702Y-6324719D01*
X15575000Y-6650000D01*
X15581056Y-6680444D01*
X15183674Y-6601400D01*
X15126326Y-6601400D01*
X14566231Y-6712810D01*
X14091405Y-7030079D01*
X13885000Y-7338986D01*
X13678595Y-7030079D01*
X13326775Y-6795000D01*
X13678595Y-6559921D01*
X13995864Y-6085095D01*
X14107274Y-5525000D01*
X13995864Y-4964905D01*
X13678595Y-4490079D01*
X13203769Y-4172810D01*
X12643674Y-4061400D01*
X12586326Y-4061400D01*
X12026231Y-4172810D01*
X11551405Y-4490079D01*
X11345000Y-4798986D01*
X11138595Y-4490079D01*
X10663769Y-4172810D01*
X10103674Y-4061400D01*
X10046326Y-4061400D01*
X9486231Y-4172810D01*
X9011405Y-4490079D01*
X8694136Y-4964905D01*
X8582726Y-5525000D01*
X8694136Y-6085095D01*
X9011405Y-6559921D01*
X9090061Y-6612477D01*
X8989054Y-6631483D01*
X8784842Y-6762890D01*
X8647844Y-6963393D01*
X8599646Y-7201400D01*
X8599646Y-8928600D01*
X8641483Y-9150946D01*
X8772890Y-9355158D01*
X8973393Y-9492156D01*
X9211400Y-9540354D01*
X10938600Y-9540354D01*
X11160946Y-9498517D01*
X11365158Y-9367110D01*
X11502156Y-9166607D01*
X11523974Y-9058868D01*
X11551405Y-9099921D01*
X12026231Y-9417190D01*
X12586326Y-9528600D01*
X12643674Y-9528600D01*
X13203769Y-9417190D01*
X13678595Y-9099921D01*
X13885000Y-8791014D01*
X14091405Y-9099921D01*
X14566231Y-9417190D01*
X15126326Y-9528600D01*
X15183674Y-9528600D01*
X15580000Y-9449766D01*
X15580000Y-10107918D01*
X14378959Y-11308959D01*
X14194702Y-11584719D01*
X14130000Y-11910000D01*
X14130000Y-15464239D01*
X14048009Y-15546087D01*
X13880192Y-15950237D01*
X13879810Y-16387844D01*
X14046922Y-16792286D01*
X14356087Y-17101991D01*
X14760237Y-17269808D01*
X15197844Y-17270190D01*
X15602286Y-17103078D01*
X15911991Y-16793913D01*
X16079808Y-16389763D01*
X16080190Y-15952156D01*
X15913078Y-15547714D01*
X15830000Y-15464491D01*
X15830000Y-12262082D01*
X17031041Y-11061041D01*
X17215298Y-10785281D01*
X17280001Y-10460000D01*
X17280000Y-10459995D01*
X17280000Y-9451755D01*
X17414126Y-9478434D01*
X17380000Y-9650000D01*
X17380000Y-10897918D01*
X16388959Y-11888959D01*
X16204702Y-12164719D01*
X16140000Y-12490000D01*
X16140000Y-17754239D01*
X16058009Y-17836087D01*
X15890192Y-18240237D01*
X15889810Y-18677844D01*
X16056922Y-19082286D01*
X16366087Y-19391991D01*
X16770237Y-19559808D01*
X17207844Y-19560190D01*
X17612286Y-19393078D01*
X17921991Y-19083913D01*
X18089808Y-18679763D01*
X18090190Y-18242156D01*
X17923078Y-17837714D01*
X17840000Y-17754491D01*
X17840000Y-12842082D01*
X18500129Y-12181953D01*
X18499810Y-12547844D01*
X18666922Y-12952286D01*
X18750000Y-13035509D01*
X18750000Y-18897919D01*
X17108007Y-20539911D01*
X16992156Y-20539810D01*
X16587714Y-20706922D01*
X16278009Y-21016087D01*
X16110192Y-21420237D01*
X16109810Y-21857844D01*
X16276922Y-22262286D01*
X16586087Y-22571991D01*
X16990237Y-22739808D01*
X17427844Y-22740190D01*
X17832286Y-22573078D01*
X18141991Y-22263913D01*
X18309808Y-21859763D01*
X18309911Y-21742171D01*
X20201038Y-19851043D01*
X20201041Y-19851041D01*
X20385298Y-19575281D01*
X20450000Y-19250000D01*
X20450000Y-13035761D01*
X20531991Y-12953913D01*
X20699808Y-12549763D01*
X20700190Y-12112156D01*
X20533078Y-11707714D01*
X20223913Y-11398009D01*
X19819763Y-11230192D01*
X19382156Y-11229810D01*
X19057318Y-11364030D01*
X19080000Y-11250000D01*
X19080000Y-10002082D01*
X19561041Y-9521041D01*
X19745298Y-9245281D01*
X19810000Y-8920000D01*
X19760000Y-8668631D01*
X19760000Y-7202082D01*
X20012113Y-6949969D01*
X20206326Y-6988600D01*
X20263674Y-6988600D01*
X20823769Y-6877190D01*
X21298595Y-6559921D01*
X21505000Y-6251014D01*
X21711405Y-6559921D01*
X22063225Y-6795000D01*
X21711405Y-7030079D01*
X21394136Y-7504905D01*
X21282726Y-8065000D01*
X21394136Y-8625095D01*
X21711405Y-9099921D01*
X21925000Y-9242641D01*
X21925000Y-9635000D01*
X21989702Y-9960281D01*
X22173959Y-10236041D01*
X22760000Y-10822082D01*
X22760000Y-16130000D01*
X22824702Y-16455281D01*
X23008959Y-16731041D01*
X25498959Y-19221041D01*
X25774719Y-19405298D01*
X26100000Y-19470000D01*
X37914239Y-19470000D01*
X37996087Y-19551991D01*
X38400237Y-19719808D01*
X38837844Y-19720190D01*
X39242286Y-19553078D01*
X39551991Y-19243913D01*
X39719808Y-18839763D01*
X39720190Y-18402156D01*
X39553078Y-17997714D01*
X39365661Y-17809970D01*
X39521991Y-17653913D01*
X39689808Y-17249763D01*
X39690190Y-16812156D01*
X39523078Y-16407714D01*
X39365609Y-16249970D01*
X39551991Y-16063913D01*
X39719808Y-15659763D01*
X39720190Y-15222156D01*
X39553078Y-14817714D01*
X39243913Y-14508009D01*
X38839763Y-14340192D01*
X38402156Y-14339810D01*
X37997714Y-14506922D01*
X37914491Y-14590000D01*
X37448358Y-14590000D01*
X37539808Y-14369763D01*
X37540190Y-13932156D01*
X37497929Y-13829876D01*
X37857844Y-13830190D01*
X38262286Y-13663078D01*
X38571991Y-13353913D01*
X38739808Y-12949763D01*
X38740190Y-12512156D01*
X38573078Y-12107714D01*
X38263913Y-11798009D01*
X37859763Y-11630192D01*
X37422156Y-11629810D01*
X37017714Y-11796922D01*
X36934491Y-11880000D01*
X35875139Y-11880000D01*
X35999808Y-11579763D01*
X35999893Y-11482189D01*
X37341041Y-10141041D01*
X37525298Y-9865281D01*
X37590001Y-9540000D01*
X37571313Y-9446049D01*
X37986326Y-9528600D01*
X38043674Y-9528600D01*
X38603769Y-9417190D01*
X39078595Y-9099921D01*
X39395864Y-8625095D01*
X39507274Y-8065000D01*
X39395864Y-7504905D01*
X39078595Y-7030079D01*
X38726775Y-6795000D01*
X39078595Y-6559921D01*
X39285000Y-6251014D01*
X39491405Y-6559921D01*
X39966231Y-6877190D01*
X40526326Y-6988600D01*
X40583674Y-6988600D01*
X41143769Y-6877190D01*
X41490000Y-6645846D01*
X41490000Y-9447918D01*
X40188959Y-10748959D01*
X40004702Y-11024719D01*
X39940000Y-11350000D01*
X39940000Y-12960000D01*
X40004702Y-13285281D01*
X40188959Y-13561041D01*
X41820000Y-15192081D01*
X41820000Y-26114239D01*
X41738009Y-26196087D01*
X41570192Y-26600237D01*
X41569810Y-27037844D01*
X41736922Y-27442286D01*
X42046087Y-27751991D01*
X42450237Y-27919808D01*
X42887844Y-27920190D01*
X43292286Y-27753078D01*
X43601991Y-27443913D01*
X43675094Y-27267861D01*
X43676922Y-27272286D01*
X43986087Y-27581991D01*
X44390237Y-27749808D01*
X44827844Y-27750190D01*
X45232286Y-27583078D01*
X45315509Y-27500000D01*
X45454299Y-27500000D01*
X45338009Y-27616087D01*
X45170192Y-28020237D01*
X45169810Y-28457844D01*
X45336922Y-28862286D01*
X45646087Y-29171991D01*
X46050237Y-29339808D01*
X46487844Y-29340190D01*
X46892286Y-29173078D01*
X46975509Y-29090000D01*
X55063879Y-29090000D01*
X54877714Y-29166922D01*
X54568009Y-29476087D01*
X54400192Y-29880237D01*
X54399810Y-30317844D01*
X54566922Y-30722286D01*
X54876087Y-31031991D01*
X55280237Y-31199808D01*
X55499999Y-31200000D01*
X55500186Y-31200000D01*
X55717844Y-31200190D01*
X55718304Y-31200000D01*
X57194366Y-31200000D01*
X58089899Y-32095534D01*
X57747714Y-32236922D01*
X57654473Y-32330000D01*
X50275761Y-32330000D01*
X50193913Y-32248009D01*
X49789763Y-32080192D01*
X49352156Y-32079810D01*
X48947714Y-32246922D01*
X48638009Y-32556087D01*
X48470192Y-32960237D01*
X48469810Y-33397844D01*
X48537816Y-33562430D01*
X48339763Y-33480192D01*
X47902156Y-33479810D01*
X47497714Y-33646922D01*
X47188009Y-33956087D01*
X47020192Y-34360237D01*
X47019810Y-34797844D01*
X47082680Y-34950000D01*
X43255761Y-34950000D01*
X43173913Y-34868009D01*
X42769763Y-34700192D01*
X42332156Y-34699810D01*
X41927714Y-34866922D01*
X41618009Y-35176087D01*
X41450192Y-35580237D01*
X41449810Y-36017844D01*
X41616922Y-36422286D01*
X41769365Y-36574995D01*
X41618009Y-36726087D01*
X41450192Y-37130237D01*
X41449810Y-37567844D01*
X41616922Y-37972286D01*
X41926087Y-38281991D01*
X42330237Y-38449808D01*
X42767844Y-38450190D01*
X43058138Y-38330243D01*
X43036444Y-38361993D01*
X42988246Y-38600000D01*
X42988246Y-40100000D01*
X43030083Y-40322346D01*
X43161490Y-40526558D01*
X43250000Y-40587034D01*
X43250000Y-40747919D01*
X42998007Y-40999911D01*
X42882156Y-40999810D01*
X42477714Y-41166922D01*
X42168009Y-41476087D01*
X42000192Y-41880237D01*
X41999810Y-42317844D01*
X42166922Y-42722286D01*
X42476087Y-43031991D01*
X42784366Y-43159999D01*
X41672183Y-44272183D01*
X41433733Y-44629048D01*
X41350000Y-45050000D01*
X41350000Y-46800000D01*
X41349810Y-47017844D01*
X41516922Y-47422286D01*
X41826087Y-47731991D01*
X42230237Y-47899808D01*
X42449999Y-47900000D01*
X42450001Y-47900000D01*
X42667844Y-47900190D01*
X43072286Y-47733078D01*
X43381991Y-47423913D01*
X43549808Y-47019763D01*
X43550190Y-46582156D01*
X43550000Y-46581696D01*
X43550000Y-45505634D01*
X45907817Y-43147818D01*
X46061991Y-42993913D01*
X46229808Y-42589763D01*
X46229815Y-42581897D01*
X47100000Y-43452082D01*
X47100000Y-46350000D01*
X47164702Y-46675281D01*
X47348959Y-46951041D01*
X49598957Y-49201038D01*
X49598959Y-49201041D01*
X49726705Y-49286398D01*
X49874719Y-49385298D01*
X50200000Y-49450001D01*
X50200005Y-49450000D01*
X50408318Y-49450000D01*
X50242776Y-49697750D01*
X50139100Y-50218965D01*
X50139100Y-51308235D01*
X50242776Y-51829450D01*
X50538021Y-52271314D01*
X50979885Y-52566559D01*
X51501100Y-52670235D01*
X52022315Y-52566559D01*
X52464179Y-52271314D01*
X52759424Y-51829450D01*
X52771100Y-51770751D01*
X52782776Y-51829450D01*
X53078021Y-52271314D01*
X53519885Y-52566559D01*
X54041100Y-52670235D01*
X54562315Y-52566559D01*
X55004179Y-52271314D01*
X55299424Y-51829450D01*
X55311100Y-51770751D01*
X55322776Y-51829450D01*
X55618021Y-52271314D01*
X56059885Y-52566559D01*
X56581100Y-52670235D01*
X57102315Y-52566559D01*
X57544179Y-52271314D01*
X57839424Y-51829450D01*
X57851100Y-51770751D01*
X57862776Y-51829450D01*
X58158021Y-52271314D01*
X58599885Y-52566559D01*
X59121100Y-52670235D01*
X59642315Y-52566559D01*
X60084179Y-52271314D01*
X60379424Y-51829450D01*
X60391100Y-51770751D01*
X60402776Y-51829450D01*
X60698021Y-52271314D01*
X61139885Y-52566559D01*
X61661100Y-52670235D01*
X62182315Y-52566559D01*
X62624179Y-52271314D01*
X62919424Y-51829450D01*
X62931100Y-51770751D01*
X62942776Y-51829450D01*
X63238021Y-52271314D01*
X63679885Y-52566559D01*
X64201100Y-52670235D01*
X64722315Y-52566559D01*
X65164179Y-52271314D01*
X65459424Y-51829450D01*
X65563100Y-51308235D01*
X65563100Y-50218965D01*
X65459424Y-49697750D01*
X65164179Y-49255886D01*
X65051100Y-49180329D01*
X65051100Y-48773182D01*
X65118959Y-48841041D01*
X65394719Y-49025298D01*
X65720000Y-49090000D01*
X75640000Y-49090000D01*
X75965281Y-49025298D01*
X76241041Y-48841041D01*
X81181041Y-43901041D01*
X81325000Y-43685591D01*
X81325000Y-52825000D01*
X15410415Y-52825000D01*
X15908601Y-52619154D01*
X16524491Y-52004337D01*
X16858220Y-51200630D01*
X16858979Y-50330388D01*
X16812941Y-50218965D01*
X27279100Y-50218965D01*
X27279100Y-51308235D01*
X27382776Y-51829450D01*
X27678021Y-52271314D01*
X28119885Y-52566559D01*
X28641100Y-52670235D01*
X29162315Y-52566559D01*
X29604179Y-52271314D01*
X29899424Y-51829450D01*
X29911100Y-51770751D01*
X29922776Y-51829450D01*
X30218021Y-52271314D01*
X30659885Y-52566559D01*
X31181100Y-52670235D01*
X31702315Y-52566559D01*
X32144179Y-52271314D01*
X32439424Y-51829450D01*
X32451100Y-51770751D01*
X32462776Y-51829450D01*
X32758021Y-52271314D01*
X33199885Y-52566559D01*
X33721100Y-52670235D01*
X34242315Y-52566559D01*
X34684179Y-52271314D01*
X34979424Y-51829450D01*
X34991100Y-51770751D01*
X35002776Y-51829450D01*
X35298021Y-52271314D01*
X35739885Y-52566559D01*
X36261100Y-52670235D01*
X36782315Y-52566559D01*
X37224179Y-52271314D01*
X37519424Y-51829450D01*
X37531100Y-51770751D01*
X37542776Y-51829450D01*
X37838021Y-52271314D01*
X38279885Y-52566559D01*
X38801100Y-52670235D01*
X39322315Y-52566559D01*
X39764179Y-52271314D01*
X40059424Y-51829450D01*
X40163100Y-51308235D01*
X40163100Y-50218965D01*
X40059424Y-49697750D01*
X39764179Y-49255886D01*
X39322315Y-48960641D01*
X38801100Y-48856965D01*
X38279885Y-48960641D01*
X37838021Y-49255886D01*
X37542776Y-49697750D01*
X37531100Y-49756449D01*
X37519424Y-49697750D01*
X37224179Y-49255886D01*
X36782315Y-48960641D01*
X36261100Y-48856965D01*
X35739885Y-48960641D01*
X35298021Y-49255886D01*
X35002776Y-49697750D01*
X34991100Y-49756449D01*
X34979424Y-49697750D01*
X34684179Y-49255886D01*
X34242315Y-48960641D01*
X33721100Y-48856965D01*
X33199885Y-48960641D01*
X32758021Y-49255886D01*
X32462776Y-49697750D01*
X32451100Y-49756449D01*
X32439424Y-49697750D01*
X32144179Y-49255886D01*
X31702315Y-48960641D01*
X31181100Y-48856965D01*
X30659885Y-48960641D01*
X30218021Y-49255886D01*
X29922776Y-49697750D01*
X29911100Y-49756449D01*
X29899424Y-49697750D01*
X29604179Y-49255886D01*
X29162315Y-48960641D01*
X28641100Y-48856965D01*
X28119885Y-48960641D01*
X27678021Y-49255886D01*
X27382776Y-49697750D01*
X27279100Y-50218965D01*
X16812941Y-50218965D01*
X16526654Y-49526099D01*
X15911837Y-48910209D01*
X15108130Y-48576480D01*
X14237888Y-48575721D01*
X13433599Y-48908046D01*
X12817709Y-49522863D01*
X12483980Y-50326570D01*
X12483221Y-51196812D01*
X12815546Y-52001101D01*
X13430363Y-52616991D01*
X13931303Y-52825000D01*
X575000Y-52825000D01*
X575000Y-48441373D01*
X43324679Y-48441373D01*
X43605732Y-49121572D01*
X44125691Y-49642439D01*
X44805398Y-49924679D01*
X45117583Y-49924951D01*
X45059100Y-50218965D01*
X45059100Y-51308235D01*
X45162776Y-51829450D01*
X45458021Y-52271314D01*
X45899885Y-52566559D01*
X46421100Y-52670235D01*
X46942315Y-52566559D01*
X47384179Y-52271314D01*
X47679424Y-51829450D01*
X47783100Y-51308235D01*
X47783100Y-50218965D01*
X47679424Y-49697750D01*
X47384179Y-49255886D01*
X46942315Y-48960641D01*
X46820464Y-48936403D01*
X47024679Y-48444602D01*
X47025321Y-47708627D01*
X46744268Y-47028428D01*
X46224309Y-46507561D01*
X45544602Y-46225321D01*
X44808627Y-46224679D01*
X44128428Y-46505732D01*
X43607561Y-47025691D01*
X43325321Y-47705398D01*
X43324679Y-48441373D01*
X575000Y-48441373D01*
X575000Y-36450000D01*
X11900000Y-36450000D01*
X11912943Y-36515070D01*
X11912810Y-36667844D01*
X11913000Y-36668304D01*
X11913000Y-41713000D01*
X11996733Y-42133952D01*
X12139735Y-42347969D01*
X12235183Y-42490817D01*
X17322182Y-47577817D01*
X17676706Y-47814702D01*
X17679048Y-47816267D01*
X18100000Y-47900000D01*
X38650001Y-47900000D01*
X38867844Y-47900190D01*
X39272286Y-47733078D01*
X39581991Y-47423913D01*
X39749808Y-47019763D01*
X39750190Y-46582156D01*
X39583078Y-46177714D01*
X39273913Y-45868009D01*
X38869763Y-45700192D01*
X38650001Y-45700000D01*
X38649814Y-45700000D01*
X38432156Y-45699810D01*
X38431696Y-45700000D01*
X18555635Y-45700000D01*
X14113000Y-41257366D01*
X14113000Y-36942844D01*
X14699810Y-36942844D01*
X14866922Y-37347286D01*
X15176087Y-37656991D01*
X15580237Y-37824808D01*
X16017844Y-37825190D01*
X16422286Y-37658078D01*
X16731991Y-37348913D01*
X16899808Y-36944763D01*
X16899911Y-36827171D01*
X17052082Y-36675000D01*
X23194239Y-36675000D01*
X23276087Y-36756991D01*
X23680237Y-36924808D01*
X24117844Y-36925190D01*
X24522286Y-36758078D01*
X24831991Y-36448913D01*
X24999808Y-36044763D01*
X25000190Y-35607156D01*
X24833078Y-35202714D01*
X24523913Y-34893009D01*
X24119763Y-34725192D01*
X23682156Y-34724810D01*
X23277714Y-34891922D01*
X23194491Y-34975000D01*
X16700000Y-34975000D01*
X16374719Y-35039702D01*
X16098959Y-35223959D01*
X15698007Y-35624911D01*
X15582156Y-35624810D01*
X15177714Y-35791922D01*
X14868009Y-36101087D01*
X14700192Y-36505237D01*
X14699810Y-36942844D01*
X14113000Y-36942844D01*
X14113000Y-36636011D01*
X14150000Y-36450000D01*
X14113162Y-36264801D01*
X14113190Y-36232156D01*
X14100613Y-36201718D01*
X14066267Y-36029048D01*
X13969312Y-35883945D01*
X13946078Y-35827714D01*
X13902714Y-35784275D01*
X13827817Y-35672183D01*
X13716705Y-35597940D01*
X13636913Y-35518009D01*
X13531690Y-35474317D01*
X13470952Y-35433733D01*
X13399931Y-35419606D01*
X13232763Y-35350192D01*
X13050164Y-35350033D01*
X13050000Y-35350000D01*
X13012814Y-35350000D01*
X12795156Y-35349810D01*
X12604114Y-35428747D01*
X12579048Y-35433733D01*
X12557984Y-35447807D01*
X12390714Y-35516922D01*
X12261496Y-35645915D01*
X12222183Y-35672183D01*
X12196145Y-35711152D01*
X12081009Y-35826087D01*
X12018073Y-35977655D01*
X11983733Y-36029048D01*
X11971779Y-36089142D01*
X11913192Y-36230237D01*
X11913057Y-36384356D01*
X11900000Y-36450000D01*
X575000Y-36450000D01*
X575000Y-28297844D01*
X26089810Y-28297844D01*
X26256922Y-28702286D01*
X26566087Y-29011991D01*
X26970237Y-29179808D01*
X27407844Y-29180190D01*
X27812286Y-29013078D01*
X28121991Y-28703913D01*
X28289808Y-28299763D01*
X28289911Y-28182171D01*
X32137082Y-24335000D01*
X33352918Y-24335000D01*
X28378959Y-29308959D01*
X28194702Y-29584719D01*
X28153767Y-29790513D01*
X28048009Y-29896087D01*
X27880192Y-30300237D01*
X27879810Y-30737844D01*
X28046922Y-31142286D01*
X28356087Y-31451991D01*
X28760237Y-31619808D01*
X29197844Y-31620190D01*
X29602286Y-31453078D01*
X29911991Y-31143913D01*
X30079808Y-30739763D01*
X30080190Y-30302156D01*
X29995322Y-30096760D01*
X34332082Y-25760000D01*
X38024239Y-25760000D01*
X38106087Y-25841991D01*
X38201036Y-25881417D01*
X38187714Y-25886922D01*
X38104491Y-25970000D01*
X34510000Y-25970000D01*
X34184719Y-26034702D01*
X33908959Y-26218959D01*
X32568959Y-27558959D01*
X32384702Y-27834719D01*
X32320000Y-28160000D01*
X32320000Y-30464239D01*
X32238009Y-30546087D01*
X32070192Y-30950237D01*
X32069810Y-31387844D01*
X32236922Y-31792286D01*
X32546087Y-32101991D01*
X32950237Y-32269808D01*
X33387844Y-32270190D01*
X33792286Y-32103078D01*
X34101991Y-31793913D01*
X34269808Y-31389763D01*
X34270190Y-30952156D01*
X34103078Y-30547714D01*
X34020000Y-30464491D01*
X34020000Y-28512082D01*
X34862082Y-27670000D01*
X35995966Y-27670000D01*
X35950192Y-27780237D01*
X35950089Y-27897829D01*
X34598959Y-29248959D01*
X34414702Y-29524719D01*
X34350000Y-29850000D01*
X34350000Y-35978548D01*
X34087714Y-36086922D01*
X33778009Y-36396087D01*
X33610192Y-36800237D01*
X33609810Y-37237844D01*
X33776922Y-37642286D01*
X34086087Y-37951991D01*
X34490237Y-38119808D01*
X34927844Y-38120190D01*
X35332286Y-37953078D01*
X35641991Y-37643913D01*
X35809808Y-37239763D01*
X35809914Y-37117761D01*
X35985298Y-36855281D01*
X36050001Y-36530000D01*
X36050000Y-36529995D01*
X36050000Y-30202082D01*
X37151993Y-29100089D01*
X37267844Y-29100190D01*
X37672286Y-28933078D01*
X37981991Y-28623913D01*
X38149808Y-28219763D01*
X38150190Y-27782156D01*
X38103848Y-27670000D01*
X38104239Y-27670000D01*
X38186087Y-27751991D01*
X38590237Y-27919808D01*
X39027844Y-27920190D01*
X39432286Y-27753078D01*
X39741991Y-27443913D01*
X39909808Y-27039763D01*
X39910190Y-26602156D01*
X39743078Y-26197714D01*
X39433913Y-25888009D01*
X39338964Y-25848583D01*
X39352286Y-25843078D01*
X39661991Y-25533913D01*
X39829808Y-25129763D01*
X39830190Y-24692156D01*
X39663078Y-24287714D01*
X39540705Y-24165127D01*
X39581991Y-24123913D01*
X39749808Y-23719763D01*
X39750190Y-23282156D01*
X39583078Y-22877714D01*
X39273913Y-22568009D01*
X38869763Y-22400192D01*
X38432156Y-22399810D01*
X38399901Y-22413137D01*
X38400190Y-22082156D01*
X38233078Y-21677714D01*
X37923913Y-21368009D01*
X37519763Y-21200192D01*
X37082156Y-21199810D01*
X36677714Y-21366922D01*
X36594491Y-21450000D01*
X31400000Y-21450000D01*
X31074719Y-21514702D01*
X30798959Y-21698959D01*
X30798957Y-21698962D01*
X30647919Y-21850000D01*
X30605761Y-21850000D01*
X30523913Y-21768009D01*
X30119763Y-21600192D01*
X29682156Y-21599810D01*
X29277714Y-21766922D01*
X28968009Y-22076087D01*
X28800192Y-22480237D01*
X28799810Y-22917844D01*
X28966922Y-23322286D01*
X29276087Y-23631991D01*
X29680237Y-23799808D01*
X30117844Y-23800190D01*
X30373266Y-23694652D01*
X27088007Y-26979911D01*
X26972156Y-26979810D01*
X26567714Y-27146922D01*
X26258009Y-27456087D01*
X26090192Y-27860237D01*
X26089810Y-28297844D01*
X575000Y-28297844D01*
X575000Y-475000D01*
X15122403Y-475000D01*
X14703599Y-648046D01*
G36*
X79730000Y-10682081D02*
X79730000Y-42947918D01*
X75287918Y-47390000D01*
X68128015Y-47390000D01*
X68594491Y-46924337D01*
X68928220Y-46120630D01*
X68928979Y-45250388D01*
X68596654Y-44446099D01*
X67981837Y-43830209D01*
X67860921Y-43780000D01*
X70837918Y-43780000D01*
X71319911Y-44261993D01*
X71319810Y-44377844D01*
X71486922Y-44782286D01*
X71796087Y-45091991D01*
X72200237Y-45259808D01*
X72637844Y-45260190D01*
X73042286Y-45093078D01*
X73351991Y-44783913D01*
X73519808Y-44379763D01*
X73520190Y-43942156D01*
X73353078Y-43537714D01*
X73043913Y-43228009D01*
X72639763Y-43060192D01*
X72522171Y-43060089D01*
X71791041Y-42328959D01*
X71515281Y-42144702D01*
X71190000Y-42080000D01*
X64300000Y-42080000D01*
X63974719Y-42144702D01*
X63698959Y-42328959D01*
X63698957Y-42328962D01*
X61847918Y-44180000D01*
X55952082Y-44180000D01*
X53372082Y-41600000D01*
X58204187Y-41600000D01*
X58117125Y-41809669D01*
X58116656Y-42347969D01*
X58322220Y-42845474D01*
X58702524Y-43226442D01*
X59199669Y-43432875D01*
X59737969Y-43433344D01*
X60235474Y-43227780D01*
X60616442Y-42847476D01*
X60822875Y-42350331D01*
X60823344Y-41812031D01*
X60725426Y-41575051D01*
X60906147Y-41539104D01*
X61165685Y-41365685D01*
X61815686Y-40715685D01*
X61989104Y-40456147D01*
X62050000Y-40150000D01*
X62050000Y-37831370D01*
X62131371Y-37750000D01*
X63837318Y-37750000D01*
X63700192Y-38080237D01*
X63699810Y-38517844D01*
X63866922Y-38922286D01*
X64176087Y-39231991D01*
X64580237Y-39399808D01*
X64768602Y-39399972D01*
X65689315Y-40320686D01*
X65948853Y-40494104D01*
X66255000Y-40555000D01*
X72373630Y-40555000D01*
X73384315Y-41565686D01*
X73586888Y-41701041D01*
X73643853Y-41739104D01*
X73950000Y-41800000D01*
X75958630Y-41800000D01*
X76217082Y-42058453D01*
X76216656Y-42547969D01*
X76422220Y-43045474D01*
X76802524Y-43426442D01*
X77299669Y-43632875D01*
X77837969Y-43633344D01*
X78335474Y-43427780D01*
X78716442Y-43047476D01*
X78922875Y-42550331D01*
X78923344Y-42012031D01*
X78717780Y-41514526D01*
X78337476Y-41133558D01*
X78039797Y-41009951D01*
X78335474Y-40887780D01*
X78716442Y-40507476D01*
X78922875Y-40010331D01*
X78923344Y-39472031D01*
X78717780Y-38974526D01*
X78337476Y-38593558D01*
X78039797Y-38469951D01*
X78335474Y-38347780D01*
X78716442Y-37967476D01*
X78922875Y-37470331D01*
X78923344Y-36932031D01*
X78717780Y-36434526D01*
X78337476Y-36053558D01*
X78039797Y-35929951D01*
X78335474Y-35807780D01*
X78716442Y-35427476D01*
X78922875Y-34930331D01*
X78923344Y-34392031D01*
X78717780Y-33894526D01*
X78337476Y-33513558D01*
X78039797Y-33389951D01*
X78335474Y-33267780D01*
X78716442Y-32887476D01*
X78922875Y-32390331D01*
X78923344Y-31852031D01*
X78717780Y-31354526D01*
X78337476Y-30973558D01*
X77840331Y-30767125D01*
X77302031Y-30766656D01*
X76804526Y-30972220D01*
X76423558Y-31352524D01*
X76217125Y-31849669D01*
X76216656Y-32387969D01*
X76422220Y-32885474D01*
X76802524Y-33266442D01*
X77100203Y-33390049D01*
X76804526Y-33512220D01*
X76423558Y-33892524D01*
X76217125Y-34389669D01*
X76216656Y-34927969D01*
X76289326Y-35103844D01*
X76270000Y-35100000D01*
X64516244Y-35100000D01*
X64383078Y-34777714D01*
X64305500Y-34700000D01*
X67100000Y-34700000D01*
X67520952Y-34616267D01*
X67877817Y-34377817D01*
X69235634Y-33020000D01*
X72280000Y-33020000D01*
X72700952Y-32936267D01*
X73057817Y-32697817D01*
X75055635Y-30700000D01*
X75300001Y-30700000D01*
X75517844Y-30700190D01*
X75922286Y-30533078D01*
X76231991Y-30223913D01*
X76399808Y-29819763D01*
X76400190Y-29382156D01*
X76233078Y-28977714D01*
X75923913Y-28668009D01*
X75923451Y-28667817D01*
X75000000Y-27744366D01*
X75000000Y-24562448D01*
X75392489Y-24955623D01*
X75980344Y-25199722D01*
X76616863Y-25200277D01*
X77205143Y-24957205D01*
X77655623Y-24507511D01*
X77899722Y-23919656D01*
X77900277Y-23283137D01*
X77657205Y-22694857D01*
X77312743Y-22349793D01*
X77655623Y-22007511D01*
X77899722Y-21419656D01*
X77900277Y-20783137D01*
X77657205Y-20194857D01*
X77312743Y-19849793D01*
X77655623Y-19507511D01*
X77899722Y-18919656D01*
X77900277Y-18283137D01*
X77657205Y-17694857D01*
X77207511Y-17244377D01*
X76619656Y-17000278D01*
X75983137Y-16999723D01*
X75394857Y-17242795D01*
X75000000Y-17636963D01*
X75000000Y-14400000D01*
X74916267Y-13979048D01*
X74813208Y-13824810D01*
X74677818Y-13622183D01*
X74667005Y-13611371D01*
X74832286Y-13543078D01*
X75141991Y-13233913D01*
X75309808Y-12829763D01*
X75310190Y-12392156D01*
X75296812Y-12359779D01*
X75392489Y-12455623D01*
X75980344Y-12699722D01*
X76616863Y-12700277D01*
X77205143Y-12457205D01*
X77655623Y-12007511D01*
X77899722Y-11419656D01*
X77900277Y-10783137D01*
X77657205Y-10194857D01*
X77312743Y-9849793D01*
X77655623Y-9507511D01*
X77679504Y-9450000D01*
X78497918Y-9450000D01*
X79730000Y-10682081D01*
X79730000Y-10682081D01*
G37*
X79730000Y-10682081D02*
X79730000Y-42947918D01*
X75287918Y-47390000D01*
X68128015Y-47390000D01*
X68594491Y-46924337D01*
X68928220Y-46120630D01*
X68928979Y-45250388D01*
X68596654Y-44446099D01*
X67981837Y-43830209D01*
X67860921Y-43780000D01*
X70837918Y-43780000D01*
X71319911Y-44261993D01*
X71319810Y-44377844D01*
X71486922Y-44782286D01*
X71796087Y-45091991D01*
X72200237Y-45259808D01*
X72637844Y-45260190D01*
X73042286Y-45093078D01*
X73351991Y-44783913D01*
X73519808Y-44379763D01*
X73520190Y-43942156D01*
X73353078Y-43537714D01*
X73043913Y-43228009D01*
X72639763Y-43060192D01*
X72522171Y-43060089D01*
X71791041Y-42328959D01*
X71515281Y-42144702D01*
X71190000Y-42080000D01*
X64300000Y-42080000D01*
X63974719Y-42144702D01*
X63698959Y-42328959D01*
X63698957Y-42328962D01*
X61847918Y-44180000D01*
X55952082Y-44180000D01*
X53372082Y-41600000D01*
X58204187Y-41600000D01*
X58117125Y-41809669D01*
X58116656Y-42347969D01*
X58322220Y-42845474D01*
X58702524Y-43226442D01*
X59199669Y-43432875D01*
X59737969Y-43433344D01*
X60235474Y-43227780D01*
X60616442Y-42847476D01*
X60822875Y-42350331D01*
X60823344Y-41812031D01*
X60725426Y-41575051D01*
X60906147Y-41539104D01*
X61165685Y-41365685D01*
X61815686Y-40715685D01*
X61989104Y-40456147D01*
X62050000Y-40150000D01*
X62050000Y-37831370D01*
X62131371Y-37750000D01*
X63837318Y-37750000D01*
X63700192Y-38080237D01*
X63699810Y-38517844D01*
X63866922Y-38922286D01*
X64176087Y-39231991D01*
X64580237Y-39399808D01*
X64768602Y-39399972D01*
X65689315Y-40320686D01*
X65948853Y-40494104D01*
X66255000Y-40555000D01*
X72373630Y-40555000D01*
X73384315Y-41565686D01*
X73586888Y-41701041D01*
X73643853Y-41739104D01*
X73950000Y-41800000D01*
X75958630Y-41800000D01*
X76217082Y-42058453D01*
X76216656Y-42547969D01*
X76422220Y-43045474D01*
X76802524Y-43426442D01*
X77299669Y-43632875D01*
X77837969Y-43633344D01*
X78335474Y-43427780D01*
X78716442Y-43047476D01*
X78922875Y-42550331D01*
X78923344Y-42012031D01*
X78717780Y-41514526D01*
X78337476Y-41133558D01*
X78039797Y-41009951D01*
X78335474Y-40887780D01*
X78716442Y-40507476D01*
X78922875Y-40010331D01*
X78923344Y-39472031D01*
X78717780Y-38974526D01*
X78337476Y-38593558D01*
X78039797Y-38469951D01*
X78335474Y-38347780D01*
X78716442Y-37967476D01*
X78922875Y-37470331D01*
X78923344Y-36932031D01*
X78717780Y-36434526D01*
X78337476Y-36053558D01*
X78039797Y-35929951D01*
X78335474Y-35807780D01*
X78716442Y-35427476D01*
X78922875Y-34930331D01*
X78923344Y-34392031D01*
X78717780Y-33894526D01*
X78337476Y-33513558D01*
X78039797Y-33389951D01*
X78335474Y-33267780D01*
X78716442Y-32887476D01*
X78922875Y-32390331D01*
X78923344Y-31852031D01*
X78717780Y-31354526D01*
X78337476Y-30973558D01*
X77840331Y-30767125D01*
X77302031Y-30766656D01*
X76804526Y-30972220D01*
X76423558Y-31352524D01*
X76217125Y-31849669D01*
X76216656Y-32387969D01*
X76422220Y-32885474D01*
X76802524Y-33266442D01*
X77100203Y-33390049D01*
X76804526Y-33512220D01*
X76423558Y-33892524D01*
X76217125Y-34389669D01*
X76216656Y-34927969D01*
X76289326Y-35103844D01*
X76270000Y-35100000D01*
X64516244Y-35100000D01*
X64383078Y-34777714D01*
X64305500Y-34700000D01*
X67100000Y-34700000D01*
X67520952Y-34616267D01*
X67877817Y-34377817D01*
X69235634Y-33020000D01*
X72280000Y-33020000D01*
X72700952Y-32936267D01*
X73057817Y-32697817D01*
X75055635Y-30700000D01*
X75300001Y-30700000D01*
X75517844Y-30700190D01*
X75922286Y-30533078D01*
X76231991Y-30223913D01*
X76399808Y-29819763D01*
X76400190Y-29382156D01*
X76233078Y-28977714D01*
X75923913Y-28668009D01*
X75923451Y-28667817D01*
X75000000Y-27744366D01*
X75000000Y-24562448D01*
X75392489Y-24955623D01*
X75980344Y-25199722D01*
X76616863Y-25200277D01*
X77205143Y-24957205D01*
X77655623Y-24507511D01*
X77899722Y-23919656D01*
X77900277Y-23283137D01*
X77657205Y-22694857D01*
X77312743Y-22349793D01*
X77655623Y-22007511D01*
X77899722Y-21419656D01*
X77900277Y-20783137D01*
X77657205Y-20194857D01*
X77312743Y-19849793D01*
X77655623Y-19507511D01*
X77899722Y-18919656D01*
X77900277Y-18283137D01*
X77657205Y-17694857D01*
X77207511Y-17244377D01*
X76619656Y-17000278D01*
X75983137Y-16999723D01*
X75394857Y-17242795D01*
X75000000Y-17636963D01*
X75000000Y-14400000D01*
X74916267Y-13979048D01*
X74813208Y-13824810D01*
X74677818Y-13622183D01*
X74667005Y-13611371D01*
X74832286Y-13543078D01*
X75141991Y-13233913D01*
X75309808Y-12829763D01*
X75310190Y-12392156D01*
X75296812Y-12359779D01*
X75392489Y-12455623D01*
X75980344Y-12699722D01*
X76616863Y-12700277D01*
X77205143Y-12457205D01*
X77655623Y-12007511D01*
X77899722Y-11419656D01*
X77900277Y-10783137D01*
X77657205Y-10194857D01*
X77312743Y-9849793D01*
X77655623Y-9507511D01*
X77679504Y-9450000D01*
X78497918Y-9450000D01*
X79730000Y-10682081D01*
G36*
X76217082Y-39518453D02*
X76216656Y-40007969D01*
X76296539Y-40201301D01*
X76290000Y-40200000D01*
X74281371Y-40200000D01*
X73331370Y-39250000D01*
X75948630Y-39250000D01*
X76217082Y-39518453D01*
X76217082Y-39518453D01*
G37*
X76217082Y-39518453D02*
X76216656Y-40007969D01*
X76296539Y-40201301D01*
X76290000Y-40200000D01*
X74281371Y-40200000D01*
X73331370Y-39250000D01*
X75948630Y-39250000D01*
X76217082Y-39518453D01*
G36*
X54648959Y-38851041D02*
X54924719Y-39035298D01*
X55250000Y-39100000D01*
X55501369Y-39050000D01*
X57848630Y-39050000D01*
X58117082Y-39318453D01*
X58116656Y-39807969D01*
X58196001Y-40000000D01*
X53631370Y-40000000D01*
X52550000Y-38918630D01*
X52550000Y-38455674D01*
X52681991Y-38323913D01*
X52849808Y-37919763D01*
X52850190Y-37482156D01*
X52683078Y-37077714D01*
X52373913Y-36768009D01*
X52089715Y-36650000D01*
X52447918Y-36650000D01*
X54648959Y-38851041D01*
X54648959Y-38851041D01*
G37*
X54648959Y-38851041D02*
X54924719Y-39035298D01*
X55250000Y-39100000D01*
X55501369Y-39050000D01*
X57848630Y-39050000D01*
X58117082Y-39318453D01*
X58116656Y-39807969D01*
X58196001Y-40000000D01*
X53631370Y-40000000D01*
X52550000Y-38918630D01*
X52550000Y-38455674D01*
X52681991Y-38323913D01*
X52849808Y-37919763D01*
X52850190Y-37482156D01*
X52683078Y-37077714D01*
X52373913Y-36768009D01*
X52089715Y-36650000D01*
X52447918Y-36650000D01*
X54648959Y-38851041D01*
G36*
X76217082Y-36978453D02*
X76216656Y-37467969D01*
X76292932Y-37652572D01*
X76280000Y-37650000D01*
X67531371Y-37650000D01*
X66581370Y-36700000D01*
X75938630Y-36700000D01*
X76217082Y-36978453D01*
X76217082Y-36978453D01*
G37*
X76217082Y-36978453D02*
X76216656Y-37467969D01*
X76292932Y-37652572D01*
X76280000Y-37650000D01*
X67531371Y-37650000D01*
X66581370Y-36700000D01*
X75938630Y-36700000D01*
X76217082Y-36978453D01*
G36*
X55148959Y-36301041D02*
X55424719Y-36485298D01*
X55750000Y-36550000D01*
X56001369Y-36500000D01*
X57838630Y-36500000D01*
X58117082Y-36778453D01*
X58116656Y-37267969D01*
X58192932Y-37452572D01*
X58180000Y-37450000D01*
X55652082Y-37450000D01*
X53632082Y-35430000D01*
X54277918Y-35430000D01*
X55148959Y-36301041D01*
X55148959Y-36301041D01*
G37*
X55148959Y-36301041D02*
X55424719Y-36485298D01*
X55750000Y-36550000D01*
X56001369Y-36500000D01*
X57838630Y-36500000D01*
X58117082Y-36778453D01*
X58116656Y-37267969D01*
X58192932Y-37452572D01*
X58180000Y-37450000D01*
X55652082Y-37450000D01*
X53632082Y-35430000D01*
X54277918Y-35430000D01*
X55148959Y-36301041D01*
G36*
X57746087Y-34101991D02*
X58117067Y-34256035D01*
X58116656Y-34727969D01*
X58189326Y-34903844D01*
X58170000Y-34900000D01*
X56152082Y-34900000D01*
X55282082Y-34030000D01*
X57674222Y-34030000D01*
X57746087Y-34101991D01*
X57746087Y-34101991D01*
G37*
X57746087Y-34101991D02*
X58117067Y-34256035D01*
X58116656Y-34727969D01*
X58189326Y-34903844D01*
X58170000Y-34900000D01*
X56152082Y-34900000D01*
X55282082Y-34030000D01*
X57674222Y-34030000D01*
X57746087Y-34101991D01*
G36*
X54516922Y-16972286D02*
X54826087Y-17281991D01*
X55230237Y-17449808D01*
X55667844Y-17450190D01*
X56072286Y-17283078D01*
X56155509Y-17200000D01*
X57877918Y-17200000D01*
X58167021Y-17489103D01*
X58166656Y-17907969D01*
X58372220Y-18405474D01*
X58752524Y-18786442D01*
X59050203Y-18910049D01*
X58754526Y-19032220D01*
X58373558Y-19412524D01*
X58167125Y-19909669D01*
X58166656Y-20447969D01*
X58372220Y-20945474D01*
X58752524Y-21326442D01*
X59249669Y-21532875D01*
X59787969Y-21533344D01*
X60285474Y-21327780D01*
X60633861Y-20980000D01*
X62550149Y-20980000D01*
X62549810Y-21367844D01*
X62716922Y-21772286D01*
X63026087Y-22081991D01*
X63430237Y-22249808D01*
X63618602Y-22249972D01*
X64000000Y-22631371D01*
X64000000Y-31504326D01*
X63868009Y-31636087D01*
X63700192Y-32040237D01*
X63699810Y-32477844D01*
X63708965Y-32500000D01*
X61605635Y-32500000D01*
X60823287Y-31717652D01*
X60823344Y-31652031D01*
X60617780Y-31154526D01*
X60237476Y-30773558D01*
X59740331Y-30567125D01*
X59672701Y-30567066D01*
X59165543Y-30059909D01*
X59487844Y-30060190D01*
X59892286Y-29893078D01*
X60201991Y-29583913D01*
X60369808Y-29179763D01*
X60370190Y-28742156D01*
X60203078Y-28337714D01*
X59893913Y-28028009D01*
X59489763Y-27860192D01*
X59372171Y-27860089D01*
X59151041Y-27638959D01*
X58875281Y-27454702D01*
X58550000Y-27390000D01*
X57843074Y-27390000D01*
X58051041Y-27251041D01*
X59001993Y-26300089D01*
X59117844Y-26300190D01*
X59522286Y-26133078D01*
X59831991Y-25823913D01*
X59999808Y-25419763D01*
X60000190Y-24982156D01*
X59833078Y-24577714D01*
X59523913Y-24268009D01*
X59119763Y-24100192D01*
X58682156Y-24099810D01*
X58277714Y-24266922D01*
X57968009Y-24576087D01*
X57800192Y-24980237D01*
X57800089Y-25097829D01*
X57097918Y-25800000D01*
X45315761Y-25800000D01*
X45233913Y-25718009D01*
X45223287Y-25713597D01*
X45315281Y-25695298D01*
X45591041Y-25511041D01*
X54351041Y-16751041D01*
X54397053Y-16682180D01*
X54516922Y-16972286D01*
X54516922Y-16972286D01*
G37*
X54516922Y-16972286D02*
X54826087Y-17281991D01*
X55230237Y-17449808D01*
X55667844Y-17450190D01*
X56072286Y-17283078D01*
X56155509Y-17200000D01*
X57877918Y-17200000D01*
X58167021Y-17489103D01*
X58166656Y-17907969D01*
X58372220Y-18405474D01*
X58752524Y-18786442D01*
X59050203Y-18910049D01*
X58754526Y-19032220D01*
X58373558Y-19412524D01*
X58167125Y-19909669D01*
X58166656Y-20447969D01*
X58372220Y-20945474D01*
X58752524Y-21326442D01*
X59249669Y-21532875D01*
X59787969Y-21533344D01*
X60285474Y-21327780D01*
X60633861Y-20980000D01*
X62550149Y-20980000D01*
X62549810Y-21367844D01*
X62716922Y-21772286D01*
X63026087Y-22081991D01*
X63430237Y-22249808D01*
X63618602Y-22249972D01*
X64000000Y-22631371D01*
X64000000Y-31504326D01*
X63868009Y-31636087D01*
X63700192Y-32040237D01*
X63699810Y-32477844D01*
X63708965Y-32500000D01*
X61605635Y-32500000D01*
X60823287Y-31717652D01*
X60823344Y-31652031D01*
X60617780Y-31154526D01*
X60237476Y-30773558D01*
X59740331Y-30567125D01*
X59672701Y-30567066D01*
X59165543Y-30059909D01*
X59487844Y-30060190D01*
X59892286Y-29893078D01*
X60201991Y-29583913D01*
X60369808Y-29179763D01*
X60370190Y-28742156D01*
X60203078Y-28337714D01*
X59893913Y-28028009D01*
X59489763Y-27860192D01*
X59372171Y-27860089D01*
X59151041Y-27638959D01*
X58875281Y-27454702D01*
X58550000Y-27390000D01*
X57843074Y-27390000D01*
X58051041Y-27251041D01*
X59001993Y-26300089D01*
X59117844Y-26300190D01*
X59522286Y-26133078D01*
X59831991Y-25823913D01*
X59999808Y-25419763D01*
X60000190Y-24982156D01*
X59833078Y-24577714D01*
X59523913Y-24268009D01*
X59119763Y-24100192D01*
X58682156Y-24099810D01*
X58277714Y-24266922D01*
X57968009Y-24576087D01*
X57800192Y-24980237D01*
X57800089Y-25097829D01*
X57097918Y-25800000D01*
X45315761Y-25800000D01*
X45233913Y-25718009D01*
X45223287Y-25713597D01*
X45315281Y-25695298D01*
X45591041Y-25511041D01*
X54351041Y-16751041D01*
X54397053Y-16682180D01*
X54516922Y-16972286D01*
G36*
X54876087Y-14731991D02*
X55280237Y-14899808D01*
X55717844Y-14900190D01*
X56122286Y-14733078D01*
X56205509Y-14650000D01*
X57947918Y-14650000D01*
X58167091Y-14869172D01*
X58166656Y-15367969D01*
X58221210Y-15500000D01*
X56155761Y-15500000D01*
X56073913Y-15418009D01*
X55669763Y-15250192D01*
X55232156Y-15249810D01*
X54827714Y-15416922D01*
X54600000Y-15644239D01*
X54600000Y-14455422D01*
X54876087Y-14731991D01*
X54876087Y-14731991D01*
G37*
X54876087Y-14731991D02*
X55280237Y-14899808D01*
X55717844Y-14900190D01*
X56122286Y-14733078D01*
X56205509Y-14650000D01*
X57947918Y-14650000D01*
X58167091Y-14869172D01*
X58166656Y-15367969D01*
X58221210Y-15500000D01*
X56155761Y-15500000D01*
X56073913Y-15418009D01*
X55669763Y-15250192D01*
X55232156Y-15249810D01*
X54827714Y-15416922D01*
X54600000Y-15644239D01*
X54600000Y-14455422D01*
X54876087Y-14731991D01*
G36*
X58360192Y-7560237D02*
X58359810Y-7997844D01*
X58526922Y-8402286D01*
X58836087Y-8711991D01*
X58988821Y-8775412D01*
X58754526Y-8872220D01*
X58373558Y-9252524D01*
X58167125Y-9749669D01*
X58166656Y-10287969D01*
X58372220Y-10785474D01*
X58752524Y-11166442D01*
X59050203Y-11290049D01*
X58754526Y-11412220D01*
X58373558Y-11792524D01*
X58167125Y-12289669D01*
X58166656Y-12827969D01*
X58217078Y-12950000D01*
X56205761Y-12950000D01*
X56123913Y-12868009D01*
X55777794Y-12724288D01*
X55901041Y-12601041D01*
X56085298Y-12325281D01*
X56150000Y-12000000D01*
X56150000Y-9752082D01*
X58373220Y-7528862D01*
X58360192Y-7560237D01*
X58360192Y-7560237D01*
G37*
X58360192Y-7560237D02*
X58359810Y-7997844D01*
X58526922Y-8402286D01*
X58836087Y-8711991D01*
X58988821Y-8775412D01*
X58754526Y-8872220D01*
X58373558Y-9252524D01*
X58167125Y-9749669D01*
X58166656Y-10287969D01*
X58372220Y-10785474D01*
X58752524Y-11166442D01*
X59050203Y-11290049D01*
X58754526Y-11412220D01*
X58373558Y-11792524D01*
X58167125Y-12289669D01*
X58166656Y-12827969D01*
X58217078Y-12950000D01*
X56205761Y-12950000D01*
X56123913Y-12868009D01*
X55777794Y-12724288D01*
X55901041Y-12601041D01*
X56085298Y-12325281D01*
X56150000Y-12000000D01*
X56150000Y-9752082D01*
X58373220Y-7528862D01*
X58360192Y-7560237D01*
G36*
X81325000Y-9944409D02*
X81181041Y-9728959D01*
X81181038Y-9728957D01*
X79451041Y-7998959D01*
X79175281Y-7814702D01*
X78850000Y-7750000D01*
X77679990Y-7750000D01*
X77657205Y-7694857D01*
X77312743Y-7349793D01*
X77655623Y-7007511D01*
X77899722Y-6419656D01*
X77900277Y-5783137D01*
X77657205Y-5194857D01*
X77207511Y-4744377D01*
X76619656Y-4500278D01*
X75983137Y-4499723D01*
X75394857Y-4742795D01*
X74944377Y-5192489D01*
X74920496Y-5250000D01*
X73060000Y-5250000D01*
X72734719Y-5314702D01*
X72458959Y-5498959D01*
X71183959Y-6773959D01*
X71183957Y-6773962D01*
X71027919Y-6930000D01*
X60165761Y-6930000D01*
X60083913Y-6848009D01*
X59871963Y-6760000D01*
X62490000Y-6760000D01*
X62815281Y-6695298D01*
X63091041Y-6511041D01*
X64802141Y-4799941D01*
X64986398Y-4524181D01*
X65051100Y-4198900D01*
X65051100Y-4086871D01*
X65164179Y-4011314D01*
X65459424Y-3569450D01*
X65563100Y-3048235D01*
X65563100Y-1958965D01*
X65459424Y-1437750D01*
X65164179Y-995886D01*
X64722315Y-700641D01*
X64201100Y-596965D01*
X63679885Y-700641D01*
X63238021Y-995886D01*
X62942776Y-1437750D01*
X62931100Y-1496449D01*
X62919424Y-1437750D01*
X62624179Y-995886D01*
X62182315Y-700641D01*
X61661100Y-596965D01*
X61139885Y-700641D01*
X60698021Y-995886D01*
X60402776Y-1437750D01*
X60391100Y-1496449D01*
X60379424Y-1437750D01*
X60084179Y-995886D01*
X59642315Y-700641D01*
X59121100Y-596965D01*
X58599885Y-700641D01*
X58158021Y-995886D01*
X57862776Y-1437750D01*
X57851100Y-1496449D01*
X57839424Y-1437750D01*
X57544179Y-995886D01*
X57102315Y-700641D01*
X56581100Y-596965D01*
X56059885Y-700641D01*
X55618021Y-995886D01*
X55322776Y-1437750D01*
X55311100Y-1496449D01*
X55299424Y-1437750D01*
X55004179Y-995886D01*
X54562315Y-700641D01*
X54041100Y-596965D01*
X53519885Y-700641D01*
X53078021Y-995886D01*
X52782776Y-1437750D01*
X52771100Y-1496449D01*
X52759424Y-1437750D01*
X52464179Y-995886D01*
X52022315Y-700641D01*
X51501100Y-596965D01*
X50979885Y-700641D01*
X50538021Y-995886D01*
X50242776Y-1437750D01*
X50231100Y-1496449D01*
X50219424Y-1437750D01*
X49924179Y-995886D01*
X49735869Y-870061D01*
X49562141Y-610059D01*
X49427082Y-475000D01*
X81325000Y-475000D01*
X81325000Y-9944409D01*
X81325000Y-9944409D01*
G37*
X81325000Y-9944409D02*
X81181041Y-9728959D01*
X81181038Y-9728957D01*
X79451041Y-7998959D01*
X79175281Y-7814702D01*
X78850000Y-7750000D01*
X77679990Y-7750000D01*
X77657205Y-7694857D01*
X77312743Y-7349793D01*
X77655623Y-7007511D01*
X77899722Y-6419656D01*
X77900277Y-5783137D01*
X77657205Y-5194857D01*
X77207511Y-4744377D01*
X76619656Y-4500278D01*
X75983137Y-4499723D01*
X75394857Y-4742795D01*
X74944377Y-5192489D01*
X74920496Y-5250000D01*
X73060000Y-5250000D01*
X72734719Y-5314702D01*
X72458959Y-5498959D01*
X71183959Y-6773959D01*
X71183957Y-6773962D01*
X71027919Y-6930000D01*
X60165761Y-6930000D01*
X60083913Y-6848009D01*
X59871963Y-6760000D01*
X62490000Y-6760000D01*
X62815281Y-6695298D01*
X63091041Y-6511041D01*
X64802141Y-4799941D01*
X64986398Y-4524181D01*
X65051100Y-4198900D01*
X65051100Y-4086871D01*
X65164179Y-4011314D01*
X65459424Y-3569450D01*
X65563100Y-3048235D01*
X65563100Y-1958965D01*
X65459424Y-1437750D01*
X65164179Y-995886D01*
X64722315Y-700641D01*
X64201100Y-596965D01*
X63679885Y-700641D01*
X63238021Y-995886D01*
X62942776Y-1437750D01*
X62931100Y-1496449D01*
X62919424Y-1437750D01*
X62624179Y-995886D01*
X62182315Y-700641D01*
X61661100Y-596965D01*
X61139885Y-700641D01*
X60698021Y-995886D01*
X60402776Y-1437750D01*
X60391100Y-1496449D01*
X60379424Y-1437750D01*
X60084179Y-995886D01*
X59642315Y-700641D01*
X59121100Y-596965D01*
X58599885Y-700641D01*
X58158021Y-995886D01*
X57862776Y-1437750D01*
X57851100Y-1496449D01*
X57839424Y-1437750D01*
X57544179Y-995886D01*
X57102315Y-700641D01*
X56581100Y-596965D01*
X56059885Y-700641D01*
X55618021Y-995886D01*
X55322776Y-1437750D01*
X55311100Y-1496449D01*
X55299424Y-1437750D01*
X55004179Y-995886D01*
X54562315Y-700641D01*
X54041100Y-596965D01*
X53519885Y-700641D01*
X53078021Y-995886D01*
X52782776Y-1437750D01*
X52771100Y-1496449D01*
X52759424Y-1437750D01*
X52464179Y-995886D01*
X52022315Y-700641D01*
X51501100Y-596965D01*
X50979885Y-700641D01*
X50538021Y-995886D01*
X50242776Y-1437750D01*
X50231100Y-1496449D01*
X50219424Y-1437750D01*
X49924179Y-995886D01*
X49735869Y-870061D01*
X49562141Y-610059D01*
X49427082Y-475000D01*
X81325000Y-475000D01*
X81325000Y-9944409D01*
G36*
X28295100Y-1958965D02*
X28295100Y-3048235D01*
X28398776Y-3569450D01*
X28694021Y-4011314D01*
X29135885Y-4306559D01*
X29498202Y-4378628D01*
X29331405Y-4490079D01*
X29125000Y-4798986D01*
X28918595Y-4490079D01*
X28443769Y-4172810D01*
X27883674Y-4061400D01*
X27826326Y-4061400D01*
X27266231Y-4172810D01*
X26791405Y-4490079D01*
X26474136Y-4964905D01*
X26362726Y-5525000D01*
X26474136Y-6085095D01*
X26532026Y-6171734D01*
X26366147Y-6060896D01*
X26342272Y-6056147D01*
X26060000Y-6000000D01*
X24381371Y-6000000D01*
X24207396Y-5826026D01*
X24267274Y-5525000D01*
X24166436Y-5018054D01*
X24175000Y-4975000D01*
X24175000Y-4330252D01*
X24577100Y-4410235D01*
X25098315Y-4306559D01*
X25540179Y-4011314D01*
X25835424Y-3569450D01*
X25939100Y-3048235D01*
X25939100Y-1958965D01*
X25842833Y-1475000D01*
X28391367Y-1475000D01*
X28295100Y-1958965D01*
X28295100Y-1958965D01*
G37*
X28295100Y-1958965D02*
X28295100Y-3048235D01*
X28398776Y-3569450D01*
X28694021Y-4011314D01*
X29135885Y-4306559D01*
X29498202Y-4378628D01*
X29331405Y-4490079D01*
X29125000Y-4798986D01*
X28918595Y-4490079D01*
X28443769Y-4172810D01*
X27883674Y-4061400D01*
X27826326Y-4061400D01*
X27266231Y-4172810D01*
X26791405Y-4490079D01*
X26474136Y-4964905D01*
X26362726Y-5525000D01*
X26474136Y-6085095D01*
X26532026Y-6171734D01*
X26366147Y-6060896D01*
X26342272Y-6056147D01*
X26060000Y-6000000D01*
X24381371Y-6000000D01*
X24207396Y-5826026D01*
X24267274Y-5525000D01*
X24166436Y-5018054D01*
X24175000Y-4975000D01*
X24175000Y-4330252D01*
X24577100Y-4410235D01*
X25098315Y-4306559D01*
X25540179Y-4011314D01*
X25835424Y-3569450D01*
X25939100Y-3048235D01*
X25939100Y-1958965D01*
X25842833Y-1475000D01*
X28391367Y-1475000D01*
X28295100Y-1958965D01*
G36*
X30938776Y-3569450D02*
X31234021Y-4011314D01*
X31675885Y-4306559D01*
X32197100Y-4410235D01*
X32718315Y-4306559D01*
X32734148Y-4295980D01*
X32894315Y-4535685D01*
X33400000Y-5041370D01*
X33400000Y-5998629D01*
X33398630Y-6000000D01*
X32001371Y-6000000D01*
X31827396Y-5826026D01*
X31887274Y-5525000D01*
X31775864Y-4964905D01*
X31458595Y-4490079D01*
X30983769Y-4172810D01*
X30517337Y-4080031D01*
X30620179Y-4011314D01*
X30915424Y-3569450D01*
X30927100Y-3510751D01*
X30938776Y-3569450D01*
X30938776Y-3569450D01*
G37*
X30938776Y-3569450D02*
X31234021Y-4011314D01*
X31675885Y-4306559D01*
X32197100Y-4410235D01*
X32718315Y-4306559D01*
X32734148Y-4295980D01*
X32894315Y-4535685D01*
X33400000Y-5041370D01*
X33400000Y-5998629D01*
X33398630Y-6000000D01*
X32001371Y-6000000D01*
X31827396Y-5826026D01*
X31887274Y-5525000D01*
X31775864Y-4964905D01*
X31458595Y-4490079D01*
X30983769Y-4172810D01*
X30517337Y-4080031D01*
X30620179Y-4011314D01*
X30915424Y-3569450D01*
X30927100Y-3510751D01*
X30938776Y-3569450D01*
M02*
