G04 #@! TF.FileFunction,Legend,Top*
%FSLAX46Y46*%
G04 Gerber Fmt 4.6, Leading zero omitted, Abs format (unit mm)*
G04 Created by KiCad (PCBNEW 4.0.0-rc1-stable) date 31.5.2016 14:43:07*
%MOMM*%
G01*
G04 APERTURE LIST*
%ADD10C,0.100000*%
%ADD11C,0.300000*%
%ADD12C,0.150000*%
G04 APERTURE END LIST*
D10*
D11*
X80078571Y-11699999D02*
X80078571Y-10771428D01*
X80650000Y-11271428D01*
X80650000Y-11057142D01*
X80721429Y-10914285D01*
X80792857Y-10842856D01*
X80935714Y-10771428D01*
X81292857Y-10771428D01*
X81435714Y-10842856D01*
X81507143Y-10914285D01*
X81578571Y-11057142D01*
X81578571Y-11485714D01*
X81507143Y-11628571D01*
X81435714Y-11699999D01*
X80221429Y-9128571D02*
X80150000Y-9057142D01*
X80078571Y-8914285D01*
X80078571Y-8557142D01*
X80150000Y-8414285D01*
X80221429Y-8342856D01*
X80364286Y-8271428D01*
X80507143Y-8271428D01*
X80721429Y-8342856D01*
X81578571Y-9199999D01*
X81578571Y-8271428D01*
X81578571Y-5571428D02*
X81578571Y-6428571D01*
X81578571Y-5999999D02*
X80078571Y-5999999D01*
X80292857Y-6142856D01*
X80435714Y-6285714D01*
X80507143Y-6428571D01*
X80150000Y-3207143D02*
X80078571Y-3350000D01*
X80078571Y-3564286D01*
X80150000Y-3778571D01*
X80292857Y-3921429D01*
X80435714Y-3992857D01*
X80721429Y-4064286D01*
X80935714Y-4064286D01*
X81221429Y-3992857D01*
X81364286Y-3921429D01*
X81507143Y-3778571D01*
X81578571Y-3564286D01*
X81578571Y-3421429D01*
X81507143Y-3207143D01*
X81435714Y-3135714D01*
X80935714Y-3135714D01*
X80935714Y-3421429D01*
X80078571Y-24199999D02*
X80078571Y-23199999D01*
X81578571Y-24199999D01*
X81578571Y-23199999D01*
X80864286Y-21200000D02*
X81578571Y-21200000D01*
X80078571Y-21700000D02*
X80864286Y-21200000D01*
X80078571Y-20700000D01*
X80078571Y-19199999D02*
X81578571Y-18199999D01*
X80078571Y-18199999D02*
X81578571Y-19199999D01*
X80150000Y-15707143D02*
X80078571Y-15850000D01*
X80078571Y-16064286D01*
X80150000Y-16278571D01*
X80292857Y-16421429D01*
X80435714Y-16492857D01*
X80721429Y-16564286D01*
X80935714Y-16564286D01*
X81221429Y-16492857D01*
X81364286Y-16421429D01*
X81507143Y-16278571D01*
X81578571Y-16064286D01*
X81578571Y-15921429D01*
X81507143Y-15707143D01*
X81435714Y-15635714D01*
X80935714Y-15635714D01*
X80935714Y-15921429D01*
X63914286Y-39949999D02*
X64628571Y-39949999D01*
X63128571Y-40449999D02*
X63914286Y-39949999D01*
X63128571Y-39449999D01*
X64200000Y-37878571D02*
X64200000Y-37164285D01*
X64628571Y-38021428D02*
X63128571Y-37521428D01*
X64628571Y-37021428D01*
X63128571Y-36664285D02*
X64628571Y-35664285D01*
X63128571Y-35664285D02*
X64628571Y-36664285D01*
X64628571Y-35092857D02*
X63128571Y-35092857D01*
X64557143Y-34450000D02*
X64628571Y-34235714D01*
X64628571Y-33878571D01*
X64557143Y-33735714D01*
X64485714Y-33664285D01*
X64342857Y-33592857D01*
X64200000Y-33592857D01*
X64057143Y-33664285D01*
X63985714Y-33735714D01*
X63914286Y-33878571D01*
X63842857Y-34164285D01*
X63771429Y-34307143D01*
X63700000Y-34378571D01*
X63557143Y-34450000D01*
X63414286Y-34450000D01*
X63271429Y-34378571D01*
X63200000Y-34307143D01*
X63128571Y-34164285D01*
X63128571Y-33807143D01*
X63200000Y-33592857D01*
X51578571Y-16249999D02*
X53078571Y-15249999D01*
X51578571Y-15249999D02*
X53078571Y-16249999D01*
X52650000Y-13607143D02*
X52650000Y-12892857D01*
X53078571Y-13750000D02*
X51578571Y-13250000D01*
X53078571Y-12750000D01*
X51578571Y-12392857D02*
X53078571Y-11392857D01*
X51578571Y-11392857D02*
X53078571Y-12392857D01*
X53078571Y-10821429D02*
X51578571Y-10821429D01*
X53007143Y-10178572D02*
X53078571Y-9964286D01*
X53078571Y-9607143D01*
X53007143Y-9464286D01*
X52935714Y-9392857D01*
X52792857Y-9321429D01*
X52650000Y-9321429D01*
X52507143Y-9392857D01*
X52435714Y-9464286D01*
X52364286Y-9607143D01*
X52292857Y-9892857D01*
X52221429Y-10035715D01*
X52150000Y-10107143D01*
X52007143Y-10178572D01*
X51864286Y-10178572D01*
X51721429Y-10107143D01*
X51650000Y-10035715D01*
X51578571Y-9892857D01*
X51578571Y-9535715D01*
X51650000Y-9321429D01*
X69828571Y-40549999D02*
X69828571Y-39549999D01*
X71328571Y-40549999D01*
X71328571Y-39549999D01*
X70900000Y-37907143D02*
X70900000Y-37192857D01*
X71328571Y-38050000D02*
X69828571Y-37550000D01*
X71328571Y-37050000D01*
X69828571Y-36692857D02*
X71328571Y-35692857D01*
X69828571Y-35692857D02*
X71328571Y-36692857D01*
X71328571Y-35121429D02*
X69828571Y-35121429D01*
X71257143Y-34478572D02*
X71328571Y-34264286D01*
X71328571Y-33907143D01*
X71257143Y-33764286D01*
X71185714Y-33692857D01*
X71042857Y-33621429D01*
X70900000Y-33621429D01*
X70757143Y-33692857D01*
X70685714Y-33764286D01*
X70614286Y-33907143D01*
X70542857Y-34192857D01*
X70471429Y-34335715D01*
X70400000Y-34407143D01*
X70257143Y-34478572D01*
X70114286Y-34478572D01*
X69971429Y-34407143D01*
X69900000Y-34335715D01*
X69828571Y-34192857D01*
X69828571Y-33835715D01*
X69900000Y-33621429D01*
X70728571Y-12064286D02*
X70728571Y-11207143D01*
X72228571Y-11635714D02*
X70728571Y-11635714D01*
X72228571Y-9850000D02*
X71514286Y-10350000D01*
X72228571Y-10707143D02*
X70728571Y-10707143D01*
X70728571Y-10135715D01*
X70800000Y-9992857D01*
X70871429Y-9921429D01*
X71014286Y-9850000D01*
X71228571Y-9850000D01*
X71371429Y-9921429D01*
X71442857Y-9992857D01*
X71514286Y-10135715D01*
X71514286Y-10707143D01*
X72228571Y-9207143D02*
X70728571Y-9207143D01*
X70800000Y-7707143D02*
X70728571Y-7850000D01*
X70728571Y-8064286D01*
X70800000Y-8278571D01*
X70942857Y-8421429D01*
X71085714Y-8492857D01*
X71371429Y-8564286D01*
X71585714Y-8564286D01*
X71871429Y-8492857D01*
X72014286Y-8421429D01*
X72157143Y-8278571D01*
X72228571Y-8064286D01*
X72228571Y-7921429D01*
X72157143Y-7707143D01*
X72085714Y-7635714D01*
X71585714Y-7635714D01*
X71585714Y-7921429D01*
X70800000Y-6207143D02*
X70728571Y-6350000D01*
X70728571Y-6564286D01*
X70800000Y-6778571D01*
X70942857Y-6921429D01*
X71085714Y-6992857D01*
X71371429Y-7064286D01*
X71585714Y-7064286D01*
X71871429Y-6992857D01*
X72014286Y-6921429D01*
X72157143Y-6778571D01*
X72228571Y-6564286D01*
X72228571Y-6421429D01*
X72157143Y-6207143D01*
X72085714Y-6135714D01*
X71585714Y-6135714D01*
X71585714Y-6421429D01*
X71442857Y-5492857D02*
X71442857Y-4992857D01*
X72228571Y-4778571D02*
X72228571Y-5492857D01*
X70728571Y-5492857D01*
X70728571Y-4778571D01*
X72228571Y-3278571D02*
X71514286Y-3778571D01*
X72228571Y-4135714D02*
X70728571Y-4135714D01*
X70728571Y-3564286D01*
X70800000Y-3421428D01*
X70871429Y-3350000D01*
X71014286Y-3278571D01*
X71228571Y-3278571D01*
X71371429Y-3350000D01*
X71442857Y-3421428D01*
X71514286Y-3564286D01*
X71514286Y-4135714D01*
X72278571Y-21828571D02*
X72278571Y-22542857D01*
X70778571Y-22542857D01*
X72278571Y-21328571D02*
X70778571Y-21328571D01*
X72278571Y-20614285D02*
X70778571Y-20614285D01*
X71850000Y-20114285D01*
X70778571Y-19614285D01*
X72278571Y-19614285D01*
X72278571Y-18899999D02*
X70778571Y-18899999D01*
X70778571Y-18399999D02*
X70778571Y-17542856D01*
X72278571Y-17971427D02*
X70778571Y-17971427D01*
X35442857Y-36714286D02*
X35785714Y-37628572D01*
X36128571Y-36714286D01*
X35785714Y-36142858D02*
X35785714Y-35228572D01*
X36242857Y-33171429D02*
X36242857Y-33742858D01*
X35042857Y-33742858D01*
X36242857Y-32771429D02*
X35042857Y-32771429D01*
X36242857Y-32200000D02*
X35042857Y-32200000D01*
X35900000Y-31800000D01*
X35042857Y-31400000D01*
X36242857Y-31400000D01*
X36242857Y-30828571D02*
X35042857Y-30828571D01*
X35042857Y-30428570D02*
X35042857Y-29742856D01*
X36242857Y-30085713D02*
X35042857Y-30085713D01*
X35671429Y-28199998D02*
X36242857Y-28199998D01*
X35042857Y-28599998D02*
X35671429Y-28199998D01*
X35042857Y-27799998D01*
X31567857Y-36771429D02*
X31910714Y-37685715D01*
X32253571Y-36771429D01*
X31910714Y-36200001D02*
X31910714Y-35285715D01*
X32367857Y-33228572D02*
X32367857Y-33800001D01*
X31167857Y-33800001D01*
X32367857Y-32828572D02*
X31167857Y-32828572D01*
X32367857Y-32257143D02*
X31167857Y-32257143D01*
X32025000Y-31857143D01*
X31167857Y-31457143D01*
X32367857Y-31457143D01*
X32367857Y-30885714D02*
X31167857Y-30885714D01*
X31167857Y-30485713D02*
X31167857Y-29799999D01*
X32367857Y-30142856D02*
X31167857Y-30142856D01*
X31167857Y-28599998D02*
X32367857Y-27799998D01*
X31167857Y-27799998D02*
X32367857Y-28599998D01*
X27917857Y-36728571D02*
X28260714Y-37642857D01*
X28603571Y-36728571D01*
X28260714Y-36157143D02*
X28260714Y-35242857D01*
X27517857Y-33757143D02*
X28489286Y-33757143D01*
X28603571Y-33700000D01*
X28660714Y-33642857D01*
X28717857Y-33528571D01*
X28717857Y-33300000D01*
X28660714Y-33185714D01*
X28603571Y-33128571D01*
X28489286Y-33071428D01*
X27517857Y-33071428D01*
X28375000Y-32557143D02*
X28375000Y-31985714D01*
X28717857Y-32671428D02*
X27517857Y-32271428D01*
X28717857Y-31871428D01*
X28717857Y-30785714D02*
X28146429Y-31185714D01*
X28717857Y-31471429D02*
X27517857Y-31471429D01*
X27517857Y-31014286D01*
X27575000Y-30900000D01*
X27632143Y-30842857D01*
X27746429Y-30785714D01*
X27917857Y-30785714D01*
X28032143Y-30842857D01*
X28089286Y-30900000D01*
X28146429Y-31014286D01*
X28146429Y-31471429D01*
X27517857Y-30442857D02*
X27517857Y-29757143D01*
X28717857Y-30100000D02*
X27517857Y-30100000D01*
X27517857Y-28614285D02*
X27517857Y-27928571D01*
X28717857Y-28271428D02*
X27517857Y-28271428D01*
X27517857Y-27642856D02*
X28717857Y-26842856D01*
X27517857Y-26842856D02*
X28717857Y-27642856D01*
X20617857Y-36725000D02*
X20960714Y-37639286D01*
X21303571Y-36725000D01*
X20960714Y-36153572D02*
X20960714Y-35239286D01*
X20217857Y-33925000D02*
X20217857Y-33239286D01*
X21417857Y-33582143D02*
X20217857Y-33582143D01*
X21417857Y-32153571D02*
X20846429Y-32553571D01*
X21417857Y-32839286D02*
X20217857Y-32839286D01*
X20217857Y-32382143D01*
X20275000Y-32267857D01*
X20332143Y-32210714D01*
X20446429Y-32153571D01*
X20617857Y-32153571D01*
X20732143Y-32210714D01*
X20789286Y-32267857D01*
X20846429Y-32382143D01*
X20846429Y-32839286D01*
X21417857Y-31639286D02*
X20217857Y-31639286D01*
X20275000Y-30439285D02*
X20217857Y-30553571D01*
X20217857Y-30725000D01*
X20275000Y-30896428D01*
X20389286Y-31010714D01*
X20503571Y-31067857D01*
X20732143Y-31125000D01*
X20903571Y-31125000D01*
X21132143Y-31067857D01*
X21246429Y-31010714D01*
X21360714Y-30896428D01*
X21417857Y-30725000D01*
X21417857Y-30610714D01*
X21360714Y-30439285D01*
X21303571Y-30382142D01*
X20903571Y-30382142D01*
X20903571Y-30610714D01*
X20275000Y-29239285D02*
X20217857Y-29353571D01*
X20217857Y-29525000D01*
X20275000Y-29696428D01*
X20389286Y-29810714D01*
X20503571Y-29867857D01*
X20732143Y-29925000D01*
X20903571Y-29925000D01*
X21132143Y-29867857D01*
X21246429Y-29810714D01*
X21360714Y-29696428D01*
X21417857Y-29525000D01*
X21417857Y-29410714D01*
X21360714Y-29239285D01*
X21303571Y-29182142D01*
X20903571Y-29182142D01*
X20903571Y-29410714D01*
X20789286Y-28667857D02*
X20789286Y-28267857D01*
X21417857Y-28096428D02*
X21417857Y-28667857D01*
X20217857Y-28667857D01*
X20217857Y-28096428D01*
X21417857Y-26896428D02*
X20846429Y-27296428D01*
X21417857Y-27582143D02*
X20217857Y-27582143D01*
X20217857Y-27125000D01*
X20275000Y-27010714D01*
X20332143Y-26953571D01*
X20446429Y-26896428D01*
X20617857Y-26896428D01*
X20732143Y-26953571D01*
X20789286Y-27010714D01*
X20846429Y-27125000D01*
X20846429Y-27582143D01*
X20332143Y-26439286D02*
X20275000Y-26382143D01*
X20217857Y-26267857D01*
X20217857Y-25982143D01*
X20275000Y-25867857D01*
X20332143Y-25810714D01*
X20446429Y-25753571D01*
X20560714Y-25753571D01*
X20732143Y-25810714D01*
X21417857Y-26496428D01*
X21417857Y-25753571D01*
X24242857Y-36746428D02*
X24585714Y-37660714D01*
X24928571Y-36746428D01*
X24585714Y-36175000D02*
X24585714Y-35260714D01*
X23842857Y-33775000D02*
X24814286Y-33775000D01*
X24928571Y-33717857D01*
X24985714Y-33660714D01*
X25042857Y-33546428D01*
X25042857Y-33317857D01*
X24985714Y-33203571D01*
X24928571Y-33146428D01*
X24814286Y-33089285D01*
X23842857Y-33089285D01*
X24700000Y-32575000D02*
X24700000Y-32003571D01*
X25042857Y-32689285D02*
X23842857Y-32289285D01*
X25042857Y-31889285D01*
X25042857Y-30803571D02*
X24471429Y-31203571D01*
X25042857Y-31489286D02*
X23842857Y-31489286D01*
X23842857Y-31032143D01*
X23900000Y-30917857D01*
X23957143Y-30860714D01*
X24071429Y-30803571D01*
X24242857Y-30803571D01*
X24357143Y-30860714D01*
X24414286Y-30917857D01*
X24471429Y-31032143D01*
X24471429Y-31489286D01*
X23842857Y-30460714D02*
X23842857Y-29775000D01*
X25042857Y-30117857D02*
X23842857Y-30117857D01*
X25042857Y-27774999D02*
X24471429Y-28174999D01*
X25042857Y-28460714D02*
X23842857Y-28460714D01*
X23842857Y-28003571D01*
X23900000Y-27889285D01*
X23957143Y-27832142D01*
X24071429Y-27774999D01*
X24242857Y-27774999D01*
X24357143Y-27832142D01*
X24414286Y-27889285D01*
X24471429Y-28003571D01*
X24471429Y-28460714D01*
X23842857Y-27374999D02*
X25042857Y-26574999D01*
X23842857Y-26574999D02*
X25042857Y-27374999D01*
X16892857Y-36725000D02*
X17235714Y-37639286D01*
X17578571Y-36725000D01*
X17235714Y-36153572D02*
X17235714Y-35239286D01*
X16492857Y-33925000D02*
X16492857Y-33239286D01*
X17692857Y-33582143D02*
X16492857Y-33582143D01*
X17692857Y-32153571D02*
X17121429Y-32553571D01*
X17692857Y-32839286D02*
X16492857Y-32839286D01*
X16492857Y-32382143D01*
X16550000Y-32267857D01*
X16607143Y-32210714D01*
X16721429Y-32153571D01*
X16892857Y-32153571D01*
X17007143Y-32210714D01*
X17064286Y-32267857D01*
X17121429Y-32382143D01*
X17121429Y-32839286D01*
X17692857Y-31639286D02*
X16492857Y-31639286D01*
X16550000Y-30439285D02*
X16492857Y-30553571D01*
X16492857Y-30725000D01*
X16550000Y-30896428D01*
X16664286Y-31010714D01*
X16778571Y-31067857D01*
X17007143Y-31125000D01*
X17178571Y-31125000D01*
X17407143Y-31067857D01*
X17521429Y-31010714D01*
X17635714Y-30896428D01*
X17692857Y-30725000D01*
X17692857Y-30610714D01*
X17635714Y-30439285D01*
X17578571Y-30382142D01*
X17178571Y-30382142D01*
X17178571Y-30610714D01*
X16550000Y-29239285D02*
X16492857Y-29353571D01*
X16492857Y-29525000D01*
X16550000Y-29696428D01*
X16664286Y-29810714D01*
X16778571Y-29867857D01*
X17007143Y-29925000D01*
X17178571Y-29925000D01*
X17407143Y-29867857D01*
X17521429Y-29810714D01*
X17635714Y-29696428D01*
X17692857Y-29525000D01*
X17692857Y-29410714D01*
X17635714Y-29239285D01*
X17578571Y-29182142D01*
X17178571Y-29182142D01*
X17178571Y-29410714D01*
X17064286Y-28667857D02*
X17064286Y-28267857D01*
X17692857Y-28096428D02*
X17692857Y-28667857D01*
X16492857Y-28667857D01*
X16492857Y-28096428D01*
X17692857Y-26896428D02*
X17121429Y-27296428D01*
X17692857Y-27582143D02*
X16492857Y-27582143D01*
X16492857Y-27125000D01*
X16550000Y-27010714D01*
X16607143Y-26953571D01*
X16721429Y-26896428D01*
X16892857Y-26896428D01*
X17007143Y-26953571D01*
X17064286Y-27010714D01*
X17121429Y-27125000D01*
X17121429Y-27582143D01*
X16492857Y-26496428D02*
X16492857Y-25753571D01*
X16950000Y-26153571D01*
X16950000Y-25982143D01*
X17007143Y-25867857D01*
X17064286Y-25810714D01*
X17178571Y-25753571D01*
X17464286Y-25753571D01*
X17578571Y-25810714D01*
X17635714Y-25867857D01*
X17692857Y-25982143D01*
X17692857Y-26325000D01*
X17635714Y-26439286D01*
X17578571Y-26496428D01*
X13367857Y-36739284D02*
X13710714Y-37653570D01*
X14053571Y-36739284D01*
X13710714Y-36167856D02*
X13710714Y-35253570D01*
X14167857Y-33767856D02*
X12967857Y-33767856D01*
X12967857Y-33310713D01*
X13025000Y-33196427D01*
X13082143Y-33139284D01*
X13196429Y-33082141D01*
X13367857Y-33082141D01*
X13482143Y-33139284D01*
X13539286Y-33196427D01*
X13596429Y-33310713D01*
X13596429Y-33767856D01*
X14167857Y-32396427D02*
X14110714Y-32510713D01*
X14053571Y-32567856D01*
X13939286Y-32624999D01*
X13596429Y-32624999D01*
X13482143Y-32567856D01*
X13425000Y-32510713D01*
X13367857Y-32396427D01*
X13367857Y-32224999D01*
X13425000Y-32110713D01*
X13482143Y-32053570D01*
X13596429Y-31996427D01*
X13939286Y-31996427D01*
X14053571Y-32053570D01*
X14110714Y-32110713D01*
X14167857Y-32224999D01*
X14167857Y-32396427D01*
X13367857Y-31596427D02*
X14167857Y-31367856D01*
X13596429Y-31139285D01*
X14167857Y-30910713D01*
X13367857Y-30682142D01*
X14110714Y-29767856D02*
X14167857Y-29882142D01*
X14167857Y-30110713D01*
X14110714Y-30224999D01*
X13996429Y-30282142D01*
X13539286Y-30282142D01*
X13425000Y-30224999D01*
X13367857Y-30110713D01*
X13367857Y-29882142D01*
X13425000Y-29767856D01*
X13539286Y-29710713D01*
X13653571Y-29710713D01*
X13767857Y-30282142D01*
X14167857Y-29196428D02*
X13367857Y-29196428D01*
X13596429Y-29196428D02*
X13482143Y-29139285D01*
X13425000Y-29082142D01*
X13367857Y-28967856D01*
X13367857Y-28853571D01*
X13367857Y-27710713D02*
X13367857Y-27253570D01*
X14167857Y-27539285D02*
X13139286Y-27539285D01*
X13025000Y-27482142D01*
X12967857Y-27367856D01*
X12967857Y-27253570D01*
X14167857Y-26853571D02*
X13367857Y-26853571D01*
X13596429Y-26853571D02*
X13482143Y-26796428D01*
X13425000Y-26739285D01*
X13367857Y-26624999D01*
X13367857Y-26510714D01*
X14167857Y-25939285D02*
X14110714Y-26053571D01*
X14053571Y-26110714D01*
X13939286Y-26167857D01*
X13596429Y-26167857D01*
X13482143Y-26110714D01*
X13425000Y-26053571D01*
X13367857Y-25939285D01*
X13367857Y-25767857D01*
X13425000Y-25653571D01*
X13482143Y-25596428D01*
X13596429Y-25539285D01*
X13939286Y-25539285D01*
X14053571Y-25596428D01*
X14110714Y-25653571D01*
X14167857Y-25767857D01*
X14167857Y-25939285D01*
X14167857Y-25025000D02*
X13367857Y-25025000D01*
X13482143Y-25025000D02*
X13425000Y-24967857D01*
X13367857Y-24853571D01*
X13367857Y-24682143D01*
X13425000Y-24567857D01*
X13539286Y-24510714D01*
X14167857Y-24510714D01*
X13539286Y-24510714D02*
X13425000Y-24453571D01*
X13367857Y-24339285D01*
X13367857Y-24167857D01*
X13425000Y-24053571D01*
X13539286Y-23996428D01*
X14167857Y-23996428D01*
X13825000Y-22567857D02*
X13825000Y-21996428D01*
X14167857Y-22682142D02*
X12967857Y-22282142D01*
X14167857Y-21882142D01*
X14167857Y-21482143D02*
X13367857Y-21482143D01*
X13596429Y-21482143D02*
X13482143Y-21425000D01*
X13425000Y-21367857D01*
X13367857Y-21253571D01*
X13367857Y-21139286D01*
X14167857Y-20225000D02*
X12967857Y-20225000D01*
X14110714Y-20225000D02*
X14167857Y-20339286D01*
X14167857Y-20567857D01*
X14110714Y-20682143D01*
X14053571Y-20739286D01*
X13939286Y-20796429D01*
X13596429Y-20796429D01*
X13482143Y-20739286D01*
X13425000Y-20682143D01*
X13367857Y-20567857D01*
X13367857Y-20339286D01*
X13425000Y-20225000D01*
X13367857Y-19139286D02*
X14167857Y-19139286D01*
X13367857Y-19653572D02*
X13996429Y-19653572D01*
X14110714Y-19596429D01*
X14167857Y-19482143D01*
X14167857Y-19310715D01*
X14110714Y-19196429D01*
X14053571Y-19139286D01*
X14167857Y-18567858D02*
X13367857Y-18567858D01*
X12967857Y-18567858D02*
X13025000Y-18625001D01*
X13082143Y-18567858D01*
X13025000Y-18510715D01*
X12967857Y-18567858D01*
X13082143Y-18567858D01*
X13367857Y-17996429D02*
X14167857Y-17996429D01*
X13482143Y-17996429D02*
X13425000Y-17939286D01*
X13367857Y-17825000D01*
X13367857Y-17653572D01*
X13425000Y-17539286D01*
X13539286Y-17482143D01*
X14167857Y-17482143D01*
X14167857Y-16739286D02*
X14110714Y-16853572D01*
X14053571Y-16910715D01*
X13939286Y-16967858D01*
X13596429Y-16967858D01*
X13482143Y-16910715D01*
X13425000Y-16853572D01*
X13367857Y-16739286D01*
X13367857Y-16567858D01*
X13425000Y-16453572D01*
X13482143Y-16396429D01*
X13596429Y-16339286D01*
X13939286Y-16339286D01*
X14053571Y-16396429D01*
X14110714Y-16453572D01*
X14167857Y-16567858D01*
X14167857Y-16739286D01*
D12*
X54440000Y-24625000D02*
X53805000Y-25260000D01*
X62060000Y-24625000D02*
X62695000Y-25260000D01*
X62060000Y-5575000D02*
X62695000Y-4940000D01*
X54440000Y-5575000D02*
X53805000Y-4940000D01*
X62695000Y-13195000D02*
X62060000Y-13195000D01*
X62060000Y-13195000D02*
X62060000Y-5575000D01*
X62060000Y-5575000D02*
X54440000Y-5575000D01*
X54440000Y-5575000D02*
X54440000Y-24625000D01*
X54440000Y-24625000D02*
X62060000Y-24625000D01*
X62060000Y-24625000D02*
X62060000Y-17005000D01*
X62060000Y-17005000D02*
X62695000Y-17005000D01*
X62695000Y-25260000D02*
X62695000Y-4940000D01*
X53805000Y-4940000D02*
X53805000Y-25260000D01*
X53805000Y-25260000D02*
X62695000Y-25260000D01*
X53805000Y-4940000D02*
X62695000Y-4940000D01*
X60218500Y-22598080D02*
X61287840Y-21899580D01*
X61287840Y-21899580D02*
X60218500Y-21198540D01*
X60218500Y-21198540D02*
X60218500Y-22598080D01*
X54390000Y-46525000D02*
X53755000Y-47160000D01*
X62010000Y-46525000D02*
X62645000Y-47160000D01*
X62010000Y-27475000D02*
X62645000Y-26840000D01*
X54390000Y-27475000D02*
X53755000Y-26840000D01*
X62645000Y-35095000D02*
X62010000Y-35095000D01*
X62010000Y-35095000D02*
X62010000Y-27475000D01*
X62010000Y-27475000D02*
X54390000Y-27475000D01*
X54390000Y-27475000D02*
X54390000Y-46525000D01*
X54390000Y-46525000D02*
X62010000Y-46525000D01*
X62010000Y-46525000D02*
X62010000Y-38905000D01*
X62010000Y-38905000D02*
X62645000Y-38905000D01*
X62645000Y-47160000D02*
X62645000Y-26840000D01*
X53755000Y-26840000D02*
X53755000Y-47160000D01*
X53755000Y-47160000D02*
X62645000Y-47160000D01*
X53755000Y-26840000D02*
X62645000Y-26840000D01*
X60168500Y-44498080D02*
X61237840Y-43799580D01*
X61237840Y-43799580D02*
X60168500Y-43098540D01*
X60168500Y-43098540D02*
X60168500Y-44498080D01*
X72490000Y-46725000D02*
X71855000Y-47360000D01*
X80110000Y-46725000D02*
X80745000Y-47360000D01*
X80110000Y-27675000D02*
X80745000Y-27040000D01*
X72490000Y-27675000D02*
X71855000Y-27040000D01*
X80745000Y-35295000D02*
X80110000Y-35295000D01*
X80110000Y-35295000D02*
X80110000Y-27675000D01*
X80110000Y-27675000D02*
X72490000Y-27675000D01*
X72490000Y-27675000D02*
X72490000Y-46725000D01*
X72490000Y-46725000D02*
X80110000Y-46725000D01*
X80110000Y-46725000D02*
X80110000Y-39105000D01*
X80110000Y-39105000D02*
X80745000Y-39105000D01*
X80745000Y-47360000D02*
X80745000Y-27040000D01*
X71855000Y-27040000D02*
X71855000Y-47360000D01*
X71855000Y-47360000D02*
X80745000Y-47360000D01*
X71855000Y-27040000D02*
X80745000Y-27040000D01*
X78268500Y-44698080D02*
X79337840Y-43999580D01*
X79337840Y-43999580D02*
X78268500Y-43298540D01*
X78268500Y-43298540D02*
X78268500Y-44698080D01*
D11*
X78200000Y-5800000D02*
X78200000Y-5400000D01*
X78200000Y-5400000D02*
X79600000Y-5400000D01*
X78200000Y-6700000D02*
X79600000Y-6700000D01*
X78200000Y-6700000D02*
X78200000Y-5500000D01*
X78200000Y-2900000D02*
X79600000Y-2900000D01*
X78200000Y-4300000D02*
X78200000Y-2900000D01*
X78200000Y-4300000D02*
X79600000Y-4300000D01*
X79600000Y-4700000D02*
X79600000Y-2100000D01*
X79600000Y-2100000D02*
X76300000Y-2100000D01*
X73900000Y-4700000D02*
X73900000Y-2100000D01*
X73000000Y-4700000D02*
X73000000Y-2100000D01*
X76300000Y-2100000D02*
X73000000Y-2100000D01*
X73900000Y-12600000D02*
X73900000Y-4700000D01*
X78200000Y-9400000D02*
X78200000Y-7900000D01*
X78200000Y-7900000D02*
X79600000Y-7900000D01*
X78200000Y-9400000D02*
X79600000Y-9400000D01*
X79600000Y-11800000D02*
X78200000Y-11800000D01*
X78200000Y-11800000D02*
X78200000Y-10500000D01*
X78200000Y-10500000D02*
X79600000Y-10500000D01*
X79600000Y-4700000D02*
X79600000Y-12600000D01*
X79600000Y-12600000D02*
X76300000Y-12600000D01*
X73000000Y-8600000D02*
X73000000Y-4700000D01*
X73000000Y-12600000D02*
X74600000Y-12600000D01*
X73000000Y-8600000D02*
X73000000Y-12600000D01*
X76300000Y-12600000D02*
X74600000Y-12600000D01*
X78200000Y-18300000D02*
X78200000Y-17900000D01*
X78200000Y-17900000D02*
X79600000Y-17900000D01*
X78200000Y-19200000D02*
X79600000Y-19200000D01*
X78200000Y-19200000D02*
X78200000Y-18000000D01*
X78200000Y-15400000D02*
X79600000Y-15400000D01*
X78200000Y-16800000D02*
X78200000Y-15400000D01*
X78200000Y-16800000D02*
X79600000Y-16800000D01*
X79600000Y-17200000D02*
X79600000Y-14600000D01*
X79600000Y-14600000D02*
X76300000Y-14600000D01*
X73900000Y-17200000D02*
X73900000Y-14600000D01*
X73000000Y-17200000D02*
X73000000Y-14600000D01*
X76300000Y-14600000D02*
X73000000Y-14600000D01*
X73900000Y-25100000D02*
X73900000Y-17200000D01*
X78200000Y-21900000D02*
X78200000Y-20400000D01*
X78200000Y-20400000D02*
X79600000Y-20400000D01*
X78200000Y-21900000D02*
X79600000Y-21900000D01*
X79600000Y-24300000D02*
X78200000Y-24300000D01*
X78200000Y-24300000D02*
X78200000Y-23000000D01*
X78200000Y-23000000D02*
X79600000Y-23000000D01*
X79600000Y-17200000D02*
X79600000Y-25100000D01*
X79600000Y-25100000D02*
X76300000Y-25100000D01*
X73000000Y-21100000D02*
X73000000Y-17200000D01*
X73000000Y-25100000D02*
X74600000Y-25100000D01*
X73000000Y-21100000D02*
X73000000Y-25100000D01*
X76300000Y-25100000D02*
X74600000Y-25100000D01*
D12*
X68400000Y-13975000D02*
X67400000Y-13975000D01*
X67400000Y-12625000D02*
X68400000Y-12625000D01*
X68400000Y-11425000D02*
X67400000Y-11425000D01*
X67400000Y-10075000D02*
X68400000Y-10075000D01*
X68400000Y-8925000D02*
X67400000Y-8925000D01*
X67400000Y-7575000D02*
X68400000Y-7575000D01*
X68400000Y-6425000D02*
X67400000Y-6425000D01*
X67400000Y-5075000D02*
X68400000Y-5075000D01*
D11*
X175000Y-46475000D02*
X175000Y-9875000D01*
X52175000Y-38475000D02*
X52175000Y-17875000D01*
X43175000Y-21875000D02*
X43175000Y-17975000D01*
X43175000Y-17975000D02*
X43175000Y-17875000D01*
X43175000Y-17875000D02*
X46675000Y-17875000D01*
X43175000Y-33275000D02*
X43175000Y-38475000D01*
X43175000Y-38475000D02*
X44675000Y-38475000D01*
X46475000Y-38475000D02*
X52175000Y-38475000D01*
X46675000Y-17875000D02*
X52175000Y-17875000D01*
X46475000Y-38475000D02*
X44675000Y-38475000D01*
X43175000Y-33275000D02*
X43175000Y-21875000D01*
X175000Y-21375000D02*
X11675000Y-21375000D01*
X175000Y-34975000D02*
X11675000Y-34975000D01*
X11675000Y-46475000D02*
X11675000Y-9875000D01*
X11675000Y-9875000D02*
X175000Y-9875000D01*
X11675000Y-46475000D02*
X175000Y-46475000D01*
X8805000Y-4255000D02*
X41825000Y-4255000D01*
X11345000Y-9335000D02*
X41825000Y-9335000D01*
X41825000Y-4255000D02*
X41825000Y-9335000D01*
X8805000Y-4255000D02*
X8805000Y-6795000D01*
X10075000Y-9615000D02*
X8525000Y-9615000D01*
X8805000Y-6795000D02*
X11345000Y-6795000D01*
X11345000Y-6795000D02*
X11345000Y-9335000D01*
X8525000Y-9615000D02*
X8525000Y-8065000D01*
X16542857Y-41900000D02*
X17400000Y-41900000D01*
X17571429Y-41957142D01*
X17685714Y-42071428D01*
X17742857Y-42242857D01*
X17742857Y-42357142D01*
X17742857Y-40699999D02*
X17742857Y-41385714D01*
X17742857Y-41042856D02*
X16542857Y-41042856D01*
X16714286Y-41157142D01*
X16828571Y-41271428D01*
X16885714Y-41385714D01*
X23867857Y-41900000D02*
X24725000Y-41900000D01*
X24896429Y-41957142D01*
X25010714Y-42071428D01*
X25067857Y-42242857D01*
X25067857Y-42357142D01*
X23982143Y-41385714D02*
X23925000Y-41328571D01*
X23867857Y-41214285D01*
X23867857Y-40928571D01*
X23925000Y-40814285D01*
X23982143Y-40757142D01*
X24096429Y-40699999D01*
X24210714Y-40699999D01*
X24382143Y-40757142D01*
X25067857Y-41442856D01*
X25067857Y-40699999D01*
X20392857Y-41900000D02*
X21250000Y-41900000D01*
X21421429Y-41957142D01*
X21535714Y-42071428D01*
X21592857Y-42242857D01*
X21592857Y-42357142D01*
X20392857Y-41442856D02*
X20392857Y-40699999D01*
X20850000Y-41099999D01*
X20850000Y-40928571D01*
X20907143Y-40814285D01*
X20964286Y-40757142D01*
X21078571Y-40699999D01*
X21364286Y-40699999D01*
X21478571Y-40757142D01*
X21535714Y-40814285D01*
X21592857Y-40928571D01*
X21592857Y-41271428D01*
X21535714Y-41385714D01*
X21478571Y-41442856D01*
X27542857Y-41900000D02*
X28400000Y-41900000D01*
X28571429Y-41957142D01*
X28685714Y-42071428D01*
X28742857Y-42242857D01*
X28742857Y-42357142D01*
X27942857Y-40814285D02*
X28742857Y-40814285D01*
X27485714Y-41099999D02*
X28342857Y-41385714D01*
X28342857Y-40642856D01*
X31217857Y-41850000D02*
X32075000Y-41850000D01*
X32246429Y-41907142D01*
X32360714Y-42021428D01*
X32417857Y-42192857D01*
X32417857Y-42307142D01*
X31217857Y-40707142D02*
X31217857Y-41278571D01*
X31789286Y-41335714D01*
X31732143Y-41278571D01*
X31675000Y-41164285D01*
X31675000Y-40878571D01*
X31732143Y-40764285D01*
X31789286Y-40707142D01*
X31903571Y-40649999D01*
X32189286Y-40649999D01*
X32303571Y-40707142D01*
X32360714Y-40764285D01*
X32417857Y-40878571D01*
X32417857Y-41164285D01*
X32360714Y-41278571D01*
X32303571Y-41335714D01*
X35217857Y-41925000D02*
X36075000Y-41925000D01*
X36246429Y-41982142D01*
X36360714Y-42096428D01*
X36417857Y-42267857D01*
X36417857Y-42382142D01*
X35217857Y-41467856D02*
X35217857Y-40667856D01*
X36417857Y-41182142D01*
X13117857Y-41900000D02*
X13975000Y-41900000D01*
X14146429Y-41957142D01*
X14260714Y-42071428D01*
X14317857Y-42242857D01*
X14317857Y-42357142D01*
X14317857Y-41271428D02*
X14317857Y-41042856D01*
X14260714Y-40928571D01*
X14203571Y-40871428D01*
X14032143Y-40757142D01*
X13803571Y-40699999D01*
X13346429Y-40699999D01*
X13232143Y-40757142D01*
X13175000Y-40814285D01*
X13117857Y-40928571D01*
X13117857Y-41157142D01*
X13175000Y-41271428D01*
X13232143Y-41328571D01*
X13346429Y-41385714D01*
X13632143Y-41385714D01*
X13746429Y-41328571D01*
X13803571Y-41271428D01*
X13860714Y-41157142D01*
X13860714Y-40928571D01*
X13803571Y-40814285D01*
X13746429Y-40757142D01*
X13632143Y-40699999D01*
X53228571Y-7457142D02*
X51728571Y-7457142D01*
X51728571Y-6885714D01*
X51800000Y-6742856D01*
X51871429Y-6671428D01*
X52014286Y-6599999D01*
X52228571Y-6599999D01*
X52371429Y-6671428D01*
X52442857Y-6742856D01*
X52514286Y-6885714D01*
X52514286Y-7457142D01*
X51728571Y-6099999D02*
X51728571Y-5171428D01*
X52300000Y-5671428D01*
X52300000Y-5457142D01*
X52371429Y-5314285D01*
X52442857Y-5242856D01*
X52585714Y-5171428D01*
X52942857Y-5171428D01*
X53085714Y-5242856D01*
X53157143Y-5314285D01*
X53228571Y-5457142D01*
X53228571Y-5885714D01*
X53157143Y-6028571D01*
X53085714Y-6099999D01*
X53278571Y-47057142D02*
X51778571Y-47057142D01*
X51778571Y-46485714D01*
X51850000Y-46342856D01*
X51921429Y-46271428D01*
X52064286Y-46199999D01*
X52278571Y-46199999D01*
X52421429Y-46271428D01*
X52492857Y-46342856D01*
X52564286Y-46485714D01*
X52564286Y-47057142D01*
X52278571Y-44914285D02*
X53278571Y-44914285D01*
X51707143Y-45271428D02*
X52778571Y-45628571D01*
X52778571Y-44699999D01*
X71278571Y-47307142D02*
X69778571Y-47307142D01*
X69778571Y-46735714D01*
X69850000Y-46592856D01*
X69921429Y-46521428D01*
X70064286Y-46449999D01*
X70278571Y-46449999D01*
X70421429Y-46521428D01*
X70492857Y-46592856D01*
X70564286Y-46735714D01*
X70564286Y-47307142D01*
X69778571Y-45092856D02*
X69778571Y-45807142D01*
X70492857Y-45878571D01*
X70421429Y-45807142D01*
X70350000Y-45664285D01*
X70350000Y-45307142D01*
X70421429Y-45164285D01*
X70492857Y-45092856D01*
X70635714Y-45021428D01*
X70992857Y-45021428D01*
X71135714Y-45092856D01*
X71207143Y-45164285D01*
X71278571Y-45307142D01*
X71278571Y-45664285D01*
X71207143Y-45807142D01*
X71135714Y-45878571D01*
X75364286Y-1592857D02*
X75364286Y-392857D01*
X75821429Y-392857D01*
X75935715Y-450000D01*
X75992858Y-507143D01*
X76050001Y-621429D01*
X76050001Y-792857D01*
X75992858Y-907143D01*
X75935715Y-964286D01*
X75821429Y-1021429D01*
X75364286Y-1021429D01*
X77078572Y-392857D02*
X76850001Y-392857D01*
X76735715Y-450000D01*
X76678572Y-507143D01*
X76564286Y-678571D01*
X76507143Y-907143D01*
X76507143Y-1364286D01*
X76564286Y-1478571D01*
X76621429Y-1535714D01*
X76735715Y-1592857D01*
X76964286Y-1592857D01*
X77078572Y-1535714D01*
X77135715Y-1478571D01*
X77192858Y-1364286D01*
X77192858Y-1078571D01*
X77135715Y-964286D01*
X77078572Y-907143D01*
X76964286Y-850000D01*
X76735715Y-850000D01*
X76621429Y-907143D01*
X76564286Y-964286D01*
X76507143Y-1078571D01*
X75364286Y-26742857D02*
X75364286Y-25542857D01*
X75821429Y-25542857D01*
X75935715Y-25600000D01*
X75992858Y-25657143D01*
X76050001Y-25771429D01*
X76050001Y-25942857D01*
X75992858Y-26057143D01*
X75935715Y-26114286D01*
X75821429Y-26171429D01*
X75364286Y-26171429D01*
X76450001Y-25542857D02*
X77250001Y-25542857D01*
X76735715Y-26742857D01*
X64050001Y-13978571D02*
X63550001Y-13264286D01*
X63192858Y-13978571D02*
X63192858Y-12478571D01*
X63764286Y-12478571D01*
X63907144Y-12550000D01*
X63978572Y-12621429D01*
X64050001Y-12764286D01*
X64050001Y-12978571D01*
X63978572Y-13121429D01*
X63907144Y-13192857D01*
X63764286Y-13264286D01*
X63192858Y-13264286D01*
X65478572Y-13978571D02*
X64621429Y-13978571D01*
X65050001Y-13978571D02*
X65050001Y-12478571D01*
X64907144Y-12692857D01*
X64764286Y-12835714D01*
X64621429Y-12907143D01*
X64000001Y-11428571D02*
X63500001Y-10714286D01*
X63142858Y-11428571D02*
X63142858Y-9928571D01*
X63714286Y-9928571D01*
X63857144Y-10000000D01*
X63928572Y-10071429D01*
X64000001Y-10214286D01*
X64000001Y-10428571D01*
X63928572Y-10571429D01*
X63857144Y-10642857D01*
X63714286Y-10714286D01*
X63142858Y-10714286D01*
X64571429Y-10071429D02*
X64642858Y-10000000D01*
X64785715Y-9928571D01*
X65142858Y-9928571D01*
X65285715Y-10000000D01*
X65357144Y-10071429D01*
X65428572Y-10214286D01*
X65428572Y-10357143D01*
X65357144Y-10571429D01*
X64500001Y-11428571D01*
X65428572Y-11428571D01*
X64000001Y-8928571D02*
X63500001Y-8214286D01*
X63142858Y-8928571D02*
X63142858Y-7428571D01*
X63714286Y-7428571D01*
X63857144Y-7500000D01*
X63928572Y-7571429D01*
X64000001Y-7714286D01*
X64000001Y-7928571D01*
X63928572Y-8071429D01*
X63857144Y-8142857D01*
X63714286Y-8214286D01*
X63142858Y-8214286D01*
X64500001Y-7428571D02*
X65428572Y-7428571D01*
X64928572Y-8000000D01*
X65142858Y-8000000D01*
X65285715Y-8071429D01*
X65357144Y-8142857D01*
X65428572Y-8285714D01*
X65428572Y-8642857D01*
X65357144Y-8785714D01*
X65285715Y-8857143D01*
X65142858Y-8928571D01*
X64714286Y-8928571D01*
X64571429Y-8857143D01*
X64500001Y-8785714D01*
X63950001Y-6378571D02*
X63450001Y-5664286D01*
X63092858Y-6378571D02*
X63092858Y-4878571D01*
X63664286Y-4878571D01*
X63807144Y-4950000D01*
X63878572Y-5021429D01*
X63950001Y-5164286D01*
X63950001Y-5378571D01*
X63878572Y-5521429D01*
X63807144Y-5592857D01*
X63664286Y-5664286D01*
X63092858Y-5664286D01*
X65235715Y-5378571D02*
X65235715Y-6378571D01*
X64878572Y-4807143D02*
X64521429Y-5878571D01*
X65450001Y-5878571D01*
X7878571Y-9307142D02*
X6378571Y-9307142D01*
X6378571Y-8735714D01*
X6450000Y-8592856D01*
X6521429Y-8521428D01*
X6664286Y-8449999D01*
X6878571Y-8449999D01*
X7021429Y-8521428D01*
X7092857Y-8592856D01*
X7164286Y-8735714D01*
X7164286Y-9307142D01*
X6521429Y-7878571D02*
X6450000Y-7807142D01*
X6378571Y-7664285D01*
X6378571Y-7307142D01*
X6450000Y-7164285D01*
X6521429Y-7092856D01*
X6664286Y-7021428D01*
X6807143Y-7021428D01*
X7021429Y-7092856D01*
X7878571Y-7949999D01*
X7878571Y-7021428D01*
X49310714Y-32853571D02*
X49382143Y-32925000D01*
X49453571Y-33139286D01*
X49453571Y-33282143D01*
X49382143Y-33496428D01*
X49239286Y-33639286D01*
X49096429Y-33710714D01*
X48810714Y-33782143D01*
X48596429Y-33782143D01*
X48310714Y-33710714D01*
X48167857Y-33639286D01*
X48025000Y-33496428D01*
X47953571Y-33282143D01*
X47953571Y-33139286D01*
X48025000Y-32925000D01*
X48096429Y-32853571D01*
X49453571Y-31996428D02*
X49382143Y-32139286D01*
X49310714Y-32210714D01*
X49167857Y-32282143D01*
X48739286Y-32282143D01*
X48596429Y-32210714D01*
X48525000Y-32139286D01*
X48453571Y-31996428D01*
X48453571Y-31782143D01*
X48525000Y-31639286D01*
X48596429Y-31567857D01*
X48739286Y-31496428D01*
X49167857Y-31496428D01*
X49310714Y-31567857D01*
X49382143Y-31639286D01*
X49453571Y-31782143D01*
X49453571Y-31996428D01*
X48453571Y-30853571D02*
X49453571Y-30853571D01*
X48596429Y-30853571D02*
X48525000Y-30782143D01*
X48453571Y-30639285D01*
X48453571Y-30425000D01*
X48525000Y-30282143D01*
X48667857Y-30210714D01*
X49453571Y-30210714D01*
X48453571Y-29496428D02*
X49453571Y-29496428D01*
X48596429Y-29496428D02*
X48525000Y-29425000D01*
X48453571Y-29282142D01*
X48453571Y-29067857D01*
X48525000Y-28925000D01*
X48667857Y-28853571D01*
X49453571Y-28853571D01*
X49382143Y-27567857D02*
X49453571Y-27710714D01*
X49453571Y-27996428D01*
X49382143Y-28139285D01*
X49239286Y-28210714D01*
X48667857Y-28210714D01*
X48525000Y-28139285D01*
X48453571Y-27996428D01*
X48453571Y-27710714D01*
X48525000Y-27567857D01*
X48667857Y-27496428D01*
X48810714Y-27496428D01*
X48953571Y-28210714D01*
X49382143Y-26210714D02*
X49453571Y-26353571D01*
X49453571Y-26639285D01*
X49382143Y-26782143D01*
X49310714Y-26853571D01*
X49167857Y-26925000D01*
X48739286Y-26925000D01*
X48596429Y-26853571D01*
X48525000Y-26782143D01*
X48453571Y-26639285D01*
X48453571Y-26353571D01*
X48525000Y-26210714D01*
X48453571Y-25782143D02*
X48453571Y-25210714D01*
X47953571Y-25567857D02*
X49239286Y-25567857D01*
X49382143Y-25496429D01*
X49453571Y-25353571D01*
X49453571Y-25210714D01*
X49453571Y-24496428D02*
X49382143Y-24639286D01*
X49310714Y-24710714D01*
X49167857Y-24782143D01*
X48739286Y-24782143D01*
X48596429Y-24710714D01*
X48525000Y-24639286D01*
X48453571Y-24496428D01*
X48453571Y-24282143D01*
X48525000Y-24139286D01*
X48596429Y-24067857D01*
X48739286Y-23996428D01*
X49167857Y-23996428D01*
X49310714Y-24067857D01*
X49382143Y-24139286D01*
X49453571Y-24282143D01*
X49453571Y-24496428D01*
X49453571Y-23353571D02*
X48453571Y-23353571D01*
X48739286Y-23353571D02*
X48596429Y-23282143D01*
X48525000Y-23210714D01*
X48453571Y-23067857D01*
X48453571Y-22925000D01*
X46882143Y-36060713D02*
X46953571Y-35846427D01*
X46953571Y-35489284D01*
X46882143Y-35346427D01*
X46810714Y-35274998D01*
X46667857Y-35203570D01*
X46525000Y-35203570D01*
X46382143Y-35274998D01*
X46310714Y-35346427D01*
X46239286Y-35489284D01*
X46167857Y-35774998D01*
X46096429Y-35917856D01*
X46025000Y-35989284D01*
X45882143Y-36060713D01*
X45739286Y-36060713D01*
X45596429Y-35989284D01*
X45525000Y-35917856D01*
X45453571Y-35774998D01*
X45453571Y-35417856D01*
X45525000Y-35203570D01*
X45953571Y-34774999D02*
X45953571Y-34203570D01*
X45453571Y-34560713D02*
X46739286Y-34560713D01*
X46882143Y-34489285D01*
X46953571Y-34346427D01*
X46953571Y-34203570D01*
X46882143Y-33132142D02*
X46953571Y-33274999D01*
X46953571Y-33560713D01*
X46882143Y-33703570D01*
X46739286Y-33774999D01*
X46167857Y-33774999D01*
X46025000Y-33703570D01*
X45953571Y-33560713D01*
X45953571Y-33274999D01*
X46025000Y-33132142D01*
X46167857Y-33060713D01*
X46310714Y-33060713D01*
X46453571Y-33774999D01*
X45953571Y-32417856D02*
X47453571Y-32417856D01*
X46025000Y-32417856D02*
X45953571Y-32274999D01*
X45953571Y-31989285D01*
X46025000Y-31846428D01*
X46096429Y-31774999D01*
X46239286Y-31703570D01*
X46667857Y-31703570D01*
X46810714Y-31774999D01*
X46882143Y-31846428D01*
X46953571Y-31989285D01*
X46953571Y-32274999D01*
X46882143Y-32417856D01*
X45953571Y-31060713D02*
X47453571Y-31060713D01*
X46025000Y-31060713D02*
X45953571Y-30917856D01*
X45953571Y-30632142D01*
X46025000Y-30489285D01*
X46096429Y-30417856D01*
X46239286Y-30346427D01*
X46667857Y-30346427D01*
X46810714Y-30417856D01*
X46882143Y-30489285D01*
X46953571Y-30632142D01*
X46953571Y-30917856D01*
X46882143Y-31060713D01*
X46882143Y-29132142D02*
X46953571Y-29274999D01*
X46953571Y-29560713D01*
X46882143Y-29703570D01*
X46739286Y-29774999D01*
X46167857Y-29774999D01*
X46025000Y-29703570D01*
X45953571Y-29560713D01*
X45953571Y-29274999D01*
X46025000Y-29132142D01*
X46167857Y-29060713D01*
X46310714Y-29060713D01*
X46453571Y-29774999D01*
X46953571Y-28417856D02*
X45953571Y-28417856D01*
X46239286Y-28417856D02*
X46096429Y-28346428D01*
X46025000Y-28274999D01*
X45953571Y-28132142D01*
X45953571Y-27989285D01*
X46953571Y-26346428D02*
X45453571Y-26346428D01*
X45453571Y-25989285D01*
X45525000Y-25775000D01*
X45667857Y-25632142D01*
X45810714Y-25560714D01*
X46096429Y-25489285D01*
X46310714Y-25489285D01*
X46596429Y-25560714D01*
X46739286Y-25632142D01*
X46882143Y-25775000D01*
X46953571Y-25989285D01*
X46953571Y-26346428D01*
X46953571Y-24846428D02*
X45953571Y-24846428D01*
X46239286Y-24846428D02*
X46096429Y-24775000D01*
X46025000Y-24703571D01*
X45953571Y-24560714D01*
X45953571Y-24417857D01*
X46953571Y-23917857D02*
X45953571Y-23917857D01*
X45453571Y-23917857D02*
X45525000Y-23989286D01*
X45596429Y-23917857D01*
X45525000Y-23846429D01*
X45453571Y-23917857D01*
X45596429Y-23917857D01*
X45953571Y-23346428D02*
X46953571Y-22989285D01*
X45953571Y-22632143D01*
X46882143Y-21489286D02*
X46953571Y-21632143D01*
X46953571Y-21917857D01*
X46882143Y-22060714D01*
X46739286Y-22132143D01*
X46167857Y-22132143D01*
X46025000Y-22060714D01*
X45953571Y-21917857D01*
X45953571Y-21632143D01*
X46025000Y-21489286D01*
X46167857Y-21417857D01*
X46310714Y-21417857D01*
X46453571Y-22132143D01*
X46953571Y-20775000D02*
X45953571Y-20775000D01*
X46239286Y-20775000D02*
X46096429Y-20703572D01*
X46025000Y-20632143D01*
X45953571Y-20489286D01*
X45953571Y-20346429D01*
X5253571Y-17432142D02*
X5253571Y-16574999D01*
X6753571Y-17003570D02*
X5253571Y-17003570D01*
X5253571Y-16217856D02*
X6753571Y-15217856D01*
X5253571Y-15217856D02*
X6753571Y-16217856D01*
X5396429Y-14717857D02*
X5325000Y-14646428D01*
X5253571Y-14503571D01*
X5253571Y-14146428D01*
X5325000Y-14003571D01*
X5396429Y-13932142D01*
X5539286Y-13860714D01*
X5682143Y-13860714D01*
X5896429Y-13932142D01*
X6753571Y-14789285D01*
X6753571Y-13860714D01*
X6853571Y-28524999D02*
X6139286Y-29024999D01*
X6853571Y-29382142D02*
X5353571Y-29382142D01*
X5353571Y-28810714D01*
X5425000Y-28667856D01*
X5496429Y-28596428D01*
X5639286Y-28524999D01*
X5853571Y-28524999D01*
X5996429Y-28596428D01*
X6067857Y-28667856D01*
X6139286Y-28810714D01*
X6139286Y-29382142D01*
X5353571Y-28024999D02*
X6853571Y-27024999D01*
X5353571Y-27024999D02*
X6853571Y-28024999D01*
X5353571Y-42632142D02*
X5353571Y-41774999D01*
X6853571Y-42203570D02*
X5353571Y-42203570D01*
X5353571Y-41417856D02*
X6853571Y-40417856D01*
X5353571Y-40417856D02*
X6853571Y-41417856D01*
X6853571Y-39060714D02*
X6853571Y-39917857D01*
X6853571Y-39489285D02*
X5353571Y-39489285D01*
X5567857Y-39632142D01*
X5710714Y-39775000D01*
X5782143Y-39917857D01*
M02*
