M48
;DRILL file {KiCad 4.0.0-rc1-stable} date 31.5.2016 14:43:24
;FORMAT={2:4/ absolute / inch / suppress leading zeros}
FMAT,2
INCH,TZ
T1C0.020
T2C0.039
T3C0.039
T4C0.040
T5C0.125
%
G90
G05
M72
T1
X3193Y-9764
X5123Y-14350
X5898Y-6366
X6220Y-14459
X6689Y-7268
X6776Y-8520
X7717Y-4854
X9409Y-14104
X9559Y-10425
X10469Y-3772
X10705Y-11055
X11409Y-12016
X11555Y-16563
X11630Y-5209
X11697Y-8130
X11772Y-8937
X12382Y-4724
X13059Y-12272
X13476Y-3791
X13665Y-14575
X13740Y-4472
X14346Y-5571
X14587Y-11024
X14685Y-8780
X14819Y-5012
X15193Y-6705
X15205Y-6079
X15205Y-7331
X15217Y-9252
X15217Y-18425
X15248Y-9807
X15280Y-10559
X15967Y-13232
X16713Y-18425
X16752Y-14094
X16752Y-14705
X16799Y-10559
X16969Y-16575
X17244Y-5126
X17244Y-5638
X17402Y-9094
X17402Y-9807
X17559Y-7331
X17563Y-10492
X17598Y-6693
X17634Y-1622
X17766Y-5876
X17768Y-16681
X18217Y-11118
X18268Y-4732
X18760Y-3063
X18945Y-13614
X19516Y-13063
X19724Y-5433
X20142Y-15980
X20374Y-14843
X21831Y-6437
X21850Y-5433
X21850Y-11850
X22390Y-18181
X22980Y-13059
X23189Y-9921
X23335Y-11402
X23409Y-3063
X24370Y-5236
X24882Y-15472
X24980Y-13937
X25433Y-3945
X25591Y-3031
X25866Y-12677
X26063Y-10709
X26634Y-12177
X27165Y-1496
X27874Y-6142
X28110Y-2402
X28161Y-11909
X28268Y-9646
X28512Y-17386
X28976Y-2909
X29217Y-4965
X29646Y-11654
T2
X22413Y-12567
X22413Y-13567
X22413Y-14567
X22413Y-15567
X22413Y-16567
X22433Y-3945
X22433Y-4945
X22433Y-5945
X22433Y-6945
X22433Y-7945
X23413Y-12567
X23413Y-13567
X23413Y-14567
X23413Y-15567
X23413Y-16567
X23433Y-3945
X23433Y-4945
X23433Y-5945
X23433Y-6945
X23433Y-7945
X29539Y-12646
X29539Y-13646
X29539Y-14646
X29539Y-15646
X29539Y-16646
X30539Y-12646
X30539Y-13646
X30539Y-14646
X30539Y-15646
X30539Y-16646
T3
X30039Y-1417
X30039Y-2402
X30039Y-3386
X30039Y-4370
X30039Y-6339
X30039Y-7323
X30039Y-8307
X30039Y-9291
T4
X3967Y-2175
X3967Y-3175
X4967Y-2175
X4967Y-3175
X5967Y-2175
X5967Y-3175
X6967Y-2175
X6967Y-3175
X7676Y-986
X7967Y-2175
X7967Y-3175
X8676Y-986
X8967Y-2175
X8967Y-3175
X9676Y-986
X9967Y-2175
X9967Y-3175
X10676Y-986
X10967Y-2175
X10967Y-3175
X11276Y-19986
X11676Y-986
X11967Y-2175
X11967Y-3175
X12276Y-19986
X12676Y-986
X12967Y-2175
X12967Y-3175
X13276Y-19986
X13676Y-986
X13967Y-2175
X13967Y-3175
X14276Y-19986
X14676Y-986
X14967Y-2175
X14967Y-3175
X15276Y-19986
X15676Y-986
X15967Y-2175
X15967Y-3175
X16276Y-19986
X16676Y-986
X17276Y-19986
X18276Y-986
X18276Y-19986
X19276Y-986
X20276Y-986
X20276Y-19986
X21276Y-986
X21276Y-19986
X22276Y-986
X22276Y-19986
X23276Y-986
X23276Y-19986
X24276Y-986
X24276Y-19986
X25276Y-986
X25276Y-19986
T5
X1457Y-1183
X1457Y-19805
X26276Y-6986
X26276Y-17986
T0
M30
