G04 #@! TF.FileFunction,Copper,L1,Top,Signal*
%FSLAX46Y46*%
G04 Gerber Fmt 4.6, Leading zero omitted, Abs format (unit mm)*
G04 Created by KiCad (PCBNEW 4.0.0-rc1-stable) date 12.5.2016 9:55:17*
%MOMM*%
G01*
G04 APERTURE LIST*
%ADD10C,0.100000*%
%ADD11C,2.500000*%
%ADD12R,1.727200X1.727200*%
%ADD13O,1.727200X1.727200*%
%ADD14R,1.000000X1.500000*%
%ADD15O,1.524000X2.540000*%
%ADD16C,3.175000*%
%ADD17C,1.506220*%
%ADD18C,2.000000*%
%ADD19R,1.200000X0.900000*%
%ADD20R,0.300000X1.550000*%
%ADD21C,1.000000*%
%ADD22C,0.500000*%
%ADD23C,1.000000*%
%ADD24C,0.400000*%
%ADD25C,1.750000*%
%ADD26C,0.750000*%
%ADD27C,1.500000*%
G04 APERTURE END LIST*
D10*
D11*
X45175000Y-8275000D03*
X45175000Y-48075000D03*
D12*
X10075000Y-8065000D03*
D13*
X10075000Y-5525000D03*
X12615000Y-8065000D03*
X12615000Y-5525000D03*
X15155000Y-8065000D03*
X15155000Y-5525000D03*
X17695000Y-8065000D03*
X17695000Y-5525000D03*
X20235000Y-8065000D03*
X20235000Y-5525000D03*
X22775000Y-8065000D03*
X22775000Y-5525000D03*
X25315000Y-8065000D03*
X25315000Y-5525000D03*
X27855000Y-8065000D03*
X27855000Y-5525000D03*
X30395000Y-8065000D03*
X30395000Y-5525000D03*
X32935000Y-8065000D03*
X32935000Y-5525000D03*
X35475000Y-8065000D03*
X35475000Y-5525000D03*
X38015000Y-8065000D03*
X38015000Y-5525000D03*
X40555000Y-8065000D03*
X40555000Y-5525000D03*
D14*
X17962000Y-39350000D03*
X16600000Y-39350000D03*
X25287000Y-39350000D03*
X23925000Y-39350000D03*
X20288000Y-39350000D03*
X21650000Y-39350000D03*
X28937000Y-39350000D03*
X27575000Y-39350000D03*
X32637000Y-39325000D03*
X31275000Y-39325000D03*
X35088000Y-39350000D03*
X36450000Y-39350000D03*
X13013000Y-39350000D03*
X14375000Y-39350000D03*
D15*
X64201100Y-50763600D03*
X61661100Y-50763600D03*
X59121100Y-50763600D03*
X51501100Y-50763600D03*
X54041100Y-50763600D03*
X56581100Y-50763600D03*
X46421100Y-50763600D03*
X43881100Y-50763600D03*
X41341100Y-50763600D03*
X36261100Y-50763600D03*
X33721100Y-50763600D03*
X64201100Y-2503600D03*
X61661100Y-2503600D03*
X59121100Y-2503600D03*
X56581100Y-2503600D03*
X54041100Y-2503600D03*
X51501100Y-2503600D03*
X48961100Y-2503600D03*
X46421100Y-2503600D03*
X42357100Y-2503600D03*
X39817100Y-2503600D03*
X37277100Y-2503600D03*
X34737100Y-2503600D03*
X32197100Y-2503600D03*
X29657100Y-2503600D03*
X27117100Y-2503600D03*
X24577100Y-2503600D03*
X38801100Y-50763600D03*
D16*
X66741100Y-45683600D03*
X66741100Y-17743600D03*
X15941100Y-2503600D03*
X14671100Y-50763600D03*
D15*
X22037100Y-2503600D03*
X19497100Y-2503600D03*
X31181100Y-50763600D03*
X28641100Y-50763600D03*
D17*
X59520000Y-20180000D03*
X56980000Y-20180000D03*
X59520000Y-17640000D03*
X56980000Y-17640000D03*
X59520000Y-15100000D03*
X56980000Y-15100000D03*
X59520000Y-12560000D03*
X56980000Y-12560000D03*
X59520000Y-10020000D03*
X56980000Y-10020000D03*
X59470000Y-42080000D03*
X56930000Y-42080000D03*
X59470000Y-39540000D03*
X56930000Y-39540000D03*
X59470000Y-37000000D03*
X56930000Y-37000000D03*
X59470000Y-34460000D03*
X56930000Y-34460000D03*
X59470000Y-31920000D03*
X56930000Y-31920000D03*
X77570000Y-42280000D03*
X75030000Y-42280000D03*
X77570000Y-39740000D03*
X75030000Y-39740000D03*
X77570000Y-37200000D03*
X75030000Y-37200000D03*
X77570000Y-34660000D03*
X75030000Y-34660000D03*
X77570000Y-32120000D03*
X75030000Y-32120000D03*
D18*
X76300000Y-3600000D03*
X76300000Y-6100000D03*
X76300000Y-11100000D03*
X76300000Y-8600000D03*
X76300000Y-16100000D03*
X76300000Y-18600000D03*
X76300000Y-23600000D03*
X76300000Y-21100000D03*
D19*
X66800000Y-13300000D03*
X69000000Y-13300000D03*
X66800000Y-10750000D03*
X69000000Y-10750000D03*
X66800000Y-8250000D03*
X69000000Y-8250000D03*
X66800000Y-5750000D03*
X69000000Y-5750000D03*
D20*
X64900000Y-23300000D03*
X65550000Y-23300000D03*
X66200000Y-23300000D03*
X66850000Y-23300000D03*
X67500000Y-23300000D03*
X68150000Y-23300000D03*
X68800000Y-23300000D03*
X64900000Y-28900000D03*
X65550000Y-28900000D03*
X66200000Y-28900000D03*
X66850000Y-28900000D03*
X67500000Y-28900000D03*
X68150000Y-28900000D03*
X68800000Y-28900000D03*
D21*
X14980000Y-16170000D03*
X23900000Y-35825000D03*
X15800000Y-36725000D03*
X38650000Y-23500000D03*
X44200000Y-23100000D03*
X27190000Y-28080000D03*
X56870000Y-46180000D03*
X17210000Y-21640000D03*
X19600000Y-12330000D03*
X16990000Y-18460000D03*
X44200000Y-24910000D03*
X38730000Y-24910000D03*
X28980000Y-30520000D03*
X73600000Y-7390000D03*
X74210000Y-12610000D03*
X44790000Y-4120000D03*
X42670000Y-26820000D03*
X38810000Y-26820000D03*
X33170000Y-31170000D03*
X43100000Y-42100000D03*
X34900000Y-11360000D03*
X51160000Y-40590000D03*
X72420000Y-44160000D03*
X37050000Y-28000000D03*
X34710000Y-37020000D03*
X42550000Y-37350000D03*
X45130000Y-42370000D03*
X55500000Y-30100000D03*
X38650000Y-46800000D03*
X42450000Y-46800000D03*
X13013000Y-36450000D03*
X68800000Y-31900000D03*
X71000000Y-13300000D03*
X75300000Y-29600000D03*
X29350000Y-42070000D03*
X29710000Y-20650000D03*
X8110000Y-24800000D03*
X24280000Y-26480000D03*
X40555000Y-33610000D03*
X55500000Y-13800000D03*
X50100000Y-13800000D03*
X44600000Y-18620000D03*
X38620000Y-18620000D03*
X48120000Y-34580000D03*
X38590000Y-17030000D03*
X44700000Y-17000000D03*
X58370000Y-33170000D03*
X63450000Y-35400000D03*
X49570000Y-33180000D03*
X45125000Y-14925000D03*
X38620000Y-15440000D03*
X37640000Y-12730000D03*
X46400000Y-12020000D03*
X55450000Y-16350000D03*
X34230000Y-9630000D03*
X31450000Y-12000000D03*
X42550000Y-35800000D03*
X43800000Y-14320000D03*
X51750000Y-37700000D03*
X44610000Y-26650000D03*
X58900000Y-25200000D03*
X29900000Y-22700000D03*
X37300000Y-22300000D03*
X59270000Y-28960000D03*
X71530000Y-30250000D03*
X67650000Y-30930000D03*
X46270000Y-28240000D03*
X26590000Y-9580000D03*
X29540000Y-13230000D03*
X43800000Y-13020000D03*
X47650000Y-7780000D03*
X36440000Y-14150000D03*
X59460000Y-7780000D03*
X70800000Y-15600000D03*
X61900000Y-13300000D03*
X68450000Y-25850000D03*
X66460000Y-32250000D03*
X66750000Y-25650000D03*
X64800000Y-32260000D03*
X64800000Y-38300000D03*
X63650000Y-21150000D03*
D22*
X76300000Y-11100000D02*
X73620000Y-11100000D01*
X72570000Y-12150000D02*
X72570000Y-17080000D01*
X73620000Y-11100000D02*
X72570000Y-12150000D01*
X66355000Y-41295000D02*
X62555000Y-41295000D01*
X70100000Y-21750000D02*
X71900000Y-19950000D01*
X71900000Y-19950000D02*
X71900000Y-17750000D01*
X71900000Y-17750000D02*
X72570000Y-17080000D01*
X66355000Y-41295000D02*
X70100000Y-37550000D01*
X70100000Y-37550000D02*
X70100000Y-22100000D01*
X70100000Y-22100000D02*
X70100000Y-21750000D01*
X62555000Y-41295000D02*
X59121100Y-44728900D01*
X59121100Y-44728900D02*
X59121100Y-50763600D01*
X58521100Y-48500000D02*
X59150000Y-48500000D01*
X59150000Y-49071100D02*
X59121100Y-49100000D01*
X59121100Y-49100000D02*
X59121100Y-50763600D01*
X59150000Y-48500000D02*
X59150000Y-49071100D01*
X50125000Y-48500000D02*
X49525000Y-47900000D01*
X58521100Y-48500000D02*
X50125000Y-48500000D01*
X47300000Y-45675000D02*
X49525000Y-47900000D01*
X17962000Y-44037000D02*
X19600000Y-45675000D01*
X19600000Y-45675000D02*
X47300000Y-45675000D01*
X17962000Y-39350000D02*
X17962000Y-42987000D01*
X17962000Y-42987000D02*
X17962000Y-44037000D01*
X15800000Y-25370000D02*
X14980000Y-24550000D01*
X14980000Y-24550000D02*
X14980000Y-16170000D01*
X15800000Y-25370000D02*
X15800000Y-36725000D01*
X23925000Y-35850000D02*
X23925000Y-39350000D01*
D23*
X23925000Y-35850000D02*
X23900000Y-35825000D01*
D22*
X16600000Y-37525000D02*
X15800000Y-36725000D01*
X16600000Y-39350000D02*
X16600000Y-37525000D01*
X38650000Y-23500000D02*
X43800000Y-23500000D01*
X43800000Y-23500000D02*
X44200000Y-23100000D01*
X44170000Y-23070000D02*
X44200000Y-23100000D01*
X26025000Y-35575000D02*
X26025000Y-29245000D01*
X25287000Y-36313000D02*
X26025000Y-35575000D01*
X25287000Y-36313000D02*
X25287000Y-39350000D01*
X26025000Y-29245000D02*
X27190000Y-28080000D01*
X55200000Y-44510000D02*
X56870000Y-46180000D01*
X20288000Y-39350000D02*
X20288000Y-43198000D01*
X21600000Y-44510000D02*
X27690000Y-44510000D01*
X20288000Y-43198000D02*
X21600000Y-44510000D01*
X27690000Y-44510000D02*
X55200000Y-44510000D01*
X20288000Y-39350000D02*
X20288000Y-37998000D01*
X18700000Y-11990000D02*
X19040000Y-12330000D01*
D24*
X16860000Y-10150000D02*
X16430000Y-9720000D01*
X18100000Y-3230000D02*
X16430000Y-4900000D01*
D22*
X28930000Y-640000D02*
X29657100Y-1367100D01*
X28930000Y-640000D02*
X18750000Y-640000D01*
X18750000Y-640000D02*
X18100000Y-1290000D01*
X18100000Y-1290000D02*
X18100000Y-3160000D01*
X18100000Y-3160000D02*
X18100000Y-3230000D01*
D24*
X16430000Y-4900000D02*
X16430000Y-6320000D01*
X16430000Y-6320000D02*
X16430000Y-9720000D01*
D22*
X18700000Y-11990000D02*
X16860000Y-10150000D01*
X19040000Y-12330000D02*
X19600000Y-12330000D01*
X18670000Y-23100000D02*
X17210000Y-21640000D01*
X18670000Y-36380000D02*
X18670000Y-23100000D01*
X20288000Y-37998000D02*
X18670000Y-36380000D01*
X29657100Y-2503600D02*
X29657100Y-1367100D01*
X21650000Y-23120000D02*
X21650000Y-39350000D01*
X21650000Y-23120000D02*
X16990000Y-18460000D01*
X21650000Y-41925000D02*
X21650000Y-42600000D01*
X21650000Y-39350000D02*
X21650000Y-41925000D01*
X27575000Y-42525000D02*
X27575000Y-39350000D01*
X26700000Y-43400000D02*
X27575000Y-42525000D01*
X23125000Y-43400000D02*
X26700000Y-43400000D01*
X22450000Y-43400000D02*
X23125000Y-43400000D01*
X21650000Y-42600000D02*
X22450000Y-43400000D01*
X38730000Y-24910000D02*
X44200000Y-24910000D01*
X28937000Y-39350000D02*
X28937000Y-30563000D01*
X28937000Y-30563000D02*
X28980000Y-30520000D01*
X73600000Y-7390000D02*
X70140000Y-3930000D01*
X75510000Y-18600000D02*
X74210000Y-17300000D01*
X74210000Y-17300000D02*
X74210000Y-12610000D01*
X70140000Y-3930000D02*
X65750000Y-3930000D01*
X76300000Y-18600000D02*
X75510000Y-18600000D01*
X44790000Y-4120000D02*
X45600000Y-4930000D01*
X45600000Y-4930000D02*
X64750000Y-4930000D01*
X64750000Y-4930000D02*
X65750000Y-3930000D01*
X44790000Y-4120000D02*
X44820000Y-4120000D01*
X76300000Y-18600000D02*
X77450000Y-18600000D01*
X78960000Y-45700000D02*
X73010000Y-45700000D01*
X80910000Y-43750000D02*
X78960000Y-45700000D01*
X80910000Y-22060000D02*
X80910000Y-43750000D01*
X77450000Y-18600000D02*
X80910000Y-22060000D01*
X42670000Y-26820000D02*
X38810000Y-26820000D01*
X32637000Y-39325000D02*
X32637000Y-36783000D01*
X33170000Y-36250000D02*
X33170000Y-31170000D01*
X32637000Y-36783000D02*
X33170000Y-36250000D01*
X32230000Y-43030000D02*
X42170000Y-43030000D01*
X42190000Y-43030000D02*
X42190000Y-43010000D01*
X42170000Y-43030000D02*
X42190000Y-43030000D01*
X43100000Y-42100000D02*
X42190000Y-43010000D01*
X31275000Y-42075000D02*
X31275000Y-39325000D01*
X31275000Y-42075000D02*
X32230000Y-43030000D01*
X15700000Y-14300000D02*
X31275000Y-29875000D01*
X12615000Y-11215000D02*
X15700000Y-14300000D01*
X12615000Y-8065000D02*
X12615000Y-11215000D01*
X31275000Y-29875000D02*
X31275000Y-39325000D01*
X33200000Y-12280000D02*
X34120000Y-11360000D01*
X34120000Y-11360000D02*
X34900000Y-11360000D01*
X33200000Y-14400000D02*
X33200000Y-12280000D01*
X72420000Y-44160000D02*
X78330000Y-44160000D01*
X35088000Y-39350000D02*
X35088000Y-40828000D01*
X42220000Y-40590000D02*
X51160000Y-40590000D01*
X41190000Y-41620000D02*
X42220000Y-40590000D01*
X35880000Y-41620000D02*
X41190000Y-41620000D01*
X35088000Y-40828000D02*
X35880000Y-41620000D01*
X77930000Y-21100000D02*
X76300000Y-21100000D01*
X79500000Y-22670000D02*
X77930000Y-21100000D01*
X79500000Y-42990000D02*
X79500000Y-22670000D01*
X78330000Y-44160000D02*
X79500000Y-42990000D01*
X37050000Y-28000000D02*
X37050000Y-27700000D01*
X37050000Y-27700000D02*
X33200000Y-23850000D01*
X33200000Y-14400000D02*
X33200000Y-23850000D01*
X34710000Y-37020000D02*
X34710000Y-38972000D01*
X34710000Y-38972000D02*
X35088000Y-39350000D01*
X36450000Y-37350000D02*
X42550000Y-37350000D01*
X17375000Y-12850000D02*
X36450000Y-31925000D01*
X15155000Y-10630000D02*
X17375000Y-12850000D01*
X15155000Y-8065000D02*
X15155000Y-10630000D01*
X36450000Y-31925000D02*
X36450000Y-37350000D01*
X36450000Y-37350000D02*
X36450000Y-39350000D01*
D23*
X45130000Y-42370000D02*
X51690000Y-42370000D01*
X51690000Y-42370000D02*
X53550000Y-40510000D01*
X54800000Y-30800000D02*
X53550000Y-32050000D01*
X54800000Y-30800000D02*
X55500000Y-30100000D01*
X53550000Y-32050000D02*
X53550000Y-40510000D01*
X42450000Y-46800000D02*
X38650000Y-46800000D01*
D24*
X68800000Y-28900000D02*
X68800000Y-31900000D01*
D23*
X69000000Y-13300000D02*
X71000000Y-13300000D01*
X69000000Y-10750000D02*
X69000000Y-13300000D01*
X69000000Y-8250000D02*
X69000000Y-10750000D01*
X69000000Y-5750000D02*
X69000000Y-8250000D01*
X77570000Y-31870000D02*
X75300000Y-29600000D01*
X77570000Y-32120000D02*
X77570000Y-31870000D01*
X13013000Y-39350000D02*
X13013000Y-36450000D01*
X13013000Y-36450000D02*
X13013000Y-15438000D01*
X8600000Y-5525000D02*
X10075000Y-5525000D01*
X7675000Y-6450000D02*
X8600000Y-5525000D01*
X7675000Y-10100000D02*
X7675000Y-6450000D01*
X13013000Y-15438000D02*
X7675000Y-10100000D01*
D25*
X10075000Y-5525000D02*
X12615000Y-5525000D01*
D23*
X14375000Y-39350000D02*
X14375000Y-43975000D01*
X38801100Y-48951100D02*
X38801100Y-50763600D01*
X38000000Y-48150000D02*
X38801100Y-48951100D01*
X18550000Y-48150000D02*
X38000000Y-48150000D01*
X14375000Y-43975000D02*
X18550000Y-48150000D01*
X40555000Y-8065000D02*
X43190000Y-10700000D01*
X56300000Y-10700000D02*
X56980000Y-10020000D01*
X43190000Y-10700000D02*
X56300000Y-10700000D01*
D24*
X65850000Y-27550000D02*
X65850000Y-27250000D01*
X66150000Y-27250000D02*
X65850000Y-27250000D01*
X65850000Y-27250000D02*
X56980000Y-27250000D01*
X56980000Y-27250000D02*
X56930000Y-27200000D01*
X56930000Y-27200000D02*
X56800000Y-27200000D01*
X56800000Y-27200000D02*
X56980000Y-27200000D01*
X65850000Y-28900000D02*
X65850000Y-27550000D01*
X67850000Y-27500000D02*
X67850000Y-28900000D01*
X67600000Y-27250000D02*
X67850000Y-27500000D01*
X66150000Y-27250000D02*
X67600000Y-27250000D01*
X67500000Y-28900000D02*
X67850000Y-28900000D01*
X67850000Y-28900000D02*
X68150000Y-28900000D01*
X65550000Y-28900000D02*
X65850000Y-28900000D01*
X65850000Y-28900000D02*
X66200000Y-28900000D01*
X64900000Y-23300000D02*
X56980000Y-23300000D01*
X56980000Y-23300000D02*
X56900000Y-23300000D01*
X56900000Y-23300000D02*
X56980000Y-23300000D01*
D23*
X56980000Y-20180000D02*
X56980000Y-23300000D01*
X56980000Y-23300000D02*
X56980000Y-27200000D01*
X56980000Y-27200000D02*
X56980000Y-31870000D01*
X56980000Y-31870000D02*
X56930000Y-31920000D01*
X76300000Y-3600000D02*
X79300000Y-3600000D01*
X79800000Y-16100000D02*
X76300000Y-16100000D01*
X80500000Y-15400000D02*
X79800000Y-16100000D01*
X80500000Y-4800000D02*
X80500000Y-15400000D01*
X79300000Y-3600000D02*
X80500000Y-4800000D01*
X56980000Y-17640000D02*
X56980000Y-20180000D01*
X56980000Y-15100000D02*
X56980000Y-17640000D01*
X56980000Y-12560000D02*
X56980000Y-15100000D01*
X56980000Y-10020000D02*
X56980000Y-12560000D01*
X75030000Y-39740000D02*
X75030000Y-42280000D01*
X75030000Y-37200000D02*
X75030000Y-39740000D01*
X75030000Y-34660000D02*
X75030000Y-37200000D01*
X75030000Y-32120000D02*
X75030000Y-34660000D01*
X56930000Y-39540000D02*
X56930000Y-42080000D01*
X56930000Y-37000000D02*
X56930000Y-39540000D01*
X56930000Y-37000000D02*
X56930000Y-34460000D01*
X56930000Y-31920000D02*
X56930000Y-34460000D01*
D26*
X24280000Y-26480000D02*
X24280000Y-26390000D01*
X40555000Y-33610000D02*
X40570000Y-33610000D01*
D24*
X20235000Y-8065000D02*
X21500000Y-6800000D01*
X24040000Y-6800000D02*
X25315000Y-5525000D01*
X21500000Y-6800000D02*
X24040000Y-6800000D01*
D27*
X41341100Y-50763600D02*
X43881100Y-50763600D01*
D26*
X25315000Y-5525000D02*
X27117100Y-3722900D01*
X27117100Y-3722900D02*
X27117100Y-2503600D01*
D22*
X50100000Y-13800000D02*
X55500000Y-13800000D01*
X38620000Y-18620000D02*
X44600000Y-18620000D01*
X45680000Y-17000000D02*
X48120000Y-19440000D01*
X48120000Y-19440000D02*
X48120000Y-34580000D01*
X45680000Y-17000000D02*
X44700000Y-17000000D01*
X44670000Y-17030000D02*
X44700000Y-17000000D01*
X44370000Y-17030000D02*
X44670000Y-17030000D01*
X38590000Y-17030000D02*
X44370000Y-17030000D01*
X45125000Y-14925000D02*
X49570000Y-19370000D01*
X61220000Y-33170000D02*
X58370000Y-33170000D01*
X63450000Y-35400000D02*
X61220000Y-33170000D01*
X49570000Y-19370000D02*
X49570000Y-33180000D01*
X38620000Y-15440000D02*
X44610000Y-15440000D01*
X44610000Y-15440000D02*
X45125000Y-14925000D01*
X38620000Y-15440000D02*
X38810000Y-15440000D01*
X42395000Y-11845000D02*
X42570000Y-12020000D01*
X42570000Y-12020000D02*
X43880000Y-12020000D01*
X43880000Y-12020000D02*
X46400000Y-12020000D01*
X39870000Y-10500000D02*
X40910000Y-10500000D01*
X40910000Y-10500000D02*
X41050000Y-10500000D01*
X41050000Y-10500000D02*
X42395000Y-11845000D01*
X37640000Y-12730000D02*
X39870000Y-10500000D01*
D24*
X46400000Y-12020000D02*
X46400000Y-12210000D01*
X46400000Y-12210000D02*
X46400000Y-12020000D01*
X46400000Y-12020000D02*
X46400000Y-12210000D01*
X46400000Y-12210000D02*
X46710000Y-12210000D01*
D22*
X55400000Y-16400000D02*
X50900000Y-16400000D01*
X46710000Y-12210000D02*
X47400000Y-12900000D01*
X55450000Y-16350000D02*
X55400000Y-16400000D01*
X47400000Y-12900000D02*
X50900000Y-16400000D01*
D24*
X34210000Y-8270000D02*
X34210000Y-9610000D01*
X34210000Y-6790000D02*
X34210000Y-8270000D01*
X35475000Y-5525000D02*
X34210000Y-6790000D01*
X34210000Y-9610000D02*
X34230000Y-9630000D01*
D22*
X31650000Y-12200000D02*
X31450000Y-12000000D01*
X36200000Y-29700000D02*
X31650000Y-25150000D01*
X38300000Y-35800000D02*
X37850000Y-35350000D01*
X37850000Y-35350000D02*
X37850000Y-31350000D01*
X37850000Y-31350000D02*
X36200000Y-29700000D01*
X42550000Y-35800000D02*
X38300000Y-35800000D01*
X31650000Y-25150000D02*
X31650000Y-14950000D01*
X31650000Y-14950000D02*
X31650000Y-12200000D01*
D24*
X43800000Y-14320000D02*
X44170000Y-13950000D01*
X44170000Y-13950000D02*
X46700000Y-13950000D01*
X46560000Y-13810000D02*
X46700000Y-13950000D01*
X46700000Y-13950000D02*
X46950000Y-14200000D01*
X51750000Y-19000000D02*
X46950000Y-14200000D01*
X51750000Y-37700000D02*
X51750000Y-19000000D01*
X30930000Y-1850000D02*
X30930000Y-1170000D01*
X30930000Y-3760000D02*
X30930000Y-1850000D01*
X30500000Y-4190000D02*
X30930000Y-3760000D01*
X29580000Y-4190000D02*
X30500000Y-4190000D01*
X28245000Y-5525000D02*
X29580000Y-4190000D01*
D22*
X45163600Y-2503600D02*
X43340000Y-680000D01*
X43340000Y-680000D02*
X31420000Y-680000D01*
X31420000Y-680000D02*
X30930000Y-1170000D01*
X45163600Y-2503600D02*
X46421100Y-2503600D01*
D24*
X27855000Y-5525000D02*
X28245000Y-5525000D01*
D22*
X45735000Y-25525000D02*
X44610000Y-26650000D01*
X45735000Y-22485000D02*
X45735000Y-25525000D01*
D24*
X58900000Y-25200000D02*
X64900000Y-25200000D01*
X65550000Y-24550000D02*
X64900000Y-25200000D01*
X65550000Y-23300000D02*
X65550000Y-24550000D01*
D22*
X42900000Y-22300000D02*
X43350000Y-21850000D01*
X43350000Y-21850000D02*
X45100000Y-21850000D01*
X45100000Y-21850000D02*
X45735000Y-22485000D01*
X27850000Y-20650000D02*
X29900000Y-22700000D01*
X27850000Y-18600000D02*
X27850000Y-20650000D01*
X27850000Y-18600000D02*
X17695000Y-8445000D01*
X37300000Y-22300000D02*
X42900000Y-22300000D01*
X17695000Y-8065000D02*
X17695000Y-8445000D01*
X36450000Y-19700000D02*
X34900000Y-18150000D01*
X34900000Y-13450000D02*
X36450000Y-11900000D01*
X34900000Y-18150000D02*
X34900000Y-13450000D01*
X61240000Y-30930000D02*
X59270000Y-28960000D01*
X76300000Y-25490000D02*
X71540000Y-30250000D01*
X71540000Y-30250000D02*
X71530000Y-30250000D01*
X76300000Y-23600000D02*
X76300000Y-25490000D01*
X67650000Y-30930000D02*
X61240000Y-30930000D01*
X46320000Y-28240000D02*
X46270000Y-28240000D01*
X43920000Y-20440000D02*
X45710000Y-20440000D01*
X36450000Y-19700000D02*
X37190000Y-20440000D01*
X37190000Y-20440000D02*
X43920000Y-20440000D01*
D24*
X39290000Y-6790000D02*
X40555000Y-5525000D01*
X39290000Y-6790000D02*
X39290000Y-9060000D01*
X39290000Y-9060000D02*
X36450000Y-11900000D01*
D22*
X46910000Y-21640000D02*
X46910000Y-27650000D01*
X45710000Y-20440000D02*
X46910000Y-21640000D01*
X46910000Y-27650000D02*
X46320000Y-28240000D01*
D24*
X34737100Y-2503600D02*
X34737100Y-2547100D01*
X34737100Y-2547100D02*
X36410000Y-4220000D01*
X36410000Y-4220000D02*
X39250000Y-4220000D01*
X39250000Y-4220000D02*
X40555000Y-5525000D01*
D22*
X26590000Y-9580000D02*
X26590000Y-10280000D01*
X26590000Y-10280000D02*
X29540000Y-13230000D01*
X37970000Y-14140000D02*
X37960000Y-14150000D01*
X40300000Y-13020000D02*
X39180000Y-14140000D01*
X39180000Y-14140000D02*
X37970000Y-14140000D01*
X48420000Y-7780000D02*
X47650000Y-7780000D01*
X43800000Y-13020000D02*
X40300000Y-13020000D01*
X37960000Y-14150000D02*
X36440000Y-14150000D01*
X29540000Y-13230000D02*
X29540000Y-13200000D01*
X48410000Y-7780000D02*
X48420000Y-7780000D01*
X48420000Y-7780000D02*
X59460000Y-7780000D01*
X58500000Y-6210000D02*
X60450000Y-6210000D01*
X61900000Y-7660000D02*
X61900000Y-9610000D01*
X60450000Y-6210000D02*
X61900000Y-7660000D01*
X44820000Y-6020000D02*
X45010000Y-6210000D01*
X45010000Y-6210000D02*
X58500000Y-6210000D01*
X43350000Y-4550000D02*
X44820000Y-6020000D01*
X44820000Y-6020000D02*
X44830000Y-6030000D01*
D24*
X69100000Y-14600000D02*
X69800000Y-14600000D01*
X69100000Y-14600000D02*
X67100000Y-14600000D01*
X67100000Y-14600000D02*
X66800000Y-14300000D01*
X66800000Y-13300000D02*
X66800000Y-14300000D01*
X69800000Y-14600000D02*
X70800000Y-15600000D01*
X70800000Y-15600000D02*
X70800000Y-19400000D01*
X68800000Y-21400000D02*
X70800000Y-19400000D01*
X68800000Y-23300000D02*
X68800000Y-21400000D01*
D22*
X61900000Y-9610000D02*
X61900000Y-13300000D01*
X43350000Y-4550000D02*
X42357100Y-3557100D01*
X42357100Y-2503600D02*
X42357100Y-3557100D01*
D24*
X68150000Y-25550000D02*
X68450000Y-25850000D01*
X68150000Y-23300000D02*
X68150000Y-25550000D01*
X66200000Y-15400000D02*
X65800000Y-15400000D01*
X68150000Y-20650000D02*
X69700000Y-19100000D01*
X69700000Y-19100000D02*
X69700000Y-16700000D01*
X69700000Y-16700000D02*
X68400000Y-15400000D01*
X68400000Y-15400000D02*
X66200000Y-15400000D01*
X68150000Y-23300000D02*
X68150000Y-20650000D01*
X65750000Y-10750000D02*
X66800000Y-10750000D01*
X65200000Y-11300000D02*
X65750000Y-10750000D01*
X65200000Y-14800000D02*
X65200000Y-11300000D01*
X65800000Y-15400000D02*
X65200000Y-14800000D01*
D22*
X59470000Y-42080000D02*
X61700000Y-39850000D01*
X61700000Y-39850000D02*
X65550000Y-39850000D01*
X66460000Y-32250000D02*
X66450000Y-32250000D01*
X66450000Y-32250000D02*
X66460000Y-32250000D01*
X66460000Y-32250000D02*
X66450000Y-32250000D01*
D24*
X66850000Y-23300000D02*
X66850000Y-25550000D01*
D22*
X66450000Y-38950000D02*
X66450000Y-32250000D01*
X65550000Y-39850000D02*
X66450000Y-38950000D01*
X66850000Y-25550000D02*
X66750000Y-25650000D01*
D24*
X64000000Y-19100000D02*
X64000000Y-19950000D01*
X64450000Y-20400000D02*
X65300000Y-20400000D01*
X64000000Y-19950000D02*
X64450000Y-20400000D01*
X66850000Y-23300000D02*
X66850000Y-21050000D01*
X65550000Y-8250000D02*
X64300000Y-9500000D01*
X64300000Y-9500000D02*
X64300000Y-14800000D01*
X65550000Y-8250000D02*
X66800000Y-8250000D01*
X64300000Y-15900000D02*
X64300000Y-14800000D01*
X64000000Y-16200000D02*
X64300000Y-15900000D01*
X64000000Y-19100000D02*
X64000000Y-16200000D01*
X66200000Y-20400000D02*
X65300000Y-20400000D01*
X66850000Y-21050000D02*
X66200000Y-20400000D01*
X64800000Y-32260000D02*
X64800000Y-38300000D01*
X63650000Y-21150000D02*
X63700000Y-21200000D01*
X62900000Y-19200000D02*
X62900000Y-20400000D01*
X63700000Y-21200000D02*
X64900000Y-21200000D01*
X62900000Y-20400000D02*
X63700000Y-21200000D01*
X63300000Y-14700000D02*
X63300000Y-15200000D01*
X65050000Y-5750000D02*
X63300000Y-7500000D01*
X63300000Y-7500000D02*
X63300000Y-14700000D01*
X66800000Y-5750000D02*
X65050000Y-5750000D01*
X66200000Y-21700000D02*
X66200000Y-23300000D01*
X64900000Y-21200000D02*
X65700000Y-21200000D01*
X65700000Y-21200000D02*
X66200000Y-21700000D01*
X62900000Y-15600000D02*
X62900000Y-19200000D01*
X63300000Y-15200000D02*
X62900000Y-15600000D01*
G36*
X14703599Y-648046D02*
X14087709Y-1262863D01*
X13753980Y-2066570D01*
X13753221Y-2936812D01*
X14085546Y-3741101D01*
X14700363Y-4356991D01*
X15504070Y-4690720D01*
X15671599Y-4690866D01*
X15630000Y-4900000D01*
X15630000Y-6690180D01*
X15183674Y-6601400D01*
X15126326Y-6601400D01*
X14566231Y-6712810D01*
X14091405Y-7030079D01*
X13885000Y-7338986D01*
X13678595Y-7030079D01*
X13326775Y-6795000D01*
X13678595Y-6559921D01*
X13995864Y-6085095D01*
X14107274Y-5525000D01*
X13995864Y-4964905D01*
X13678595Y-4490079D01*
X13203769Y-4172810D01*
X13191597Y-4170389D01*
X13179458Y-4162278D01*
X12615000Y-4050000D01*
X10075000Y-4050000D01*
X9510542Y-4162278D01*
X9498403Y-4170389D01*
X9486231Y-4172810D01*
X9108802Y-4425000D01*
X8600000Y-4425000D01*
X8179049Y-4508732D01*
X7822183Y-4747182D01*
X6897183Y-5672183D01*
X6658733Y-6029048D01*
X6575000Y-6450000D01*
X6575000Y-10100000D01*
X6658733Y-10520952D01*
X6817765Y-10758960D01*
X6897183Y-10877817D01*
X11913000Y-15893634D01*
X11913000Y-36450000D01*
X11912810Y-36667844D01*
X11913000Y-36668304D01*
X11913000Y-38541957D01*
X11901246Y-38600000D01*
X11901246Y-40100000D01*
X11943083Y-40322346D01*
X12074490Y-40526558D01*
X12274993Y-40663556D01*
X12513000Y-40711754D01*
X13275000Y-40711754D01*
X13275000Y-43975000D01*
X13358733Y-44395952D01*
X13495074Y-44600000D01*
X13597183Y-44752817D01*
X17772183Y-48927818D01*
X18129049Y-49166268D01*
X18550000Y-49250000D01*
X27686830Y-49250000D01*
X27678021Y-49255886D01*
X27382776Y-49697750D01*
X27279100Y-50218965D01*
X27279100Y-51308235D01*
X27382776Y-51829450D01*
X27678021Y-52271314D01*
X28119885Y-52566559D01*
X28641100Y-52670235D01*
X29162315Y-52566559D01*
X29604179Y-52271314D01*
X29899424Y-51829450D01*
X29911100Y-51770751D01*
X29922776Y-51829450D01*
X30218021Y-52271314D01*
X30659885Y-52566559D01*
X31181100Y-52670235D01*
X31702315Y-52566559D01*
X32144179Y-52271314D01*
X32439424Y-51829450D01*
X32451100Y-51770751D01*
X32462776Y-51829450D01*
X32758021Y-52271314D01*
X33199885Y-52566559D01*
X33721100Y-52670235D01*
X34242315Y-52566559D01*
X34684179Y-52271314D01*
X34979424Y-51829450D01*
X34991100Y-51770751D01*
X35002776Y-51829450D01*
X35298021Y-52271314D01*
X35739885Y-52566559D01*
X36261100Y-52670235D01*
X36782315Y-52566559D01*
X37224179Y-52271314D01*
X37519424Y-51829450D01*
X37531100Y-51770751D01*
X37542776Y-51829450D01*
X37838021Y-52271314D01*
X38279885Y-52566559D01*
X38801100Y-52670235D01*
X39322315Y-52566559D01*
X39764179Y-52271314D01*
X40059424Y-51829450D01*
X40163100Y-51308235D01*
X40163100Y-50218965D01*
X40059424Y-49697750D01*
X39901100Y-49460802D01*
X39901100Y-48951100D01*
X39817367Y-48530148D01*
X39760207Y-48444602D01*
X39578917Y-48173282D01*
X39305635Y-47900000D01*
X42450001Y-47900000D01*
X42667844Y-47900190D01*
X43072286Y-47733078D01*
X43381991Y-47423913D01*
X43549808Y-47019763D01*
X43550190Y-46582156D01*
X43526574Y-46525000D01*
X44109126Y-46525000D01*
X43607561Y-47025691D01*
X43325321Y-47705398D01*
X43324679Y-48441373D01*
X43605732Y-49121572D01*
X44125691Y-49642439D01*
X44805398Y-49924679D01*
X45117583Y-49924951D01*
X45059100Y-50218965D01*
X45059100Y-51308235D01*
X45162776Y-51829450D01*
X45458021Y-52271314D01*
X45899885Y-52566559D01*
X46421100Y-52670235D01*
X46942315Y-52566559D01*
X47384179Y-52271314D01*
X47679424Y-51829450D01*
X47783100Y-51308235D01*
X47783100Y-50218965D01*
X47679424Y-49697750D01*
X47384179Y-49255886D01*
X46942315Y-48960641D01*
X46820464Y-48936403D01*
X47024679Y-48444602D01*
X47025321Y-47708627D01*
X46744268Y-47028428D01*
X46241718Y-46525000D01*
X46947918Y-46525000D01*
X49523959Y-49101041D01*
X49799719Y-49285298D01*
X50125000Y-49350000D01*
X50475136Y-49350000D01*
X50242776Y-49697750D01*
X50139100Y-50218965D01*
X50139100Y-51308235D01*
X50242776Y-51829450D01*
X50538021Y-52271314D01*
X50979885Y-52566559D01*
X51501100Y-52670235D01*
X52022315Y-52566559D01*
X52464179Y-52271314D01*
X52759424Y-51829450D01*
X52771100Y-51770751D01*
X52782776Y-51829450D01*
X53078021Y-52271314D01*
X53519885Y-52566559D01*
X54041100Y-52670235D01*
X54562315Y-52566559D01*
X55004179Y-52271314D01*
X55299424Y-51829450D01*
X55311100Y-51770751D01*
X55322776Y-51829450D01*
X55618021Y-52271314D01*
X56059885Y-52566559D01*
X56581100Y-52670235D01*
X57102315Y-52566559D01*
X57544179Y-52271314D01*
X57839424Y-51829450D01*
X57851100Y-51770751D01*
X57862776Y-51829450D01*
X58158021Y-52271314D01*
X58599885Y-52566559D01*
X59121100Y-52670235D01*
X59642315Y-52566559D01*
X60084179Y-52271314D01*
X60379424Y-51829450D01*
X60391100Y-51770751D01*
X60402776Y-51829450D01*
X60698021Y-52271314D01*
X61139885Y-52566559D01*
X61661100Y-52670235D01*
X62182315Y-52566559D01*
X62624179Y-52271314D01*
X62919424Y-51829450D01*
X62931100Y-51770751D01*
X62942776Y-51829450D01*
X63238021Y-52271314D01*
X63679885Y-52566559D01*
X64201100Y-52670235D01*
X64722315Y-52566559D01*
X65164179Y-52271314D01*
X65459424Y-51829450D01*
X65563100Y-51308235D01*
X65563100Y-50218965D01*
X65459424Y-49697750D01*
X65164179Y-49255886D01*
X64722315Y-48960641D01*
X64201100Y-48856965D01*
X63679885Y-48960641D01*
X63238021Y-49255886D01*
X62942776Y-49697750D01*
X62931100Y-49756449D01*
X62919424Y-49697750D01*
X62624179Y-49255886D01*
X62182315Y-48960641D01*
X61661100Y-48856965D01*
X61139885Y-48960641D01*
X60698021Y-49255886D01*
X60402776Y-49697750D01*
X60391100Y-49756449D01*
X60379424Y-49697750D01*
X60084179Y-49255886D01*
X59977432Y-49184559D01*
X60000000Y-49071100D01*
X60000000Y-48500000D01*
X59971100Y-48354709D01*
X59971100Y-46116812D01*
X64553221Y-46116812D01*
X64885546Y-46921101D01*
X65500363Y-47536991D01*
X66304070Y-47870720D01*
X67174312Y-47871479D01*
X67978601Y-47539154D01*
X68594491Y-46924337D01*
X68928220Y-46120630D01*
X68928979Y-45250388D01*
X68596654Y-44446099D01*
X67981837Y-43830209D01*
X67178130Y-43496480D01*
X66307888Y-43495721D01*
X65503599Y-43828046D01*
X64887709Y-44442863D01*
X64553980Y-45246570D01*
X64553221Y-46116812D01*
X59971100Y-46116812D01*
X59971100Y-45080982D01*
X62907082Y-42145000D01*
X66355000Y-42145000D01*
X66680281Y-42080298D01*
X66956041Y-41896041D01*
X70701041Y-38151041D01*
X70885298Y-37875281D01*
X70950000Y-37550000D01*
X70950000Y-31200225D01*
X71310237Y-31349808D01*
X71747844Y-31350190D01*
X72152286Y-31183078D01*
X72461991Y-30873913D01*
X72629808Y-30469763D01*
X72629902Y-30362180D01*
X76901038Y-26091043D01*
X76901041Y-26091041D01*
X77085298Y-25815281D01*
X77098076Y-25751041D01*
X77150001Y-25490000D01*
X77150000Y-25489995D01*
X77150000Y-24979990D01*
X77205143Y-24957205D01*
X77655623Y-24507511D01*
X77899722Y-23919656D01*
X77900277Y-23283137D01*
X77657205Y-22694857D01*
X77312743Y-22349793D01*
X77645517Y-22017599D01*
X78650000Y-23022082D01*
X78650000Y-31286628D01*
X78337476Y-30973558D01*
X78152302Y-30896667D01*
X76078495Y-28822861D01*
X75923913Y-28668009D01*
X75519763Y-28500192D01*
X75082156Y-28499810D01*
X74677714Y-28666922D01*
X74368009Y-28976087D01*
X74200192Y-29380237D01*
X74199810Y-29817844D01*
X74366922Y-30222286D01*
X74676087Y-30531991D01*
X74676549Y-30532183D01*
X76216931Y-32072566D01*
X76216656Y-32387969D01*
X76422220Y-32885474D01*
X76802524Y-33266442D01*
X77100203Y-33390049D01*
X76804526Y-33512220D01*
X76423558Y-33892524D01*
X76217125Y-34389669D01*
X76216656Y-34927969D01*
X76422220Y-35425474D01*
X76802524Y-35806442D01*
X77100203Y-35930049D01*
X76804526Y-36052220D01*
X76423558Y-36432524D01*
X76217125Y-36929669D01*
X76216656Y-37467969D01*
X76422220Y-37965474D01*
X76802524Y-38346442D01*
X77100203Y-38470049D01*
X76804526Y-38592220D01*
X76423558Y-38972524D01*
X76217125Y-39469669D01*
X76216656Y-40007969D01*
X76422220Y-40505474D01*
X76802524Y-40886442D01*
X77100203Y-41010049D01*
X76804526Y-41132220D01*
X76423558Y-41512524D01*
X76217125Y-42009669D01*
X76216656Y-42547969D01*
X76422220Y-43045474D01*
X76686285Y-43310000D01*
X73125761Y-43310000D01*
X73043913Y-43228009D01*
X72639763Y-43060192D01*
X72202156Y-43059810D01*
X71797714Y-43226922D01*
X71488009Y-43536087D01*
X71320192Y-43940237D01*
X71319810Y-44377844D01*
X71486922Y-44782286D01*
X71796087Y-45091991D01*
X72200237Y-45259808D01*
X72301424Y-45259896D01*
X72224702Y-45374719D01*
X72160000Y-45700000D01*
X72224702Y-46025281D01*
X72408959Y-46301041D01*
X72684719Y-46485298D01*
X73010000Y-46550000D01*
X78960000Y-46550000D01*
X79285281Y-46485298D01*
X79561041Y-46301041D01*
X81325000Y-44537081D01*
X81325000Y-52825000D01*
X15410415Y-52825000D01*
X15908601Y-52619154D01*
X16524491Y-52004337D01*
X16858220Y-51200630D01*
X16858979Y-50330388D01*
X16526654Y-49526099D01*
X15911837Y-48910209D01*
X15108130Y-48576480D01*
X14237888Y-48575721D01*
X13433599Y-48908046D01*
X12817709Y-49522863D01*
X12483980Y-50326570D01*
X12483221Y-51196812D01*
X12815546Y-52001101D01*
X13430363Y-52616991D01*
X13931303Y-52825000D01*
X575000Y-52825000D01*
X575000Y-475000D01*
X15122403Y-475000D01*
X14703599Y-648046D01*
X14703599Y-648046D01*
G37*
X14703599Y-648046D02*
X14087709Y-1262863D01*
X13753980Y-2066570D01*
X13753221Y-2936812D01*
X14085546Y-3741101D01*
X14700363Y-4356991D01*
X15504070Y-4690720D01*
X15671599Y-4690866D01*
X15630000Y-4900000D01*
X15630000Y-6690180D01*
X15183674Y-6601400D01*
X15126326Y-6601400D01*
X14566231Y-6712810D01*
X14091405Y-7030079D01*
X13885000Y-7338986D01*
X13678595Y-7030079D01*
X13326775Y-6795000D01*
X13678595Y-6559921D01*
X13995864Y-6085095D01*
X14107274Y-5525000D01*
X13995864Y-4964905D01*
X13678595Y-4490079D01*
X13203769Y-4172810D01*
X13191597Y-4170389D01*
X13179458Y-4162278D01*
X12615000Y-4050000D01*
X10075000Y-4050000D01*
X9510542Y-4162278D01*
X9498403Y-4170389D01*
X9486231Y-4172810D01*
X9108802Y-4425000D01*
X8600000Y-4425000D01*
X8179049Y-4508732D01*
X7822183Y-4747182D01*
X6897183Y-5672183D01*
X6658733Y-6029048D01*
X6575000Y-6450000D01*
X6575000Y-10100000D01*
X6658733Y-10520952D01*
X6817765Y-10758960D01*
X6897183Y-10877817D01*
X11913000Y-15893634D01*
X11913000Y-36450000D01*
X11912810Y-36667844D01*
X11913000Y-36668304D01*
X11913000Y-38541957D01*
X11901246Y-38600000D01*
X11901246Y-40100000D01*
X11943083Y-40322346D01*
X12074490Y-40526558D01*
X12274993Y-40663556D01*
X12513000Y-40711754D01*
X13275000Y-40711754D01*
X13275000Y-43975000D01*
X13358733Y-44395952D01*
X13495074Y-44600000D01*
X13597183Y-44752817D01*
X17772183Y-48927818D01*
X18129049Y-49166268D01*
X18550000Y-49250000D01*
X27686830Y-49250000D01*
X27678021Y-49255886D01*
X27382776Y-49697750D01*
X27279100Y-50218965D01*
X27279100Y-51308235D01*
X27382776Y-51829450D01*
X27678021Y-52271314D01*
X28119885Y-52566559D01*
X28641100Y-52670235D01*
X29162315Y-52566559D01*
X29604179Y-52271314D01*
X29899424Y-51829450D01*
X29911100Y-51770751D01*
X29922776Y-51829450D01*
X30218021Y-52271314D01*
X30659885Y-52566559D01*
X31181100Y-52670235D01*
X31702315Y-52566559D01*
X32144179Y-52271314D01*
X32439424Y-51829450D01*
X32451100Y-51770751D01*
X32462776Y-51829450D01*
X32758021Y-52271314D01*
X33199885Y-52566559D01*
X33721100Y-52670235D01*
X34242315Y-52566559D01*
X34684179Y-52271314D01*
X34979424Y-51829450D01*
X34991100Y-51770751D01*
X35002776Y-51829450D01*
X35298021Y-52271314D01*
X35739885Y-52566559D01*
X36261100Y-52670235D01*
X36782315Y-52566559D01*
X37224179Y-52271314D01*
X37519424Y-51829450D01*
X37531100Y-51770751D01*
X37542776Y-51829450D01*
X37838021Y-52271314D01*
X38279885Y-52566559D01*
X38801100Y-52670235D01*
X39322315Y-52566559D01*
X39764179Y-52271314D01*
X40059424Y-51829450D01*
X40163100Y-51308235D01*
X40163100Y-50218965D01*
X40059424Y-49697750D01*
X39901100Y-49460802D01*
X39901100Y-48951100D01*
X39817367Y-48530148D01*
X39760207Y-48444602D01*
X39578917Y-48173282D01*
X39305635Y-47900000D01*
X42450001Y-47900000D01*
X42667844Y-47900190D01*
X43072286Y-47733078D01*
X43381991Y-47423913D01*
X43549808Y-47019763D01*
X43550190Y-46582156D01*
X43526574Y-46525000D01*
X44109126Y-46525000D01*
X43607561Y-47025691D01*
X43325321Y-47705398D01*
X43324679Y-48441373D01*
X43605732Y-49121572D01*
X44125691Y-49642439D01*
X44805398Y-49924679D01*
X45117583Y-49924951D01*
X45059100Y-50218965D01*
X45059100Y-51308235D01*
X45162776Y-51829450D01*
X45458021Y-52271314D01*
X45899885Y-52566559D01*
X46421100Y-52670235D01*
X46942315Y-52566559D01*
X47384179Y-52271314D01*
X47679424Y-51829450D01*
X47783100Y-51308235D01*
X47783100Y-50218965D01*
X47679424Y-49697750D01*
X47384179Y-49255886D01*
X46942315Y-48960641D01*
X46820464Y-48936403D01*
X47024679Y-48444602D01*
X47025321Y-47708627D01*
X46744268Y-47028428D01*
X46241718Y-46525000D01*
X46947918Y-46525000D01*
X49523959Y-49101041D01*
X49799719Y-49285298D01*
X50125000Y-49350000D01*
X50475136Y-49350000D01*
X50242776Y-49697750D01*
X50139100Y-50218965D01*
X50139100Y-51308235D01*
X50242776Y-51829450D01*
X50538021Y-52271314D01*
X50979885Y-52566559D01*
X51501100Y-52670235D01*
X52022315Y-52566559D01*
X52464179Y-52271314D01*
X52759424Y-51829450D01*
X52771100Y-51770751D01*
X52782776Y-51829450D01*
X53078021Y-52271314D01*
X53519885Y-52566559D01*
X54041100Y-52670235D01*
X54562315Y-52566559D01*
X55004179Y-52271314D01*
X55299424Y-51829450D01*
X55311100Y-51770751D01*
X55322776Y-51829450D01*
X55618021Y-52271314D01*
X56059885Y-52566559D01*
X56581100Y-52670235D01*
X57102315Y-52566559D01*
X57544179Y-52271314D01*
X57839424Y-51829450D01*
X57851100Y-51770751D01*
X57862776Y-51829450D01*
X58158021Y-52271314D01*
X58599885Y-52566559D01*
X59121100Y-52670235D01*
X59642315Y-52566559D01*
X60084179Y-52271314D01*
X60379424Y-51829450D01*
X60391100Y-51770751D01*
X60402776Y-51829450D01*
X60698021Y-52271314D01*
X61139885Y-52566559D01*
X61661100Y-52670235D01*
X62182315Y-52566559D01*
X62624179Y-52271314D01*
X62919424Y-51829450D01*
X62931100Y-51770751D01*
X62942776Y-51829450D01*
X63238021Y-52271314D01*
X63679885Y-52566559D01*
X64201100Y-52670235D01*
X64722315Y-52566559D01*
X65164179Y-52271314D01*
X65459424Y-51829450D01*
X65563100Y-51308235D01*
X65563100Y-50218965D01*
X65459424Y-49697750D01*
X65164179Y-49255886D01*
X64722315Y-48960641D01*
X64201100Y-48856965D01*
X63679885Y-48960641D01*
X63238021Y-49255886D01*
X62942776Y-49697750D01*
X62931100Y-49756449D01*
X62919424Y-49697750D01*
X62624179Y-49255886D01*
X62182315Y-48960641D01*
X61661100Y-48856965D01*
X61139885Y-48960641D01*
X60698021Y-49255886D01*
X60402776Y-49697750D01*
X60391100Y-49756449D01*
X60379424Y-49697750D01*
X60084179Y-49255886D01*
X59977432Y-49184559D01*
X60000000Y-49071100D01*
X60000000Y-48500000D01*
X59971100Y-48354709D01*
X59971100Y-46116812D01*
X64553221Y-46116812D01*
X64885546Y-46921101D01*
X65500363Y-47536991D01*
X66304070Y-47870720D01*
X67174312Y-47871479D01*
X67978601Y-47539154D01*
X68594491Y-46924337D01*
X68928220Y-46120630D01*
X68928979Y-45250388D01*
X68596654Y-44446099D01*
X67981837Y-43830209D01*
X67178130Y-43496480D01*
X66307888Y-43495721D01*
X65503599Y-43828046D01*
X64887709Y-44442863D01*
X64553980Y-45246570D01*
X64553221Y-46116812D01*
X59971100Y-46116812D01*
X59971100Y-45080982D01*
X62907082Y-42145000D01*
X66355000Y-42145000D01*
X66680281Y-42080298D01*
X66956041Y-41896041D01*
X70701041Y-38151041D01*
X70885298Y-37875281D01*
X70950000Y-37550000D01*
X70950000Y-31200225D01*
X71310237Y-31349808D01*
X71747844Y-31350190D01*
X72152286Y-31183078D01*
X72461991Y-30873913D01*
X72629808Y-30469763D01*
X72629902Y-30362180D01*
X76901038Y-26091043D01*
X76901041Y-26091041D01*
X77085298Y-25815281D01*
X77098076Y-25751041D01*
X77150001Y-25490000D01*
X77150000Y-25489995D01*
X77150000Y-24979990D01*
X77205143Y-24957205D01*
X77655623Y-24507511D01*
X77899722Y-23919656D01*
X77900277Y-23283137D01*
X77657205Y-22694857D01*
X77312743Y-22349793D01*
X77645517Y-22017599D01*
X78650000Y-23022082D01*
X78650000Y-31286628D01*
X78337476Y-30973558D01*
X78152302Y-30896667D01*
X76078495Y-28822861D01*
X75923913Y-28668009D01*
X75519763Y-28500192D01*
X75082156Y-28499810D01*
X74677714Y-28666922D01*
X74368009Y-28976087D01*
X74200192Y-29380237D01*
X74199810Y-29817844D01*
X74366922Y-30222286D01*
X74676087Y-30531991D01*
X74676549Y-30532183D01*
X76216931Y-32072566D01*
X76216656Y-32387969D01*
X76422220Y-32885474D01*
X76802524Y-33266442D01*
X77100203Y-33390049D01*
X76804526Y-33512220D01*
X76423558Y-33892524D01*
X76217125Y-34389669D01*
X76216656Y-34927969D01*
X76422220Y-35425474D01*
X76802524Y-35806442D01*
X77100203Y-35930049D01*
X76804526Y-36052220D01*
X76423558Y-36432524D01*
X76217125Y-36929669D01*
X76216656Y-37467969D01*
X76422220Y-37965474D01*
X76802524Y-38346442D01*
X77100203Y-38470049D01*
X76804526Y-38592220D01*
X76423558Y-38972524D01*
X76217125Y-39469669D01*
X76216656Y-40007969D01*
X76422220Y-40505474D01*
X76802524Y-40886442D01*
X77100203Y-41010049D01*
X76804526Y-41132220D01*
X76423558Y-41512524D01*
X76217125Y-42009669D01*
X76216656Y-42547969D01*
X76422220Y-43045474D01*
X76686285Y-43310000D01*
X73125761Y-43310000D01*
X73043913Y-43228009D01*
X72639763Y-43060192D01*
X72202156Y-43059810D01*
X71797714Y-43226922D01*
X71488009Y-43536087D01*
X71320192Y-43940237D01*
X71319810Y-44377844D01*
X71486922Y-44782286D01*
X71796087Y-45091991D01*
X72200237Y-45259808D01*
X72301424Y-45259896D01*
X72224702Y-45374719D01*
X72160000Y-45700000D01*
X72224702Y-46025281D01*
X72408959Y-46301041D01*
X72684719Y-46485298D01*
X73010000Y-46550000D01*
X78960000Y-46550000D01*
X79285281Y-46485298D01*
X79561041Y-46301041D01*
X81325000Y-44537081D01*
X81325000Y-52825000D01*
X15410415Y-52825000D01*
X15908601Y-52619154D01*
X16524491Y-52004337D01*
X16858220Y-51200630D01*
X16858979Y-50330388D01*
X16526654Y-49526099D01*
X15911837Y-48910209D01*
X15108130Y-48576480D01*
X14237888Y-48575721D01*
X13433599Y-48908046D01*
X12817709Y-49522863D01*
X12483980Y-50326570D01*
X12483221Y-51196812D01*
X12815546Y-52001101D01*
X13430363Y-52616991D01*
X13931303Y-52825000D01*
X575000Y-52825000D01*
X575000Y-475000D01*
X15122403Y-475000D01*
X14703599Y-648046D01*
G36*
X41098776Y-3569450D02*
X41394021Y-4011314D01*
X41835885Y-4306559D01*
X41921509Y-4323591D01*
X44252418Y-6654500D01*
X44128428Y-6705732D01*
X43607561Y-7225691D01*
X43325321Y-7905398D01*
X43324679Y-8641373D01*
X43605732Y-9321572D01*
X44125691Y-9842439D01*
X44805398Y-10124679D01*
X45541373Y-10125321D01*
X46221572Y-9844268D01*
X46742439Y-9324309D01*
X47005330Y-8691198D01*
X47026087Y-8711991D01*
X47430237Y-8879808D01*
X47867844Y-8880190D01*
X48272286Y-8713078D01*
X48355509Y-8630000D01*
X58754239Y-8630000D01*
X58836087Y-8711991D01*
X58988821Y-8775412D01*
X58754526Y-8872220D01*
X58373558Y-9252524D01*
X58167125Y-9749669D01*
X58166656Y-10287969D01*
X58372220Y-10785474D01*
X58752524Y-11166442D01*
X59050203Y-11290049D01*
X58754526Y-11412220D01*
X58373558Y-11792524D01*
X58167125Y-12289669D01*
X58166656Y-12827969D01*
X58372220Y-13325474D01*
X58752524Y-13706442D01*
X59050203Y-13830049D01*
X58754526Y-13952220D01*
X58373558Y-14332524D01*
X58167125Y-14829669D01*
X58166656Y-15367969D01*
X58372220Y-15865474D01*
X58752524Y-16246442D01*
X59050203Y-16370049D01*
X58754526Y-16492220D01*
X58373558Y-16872524D01*
X58167125Y-17369669D01*
X58166656Y-17907969D01*
X58372220Y-18405474D01*
X58752524Y-18786442D01*
X59050203Y-18910049D01*
X58754526Y-19032220D01*
X58373558Y-19412524D01*
X58167125Y-19909669D01*
X58166656Y-20447969D01*
X58372220Y-20945474D01*
X58752524Y-21326442D01*
X59249669Y-21532875D01*
X59787969Y-21533344D01*
X60285474Y-21327780D01*
X60666442Y-20947476D01*
X60872875Y-20450331D01*
X60873344Y-19912031D01*
X60667780Y-19414526D01*
X60287476Y-19033558D01*
X59989797Y-18909951D01*
X60285474Y-18787780D01*
X60666442Y-18407476D01*
X60872875Y-17910331D01*
X60873344Y-17372031D01*
X60667780Y-16874526D01*
X60287476Y-16493558D01*
X59989797Y-16369951D01*
X60285474Y-16247780D01*
X60666442Y-15867476D01*
X60872875Y-15370331D01*
X60873344Y-14832031D01*
X60667780Y-14334526D01*
X60287476Y-13953558D01*
X59989797Y-13829951D01*
X60285474Y-13707780D01*
X60666442Y-13327476D01*
X60872875Y-12830331D01*
X60873344Y-12292031D01*
X60667780Y-11794526D01*
X60287476Y-11413558D01*
X59989797Y-11289951D01*
X60285474Y-11167780D01*
X60666442Y-10787476D01*
X60872875Y-10290331D01*
X60873344Y-9752031D01*
X60667780Y-9254526D01*
X60287476Y-8873558D01*
X59991418Y-8750624D01*
X60082286Y-8713078D01*
X60391991Y-8403913D01*
X60559808Y-7999763D01*
X60560190Y-7562156D01*
X60532106Y-7494188D01*
X61050000Y-8012082D01*
X61050000Y-12594239D01*
X60968009Y-12676087D01*
X60800192Y-13080237D01*
X60799810Y-13517844D01*
X60966922Y-13922286D01*
X61276087Y-14231991D01*
X61680237Y-14399808D01*
X62117844Y-14400190D01*
X62500000Y-14242286D01*
X62500000Y-14868630D01*
X62334315Y-15034315D01*
X62160896Y-15293853D01*
X62100000Y-15600000D01*
X62100000Y-20400000D01*
X62146608Y-20634315D01*
X62160896Y-20706147D01*
X62334315Y-20965685D01*
X62549973Y-21181343D01*
X62549810Y-21367844D01*
X62716922Y-21772286D01*
X63026087Y-22081991D01*
X63430237Y-22249808D01*
X63867844Y-22250190D01*
X64272286Y-22083078D01*
X64355509Y-22000000D01*
X65107851Y-22000000D01*
X64973442Y-22086490D01*
X64836444Y-22286993D01*
X64788246Y-22525000D01*
X64788246Y-23107723D01*
X64750000Y-23300000D01*
X64750000Y-24218629D01*
X64568630Y-24400000D01*
X59655674Y-24400000D01*
X59523913Y-24268009D01*
X59119763Y-24100192D01*
X58682156Y-24099810D01*
X58277714Y-24266922D01*
X57968009Y-24576087D01*
X57800192Y-24980237D01*
X57799810Y-25417844D01*
X57966922Y-25822286D01*
X58276087Y-26131991D01*
X58680237Y-26299808D01*
X59117844Y-26300190D01*
X59522286Y-26133078D01*
X59655596Y-26000000D01*
X64900000Y-26000000D01*
X65206147Y-25939104D01*
X65465685Y-25765685D01*
X65650060Y-25581310D01*
X65649810Y-25867844D01*
X65816922Y-26272286D01*
X66126087Y-26581991D01*
X66530237Y-26749808D01*
X66967844Y-26750190D01*
X67372286Y-26583078D01*
X67507095Y-26448504D01*
X67516922Y-26472286D01*
X67826087Y-26781991D01*
X68230237Y-26949808D01*
X68667844Y-26950190D01*
X69072286Y-26783078D01*
X69250000Y-26605674D01*
X69250000Y-27603802D01*
X69188007Y-27561444D01*
X68950000Y-27513246D01*
X68650000Y-27513246D01*
X68427654Y-27555083D01*
X68223442Y-27686490D01*
X68086444Y-27886993D01*
X68038246Y-28125000D01*
X68038246Y-28707723D01*
X68000000Y-28900000D01*
X68000000Y-29884271D01*
X67869763Y-29830192D01*
X67580378Y-29829939D01*
X67611754Y-29675000D01*
X67611754Y-28125000D01*
X67569917Y-27902654D01*
X67438510Y-27698442D01*
X67238007Y-27561444D01*
X67000000Y-27513246D01*
X66700000Y-27513246D01*
X66477654Y-27555083D01*
X66273442Y-27686490D01*
X66136444Y-27886993D01*
X66088246Y-28125000D01*
X66088246Y-29675000D01*
X66130083Y-29897346D01*
X66247618Y-30080000D01*
X65499454Y-30080000D01*
X65613556Y-29913007D01*
X65661754Y-29675000D01*
X65661754Y-28125000D01*
X65619917Y-27902654D01*
X65488510Y-27698442D01*
X65288007Y-27561444D01*
X65050000Y-27513246D01*
X64750000Y-27513246D01*
X64527654Y-27555083D01*
X64323442Y-27686490D01*
X64186444Y-27886993D01*
X64138246Y-28125000D01*
X64138246Y-29675000D01*
X64180083Y-29897346D01*
X64297618Y-30080000D01*
X61592082Y-30080000D01*
X60370089Y-28858007D01*
X60370190Y-28742156D01*
X60203078Y-28337714D01*
X59893913Y-28028009D01*
X59489763Y-27860192D01*
X59052156Y-27859810D01*
X58647714Y-28026922D01*
X58338009Y-28336087D01*
X58170192Y-28740237D01*
X58169810Y-29177844D01*
X58336922Y-29582286D01*
X58646087Y-29891991D01*
X59050237Y-30059808D01*
X59167829Y-30059911D01*
X59674986Y-30567068D01*
X59202031Y-30566656D01*
X58704526Y-30772220D01*
X58323558Y-31152524D01*
X58117125Y-31649669D01*
X58116746Y-32084441D01*
X57747714Y-32236922D01*
X57438009Y-32546087D01*
X57270192Y-32950237D01*
X57269810Y-33387844D01*
X57436922Y-33792286D01*
X57746087Y-34101991D01*
X58117067Y-34256035D01*
X58116656Y-34727969D01*
X58322220Y-35225474D01*
X58702524Y-35606442D01*
X59000203Y-35730049D01*
X58704526Y-35852220D01*
X58323558Y-36232524D01*
X58117125Y-36729669D01*
X58116656Y-37267969D01*
X58322220Y-37765474D01*
X58702524Y-38146442D01*
X59000203Y-38270049D01*
X58704526Y-38392220D01*
X58323558Y-38772524D01*
X58117125Y-39269669D01*
X58116656Y-39807969D01*
X58322220Y-40305474D01*
X58702524Y-40686442D01*
X59000203Y-40810049D01*
X58704526Y-40932220D01*
X58323558Y-41312524D01*
X58117125Y-41809669D01*
X58116656Y-42347969D01*
X58322220Y-42845474D01*
X58702524Y-43226442D01*
X59199669Y-43432875D01*
X59215030Y-43432888D01*
X58520059Y-44127859D01*
X58335802Y-44403619D01*
X58271100Y-44728900D01*
X58271100Y-47650000D01*
X50477082Y-47650000D01*
X48187082Y-45360000D01*
X54847918Y-45360000D01*
X55769911Y-46281993D01*
X55769810Y-46397844D01*
X55936922Y-46802286D01*
X56246087Y-47111991D01*
X56650237Y-47279808D01*
X57087844Y-47280190D01*
X57492286Y-47113078D01*
X57801991Y-46803913D01*
X57969808Y-46399763D01*
X57970190Y-45962156D01*
X57803078Y-45557714D01*
X57493913Y-45248009D01*
X57089763Y-45080192D01*
X56972171Y-45080089D01*
X55801041Y-43908959D01*
X55525281Y-43724702D01*
X55200000Y-43660000D01*
X42747701Y-43660000D01*
X42791041Y-43631041D01*
X42831314Y-43570768D01*
X43201993Y-43200089D01*
X43317844Y-43200190D01*
X43722286Y-43033078D01*
X44031991Y-42723913D01*
X44059078Y-42658679D01*
X44196922Y-42992286D01*
X44506087Y-43301991D01*
X44910237Y-43469808D01*
X45129999Y-43470000D01*
X45130186Y-43470000D01*
X45347844Y-43470190D01*
X45348304Y-43470000D01*
X51690000Y-43470000D01*
X52110952Y-43386267D01*
X52467817Y-43147817D01*
X54327817Y-41287818D01*
X54520257Y-40999810D01*
X54566267Y-40930952D01*
X54650000Y-40510000D01*
X54650000Y-32505634D01*
X55577817Y-31577817D01*
X56277817Y-30877818D01*
X56431991Y-30723913D01*
X56599808Y-30319763D01*
X56600190Y-29882156D01*
X56433078Y-29477714D01*
X56123913Y-29168009D01*
X55719763Y-29000192D01*
X55282156Y-28999810D01*
X54877714Y-29166922D01*
X54568009Y-29476087D01*
X54567818Y-29476547D01*
X54022183Y-30022183D01*
X52772183Y-31272183D01*
X52550000Y-31604703D01*
X52550000Y-19000000D01*
X52489104Y-18693853D01*
X52315685Y-18434315D01*
X51131370Y-17250000D01*
X54794152Y-17250000D01*
X54826087Y-17281991D01*
X55230237Y-17449808D01*
X55667844Y-17450190D01*
X56072286Y-17283078D01*
X56381991Y-16973913D01*
X56549808Y-16569763D01*
X56550190Y-16132156D01*
X56383078Y-15727714D01*
X56073913Y-15418009D01*
X55669763Y-15250192D01*
X55232156Y-15249810D01*
X54827714Y-15416922D01*
X54694404Y-15550000D01*
X51252081Y-15550000D01*
X50519110Y-14817029D01*
X50722286Y-14733078D01*
X50805509Y-14650000D01*
X54794239Y-14650000D01*
X54876087Y-14731991D01*
X55280237Y-14899808D01*
X55717844Y-14900190D01*
X56122286Y-14733078D01*
X56431991Y-14423913D01*
X56599808Y-14019763D01*
X56600190Y-13582156D01*
X56433078Y-13177714D01*
X56123913Y-12868009D01*
X55719763Y-12700192D01*
X55282156Y-12699810D01*
X54877714Y-12866922D01*
X54794491Y-12950000D01*
X50805761Y-12950000D01*
X50723913Y-12868009D01*
X50319763Y-12700192D01*
X49882156Y-12699810D01*
X49477714Y-12866922D01*
X49168009Y-13176087D01*
X49082969Y-13380887D01*
X47497340Y-11795258D01*
X47333078Y-11397714D01*
X47023913Y-11088009D01*
X46619763Y-10920192D01*
X46182156Y-10919810D01*
X45777714Y-11086922D01*
X45694491Y-11170000D01*
X42922082Y-11170000D01*
X41651041Y-9898959D01*
X41375281Y-9714702D01*
X41050000Y-9650000D01*
X39870000Y-9650000D01*
X39821779Y-9659592D01*
X39855686Y-9625685D01*
X39994998Y-9417190D01*
X40029104Y-9366147D01*
X40090000Y-9060000D01*
X40090000Y-7121370D01*
X40273134Y-6938237D01*
X40526326Y-6988600D01*
X40583674Y-6988600D01*
X41143769Y-6877190D01*
X41618595Y-6559921D01*
X41935864Y-6085095D01*
X42047274Y-5525000D01*
X41935864Y-4964905D01*
X41618595Y-4490079D01*
X41143769Y-4172810D01*
X40677337Y-4080031D01*
X40780179Y-4011314D01*
X41075424Y-3569450D01*
X41087100Y-3510751D01*
X41098776Y-3569450D01*
X41098776Y-3569450D01*
G37*
X41098776Y-3569450D02*
X41394021Y-4011314D01*
X41835885Y-4306559D01*
X41921509Y-4323591D01*
X44252418Y-6654500D01*
X44128428Y-6705732D01*
X43607561Y-7225691D01*
X43325321Y-7905398D01*
X43324679Y-8641373D01*
X43605732Y-9321572D01*
X44125691Y-9842439D01*
X44805398Y-10124679D01*
X45541373Y-10125321D01*
X46221572Y-9844268D01*
X46742439Y-9324309D01*
X47005330Y-8691198D01*
X47026087Y-8711991D01*
X47430237Y-8879808D01*
X47867844Y-8880190D01*
X48272286Y-8713078D01*
X48355509Y-8630000D01*
X58754239Y-8630000D01*
X58836087Y-8711991D01*
X58988821Y-8775412D01*
X58754526Y-8872220D01*
X58373558Y-9252524D01*
X58167125Y-9749669D01*
X58166656Y-10287969D01*
X58372220Y-10785474D01*
X58752524Y-11166442D01*
X59050203Y-11290049D01*
X58754526Y-11412220D01*
X58373558Y-11792524D01*
X58167125Y-12289669D01*
X58166656Y-12827969D01*
X58372220Y-13325474D01*
X58752524Y-13706442D01*
X59050203Y-13830049D01*
X58754526Y-13952220D01*
X58373558Y-14332524D01*
X58167125Y-14829669D01*
X58166656Y-15367969D01*
X58372220Y-15865474D01*
X58752524Y-16246442D01*
X59050203Y-16370049D01*
X58754526Y-16492220D01*
X58373558Y-16872524D01*
X58167125Y-17369669D01*
X58166656Y-17907969D01*
X58372220Y-18405474D01*
X58752524Y-18786442D01*
X59050203Y-18910049D01*
X58754526Y-19032220D01*
X58373558Y-19412524D01*
X58167125Y-19909669D01*
X58166656Y-20447969D01*
X58372220Y-20945474D01*
X58752524Y-21326442D01*
X59249669Y-21532875D01*
X59787969Y-21533344D01*
X60285474Y-21327780D01*
X60666442Y-20947476D01*
X60872875Y-20450331D01*
X60873344Y-19912031D01*
X60667780Y-19414526D01*
X60287476Y-19033558D01*
X59989797Y-18909951D01*
X60285474Y-18787780D01*
X60666442Y-18407476D01*
X60872875Y-17910331D01*
X60873344Y-17372031D01*
X60667780Y-16874526D01*
X60287476Y-16493558D01*
X59989797Y-16369951D01*
X60285474Y-16247780D01*
X60666442Y-15867476D01*
X60872875Y-15370331D01*
X60873344Y-14832031D01*
X60667780Y-14334526D01*
X60287476Y-13953558D01*
X59989797Y-13829951D01*
X60285474Y-13707780D01*
X60666442Y-13327476D01*
X60872875Y-12830331D01*
X60873344Y-12292031D01*
X60667780Y-11794526D01*
X60287476Y-11413558D01*
X59989797Y-11289951D01*
X60285474Y-11167780D01*
X60666442Y-10787476D01*
X60872875Y-10290331D01*
X60873344Y-9752031D01*
X60667780Y-9254526D01*
X60287476Y-8873558D01*
X59991418Y-8750624D01*
X60082286Y-8713078D01*
X60391991Y-8403913D01*
X60559808Y-7999763D01*
X60560190Y-7562156D01*
X60532106Y-7494188D01*
X61050000Y-8012082D01*
X61050000Y-12594239D01*
X60968009Y-12676087D01*
X60800192Y-13080237D01*
X60799810Y-13517844D01*
X60966922Y-13922286D01*
X61276087Y-14231991D01*
X61680237Y-14399808D01*
X62117844Y-14400190D01*
X62500000Y-14242286D01*
X62500000Y-14868630D01*
X62334315Y-15034315D01*
X62160896Y-15293853D01*
X62100000Y-15600000D01*
X62100000Y-20400000D01*
X62146608Y-20634315D01*
X62160896Y-20706147D01*
X62334315Y-20965685D01*
X62549973Y-21181343D01*
X62549810Y-21367844D01*
X62716922Y-21772286D01*
X63026087Y-22081991D01*
X63430237Y-22249808D01*
X63867844Y-22250190D01*
X64272286Y-22083078D01*
X64355509Y-22000000D01*
X65107851Y-22000000D01*
X64973442Y-22086490D01*
X64836444Y-22286993D01*
X64788246Y-22525000D01*
X64788246Y-23107723D01*
X64750000Y-23300000D01*
X64750000Y-24218629D01*
X64568630Y-24400000D01*
X59655674Y-24400000D01*
X59523913Y-24268009D01*
X59119763Y-24100192D01*
X58682156Y-24099810D01*
X58277714Y-24266922D01*
X57968009Y-24576087D01*
X57800192Y-24980237D01*
X57799810Y-25417844D01*
X57966922Y-25822286D01*
X58276087Y-26131991D01*
X58680237Y-26299808D01*
X59117844Y-26300190D01*
X59522286Y-26133078D01*
X59655596Y-26000000D01*
X64900000Y-26000000D01*
X65206147Y-25939104D01*
X65465685Y-25765685D01*
X65650060Y-25581310D01*
X65649810Y-25867844D01*
X65816922Y-26272286D01*
X66126087Y-26581991D01*
X66530237Y-26749808D01*
X66967844Y-26750190D01*
X67372286Y-26583078D01*
X67507095Y-26448504D01*
X67516922Y-26472286D01*
X67826087Y-26781991D01*
X68230237Y-26949808D01*
X68667844Y-26950190D01*
X69072286Y-26783078D01*
X69250000Y-26605674D01*
X69250000Y-27603802D01*
X69188007Y-27561444D01*
X68950000Y-27513246D01*
X68650000Y-27513246D01*
X68427654Y-27555083D01*
X68223442Y-27686490D01*
X68086444Y-27886993D01*
X68038246Y-28125000D01*
X68038246Y-28707723D01*
X68000000Y-28900000D01*
X68000000Y-29884271D01*
X67869763Y-29830192D01*
X67580378Y-29829939D01*
X67611754Y-29675000D01*
X67611754Y-28125000D01*
X67569917Y-27902654D01*
X67438510Y-27698442D01*
X67238007Y-27561444D01*
X67000000Y-27513246D01*
X66700000Y-27513246D01*
X66477654Y-27555083D01*
X66273442Y-27686490D01*
X66136444Y-27886993D01*
X66088246Y-28125000D01*
X66088246Y-29675000D01*
X66130083Y-29897346D01*
X66247618Y-30080000D01*
X65499454Y-30080000D01*
X65613556Y-29913007D01*
X65661754Y-29675000D01*
X65661754Y-28125000D01*
X65619917Y-27902654D01*
X65488510Y-27698442D01*
X65288007Y-27561444D01*
X65050000Y-27513246D01*
X64750000Y-27513246D01*
X64527654Y-27555083D01*
X64323442Y-27686490D01*
X64186444Y-27886993D01*
X64138246Y-28125000D01*
X64138246Y-29675000D01*
X64180083Y-29897346D01*
X64297618Y-30080000D01*
X61592082Y-30080000D01*
X60370089Y-28858007D01*
X60370190Y-28742156D01*
X60203078Y-28337714D01*
X59893913Y-28028009D01*
X59489763Y-27860192D01*
X59052156Y-27859810D01*
X58647714Y-28026922D01*
X58338009Y-28336087D01*
X58170192Y-28740237D01*
X58169810Y-29177844D01*
X58336922Y-29582286D01*
X58646087Y-29891991D01*
X59050237Y-30059808D01*
X59167829Y-30059911D01*
X59674986Y-30567068D01*
X59202031Y-30566656D01*
X58704526Y-30772220D01*
X58323558Y-31152524D01*
X58117125Y-31649669D01*
X58116746Y-32084441D01*
X57747714Y-32236922D01*
X57438009Y-32546087D01*
X57270192Y-32950237D01*
X57269810Y-33387844D01*
X57436922Y-33792286D01*
X57746087Y-34101991D01*
X58117067Y-34256035D01*
X58116656Y-34727969D01*
X58322220Y-35225474D01*
X58702524Y-35606442D01*
X59000203Y-35730049D01*
X58704526Y-35852220D01*
X58323558Y-36232524D01*
X58117125Y-36729669D01*
X58116656Y-37267969D01*
X58322220Y-37765474D01*
X58702524Y-38146442D01*
X59000203Y-38270049D01*
X58704526Y-38392220D01*
X58323558Y-38772524D01*
X58117125Y-39269669D01*
X58116656Y-39807969D01*
X58322220Y-40305474D01*
X58702524Y-40686442D01*
X59000203Y-40810049D01*
X58704526Y-40932220D01*
X58323558Y-41312524D01*
X58117125Y-41809669D01*
X58116656Y-42347969D01*
X58322220Y-42845474D01*
X58702524Y-43226442D01*
X59199669Y-43432875D01*
X59215030Y-43432888D01*
X58520059Y-44127859D01*
X58335802Y-44403619D01*
X58271100Y-44728900D01*
X58271100Y-47650000D01*
X50477082Y-47650000D01*
X48187082Y-45360000D01*
X54847918Y-45360000D01*
X55769911Y-46281993D01*
X55769810Y-46397844D01*
X55936922Y-46802286D01*
X56246087Y-47111991D01*
X56650237Y-47279808D01*
X57087844Y-47280190D01*
X57492286Y-47113078D01*
X57801991Y-46803913D01*
X57969808Y-46399763D01*
X57970190Y-45962156D01*
X57803078Y-45557714D01*
X57493913Y-45248009D01*
X57089763Y-45080192D01*
X56972171Y-45080089D01*
X55801041Y-43908959D01*
X55525281Y-43724702D01*
X55200000Y-43660000D01*
X42747701Y-43660000D01*
X42791041Y-43631041D01*
X42831314Y-43570768D01*
X43201993Y-43200089D01*
X43317844Y-43200190D01*
X43722286Y-43033078D01*
X44031991Y-42723913D01*
X44059078Y-42658679D01*
X44196922Y-42992286D01*
X44506087Y-43301991D01*
X44910237Y-43469808D01*
X45129999Y-43470000D01*
X45130186Y-43470000D01*
X45347844Y-43470190D01*
X45348304Y-43470000D01*
X51690000Y-43470000D01*
X52110952Y-43386267D01*
X52467817Y-43147817D01*
X54327817Y-41287818D01*
X54520257Y-40999810D01*
X54566267Y-40930952D01*
X54650000Y-40510000D01*
X54650000Y-32505634D01*
X55577817Y-31577817D01*
X56277817Y-30877818D01*
X56431991Y-30723913D01*
X56599808Y-30319763D01*
X56600190Y-29882156D01*
X56433078Y-29477714D01*
X56123913Y-29168009D01*
X55719763Y-29000192D01*
X55282156Y-28999810D01*
X54877714Y-29166922D01*
X54568009Y-29476087D01*
X54567818Y-29476547D01*
X54022183Y-30022183D01*
X52772183Y-31272183D01*
X52550000Y-31604703D01*
X52550000Y-19000000D01*
X52489104Y-18693853D01*
X52315685Y-18434315D01*
X51131370Y-17250000D01*
X54794152Y-17250000D01*
X54826087Y-17281991D01*
X55230237Y-17449808D01*
X55667844Y-17450190D01*
X56072286Y-17283078D01*
X56381991Y-16973913D01*
X56549808Y-16569763D01*
X56550190Y-16132156D01*
X56383078Y-15727714D01*
X56073913Y-15418009D01*
X55669763Y-15250192D01*
X55232156Y-15249810D01*
X54827714Y-15416922D01*
X54694404Y-15550000D01*
X51252081Y-15550000D01*
X50519110Y-14817029D01*
X50722286Y-14733078D01*
X50805509Y-14650000D01*
X54794239Y-14650000D01*
X54876087Y-14731991D01*
X55280237Y-14899808D01*
X55717844Y-14900190D01*
X56122286Y-14733078D01*
X56431991Y-14423913D01*
X56599808Y-14019763D01*
X56600190Y-13582156D01*
X56433078Y-13177714D01*
X56123913Y-12868009D01*
X55719763Y-12700192D01*
X55282156Y-12699810D01*
X54877714Y-12866922D01*
X54794491Y-12950000D01*
X50805761Y-12950000D01*
X50723913Y-12868009D01*
X50319763Y-12700192D01*
X49882156Y-12699810D01*
X49477714Y-12866922D01*
X49168009Y-13176087D01*
X49082969Y-13380887D01*
X47497340Y-11795258D01*
X47333078Y-11397714D01*
X47023913Y-11088009D01*
X46619763Y-10920192D01*
X46182156Y-10919810D01*
X45777714Y-11086922D01*
X45694491Y-11170000D01*
X42922082Y-11170000D01*
X41651041Y-9898959D01*
X41375281Y-9714702D01*
X41050000Y-9650000D01*
X39870000Y-9650000D01*
X39821779Y-9659592D01*
X39855686Y-9625685D01*
X39994998Y-9417190D01*
X40029104Y-9366147D01*
X40090000Y-9060000D01*
X40090000Y-7121370D01*
X40273134Y-6938237D01*
X40526326Y-6988600D01*
X40583674Y-6988600D01*
X41143769Y-6877190D01*
X41618595Y-6559921D01*
X41935864Y-6085095D01*
X42047274Y-5525000D01*
X41935864Y-4964905D01*
X41618595Y-4490079D01*
X41143769Y-4172810D01*
X40677337Y-4080031D01*
X40780179Y-4011314D01*
X41075424Y-3569450D01*
X41087100Y-3510751D01*
X41098776Y-3569450D01*
G36*
X27177908Y-26979990D02*
X26972156Y-26979810D01*
X26567714Y-27146922D01*
X26258009Y-27456087D01*
X26090192Y-27860237D01*
X26090089Y-27977829D01*
X25423959Y-28643959D01*
X25239702Y-28919719D01*
X25175000Y-29245000D01*
X25175000Y-35222919D01*
X24945847Y-35452072D01*
X24941267Y-35429048D01*
X24902826Y-35371517D01*
X24833078Y-35202714D01*
X24702905Y-35072313D01*
X24702817Y-35072182D01*
X24678480Y-35047846D01*
X24523913Y-34893009D01*
X24119763Y-34725192D01*
X23682156Y-34724810D01*
X23277714Y-34891922D01*
X22968009Y-35201087D01*
X22800192Y-35605237D01*
X22799810Y-36042844D01*
X22966922Y-36447286D01*
X23075000Y-36555553D01*
X23075000Y-38112226D01*
X22998442Y-38161490D01*
X22861444Y-38361993D01*
X22813246Y-38600000D01*
X22813246Y-40100000D01*
X22855083Y-40322346D01*
X22986490Y-40526558D01*
X23186993Y-40663556D01*
X23425000Y-40711754D01*
X24425000Y-40711754D01*
X24612646Y-40676446D01*
X24787000Y-40711754D01*
X25787000Y-40711754D01*
X26009346Y-40669917D01*
X26213558Y-40538510D01*
X26350556Y-40338007D01*
X26398754Y-40100000D01*
X26398754Y-38600000D01*
X26356917Y-38377654D01*
X26225510Y-38173442D01*
X26137000Y-38112966D01*
X26137000Y-36665082D01*
X26626038Y-36176043D01*
X26626041Y-36176041D01*
X26810298Y-35900281D01*
X26819858Y-35852220D01*
X26875001Y-35575000D01*
X26875000Y-35574995D01*
X26875000Y-29597082D01*
X27291993Y-29180089D01*
X27407844Y-29180190D01*
X27812286Y-29013078D01*
X28121991Y-28703913D01*
X28289808Y-28299763D01*
X28289989Y-28092071D01*
X30425000Y-30227082D01*
X30425000Y-38087226D01*
X30348442Y-38136490D01*
X30211444Y-38336993D01*
X30163246Y-38575000D01*
X30163246Y-40075000D01*
X30205083Y-40297346D01*
X30336490Y-40501558D01*
X30425000Y-40562034D01*
X30425000Y-42075000D01*
X30489702Y-42400281D01*
X30673959Y-42676041D01*
X31628959Y-43631041D01*
X31672299Y-43660000D01*
X27642082Y-43660000D01*
X28176041Y-43126041D01*
X28360298Y-42850281D01*
X28425000Y-42525000D01*
X28425000Y-40709324D01*
X28437000Y-40711754D01*
X29437000Y-40711754D01*
X29659346Y-40669917D01*
X29863558Y-40538510D01*
X30000556Y-40338007D01*
X30048754Y-40100000D01*
X30048754Y-38600000D01*
X30006917Y-38377654D01*
X29875510Y-38173442D01*
X29787000Y-38112966D01*
X29787000Y-31268686D01*
X29911991Y-31143913D01*
X30079808Y-30739763D01*
X30080190Y-30302156D01*
X29913078Y-29897714D01*
X29603913Y-29588009D01*
X29199763Y-29420192D01*
X28762156Y-29419810D01*
X28357714Y-29586922D01*
X28048009Y-29896087D01*
X27880192Y-30300237D01*
X27879810Y-30737844D01*
X28046922Y-31142286D01*
X28087000Y-31182434D01*
X28087000Y-37990676D01*
X28075000Y-37988246D01*
X27075000Y-37988246D01*
X26852654Y-38030083D01*
X26648442Y-38161490D01*
X26511444Y-38361993D01*
X26463246Y-38600000D01*
X26463246Y-40100000D01*
X26505083Y-40322346D01*
X26636490Y-40526558D01*
X26725000Y-40587034D01*
X26725000Y-42172918D01*
X26347918Y-42550000D01*
X22802082Y-42550000D01*
X22500000Y-42247918D01*
X22500000Y-40587774D01*
X22576558Y-40538510D01*
X22713556Y-40338007D01*
X22761754Y-40100000D01*
X22761754Y-38600000D01*
X22719917Y-38377654D01*
X22588510Y-38173442D01*
X22500000Y-38112966D01*
X22500000Y-23120000D01*
X22435298Y-22794719D01*
X22251041Y-22518959D01*
X18090089Y-18358007D01*
X18090190Y-18242156D01*
X17923078Y-17837714D01*
X17613913Y-17528009D01*
X17209763Y-17360192D01*
X16772156Y-17359810D01*
X16367714Y-17526922D01*
X16058009Y-17836087D01*
X15890192Y-18240237D01*
X15889810Y-18677844D01*
X16056922Y-19082286D01*
X16366087Y-19391991D01*
X16770237Y-19559808D01*
X16887829Y-19559911D01*
X20800000Y-23472082D01*
X20800000Y-37307919D01*
X19520000Y-36027918D01*
X19520000Y-23100000D01*
X19455298Y-22774719D01*
X19271041Y-22498959D01*
X18310089Y-21538007D01*
X18310190Y-21422156D01*
X18143078Y-21017714D01*
X17833913Y-20708009D01*
X17429763Y-20540192D01*
X16992156Y-20539810D01*
X16587714Y-20706922D01*
X16278009Y-21016087D01*
X16110192Y-21420237D01*
X16109810Y-21857844D01*
X16276922Y-22262286D01*
X16586087Y-22571991D01*
X16990237Y-22739808D01*
X17107829Y-22739911D01*
X17820000Y-23452082D01*
X17820000Y-36380000D01*
X17884702Y-36705281D01*
X18068959Y-36981041D01*
X19315966Y-38228047D01*
X19224444Y-38361993D01*
X19176246Y-38600000D01*
X19176246Y-40100000D01*
X19218083Y-40322346D01*
X19349490Y-40526558D01*
X19438000Y-40587034D01*
X19438000Y-43198000D01*
X19502702Y-43523281D01*
X19686959Y-43799041D01*
X20712918Y-44825000D01*
X19952082Y-44825000D01*
X18812000Y-43684918D01*
X18812000Y-40587774D01*
X18888558Y-40538510D01*
X19025556Y-40338007D01*
X19073754Y-40100000D01*
X19073754Y-38600000D01*
X19031917Y-38377654D01*
X18900510Y-38173442D01*
X18700007Y-38036444D01*
X18462000Y-37988246D01*
X17462000Y-37988246D01*
X17450000Y-37990504D01*
X17450000Y-37525000D01*
X17385298Y-37199719D01*
X17201041Y-36923959D01*
X16900089Y-36623007D01*
X16900190Y-36507156D01*
X16733078Y-36102714D01*
X16650000Y-36019491D01*
X16650000Y-25370000D01*
X16585298Y-25044719D01*
X16401041Y-24768959D01*
X15830000Y-24197918D01*
X15830000Y-16875761D01*
X15911991Y-16793913D01*
X16079808Y-16389763D01*
X16080190Y-15952156D01*
X16030982Y-15833064D01*
X27177908Y-26979990D01*
X27177908Y-26979990D01*
G37*
X27177908Y-26979990D02*
X26972156Y-26979810D01*
X26567714Y-27146922D01*
X26258009Y-27456087D01*
X26090192Y-27860237D01*
X26090089Y-27977829D01*
X25423959Y-28643959D01*
X25239702Y-28919719D01*
X25175000Y-29245000D01*
X25175000Y-35222919D01*
X24945847Y-35452072D01*
X24941267Y-35429048D01*
X24902826Y-35371517D01*
X24833078Y-35202714D01*
X24702905Y-35072313D01*
X24702817Y-35072182D01*
X24678480Y-35047846D01*
X24523913Y-34893009D01*
X24119763Y-34725192D01*
X23682156Y-34724810D01*
X23277714Y-34891922D01*
X22968009Y-35201087D01*
X22800192Y-35605237D01*
X22799810Y-36042844D01*
X22966922Y-36447286D01*
X23075000Y-36555553D01*
X23075000Y-38112226D01*
X22998442Y-38161490D01*
X22861444Y-38361993D01*
X22813246Y-38600000D01*
X22813246Y-40100000D01*
X22855083Y-40322346D01*
X22986490Y-40526558D01*
X23186993Y-40663556D01*
X23425000Y-40711754D01*
X24425000Y-40711754D01*
X24612646Y-40676446D01*
X24787000Y-40711754D01*
X25787000Y-40711754D01*
X26009346Y-40669917D01*
X26213558Y-40538510D01*
X26350556Y-40338007D01*
X26398754Y-40100000D01*
X26398754Y-38600000D01*
X26356917Y-38377654D01*
X26225510Y-38173442D01*
X26137000Y-38112966D01*
X26137000Y-36665082D01*
X26626038Y-36176043D01*
X26626041Y-36176041D01*
X26810298Y-35900281D01*
X26819858Y-35852220D01*
X26875001Y-35575000D01*
X26875000Y-35574995D01*
X26875000Y-29597082D01*
X27291993Y-29180089D01*
X27407844Y-29180190D01*
X27812286Y-29013078D01*
X28121991Y-28703913D01*
X28289808Y-28299763D01*
X28289989Y-28092071D01*
X30425000Y-30227082D01*
X30425000Y-38087226D01*
X30348442Y-38136490D01*
X30211444Y-38336993D01*
X30163246Y-38575000D01*
X30163246Y-40075000D01*
X30205083Y-40297346D01*
X30336490Y-40501558D01*
X30425000Y-40562034D01*
X30425000Y-42075000D01*
X30489702Y-42400281D01*
X30673959Y-42676041D01*
X31628959Y-43631041D01*
X31672299Y-43660000D01*
X27642082Y-43660000D01*
X28176041Y-43126041D01*
X28360298Y-42850281D01*
X28425000Y-42525000D01*
X28425000Y-40709324D01*
X28437000Y-40711754D01*
X29437000Y-40711754D01*
X29659346Y-40669917D01*
X29863558Y-40538510D01*
X30000556Y-40338007D01*
X30048754Y-40100000D01*
X30048754Y-38600000D01*
X30006917Y-38377654D01*
X29875510Y-38173442D01*
X29787000Y-38112966D01*
X29787000Y-31268686D01*
X29911991Y-31143913D01*
X30079808Y-30739763D01*
X30080190Y-30302156D01*
X29913078Y-29897714D01*
X29603913Y-29588009D01*
X29199763Y-29420192D01*
X28762156Y-29419810D01*
X28357714Y-29586922D01*
X28048009Y-29896087D01*
X27880192Y-30300237D01*
X27879810Y-30737844D01*
X28046922Y-31142286D01*
X28087000Y-31182434D01*
X28087000Y-37990676D01*
X28075000Y-37988246D01*
X27075000Y-37988246D01*
X26852654Y-38030083D01*
X26648442Y-38161490D01*
X26511444Y-38361993D01*
X26463246Y-38600000D01*
X26463246Y-40100000D01*
X26505083Y-40322346D01*
X26636490Y-40526558D01*
X26725000Y-40587034D01*
X26725000Y-42172918D01*
X26347918Y-42550000D01*
X22802082Y-42550000D01*
X22500000Y-42247918D01*
X22500000Y-40587774D01*
X22576558Y-40538510D01*
X22713556Y-40338007D01*
X22761754Y-40100000D01*
X22761754Y-38600000D01*
X22719917Y-38377654D01*
X22588510Y-38173442D01*
X22500000Y-38112966D01*
X22500000Y-23120000D01*
X22435298Y-22794719D01*
X22251041Y-22518959D01*
X18090089Y-18358007D01*
X18090190Y-18242156D01*
X17923078Y-17837714D01*
X17613913Y-17528009D01*
X17209763Y-17360192D01*
X16772156Y-17359810D01*
X16367714Y-17526922D01*
X16058009Y-17836087D01*
X15890192Y-18240237D01*
X15889810Y-18677844D01*
X16056922Y-19082286D01*
X16366087Y-19391991D01*
X16770237Y-19559808D01*
X16887829Y-19559911D01*
X20800000Y-23472082D01*
X20800000Y-37307919D01*
X19520000Y-36027918D01*
X19520000Y-23100000D01*
X19455298Y-22774719D01*
X19271041Y-22498959D01*
X18310089Y-21538007D01*
X18310190Y-21422156D01*
X18143078Y-21017714D01*
X17833913Y-20708009D01*
X17429763Y-20540192D01*
X16992156Y-20539810D01*
X16587714Y-20706922D01*
X16278009Y-21016087D01*
X16110192Y-21420237D01*
X16109810Y-21857844D01*
X16276922Y-22262286D01*
X16586087Y-22571991D01*
X16990237Y-22739808D01*
X17107829Y-22739911D01*
X17820000Y-23452082D01*
X17820000Y-36380000D01*
X17884702Y-36705281D01*
X18068959Y-36981041D01*
X19315966Y-38228047D01*
X19224444Y-38361993D01*
X19176246Y-38600000D01*
X19176246Y-40100000D01*
X19218083Y-40322346D01*
X19349490Y-40526558D01*
X19438000Y-40587034D01*
X19438000Y-43198000D01*
X19502702Y-43523281D01*
X19686959Y-43799041D01*
X20712918Y-44825000D01*
X19952082Y-44825000D01*
X18812000Y-43684918D01*
X18812000Y-40587774D01*
X18888558Y-40538510D01*
X19025556Y-40338007D01*
X19073754Y-40100000D01*
X19073754Y-38600000D01*
X19031917Y-38377654D01*
X18900510Y-38173442D01*
X18700007Y-38036444D01*
X18462000Y-37988246D01*
X17462000Y-37988246D01*
X17450000Y-37990504D01*
X17450000Y-37525000D01*
X17385298Y-37199719D01*
X17201041Y-36923959D01*
X16900089Y-36623007D01*
X16900190Y-36507156D01*
X16733078Y-36102714D01*
X16650000Y-36019491D01*
X16650000Y-25370000D01*
X16585298Y-25044719D01*
X16401041Y-24768959D01*
X15830000Y-24197918D01*
X15830000Y-16875761D01*
X15911991Y-16793913D01*
X16079808Y-16389763D01*
X16080190Y-15952156D01*
X16030982Y-15833064D01*
X27177908Y-26979990D01*
G36*
X46384314Y-14765685D02*
X46384317Y-14765687D01*
X50950000Y-19331370D01*
X50950000Y-36944326D01*
X50818009Y-37076087D01*
X50650192Y-37480237D01*
X50649810Y-37917844D01*
X50816922Y-38322286D01*
X51126087Y-38631991D01*
X51530237Y-38799808D01*
X51967844Y-38800190D01*
X52372286Y-38633078D01*
X52450000Y-38555500D01*
X52450000Y-40054365D01*
X52222771Y-40281595D01*
X52093078Y-39967714D01*
X51783913Y-39658009D01*
X51379763Y-39490192D01*
X50942156Y-39489810D01*
X50537714Y-39656922D01*
X50454491Y-39740000D01*
X42220000Y-39740000D01*
X41894719Y-39804702D01*
X41618959Y-39988959D01*
X40837918Y-40770000D01*
X36232082Y-40770000D01*
X36173836Y-40711754D01*
X36950000Y-40711754D01*
X37172346Y-40669917D01*
X37376558Y-40538510D01*
X37513556Y-40338007D01*
X37561754Y-40100000D01*
X37561754Y-38600000D01*
X37519917Y-38377654D01*
X37405600Y-38200000D01*
X41844239Y-38200000D01*
X41926087Y-38281991D01*
X42330237Y-38449808D01*
X42767844Y-38450190D01*
X43172286Y-38283078D01*
X43481991Y-37973913D01*
X43649808Y-37569763D01*
X43650190Y-37132156D01*
X43483078Y-36727714D01*
X43330635Y-36575005D01*
X43481991Y-36423913D01*
X43649808Y-36019763D01*
X43650190Y-35582156D01*
X43483078Y-35177714D01*
X43173913Y-34868009D01*
X42769763Y-34700192D01*
X42332156Y-34699810D01*
X41927714Y-34866922D01*
X41844491Y-34950000D01*
X38700000Y-34950000D01*
X38700000Y-31350000D01*
X38635298Y-31024719D01*
X38451041Y-30748959D01*
X38451038Y-30748957D01*
X36801041Y-29098959D01*
X36781761Y-29079679D01*
X36830237Y-29099808D01*
X37267844Y-29100190D01*
X37672286Y-28933078D01*
X37981991Y-28623913D01*
X38149808Y-28219763D01*
X38150190Y-27782156D01*
X38103572Y-27669332D01*
X38186087Y-27751991D01*
X38590237Y-27919808D01*
X39027844Y-27920190D01*
X39432286Y-27753078D01*
X39515509Y-27670000D01*
X41964239Y-27670000D01*
X42046087Y-27751991D01*
X42450237Y-27919808D01*
X42887844Y-27920190D01*
X43292286Y-27753078D01*
X43601991Y-27443913D01*
X43675094Y-27267861D01*
X43676922Y-27272286D01*
X43986087Y-27581991D01*
X44390237Y-27749808D01*
X44827844Y-27750190D01*
X45232286Y-27583078D01*
X45541991Y-27273913D01*
X45709808Y-26869763D01*
X45709911Y-26752171D01*
X46060000Y-26402082D01*
X46060000Y-27139817D01*
X46052156Y-27139810D01*
X45647714Y-27306922D01*
X45338009Y-27616087D01*
X45170192Y-28020237D01*
X45169810Y-28457844D01*
X45336922Y-28862286D01*
X45646087Y-29171991D01*
X46050237Y-29339808D01*
X46487844Y-29340190D01*
X46892286Y-29173078D01*
X47201991Y-28863913D01*
X47270000Y-28700128D01*
X47270000Y-33874239D01*
X47188009Y-33956087D01*
X47020192Y-34360237D01*
X47019810Y-34797844D01*
X47186922Y-35202286D01*
X47496087Y-35511991D01*
X47900237Y-35679808D01*
X48337844Y-35680190D01*
X48742286Y-35513078D01*
X49051991Y-35203913D01*
X49219808Y-34799763D01*
X49220190Y-34362156D01*
X49152184Y-34197570D01*
X49350237Y-34279808D01*
X49787844Y-34280190D01*
X50192286Y-34113078D01*
X50501991Y-33803913D01*
X50669808Y-33399763D01*
X50670190Y-32962156D01*
X50503078Y-32557714D01*
X50420000Y-32474491D01*
X50420000Y-19370000D01*
X50355298Y-19044719D01*
X50171041Y-18768959D01*
X46225089Y-14823007D01*
X46225153Y-14750000D01*
X46368629Y-14750000D01*
X46384314Y-14765685D01*
X46384314Y-14765685D01*
G37*
X46384314Y-14765685D02*
X46384317Y-14765687D01*
X50950000Y-19331370D01*
X50950000Y-36944326D01*
X50818009Y-37076087D01*
X50650192Y-37480237D01*
X50649810Y-37917844D01*
X50816922Y-38322286D01*
X51126087Y-38631991D01*
X51530237Y-38799808D01*
X51967844Y-38800190D01*
X52372286Y-38633078D01*
X52450000Y-38555500D01*
X52450000Y-40054365D01*
X52222771Y-40281595D01*
X52093078Y-39967714D01*
X51783913Y-39658009D01*
X51379763Y-39490192D01*
X50942156Y-39489810D01*
X50537714Y-39656922D01*
X50454491Y-39740000D01*
X42220000Y-39740000D01*
X41894719Y-39804702D01*
X41618959Y-39988959D01*
X40837918Y-40770000D01*
X36232082Y-40770000D01*
X36173836Y-40711754D01*
X36950000Y-40711754D01*
X37172346Y-40669917D01*
X37376558Y-40538510D01*
X37513556Y-40338007D01*
X37561754Y-40100000D01*
X37561754Y-38600000D01*
X37519917Y-38377654D01*
X37405600Y-38200000D01*
X41844239Y-38200000D01*
X41926087Y-38281991D01*
X42330237Y-38449808D01*
X42767844Y-38450190D01*
X43172286Y-38283078D01*
X43481991Y-37973913D01*
X43649808Y-37569763D01*
X43650190Y-37132156D01*
X43483078Y-36727714D01*
X43330635Y-36575005D01*
X43481991Y-36423913D01*
X43649808Y-36019763D01*
X43650190Y-35582156D01*
X43483078Y-35177714D01*
X43173913Y-34868009D01*
X42769763Y-34700192D01*
X42332156Y-34699810D01*
X41927714Y-34866922D01*
X41844491Y-34950000D01*
X38700000Y-34950000D01*
X38700000Y-31350000D01*
X38635298Y-31024719D01*
X38451041Y-30748959D01*
X38451038Y-30748957D01*
X36801041Y-29098959D01*
X36781761Y-29079679D01*
X36830237Y-29099808D01*
X37267844Y-29100190D01*
X37672286Y-28933078D01*
X37981991Y-28623913D01*
X38149808Y-28219763D01*
X38150190Y-27782156D01*
X38103572Y-27669332D01*
X38186087Y-27751991D01*
X38590237Y-27919808D01*
X39027844Y-27920190D01*
X39432286Y-27753078D01*
X39515509Y-27670000D01*
X41964239Y-27670000D01*
X42046087Y-27751991D01*
X42450237Y-27919808D01*
X42887844Y-27920190D01*
X43292286Y-27753078D01*
X43601991Y-27443913D01*
X43675094Y-27267861D01*
X43676922Y-27272286D01*
X43986087Y-27581991D01*
X44390237Y-27749808D01*
X44827844Y-27750190D01*
X45232286Y-27583078D01*
X45541991Y-27273913D01*
X45709808Y-26869763D01*
X45709911Y-26752171D01*
X46060000Y-26402082D01*
X46060000Y-27139817D01*
X46052156Y-27139810D01*
X45647714Y-27306922D01*
X45338009Y-27616087D01*
X45170192Y-28020237D01*
X45169810Y-28457844D01*
X45336922Y-28862286D01*
X45646087Y-29171991D01*
X46050237Y-29339808D01*
X46487844Y-29340190D01*
X46892286Y-29173078D01*
X47201991Y-28863913D01*
X47270000Y-28700128D01*
X47270000Y-33874239D01*
X47188009Y-33956087D01*
X47020192Y-34360237D01*
X47019810Y-34797844D01*
X47186922Y-35202286D01*
X47496087Y-35511991D01*
X47900237Y-35679808D01*
X48337844Y-35680190D01*
X48742286Y-35513078D01*
X49051991Y-35203913D01*
X49219808Y-34799763D01*
X49220190Y-34362156D01*
X49152184Y-34197570D01*
X49350237Y-34279808D01*
X49787844Y-34280190D01*
X50192286Y-34113078D01*
X50501991Y-33803913D01*
X50669808Y-33399763D01*
X50670190Y-32962156D01*
X50503078Y-32557714D01*
X50420000Y-32474491D01*
X50420000Y-19370000D01*
X50355298Y-19044719D01*
X50171041Y-18768959D01*
X46225089Y-14823007D01*
X46225153Y-14750000D01*
X46368629Y-14750000D01*
X46384314Y-14765685D01*
G36*
X21711405Y-6559921D02*
X22063225Y-6795000D01*
X21711405Y-7030079D01*
X21394136Y-7504905D01*
X21282726Y-8065000D01*
X21394136Y-8625095D01*
X21711405Y-9099921D01*
X22186231Y-9417190D01*
X22746326Y-9528600D01*
X22803674Y-9528600D01*
X23363769Y-9417190D01*
X23838595Y-9099921D01*
X24045000Y-8791014D01*
X24251405Y-9099921D01*
X24726231Y-9417190D01*
X25286326Y-9528600D01*
X25343674Y-9528600D01*
X25490070Y-9499480D01*
X25489810Y-9797844D01*
X25656922Y-10202286D01*
X25741369Y-10286880D01*
X25804702Y-10605281D01*
X25988959Y-10881041D01*
X28439911Y-13331993D01*
X28439810Y-13447844D01*
X28606922Y-13852286D01*
X28916087Y-14161991D01*
X29320237Y-14329808D01*
X29757844Y-14330190D01*
X30162286Y-14163078D01*
X30471991Y-13853913D01*
X30639808Y-13449763D01*
X30640190Y-13012156D01*
X30473078Y-12607714D01*
X30163913Y-12298009D01*
X29759763Y-12130192D01*
X29642171Y-12130089D01*
X27578912Y-10066830D01*
X27689808Y-9799763D01*
X27690068Y-9501497D01*
X27826326Y-9528600D01*
X27883674Y-9528600D01*
X28443769Y-9417190D01*
X28918595Y-9099921D01*
X29125000Y-8791014D01*
X29331405Y-9099921D01*
X29806231Y-9417190D01*
X30366326Y-9528600D01*
X30423674Y-9528600D01*
X30983769Y-9417190D01*
X31458595Y-9099921D01*
X31665000Y-8791014D01*
X31871405Y-9099921D01*
X32346231Y-9417190D01*
X32906326Y-9528600D01*
X32963674Y-9528600D01*
X33130118Y-9495492D01*
X33129810Y-9847844D01*
X33296922Y-10252286D01*
X33606087Y-10561991D01*
X33734155Y-10615169D01*
X33518959Y-10758959D01*
X33518957Y-10758962D01*
X32598959Y-11678959D01*
X32542477Y-11763490D01*
X32383078Y-11377714D01*
X32073913Y-11068009D01*
X31669763Y-10900192D01*
X31232156Y-10899810D01*
X30827714Y-11066922D01*
X30518009Y-11376087D01*
X30350192Y-11780237D01*
X30349810Y-12217844D01*
X30516922Y-12622286D01*
X30800000Y-12905858D01*
X30800000Y-22044578D01*
X30523913Y-21768009D01*
X30119763Y-21600192D01*
X30002171Y-21600089D01*
X28700000Y-20297918D01*
X28700000Y-18600005D01*
X28700001Y-18600000D01*
X28635298Y-18274719D01*
X28451041Y-17998959D01*
X19076082Y-8624000D01*
X19187274Y-8065000D01*
X19075864Y-7504905D01*
X18758595Y-7030079D01*
X18406775Y-6795000D01*
X18758595Y-6559921D01*
X18965000Y-6251014D01*
X19171405Y-6559921D01*
X19646231Y-6877190D01*
X20206326Y-6988600D01*
X20263674Y-6988600D01*
X20823769Y-6877190D01*
X21298595Y-6559921D01*
X21505000Y-6251014D01*
X21711405Y-6559921D01*
X21711405Y-6559921D01*
G37*
X21711405Y-6559921D02*
X22063225Y-6795000D01*
X21711405Y-7030079D01*
X21394136Y-7504905D01*
X21282726Y-8065000D01*
X21394136Y-8625095D01*
X21711405Y-9099921D01*
X22186231Y-9417190D01*
X22746326Y-9528600D01*
X22803674Y-9528600D01*
X23363769Y-9417190D01*
X23838595Y-9099921D01*
X24045000Y-8791014D01*
X24251405Y-9099921D01*
X24726231Y-9417190D01*
X25286326Y-9528600D01*
X25343674Y-9528600D01*
X25490070Y-9499480D01*
X25489810Y-9797844D01*
X25656922Y-10202286D01*
X25741369Y-10286880D01*
X25804702Y-10605281D01*
X25988959Y-10881041D01*
X28439911Y-13331993D01*
X28439810Y-13447844D01*
X28606922Y-13852286D01*
X28916087Y-14161991D01*
X29320237Y-14329808D01*
X29757844Y-14330190D01*
X30162286Y-14163078D01*
X30471991Y-13853913D01*
X30639808Y-13449763D01*
X30640190Y-13012156D01*
X30473078Y-12607714D01*
X30163913Y-12298009D01*
X29759763Y-12130192D01*
X29642171Y-12130089D01*
X27578912Y-10066830D01*
X27689808Y-9799763D01*
X27690068Y-9501497D01*
X27826326Y-9528600D01*
X27883674Y-9528600D01*
X28443769Y-9417190D01*
X28918595Y-9099921D01*
X29125000Y-8791014D01*
X29331405Y-9099921D01*
X29806231Y-9417190D01*
X30366326Y-9528600D01*
X30423674Y-9528600D01*
X30983769Y-9417190D01*
X31458595Y-9099921D01*
X31665000Y-8791014D01*
X31871405Y-9099921D01*
X32346231Y-9417190D01*
X32906326Y-9528600D01*
X32963674Y-9528600D01*
X33130118Y-9495492D01*
X33129810Y-9847844D01*
X33296922Y-10252286D01*
X33606087Y-10561991D01*
X33734155Y-10615169D01*
X33518959Y-10758959D01*
X33518957Y-10758962D01*
X32598959Y-11678959D01*
X32542477Y-11763490D01*
X32383078Y-11377714D01*
X32073913Y-11068009D01*
X31669763Y-10900192D01*
X31232156Y-10899810D01*
X30827714Y-11066922D01*
X30518009Y-11376087D01*
X30350192Y-11780237D01*
X30349810Y-12217844D01*
X30516922Y-12622286D01*
X30800000Y-12905858D01*
X30800000Y-22044578D01*
X30523913Y-21768009D01*
X30119763Y-21600192D01*
X30002171Y-21600089D01*
X28700000Y-20297918D01*
X28700000Y-18600005D01*
X28700001Y-18600000D01*
X28635298Y-18274719D01*
X28451041Y-17998959D01*
X19076082Y-8624000D01*
X19187274Y-8065000D01*
X19075864Y-7504905D01*
X18758595Y-7030079D01*
X18406775Y-6795000D01*
X18758595Y-6559921D01*
X18965000Y-6251014D01*
X19171405Y-6559921D01*
X19646231Y-6877190D01*
X20206326Y-6988600D01*
X20263674Y-6988600D01*
X20823769Y-6877190D01*
X21298595Y-6559921D01*
X21505000Y-6251014D01*
X21711405Y-6559921D01*
G36*
X81325000Y-21272918D02*
X78051041Y-17998959D01*
X77775281Y-17814702D01*
X77700585Y-17799844D01*
X77657205Y-17694857D01*
X77207511Y-17244377D01*
X76619656Y-17000278D01*
X75983137Y-16999723D01*
X75394857Y-17242795D01*
X75374850Y-17262768D01*
X75060000Y-16947918D01*
X75060000Y-13315761D01*
X75141991Y-13233913D01*
X75309808Y-12829763D01*
X75310190Y-12392156D01*
X75296812Y-12359779D01*
X75392489Y-12455623D01*
X75980344Y-12699722D01*
X76616863Y-12700277D01*
X77205143Y-12457205D01*
X77655623Y-12007511D01*
X77899722Y-11419656D01*
X77900277Y-10783137D01*
X77657205Y-10194857D01*
X77312743Y-9849793D01*
X77655623Y-9507511D01*
X77899722Y-8919656D01*
X77900277Y-8283137D01*
X77657205Y-7694857D01*
X77312743Y-7349793D01*
X77655623Y-7007511D01*
X77899722Y-6419656D01*
X77900277Y-5783137D01*
X77657205Y-5194857D01*
X77207511Y-4744377D01*
X76619656Y-4500278D01*
X75983137Y-4499723D01*
X75394857Y-4742795D01*
X74944377Y-5192489D01*
X74700278Y-5780344D01*
X74699723Y-6416863D01*
X74942795Y-7005143D01*
X75287257Y-7350207D01*
X74944377Y-7692489D01*
X74700278Y-8280344D01*
X74699723Y-8916863D01*
X74942795Y-9505143D01*
X75287257Y-9850207D01*
X74944377Y-10192489D01*
X74920496Y-10250000D01*
X73620000Y-10250000D01*
X73294719Y-10314702D01*
X73018959Y-10498959D01*
X71968959Y-11548959D01*
X71784702Y-11824719D01*
X71720000Y-12150000D01*
X71720000Y-12464264D01*
X71623913Y-12368009D01*
X71219763Y-12200192D01*
X71000001Y-12200000D01*
X70999814Y-12200000D01*
X70782156Y-12199810D01*
X70781696Y-12200000D01*
X70100000Y-12200000D01*
X70100000Y-11531024D01*
X70163556Y-11438007D01*
X70211754Y-11200000D01*
X70211754Y-10300000D01*
X70169917Y-10077654D01*
X70100000Y-9969000D01*
X70100000Y-9031024D01*
X70163556Y-8938007D01*
X70211754Y-8700000D01*
X70211754Y-7800000D01*
X70169917Y-7577654D01*
X70100000Y-7469000D01*
X70100000Y-6531024D01*
X70163556Y-6438007D01*
X70211754Y-6200000D01*
X70211754Y-5300000D01*
X70189466Y-5181548D01*
X72499911Y-7491993D01*
X72499810Y-7607844D01*
X72666922Y-8012286D01*
X72976087Y-8321991D01*
X73380237Y-8489808D01*
X73817844Y-8490190D01*
X74222286Y-8323078D01*
X74531991Y-8013913D01*
X74699808Y-7609763D01*
X74700190Y-7172156D01*
X74533078Y-6767714D01*
X74223913Y-6458009D01*
X73819763Y-6290192D01*
X73702171Y-6290089D01*
X70741041Y-3328959D01*
X70465281Y-3144702D01*
X70140000Y-3080000D01*
X65750005Y-3080000D01*
X65750000Y-3079999D01*
X65548822Y-3120016D01*
X65563100Y-3048235D01*
X65563100Y-1958965D01*
X65459424Y-1437750D01*
X65164179Y-995886D01*
X64722315Y-700641D01*
X64201100Y-596965D01*
X63679885Y-700641D01*
X63238021Y-995886D01*
X62942776Y-1437750D01*
X62931100Y-1496449D01*
X62919424Y-1437750D01*
X62624179Y-995886D01*
X62182315Y-700641D01*
X61661100Y-596965D01*
X61139885Y-700641D01*
X60698021Y-995886D01*
X60402776Y-1437750D01*
X60391100Y-1496449D01*
X60379424Y-1437750D01*
X60084179Y-995886D01*
X59642315Y-700641D01*
X59121100Y-596965D01*
X58599885Y-700641D01*
X58158021Y-995886D01*
X57862776Y-1437750D01*
X57851100Y-1496449D01*
X57839424Y-1437750D01*
X57544179Y-995886D01*
X57102315Y-700641D01*
X56581100Y-596965D01*
X56059885Y-700641D01*
X55618021Y-995886D01*
X55322776Y-1437750D01*
X55311100Y-1496449D01*
X55299424Y-1437750D01*
X55004179Y-995886D01*
X54562315Y-700641D01*
X54041100Y-596965D01*
X53519885Y-700641D01*
X53078021Y-995886D01*
X52782776Y-1437750D01*
X52771100Y-1496449D01*
X52759424Y-1437750D01*
X52464179Y-995886D01*
X52022315Y-700641D01*
X51501100Y-596965D01*
X50979885Y-700641D01*
X50538021Y-995886D01*
X50242776Y-1437750D01*
X50231100Y-1496449D01*
X50219424Y-1437750D01*
X49924179Y-995886D01*
X49482315Y-700641D01*
X48961100Y-596965D01*
X48439885Y-700641D01*
X47998021Y-995886D01*
X47702776Y-1437750D01*
X47691100Y-1496449D01*
X47679424Y-1437750D01*
X47384179Y-995886D01*
X46942315Y-700641D01*
X46421100Y-596965D01*
X45899885Y-700641D01*
X45458021Y-995886D01*
X45217673Y-1355591D01*
X44337082Y-475000D01*
X81325000Y-475000D01*
X81325000Y-21272918D01*
X81325000Y-21272918D01*
G37*
X81325000Y-21272918D02*
X78051041Y-17998959D01*
X77775281Y-17814702D01*
X77700585Y-17799844D01*
X77657205Y-17694857D01*
X77207511Y-17244377D01*
X76619656Y-17000278D01*
X75983137Y-16999723D01*
X75394857Y-17242795D01*
X75374850Y-17262768D01*
X75060000Y-16947918D01*
X75060000Y-13315761D01*
X75141991Y-13233913D01*
X75309808Y-12829763D01*
X75310190Y-12392156D01*
X75296812Y-12359779D01*
X75392489Y-12455623D01*
X75980344Y-12699722D01*
X76616863Y-12700277D01*
X77205143Y-12457205D01*
X77655623Y-12007511D01*
X77899722Y-11419656D01*
X77900277Y-10783137D01*
X77657205Y-10194857D01*
X77312743Y-9849793D01*
X77655623Y-9507511D01*
X77899722Y-8919656D01*
X77900277Y-8283137D01*
X77657205Y-7694857D01*
X77312743Y-7349793D01*
X77655623Y-7007511D01*
X77899722Y-6419656D01*
X77900277Y-5783137D01*
X77657205Y-5194857D01*
X77207511Y-4744377D01*
X76619656Y-4500278D01*
X75983137Y-4499723D01*
X75394857Y-4742795D01*
X74944377Y-5192489D01*
X74700278Y-5780344D01*
X74699723Y-6416863D01*
X74942795Y-7005143D01*
X75287257Y-7350207D01*
X74944377Y-7692489D01*
X74700278Y-8280344D01*
X74699723Y-8916863D01*
X74942795Y-9505143D01*
X75287257Y-9850207D01*
X74944377Y-10192489D01*
X74920496Y-10250000D01*
X73620000Y-10250000D01*
X73294719Y-10314702D01*
X73018959Y-10498959D01*
X71968959Y-11548959D01*
X71784702Y-11824719D01*
X71720000Y-12150000D01*
X71720000Y-12464264D01*
X71623913Y-12368009D01*
X71219763Y-12200192D01*
X71000001Y-12200000D01*
X70999814Y-12200000D01*
X70782156Y-12199810D01*
X70781696Y-12200000D01*
X70100000Y-12200000D01*
X70100000Y-11531024D01*
X70163556Y-11438007D01*
X70211754Y-11200000D01*
X70211754Y-10300000D01*
X70169917Y-10077654D01*
X70100000Y-9969000D01*
X70100000Y-9031024D01*
X70163556Y-8938007D01*
X70211754Y-8700000D01*
X70211754Y-7800000D01*
X70169917Y-7577654D01*
X70100000Y-7469000D01*
X70100000Y-6531024D01*
X70163556Y-6438007D01*
X70211754Y-6200000D01*
X70211754Y-5300000D01*
X70189466Y-5181548D01*
X72499911Y-7491993D01*
X72499810Y-7607844D01*
X72666922Y-8012286D01*
X72976087Y-8321991D01*
X73380237Y-8489808D01*
X73817844Y-8490190D01*
X74222286Y-8323078D01*
X74531991Y-8013913D01*
X74699808Y-7609763D01*
X74700190Y-7172156D01*
X74533078Y-6767714D01*
X74223913Y-6458009D01*
X73819763Y-6290192D01*
X73702171Y-6290089D01*
X70741041Y-3328959D01*
X70465281Y-3144702D01*
X70140000Y-3080000D01*
X65750005Y-3080000D01*
X65750000Y-3079999D01*
X65548822Y-3120016D01*
X65563100Y-3048235D01*
X65563100Y-1958965D01*
X65459424Y-1437750D01*
X65164179Y-995886D01*
X64722315Y-700641D01*
X64201100Y-596965D01*
X63679885Y-700641D01*
X63238021Y-995886D01*
X62942776Y-1437750D01*
X62931100Y-1496449D01*
X62919424Y-1437750D01*
X62624179Y-995886D01*
X62182315Y-700641D01*
X61661100Y-596965D01*
X61139885Y-700641D01*
X60698021Y-995886D01*
X60402776Y-1437750D01*
X60391100Y-1496449D01*
X60379424Y-1437750D01*
X60084179Y-995886D01*
X59642315Y-700641D01*
X59121100Y-596965D01*
X58599885Y-700641D01*
X58158021Y-995886D01*
X57862776Y-1437750D01*
X57851100Y-1496449D01*
X57839424Y-1437750D01*
X57544179Y-995886D01*
X57102315Y-700641D01*
X56581100Y-596965D01*
X56059885Y-700641D01*
X55618021Y-995886D01*
X55322776Y-1437750D01*
X55311100Y-1496449D01*
X55299424Y-1437750D01*
X55004179Y-995886D01*
X54562315Y-700641D01*
X54041100Y-596965D01*
X53519885Y-700641D01*
X53078021Y-995886D01*
X52782776Y-1437750D01*
X52771100Y-1496449D01*
X52759424Y-1437750D01*
X52464179Y-995886D01*
X52022315Y-700641D01*
X51501100Y-596965D01*
X50979885Y-700641D01*
X50538021Y-995886D01*
X50242776Y-1437750D01*
X50231100Y-1496449D01*
X50219424Y-1437750D01*
X49924179Y-995886D01*
X49482315Y-700641D01*
X48961100Y-596965D01*
X48439885Y-700641D01*
X47998021Y-995886D01*
X47702776Y-1437750D01*
X47691100Y-1496449D01*
X47679424Y-1437750D01*
X47384179Y-995886D01*
X46942315Y-700641D01*
X46421100Y-596965D01*
X45899885Y-700641D01*
X45458021Y-995886D01*
X45217673Y-1355591D01*
X44337082Y-475000D01*
X81325000Y-475000D01*
X81325000Y-21272918D01*
G36*
X33478776Y-3569450D02*
X33774021Y-4011314D01*
X34215885Y-4306559D01*
X34578202Y-4378628D01*
X34411405Y-4490079D01*
X34094136Y-4964905D01*
X33982726Y-5525000D01*
X34042604Y-5826026D01*
X33644315Y-6224315D01*
X33470896Y-6483853D01*
X33429100Y-6693979D01*
X32963674Y-6601400D01*
X32906326Y-6601400D01*
X32346231Y-6712810D01*
X31871405Y-7030079D01*
X31665000Y-7338986D01*
X31458595Y-7030079D01*
X31106775Y-6795000D01*
X31458595Y-6559921D01*
X31775864Y-6085095D01*
X31887274Y-5525000D01*
X31775864Y-4964905D01*
X31458595Y-4490079D01*
X31382282Y-4439088D01*
X31495686Y-4325685D01*
X31560141Y-4229221D01*
X31675885Y-4306559D01*
X32197100Y-4410235D01*
X32718315Y-4306559D01*
X33160179Y-4011314D01*
X33455424Y-3569450D01*
X33467100Y-3510751D01*
X33478776Y-3569450D01*
X33478776Y-3569450D01*
G37*
X33478776Y-3569450D02*
X33774021Y-4011314D01*
X34215885Y-4306559D01*
X34578202Y-4378628D01*
X34411405Y-4490079D01*
X34094136Y-4964905D01*
X33982726Y-5525000D01*
X34042604Y-5826026D01*
X33644315Y-6224315D01*
X33470896Y-6483853D01*
X33429100Y-6693979D01*
X32963674Y-6601400D01*
X32906326Y-6601400D01*
X32346231Y-6712810D01*
X31871405Y-7030079D01*
X31665000Y-7338986D01*
X31458595Y-7030079D01*
X31106775Y-6795000D01*
X31458595Y-6559921D01*
X31775864Y-6085095D01*
X31887274Y-5525000D01*
X31775864Y-4964905D01*
X31458595Y-4490079D01*
X31382282Y-4439088D01*
X31495686Y-4325685D01*
X31560141Y-4229221D01*
X31675885Y-4306559D01*
X32197100Y-4410235D01*
X32718315Y-4306559D01*
X33160179Y-4011314D01*
X33455424Y-3569450D01*
X33467100Y-3510751D01*
X33478776Y-3569450D01*
G36*
X28295100Y-1958965D02*
X28295100Y-3048235D01*
X28398776Y-3569450D01*
X28667303Y-3971327D01*
X28456988Y-4181642D01*
X28443769Y-4172810D01*
X27883674Y-4061400D01*
X27826326Y-4061400D01*
X27266231Y-4172810D01*
X26791405Y-4490079D01*
X26474136Y-4964905D01*
X26362726Y-5525000D01*
X26474136Y-6085095D01*
X26791405Y-6559921D01*
X27143225Y-6795000D01*
X26791405Y-7030079D01*
X26585000Y-7338986D01*
X26378595Y-7030079D01*
X25903769Y-6712810D01*
X25343674Y-6601400D01*
X25286326Y-6601400D01*
X24726231Y-6712810D01*
X24251405Y-7030079D01*
X24045000Y-7338986D01*
X23838595Y-7030079D01*
X23486775Y-6795000D01*
X23838595Y-6559921D01*
X24155864Y-6085095D01*
X24267274Y-5525000D01*
X24155864Y-4964905D01*
X23838595Y-4490079D01*
X23363769Y-4172810D01*
X22897337Y-4080031D01*
X23000179Y-4011314D01*
X23295424Y-3569450D01*
X23307100Y-3510751D01*
X23318776Y-3569450D01*
X23614021Y-4011314D01*
X24055885Y-4306559D01*
X24577100Y-4410235D01*
X25098315Y-4306559D01*
X25540179Y-4011314D01*
X25835424Y-3569450D01*
X25939100Y-3048235D01*
X25939100Y-1958965D01*
X25845817Y-1490000D01*
X28388383Y-1490000D01*
X28295100Y-1958965D01*
X28295100Y-1958965D01*
G37*
X28295100Y-1958965D02*
X28295100Y-3048235D01*
X28398776Y-3569450D01*
X28667303Y-3971327D01*
X28456988Y-4181642D01*
X28443769Y-4172810D01*
X27883674Y-4061400D01*
X27826326Y-4061400D01*
X27266231Y-4172810D01*
X26791405Y-4490079D01*
X26474136Y-4964905D01*
X26362726Y-5525000D01*
X26474136Y-6085095D01*
X26791405Y-6559921D01*
X27143225Y-6795000D01*
X26791405Y-7030079D01*
X26585000Y-7338986D01*
X26378595Y-7030079D01*
X25903769Y-6712810D01*
X25343674Y-6601400D01*
X25286326Y-6601400D01*
X24726231Y-6712810D01*
X24251405Y-7030079D01*
X24045000Y-7338986D01*
X23838595Y-7030079D01*
X23486775Y-6795000D01*
X23838595Y-6559921D01*
X24155864Y-6085095D01*
X24267274Y-5525000D01*
X24155864Y-4964905D01*
X23838595Y-4490079D01*
X23363769Y-4172810D01*
X22897337Y-4080031D01*
X23000179Y-4011314D01*
X23295424Y-3569450D01*
X23307100Y-3510751D01*
X23318776Y-3569450D01*
X23614021Y-4011314D01*
X24055885Y-4306559D01*
X24577100Y-4410235D01*
X25098315Y-4306559D01*
X25540179Y-4011314D01*
X25835424Y-3569450D01*
X25939100Y-3048235D01*
X25939100Y-1958965D01*
X25845817Y-1490000D01*
X28388383Y-1490000D01*
X28295100Y-1958965D01*
M02*
