M48
;DRILL file {KiCad 4.0.0-rc1-stable} date 21.10.2016 11:20:59
;FORMAT={2:4/ absolute / inch / suppress leading zeros}
FMAT,2
INCH,TZ
T1C0.016
T2C0.039
T3C0.039
T4C0.040
T5C0.118
T6C0.157
%
G90
G05
M72
T1
X2333Y-19409
X2894Y-19961
X3524Y-15856
X3648Y-12858
X3780Y-19961
X4124Y-18356
X5236Y-12441
X5561Y-5207
X5817Y-10384
X6211Y-6860
X6988Y-9262
X7274Y-18720
X7864Y-10010
X8287Y-17028
X10758Y-17028
X11624Y-7638
X13012Y-8976
X13346Y-17028
X13848Y-7638
X15404Y-9892
X15404Y-13711
X16142Y-9232
X16142Y-14331
X16860Y-15049
X18110Y-6890
X19193Y-18199
X19222Y-8474
X19222Y-13455
X19843Y-7992
X19872Y-13406
X19931Y-9390
X20502Y-13425
X20709Y-20187
T2
X1240Y-5858
X1240Y-6858
X1240Y-7858
X1240Y-8858
X1240Y-9858
X1240Y-10858
X1240Y-11858
X1240Y-12858
X1240Y-13858
X1240Y-14854
X1240Y-15854
X1240Y-16854
X1240Y-17854
X2240Y-5858
X2240Y-6858
X2240Y-7858
X2240Y-8858
X2240Y-9858
X2240Y-10858
X2240Y-11858
X2240Y-12858
X2240Y-13858
X2240Y-14854
X2240Y-15854
X2240Y-16854
X2240Y-17854
T3
X21762Y-21594
X21762Y-22594
T4
X21323Y-3888
X21323Y-4888
X21323Y-5888
X21323Y-6888
X21323Y-7888
X21323Y-8888
X21323Y-9888
X21323Y-10888
X21323Y-11888
X21323Y-12888
X21323Y-13888
X21323Y-14888
X21323Y-15888
X22323Y-3888
X22323Y-4888
X22323Y-5888
X22323Y-6888
X22323Y-7888
X22323Y-8888
X22323Y-9888
X22323Y-10888
X22323Y-11888
X22323Y-12888
X22323Y-13888
X22323Y-14888
X22323Y-15888
T5
X5571Y-1998
X5571Y-17699
X21236Y-1998
X21236Y-17699
T6
X1575Y-1571
X1575Y-22043
X18106Y-22039
X18110Y-1571
T0
M30
